<svg xmlns="http://www.w3.org/2000/svg" width="120" height="73" viewBox="0 0 120 73">
  <g fill="#2B3F6B" fill-rule="evenodd">
    <path d="M89.3690792 19.4539619C89.3551174 19.4158074 89.3411555 19.3775326 89.3270732 19.3392578 89.2513661 19.3301103 89.175659 19.3128987 89.0999519 19.3128987 85.1515065 19.3114544 81.2030612 19.3163892 77.2547362 19.3031494 76.9006339 19.3019458 76.773653 19.4520361 76.6635226 19.7501705 76.0121284 21.5151454 75.3428004 23.2733801 74.6812959 25.0345035 74.3466921 25.9251755 74.0161805 26.8172919 73.6348766 27.8398796 78.9667523 24.9981545 84.1679157 22.225998 89.3690792 19.4539619zM32.6668526 33.5662989C32.667334 33.5648546 32.6414564 33.6156469 32.6362808 33.6683651 32.3533119 36.5941023 33.3748164 39.0032497 35.5084574 40.9857172 38.1319679 43.4232698 41.3058897 44.7678235 44.7482166 45.44666 48.6658495 46.2191374 52.5998516 46.1295888 56.4978656 45.1739218 56.8501625 45.0876229 57.0428606 44.9520963 57.1355386 44.5786158 57.4104433 43.471655 57.7358997 42.3772116 58.0322287 41.2753059 58.2110853 40.6099498 58.3726098 39.9400201 58.5590491 39.2041324 54.2601123 40.5522969 49.9773039 40.8534403 45.6304634 40.19001 41.9540341 39.629007 38.5121886 38.4315346 35.5254283 36.1605617 34.5035627 35.3835105 33.6132518 34.4335005 32.6668526 33.5662989zM32.679009 26.1195587C32.5177252 26.9236911 32.6450672 28.8794383 32.9227402 29.7025878 33.6656088 31.9059178 35.1332919 33.5502909 36.9947964 34.8465797 39.7922287 36.7946239 42.9199318 37.9384152 46.2987081 38.3351254 50.033994 38.7738415 53.7269127 38.6018455 57.3833621 37.5775727 58.762339 37.1912136 59.5975246 36.5487262 59.6896008 35.0858576 59.6981464 34.9491274 59.7653079 34.8166098 59.8015366 34.6810832 60.1405938 33.4107924 60.4790491 32.1400201 60.8225597 30.8507121 60.7275948 30.8556469 60.6876349 30.8474624 60.6569428 30.8607021 55.9670732 32.8834905 51.0804132 33.3944233 46.0513661 32.7244935 42.4890391 32.2499097 39.1222989 31.1720762 36.1657492 29.0853761 34.9056891 28.1960281 33.8020983 27.0852156 32.679009 26.1195587zM32.5064112 18.7502106C32.6527703 19.9114544 32.6506038 21.1163892 32.9760602 22.2249147 33.6557392 24.5392177 35.2877151 26.1886459 37.2423791 27.4927583 40.4835827 29.6550451 44.0916469 30.7410632 47.9722086 30.9754062 52.0064714 31.2188967 55.9324092 30.8137613 59.6756389 29.1677031 61.5016369 28.3647743 61.508016 28.3845135 62.0158195 26.4605416 62.371005 25.1145436 62.734014 23.7705918 63.1230211 22.3150652 59.5271133 24.4381143 55.7285176 25.5005416 51.7074945 25.6692879 44.4339539 25.9745236 37.8246861 24.3754062 32.5064112 18.7502106zM63.7377051 6.4067001C63.7685176 6.32425276 63.79933 6.24180542 63.8300221 6.15935807 62.7116269 5.50435306 61.6365617 4.75630893 60.4672538 4.20962889 54.4625597 1.4025677 48.2701023 1.24549649 42.0124092 3.18306921 39.0455085 4.10178536 36.3950371 5.62507523 34.3931916 8.10222668 32.0397713 11.0146038 32.0484373 14.7491675 34.4149769 17.6513139 36.3151174 19.9815045 38.8218776 21.3893681 41.588016 22.4058175 45.4181464 23.8134403 49.373332 24.0131194 53.3852076 23.5787362 56.9379057 23.1940622 60.196321 21.9949047 63.1387884 19.9580341 63.3680762 19.7993982 63.5742548 19.6073019 63.7911454 19.4308526 63.7692397 19.3833099 63.747334 19.3357673 63.7254283 19.2882247L51.0989488 19.2882247C51.131326 19.1149047 51.144325 19.0168104 51.1681565 18.9214845 52.1651073 14.939338 53.1737332 10.9600802 54.1472136 6.97215647 54.2644453 6.49167503 54.4679759 6.39346038 54.9187282 6.39683049 57.64599 6.41669007 60.3733721 6.4067001 63.1006339 6.4067001L63.7377051 6.4067001zM83.4033821 24.9761284C83.3735326 24.9557874 83.343683 24.9354463 83.3138335 24.914985 78.9692798 27.2029288 74.6244855 29.4908726 70.1377854 31.853681 70.2343149 31.515346 70.2672939 31.3624875 70.3210953 31.2174524 71.9791896 26.7478435 73.6435426 22.2805216 75.2914062 17.8071815 75.4256088 17.4429689 75.6138536 17.336329 75.9914263 17.337653 79.8427402 17.3501705 83.6939338 17.343671 87.5451274 17.3425878 87.7634624 17.3424674 87.9819178 17.3425878 88.2268526 17.3425878 88.9718877 14.3641324 89.7088586 11.4184152 90.466652 8.38904714L89.8175446 8.38904714C78.6648867 8.38904714 67.5124694 8.39121364 56.3600522 8.38038114 55.934335 8.3798997 55.7296008 8.47691073 55.6223591 8.92429288 55.0388485 11.3589569 54.4194704 13.7848345 53.8145356 16.214323 53.7255888 16.5708325 53.6478355 16.9301103 53.5480562 17.361003L66.4324694 17.361003C64.0875948 26.0913942 61.764987 34.7388566 59.4126499 43.4971715 63.0325095 41.7053561 66.5250271 39.9766098 70.1294804 38.1924975 69.2725095 41.3671414 68.4467121 44.4263591 67.6209147 47.4854564 67.6595507 47.4976128 67.6980662 47.5097693 67.7367021 47.5216851 72.9589288 40.0065797 78.1811555 32.4913541 83.4033821 24.9761284zM52.0335527 0C52.8827001.12108325 53.7350973.223269809 54.5805135.36661986 59.1278756 1.13777332 63.2510853 2.78022066 66.5273139 6.17741224 66.6855888 6.34158475 67.0215165 6.39719157 67.274997 6.39755266 75.5582467 6.40862588 83.8416169 6.4067001 92.124987 6.4067001L92.9125095 6.4067001C92.7425597 7.1174323 92.6000522 7.73608826 92.4463511 8.35209629 91.5980461 11.7531394 90.776341 15.1612839 89.8730311 18.5477633 89.6835827 19.2572919 89.253653 19.9296289 88.827334 20.5447944 81.5330913 31.0703711 74.2223591 41.5842728 66.9145155 52.1004614 65.7139137 53.8282447 64.5110251 55.5544634 63.3075346 57.2802006 63.2302628 57.3909328 63.1395105 57.4921565 62.9574042 57.5569107 64.3421585 52.3644132 65.7269127 47.1719157 67.1500622 41.8358275 66.2609549 42.2739418 65.4870331 42.6510331 64.7168425 43.0355868 62.0645657 44.3600401 59.4368425 45.7375727 56.748337 46.9834303 55.8994303 47.3766499 54.8973039 47.4858175 53.9501825 47.6119559 48.920654 48.2822467 44.024004 47.7935807 39.3442447 45.7469609 36.3110251 44.4204614 33.6891996 42.557994 31.9675547 39.6402006 31.1386279 38.235346 30.6978656 36.7206018 30.7021986 35.0635908 30.7209749 27.8633501 30.7683972 20.6623872 30.6835426 13.4631093 30.6461103 10.2819659 31.844666 7.73825476 34.0556991 5.59703109 36.6932919 3.04260782 39.9254684 1.58551655 43.453011.76224674 44.8136931.444613842 46.2174644.311374122 47.6011354.0909929789 47.7164413.0725777332 47.8278957.0308124373 47.9412758 0L52.0335527 0zM32.3034704 68.6018335L32.3034704 63.9051033 34.0585757 63.9051033 34.0585757 71.9396871C33.197994 72.0776209 32.5033902 72.0602889 31.9355266 71.1999478 31.0883049 69.9161765 30.0822066 68.7372397 29.1421866 67.5148526 29.0249549 67.3624754 28.8982146 67.2174403 28.6742227 66.9455446L28.6742227 71.9499178 26.9086459 71.9499178 26.9086459 63.9727462C27.9214845 63.6411515 28.4771916 63.8050832 29.103671 64.6229368 30.1257773 65.9573801 31.1477633 67.2918235 32.1698696 68.6262668 32.2144032 68.6182026 32.2589368 68.6098977 32.3034704 68.6018335M16.6626439 67.9359599C16.664329 66.4770632 15.6004574 65.3595105 14.2172678 65.3670933 12.8484012 65.374676 11.8255727 66.4615366 11.8219619 67.9123691 11.8182307 69.3872738 12.8562247 70.4706439 14.2672177 70.4645055 15.6569067 70.4583671 16.6609589 69.3984674 16.6626439 67.9359599M14.25133 72.1372839C11.79801 72.1528104 9.93145035 70.3507643 9.91965496 67.9556991 9.90797994 65.5807342 11.7768265 63.723683 14.2029448 63.6992497 16.6649308 63.6744554 18.5708485 65.5183872 18.5694042 67.9235627 18.5679599 70.2992497 16.7000762 72.1218776 14.25133 72.1372839M85.5094122 67.7707041C85.736654 67.7707041 85.913344 67.7709448 86.0902748 67.7707041 86.5713581 67.7698616 87.0543671 67.7956189 87.5330431 67.7614363 88.1934644 67.7141344 88.6034142 67.296 88.631338 66.7038235 88.6619097 66.0551976 88.3553501 65.628999 87.6655607 65.5638837 86.9589208 65.4972036 86.2412076 65.5491996 85.5094122 65.5491996L85.5094122 67.7707041zM83.7325216 63.9624794C85.2904754 63.9624794 86.8323009 63.8646259 88.354989 63.9941344 89.5365737 64.0946359 90.2704152 64.9620782 90.4265236 66.0224594 90.6213882 67.3461906 90.1832738 68.2989689 89.0950893 68.916662 89.009994 68.9649268 88.9235747 69.0109047 88.7648185 69.0978054 89.4023711 70.0362608 90.0240361 70.9514865 90.7241765 71.9820181 89.9872056 71.9820181 89.3610873 72.0024794 88.738339 71.9655286 88.6071454 71.9577051 88.4672859 71.7544152 88.368349 71.6147964 88.044337 71.1583872 87.6760321 70.7188285 87.4372357 70.2190893 87.0295727 69.3658495 86.3845577 69.2326098 85.4972558 69.4637031L85.4972558 71.9560201 83.7325216 71.9560201 83.7325216 63.9624794zM80.3197793 64.8443049C79.9434102 65.298668 79.5888265 65.7267924 79.2717954 66.1094203 78.7207823 65.8730311 78.2329589 65.5889789 77.7068606 65.4523691 76.3559278 65.1012758 75.1286058 65.9423591 74.8183149 67.370323 74.5124774 68.7784273 75.3371916 70.1764213 76.6488867 70.428337 76.976991 70.4912859 77.3290471 70.4921284 77.662327 70.4533721 78.8234504 70.3179659 78.9601805 70.1252678 78.8088867 68.880012L77.1244333 68.880012 77.1244333 67.3434824 80.6251354 67.3434824C80.6251354 68.4627202 80.6297091 69.5791896 80.6173119 70.6952979 80.6162287 70.7951976 80.5252357 70.9190491 80.4408626 70.9895807 78.567683 72.5513862 75.2445135 72.6556189 73.70666 70.5242648 72.7101906 69.1434824 72.5859779 67.6252477 73.2993581 66.0889589 74.0045537 64.5696409 75.2758074 63.8091996 76.9221063 63.7105035 78.1767503 63.6352778 79.3369107 63.9261906 80.3197793 64.8443049"/>
    <polygon points="51.894 67.055 51.894 68.679 48.164 68.679 48.164 70.365 52.466 70.365 52.466 71.939 46.351 71.939 46.351 63.909 52.439 63.909 52.439 65.464 48.145 65.464 48.145 67.055"/>
    <polygon points="70.168 65.466 65.918 65.466 65.918 67.051 69.633 67.051 69.633 68.687 65.9 68.687 65.9 70.369 70.238 70.369 70.238 71.948 64.102 71.948 64.102 63.908 70.168 63.908"/>
    <polygon points="119.929 63.902 119.929 71.96 118.162 71.96 118.162 68.746 114.908 68.746 114.908 71.944 113.103 71.944 113.103 63.908 114.875 63.908 114.875 67.004 118.157 67.004 118.157 63.902"/>
    <path d="M97.0538576 65.9987844C96.672674 66.9261665 96.3475787 67.7170592 96.0081605 68.5427362L98.0963049 68.5427362C97.7519519 67.7021344 97.4322728 66.9220742 97.0538576 65.9987844M92.7864554 71.9317432C93.4774483 70.3038596 94.1394343 68.7395266 94.8055125 67.176999 95.2137773 66.2192859 95.6493641 65.2726459 96.029344 64.3038596 96.1772678 63.9267683 96.3614203 63.7885938 96.7726941 63.7965376 97.8915707 63.818323 97.896987 63.7952136 98.3263149 64.7970993 99.2888425 67.042676 100.246435 69.2904193 101.203306 71.5384032 101.255783 71.6617733 101.283226 71.7957352 101.342564 71.9918034 100.793717 71.9918034 100.293978 72.0226158 99.8020622 71.9742307 99.6405376 71.9585838 99.3942788 71.7577011 99.3655125 71.6071294 99.121661 70.3375607 98.3578495 69.9414524 97.1429248 70.1570191 96.7541585 70.225986 96.3390331 70.2027563 95.9429248 70.1587041 95.4831454 70.107671 95.2808185 70.2982026 95.1121926 70.7108004 94.5188124 72.163679 94.5024433 72.1569388 92.7864554 71.9317432M105.798716 67.9334925C106.301224 67.9334925 106.737172 67.9366219 107.172999 67.9315667 107.312016 67.9301224 107.453079 67.918327 107.589208 67.8911254 108.174885 67.7743751 108.580261 67.2911254 108.58652 66.7130311 108.592899 66.135659 108.25324 65.6682969 107.646981 65.5817573 107.049147 65.4964213 106.436269 65.5155587 105.798716 65.4875145L105.798716 67.9334925zM105.769589 69.5982066L105.769589 70.7546359 105.769589 71.9416369 103.992578 71.9416369 103.992578 63.9618175C104.051314 63.9290792 104.101625 63.8768425 104.151454 63.8772036 105.371555 63.8840642 106.595266 63.8402528 107.810552 63.9224594 109.337452 64.0256088 110.326941 65.0614363 110.400602 66.493011 110.479438 68.024004 109.625356 69.1525095 108.076429 69.4362006 107.355948 69.5682367 106.6067 69.5447663 105.769589 69.5982066zM6.38916349 69.5563691C6.7482006 69.9440522 7.11145035 70.3364293 7.47120963 70.7248345 6.02844132 72.5082247 3.02940421 72.6463992 1.30450953 71.0372919-.431097292 69.4180742-.435550652 66.4777733 1.29524173 64.8356871 2.98487061 63.2327182 5.89857172 63.3349047 7.35915346 65.0734002 7.02430893 65.4580742 6.68609428 65.8467202 6.32248345 66.2644935 5.60416851 65.6458375 4.81845135 65.1986961 3.89624473 65.415346 3.39975527 65.5319759 2.8707683 65.8206018 2.52027683 66.1880642 1.63851153 67.1121966 1.69303511 68.7637914 2.53989569 69.7213842 3.44236309 70.7420461 4.69712738 70.6952257 6.38916349 69.5563691"/>
    <polygon points="43.548 63.897 43.548 65.522 41.116 65.522 41.116 71.942 39.295 71.942 39.295 65.569 36.867 65.569 36.867 63.897"/>
    <polygon points="55.539 63.896 57.301 63.896 57.301 70.334 61.292 70.334 61.292 71.956 55.539 71.956"/>
    <polygon points="21.673 71.956 23.397 71.956 23.397 63.896 21.673 63.896"/>
  </g>
</svg>
