<svg xmlns="http://www.w3.org/2000/svg" width="118" height="32" viewBox="0 0 118 32">
  <g fill="#2B3F6B" fill-rule="evenodd">
    <path d="M54.4680712,29.2860587 C54.0960713,29.2434545 53.7778457,29.1986226 53.4580547,29.1717977 C51.8924326,29.0404578 51.2882091,28.5058164 51.0952111,26.998796 C50.9953052,26.2187394 50.9169458,25.4300505 50.9105924,24.6445175 C50.8861914,21.6146045 50.8994508,18.5843203 50.8856389,15.5542216 C50.8836132,15.0967134 51.0525785,14.7346238 51.4522941,14.5827708 C52.0889295,14.3409755 52.7447174,14.0990874 53.4129359,14.0038544 C54.6116226,13.833159 55.7071806,14.2777653 56.7597376,14.8040529 C57.109178,14.9787396 57.2737235,14.8983577 57.4054888,14.5388671 C58.0049242,12.9035699 58.6270111,11.2768121 59.2302218,9.64290716 C59.4207336,9.12682971 59.3774564,9.01331124 58.8419239,8.82692931 C57.470773,8.34955767 56.1065279,8.3695139 54.7738661,8.98360894 C53.1980232,9.70983016 52.1338642,10.9598329 51.3082823,12.4507026 C51.2157427,12.6176853 51.1127062,12.7787274 50.9643666,13.0259991 L50.9643666,8.53770317 C48.0911281,9.12710817 45.2180738,9.7213398 42.3419809,10.3002562 C41.9857266,10.371913 41.8226544,10.49954 41.8174979,10.9002426 C41.8122494,11.3176527 42.0201642,11.3898665 42.3454799,11.4236528 C42.5568937,11.4455583 42.7615857,11.5288175 42.9729074,11.5568491 C43.8577882,11.674266 44.3435979,12.2303487 44.4958048,13.0614562 C44.6369622,13.8326021 44.7531661,14.6205484 44.7603483,15.4022758 C44.7888928,18.5104358 44.7827235,21.6190599 44.7610849,24.7274055 C44.755376,25.5438475 44.6758196,26.3627955 44.5796889,27.1745965 C44.4497652,28.2709826 43.8885427,28.8592738 42.8284352,29.096985 C42.5896739,29.1504492 42.3479661,29.1935175 42.11298,29.2605333 C42.0212692,29.2867085 41.9034999,29.3462059 41.8671286,29.4237103 C41.5869317,30.0207265 41.8949365,30.503853 42.5495274,30.5041314 C46.3702605,30.5059878 50.1909016,30.5059878 54.0115426,30.5049668 C54.158501,30.504874 54.3053673,30.4891875 54.4680712,30.4798127 L54.4680712,29.2860587 Z"/>
    <path d="M67.38133 20.3303235L67.3919341 20.3303235C67.3919341 22.0146295 67.381051 23.699214 67.3957478 25.3834272 67.4055147 26.4957783 67.4514656 27.6076653 67.4822546 28.7198308 67.4909053 29.0328188 67.5492276 29.29884 67.9373918 29.3592656 69.5437199 29.609229 70.8786215 29.1276805 71.7608044 27.760725 72.3070992 26.9143951 72.7581436 25.9818357 73.0992406 25.0333113 73.9834699 22.5744251 74.0440246 20.0075895 73.8243161 17.4411252 73.694742 15.9277002 73.2986713 14.45558 72.4473704 13.1637156 71.2173931 11.2970189 69.7683584 10.9419836 67.7047537 11.5186723 67.4478379 11.590422 67.376121 11.7313222 67.3767722 11.9855554 67.3840276 14.7670829 67.38133 17.5487032 67.38133 20.3303235zM67.4114679.0000278459056C67.4008638 2.39626084 67.3891436 4.79258666 67.3800278 7.18881966 67.3766791 8.08323015 67.3794697 8.97754781 67.3794697 9.95865189 67.6991726 9.830932 67.949112 9.72975854 68.1999816 9.63109122 70.5431055 8.7096702 72.9124605 8.44030747 75.2779086 9.49975136 77.4977836 10.4940358 78.9618873 12.2526904 79.6891021 14.5123857 81.0351659 18.6953048 80.8061555 22.7918088 78.3711298 26.5588957 76.7331755 29.0928731 74.2322931 30.3898426 71.294226 30.8753823 70.7173282 30.970801 70.1226641 30.9565067 69.5368366 31.0023597 69.3233602 31.0189744 69.1120233 31.0630637 68.8997562 31.0946224L68.155612 31.0946224C67.6956379 31.0583299 67.2316641 31.0488623 66.7762478 30.9812896 64.9918832 30.716475 63.2106812 30.4293838 61.4265956 30.1619702 61.1626105 30.1223362 61.1090321 29.9902538 61.1119156 29.7547703 61.1555411 26.1543875 61.2235373 22.5540047 61.2244674 18.953622 61.2253976 14.9679447 61.1673544 10.9821746 61.1253102 6.99659009 61.119078 6.3959539 61.0961956 5.79114084 61.0179674 5.19663075 60.8212343 3.69898513 60.3354942 3.18123692 58.8738091 2.81376379 58.5515017 2.7327322 58.1877082 2.72112974 58.2197994 2.21071429 58.2396123 1.89466326 58.3188636 1.74717278 58.6493566 1.68572615 60.561249 1.33059804 62.4682114.949016309 64.3787084.586091339 65.2881456.413353905 66.2018616.263450113 67.11288.098231073 67.185062.0852363171 67.2500816.0337213917 67.3184499.0000278459056L67.4114679.0000278459056zM0 .858389394C.211027775.837901679.421964197.79965168.632991972.79965168 8.18330998.796644309 15.733628.797302172 23.2838546.797490132L23.7061843.797490132C23.7412642 1.13863877 23.7979037 1.45845387 23.8033849 1.77930276 23.8440375 4.14319029 23.8632218 6.50754772 23.9183996 8.87105932 23.9284486 9.29989162 23.7939755 9.5093738 23.3992348 9.56829947 23.3542886 9.57506606 23.3100733 9.58822331 23.2663147 9.60138055 22.5423341 9.81856912 22.5282656 9.78342048 22.2204939 9.09228905 21.7343078 8.00089534 21.2778118 6.88422092 20.6746926 5.86190277 19.8452895 4.45595686 18.6109141 3.53635922 17.0069203 3.23111107 16.5606559 3.14624682 16.1006884 3.10931255 15.6462936 3.10292189 14.2612753 3.08328 12.8758917 3.09737705 11.4908735 3.07933282 11.1600806 3.07500973 11.0294443 3.18524867 11.0226841 3.53184817 10.9506972 7.22499364 10.873229 10.9181391 10.7841588 14.6109087 10.7741099 15.0261138 10.9174443 15.1701857 11.3130072 15.1439652 12.3295947 15.0768632 13.351572 15.0728221 14.3637745 14.9661544 15.2344697 14.8743356 15.91323 14.3601691 16.3118989 13.5750573 16.6457978 12.9174769 16.8912661 12.2027564 17.0957164 11.4889757 17.2136544 11.0770599 17.353152 10.9019745 17.7929302 10.9114665 18.6163039 10.9291348 18.5231229 10.8437067 18.5237623 11.6656588 18.5261375 14.6409824 18.5151751 17.616494 18.5345421 20.5918176 18.5375568 21.0542009 18.4012566 21.2220498 17.9675991 21.139629 17.908493 21.1284453 17.8439971 21.1245922 17.7855305 21.1363397 17.3326887 21.2273127 17.1900851 20.9808022 17.102842 20.5664429 17.0007995 20.0813164 16.8447669 19.6024865 16.6619675 19.1421708 16.1479185 17.8478736 15.278685 17.0375751 13.8430566 17.009193 12.961125 16.9917127 12.0794674 16.9441586 11.1985406 16.8941611 10.9036499 16.8774326 10.7828798 16.9844762 10.7901882 17.2892544 10.8344035 19.1511929 10.8457314 21.0144472 10.9210985 22.874976 10.9703383 24.0906117 11.1056336 25.3029581 11.2112388 26.5158684 11.2300577 26.7322112 11.2911736 26.9447947 11.3350235 27.1586 11.6591476 28.7399132 12.6369096 29.5253069 14.1755853 29.6389291 14.4318333 29.6578192 14.685432 29.7176847 14.9393962 29.764017 15.1966491 29.8109132 15.3178759 29.9511318 15.3328579 30.242095 15.3750635 31.0662086 15.3692168 31.0893278 14.5732493 31.0894217 9.9151994 31.0897037 5.25714952 31.0855685.599190986 31.0945907.30804574 31.0951545.103960869 31.035477 0 30.744138L0 30.1802559C.167543264 29.6951294.601657545 29.711106.979589106 29.6454138 2.85727954 29.3188321 3.56673482 28.6619095 3.85751465 26.7564581 4.04780506 25.509245 4.17761912 24.2417321 4.20347231 22.980422 4.27408896 19.5359485 4.3250645 16.0894074 4.28678717 12.6449339 4.26038586 10.2701447 4.13760606 7.89140824 3.93617046 5.52554713 3.77301219 3.60975787 2.97850631 2.71675666 1.45216343 2.3752321 1.25986322 2.33218911 1.0612596 2.28707854.866766897 2.29224746.296078364 2.30756626-.0160783067 2.09244526.071530194 1.45319097.0808483035 1.38505523.0253964163 1.30752145 0 1.23431076L0 .858389394zM34.9064828 20.2726349C34.9064828 19.4314764 34.9493969 18.5873781 34.8945723 17.7498025 34.8388384 16.8992733 34.7238248 16.0482848 34.5688973 15.2097905 34.296956 13.7381306 33.8429931 12.3344543 32.7869588 11.2158495 31.5382654 9.89320216 29.758509 10.0245758 28.780393 11.5705582 28.3884375 12.1901271 28.1146778 12.9063429 27.8949244 13.6127286 27.4197772 15.1406127 27.3389495 16.7322543 27.2954898 18.3223342 27.2323005 20.6329477 27.2405742 22.9398864 27.8025499 25.2024521 28.1134958 26.454176 28.5089063 27.6736537 29.3962842 28.653811 30.4253153 29.7906979 31.9217654 29.8341522 33.0202592 28.7808667 33.7644383 28.0674989 34.1313 27.1525691 34.3868757 26.1848142 34.8984818 24.247559 34.9680355 22.2633583 34.9064828 20.2726349zM30.6399771 31.0946038C30.0110844 31.0299275 29.3755545 31.0040203 28.7544809 30.8939605 25.4168125 30.3025037 23.064261 28.4194515 21.8123853 25.244804 20.5707836 22.0960637 20.4484055 18.8359774 21.5423533 15.6455283 22.8938771 11.7035854 25.6915724 9.40078085 29.8403368 8.87666451 31.5424477 8.66159766 33.2225559 8.77064694 34.8615683 9.29696815 37.3004029 10.0801569 39.1232553 11.6288035 40.1566505 13.9912315 41.7872983 17.7193018 41.8984933 21.529228 40.2685729 25.2779689 38.8428584 28.5567966 36.2210931 30.3635051 32.7602284 30.9600147 32.2722615 31.0440755 31.7713839 31.0516088 31.2764161 31.0946038L30.6399771 31.0946038zM94.0752644 17.1338729C94.0425575 16.5305043 94.039762 15.9669191 93.9750937 15.4104087 93.8889002 14.6690379 93.8151 13.9173768 93.6235176 13.1992513 93.4407875 12.514478 93.1973959 11.8178522 92.8314698 11.2143917 92.2135794 10.1956386 91.1006125 10.0310835 90.1610574 10.7819178 89.7614926 11.1012888 89.4058166 11.5177758 89.1471431 11.9570488 88.2506382 13.480217 87.9377327 15.1738206 87.7766208 16.9035325 87.7436344 17.2585526 87.9002735 17.3482264 88.2335858 17.3383035 89.8608247 17.2897914 91.4888091 17.2602064 93.1164207 17.2166558 93.4094784 17.2087542 93.7016974 17.1671331 94.0752644 17.1338729zM91.2557606 31.0945946C90.6313474 31.00097 89.9993865 30.9412487 89.3836392 30.8080243 85.157179 29.89337 82.2473818 26.7371464 81.5405025 22.4138771 81.1019875 19.7319323 81.2834131 17.045026 82.5230145 14.5212967 84.1382329 11.2332269 86.7746338 9.35007714 90.4444242 8.87423637 91.9540672 8.67844245 93.4529012 8.73880688 94.9002987 9.23118585 97.5797497 10.1428082 99.0913496 12.1159074 99.878552 14.7040438 100.258455 15.9529536 100.430004 17.2380636 100.459076 18.5443058 100.467742 18.934791 100.330299 19.0301613 99.9521658 19.0292425 96.1172568 19.0208816 92.2823478 19.0310801 88.4474387 19.0314476 87.5899771 19.0315395 87.7566799 19.0481696 87.7648799 19.7164966 87.7844481 21.3144543 88.0599876 22.8649106 88.8341444 24.2720358 90.0538048 26.4891652 91.9058921 27.7536944 94.5438772 27.8313321 96.2116502 27.8803954 97.7432843 27.5610244 99.130952 26.6307506 99.3618573 26.4759347 99.5955579 26.3083476 99.8572133 26.6217465 100.10778 26.9219148 100.177387 27.1976434 99.9016611 27.5190357 98.7646532 28.8442049 97.3948765 29.8624987 95.7167602 30.3930074 94.7971461 30.6837122 93.8209705 30.8004903 92.8703268 30.9953654 92.7050217 31.0292687 92.5394372 31.0616101 92.3739458 31.0945946L91.2557606 31.0945946zM118 24.351684C117.942425 24.7431899 117.910763 25.1408721 117.823168 25.5252797 117.229804 28.1266228 115.572344 29.7294277 113.130363 30.5807478 112.192094 30.9079092 111.229463 31.0424058 110.230608 31.0766982 107.814266 31.1596639 105.44154 30.9666304 103.124473 30.2347809 102.235567 29.9541725 102.206642 29.961455 102.175437 29.0303035 102.118865 27.3422283 102.110744 25.652586 102.054629 23.964603 102.03711 23.4377709 102.423714 23.4988889 102.717521 23.3975786 103.048192 23.2837312 103.151116 23.4846004 103.283968 23.7454814 103.844211 24.8463439 104.3456 25.9927453 105.031669 27.010089 106.122772 28.6278277 107.73388 29.2135655 109.644543 28.9808928 110.964397 28.8201237 112.09939 27.543374 112.195653 26.1855022 112.284251 24.934564 111.831222 23.9675529 110.753713 23.3828291 109.700932 22.8114721 108.60116 22.3242792 107.504947 21.8396674 106.391762 21.3475886 105.260054 20.9083314 104.327442 20.0777527 102.904573 18.8102214 102.428823 17.187136 102.462675 15.3323919 102.514319 12.4971779 104.708206 9.69413603 108.295491 9.01473923 110.991041 8.5042237 113.64106 8.82613057 116.239069 9.67496173 116.636257 9.80466476 116.800041 10.0022153 116.798308 10.4605546 116.792924 11.9956042 116.826046 13.5319444 116.893841 15.0656112 116.917199 15.591798 116.568827 15.6116176 116.253395 15.7197495 115.898909 15.8414325 115.811588 15.5575055 115.701273 15.3233579 115.284741 14.4389437 114.941844 13.5096358 114.44018 12.6778587 113.537132 11.180328 112.203865 10.3712282 110.413188 10.4914363 109.238504 10.5701615 108.193844 11.661529 108.015826 12.8420386 107.809339 14.2104193 108.284541 15.2566166 109.415336 15.9339854 110.533722 16.6038872 111.732951 17.1351442 112.890755 17.7391344 113.833221 18.23066 114.808991 18.6740655 115.694156 19.2565768 116.992294 20.1112155 117.755829 21.3528431 117.903554 22.943111 117.913135 23.0460806 117.966878 23.1447176 118 23.2454748L118 24.351684z"/>
    <path d="M54.142866,29.8577182 L54.142866,31.0683899 C53.9804333,31.0778975 53.8338118,31.0938064 53.6870983,31.0939005 C49.8728247,31.094936 46.058551,31.094936 42.2441854,31.0930533 C41.5906855,31.0927709 41.2831939,30.6027976 41.5629239,29.9973206 C41.5992345,29.9187178 41.7168075,29.8583771 41.8083655,29.831831 C42.04296,29.7638655 42.284265,29.7201868 42.5226283,29.665965 C43.5809691,29.424885 44.1412563,28.8282566 44.2709635,27.7163327 C44.366934,26.893027 44.4463578,26.0624729 44.4520572,25.2344605 C44.4736597,22.0820639 44.4798187,18.9293848 44.4513218,15.7771765 C44.4441516,14.9843706 44.3281413,14.1852576 44.1872192,13.4031831 C44.035266,12.5602973 43.5502659,11.9963339 42.6668598,11.877253 C42.4558903,11.8488242 42.2515394,11.764385 42.040478,11.7421691 C41.7157044,11.7079039 41.5081362,11.6346668 41.5133759,11.2113412 C41.5185238,10.8049599 41.6813242,10.6755241 42.0369848,10.6028518 C44.9082845,10.0157311 47.7765507,9.41307814 50.6450007,8.81532019 L50.6450007,13.3672235 C50.793093,13.1164476 50.8959579,12.9531231 50.9883432,12.7837741 C51.8125492,11.2717759 52.8749347,10.0040584 54.4481513,9.26754526 C55.7785922,8.64474736 57.1405636,8.62450832 58.5094294,9.10864519 C59.0440694,9.2976685 59.0872745,9.41279574 58.8970802,9.93618696 C58.2948748,11.5932473 57.6738247,13.2430593 57.0753883,14.9015317 C56.9438426,15.266117 56.7795713,15.347638 56.4307132,15.1704757 C55.3799104,14.6367296 54.2861782,14.1858224 53.0894893,14.3589369 C52.4223844,14.4555195 51.7676894,14.7008356 51.132115,14.9460576 C50.7330655,15.1000626 50.5643818,15.4672837 50.5664042,15.9312757 C50.580193,19.0043164 50.5669557,22.0775454 50.591316,25.1503978 C50.5976589,25.9470633 50.6758877,26.7469293 50.7756271,27.5380408 C50.9683034,29.0664185 51.5715199,29.6086367 53.1345329,29.7418379 C53.4537909,29.7690429 53.7714862,29.8145102 54.142866,29.8577182"/>
  </g>
</svg>
