<svg xmlns="http://www.w3.org/2000/svg" width="138" height="27" viewBox="0 0 138 27">
  <g fill="#2B3F6B" fill-rule="evenodd">
    <path d="M0 26.5862441C.0839360078 26.4937715.175228476 26.4063967.250843242 26.3076406 1.19222898 25.0776357 2.11287192 23.8317445 3.07813601 22.6201156 3.65736682 21.8930197 3.8851759 21.0815128 3.88348754 20.185358 3.87818124 17.5194187 3.86612146 14.853598 3.86177995 12.1877772 3.85852381 10.096354 3.85948859 8.00493072 3.86600087 5.91350746 3.86805103 5.2532764 3.64747781 4.67947171 3.24251069 4.16138772 2.52326594 3.24128479 1.80968927 2.31703243 1.09406245 1.3943213 1.01109122 1.28738497.92992896 1.17902598.813793363 1.02656465.980821195 1.01826582 1.09068571 1.00807012 1.20067082 1.00807012 3.88927623 1.00724024 6.57788163 1.01186387 9.26636643 1.00048262 9.53373156.999415628 9.6476964 1.09224395 9.75249581 1.32022461 12.0825642 6.39187563 14.4210745 11.45997 16.7581375 16.5286571 16.8099945 16.6409284 16.8665549 16.7511843 16.945064 16.9117073 17.0199552 16.7355351 17.0750683 16.610697 17.1263223 16.4845548 19.1780512 11.4343622 21.2299007 6.38428813 23.2797 1.33326563 23.3542294 1.14938731 23.4031921.9987043 23.6764665 1.0000084 26.3766493 1.01233809 29.0769526 1.00747735 31.777256 1.00795157 31.8324898 1.00795157 31.8876029 1.01459063 31.9594792 1.01921426 31.9454898 1.06877012 31.9459722 1.1062334 31.9274002 1.12686192 31.1291639 2.01270255 30.3355104 2.9026926 29.5253349 3.77774475 29.2988524 4.02232307 29.1817521 4.27816409 29.1819933 4.60976155 29.1858524 10.9070309 29.185973 17.2043003 29.1813903 23.5015697 29.1811491 23.8370795 29.2987318 24.0911422 29.5455954 24.3200713 30.3109084 25.0295025 31.0638 25.7519748 31.8200682 26.4707719 31.875302 26.5232916 31.9194407 26.5869555 32 26.682392L19.6985509 26.682392C19.8110686 26.5646672 19.887407 26.4769367 19.9720666 26.3978607 20.6919143 25.7245887 21.4093501 25.0487084 22.1364337 24.3831424 22.4122407 24.1305023 22.5247583 23.841466 22.5242759 23.4676631 22.5172813 18.2620452 22.5198138 13.0564274 22.5245171 7.85080962 22.5248789 7.50747525 22.5623848 7.16437798 22.5885545 6.72015356 22.5088394 6.87225923 22.4660272 6.93936118 22.4366014 7.0120352 19.7736833 13.5762897 17.11173 20.1408999 14.4515857 26.70634 14.4140798 26.7989312 14.4031054 26.9018367 14.3797094 27L14.2394543 27C14.2264297 26.9683459 14.21437 26.9359805 14.2001394 26.9048006 11.3043472 20.5509806 8.4084343 14.1972792 5.51143605 7.84405201 5.47175941 7.75703287 5.41773163 7.67629712 5.37045733 7.59259751 5.34633779 7.59757681 5.32221824 7.60243755 5.2980987 7.60741685L5.2980987 8.00528638C5.2980987 11.7501919 5.29858109 15.4950974 5.29689272 19.2401214 5.29677213 19.4694062 5.27856187 19.698691 5.27108481 19.9280943 5.23876463 20.9049849 5.42315853 21.8052892 6.0628088 22.6061261 7.04375059 23.8341156 7.97886525 25.0975529 8.93231077 26.3466451 9.00466939 26.4414889 9.06882738 26.5422603 9.18255102 26.7061029L8.69232132 26.7061029C6.06304999 26.7061029 3.43389926 26.7056287.804627937 26.7069328.536418625 26.7070514.268209312 26.718077 0 26.7242418L0 26.5862441zM138 27C137.397302 26.9936405 136.794604 26.9827559 136.191905 26.9821444 134.231341 26.9798207 132.270777 26.9812883 130.310213 26.9812883L129.865011 26.9812883C129.865011 26.8050559 129.863694 26.6664915 129.86525 26.5280494 129.901991 23.3866857 129.946272 20.2455665 129.972601 17.1040805 129.982774 15.8834174 129.95441 14.661776 129.655813 13.4678963 129.604352 13.2620676 129.539726 13.0584404 129.465645 12.8599496 128.971734 11.5344766 127.958541 10.9508673 126.602589 11.2237156 125.729539 11.3993365 124.999383 11.8383888 124.452336 12.5601956 124.362218 12.6790699 124.325357 12.8779275 124.337325 13.0341029 124.415594 14.0598219 124.589367 15.0838287 124.591162 16.1085693 124.59571 18.8467143 124.533238 21.5851039 124.486444 24.3230043 124.479981 24.6963822 124.592478 24.9861077 124.859719 25.2352301 125.457391 25.7926675 126.046207 26.360011 126.688877 26.9710152L118.495006 26.9710152C118.495006 26.8335515 118.494049 26.696577 118.495246 26.5596025 118.525644 23.3946351 118.558795 20.2295454 118.585602 17.0644557 118.596254 15.8067362 118.568847 14.551218 118.241169 13.3254184 118.228962 13.2796787 118.220704 13.2328383 118.206702 13.1878324 117.884409 12.1507396 117.338917 11.3244898 116.180195 11.2145432 114.898684 11.0928561 113.908468 11.6479697 113.197222 12.7287231 113.132596 12.8266844 113.118833 12.9750327 113.118713 13.1002665 113.114884 16.8463972 113.11991 20.5925279 113.110815 24.3386586 113.109737 24.7508051 113.235758 25.0567964 113.537347 25.3325799 114.105219 25.8517377 114.645684 26.4022041 115.255683 26.9962087L107.167727 26.9962087C107.163059 26.8923772 107.153246 26.7783948 107.153246 26.664657 107.154084 21.5194295 107.160905 16.3744466 107.142954 11.229586 107.141876 10.9402273 106.998263 10.5996255 106.814677 10.3728838 106.327707 9.7709297 105.781976 9.21862889 105.260659 8.6456596 105.184783 8.5621296 105.114292 8.47346306 105 8.33832303L113.095376 8.33832303 113.095376 12.0360234C114.229684 9.47313243 116.075477 8.02401544 118.86517 8.01631062 121.775738 8.00836121 123.408026 9.67773811 124.189403 12.3992505 124.494103 11.8337414 124.743153 11.2741027 125.075738 10.7723112 126.585954 8.49327545 129.523928 7.45789488 132.078574 8.27986426 133.715529 8.80648235 134.69246 10.0064769 135.282951 11.5900002 135.83718 13.0765406 135.964876 14.6325466 135.950156 16.2035954 135.925024 18.8706848 135.886009 21.5378966 135.83347 24.2046192 135.824733 24.6492972 135.962124 24.9676406 136.287289 25.2551648 136.872514 25.7726105 137.430572 26.3217316 138 26.8576443L138 27zM63.1883084 17.2048723C63.1883084 15.431016 63.1821539 13.6571598 63.1949274 11.8835413 63.1967854 11.6146168 63.1103901 11.4289958 62.9308644 11.2507427 61.6366767 9.96696376 59.5901298 10.1455734 58.4524755 11.6494355 57.9474578 12.3170529 57.6475128 13.0849673 57.4570716 13.8963755 56.9936258 15.8699941 56.9873552 17.8658348 57.2263357 19.8679739 57.345826 20.8683304 57.5843421 21.8371955 58.1016688 22.7105169 59.2121504 24.5849079 61.5903437 24.7844326 62.9788231 23.1125371 63.0968037 22.9705288 63.1778574 22.7472371 63.179367 22.5607843 63.1942307 20.7756387 63.1883084 18.9901367 63.1883084 17.2048723zM57.3190016 27C57.023121 26.9405823 56.7252662 26.8905526 56.4318241 26.8200832 54.2434914 26.2944742 52.803918 24.8702317 51.9290494 22.8123589 51.0360657 20.7114676 50.8734939 18.4961378 51.0800762 16.2436126 51.231268 14.5946524 51.6804307 13.0319667 52.588162 11.6442068 54.2551037 9.09578134 56.6202912 8.01830065 59.5712018 8.34913844 61.0345803 8.51325015 62.1259017 9.35912062 62.884183 10.6472965 62.9639594 10.7830065 63.0343297 10.9245395 63.1461559 11.1322638 63.1617163 10.9908497 63.1762317 10.9214498 63.1762317 10.8518122 63.1806443 8.39893048 63.194463 5.94592989 63.1707739 3.4932858 63.1682192 3.23065954 62.9934545 2.92834225 62.8163674 2.71657754 62.3057758 2.10623886 61.7531477 1.53273916 61.2125965.940106952 63.7301371.633749257 66.3098033.319786096 68.9375444 0L68.9375444.461675579C68.9375444 8.18918598 68.9441634 15.9165775 68.924887 23.6440879 68.9233774 24.274391 69.0872265 24.733571 69.5483499 25.1503268 70.0599866 25.6128342 70.5077558 26.1492573 71 26.6710636L63.1978305 26.6710636 63.1978305 23.4374332C63.1747221 23.4337493 63.1514975 23.4300654 63.1281569 23.4262626 63.0855398 23.5139632 63.0419938 23.6013072 63.0003058 23.6894831 62.128108 25.5338087 60.7173331 26.6360071 58.7267574 26.9420083 58.6614964 26.9518717 58.5987902 26.9802733 58.5348065 27L57.3190016 27zM89.8983807 27C89.6308332 26.9434611 89.3613966 26.8957526 89.0963286 26.8290343 87.7242325 26.4834237 86.7268919 25.6360767 86.0653435 24.3537116 85.4316597 23.1250645 85.12019 21.7895946 85.1061397 20.4158598 85.073198 17.195843 85.1131058 13.9747224 85.1297537 10.7539698 85.1315248 10.4241802 85.0386034 10.1541183 84.8140335 9.92158533 84.2952322 9.38465014 83.7817441 8.84182804 83.2671933 8.30047767 83.1889126 8.21818358 83.115709 8.13073845 83 8.00049058L90.9372821 8.00049058 90.9372821 8.42054609C90.9374002 11.6896204 90.9327955 14.9588175 90.9398797 18.2280145 90.9425953 19.4286987 90.9742382 20.6292603 91.2668166 21.8023496 91.3040088 21.951362 91.3491117 22.09878 91.3988193 22.2439904 91.914905 23.7500581 93.0724671 24.2814743 94.482936 23.6385747 94.7822445 23.502072 95.066558 23.308172 95.3222984 23.0948941 95.8031991 22.6940937 96.0561059 22.2135747 96.049494 21.5084947 96.0151355 17.942622 96.0466603 14.3761361 96.0268245 10.8100181 96.0252896 10.5232765 95.8660126 10.1872321 95.6812324 9.96144462 95.207534 9.38293313 94.6777522 8.85396979 94.1714663 8.30427963 94.0951928 8.22124968 94.0244687 8.13245546 93.9114753 8L101.913696 8 101.913696 8.42299897C101.913814 13.5347986 101.918419 18.6465982 101.906258 23.7581526 101.905195 24.2346243 102.032357 24.5902918 102.368621 24.9211851 102.931935 25.4750452 103.452744 26.0755099 104 26.66555L96.0147813 26.66555 96.0147813 22.857946C95.7035477 23.4237026 95.4382436 24.0315259 95.0662038 24.5580364 94.107236 25.9146011 92.8014956 26.7045507 91.1898347 26.9357346 91.1239514 26.9451782 91.0613741 26.9780467 90.9971438 27L89.8983807 27zM45.149704 15.8382654C45.0777952 14.5768006 45.0652675 13.350758 44.9181927 12.1398964 44.8253627 11.3757885 44.6164011 10.6004756 44.3102249 9.889742 43.6190734 8.28501901 41.5401068 8.42453919 40.7304436 9.58046023 40.4369203 9.99938221 40.1547972 10.4691483 40.0429251 10.953252 39.8021433 11.9953159 39.6451717 13.058344 39.5138817 14.1195648 39.444729 14.6788504 39.5017299 15.2524735 39.5017299 15.8382654L45.149704 15.8382654zM41.5493773 27C40.9297588 26.8951791 40.300494 26.8269853 39.6920251 26.6796337 36.1222659 25.8158858 33.7274768 23.2604255 33.1831496 19.7445894 32.8640699 17.6845583 32.9290885 15.6394673 33.6404095 13.6573892 34.737708 10.5999937 37.0276406 8.84635278 40.2833311 8.22706633 42.1698727 7.86826574 44.0531572 7.91838698 45.8947245 8.49441976 48.7245995 9.37961383 50.3272642 11.287233 50.7857769 14.0826968 50.928467 14.9525894 50.9295945 15.8440487 51 16.7859906L39.4679051 16.7859906C39.5226511 19.0200002 39.8487463 21.0865373 41.7671082 22.5657163 42.4666532 23.1052425 43.2917255 23.3763309 44.1726711 23.4852482 46.8812784 23.8197111 49.3014987 22.6313799 50.6275524 20.3249596 50.6612518 20.266525 50.7010898 20.2113434 50.7637282 20.1658006 50.5670438 21.2337685 50.2085019 22.2459524 49.6612933 23.1927137 48.340877 25.4776879 46.2729348 26.6474646 43.6126843 26.9296375 43.4823966 26.9433726 43.3543638 26.9760237 43.2253288 27L41.5493773 27zM78.9585271 0C79.218066.0774003718 79.4828833.14054278 79.736114.23474718 81.4036775.854841278 82.3339496 2.64905319 81.8892831 4.37490325 81.4354762 6.13665284 79.7940468 7.21771198 77.9592506 6.96297819 76.2544813 6.72644876 74.9548555 5.16774785 75.0012017 3.4150368 75.0442007 1.78835596 76.203758.413608237 77.8155773.0754908232 77.898743.0580502789 77.9786903.0254606486 78.0600537 0L78.9585271 0zM84 26L75.3209972 26C75.3127731 25.8709669 75.2997944 25.7608397 75.2997944 25.6504763 75.3018504 20.669822 75.310974 15.6891678 75.2922128 10.7086317 75.2913133 10.4314233 75.1259316 10.1050593 74.9261115 9.88811354 74.4119764 9.33015171 73.8350039 8.82110902 73.2839887 8.29162427 73.2007196 8.21139215 73.1228476 8.12631537 73 8L81.7077872 8 81.7077872 8.43991781C81.7077872 13.386305 81.7135698 18.3326922 81.6989206 23.2790794 81.6975071 23.7655531 81.8393729 24.1299653 82.2459522 24.4480579 82.7572603 24.848155 83.2270625 25.2930357 83.7133128 25.7201919 83.7972244 25.7939252 83.8729118 25.8753389 84 26"/>
  </g>
</svg>
