<svg xmlns="http://www.w3.org/2000/svg" xmlns:xlink="http://www.w3.org/1999/xlink" viewBox="0 0 620 401">
  <defs>
    <path id="code-b" d="M4,-7.99352446e-15 L586,4.39468611e-13 L586,4.42312853e-13 C588.209139,4.41907036e-13 590,1.790861 590,4 L590,367 L590,367 C590,369.209139 588.209139,371 586,371 L4,371 L4,371 C1.790861,371 3.16642949e-14,369.209139 0,367 L0,4 L-3.10862447e-15,4 C-3.37916597e-15,1.790861 1.790861,4.05816873e-16 4,0 Z"/>
    <filter id="code-a" width="111.4%" height="118.1%" x="-5.7%" y="-5.8%" filterUnits="objectBoundingBox">
      <feOffset dy="2" in="SourceAlpha" result="shadowOffsetOuter1"/>
      <feGaussianBlur in="shadowOffsetOuter1" result="shadowBlurOuter1" stdDeviation="3"/>
      <feColorMatrix in="shadowBlurOuter1" result="shadowMatrixOuter1" values="0 0 0 0 0.694117647   0 0 0 0 0.752941176   0 0 0 0 0.839215686  0 0 0 0.4 0"/>
      <feOffset dy="10" in="SourceAlpha" result="shadowOffsetOuter2"/>
      <feGaussianBlur in="shadowOffsetOuter2" result="shadowBlurOuter2" stdDeviation="7.5"/>
      <feColorMatrix in="shadowBlurOuter2" result="shadowMatrixOuter2" values="0 0 0 0 0.705882353   0 0 0 0 0.788235294   0 0 0 0 0.952941176  0 0 0 0.35 0"/>
      <feMerge>
        <feMergeNode in="shadowMatrixOuter1"/>
        <feMergeNode in="shadowMatrixOuter2"/>
      </feMerge>
    </filter>
  </defs>
  <g fill="none" fill-rule="evenodd" transform="translate(14 5)">
    <g transform="translate(1)">
      <use fill="#000" filter="url(#code-a)" xlink:href="#code-b"/>
      <use fill="#FFF" xlink:href="#code-b"/>
    </g>
    <path stroke="#B5BDCE" stroke-linecap="round" stroke-width="6" d="M60 115L111 115M240 278L291 278M145 141L156 141"/>
    <path stroke="#4F89DC" stroke-linecap="round" stroke-width="6" d="M124 115L168 115M150 204L194 204M145 128L319 128M144 154L367 154"/>
    <path stroke="#DFE4EE" stroke-linecap="round" stroke-width="6" d="M181 115L225 115M99 128L132 128M99 141L132 141M99 154L132 154M61 167L164 167M98 180L164 180M98 204L118 204M207 204L397 204M304 278L534 278"/>
    <path stroke="#85BBFF" stroke-linecap="round" stroke-width="6" d="M130,204 L137,204"/>
    <path stroke="#DFE4EE" stroke-linecap="round" stroke-width="6" d="M98 192L338 192M98 216L338 216"/>
    <path stroke="#4F89DC" stroke-linecap="round" stroke-width="6" d="M150,228 L194,228"/>
    <path stroke="#DFE4EE" stroke-linecap="round" stroke-width="6" d="M98 228L118 228M207 228L397 228"/>
    <path stroke="#85BBFF" stroke-linecap="round" stroke-width="6" d="M130,228 L137,228"/>
    <path stroke="#DFE4EE" stroke-linecap="round" stroke-width="6" d="M98,240 L338,240"/>
    <path stroke="#4F89DC" stroke-linecap="round" stroke-width="6" d="M150,290 L194,290"/>
    <path stroke="#DFE4EE" stroke-linecap="round" stroke-width="6" d="M98 290L118 290M207 290L397 290"/>
    <path stroke="#85BBFF" stroke-linecap="round" stroke-width="6" d="M130,290 L137,290"/>
    <path stroke="#DFE4EE" stroke-linecap="round" stroke-width="6" d="M98 302L338 302M98 278L118 278M129 278L227 278"/>
    <path stroke="#B5BDCE" stroke-linecap="round" stroke-width="6" d="M240,253 L291,253"/>
    <path stroke="#4F89DC" stroke-linecap="round" stroke-width="6" d="M150,253 L194,253"/>
    <path stroke="#DFE4EE" stroke-linecap="round" stroke-width="6" d="M304,253 L474,253"/>
    <path stroke="#85BBFF" stroke-linecap="round" stroke-width="6" d="M131,253 L138,253"/>
    <path stroke="#DFE4EE" stroke-linecap="round" stroke-width="6" d="M98 253L118 253M207 253L227 253"/>
    <path stroke="#B5BDCE" stroke-linecap="round" stroke-width="6" d="M240,265 L291,265"/>
    <path stroke="#4F89DC" stroke-linecap="round" stroke-width="6" d="M150,265 L194,265"/>
    <path stroke="#DFE4EE" stroke-linecap="round" stroke-width="6" d="M304,265 L474,265"/>
    <path stroke="#85BBFF" stroke-linecap="round" stroke-width="6" d="M131,265 L138,265"/>
    <path stroke="#DFE4EE" stroke-linecap="round" stroke-width="6" d="M98 265L118 265M207 265L227 265M62 314L82 314"/>
    <circle cx="36" cy="26" r="6" fill="#ED6B60"/>
    <circle cx="57" cy="26" r="6" fill="#F6C050"/>
    <circle cx="78" cy="26" r="6" fill="#64CA57"/>
    <path stroke="#DFE4EE" stroke-linecap="square" d="M0.5,51.5 L591.74445,51.5" opacity=".5"/>
  </g>
</svg>
