<svg xmlns="http://www.w3.org/2000/svg" width="172" height="111" viewBox="0 0 172 111">
    <g fill="none" fill-rule="evenodd">
        <path fill="#E0E1E6" d="M141 78H15V4.56L19.713 0h116.574L141 4.56z"/>
        <path fill="#E0E1E6" d="M155 86H0v-1.666C0 80.284 3.54 77 7.905 77H155v9z"/>
        <path fill="#0053FE" d="M152 111l-20-19.5L152 72l20 19.5z"/>
        <path fill="#FFF" d="M23 77h110V8H23z"/>
        <path fill="#BABFC8" d="M51 42h55v-8H51zM51 52h55v-8H51z"/>
        <path stroke="#FFF" stroke-width="2" d="M149 94l-2 2M157 86l-6 6M150 86l-7 7M153 83l-1 1M155 94l-5 5M160 89l-3 3M151 83l-2 2 2 2 2-2zM156 91l-2 2 2 2 2-2zM150 91l-2 2 2 2 2-2z"/>
    </g>
</svg>
