<svg xmlns="http://www.w3.org/2000/svg" width="188" height="126" viewBox="0 0 188 126">
  <g fill="none" fill-rule="evenodd" transform="translate(9 3)">
    <g transform="translate(40)">
      <circle cx="60.5" cy="60.5" r="60.5" fill="#E0E1E6" stroke="#FFF" stroke-width="2"/>
      <circle cx="60.5" cy="60.5" r="35.5" fill="#FFF"/>
      <g fill="#E0E1E6" transform="translate(46 46)">
        <path d="M23.6980875,7.25 L17.0391309,0.828947368 C15.8929171,-0.276315789 14.0371423,-0.276315789 12.8909284,0.828947368 L6.28655346,7.25 C5.90448218,7.61842105 5.90448218,8.19736842 6.28655346,8.56578947 L8.30607308,10.5131579 L9.61603175,11.7236842 C9.99810303,12.0921053 10.5985008,12.0921053 11.0351536,11.7236842 L13.7096526,9.35526316 C14.4192136,8.72368421 15.5654274,8.72368421 16.3295699,9.35526316 L19.0040689,11.7236842 C19.3861402,12.0921053 19.9865379,12.0921053 20.4231908,11.7236842 L21.7877311,10.5131579 L23.8072507,8.56578947 C24.0801588,8.19736842 24.0801588,7.61842105 23.6980875,7.25 Z"/>
        <path d="M0.994737898,17.1625817 L12.6718196,29.0220588 C13.9556872,30.3259804 16.03433,30.3259804 17.3181976,29.0220588 L28.9952793,17.1625817 C31.0127855,15.1135621 29.6066448,14.4926471 28.1393675,13.0645425 L26.3052709,11.3259804 C25.8773151,10.8913399 25.204813,10.8913399 24.7157205,11.3259804 L21.7200294,14.120098 C20.9252542,14.8651961 19.6413866,14.8651961 18.7854749,14.120098 L15.7897838,11.3259804 C15.3618279,10.8913399 14.6893258,10.8913399 14.2002334,11.3259804 L11.2045423,14.120098 C10.4097671,14.8651961 9.12589948,14.8651961 8.26998773,14.120098 L5.27429662,11.3259804 C4.84634075,10.8913399 4.17383867,10.8913399 3.68474624,11.3259804 L2.0340593,12.878268 C0.505645472,14.3684641 -1.08390491,15.0514706 0.994737898,17.1625817 Z"/>
      </g>
    </g>
    <g transform="translate(20)">
      <circle cx="60.5" cy="60.5" r="60.5" fill="#E0E1E6" stroke="#FFF" stroke-width="2"/>
      <circle cx="60.5" cy="60.5" r="35.5" fill="#FFF"/>
      <g fill="#E0E1E6" transform="translate(46 46)">
        <path d="M23.6980875,7.25 L17.0391309,0.828947368 C15.8929171,-0.276315789 14.0371423,-0.276315789 12.8909284,0.828947368 L6.28655346,7.25 C5.90448218,7.61842105 5.90448218,8.19736842 6.28655346,8.56578947 L8.30607308,10.5131579 L9.61603175,11.7236842 C9.99810303,12.0921053 10.5985008,12.0921053 11.0351536,11.7236842 L13.7096526,9.35526316 C14.4192136,8.72368421 15.5654274,8.72368421 16.3295699,9.35526316 L19.0040689,11.7236842 C19.3861402,12.0921053 19.9865379,12.0921053 20.4231908,11.7236842 L21.7877311,10.5131579 L23.8072507,8.56578947 C24.0801588,8.19736842 24.0801588,7.61842105 23.6980875,7.25 Z"/>
        <path d="M0.994737898,17.1625817 L12.6718196,29.0220588 C13.9556872,30.3259804 16.03433,30.3259804 17.3181976,29.0220588 L28.9952793,17.1625817 C31.0127855,15.1135621 29.6066448,14.4926471 28.1393675,13.0645425 L26.3052709,11.3259804 C25.8773151,10.8913399 25.204813,10.8913399 24.7157205,11.3259804 L21.7200294,14.120098 C20.9252542,14.8651961 19.6413866,14.8651961 18.7854749,14.120098 L15.7897838,11.3259804 C15.3618279,10.8913399 14.6893258,10.8913399 14.2002334,11.3259804 L11.2045423,14.120098 C10.4097671,14.8651961 9.12589948,14.8651961 8.26998773,14.120098 L5.27429662,11.3259804 C4.84634075,10.8913399 4.17383867,10.8913399 3.68474624,11.3259804 L2.0340593,12.878268 C0.505645472,14.3684641 -1.08390491,15.0514706 0.994737898,17.1625817 Z"/>
      </g>
    </g>
    <circle cx="60.5" cy="60.5" r="60.5" fill="#E0E1E6" stroke="#FFF" stroke-width="2"/>
    <circle cx="60.5" cy="60.5" r="35.5" fill="#FFF"/>
    <g fill="#E0E1E6" transform="translate(46 46)">
      <path d="M23.6980875,7.25 L17.0391309,0.828947368 C15.8929171,-0.276315789 14.0371423,-0.276315789 12.8909284,0.828947368 L6.28655346,7.25 C5.90448218,7.61842105 5.90448218,8.19736842 6.28655346,8.56578947 L8.30607308,10.5131579 L9.61603175,11.7236842 C9.99810303,12.0921053 10.5985008,12.0921053 11.0351536,11.7236842 L13.7096526,9.35526316 C14.4192136,8.72368421 15.5654274,8.72368421 16.3295699,9.35526316 L19.0040689,11.7236842 C19.3861402,12.0921053 19.9865379,12.0921053 20.4231908,11.7236842 L21.7877311,10.5131579 L23.8072507,8.56578947 C24.0801588,8.19736842 24.0801588,7.61842105 23.6980875,7.25 Z"/>
      <path d="M0.994737898,17.1625817 L12.6718196,29.0220588 C13.9556872,30.3259804 16.03433,30.3259804 17.3181976,29.0220588 L28.9952793,17.1625817 C31.0127855,15.1135621 29.6066448,14.4926471 28.1393675,13.0645425 L26.3052709,11.3259804 C25.8773151,10.8913399 25.204813,10.8913399 24.7157205,11.3259804 L21.7200294,14.120098 C20.9252542,14.8651961 19.6413866,14.8651961 18.7854749,14.120098 L15.7897838,11.3259804 C15.3618279,10.8913399 14.6893258,10.8913399 14.2002334,11.3259804 L11.2045423,14.120098 C10.4097671,14.8651961 9.12589948,14.8651961 8.26998773,14.120098 L5.27429662,11.3259804 C4.84634075,10.8913399 4.17383867,10.8913399 3.68474624,11.3259804 L2.0340593,12.878268 C0.505645472,14.3684641 -1.08390491,15.0514706 0.994737898,17.1625817 Z"/>
    </g>
    <g transform="translate(124 88)">
      <path fill="#002EFF" d="M4.92163923,0.36392613 L40.7420464,0.168365844 L40.7420464,3.08006294 L2.7161365,3.08006294 C2.7161365,1.25482057 3.70481015,0.36392613 4.92163923,0.36392613 Z"/>
      <path stroke="#FFF" stroke-linecap="square" stroke-width="2" d="M3.5,4 L41.5249844,4"/>
      <path fill="#4F77FC" d="M0,29.0106474 L0,5 L43.4581835,5 L43.4581835,29.0106474 C43.4581835,30.7489749 42.1363311,32.1613659 40.5138916,32.1613659 L2.94429192,32.1613659 C1.32185308,32.1613659 0,30.7489749 0,29.0106474 Z"/>
      <circle cx="27" cy="18" r="3" fill="#FFF"/>
      <path fill="#FFF" fill-rule="nonzero" d="M22,13 C21.4477153,13 21,13.4477153 21,14 L21,22 C21,22.5522847 21.4477153,23 22,23 L44,23 L44,13 L22,13 Z M22,11 L44,11 L44,25 L22,25 C20.3431458,25 19,23.6568542 19,22 L19,14 C19,12.3431458 20.3431458,11 22,11 Z"/>
    </g>
  </g>
</svg>
