<svg xmlns="http://www.w3.org/2000/svg" width="168" height="111" viewBox="0 0 168 111">
    <g fill="none" fill-rule="evenodd">
        <path fill="#E0E1E6" d="M22.497 77.488h109.07V8.053H22.497v69.435zm116.999 0V4.63L134.855 0H19.21l-4.706 4.629v72.86h-6.64C3.545 77.488 0 80.975 0 85.223V87h154v-9.512h-14.504z"/>
        <path fill="#BABFC8" d="M78.5 64C66.649 64 57 54.575 57 43s9.649-21 21.5-21v7.78c-7.512 0-13.6 5.946-13.6 13.22 0 7.337 6.088 13.283 13.535 13.283 7.512 0 13.6-5.946 13.6-13.22H100C100.064 54.575 90.415 64 78.5 64"/>
        <path fill="#0053FE" d="M148 72l20 19.5-20 19.5-20-19.5z"/>
        <path fill="#FFF" d="M142.33 89.213c-1.719 0-3.12 1.451-3.12 3.233s1.401 3.234 3.12 3.234h11.274c1.72 0 3.12-1.452 3.12-3.234s-1.4-3.233-3.12-3.233h-.764l-.128-.462c-.7-2.046-2.611-3.431-4.713-3.431s-4.012 1.385-4.713 3.431l-.127.462h-.828zM153.669 97h-11.273c-2.42 0-4.395-2.046-4.395-4.554 0-2.507 1.91-4.487 4.267-4.553C143.287 85.517 145.515 84 148 84a6.196 6.196 0 0 1 5.732 3.893c2.357.066 4.268 2.111 4.268 4.553.063 2.508-1.911 4.554-4.331 4.554z"/>
    </g>
</svg>
