<svg xmlns="http://www.w3.org/2000/svg" xmlns:xlink="http://www.w3.org/1999/xlink" width="164" height="121" viewBox="0 0 164 121">
    <defs>
        <path id="a" d="M0 100.411V.461h99.608v99.95z"/>
        <path id="c" d="M100.119.96v99.951H.16V.961h99.959z"/>
        <path id="e" d="M.607 41H82V.038H.607z"/>
        <path id="g" d="M0 121h176V2H0z"/>
    </defs>
    <g fill="none" fill-rule="evenodd">
        <g transform="translate(0 1)">
            <mask id="b" fill="#fff">
                <use xlink:href="#a"/>
            </mask>
            <path fill="#E0E1E6" d="M49.804.46c27.506 0 49.804 22.376 49.804 49.976 0 27.6-22.298 49.975-49.804 49.975C22.298 100.411 0 78.037 0 50.436 0 22.836 22.298.461 49.804.461" mask="url(#b)"/>
        </g>
        <g transform="translate(42)">
            <mask id="d" fill="#fff">
                <use xlink:href="#c"/>
            </mask>
            <path fill="#BABFC8" d="M50.14.96c27.602 0 49.979 22.376 49.979 49.976 0 27.6-22.377 49.975-49.98 49.975C22.538 100.911.16 78.537.16 50.936.16 23.336 22.537.961 50.14.961" mask="url(#d)"/>
        </g>
        <path fill="#FFF" d="M73.687 51L92.5 69.413 111.313 51 92.5 32.587 73.687 51zM92.5 74L69 51l23.5-23L116 51 92.5 74z"/>
        <g transform="translate(96 80)">
            <mask id="f" fill="#fff">
                <use xlink:href="#e"/>
            </mask>
            <path fill="#0053FD" d="M27.607 20.519L47.763.039l20.156 20.48L47.763 41z" mask="url(#f)"/>
        </g>
        <path fill="#FFF" d="M152 107h-16V95h16v4.114h-1.385v-2.743h-13.23v9.258h13.23v-2.743H152z"/>
        <mask id="h" fill="#fff">
            <use xlink:href="#g"/>
        </mask>
        <path fill="#FFF" d="M144.37 102.667h7.192v-2.334h-7.192v2.334zM153 104h-10v-5h9.932v5H153z" mask="url(#h)"/>
    </g>
</svg>
