<svg xmlns="http://www.w3.org/2000/svg" xmlns:xlink="http://www.w3.org/1999/xlink" width="188" height="126" viewBox="0 0 188 126">
  <defs>
    <polygon id="start_leasing_download_client-a" points="0 .398 49.436 .398 49.436 34.665 0 34.665"/>
    <polygon id="start_leasing_download_client-c" points=".019 .398 49.545 .398 49.545 34.726 .019 34.726"/>
  </defs>
  <g fill="none" fill-rule="evenodd" transform="translate(12 14)">
    <path fill="#E0E1E6" d="M3,2.35974705e-13 L144,2.7419744e-15 L144,-1.77635684e-15 C145.656854,-2.08071949e-15 147,1.34314575 147,3 L147,106 L147,106 C147,107.656854 145.656854,109 144,109 L3,109 L3,109 C1.34314575,109 -2.41183085e-16,107.656854 -4.4408921e-16,106 L0,3 L4.88498131e-15,3 C4.68207518e-15,1.34314575 1.34314575,2.44832041e-13 3,2.4158453e-13 Z"/>
    <path fill="#FFF" d="M18,34 L92,34 L92,34 C93.6568542,34 95,35.3431458 95,37 L95,66 L95,66 C95,67.6568542 93.6568542,69 92,69 L18,69 L18,69 C16.3431458,69 15,67.6568542 15,66 L15,37 L15,37 C15,35.3431458 16.3431458,34 18,34 Z"/>
    <g transform="translate(118 74)">
      <g transform="translate(0 .666)">
        <mask id="start_leasing_download_client-b" fill="#fff">
          <use xlink:href="#start_leasing_download_client-a"/>
        </mask>
        <path fill="#FFF" d="M28.0438298,34.6201064 L35.8023404,34.6201064 C36.1374468,34.6467021 36.4757447,34.6647872 36.8161702,34.6647872 C43.786383,34.6647872 49.436383,29.0147872 49.436383,22.0456383 C49.436383,15.0754255 43.786383,9.4243617 36.8161702,9.4243617 C36.642766,9.4243617 36.4704255,9.43074468 36.2980851,9.43819149 C34.7555319,4.21265957 29.9225532,0.397765957 24.1970213,0.397765957 C18.4704255,0.397765957 13.6385106,4.21265957 12.0948936,9.43819149 C5.3693617,9.7137234 0.000212765957,15.2509574 0.000212765957,22.0456383 C0.000212765957,28.6626596 5.09595745,34.0871277 11.5768085,34.6179787 L11.5768085,34.6201064 L11.6065957,34.6201064 C11.9406383,34.6467021 12.2789362,34.6647872 12.6204255,34.6647872 C12.9608511,34.6647872 13.2991489,34.6467021 13.6331915,34.6201064 L21.4512766,34.6201064" mask="url(#start_leasing_download_client-b)"/>
      </g>
      <g transform="translate(0 .666)">
        <mask id="start_leasing_download_client-d" fill="#fff">
          <use xlink:href="#start_leasing_download_client-c"/>
        </mask>
        <path fill="#4F77FC" d="M33.2778723,34.7126596 C33.2778723,34.7126596 36.5597872,34.7264894 36.9023404,34.7264894 C43.8853191,34.7264894 49.5448936,29.0658511 49.5448936,22.0839362 C49.5448936,15.1009574 43.8853191,9.44138298 36.9023404,9.44138298 C36.7278723,9.44138298 36.5555319,9.44776596 36.3831915,9.45414894 C34.8374468,4.21904255 29.9959574,0.397765957 24.2597872,0.397765957 C18.523617,0.397765957 13.6831915,4.21904255 12.1374468,9.45414894 C5.39914894,9.73074468 0.0193617021,15.2775532 0.0193617021,22.0839362 C0.0193617021,28.7137234 5.12468085,34.147766 11.6182979,34.6796809 L11.6182979,34.6818085 L11.6470213,34.6818085 C12.7257447,34.7584043 15.9885106,34.6818085 15.9885106,34.6818085" mask="url(#start_leasing_download_client-d)"/>
      </g>
      <path fill="#002EFF" fill-rule="nonzero" d="M24.5317599,4.54290978 C23.4308278,4.58302726 21.8801148,4.88769798 20.2994969,5.70414246 C18.3090894,6.73225763 16.8457139,8.35859546 16.2175501,10.6469788 C15.9982579,11.4458545 16.4681031,12.2712427 17.2669788,12.490535 C18.0658545,12.7098273 18.8912427,12.239982 19.110535,11.4411063 C19.5003579,10.0209923 20.3871541,9.035442 21.6762801,8.36956326 C22.3266363,8.03363152 23.0378125,7.8028571 23.7510321,7.66272987 C24.173903,7.57964784 24.4903977,7.54640811 24.6410061,7.54092 C25.4688837,7.51075251 26.1155556,6.81516948 26.0853881,5.98729182 C26.0552206,5.15941416 25.3596376,4.51274229 24.5317599,4.54290978 Z"/>
      <path fill="#FFF" d="M17.9949004,21.515285 L22.7521428,21.515285 L22.7521428,14.7395754 C22.7521428,14.3028428 23.1066119,13.9490426 23.5433445,13.9490426 L25.7524225,13.9490426 C26.1891551,13.9490426 26.5429554,14.3028428 26.5429554,14.7395754 L26.5429554,21.5032465 L31.3015353,21.5032465 C31.6098565,21.5032465 31.7643515,21.8764422 31.5463196,22.0944741 L25.3471239,28.2836377 C24.953195,28.6768978 24.3151507,28.676229 23.9218907,28.2829689 L17.7501161,22.1058439 C17.532753,21.887812 17.6865792,21.515285 17.9949004,21.515285"/>
    </g>
    <path fill="#FFF" d="M8.5 10C9.32842712 10 10 9.32842712 10 8.5 10 7.67157288 9.32842712 7 8.5 7 7.67157288 7 7 7.67157288 7 8.5 7 9.32842712 7.67157288 10 8.5 10zM15.5 10C16.3284271 10 17 9.32842712 17 8.5 17 7.67157288 16.3284271 7 15.5 7 14.6715729 7 14 7.67157288 14 8.5 14 9.32842712 14.6715729 10 15.5 10zM22.5 10C23.3284271 10 24 9.32842712 24 8.5 24 7.67157288 23.3284271 7 22.5 7 21.6715729 7 21 7.67157288 21 8.5 21 9.32842712 21.6715729 10 22.5 10z"/>
    <g stroke-width="2" transform="translate(1 16)">
      <path stroke="#FFF" stroke-linecap="square" d="M0.5,1 L147.5,1"/>
      <polyline stroke="#E0E1E6" points="13.532 46.598 19.141 44.289 24.098 45.443 28.837 44.289 34.098 44.289 37.967 42.332 42.75 44.465 46.445 42.332 51.185 40.023 56.793 38.536 60.88 35.641 66.271 37.206 73.445 35.641 78.358 33.606 81.75 28.128 86.054 28.128 89.314 29.263 96.488 25.584"/>
      <polyline stroke="#E0E1E6" points="13.532 50.598 19.141 48.289 24.098 49.443 28.837 48.289 34.098 48.289 37.967 46.332 42.75 48.465 46.445 46.332 51.185 44.023 56.793 42.536 60.88 39.641 66.271 41.206 73.445 39.641 78.358 37.606 84.008 36.851 86.054 32.128 89.314 33.263 96.488 29.584" transform="rotate(10 55.01 40.09)"/>
      <path stroke="#FFF" stroke-linecap="square" d="M103.5 20L123.5 20M103.5 24L123.5 24M103.5 28L113.5 28M16 67L46 67M16 71L36 71M63 67L93 67M63 71L83 71M16 75L36 75M63 75L83 75"/>
    </g>
  </g>
</svg>
