<svg xmlns="http://www.w3.org/2000/svg" width="160" height="113" viewBox="0 0 160 113">
    <g fill="none" fill-rule="evenodd">
        <path fill="#E0E1E6" d="M0 90h31V62H0zM34 90h31V62H34zM68 90h31V62H68zM102 90h31V62h-31zM0 59h31V31H0zM34 59h31V31H34zM68 59h31V31H68zM102 59h31V31h-31z"/>
        <path fill="#BABFC8" d="M0 28h31V0H0zM34 28h31V0H34zM68 28h31V0H68zM102 28h31V0h-31z"/>
        <path fill="#0053FE" d="M140 113l-20-19.5L140 74l20 19.5z"/>
        <path stroke="#FFF" stroke-width="2" d="M142 86v15h-4V86M133 89c3.866-4 10.134-4 14 0"/>
    </g>
</svg>
