<svg xmlns="http://www.w3.org/2000/svg" width="546" height="48"><path fill="#0056ff" d="M86 0h3v48h-3zM498.001 24l24-23.998L546 24 522 48z"/><path fill="#0056ff" fill-rule="evenodd" d="M115 0l-4 24 4 24 4-24-4-24zM149 0l-8 24 8 24 8-24-8-24zM190 0l-12 24 12 24 12-24-12-24zM234.5 0L219 24l15.5 24L250 24 234.5 0zM284.5 0L266 23.99 284.5 48 303 23.99 284.5 0zM338 0l-21 24.01L338 48l21-23.99L338 0zM398.5 0L376 23.99 398.5 48 421 23.99 398.5 0zM460.49 0L437 24l23.49 24L484 24 460.49 0zM2.13 6L0 7.74 30.86 45 33 43.26 2.13 6zM39.5 3L37 4.14 57.5 47l2.5-1.14L39.5 3z"/></svg>
