<svg xmlns="http://www.w3.org/2000/svg" xmlns:xlink="http://www.w3.org/1999/xlink" width="214" height="37" viewBox="0 0 214 37">
    <defs>
        <path id="a" d="M.256.009H25.51v25.428H.256z"/>
        <path id="c" d="M22 .686v17.662H.528V.686H22z"/>
        <path id="e" d="M0 10.807V.916h9.794v9.891z"/>
    </defs>
    <g fill="none" fill-rule="evenodd">
        <g transform="translate(9 -.009)">
            <mask id="b" fill="#fff">
                <use xlink:href="#a"/>
            </mask>
            <path fill="#FFF" d="M25.51 12.913L19.081 6.39l-3.363 3.587 3.153 2.739-5.852 5.949-6.275-6.036 9.474-9.22A8638.097 8638.097 0 0 1 13.011.01h-.305C11.26 1.506 9.824 3.013 8.367 4.498 5.634 7.287 2.888 10.064.256 12.736l12.635 12.7L25.51 12.914" mask="url(#b)"/>
        </g>
        <g transform="translate(192 8.991)">
            <mask id="d" fill="#fff">
                <use xlink:href="#c"/>
            </mask>
            <path fill="#FFF" d="M13.631 15.192a42.563 42.563 0 0 1-5.026-.021c-3.033-.208-5.069-2.65-4.99-5.833C3.69 6.207 5.762 4 8.796 3.85c.811-.04 1.625-.006 2.438-.006v-.005c.762 0 1.525-.025 2.286.005 3.185.124 5.393 2.422 5.411 5.612.018 3.18-2.153 5.578-5.3 5.736m8.042-8.341c-.998-3.51-3.338-5.57-6.917-5.968A33.519 33.519 0 0 0 8.061.827C3.317 1.254.395 4.81.533 9.707c.134 4.777 3.558 8.398 8.186 8.59 1.675.07 3.358.065 5.034 0 3.603-.14 6.49-2.311 7.711-5.716.168-.47.357-.93.536-1.395v-3.67c-.11-.22-.259-.431-.326-.665" mask="url(#d)"/>
        </g>
        <path fill="#FFF" d="M21.795 30.243l-9.227-9.476-3.488 3.368c2.806 2.81 5.58 5.562 8.325 8.344 1.459 1.478 2.869 3.006 4.3 4.512h.612c.283-.394.518-.836.856-1.176 3.87-3.89 7.757-7.767 11.529-11.537l-3.447-3.689-9.46 9.654"/>
        <g transform="translate(0 13.991)">
            <mask id="f" fill="#fff">
                <use xlink:href="#e"/>
            </mask>
            <path fill="#FFF" d="M6.462.916c-.547.682-.964 1.332-1.504 1.854C3.33 4.342 1.656 5.866 0 7.409v.611l3.396 2.787 6.398-6.212c-1-1.102-2.04-2.253-3.332-3.679" mask="url(#f)"/>
        </g>
        <path fill="#FFF" d="M115.962 23.987a1.998 1.998 0 0 1-.596.123c-3.397.007-6.794.005-10.3.005V12.968c3.56 0 7.096-.068 10.627.04 1.15.034 1.761.947 1.682 2.15-.082 1.233-.86 1.833-2.007 1.878-1.778.069-3.559.037-5.339.045-.857.004-1.714 0-2.744 0v2.574c1.665 0 3.321-.01 4.977.003 1.168.009 2.345-.031 3.501.099 1.126.127 1.848.809 1.91 2.018.063 1.219-.644 1.862-1.71 2.212m2.356-5.99c2.03-1.122 2.476-2.834 2.081-4.761-.419-2.05-1.936-3.013-3.9-3.328a15.05 15.05 0 0 0-2.274-.183c-2.848-.021-5.696-.009-8.544-.009h-3.564c-.113.328-.203.468-.203.609-.013 5.34-.034 10.68.022 16.018.003.324.617.914.953.918 4.27.057 8.545.118 12.813-.007 2.953-.086 4.838-1.959 5.112-4.683.204-2.029-.659-3.515-2.496-4.574M69.091 9.626c-.706.138-1.505.952-1.835 1.66-1.734 3.729-3.332 7.52-5.098 11.566-.32-.643-.49-.947-.63-1.265-1.553-3.535-3.049-7.098-4.7-10.587-.3-.636-1.216-1.316-1.869-1.337-.475-.016-1.245.942-1.437 1.598-1.316 4.494-2.515 9.022-3.747 13.54-.208.763-.392 1.533-.588 2.308 2.831.499 2.854.484 3.517-1.97.24-.886.49-1.767.733-2.652L55.501 15c1.67 3.85 3.11 7.313 4.69 10.709.335.72 1.18 1.653 1.804 1.665.61.012 1.483-.915 1.821-1.63 1.502-3.167 2.852-6.41 4.265-9.62.12-.272.302-.517.57-.967.945 3.507 1.811 6.748 2.695 9.984.662 2.422.96 2.578 3.59 1.913-1.41-5.196-2.818-10.393-4.239-15.586-.239-.877-.448-2.07-1.606-1.842M187.733 17.067c-2.188.046-4.38.015-6.568.015h-3.094v2.639h7.673v4.404c-2.864 0-5.615.154-8.341-.045-2.591-.19-4.403-2.541-4.496-5.346-.096-2.901 1.6-5.287 4.186-5.775.79-.15 1.62-.123 2.434-.127 2.736-.015 5.472-.006 8.396-.006 0-.904.119-1.544-.04-2.105-.11-.39-.597-.952-.924-.958-3.155-.057-6.324-.18-9.466.043-4.786.338-7.77 3.882-7.662 8.758.107 4.907 3.498 8.574 8.202 8.716 3.256.099 6.517.006 9.776.037.82.007 1.196-.208 1.18-1.116-.048-2.647-.054-5.297.003-7.943.02-.98-.368-1.21-1.26-1.191M89.362 24.21c-1.422.028-2.848.054-4.267-.02-3.13-.161-5.3-2.558-5.28-5.755.018-3.192 2.233-5.49 5.414-5.601.76-.027 1.524-.004 2.286-.004.61-.003 1.22-.01 1.828-.002 3.555.05 5.785 2.238 5.78 5.665-.006 3.422-2.234 5.646-5.76 5.717m1.374-14.38c-2.264-.215-4.585-.174-6.85.056-2.997.304-5.177 1.953-6.4 4.764-2.674 6.14 1.526 12.618 8.206 12.656.61.003 1.221 0 1.831 0v-.013c.865 0 1.732.043 2.594-.007 4.581-.267 7.921-3.795 8.102-8.53.187-4.876-2.728-8.471-7.483-8.925M155.36 24.246c-1.307.038-1.635-.41-1.598-1.65.084-2.798.069-5.6.005-8.398-.024-1.06.294-1.418 1.376-1.394 2.95.064 5.903.022 8.855.022h2.386V9.937c-.181-.09-.27-.173-.36-.174-4.783-.019-9.566-.017-14.35-.055-1.015-.008-.974.6-.972 1.304.01 4.733.006 9.466.006 14.2v1.968h15.697v-2.963h-1.732c-3.105 0-6.211-.062-9.313.03M135.41 9.833h-2.934v17.372h14.703v-3.069h-11.77zM125.005 27.23h2.877V9.792h-2.877zM33.994 18.304l6.272 6.448 3.207-2.868-6.345-6.442-3.134 2.862"/>
        <path fill="#FFF" d="M156.147 19.55h9.529v-2.387h-9.529z"/>
    </g>
</svg>
