<svg xmlns="http://www.w3.org/2000/svg" xmlns:xlink="http://www.w3.org/1999/xlink" width="100%" viewBox="0 0 1100 620">
  <defs>
    <rect id="product_mane-b" width="757" height="519" x="115" y="51" rx="31"/>
    <filter id="product_mane-a" width="103.6%" height="105.2%" x="-1.8%" y="-1.4%" filterUnits="objectBoundingBox">
      <feOffset dy="6" in="SourceAlpha" result="shadowOffsetOuter1"/>
      <feGaussianBlur in="shadowOffsetOuter1" result="shadowBlurOuter1" stdDeviation="3.5"/>
      <feColorMatrix in="shadowBlurOuter1" values="0 0 0 0 0   0 0 0 0 0.0904195312   0 0 0 0 0.423203656  0 0 0 0.12 0"/>
    </filter>
    <filter id="product_mane-c" width="102.4%" height="103.5%" x="-1.2%" y="-.6%" filterUnits="objectBoundingBox">
      <feGaussianBlur in="SourceAlpha" result="shadowBlurInner1" stdDeviation="1.5"/>
      <feOffset dy="1" in="shadowBlurInner1" result="shadowOffsetInner1"/>
      <feComposite in="shadowOffsetInner1" in2="SourceAlpha" k2="-1" k3="1" operator="arithmetic" result="shadowInnerInner1"/>
      <feColorMatrix in="shadowInnerInner1" values="0 0 0 0 0   0 0 0 0 0   0 0 0 0 0  0 0 0 0.03 0"/>
    </filter>
  </defs>
  <g fill="none" fill-rule="evenodd">
    <use fill="#000" filter="url(#product_mane-a)" xlink:href="#product_mane-b"/>
    <use fill="#FFF" xlink:href="#product_mane-b"/>
    <use fill="#000" filter="url(#product_mane-c)" xlink:href="#product_mane-b"/>
    <g transform="translate(180 311)">
      <path fill="#263F6F" d="M3.23304526,0.584414291 L622.057184,0.584414291 L622.057184,0.584414291 C623.714039,0.584414291 625.057184,1.92756004 625.057184,3.58441429 L625.057184,26.8117232 L625.057184,26.8117232 C625.057184,28.4685774 623.714039,29.8117232 622.057184,29.8117232 L3.23304526,29.8117232 L3.23304526,29.8117232 C1.57619101,29.8117232 0.233045261,28.4685774 0.233045261,26.8117232 L0.233045261,3.58441429 L0.233045261,3.58441429 C0.233045261,1.92756004 1.57619101,0.584414291 3.23304526,0.584414291 Z" opacity=".3"/>
      <polygon fill="#DFE4EE" points=".233 59.039 625.057 59.039 625.057 59.77 .233 59.77" opacity=".5"/>
      <polygon fill="#DFE4EE" points=".233 88.266 625.057 88.266 625.057 88.997 .233 88.997" opacity=".5"/>
      <polygon fill="#DFE4EE" points=".233 117.494 625.057 117.494 625.057 118.224 .233 118.224" opacity=".5"/>
      <polygon fill="#DFE4EE" points=".233 146.721 625.057 146.721 625.057 147.452 .233 147.452" opacity=".5"/>
      <polygon fill="#DFE4EE" points=".233 175.948 625.057 175.948 625.057 176.679 .233 176.679" opacity=".5"/>
      <polygon fill="#DFE4EE" points=".233 205.176 625.057 205.176 625.057 205.906 .233 205.906" opacity=".5"/>
      <path fill="#DFE4EE" fill-rule="nonzero" d="M231.352359,47.4253776 L241.564692,47.4253776 C243.221546,47.4253776 244.564692,46.0822318 244.564692,44.4253776 C244.564692,42.7685233 243.221546,41.4253776 241.564692,41.4253776 L231.352359,41.4253776 C229.695505,41.4253776 228.352359,42.7685233 228.352359,44.4253776 C228.352359,46.0822318 229.695505,47.4253776 231.352359,47.4253776 Z"/>
      <path fill="#263F6F" fill-rule="nonzero" d="M3.1493773,47.4253776 L33.0469514,47.4253776 C34.7038057,47.4253776 36.0469514,46.0822318 36.0469514,44.4253776 C36.0469514,42.7685233 34.7038057,41.4253776 33.0469514,41.4253776 L3.1493773,41.4253776 C1.49252305,41.4253776 0.149377298,42.7685233 0.149377298,44.4253776 C0.149377298,46.0822318 1.49252305,47.4253776 3.1493773,47.4253776 Z" opacity=".3"/>
      <path fill="#DFE4EE" fill-rule="nonzero" d="M45.4361918,47.4253776 L73.8755999,47.4253776 C75.5324542,47.4253776 76.8755999,46.0822318 76.8755999,44.4253776 C76.8755999,42.7685233 75.5324542,41.4253776 73.8755999,41.4253776 L45.4361918,41.4253776 C43.7793376,41.4253776 42.4361918,42.7685233 42.4361918,44.4253776 C42.4361918,46.0822318 43.7793376,47.4253776 45.4361918,47.4253776 Z"/>
      <path fill="#263F6F" fill-rule="nonzero" d="M3.1493773,76.6526864 L33.0469514,76.6526864 C34.7038057,76.6526864 36.0469514,75.3095407 36.0469514,73.6526864 C36.0469514,71.9958322 34.7038057,70.6526864 33.0469514,70.6526864 L3.1493773,70.6526864 C1.49252305,70.6526864 0.149377298,71.9958322 0.149377298,73.6526864 C0.149377298,75.3095407 1.49252305,76.6526864 3.1493773,76.6526864 Z" opacity=".3"/>
      <path fill="#DFE4EE" fill-rule="nonzero" d="M45.4361918,76.6526864 L73.8755999,76.6526864 C75.5324542,76.6526864 76.8755999,75.3095407 76.8755999,73.6526864 C76.8755999,71.9958322 75.5324542,70.6526864 73.8755999,70.6526864 L45.4361918,70.6526864 C43.7793376,70.6526864 42.4361918,71.9958322 42.4361918,73.6526864 C42.4361918,75.3095407 43.7793376,76.6526864 45.4361918,76.6526864 Z"/>
      <path fill="#263F6F" fill-rule="nonzero" d="M3.1493773,105.879995 L33.0469514,105.879995 C34.7038057,105.879995 36.0469514,104.53685 36.0469514,102.879995 C36.0469514,101.223141 34.7038057,99.8799953 33.0469514,99.8799953 L3.1493773,99.8799953 C1.49252305,99.8799953 0.149377298,101.223141 0.149377298,102.879995 C0.149377298,104.53685 1.49252305,105.879995 3.1493773,105.879995 Z" opacity=".3"/>
      <path fill="#DFE4EE" fill-rule="nonzero" d="M45.4361918,105.879995 L73.8755999,105.879995 C75.5324542,105.879995 76.8755999,104.53685 76.8755999,102.879995 C76.8755999,101.223141 75.5324542,99.8799953 73.8755999,99.8799953 L45.4361918,99.8799953 C43.7793376,99.8799953 42.4361918,101.223141 42.4361918,102.879995 C42.4361918,104.53685 43.7793376,105.879995 45.4361918,105.879995 Z"/>
      <path fill="#263F6F" fill-rule="nonzero" d="M3.1493773,135.107304 L33.0469514,135.107304 C34.7038057,135.107304 36.0469514,133.764158 36.0469514,132.107304 C36.0469514,130.45045 34.7038057,129.107304 33.0469514,129.107304 L3.1493773,129.107304 C1.49252305,129.107304 0.149377298,130.45045 0.149377298,132.107304 C0.149377298,133.764158 1.49252305,135.107304 3.1493773,135.107304 Z" opacity=".3"/>
      <path fill="#DFE4EE" fill-rule="nonzero" d="M45.4361918,135.107304 L73.8755999,135.107304 C75.5324542,135.107304 76.8755999,133.764158 76.8755999,132.107304 C76.8755999,130.45045 75.5324542,129.107304 73.8755999,129.107304 L45.4361918,129.107304 C43.7793376,129.107304 42.4361918,130.45045 42.4361918,132.107304 C42.4361918,133.764158 43.7793376,135.107304 45.4361918,135.107304 Z"/>
      <path fill="#263F6F" fill-rule="nonzero" d="M3.1493773,164.334613 L33.0469514,164.334613 C34.7038057,164.334613 36.0469514,162.991467 36.0469514,161.334613 C36.0469514,159.677759 34.7038057,158.334613 33.0469514,158.334613 L3.1493773,158.334613 C1.49252305,158.334613 0.149377298,159.677759 0.149377298,161.334613 C0.149377298,162.991467 1.49252305,164.334613 3.1493773,164.334613 Z" opacity=".3"/>
      <path fill="#DFE4EE" fill-rule="nonzero" d="M45.4361918,164.334613 L73.8755999,164.334613 C75.5324542,164.334613 76.8755999,162.991467 76.8755999,161.334613 C76.8755999,159.677759 75.5324542,158.334613 73.8755999,158.334613 L45.4361918,158.334613 C43.7793376,158.334613 42.4361918,159.677759 42.4361918,161.334613 C42.4361918,162.991467 43.7793376,164.334613 45.4361918,164.334613 Z"/>
      <path fill="#263F6F" fill-rule="nonzero" d="M3.1493773,193.561922 L33.0469514,193.561922 C34.7038057,193.561922 36.0469514,192.218776 36.0469514,190.561922 C36.0469514,188.905068 34.7038057,187.561922 33.0469514,187.561922 L3.1493773,187.561922 C1.49252305,187.561922 0.149377298,188.905068 0.149377298,190.561922 C0.149377298,192.218776 1.49252305,193.561922 3.1493773,193.561922 Z" opacity=".3"/>
      <path fill="#DFE4EE" fill-rule="nonzero" d="M45.4361918 193.561922L73.8755999 193.561922C75.5324542 193.561922 76.8755999 192.218776 76.8755999 190.561922 76.8755999 188.905068 75.5324542 187.561922 73.8755999 187.561922L45.4361918 187.561922C43.7793376 187.561922 42.4361918 188.905068 42.4361918 190.561922 42.4361918 192.218776 43.7793376 193.561922 45.4361918 193.561922zM184.691047 47.4253776L211.672289 47.4253776C213.329143 47.4253776 214.672289 46.0822318 214.672289 44.4253776 214.672289 42.7685233 213.329143 41.4253776 211.672289 41.4253776L184.691047 41.4253776C183.034192 41.4253776 181.691047 42.7685233 181.691047 44.4253776 181.691047 46.0822318 183.034192 47.4253776 184.691047 47.4253776zM92.8265875 47.4253776L165.010976 47.4253776C166.66783 47.4253776 168.010976 46.0822318 168.010976 44.4253776 168.010976 42.7685233 166.66783 41.4253776 165.010976 41.4253776L92.8265875 41.4253776C91.1697332 41.4253776 89.8265875 42.7685233 89.8265875 44.4253776 89.8265875 46.0822318 91.1697332 47.4253776 92.8265875 47.4253776zM490.905911 47.4253776L517.887153 47.4253776C519.544007 47.4253776 520.887153 46.0822318 520.887153 44.4253776 520.887153 42.7685233 519.544007 41.4253776 517.887153 41.4253776L490.905911 41.4253776C489.249056 41.4253776 487.905911 42.7685233 487.905911 44.4253776 487.905911 46.0822318 489.249056 47.4253776 490.905911 47.4253776z"/>
      <path fill="#263F6F" fill-rule="nonzero" d="M536.109057,47.4253776 L563.090299,47.4253776 C564.747154,47.4253776 566.090299,46.0822318 566.090299,44.4253776 C566.090299,42.7685233 564.747154,41.4253776 563.090299,41.4253776 L536.109057,41.4253776 C534.452203,41.4253776 533.109057,42.7685233 533.109057,44.4253776 C533.109057,46.0822318 534.452203,47.4253776 536.109057,47.4253776 Z" opacity=".3"/>
      <path fill="#DFE4EE" fill-rule="nonzero" d="M362.587301,47.4253776 L372.799634,47.4253776 C374.456488,47.4253776 375.799634,46.0822318 375.799634,44.4253776 C375.799634,42.7685233 374.456488,41.4253776 372.799634,41.4253776 L362.587301,41.4253776 C360.930447,41.4253776 359.587301,42.7685233 359.587301,44.4253776 C359.587301,46.0822318 360.930447,47.4253776 362.587301,47.4253776 Z"/>
      <ellipse cx="610.476" cy="44.425" fill="#263F6F" opacity=".3" rx="5.833" ry="5.845"/>
      <path fill="#263F6F" fill-rule="nonzero" d="M231.352359,76.6526864 L343.636313,76.6526864 C345.293168,76.6526864 346.636313,75.3095407 346.636313,73.6526864 C346.636313,71.9958322 345.293168,70.6526864 343.636313,70.6526864 L231.352359,70.6526864 C229.695505,70.6526864 228.352359,71.9958322 228.352359,73.6526864 C228.352359,75.3095407 229.695505,76.6526864 231.352359,76.6526864 Z" opacity=".3"/>
      <path fill="#DFE4EE" fill-rule="nonzero" d="M184.691047 76.6526864L211.672289 76.6526864C213.329143 76.6526864 214.672289 75.3095407 214.672289 73.6526864 214.672289 71.9958322 213.329143 70.6526864 211.672289 70.6526864L184.691047 70.6526864C183.034192 70.6526864 181.691047 71.9958322 181.691047 73.6526864 181.691047 75.3095407 183.034192 76.6526864 184.691047 76.6526864zM92.8265875 76.6526864L143.138486 76.6526864C144.79534 76.6526864 146.138486 75.3095407 146.138486 73.6526864 146.138486 71.9958322 144.79534 70.6526864 143.138486 70.6526864L92.8265875 70.6526864C91.1697332 70.6526864 89.8265875 71.9958322 89.8265875 73.6526864 89.8265875 75.3095407 91.1697332 76.6526864 92.8265875 76.6526864zM490.905911 76.6526864L517.887153 76.6526864C519.544007 76.6526864 520.887153 75.3095407 520.887153 73.6526864 520.887153 71.9958322 519.544007 70.6526864 517.887153 70.6526864L490.905911 70.6526864C489.249056 70.6526864 487.905911 71.9958322 487.905911 73.6526864 487.905911 75.3095407 489.249056 76.6526864 490.905911 76.6526864zM536.109057 76.6526864L563.090299 76.6526864C564.747154 76.6526864 566.090299 75.3095407 566.090299 73.6526864 566.090299 71.9958322 564.747154 70.6526864 563.090299 70.6526864L536.109057 70.6526864C534.452203 70.6526864 533.109057 71.9958322 533.109057 73.6526864 533.109057 75.3095407 534.452203 76.6526864 536.109057 76.6526864zM362.587301 76.6526864L372.799634 76.6526864C374.456488 76.6526864 375.799634 75.3095407 375.799634 73.6526864 375.799634 71.9958322 374.456488 70.6526864 372.799634 70.6526864L362.587301 70.6526864C360.930447 70.6526864 359.587301 71.9958322 359.587301 73.6526864 359.587301 75.3095407 360.930447 76.6526864 362.587301 76.6526864z"/>
      <ellipse cx="610.476" cy="73.653" fill="#263F6F" opacity=".3" rx="5.833" ry="5.845"/>
      <path fill="#DFE4EE" fill-rule="nonzero" d="M231.352359 105.879995L241.564692 105.879995C243.221546 105.879995 244.564692 104.53685 244.564692 102.879995 244.564692 101.223141 243.221546 99.8799953 241.564692 99.8799953L231.352359 99.8799953C229.695505 99.8799953 228.352359 101.223141 228.352359 102.879995 228.352359 104.53685 229.695505 105.879995 231.352359 105.879995zM184.691047 105.879995L211.672289 105.879995C213.329143 105.879995 214.672289 104.53685 214.672289 102.879995 214.672289 101.223141 213.329143 99.8799953 211.672289 99.8799953L184.691047 99.8799953C183.034192 99.8799953 181.691047 101.223141 181.691047 102.879995 181.691047 104.53685 183.034192 105.879995 184.691047 105.879995zM92.8265875 105.879995L165.010976 105.879995C166.66783 105.879995 168.010976 104.53685 168.010976 102.879995 168.010976 101.223141 166.66783 99.8799953 165.010976 99.8799953L92.8265875 99.8799953C91.1697332 99.8799953 89.8265875 101.223141 89.8265875 102.879995 89.8265875 104.53685 91.1697332 105.879995 92.8265875 105.879995z"/>
      <path fill="#263F6F" fill-rule="nonzero" d="M490.905911,105.879995 L517.887153,105.879995 C519.544007,105.879995 520.887153,104.53685 520.887153,102.879995 C520.887153,101.223141 519.544007,99.8799953 517.887153,99.8799953 L490.905911,99.8799953 C489.249056,99.8799953 487.905911,101.223141 487.905911,102.879995 C487.905911,104.53685 489.249056,105.879995 490.905911,105.879995 Z" opacity=".3"/>
      <path fill="#DFE4EE" fill-rule="nonzero" d="M536.109057 105.879995L563.090299 105.879995C564.747154 105.879995 566.090299 104.53685 566.090299 102.879995 566.090299 101.223141 564.747154 99.8799953 563.090299 99.8799953L536.109057 99.8799953C534.452203 99.8799953 533.109057 101.223141 533.109057 102.879995 533.109057 104.53685 534.452203 105.879995 536.109057 105.879995zM362.587301 105.879995L372.799634 105.879995C374.456488 105.879995 375.799634 104.53685 375.799634 102.879995 375.799634 101.223141 374.456488 99.8799953 372.799634 99.8799953L362.587301 99.8799953C360.930447 99.8799953 359.587301 101.223141 359.587301 102.879995 359.587301 104.53685 360.930447 105.879995 362.587301 105.879995z"/>
      <ellipse cx="610.476" cy="102.88" fill="#263F6F" opacity=".3" rx="5.833" ry="5.845"/>
      <path fill="#DFE4EE" fill-rule="nonzero" d="M231.352359 135.107304L241.564692 135.107304C243.221546 135.107304 244.564692 133.764158 244.564692 132.107304 244.564692 130.45045 243.221546 129.107304 241.564692 129.107304L231.352359 129.107304C229.695505 129.107304 228.352359 130.45045 228.352359 132.107304 228.352359 133.764158 229.695505 135.107304 231.352359 135.107304zM184.691047 135.107304L211.672289 135.107304C213.329143 135.107304 214.672289 133.764158 214.672289 132.107304 214.672289 130.45045 213.329143 129.107304 211.672289 129.107304L184.691047 129.107304C183.034192 129.107304 181.691047 130.45045 181.691047 132.107304 181.691047 133.764158 183.034192 135.107304 184.691047 135.107304zM92.8265875 135.107304L121.265996 135.107304C122.92285 135.107304 124.265996 133.764158 124.265996 132.107304 124.265996 130.45045 122.92285 129.107304 121.265996 129.107304L92.8265875 129.107304C91.1697332 129.107304 89.8265875 130.45045 89.8265875 132.107304 89.8265875 133.764158 91.1697332 135.107304 92.8265875 135.107304zM490.905911 135.107304L517.887153 135.107304C519.544007 135.107304 520.887153 133.764158 520.887153 132.107304 520.887153 130.45045 519.544007 129.107304 517.887153 129.107304L490.905911 129.107304C489.249056 129.107304 487.905911 130.45045 487.905911 132.107304 487.905911 133.764158 489.249056 135.107304 490.905911 135.107304z"/>
      <path fill="#263F6F" fill-rule="nonzero" d="M536.109057 135.107304L563.090299 135.107304C564.747154 135.107304 566.090299 133.764158 566.090299 132.107304 566.090299 130.45045 564.747154 129.107304 563.090299 129.107304L536.109057 129.107304C534.452203 129.107304 533.109057 130.45045 533.109057 132.107304 533.109057 133.764158 534.452203 135.107304 536.109057 135.107304zM362.587301 135.107304L474.871255 135.107304C476.528109 135.107304 477.871255 133.764158 477.871255 132.107304 477.871255 130.45045 476.528109 129.107304 474.871255 129.107304L362.587301 129.107304C360.930447 129.107304 359.587301 130.45045 359.587301 132.107304 359.587301 133.764158 360.930447 135.107304 362.587301 135.107304z" opacity=".3"/>
      <ellipse cx="610.476" cy="132.107" fill="#263F6F" opacity=".3" rx="5.833" ry="5.845"/>
      <path fill="#263F6F" fill-rule="nonzero" d="M231.352359,164.334613 L343.636313,164.334613 C345.293168,164.334613 346.636313,162.991467 346.636313,161.334613 C346.636313,159.677759 345.293168,158.334613 343.636313,158.334613 L231.352359,158.334613 C229.695505,158.334613 228.352359,159.677759 228.352359,161.334613 C228.352359,162.991467 229.695505,164.334613 231.352359,164.334613 Z" opacity=".3"/>
      <path fill="#DFE4EE" fill-rule="nonzero" d="M184.691047 164.334613L211.672289 164.334613C213.329143 164.334613 214.672289 162.991467 214.672289 161.334613 214.672289 159.677759 213.329143 158.334613 211.672289 158.334613L184.691047 158.334613C183.034192 158.334613 181.691047 159.677759 181.691047 161.334613 181.691047 162.991467 183.034192 164.334613 184.691047 164.334613zM92.8265875 164.334613L165.010976 164.334613C166.66783 164.334613 168.010976 162.991467 168.010976 161.334613 168.010976 159.677759 166.66783 158.334613 165.010976 158.334613L92.8265875 158.334613C91.1697332 158.334613 89.8265875 159.677759 89.8265875 161.334613 89.8265875 162.991467 91.1697332 164.334613 92.8265875 164.334613zM490.905911 164.334613L517.887153 164.334613C519.544007 164.334613 520.887153 162.991467 520.887153 161.334613 520.887153 159.677759 519.544007 158.334613 517.887153 158.334613L490.905911 158.334613C489.249056 158.334613 487.905911 159.677759 487.905911 161.334613 487.905911 162.991467 489.249056 164.334613 490.905911 164.334613zM536.109057 164.334613L563.090299 164.334613C564.747154 164.334613 566.090299 162.991467 566.090299 161.334613 566.090299 159.677759 564.747154 158.334613 563.090299 158.334613L536.109057 158.334613C534.452203 158.334613 533.109057 159.677759 533.109057 161.334613 533.109057 162.991467 534.452203 164.334613 536.109057 164.334613zM362.587301 164.334613L372.799634 164.334613C374.456488 164.334613 375.799634 162.991467 375.799634 161.334613 375.799634 159.677759 374.456488 158.334613 372.799634 158.334613L362.587301 158.334613C360.930447 158.334613 359.587301 159.677759 359.587301 161.334613 359.587301 162.991467 360.930447 164.334613 362.587301 164.334613z"/>
      <ellipse cx="610.476" cy="161.335" fill="#263F6F" opacity=".3" rx="5.833" ry="5.845"/>
      <path fill="#263F6F" fill-rule="nonzero" d="M231.352359,193.561922 L343.636313,193.561922 C345.293168,193.561922 346.636313,192.218776 346.636313,190.561922 C346.636313,188.905068 345.293168,187.561922 343.636313,187.561922 L231.352359,187.561922 C229.695505,187.561922 228.352359,188.905068 228.352359,190.561922 C228.352359,192.218776 229.695505,193.561922 231.352359,193.561922 Z" opacity=".3"/>
      <path fill="#DFE4EE" fill-rule="nonzero" d="M184.691047 193.561922L211.672289 193.561922C213.329143 193.561922 214.672289 192.218776 214.672289 190.561922 214.672289 188.905068 213.329143 187.561922 211.672289 187.561922L184.691047 187.561922C183.034192 187.561922 181.691047 188.905068 181.691047 190.561922 181.691047 192.218776 183.034192 193.561922 184.691047 193.561922zM92.8265875 193.561922L165.010976 193.561922C166.66783 193.561922 168.010976 192.218776 168.010976 190.561922 168.010976 188.905068 166.66783 187.561922 165.010976 187.561922L92.8265875 187.561922C91.1697332 187.561922 89.8265875 188.905068 89.8265875 190.561922 89.8265875 192.218776 91.1697332 193.561922 92.8265875 193.561922zM490.905911 193.561922L517.887153 193.561922C519.544007 193.561922 520.887153 192.218776 520.887153 190.561922 520.887153 188.905068 519.544007 187.561922 517.887153 187.561922L490.905911 187.561922C489.249056 187.561922 487.905911 188.905068 487.905911 190.561922 487.905911 192.218776 489.249056 193.561922 490.905911 193.561922z"/>
      <path fill="#263F6F" fill-rule="nonzero" d="M536.109057,193.561922 L563.090299,193.561922 C564.747154,193.561922 566.090299,192.218776 566.090299,190.561922 C566.090299,188.905068 564.747154,187.561922 563.090299,187.561922 L536.109057,187.561922 C534.452203,187.561922 533.109057,188.905068 533.109057,190.561922 C533.109057,192.218776 534.452203,193.561922 536.109057,193.561922 Z" opacity=".3"/>
      <path fill="#DFE4EE" fill-rule="nonzero" d="M362.587301,193.561922 L372.799634,193.561922 C374.456488,193.561922 375.799634,192.218776 375.799634,190.561922 C375.799634,188.905068 374.456488,187.561922 372.799634,187.561922 L362.587301,187.561922 C360.930447,187.561922 359.587301,188.905068 359.587301,190.561922 C359.587301,192.218776 360.930447,193.561922 362.587301,193.561922 Z"/>
      <ellipse cx="610.476" cy="190.562" fill="#263F6F" opacity=".3" rx="5.833" ry="5.845"/>
    </g>
    <g transform="translate(180 105)">
      <path fill="#263F6F" d="M3.23304526,0.531886833 L622.057184,0.531886833 L622.057184,0.531886833 C623.714039,0.531886833 625.057184,1.87503258 625.057184,3.53188683 L625.057184,48.6796773 L625.057184,48.6796773 C625.057184,50.3365316 623.714039,51.6796773 622.057184,51.6796773 L3.23304526,51.6796773 L3.23304526,51.6796773 C1.57619101,51.6796773 0.233045261,50.3365316 0.233045261,48.6796773 L0.233045261,3.53188683 L0.233045261,3.53188683 C0.233045261,1.87503258 1.57619101,0.531886833 3.23304526,0.531886833 Z" opacity=".8"/>
      <g fill="#FFF" transform="translate(11.898 12.223)">
        <path d="M24.0319291,8.30972507 L16.7971283,0.950113755 C15.5517937,-0.316704585 13.5355378,-0.316704585 12.2902032,0.950113755 L5.11470406,8.30972507 C4.69959253,8.73199785 4.69959253,9.39556936 5.11470406,9.81784214 L7.30886495,12.0498554 L8.73210445,13.4373231 C9.14721597,13.8595959 9.79953407,13.8595959 10.2739472,13.4373231 L13.1797279,10.7227124 C13.9506493,9.99881619 15.1959838,9.99881619 16.0262069,10.7227124 L18.9319875,13.4373231 C19.347099,13.8595959 19.9994171,13.8595959 20.4738303,13.4373231 L21.9563715,12.0498554 L24.1505324,9.81784214 C24.4470406,9.39556936 24.4470406,8.73199785 24.0319291,8.30972507 Z" opacity=".5"/>
        <path d="M0.966995334,16.9141392 L12.3184111,28.2893044 C13.5664725,29.539977 15.5871434,29.539977 16.8352048,28.2893044 L28.1866206,16.9141392 C30.14786,14.9487965 28.7809356,14.3532381 27.3545797,12.9834538 L25.5716348,11.3158903 C25.1556143,10.8989994 24.5018679,10.8989994 24.0264159,11.3158903 L21.1142726,13.9959031 C20.3416631,14.7105731 19.0936017,14.7105731 18.2615607,13.9959031 L15.3494174,11.3158903 C14.933397,10.8989994 14.2796505,10.8989994 13.8041985,11.3158903 L10.8920552,13.9959031 C10.1194458,14.7105731 8.87138434,14.7105731 8.03934339,13.9959031 L5.12720007,11.3158903 C4.7111796,10.8989994 4.05743314,10.8989994 3.58198117,11.3158903 L1.97733077,12.8047863 C0.491543363,14.2341264 -1.05367554,14.8892406 0.966995334,16.9141392 Z"/>
      </g>
      <path fill="#FFF" fill-rule="nonzero" d="M224.790612,15.9534931 L400.607841,15.9534931 C402.264695,15.9534931 403.607841,14.6103473 403.607841,12.9534931 C403.607841,11.2966388 402.264695,9.9534931 400.607841,9.9534931 L224.790612,9.9534931 C223.133758,9.9534931 221.790612,11.2966388 221.790612,12.9534931 C221.790612,14.6103473 223.133758,15.9534931 224.790612,15.9534931 Z" opacity=".4"/>
      <ellipse cx="231.09" cy="33.15" fill="#FFF" rx="9.216" ry="9.236"/>
      <ellipse cx="258.397" cy="33.15" fill="#FFF" opacity=".4" rx="9.216" ry="9.236"/>
      <ellipse cx="285.703" cy="33.15" fill="#FFF" opacity=".4" rx="9.216" ry="9.236"/>
      <ellipse cx="313.01" cy="33.15" fill="#FFF" opacity=".4" rx="9.216" ry="9.236"/>
      <ellipse cx="340.316" cy="33.15" fill="#FFF" opacity=".4" rx="9.216" ry="9.236"/>
      <ellipse cx="367.623" cy="33.15" fill="#FFF" opacity=".4" rx="9.216" ry="9.236"/>
      <ellipse cx="394.929" cy="33.15" fill="#FFF" opacity=".4" rx="9.216" ry="9.236"/>
      <ellipse cx="610.476" cy="15.146" fill="#FFF" opacity=".4" rx="5.833" ry="5.845"/>
      <ellipse cx="587.874" cy="15.146" fill="#FFF" opacity=".4" rx="5.833" ry="5.845"/>
      <ellipse cx="564.543" cy="15.146" fill="#FFF" opacity=".4" rx="5.833" ry="5.845"/>
      <ellipse cx="542.306" cy="14.78" fill="#FFF" opacity=".4" rx="5.468" ry="5.48"/>
    </g>
    <g transform="translate(179 178)">
      <g fill="#4F89DC" transform="translate(12.17 15.214)">
        <path d="M22.8303326,7.89423881 L15.9572719,0.902608068 C14.774204,-0.300869356 12.8587609,-0.300869356 11.675693,0.902608068 L4.85896885,7.89423881 C4.46461291,8.29539796 4.46461291,8.92579089 4.85896885,9.32695003 L6.9434217,11.4473626 L8.29549923,12.765457 C8.68985517,13.1666161 9.30955737,13.1666161 9.76024988,12.765457 L12.5207415,10.1865768 C13.2531168,9.49887538 14.4361846,9.49887538 15.2248965,10.1865768 L17.9853881,12.765457 C18.3797441,13.1666161 18.9994463,13.1666161 19.4501388,12.765457 L20.8585529,11.4473626 L22.9430057,9.32695003 C23.2246886,8.92579089 23.2246886,8.29539796 22.8303326,7.89423881 Z"/>
        <path d="M0.918645567,16.7625808 L11.7024906,27.5689878 C12.8881489,28.7571267 14.8077862,28.7571267 15.9934446,27.5689878 L26.7772896,16.7625808 C28.640467,14.8955052 27.3418888,14.3297248 25.9868507,13.0284297 L24.2930531,11.4442444 C23.8978336,11.0481981 23.2767745,11.0481981 22.8250951,11.4442444 L20.0585589,13.9902565 C19.32458,14.6691931 18.1389216,14.6691931 17.3484827,13.9902565 L14.5819466,11.4442444 C14.1867271,11.0481981 13.565668,11.0481981 13.1139886,11.4442444 L10.3474525,13.9902565 C9.61347347,14.6691931 8.42781512,14.6691931 7.63737622,13.9902565 L4.87084007,11.4442444 C4.47562062,11.0481981 3.85456148,11.0481981 3.40288211,11.4442444 L1.87846423,12.8586956 C0.466966195,14.2165687 -1.00099176,14.8389272 0.918645567,16.7625808 Z"/>
      </g>
      <path fill="#DFE4EE" d="M14.4402074 70.7457002L39.0616938 70.7457002 39.0616938 70.7457002C40.718548 70.7457002 42.0616938 72.088846 42.0616938 73.7457002L42.0616938 83.0900374 42.0616938 83.0900374C42.0616938 84.7468916 40.718548 86.0900374 39.0616938 86.0900374L14.4402074 86.0900374 14.4402074 86.0900374C12.7833531 86.0900374 11.4402074 84.7468916 11.4402074 83.0900374L11.4402074 73.7457002 11.4402074 73.7457002C11.4402074 72.088846 12.7833531 70.7457002 14.4402074 70.7457002zM81.5158443 70.7457002L106.137331 70.7457002 106.137331 70.7457002C107.794185 70.7457002 109.137331 72.088846 109.137331 73.7457002L109.137331 83.0900374 109.137331 83.0900374C109.137331 84.7468916 107.794185 86.0900374 106.137331 86.0900374L81.5158443 86.0900374 81.5158443 86.0900374C79.85899 86.0900374 78.5158443 84.7468916 78.5158443 83.0900374L78.5158443 73.7457002 78.5158443 73.7457002C78.5158443 72.088846 79.85899 70.7457002 81.5158443 70.7457002zM47.9780258 70.7457002L72.5995122 70.7457002 72.5995122 70.7457002C74.2563665 70.7457002 75.5995122 72.088846 75.5995122 73.7457002L75.5995122 83.0900374 75.5995122 83.0900374C75.5995122 84.7468916 74.2563665 86.0900374 72.5995122 86.0900374L47.9780258 86.0900374 47.9780258 86.0900374C46.3211716 86.0900374 44.9780258 84.7468916 44.9780258 83.0900374L44.9780258 73.7457002 44.9780258 73.7457002C44.9780258 72.088846 46.3211716 70.7457002 47.9780258 70.7457002z"/>
      <path stroke="#263F6F" stroke-linecap="round" stroke-width="6" d="M69.0377651,25.4433715 L108.413418,25.4433715" opacity=".3"/>
      <path stroke="#DFE4EE" stroke-linecap="round" stroke-width="6" d="M83.6194253,34.9422469 L108.413418,34.9422469"/>
      <path stroke="#DFE4EE" d="M15.5039623,1.10015898 C7.49583338,1.10015898 1.00396225,7.59203011 1.00396225,15.600159 L1.00396225,82.0496801 C1.00396225,90.057809 7.49583338,96.5496801 15.5039623,96.5496801 L105.073576,96.5496801 C113.081705,96.5496801 119.573576,90.057809 119.573576,82.0496801 L119.573576,15.600159 C119.573576,7.59203011 113.081705,1.10015898 105.073576,1.10015898 L15.5039623,1.10015898 Z" opacity=".5"/>
      <path fill="#DFE4EE" d="M139.842485 70.7457002L164.463971 70.7457002 164.463971 70.7457002C166.120826 70.7457002 167.463971 72.088846 167.463971 73.7457002L167.463971 83.0900374 167.463971 83.0900374C167.463971 84.7468916 166.120826 86.0900374 164.463971 86.0900374L139.842485 86.0900374 139.842485 86.0900374C138.185631 86.0900374 136.842485 84.7468916 136.842485 83.0900374L136.842485 73.7457002 136.842485 73.7457002C136.842485 72.088846 138.185631 70.7457002 139.842485 70.7457002zM206.918122 70.7457002L231.539608 70.7457002 231.539608 70.7457002C233.196463 70.7457002 234.539608 72.088846 234.539608 73.7457002L234.539608 83.0900374 234.539608 83.0900374C234.539608 84.7468916 233.196463 86.0900374 231.539608 86.0900374L206.918122 86.0900374 206.918122 86.0900374C205.261268 86.0900374 203.918122 84.7468916 203.918122 83.0900374L203.918122 73.7457002 203.918122 73.7457002C203.918122 72.088846 205.261268 70.7457002 206.918122 70.7457002zM173.380303 70.7457002L198.00179 70.7457002 198.00179 70.7457002C199.658644 70.7457002 201.00179 72.088846 201.00179 73.7457002L201.00179 83.0900374 201.00179 83.0900374C201.00179 84.7468916 199.658644 86.0900374 198.00179 86.0900374L173.380303 86.0900374 173.380303 86.0900374C171.723449 86.0900374 170.380303 84.7468916 170.380303 83.0900374L170.380303 73.7457002 170.380303 73.7457002C170.380303 72.088846 171.723449 70.7457002 173.380303 70.7457002z"/>
      <path stroke="#263F6F" stroke-linecap="round" stroke-width="6" d="M194.440043,25.4433715 L233.815696,25.4433715" opacity=".3"/>
      <path stroke="#DFE4EE" stroke-linecap="round" stroke-width="6" d="M209.021703,34.9422469 L233.815696,34.9422469"/>
      <path stroke="#DFE4EE" d="M140.90624,1.10015898 C132.898111,1.10015898 126.40624,7.59203011 126.40624,15.600159 L126.40624,82.0496801 C126.40624,90.057809 132.898111,96.5496801 140.90624,96.5496801 L230.475853,96.5496801 C238.483982,96.5496801 244.975853,90.057809 244.975853,82.0496801 L244.975853,15.600159 C244.975853,7.59203011 238.483982,1.10015898 230.475853,1.10015898 L140.90624,1.10015898 Z" opacity=".5"/>
      <path fill="#DFE4EE" d="M265.973846 70.7457002L290.595332 70.7457002 290.595332 70.7457002C292.252186 70.7457002 293.595332 72.088846 293.595332 73.7457002L293.595332 83.0900374 293.595332 83.0900374C293.595332 84.7468916 292.252186 86.0900374 290.595332 86.0900374L265.973846 86.0900374 265.973846 86.0900374C264.316991 86.0900374 262.973846 84.7468916 262.973846 83.0900374L262.973846 73.7457002 262.973846 73.7457002C262.973846 72.088846 264.316991 70.7457002 265.973846 70.7457002zM333.049483 70.7457002L357.670969 70.7457002 357.670969 70.7457002C359.327823 70.7457002 360.670969 72.088846 360.670969 73.7457002L360.670969 83.0900374 360.670969 83.0900374C360.670969 84.7468916 359.327823 86.0900374 357.670969 86.0900374L333.049483 86.0900374 333.049483 86.0900374C331.392628 86.0900374 330.049483 84.7468916 330.049483 83.0900374L330.049483 73.7457002 330.049483 73.7457002C330.049483 72.088846 331.392628 70.7457002 333.049483 70.7457002zM299.511664 70.7457002L324.13315 70.7457002 324.13315 70.7457002C325.790005 70.7457002 327.13315 72.088846 327.13315 73.7457002L327.13315 83.0900374 327.13315 83.0900374C327.13315 84.7468916 325.790005 86.0900374 324.13315 86.0900374L299.511664 86.0900374 299.511664 86.0900374C297.85481 86.0900374 296.511664 84.7468916 296.511664 83.0900374L296.511664 73.7457002 296.511664 73.7457002C296.511664 72.088846 297.85481 70.7457002 299.511664 70.7457002z"/>
      <path stroke="#263F6F" stroke-linecap="round" stroke-width="6" d="M320.571403,25.4433715 L359.947057,25.4433715" opacity=".3"/>
      <path stroke="#DFE4EE" stroke-linecap="round" stroke-width="6" d="M335.153064,34.9422469 L359.947057,34.9422469"/>
      <path stroke="#DFE4EE" d="M267.0376,1.10015898 C259.029472,1.10015898 252.5376,7.59203011 252.5376,15.600159 L252.5376,82.0496801 C252.5376,90.057809 259.029472,96.5496801 267.0376,96.5496801 L356.607214,96.5496801 C364.615343,96.5496801 371.107214,90.057809 371.107214,82.0496801 L371.107214,15.600159 C371.107214,7.59203011 364.615343,1.10015898 356.607214,1.10015898 L267.0376,1.10015898 Z" opacity=".5"/>
      <path fill="#DFE4EE" d="M392.105206 70.7457002L416.726693 70.7457002 416.726693 70.7457002C418.383547 70.7457002 419.726693 72.088846 419.726693 73.7457002L419.726693 83.0900374 419.726693 83.0900374C419.726693 84.7468916 418.383547 86.0900374 416.726693 86.0900374L392.105206 86.0900374 392.105206 86.0900374C390.448352 86.0900374 389.105206 84.7468916 389.105206 83.0900374L389.105206 73.7457002 389.105206 73.7457002C389.105206 72.088846 390.448352 70.7457002 392.105206 70.7457002zM459.180843 70.7457002L483.80233 70.7457002 483.80233 70.7457002C485.459184 70.7457002 486.80233 72.088846 486.80233 73.7457002L486.80233 83.0900374 486.80233 83.0900374C486.80233 84.7468916 485.459184 86.0900374 483.80233 86.0900374L459.180843 86.0900374 459.180843 86.0900374C457.523989 86.0900374 456.180843 84.7468916 456.180843 83.0900374L456.180843 73.7457002 456.180843 73.7457002C456.180843 72.088846 457.523989 70.7457002 459.180843 70.7457002zM425.643025 70.7457002L450.264511 70.7457002 450.264511 70.7457002C451.921365 70.7457002 453.264511 72.088846 453.264511 73.7457002L453.264511 83.0900374 453.264511 83.0900374C453.264511 84.7468916 451.921365 86.0900374 450.264511 86.0900374L425.643025 86.0900374 425.643025 86.0900374C423.98617 86.0900374 422.643025 84.7468916 422.643025 83.0900374L422.643025 73.7457002 422.643025 73.7457002C422.643025 72.088846 423.98617 70.7457002 425.643025 70.7457002z"/>
      <path stroke="#263F6F" stroke-linecap="round" stroke-width="6" d="M446.702764,25.4433715 L486.078417,25.4433715" opacity=".3"/>
      <path stroke="#DFE4EE" stroke-linecap="round" stroke-width="6" d="M461.284424,34.9422469 L486.078417,34.9422469"/>
      <path stroke="#DFE4EE" d="M393.168961,1.10015898 C385.160832,1.10015898 378.668961,7.59203011 378.668961,15.600159 L378.668961,82.0496801 C378.668961,90.057809 385.160832,96.5496801 393.168961,96.5496801 L482.738575,96.5496801 C490.746704,96.5496801 497.238575,90.057809 497.238575,82.0496801 L497.238575,15.600159 C497.238575,7.59203011 490.746704,1.10015898 482.738575,1.10015898 L393.168961,1.10015898 Z" opacity=".5"/>
      <path fill="#4F89DC" d="M518.236567 70.7457002L542.858053 70.7457002 542.858053 70.7457002C544.514908 70.7457002 545.858053 72.088846 545.858053 73.7457002L545.858053 83.0900374 545.858053 83.0900374C545.858053 84.7468916 544.514908 86.0900374 542.858053 86.0900374L518.236567 86.0900374 518.236567 86.0900374C516.579713 86.0900374 515.236567 84.7468916 515.236567 83.0900374L515.236567 73.7457002 515.236567 73.7457002C515.236567 72.088846 516.579713 70.7457002 518.236567 70.7457002zM585.312204 70.7457002L609.93369 70.7457002 609.93369 70.7457002C611.590544 70.7457002 612.93369 72.088846 612.93369 73.7457002L612.93369 83.0900374 612.93369 83.0900374C612.93369 84.7468916 611.590544 86.0900374 609.93369 86.0900374L585.312204 86.0900374 585.312204 86.0900374C583.65535 86.0900374 582.312204 84.7468916 582.312204 83.0900374L582.312204 73.7457002 582.312204 73.7457002C582.312204 72.088846 583.65535 70.7457002 585.312204 70.7457002zM551.774385 70.7457002L576.395872 70.7457002 576.395872 70.7457002C578.052726 70.7457002 579.395872 72.088846 579.395872 73.7457002L579.395872 83.0900374 579.395872 83.0900374C579.395872 84.7468916 578.052726 86.0900374 576.395872 86.0900374L551.774385 86.0900374 551.774385 86.0900374C550.117531 86.0900374 548.774385 84.7468916 548.774385 83.0900374L548.774385 73.7457002 548.774385 73.7457002C548.774385 72.088846 550.117531 70.7457002 551.774385 70.7457002z"/>
      <path stroke="#DFE4EE" stroke-linecap="round" stroke-width="6" d="M572.834125 25.4433715L612.209778 25.4433715M587.415785 34.9422469L612.209778 34.9422469"/>
      <path stroke="#DFE4EE" d="M519.300322,1.10015898 C511.292193,1.10015898 504.800322,7.59203011 504.800322,15.600159 L504.800322,82.0496801 C504.800322,90.057809 511.292193,96.5496801 519.300322,96.5496801 L608.869935,96.5496801 C616.878064,96.5496801 623.369935,90.057809 623.369935,82.0496801 L623.369935,15.600159 C623.369935,7.59203011 616.878064,1.10015898 608.869935,1.10015898 L519.300322,1.10015898 Z" opacity=".5"/>
      <path fill="#DFE4EE" d="M518.236567 70.7457002L542.858053 70.7457002 542.858053 70.7457002C544.514908 70.7457002 545.858053 72.088846 545.858053 73.7457002L545.858053 83.0900374 545.858053 83.0900374C545.858053 84.7468916 544.514908 86.0900374 542.858053 86.0900374L518.236567 86.0900374 518.236567 86.0900374C516.579713 86.0900374 515.236567 84.7468916 515.236567 83.0900374L515.236567 73.7457002 515.236567 73.7457002C515.236567 72.088846 516.579713 70.7457002 518.236567 70.7457002zM585.312204 70.7457002L609.93369 70.7457002 609.93369 70.7457002C611.590544 70.7457002 612.93369 72.088846 612.93369 73.7457002L612.93369 83.0900374 612.93369 83.0900374C612.93369 84.7468916 611.590544 86.0900374 609.93369 86.0900374L585.312204 86.0900374 585.312204 86.0900374C583.65535 86.0900374 582.312204 84.7468916 582.312204 83.0900374L582.312204 73.7457002 582.312204 73.7457002C582.312204 72.088846 583.65535 70.7457002 585.312204 70.7457002zM551.774385 70.7457002L576.395872 70.7457002 576.395872 70.7457002C578.052726 70.7457002 579.395872 72.088846 579.395872 73.7457002L579.395872 83.0900374 579.395872 83.0900374C579.395872 84.7468916 578.052726 86.0900374 576.395872 86.0900374L551.774385 86.0900374 551.774385 86.0900374C550.117531 86.0900374 548.774385 84.7468916 548.774385 83.0900374L548.774385 73.7457002 548.774385 73.7457002C548.774385 72.088846 550.117531 70.7457002 551.774385 70.7457002z"/>
      <path stroke="#263F6F" stroke-linecap="round" stroke-width="6" d="M572.834125,25.4433715 L612.209778,25.4433715" opacity=".2"/>
      <path stroke="#DFE4EE" stroke-linecap="round" stroke-width="6" d="M587.415785,34.9422469 L612.209778,34.9422469" opacity=".4"/>
      <path stroke="#DFE4EE" d="M519.300322,1.10015898 C511.292193,1.10015898 504.800322,7.59203011 504.800322,15.600159 L504.800322,82.0496801 C504.800322,90.057809 511.292193,96.5496801 519.300322,96.5496801 L608.869935,96.5496801 C616.878064,96.5496801 623.369935,90.057809 623.369935,82.0496801 L623.369935,15.600159 C623.369935,7.59203011 616.878064,1.10015898 608.869935,1.10015898 L519.300322,1.10015898 Z" opacity=".5"/>
      <g transform="translate(136.842 15.944)">
        <ellipse cx="13.123" cy="13.152" fill="#F5A623" rx="13.123" ry="13.152"/>
        <path fill="#FFF" fill-rule="nonzero" d="M16.31506,12.4215383 C17.0704425,12.0362123 17.5430684,11.3575947 17.432666,10.2270531 C17.2839897,8.68205132 15.9517417,8.16397613 14.2699605,8.01643645 L14.2696362,5.87339306 L12.9665801,5.87339306 L12.9662152,7.960078 C12.6233719,7.960078 12.2738792,7.96682313 11.9259678,7.97381207 L11.925684,5.87367749 L10.6238037,5.87355559 L10.6235605,8.01607075 C10.3414121,8.02184068 10.0643317,8.02732619 9.79377905,8.02732619 L9.79377905,8.02098738 L7.99644635,8.02025598 L7.99668961,9.41324841 C7.99668961,9.41324841 8.95897011,9.39512594 8.94311725,9.41272018 C9.47072137,9.41308588 9.64299447,9.71986765 9.69253971,9.98467518 L9.69294515,12.4260486 L9.69294515,15.8553813 C9.66971322,16.0215716 9.5719607,16.2871106 9.20304732,16.2875982 C9.2198327,16.3023887 8.25516008,16.2874356 8.25516008,16.2874356 L7.99668961,17.845115 L9.69213427,17.845115 C10.0080561,17.8454807 10.318464,17.8503974 10.6229929,17.8528354 L10.6241281,20.0201369 L11.925684,20.0205026 L11.9253191,17.8759151 C12.2834072,17.8832291 12.6290481,17.8863985 12.9666612,17.8859515 L12.9662963,20.0205026 L14.2693118,20.0205026 L14.2700416,17.8568174 C16.4603305,17.7308541 17.9937192,17.1783624 18.184359,15.1187393 C18.3380222,13.460533 17.5585969,12.7203559 16.31506,12.4215383 Z M11.9571059,9.50727398 C12.6920135,9.50727398 15.0032869,9.27294146 15.0036112,10.8101416 C15.0032869,12.2838725 12.6927433,12.111709 11.9571059,12.111709 L11.9571059,9.50727398 L11.9571059,9.50727398 Z M11.9565383,16.2981628 L11.9571059,13.4265229 C12.8400816,13.4262791 15.6095471,13.1721175 15.609912,14.8616927 C15.6102769,16.4819881 12.8400816,16.2975127 11.9565383,16.2981628 Z" transform="rotate(10 13.1 12.947)"/>
      </g>
      <g transform="translate(390.563 15.944)">
        <ellipse cx="13.123" cy="13.152" fill="#35980A" rx="13.123" ry="13.152"/>
        <path fill="#FFF" fill-rule="nonzero" d="M17.3432852,14.456135 C17.2626181,14.2052028 17.1647469,13.9868104 17.049802,13.8013479 C16.9349225,13.6157054 16.7703891,13.4346215 16.5558755,13.2574964 C16.341623,13.0804612 16.148884,12.9378854 15.9779847,12.829499 C15.8071834,12.7210226 15.5725602,12.5997402 15.2742455,12.4655018 C14.976192,12.3312933 14.7400344,12.2314243 14.5661971,12.1657446 C14.3921313,12.1001549 14.1403364,12.0102428 13.8109759,11.8960682 C13.5189619,11.79338 13.3015428,11.7148643 13.1584902,11.6606711 C13.0156008,11.6064179 12.8276932,11.5294018 12.5946696,11.4294427 C12.3617439,11.3296337 12.1877433,11.2411011 12.0727659,11.1640849 C11.957821,11.0870688 11.8351392,10.992898 11.7046225,10.8816025 C11.5741057,10.7703069 11.4824698,10.6518436 11.4296167,10.5262725 C11.3768942,10.4006715 11.3504513,10.2636439 11.3504513,10.1152199 C11.3504513,9.72714012 11.5367919,9.4102283 11.9096036,9.16484432 C12.2824479,8.91946034 12.7640671,8.79670837 13.3543958,8.79670837 C13.6152335,8.79670837 13.8811638,8.82948821 14.1512727,8.89519786 C14.4213816,8.9609075 14.6528709,9.03492457 14.8455121,9.11775891 C15.0383164,9.20059324 15.2199887,9.29194494 15.3909206,9.39178401 C15.5618198,9.49171305 15.6829346,9.56728964 15.7544609,9.61866372 C15.825922,9.6700678 15.8712013,9.7042872 15.889646,9.72144188 C15.9705416,9.7785142 16.054212,9.79845802 16.1412123,9.78139331 C16.2343826,9.77569507 16.3059089,9.72995924 16.3557259,9.64442574 L17.1108165,8.39429304 C17.1853462,8.28017839 17.1699375,8.171702 17.0642314,8.06889385 C17.0268849,8.03464446 16.980463,7.99472683 16.9241495,7.94902099 C16.868391,7.90331515 16.7471782,7.82057078 16.5606091,7.70063794 C16.3742359,7.58079507 16.1769591,7.47375823 15.9689419,7.37955741 C15.7606962,7.28544657 15.4903261,7.18977621 15.1578643,7.09278625 C14.8255983,6.99564635 14.4822002,6.93005667 14.1279312,6.89583727 L14.1279312,5.38877417 C14.1279312,5.30890891 14.1000192,5.24322926 14.0442607,5.19182518 C13.9883716,5.14054107 13.9168779,5.11477905 13.8297471,5.11477905 L12.5713933,5.11477905 C12.4906284,5.11477905 12.4207343,5.14186066 12.3617112,5.19611385 C12.3026882,5.25036704 12.2731766,5.31454716 12.2731766,5.38877417 L12.2731766,6.93002668 C11.2975983,7.10121364 10.5053571,7.48368515 9.89642042,8.07735123 C9.28754906,8.6710473 8.98299911,9.36164335 8.98299911,10.1494693 C8.98299911,10.3834868 9.00950727,10.6061078 9.0623277,10.8172124 C9.11508284,11.0284969 9.18037385,11.2183081 9.25807016,11.386676 C9.33570118,11.5551638 9.446043,11.7206525 9.58893239,11.8833821 C9.73182177,12.0460517 9.86700682,12.1859284 9.99435695,12.3028921 C10.1217724,12.4198259 10.2880033,12.5411683 10.4929844,12.6667094 C10.6980962,12.7923705 10.8736311,12.8937691 11.0196871,12.9707852 C11.1657757,13.0475614 11.3599185,13.1363339 11.6021809,13.2359931 C11.8445085,13.3359521 12.0356479,13.4114987 12.1754686,13.4629927 C12.3152893,13.5143068 12.5063308,13.5857447 12.7487564,13.6768865 C13.0842543,13.7967593 13.3328498,13.8895506 13.4943798,13.9552302 C13.6560403,14.0209099 13.8610215,14.1122316 14.109715,14.2292553 C14.3581799,14.3461591 14.5398522,14.4532259 14.6548949,14.5503059 C14.7698398,14.6473858 14.873881,14.7672587 14.9671492,14.9099245 C15.0604174,15.0525903 15.1071332,15.2038634 15.1071332,15.3637739 C15.1071332,15.8147441 14.916059,16.1628763 14.5338128,16.4081403 C14.1517297,16.6536742 13.7088608,16.7763962 13.2056303,16.7763962 C12.9759365,16.7763962 12.7458509,16.7536933 12.5160266,16.7080474 C11.7082461,16.5594434 10.9533187,16.202674 10.2511792,15.637589 L10.2325386,15.6204643 C10.1765842,15.5578437 10.1019892,15.5321117 10.0088842,15.5435981 C9.90944598,15.5549946 9.83795232,15.589274 9.79450115,15.6464663 L8.83446205,16.8023082 C8.74122648,16.9164528 8.74752707,17.0334466 8.85313528,17.1533194 C8.88424645,17.1875988 8.93860122,17.2390929 9.01623224,17.3074717 C9.09405913,17.3761204 9.23854815,17.4829773 9.44969929,17.6288221 C9.66091573,17.774457 9.89083804,17.9112746 10.1394336,18.0398748 C10.3879965,18.168265 10.7032868,18.2952157 11.0855004,18.4208468 C11.467714,18.5462679 11.8637367,18.6347105 12.2738622,18.6860546 L12.2738622,20.1844804 C12.2738622,20.2587974 12.3034064,20.3229475 12.3623968,20.3772307 C12.4214525,20.4315438 12.4913139,20.4585355 12.5720789,20.4585355 L13.8304326,20.4585355 C13.9175635,20.4585355 13.9890572,20.4328934 14.0449136,20.3815793 C14.1007701,20.3302652 14.1285841,20.2645856 14.1285841,20.1845104 L14.1285841,18.6860846 C15.1167309,18.5376906 15.9198431,18.1480813 16.5380184,17.5172867 C17.156259,16.8864921 17.4654773,16.1344151 17.4654773,15.2611157 C17.4651508,14.9757541 17.4248336,14.7074572 17.3432852,14.456135 Z"/>
      </g>
      <g transform="translate(515.966 15.944)">
        <ellipse cx="13.123" cy="13.152" fill="#F58823" rx="13.123" ry="13.152"/>
        <path fill="#FFF" fill-rule="nonzero" d="M17.2974944,16.3064027 C17.0909209,16.099376 16.7810606,16.1511327 16.5744871,16.3581594 L16.5228437,16.4099161 C16.0580533,16.927483 15.1284724,17.9108602 13.5791711,17.9108602 C12.5463035,17.9108602 11.6167226,17.4968067 10.8937153,16.8239697 C10.7387852,16.6686996 10.8420719,16.3581594 11.1002888,16.3581594 L12.5463035,16.3581594 C12.8561637,16.3581594 13.0627373,16.1511327 13.0627373,15.8405925 L13.0627373,14.8054586 C13.0627373,14.4949185 12.8561637,14.2878917 12.5463035,14.2878917 L9.75756094,14.2878917 C9.65427418,14.2878917 9.49934404,14.1843783 9.49934404,14.0808649 C9.44770066,13.8220815 9.44770066,13.563298 9.44770066,13.2527579 C9.44770066,12.9422177 9.44770066,12.6834342 9.49934404,12.4246508 C9.49934404,12.3211374 9.65427418,12.217624 9.75756094,12.217624 L12.5463035,12.217624 C12.8561637,12.217624 13.0627373,12.0105972 13.0627373,11.7000571 L13.0627373,10.6649232 C13.0627373,10.3543831 12.8561637,10.1473563 12.5463035,10.1473563 L11.1002888,10.1473563 C10.8937153,10.1473563 10.7387852,9.83681614 10.8937153,9.68154606 C11.6167226,9.00870905 12.5463035,8.59465551 13.5791711,8.59465551 C15.1284724,8.59465551 16.0580533,9.62978937 16.5228437,10.0955996 L16.5744871,10.1473563 C16.7810606,10.3543831 17.0909209,10.3543831 17.2974944,10.199113 L18.0721451,9.52627598 C18.1754319,9.4227626 18.2270752,9.31924921 18.2270752,9.16397913 C18.2270752,9.00870905 18.1754319,8.90519567 18.0721451,8.80168228 C17.5040679,8.23235866 16.0580533,6.57614449 13.5791711,6.57614449 C11.255219,6.57614449 9.18948376,7.9735752 8.15661617,10.0438429 C8.10497279,10.1473563 8.00168603,10.199113 7.95004265,10.199113 L6.34909787,10.199113 C6.03923759,10.199113 5.83266408,10.4061398 5.83266408,10.7166799 L5.83266408,11.7518138 C5.83266408,12.0623539 6.03923759,12.2693807 6.34909787,12.2693807 L7.17539195,12.2693807 C7.33032209,12.2693807 7.43360885,12.4246508 7.43360885,12.5799209 C7.38196547,12.8387043 7.38196547,13.0974878 7.38196547,13.3045146 C7.38196547,13.5115413 7.38196547,13.8220815 7.43360885,14.0291083 C7.43360885,14.1843783 7.33032209,14.3396484 7.17539195,14.3396484 L6.34909787,14.3396484 C6.03923759,14.3396484 5.83266408,14.5466752 5.83266408,14.8572153 L5.83266408,15.8923492 C5.83266408,16.2028893 6.03923759,16.4099161 6.34909787,16.4099161 L7.95004265,16.4099161 C8.05332941,16.4099161 8.15661617,16.4616728 8.15661617,16.5651862 C9.18948376,18.6354539 11.255219,20.0328846 13.5791711,20.0328846 C16.0580533,20.0328846 17.5040679,18.4284271 18.0721451,17.8073468 C18.1754319,17.7038334 18.2270752,17.6003201 18.2270752,17.44505 C18.2270752,17.2897799 18.1754319,17.1345098 18.0721451,17.0827531 L17.2974944,16.3064027 Z"/>
      </g>
      <path fill="#4A4A4A" d="M9.04609744,21.8839475 L0.0966034987,16.5864978 L9.04427473,29.2273089 L18.0010595,16.5864978 L9.04427473,21.8839475 L9.04609744,21.8839475 Z M9.1809778,0 L0.231483855,14.884007 L9.1809778,20.1869369 L18.1304717,14.8858337 L9.1828005,0 L9.1809778,0 Z" transform="translate(263.703 14.483)"/>
    </g>
  </g>
</svg>
