<svg xmlns="http://www.w3.org/2000/svg" xmlns:xlink="http://www.w3.org/1999/xlink" width="100%" viewBox="0 0 1100 620">
  <defs>
    <path id="product_mane-b" d="M25.8086988,0 L732.127423,0 C746.381174,0 757.936122,11.5816276 757.936122,25.8653258 L757.936122,493.979804 C757.936122,508.264829 746.378807,519.845129 732.127423,519.845129 L25.8086988,519.845129 C11.5549481,519.845129 0,508.263502 0,493.979804 L0,25.8653258 C0,11.5803008 11.5573148,0 25.8086988,0 Z"/>
    <filter id="product_mane-a" width="103.6%" height="105.2%" x="-1.8%" y="-1.4%" filterUnits="objectBoundingBox">
      <feOffset dy="6" in="SourceAlpha" result="shadowOffsetOuter1"/>
      <feGaussianBlur in="shadowOffsetOuter1" result="shadowBlurOuter1" stdDeviation="3.5"/>
      <feColorMatrix in="shadowBlurOuter1" values="0 0 0 0 0   0 0 0 0 0.0904195312   0 0 0 0 0.423203656  0 0 0 0.12 0"/>
    </filter>
    <filter id="product_mane-c" width="102.4%" height="103.5%" x="-1.2%" y="-.6%" filterUnits="objectBoundingBox">
      <feGaussianBlur in="SourceAlpha" result="shadowBlurInner1" stdDeviation="1.5"/>
      <feOffset dy="1" in="shadowBlurInner1" result="shadowOffsetInner1"/>
      <feComposite in="shadowOffsetInner1" in2="SourceAlpha" k2="-1" k3="1" operator="arithmetic" result="shadowInnerInner1"/>
      <feColorMatrix in="shadowInnerInner1" values="0 0 0 0 0   0 0 0 0 0   0 0 0 0 0  0 0 0 0.03 0"/>
    </filter>
    <linearGradient id="product_mane-d" x1="50%" x2="50%" y1="0%" y2="100%">
      <stop offset="0%" stop-color="#F3F4F6"/>
      <stop offset="100%" stop-color="#FFF"/>
    </linearGradient>
  </defs>
  <g fill="none" fill-rule="evenodd" transform="translate(115 50)">
    <g>
      <use fill="#000" filter="url(#product_mane-a)" xlink:href="#product_mane-b"/>
      <use fill="#FFF" xlink:href="#product_mane-b"/>
      <use fill="#000" filter="url(#product_mane-c)" xlink:href="#product_mane-b"/>
      <path fill="url(#product_mane-d)" d="M577.979687,104.948173 C578.977491,104.948173 579.78637,104.137519 579.78637,103.137526 C579.78637,102.137533 578.977491,101.326878 577.979687,101.326878 C576.981883,101.326878 576.173003,102.137533 576.173003,103.137526 C576.173003,104.137519 576.981883,104.948173 577.979687,104.948173 Z" style="mix-blend-mode:multiply"/>
    </g>
    <path fill="#263F6F" d="M68.2330453,55.5318868 L687.057184,55.5318868 L687.057184,55.5318868 C688.714039,55.5318868 690.057184,56.8750326 690.057184,58.5318868 L690.057184,103.679677 L690.057184,103.679677 C690.057184,105.336532 688.714039,106.679677 687.057184,106.679677 L68.2330453,106.679677 L68.2330453,106.679677 C66.576191,106.679677 65.2330453,105.336532 65.2330453,103.679677 L65.2330453,58.5318868 L65.2330453,58.5318868 C65.2330453,56.8750326 66.576191,55.5318868 68.2330453,55.5318868 Z" opacity=".8"/>
    <path fill="#263F6F" d="M68.2330453,261.584414 L687.057184,261.584414 L687.057184,261.584414 C688.714039,261.584414 690.057184,262.92756 690.057184,264.584414 L690.057184,287.811723 L690.057184,287.811723 C690.057184,289.468577 688.714039,290.811723 687.057184,290.811723 L68.2330453,290.811723 L68.2330453,290.811723 C66.576191,290.811723 65.2330453,289.468577 65.2330453,287.811723 L65.2330453,264.584414 L65.2330453,264.584414 C65.2330453,262.92756 66.576191,261.584414 68.2330453,261.584414 Z" opacity=".3"/>
    <polygon fill="#DFE4EE" points="65.233 320.039 690.057 320.039 690.057 320.77 65.233 320.77" opacity=".5"/>
    <polygon fill="#DFE4EE" points="65.233 349.266 690.057 349.266 690.057 349.997 65.233 349.997" opacity=".5"/>
    <polygon fill="#DFE4EE" points="65.233 378.494 690.057 378.494 690.057 379.224 65.233 379.224" opacity=".5"/>
    <polygon fill="#DFE4EE" points="65.233 407.721 690.057 407.721 690.057 408.452 65.233 408.452" opacity=".5"/>
    <polygon fill="#DFE4EE" points="65.233 436.948 690.057 436.948 690.057 437.679 65.233 437.679" opacity=".5"/>
    <polygon fill="#DFE4EE" points="65.233 466.176 690.057 466.176 690.057 466.906 65.233 466.906" opacity=".5"/>
    <g fill="#FFF" transform="translate(76.898 67.223)">
      <path d="M24.0319291,8.30972507 L16.7971283,0.950113755 C15.5517937,-0.316704585 13.5355378,-0.316704585 12.2902032,0.950113755 L5.11470406,8.30972507 C4.69959253,8.73199785 4.69959253,9.39556936 5.11470406,9.81784214 L7.30886495,12.0498554 L8.73210445,13.4373231 C9.14721597,13.8595959 9.79953407,13.8595959 10.2739472,13.4373231 L13.1797279,10.7227124 C13.9506493,9.99881619 15.1959838,9.99881619 16.0262069,10.7227124 L18.9319875,13.4373231 C19.347099,13.8595959 19.9994171,13.8595959 20.4738303,13.4373231 L21.9563715,12.0498554 L24.1505324,9.81784214 C24.4470406,9.39556936 24.4470406,8.73199785 24.0319291,8.30972507 Z" opacity=".5"/>
      <path d="M0.966995334,16.9141392 L12.3184111,28.2893044 C13.5664725,29.539977 15.5871434,29.539977 16.8352048,28.2893044 L28.1866206,16.9141392 C30.14786,14.9487965 28.7809356,14.3532381 27.3545797,12.9834538 L25.5716348,11.3158903 C25.1556143,10.8989994 24.5018679,10.8989994 24.0264159,11.3158903 L21.1142726,13.9959031 C20.3416631,14.7105731 19.0936017,14.7105731 18.2615607,13.9959031 L15.3494174,11.3158903 C14.933397,10.8989994 14.2796505,10.8989994 13.8041985,11.3158903 L10.8920552,13.9959031 C10.1194458,14.7105731 8.87138434,14.7105731 8.03934339,13.9959031 L5.12720007,11.3158903 C4.7111796,10.8989994 4.05743314,10.8989994 3.58198117,11.3158903 L1.97733077,12.8047863 C0.491543363,14.2341264 -1.05367554,14.8892406 0.966995334,16.9141392 Z"/>
    </g>
    <g fill="#4F89DC" transform="translate(76.17 143.214)">
      <path d="M22.8303326,7.89423881 L15.9572719,0.902608068 C14.774204,-0.300869356 12.8587609,-0.300869356 11.675693,0.902608068 L4.85896885,7.89423881 C4.46461291,8.29539796 4.46461291,8.92579089 4.85896885,9.32695003 L6.9434217,11.4473626 L8.29549923,12.765457 C8.68985517,13.1666161 9.30955737,13.1666161 9.76024988,12.765457 L12.5207415,10.1865768 C13.2531168,9.49887538 14.4361846,9.49887538 15.2248965,10.1865768 L17.9853881,12.765457 C18.3797441,13.1666161 18.9994463,13.1666161 19.4501388,12.765457 L20.8585529,11.4473626 L22.9430057,9.32695003 C23.2246886,8.92579089 23.2246886,8.29539796 22.8303326,7.89423881 Z"/>
      <path d="M0.918645567,16.7625808 L11.7024906,27.5689878 C12.8881489,28.7571267 14.8077862,28.7571267 15.9934446,27.5689878 L26.7772896,16.7625808 C28.640467,14.8955052 27.3418888,14.3297248 25.9868507,13.0284297 L24.2930531,11.4442444 C23.8978336,11.0481981 23.2767745,11.0481981 22.8250951,11.4442444 L20.0585589,13.9902565 C19.32458,14.6691931 18.1389216,14.6691931 17.3484827,13.9902565 L14.5819466,11.4442444 C14.1867271,11.0481981 13.565668,11.0481981 13.1139886,11.4442444 L10.3474525,13.9902565 C9.61347347,14.6691931 8.42781512,14.6691931 7.63737622,13.9902565 L4.87084007,11.4442444 C4.47562062,11.0481981 3.85456148,11.0481981 3.40288211,11.4442444 L1.87846423,12.8586956 C0.466966195,14.2165687 -1.00099176,14.8389272 0.918645567,16.7625808 Z"/>
    </g>
    <path fill="#DFE4EE" d="M78.4402074 198.7457L103.061694 198.7457 103.061694 198.7457C104.718548 198.7457 106.061694 200.088846 106.061694 201.7457L106.061694 211.090037 106.061694 211.090037C106.061694 212.746892 104.718548 214.090037 103.061694 214.090037L78.4402074 214.090037 78.4402074 214.090037C76.7833531 214.090037 75.4402074 212.746892 75.4402074 211.090037L75.4402074 201.7457 75.4402074 201.7457C75.4402074 200.088846 76.7833531 198.7457 78.4402074 198.7457zM145.515844 198.7457L170.137331 198.7457 170.137331 198.7457C171.794185 198.7457 173.137331 200.088846 173.137331 201.7457L173.137331 211.090037 173.137331 211.090037C173.137331 212.746892 171.794185 214.090037 170.137331 214.090037L145.515844 214.090037 145.515844 214.090037C143.85899 214.090037 142.515844 212.746892 142.515844 211.090037L142.515844 201.7457 142.515844 201.7457C142.515844 200.088846 143.85899 198.7457 145.515844 198.7457zM111.978026 198.7457L136.599512 198.7457 136.599512 198.7457C138.256366 198.7457 139.599512 200.088846 139.599512 201.7457L139.599512 211.090037 139.599512 211.090037C139.599512 212.746892 138.256366 214.090037 136.599512 214.090037L111.978026 214.090037 111.978026 214.090037C110.321172 214.090037 108.978026 212.746892 108.978026 211.090037L108.978026 201.7457 108.978026 201.7457C108.978026 200.088846 110.321172 198.7457 111.978026 198.7457z"/>
    <path stroke="#FFF" stroke-linecap="round" stroke-width="6" d="M289.790612,67.9534931 L465.607841,67.9534931" opacity=".4"/>
    <path stroke="#DFE4EE" stroke-linecap="round" stroke-width="6" d="M296.352359,305.425378 L306.564692,305.425378"/>
    <path stroke="#263F6F" stroke-linecap="round" stroke-width="6" d="M68.1493773,305.425378 L98.0469514,305.425378" opacity=".3"/>
    <path stroke="#DFE4EE" stroke-linecap="round" stroke-width="6" d="M110.436192,305.425378 L138.8756,305.425378"/>
    <path stroke="#263F6F" stroke-linecap="round" stroke-width="6" d="M68.1493773,334.652686 L98.0469514,334.652686" opacity=".3"/>
    <path stroke="#DFE4EE" stroke-linecap="round" stroke-width="6" d="M110.436192,334.652686 L138.8756,334.652686"/>
    <path stroke="#263F6F" stroke-linecap="round" stroke-width="6" d="M68.1493773,363.879995 L98.0469514,363.879995" opacity=".3"/>
    <path stroke="#DFE4EE" stroke-linecap="round" stroke-width="6" d="M110.436192,363.879995 L138.8756,363.879995"/>
    <path stroke="#263F6F" stroke-linecap="round" stroke-width="6" d="M68.1493773,393.107304 L98.0469514,393.107304" opacity=".3"/>
    <path stroke="#DFE4EE" stroke-linecap="round" stroke-width="6" d="M110.436192,393.107304 L138.8756,393.107304"/>
    <path stroke="#263F6F" stroke-linecap="round" stroke-width="6" d="M68.1493773,422.334613 L98.0469514,422.334613" opacity=".3"/>
    <path stroke="#DFE4EE" stroke-linecap="round" stroke-width="6" d="M110.436192,422.334613 L138.8756,422.334613"/>
    <path stroke="#263F6F" stroke-linecap="round" stroke-width="6" d="M68.1493773,451.561922 L98.0469514,451.561922" opacity=".3"/>
    <path stroke="#DFE4EE" stroke-linecap="round" stroke-width="6" d="M110.436192 451.561922L138.8756 451.561922M249.691047 305.425378L276.672289 305.425378M157.826587 305.425378L230.010976 305.425378M555.905911 305.425378L582.887153 305.425378"/>
    <path stroke="#263F6F" stroke-linecap="round" stroke-width="6" d="M601.109057,305.425378 L628.090299,305.425378" opacity=".3"/>
    <path stroke="#DFE4EE" stroke-linecap="round" stroke-width="6" d="M427.587301,305.425378 L437.799634,305.425378"/>
    <path stroke="#263F6F" stroke-linecap="round" stroke-width="6" d="M133.037765,153.443372 L172.413418,153.443372" opacity=".3"/>
    <path stroke="#DFE4EE" stroke-linecap="round" stroke-width="6" d="M147.619425,162.942247 L172.413418,162.942247"/>
    <g fill="#FFF" transform="translate(286.874 78.914)">
      <ellipse cx="9.216" cy="9.236" rx="9.216" ry="9.236"/>
      <ellipse cx="36.522" cy="9.236" opacity=".4" rx="9.216" ry="9.236"/>
      <ellipse cx="63.829" cy="9.236" opacity=".4" rx="9.216" ry="9.236"/>
      <ellipse cx="91.135" cy="9.236" opacity=".4" rx="9.216" ry="9.236"/>
      <ellipse cx="118.442" cy="9.236" opacity=".4" rx="9.216" ry="9.236"/>
      <ellipse cx="145.748" cy="9.236" opacity=".4" rx="9.216" ry="9.236"/>
      <ellipse cx="173.055" cy="9.236" opacity=".4" rx="9.216" ry="9.236"/>
    </g>
    <ellipse cx="675.476" cy="70.146" fill="#FFF" opacity=".4" rx="5.833" ry="5.845"/>
    <ellipse cx="675.476" cy="305.425" fill="#263F6F" opacity=".3" rx="5.833" ry="5.845"/>
    <path stroke="#263F6F" stroke-linecap="round" stroke-width="6" d="M296.352359,334.652686 L408.636313,334.652686" opacity=".3"/>
    <path stroke="#DFE4EE" stroke-linecap="round" stroke-width="6" d="M249.691047 334.652686L276.672289 334.652686M157.826587 334.652686L208.138486 334.652686M555.905911 334.652686L582.887153 334.652686M601.109057 334.652686L628.090299 334.652686M427.587301 334.652686L437.799634 334.652686"/>
    <ellipse cx="675.476" cy="334.653" fill="#263F6F" opacity=".3" rx="5.833" ry="5.845"/>
    <path stroke="#DFE4EE" stroke-linecap="round" stroke-width="6" d="M296.352359 363.879995L306.564692 363.879995M249.691047 363.879995L276.672289 363.879995M157.826587 363.879995L230.010976 363.879995"/>
    <path stroke="#263F6F" stroke-linecap="round" stroke-width="6" d="M555.905911,363.879995 L582.887153,363.879995" opacity=".3"/>
    <path stroke="#DFE4EE" stroke-linecap="round" stroke-width="6" d="M601.109057 363.879995L628.090299 363.879995M427.587301 363.879995L437.799634 363.879995"/>
    <ellipse cx="675.476" cy="363.88" fill="#263F6F" opacity=".3" rx="5.833" ry="5.845"/>
    <path stroke="#DFE4EE" stroke-linecap="round" stroke-width="6" d="M296.352359 393.107304L306.564692 393.107304M249.691047 393.107304L276.672289 393.107304M157.826587 393.107304L186.265996 393.107304M555.905911 393.107304L582.887153 393.107304"/>
    <path stroke="#263F6F" stroke-linecap="round" stroke-width="6" d="M601.109057 393.107304L628.090299 393.107304M427.587301 393.107304L539.871255 393.107304" opacity=".3"/>
    <ellipse cx="675.476" cy="393.107" fill="#263F6F" opacity=".3" rx="5.833" ry="5.845"/>
    <path stroke="#263F6F" stroke-linecap="round" stroke-width="6" d="M296.352359,422.334613 L408.636313,422.334613" opacity=".3"/>
    <path stroke="#DFE4EE" stroke-linecap="round" stroke-width="6" d="M249.691047 422.334613L276.672289 422.334613M157.826587 422.334613L230.010976 422.334613M555.905911 422.334613L582.887153 422.334613M601.109057 422.334613L628.090299 422.334613M427.587301 422.334613L437.799634 422.334613"/>
    <ellipse cx="675.476" cy="422.335" fill="#263F6F" opacity=".3" rx="5.833" ry="5.845"/>
    <path stroke="#263F6F" stroke-linecap="round" stroke-width="6" d="M296.352359,451.561922 L408.636313,451.561922" opacity=".3"/>
    <path stroke="#DFE4EE" stroke-linecap="round" stroke-width="6" d="M249.691047 451.561922L276.672289 451.561922M157.826587 451.561922L230.010976 451.561922M555.905911 451.561922L582.887153 451.561922"/>
    <path stroke="#263F6F" stroke-linecap="round" stroke-width="6" d="M601.109057,451.561922 L628.090299,451.561922" opacity=".3"/>
    <path stroke="#DFE4EE" stroke-linecap="round" stroke-width="6" d="M427.587301,451.561922 L437.799634,451.561922"/>
    <ellipse cx="675.476" cy="451.562" fill="#263F6F" opacity=".3" rx="5.833" ry="5.845"/>
    <ellipse cx="652.874" cy="70.146" fill="#FFF" opacity=".4" rx="5.833" ry="5.845"/>
    <ellipse cx="629.543" cy="70.146" fill="#FFF" opacity=".4" rx="5.833" ry="5.845"/>
    <ellipse cx="607.306" cy="69.78" fill="#FFF" opacity=".4" rx="5.468" ry="5.48"/>
    <path stroke="#DFE4EE" d="M79.5039623,129.100159 C71.4958334,129.100159 65.0039623,135.59203 65.0039623,143.600159 L65.0039623,210.04968 C65.0039623,218.057809 71.4958334,224.54968 79.5039623,224.54968 L169.073576,224.54968 C177.081705,224.54968 183.573576,218.057809 183.573576,210.04968 L183.573576,143.600159 C183.573576,135.59203 177.081705,129.100159 169.073576,129.100159 L79.5039623,129.100159 Z" opacity=".5"/>
    <path fill="#DFE4EE" d="M203.842485 198.7457L228.463971 198.7457 228.463971 198.7457C230.120826 198.7457 231.463971 200.088846 231.463971 201.7457L231.463971 211.090037 231.463971 211.090037C231.463971 212.746892 230.120826 214.090037 228.463971 214.090037L203.842485 214.090037 203.842485 214.090037C202.185631 214.090037 200.842485 212.746892 200.842485 211.090037L200.842485 201.7457 200.842485 201.7457C200.842485 200.088846 202.185631 198.7457 203.842485 198.7457zM270.918122 198.7457L295.539608 198.7457 295.539608 198.7457C297.196463 198.7457 298.539608 200.088846 298.539608 201.7457L298.539608 211.090037 298.539608 211.090037C298.539608 212.746892 297.196463 214.090037 295.539608 214.090037L270.918122 214.090037 270.918122 214.090037C269.261268 214.090037 267.918122 212.746892 267.918122 211.090037L267.918122 201.7457 267.918122 201.7457C267.918122 200.088846 269.261268 198.7457 270.918122 198.7457zM237.380303 198.7457L262.00179 198.7457 262.00179 198.7457C263.658644 198.7457 265.00179 200.088846 265.00179 201.7457L265.00179 211.090037 265.00179 211.090037C265.00179 212.746892 263.658644 214.090037 262.00179 214.090037L237.380303 214.090037 237.380303 214.090037C235.723449 214.090037 234.380303 212.746892 234.380303 211.090037L234.380303 201.7457 234.380303 201.7457C234.380303 200.088846 235.723449 198.7457 237.380303 198.7457z"/>
    <path stroke="#263F6F" stroke-linecap="round" stroke-width="6" d="M258.440043,153.443372 L297.815696,153.443372" opacity=".3"/>
    <path stroke="#DFE4EE" stroke-linecap="round" stroke-width="6" d="M273.021703,162.942247 L297.815696,162.942247"/>
    <path stroke="#DFE4EE" d="M204.90624,129.100159 C196.898111,129.100159 190.40624,135.59203 190.40624,143.600159 L190.40624,210.04968 C190.40624,218.057809 196.898111,224.54968 204.90624,224.54968 L294.475853,224.54968 C302.483982,224.54968 308.975853,218.057809 308.975853,210.04968 L308.975853,143.600159 C308.975853,135.59203 302.483982,129.100159 294.475853,129.100159 L204.90624,129.100159 Z" opacity=".5"/>
    <path fill="#DFE4EE" d="M329.973846 198.7457L354.595332 198.7457 354.595332 198.7457C356.252186 198.7457 357.595332 200.088846 357.595332 201.7457L357.595332 211.090037 357.595332 211.090037C357.595332 212.746892 356.252186 214.090037 354.595332 214.090037L329.973846 214.090037 329.973846 214.090037C328.316991 214.090037 326.973846 212.746892 326.973846 211.090037L326.973846 201.7457 326.973846 201.7457C326.973846 200.088846 328.316991 198.7457 329.973846 198.7457zM397.049483 198.7457L421.670969 198.7457 421.670969 198.7457C423.327823 198.7457 424.670969 200.088846 424.670969 201.7457L424.670969 211.090037 424.670969 211.090037C424.670969 212.746892 423.327823 214.090037 421.670969 214.090037L397.049483 214.090037 397.049483 214.090037C395.392628 214.090037 394.049483 212.746892 394.049483 211.090037L394.049483 201.7457 394.049483 201.7457C394.049483 200.088846 395.392628 198.7457 397.049483 198.7457zM363.511664 198.7457L388.13315 198.7457 388.13315 198.7457C389.790005 198.7457 391.13315 200.088846 391.13315 201.7457L391.13315 211.090037 391.13315 211.090037C391.13315 212.746892 389.790005 214.090037 388.13315 214.090037L363.511664 214.090037 363.511664 214.090037C361.85481 214.090037 360.511664 212.746892 360.511664 211.090037L360.511664 201.7457 360.511664 201.7457C360.511664 200.088846 361.85481 198.7457 363.511664 198.7457z"/>
    <path stroke="#263F6F" stroke-linecap="round" stroke-width="6" d="M384.571403,153.443372 L423.947057,153.443372" opacity=".3"/>
    <path stroke="#DFE4EE" stroke-linecap="round" stroke-width="6" d="M399.153064,162.942247 L423.947057,162.942247"/>
    <path stroke="#DFE4EE" d="M331.0376,129.100159 C323.029472,129.100159 316.5376,135.59203 316.5376,143.600159 L316.5376,210.04968 C316.5376,218.057809 323.029472,224.54968 331.0376,224.54968 L420.607214,224.54968 C428.615343,224.54968 435.107214,218.057809 435.107214,210.04968 L435.107214,143.600159 C435.107214,135.59203 428.615343,129.100159 420.607214,129.100159 L331.0376,129.100159 Z" opacity=".5"/>
    <path fill="#DFE4EE" d="M456.105206 198.7457L480.726693 198.7457 480.726693 198.7457C482.383547 198.7457 483.726693 200.088846 483.726693 201.7457L483.726693 211.090037 483.726693 211.090037C483.726693 212.746892 482.383547 214.090037 480.726693 214.090037L456.105206 214.090037 456.105206 214.090037C454.448352 214.090037 453.105206 212.746892 453.105206 211.090037L453.105206 201.7457 453.105206 201.7457C453.105206 200.088846 454.448352 198.7457 456.105206 198.7457zM523.180843 198.7457L547.80233 198.7457 547.80233 198.7457C549.459184 198.7457 550.80233 200.088846 550.80233 201.7457L550.80233 211.090037 550.80233 211.090037C550.80233 212.746892 549.459184 214.090037 547.80233 214.090037L523.180843 214.090037 523.180843 214.090037C521.523989 214.090037 520.180843 212.746892 520.180843 211.090037L520.180843 201.7457 520.180843 201.7457C520.180843 200.088846 521.523989 198.7457 523.180843 198.7457zM489.643025 198.7457L514.264511 198.7457 514.264511 198.7457C515.921365 198.7457 517.264511 200.088846 517.264511 201.7457L517.264511 211.090037 517.264511 211.090037C517.264511 212.746892 515.921365 214.090037 514.264511 214.090037L489.643025 214.090037 489.643025 214.090037C487.98617 214.090037 486.643025 212.746892 486.643025 211.090037L486.643025 201.7457 486.643025 201.7457C486.643025 200.088846 487.98617 198.7457 489.643025 198.7457z"/>
    <path stroke="#263F6F" stroke-linecap="round" stroke-width="6" d="M510.702764,153.443372 L550.078417,153.443372" opacity=".3"/>
    <path stroke="#DFE4EE" stroke-linecap="round" stroke-width="6" d="M525.284424,162.942247 L550.078417,162.942247"/>
    <path stroke="#DFE4EE" d="M457.168961,129.100159 C449.160832,129.100159 442.668961,135.59203 442.668961,143.600159 L442.668961,210.04968 C442.668961,218.057809 449.160832,224.54968 457.168961,224.54968 L546.738575,224.54968 C554.746704,224.54968 561.238575,218.057809 561.238575,210.04968 L561.238575,143.600159 C561.238575,135.59203 554.746704,129.100159 546.738575,129.100159 L457.168961,129.100159 Z" opacity=".5"/>
    <path fill="#4F89DC" d="M582.236567 198.7457L606.858053 198.7457 606.858053 198.7457C608.514908 198.7457 609.858053 200.088846 609.858053 201.7457L609.858053 211.090037 609.858053 211.090037C609.858053 212.746892 608.514908 214.090037 606.858053 214.090037L582.236567 214.090037 582.236567 214.090037C580.579713 214.090037 579.236567 212.746892 579.236567 211.090037L579.236567 201.7457 579.236567 201.7457C579.236567 200.088846 580.579713 198.7457 582.236567 198.7457zM649.312204 198.7457L673.93369 198.7457 673.93369 198.7457C675.590544 198.7457 676.93369 200.088846 676.93369 201.7457L676.93369 211.090037 676.93369 211.090037C676.93369 212.746892 675.590544 214.090037 673.93369 214.090037L649.312204 214.090037 649.312204 214.090037C647.65535 214.090037 646.312204 212.746892 646.312204 211.090037L646.312204 201.7457 646.312204 201.7457C646.312204 200.088846 647.65535 198.7457 649.312204 198.7457zM615.774385 198.7457L640.395872 198.7457 640.395872 198.7457C642.052726 198.7457 643.395872 200.088846 643.395872 201.7457L643.395872 211.090037 643.395872 211.090037C643.395872 212.746892 642.052726 214.090037 640.395872 214.090037L615.774385 214.090037 615.774385 214.090037C614.117531 214.090037 612.774385 212.746892 612.774385 211.090037L612.774385 201.7457 612.774385 201.7457C612.774385 200.088846 614.117531 198.7457 615.774385 198.7457z"/>
    <path stroke="#DFE4EE" stroke-linecap="round" stroke-width="6" d="M636.834125 153.443372L676.209778 153.443372M651.415785 162.942247L676.209778 162.942247"/>
    <path stroke="#DFE4EE" d="M583.300322,129.100159 C575.292193,129.100159 568.800322,135.59203 568.800322,143.600159 L568.800322,210.04968 C568.800322,218.057809 575.292193,224.54968 583.300322,224.54968 L672.869935,224.54968 C680.878064,224.54968 687.369935,218.057809 687.369935,210.04968 L687.369935,143.600159 C687.369935,135.59203 680.878064,129.100159 672.869935,129.100159 L583.300322,129.100159 Z" opacity=".5"/>
    <path fill="#DFE4EE" d="M582.236567 198.7457L606.858053 198.7457 606.858053 198.7457C608.514908 198.7457 609.858053 200.088846 609.858053 201.7457L609.858053 211.090037 609.858053 211.090037C609.858053 212.746892 608.514908 214.090037 606.858053 214.090037L582.236567 214.090037 582.236567 214.090037C580.579713 214.090037 579.236567 212.746892 579.236567 211.090037L579.236567 201.7457 579.236567 201.7457C579.236567 200.088846 580.579713 198.7457 582.236567 198.7457zM649.312204 198.7457L673.93369 198.7457 673.93369 198.7457C675.590544 198.7457 676.93369 200.088846 676.93369 201.7457L676.93369 211.090037 676.93369 211.090037C676.93369 212.746892 675.590544 214.090037 673.93369 214.090037L649.312204 214.090037 649.312204 214.090037C647.65535 214.090037 646.312204 212.746892 646.312204 211.090037L646.312204 201.7457 646.312204 201.7457C646.312204 200.088846 647.65535 198.7457 649.312204 198.7457zM615.774385 198.7457L640.395872 198.7457 640.395872 198.7457C642.052726 198.7457 643.395872 200.088846 643.395872 201.7457L643.395872 211.090037 643.395872 211.090037C643.395872 212.746892 642.052726 214.090037 640.395872 214.090037L615.774385 214.090037 615.774385 214.090037C614.117531 214.090037 612.774385 212.746892 612.774385 211.090037L612.774385 201.7457 612.774385 201.7457C612.774385 200.088846 614.117531 198.7457 615.774385 198.7457z"/>
    <path stroke="#263F6F" stroke-linecap="round" stroke-width="6" d="M636.834125,153.443372 L676.209778,153.443372" opacity=".2"/>
    <path stroke="#DFE4EE" stroke-linecap="round" stroke-width="6" d="M651.415785,162.942247 L676.209778,162.942247" opacity=".4"/>
    <path stroke="#DFE4EE" d="M583.300322,129.100159 C575.292193,129.100159 568.800322,135.59203 568.800322,143.600159 L568.800322,210.04968 C568.800322,218.057809 575.292193,224.54968 583.300322,224.54968 L672.869935,224.54968 C680.878064,224.54968 687.369935,218.057809 687.369935,210.04968 L687.369935,143.600159 C687.369935,135.59203 680.878064,129.100159 672.869935,129.100159 L583.300322,129.100159 Z" opacity=".5"/>
    <g transform="translate(200.842 143.944)">
      <ellipse cx="13.123" cy="13.152" fill="#F5A623" rx="13.123" ry="13.152"/>
      <path fill="#FFF" fill-rule="nonzero" d="M16.31506,12.4215383 C17.0704425,12.0362123 17.5430684,11.3575947 17.432666,10.2270531 C17.2839897,8.68205132 15.9517417,8.16397613 14.2699605,8.01643645 L14.2696362,5.87339306 L12.9665801,5.87339306 L12.9662152,7.960078 C12.6233719,7.960078 12.2738792,7.96682313 11.9259678,7.97381207 L11.925684,5.87367749 L10.6238037,5.87355559 L10.6235605,8.01607075 C10.3414121,8.02184068 10.0643317,8.02732619 9.79377905,8.02732619 L9.79377905,8.02098738 L7.99644635,8.02025598 L7.99668961,9.41324841 C7.99668961,9.41324841 8.95897011,9.39512594 8.94311725,9.41272018 C9.47072137,9.41308588 9.64299447,9.71986765 9.69253971,9.98467518 L9.69294515,12.4260486 L9.69294515,15.8553813 C9.66971322,16.0215716 9.5719607,16.2871106 9.20304732,16.2875982 C9.2198327,16.3023887 8.25516008,16.2874356 8.25516008,16.2874356 L7.99668961,17.845115 L9.69213427,17.845115 C10.0080561,17.8454807 10.318464,17.8503974 10.6229929,17.8528354 L10.6241281,20.0201369 L11.925684,20.0205026 L11.9253191,17.8759151 C12.2834072,17.8832291 12.6290481,17.8863985 12.9666612,17.8859515 L12.9662963,20.0205026 L14.2693118,20.0205026 L14.2700416,17.8568174 C16.4603305,17.7308541 17.9937192,17.1783624 18.184359,15.1187393 C18.3380222,13.460533 17.5585969,12.7203559 16.31506,12.4215383 Z M11.9571059,9.50727398 C12.6920135,9.50727398 15.0032869,9.27294146 15.0036112,10.8101416 C15.0032869,12.2838725 12.6927433,12.111709 11.9571059,12.111709 L11.9571059,9.50727398 L11.9571059,9.50727398 Z M11.9565383,16.2981628 L11.9571059,13.4265229 C12.8400816,13.4262791 15.6095471,13.1721175 15.609912,14.8616927 C15.6102769,16.4819881 12.8400816,16.2975127 11.9565383,16.2981628 Z" transform="rotate(10 13.1 12.947)"/>
    </g>
    <g transform="translate(454.563 143.944)">
      <ellipse cx="13.123" cy="13.152" fill="#35980A" rx="13.123" ry="13.152"/>
      <path fill="#FFF" fill-rule="nonzero" d="M17.3432852,14.456135 C17.2626181,14.2052028 17.1647469,13.9868104 17.049802,13.8013479 C16.9349225,13.6157054 16.7703891,13.4346215 16.5558755,13.2574964 C16.341623,13.0804612 16.148884,12.9378854 15.9779847,12.829499 C15.8071834,12.7210226 15.5725602,12.5997402 15.2742455,12.4655018 C14.976192,12.3312933 14.7400344,12.2314243 14.5661971,12.1657446 C14.3921313,12.1001549 14.1403364,12.0102428 13.8109759,11.8960682 C13.5189619,11.79338 13.3015428,11.7148643 13.1584902,11.6606711 C13.0156008,11.6064179 12.8276932,11.5294018 12.5946696,11.4294427 C12.3617439,11.3296337 12.1877433,11.2411011 12.0727659,11.1640849 C11.957821,11.0870688 11.8351392,10.992898 11.7046225,10.8816025 C11.5741057,10.7703069 11.4824698,10.6518436 11.4296167,10.5262725 C11.3768942,10.4006715 11.3504513,10.2636439 11.3504513,10.1152199 C11.3504513,9.72714012 11.5367919,9.4102283 11.9096036,9.16484432 C12.2824479,8.91946034 12.7640671,8.79670837 13.3543958,8.79670837 C13.6152335,8.79670837 13.8811638,8.82948821 14.1512727,8.89519786 C14.4213816,8.9609075 14.6528709,9.03492457 14.8455121,9.11775891 C15.0383164,9.20059324 15.2199887,9.29194494 15.3909206,9.39178401 C15.5618198,9.49171305 15.6829346,9.56728964 15.7544609,9.61866372 C15.825922,9.6700678 15.8712013,9.7042872 15.889646,9.72144188 C15.9705416,9.7785142 16.054212,9.79845802 16.1412123,9.78139331 C16.2343826,9.77569507 16.3059089,9.72995924 16.3557259,9.64442574 L17.1108165,8.39429304 C17.1853462,8.28017839 17.1699375,8.171702 17.0642314,8.06889385 C17.0268849,8.03464446 16.980463,7.99472683 16.9241495,7.94902099 C16.868391,7.90331515 16.7471782,7.82057078 16.5606091,7.70063794 C16.3742359,7.58079507 16.1769591,7.47375823 15.9689419,7.37955741 C15.7606962,7.28544657 15.4903261,7.18977621 15.1578643,7.09278625 C14.8255983,6.99564635 14.4822002,6.93005667 14.1279312,6.89583727 L14.1279312,5.38877417 C14.1279312,5.30890891 14.1000192,5.24322926 14.0442607,5.19182518 C13.9883716,5.14054107 13.9168779,5.11477905 13.8297471,5.11477905 L12.5713933,5.11477905 C12.4906284,5.11477905 12.4207343,5.14186066 12.3617112,5.19611385 C12.3026882,5.25036704 12.2731766,5.31454716 12.2731766,5.38877417 L12.2731766,6.93002668 C11.2975983,7.10121364 10.5053571,7.48368515 9.89642042,8.07735123 C9.28754906,8.6710473 8.98299911,9.36164335 8.98299911,10.1494693 C8.98299911,10.3834868 9.00950727,10.6061078 9.0623277,10.8172124 C9.11508284,11.0284969 9.18037385,11.2183081 9.25807016,11.386676 C9.33570118,11.5551638 9.446043,11.7206525 9.58893239,11.8833821 C9.73182177,12.0460517 9.86700682,12.1859284 9.99435695,12.3028921 C10.1217724,12.4198259 10.2880033,12.5411683 10.4929844,12.6667094 C10.6980962,12.7923705 10.8736311,12.8937691 11.0196871,12.9707852 C11.1657757,13.0475614 11.3599185,13.1363339 11.6021809,13.2359931 C11.8445085,13.3359521 12.0356479,13.4114987 12.1754686,13.4629927 C12.3152893,13.5143068 12.5063308,13.5857447 12.7487564,13.6768865 C13.0842543,13.7967593 13.3328498,13.8895506 13.4943798,13.9552302 C13.6560403,14.0209099 13.8610215,14.1122316 14.109715,14.2292553 C14.3581799,14.3461591 14.5398522,14.4532259 14.6548949,14.5503059 C14.7698398,14.6473858 14.873881,14.7672587 14.9671492,14.9099245 C15.0604174,15.0525903 15.1071332,15.2038634 15.1071332,15.3637739 C15.1071332,15.8147441 14.916059,16.1628763 14.5338128,16.4081403 C14.1517297,16.6536742 13.7088608,16.7763962 13.2056303,16.7763962 C12.9759365,16.7763962 12.7458509,16.7536933 12.5160266,16.7080474 C11.7082461,16.5594434 10.9533187,16.202674 10.2511792,15.637589 L10.2325386,15.6204643 C10.1765842,15.5578437 10.1019892,15.5321117 10.0088842,15.5435981 C9.90944598,15.5549946 9.83795232,15.589274 9.79450115,15.6464663 L8.83446205,16.8023082 C8.74122648,16.9164528 8.74752707,17.0334466 8.85313528,17.1533194 C8.88424645,17.1875988 8.93860122,17.2390929 9.01623224,17.3074717 C9.09405913,17.3761204 9.23854815,17.4829773 9.44969929,17.6288221 C9.66091573,17.774457 9.89083804,17.9112746 10.1394336,18.0398748 C10.3879965,18.168265 10.7032868,18.2952157 11.0855004,18.4208468 C11.467714,18.5462679 11.8637367,18.6347105 12.2738622,18.6860546 L12.2738622,20.1844804 C12.2738622,20.2587974 12.3034064,20.3229475 12.3623968,20.3772307 C12.4214525,20.4315438 12.4913139,20.4585355 12.5720789,20.4585355 L13.8304326,20.4585355 C13.9175635,20.4585355 13.9890572,20.4328934 14.0449136,20.3815793 C14.1007701,20.3302652 14.1285841,20.2645856 14.1285841,20.1845104 L14.1285841,18.6860846 C15.1167309,18.5376906 15.9198431,18.1480813 16.5380184,17.5172867 C17.156259,16.8864921 17.4654773,16.1344151 17.4654773,15.2611157 C17.4651508,14.9757541 17.4248336,14.7074572 17.3432852,14.456135 Z"/>
    </g>
    <g transform="translate(579.966 143.944)">
      <ellipse cx="13.123" cy="13.152" fill="#F58823" rx="13.123" ry="13.152"/>
      <path fill="#FFF" fill-rule="nonzero" d="M17.2974944,16.3064027 C17.0909209,16.099376 16.7810606,16.1511327 16.5744871,16.3581594 L16.5228437,16.4099161 C16.0580533,16.927483 15.1284724,17.9108602 13.5791711,17.9108602 C12.5463035,17.9108602 11.6167226,17.4968067 10.8937153,16.8239697 C10.7387852,16.6686996 10.8420719,16.3581594 11.1002888,16.3581594 L12.5463035,16.3581594 C12.8561637,16.3581594 13.0627373,16.1511327 13.0627373,15.8405925 L13.0627373,14.8054586 C13.0627373,14.4949185 12.8561637,14.2878917 12.5463035,14.2878917 L9.75756094,14.2878917 C9.65427418,14.2878917 9.49934404,14.1843783 9.49934404,14.0808649 C9.44770066,13.8220815 9.44770066,13.563298 9.44770066,13.2527579 C9.44770066,12.9422177 9.44770066,12.6834342 9.49934404,12.4246508 C9.49934404,12.3211374 9.65427418,12.217624 9.75756094,12.217624 L12.5463035,12.217624 C12.8561637,12.217624 13.0627373,12.0105972 13.0627373,11.7000571 L13.0627373,10.6649232 C13.0627373,10.3543831 12.8561637,10.1473563 12.5463035,10.1473563 L11.1002888,10.1473563 C10.8937153,10.1473563 10.7387852,9.83681614 10.8937153,9.68154606 C11.6167226,9.00870905 12.5463035,8.59465551 13.5791711,8.59465551 C15.1284724,8.59465551 16.0580533,9.62978937 16.5228437,10.0955996 L16.5744871,10.1473563 C16.7810606,10.3543831 17.0909209,10.3543831 17.2974944,10.199113 L18.0721451,9.52627598 C18.1754319,9.4227626 18.2270752,9.31924921 18.2270752,9.16397913 C18.2270752,9.00870905 18.1754319,8.90519567 18.0721451,8.80168228 C17.5040679,8.23235866 16.0580533,6.57614449 13.5791711,6.57614449 C11.255219,6.57614449 9.18948376,7.9735752 8.15661617,10.0438429 C8.10497279,10.1473563 8.00168603,10.199113 7.95004265,10.199113 L6.34909787,10.199113 C6.03923759,10.199113 5.83266408,10.4061398 5.83266408,10.7166799 L5.83266408,11.7518138 C5.83266408,12.0623539 6.03923759,12.2693807 6.34909787,12.2693807 L7.17539195,12.2693807 C7.33032209,12.2693807 7.43360885,12.4246508 7.43360885,12.5799209 C7.38196547,12.8387043 7.38196547,13.0974878 7.38196547,13.3045146 C7.38196547,13.5115413 7.38196547,13.8220815 7.43360885,14.0291083 C7.43360885,14.1843783 7.33032209,14.3396484 7.17539195,14.3396484 L6.34909787,14.3396484 C6.03923759,14.3396484 5.83266408,14.5466752 5.83266408,14.8572153 L5.83266408,15.8923492 C5.83266408,16.2028893 6.03923759,16.4099161 6.34909787,16.4099161 L7.95004265,16.4099161 C8.05332941,16.4099161 8.15661617,16.4616728 8.15661617,16.5651862 C9.18948376,18.6354539 11.255219,20.0328846 13.5791711,20.0328846 C16.0580533,20.0328846 17.5040679,18.4284271 18.0721451,17.8073468 C18.1754319,17.7038334 18.2270752,17.6003201 18.2270752,17.44505 C18.2270752,17.2897799 18.1754319,17.1345098 18.0721451,17.0827531 L17.2974944,16.3064027 Z"/>
    </g>
    <path fill="#4A4A4A" d="M9.04609744,21.8839475 L0.0966034987,16.5864978 L9.04427473,29.2273089 L18.0010595,16.5864978 L9.04427473,21.8839475 L9.04609744,21.8839475 Z M9.1809778,0 L0.231483855,14.884007 L9.1809778,20.1869369 L18.1304717,14.8858337 L9.1828005,0 L9.1809778,0 Z" transform="translate(327.703 142.483)"/>
  </g>
</svg>
