<svg xmlns="http://www.w3.org/2000/svg" xmlns:xlink="http://www.w3.org/1999/xlink" viewBox="0 0 1200 700">
  <defs>
    <path id="wallet_mob-b" d="M31.9284336,0 L905.728801,0 C923.362388,0 937.657235,14.2840669 937.657235,31.9007014 L937.657235,609.244297 C937.657235,626.862568 923.35946,641.144999 905.728801,641.144999 L31.9284336,641.144999 C14.2948466,641.144999 0,626.860932 0,609.244297 L0,31.9007014 C0,14.2824305 14.2977746,0 31.9284336,0 Z"/>
    <filter id="wallet_mob-a" width="107.1%" height="110.5%" x="-3.6%" y="-3.4%" filterUnits="objectBoundingBox">
      <feOffset dy="2" in="SourceAlpha" result="shadowOffsetOuter1"/>
      <feGaussianBlur in="shadowOffsetOuter1" result="shadowBlurOuter1" stdDeviation="3"/>
      <feColorMatrix in="shadowBlurOuter1" result="shadowMatrixOuter1" values="0 0 0 0 0.0901960784   0 0 0 0 0.160784314   0 0 0 0 0.278431373  0 0 0 0.1 0"/>
      <feOffset dy="10" in="SourceAlpha" result="shadowOffsetOuter2"/>
      <feGaussianBlur in="shadowOffsetOuter2" result="shadowBlurOuter2" stdDeviation="7.5"/>
      <feColorMatrix in="shadowBlurOuter2" result="shadowMatrixOuter2" values="0 0 0 0 0   0 0 0 0 0.231372549   0 0 0 0 0.862745098  0 0 0 0.14 0"/>
      <feMerge>
        <feMergeNode in="shadowMatrixOuter1"/>
        <feMergeNode in="shadowMatrixOuter2"/>
      </feMerge>
    </filter>
    <filter id="wallet_mob-c" width="109.8%" height="114.3%" x="-4.9%" y="-5.3%" filterUnits="objectBoundingBox">
      <feGaussianBlur in="SourceAlpha" result="shadowBlurInner1" stdDeviation="15"/>
      <feOffset dy="-20" in="shadowBlurInner1" result="shadowOffsetInner1"/>
      <feComposite in="shadowOffsetInner1" in2="SourceAlpha" k2="-1" k3="1" operator="arithmetic" result="shadowInnerInner1"/>
      <feColorMatrix in="shadowInnerInner1" result="shadowMatrixInner1" values="0 0 0 0 0.960784314   0 0 0 0 0.976470588   0 0 0 0 1  0 0 0 0 0"/>
      <feGaussianBlur in="SourceAlpha" result="shadowBlurInner2" stdDeviation="1.5"/>
      <feOffset dy="1" in="shadowBlurInner2" result="shadowOffsetInner2"/>
      <feComposite in="shadowOffsetInner2" in2="SourceAlpha" k2="-1" k3="1" operator="arithmetic" result="shadowInnerInner2"/>
      <feColorMatrix in="shadowInnerInner2" result="shadowMatrixInner2" values="0 0 0 0 0.450382734   0 0 0 0 0.684886101   0 0 0 0 1  0 0 0 0.2 0"/>
      <feMerge>
        <feMergeNode in="shadowMatrixInner1"/>
        <feMergeNode in="shadowMatrixInner2"/>
      </feMerge>
    </filter>
    <linearGradient id="wallet_mob-d" x1="50%" x2="50%" y1="0%" y2="100%">
      <stop offset="0%" stop-color="#F3F4F6"/>
      <stop offset="100%" stop-color="#FFF"/>
    </linearGradient>
  </defs>
  <g fill="none" fill-rule="evenodd" transform="translate(13 8)">
    <use fill="#000" filter="url(#wallet_mob-a)" xlink:href="#wallet_mob-b"/>
    <use fill="#FFF" xlink:href="#wallet_mob-b"/>
    <use fill="#000" filter="url(#wallet_mob-c)" xlink:href="#wallet_mob-b"/>
    <path fill="url(#wallet_mob-d)" d="M715.029696,129.43662 C716.264098,129.43662 717.264778,128.436809 717.264778,127.203479 C717.264778,125.970149 716.264098,124.970337 715.029696,124.970337 C713.795294,124.970337 712.794613,125.970149 712.794613,127.203479 C712.794613,128.436809 713.795294,129.43662 715.029696,129.43662 Z" style="mix-blend-mode:multiply"/>
    <path fill="#263F6F" d="M85,69 L852,69 L852,69 C853.656854,69 855,70.3431458 855,72 L855,129 L855,129 C855,130.656854 853.656854,132 852,132 L85,132 L85,132 C83.3431458,132 82,130.656854 82,129 L82,72 L82,72 C82,70.3431458 83.3431458,69 85,69 Z" opacity=".8"/>
    <path fill="#DFE4EE" d="M85,323 L852,323 L852,323 C853.656854,323 855,324.343146 855,326 L855,356 L855,356 C855,357.656854 853.656854,359 852,359 L85,359 L85,359 C83.3431458,359 82,357.656854 82,356 L82,326 L82,326 C82,324.343146 83.3431458,323 85,323 Z"/>
    <polygon fill="#DFE4EE" points="82 394 855 394 855 394.803 82 394.803" opacity=".5"/>
    <polygon fill="#DFE4EE" points="82 431 855 431 855 431.803 82 431.803" opacity=".5"/>
    <polygon fill="#DFE4EE" points="82 467 855 467 855 467.803 82 467.803" opacity=".5"/>
    <polygon fill="#DFE4EE" points="82 503 855 503 855 503.803 82 503.803" opacity=".5"/>
    <polygon fill="#DFE4EE" points="82 539 855 539 855 539.803 82 539.803" opacity=".5"/>
    <polygon fill="#DFE4EE" points="82 575 855 575 855 575.803 82 575.803" opacity=".5"/>
    <g fill="#FFF" transform="translate(97 83)">
      <path d="M29.6520147,10.2305827 L20.7252898,1.16973994 C19.1887224,-0.389913314 16.7009466,-0.389913314 15.1643792,1.16973994 L6.31082422,10.2305827 C5.79863509,10.7504671 5.79863509,11.5674283 6.31082422,12.0873127 L9.01810964,14.8352732 L10.7741867,16.5434649 C11.2863758,17.0633493 12.0912444,17.0633493 12.6766035,16.5434649 L16.2619274,13.2013508 C17.2131358,12.3101203 18.7497032,12.3101203 19.7740814,13.2013508 L23.3594054,16.5434649 C23.8715945,17.0633493 24.6764632,17.0633493 25.2618222,16.5434649 L27.0910691,14.8352732 L29.7983545,12.0873127 C30.1642039,11.5674283 30.1642039,10.7504671 29.6520147,10.2305827 Z" opacity=".5"/>
      <path d="M1.19313601,20.823974 L15.1991839,34.8285972 C16.7391158,36.3683725 19.232339,36.3683725 20.772271,34.8285972 L34.7783188,20.823974 C37.1982119,18.4043271 35.5116197,17.6711007 33.7516975,15.9846802 L31.5517947,13.9316464 C31.038484,13.418388 30.231853,13.418388 29.6452123,13.9316464 L26.0520377,17.2311649 C25.0987465,18.1110366 23.5588145,18.1110366 22.5321932,17.2311649 L18.9390186,13.9316464 C18.425708,13.418388 17.6190769,13.418388 17.0324362,13.9316464 L13.4392616,17.2311649 C12.4859704,18.1110366 10.9460384,18.1110366 9.91941712,17.2311649 L6.32624255,13.9316464 C5.81293189,13.418388 5.00630086,13.418388 4.41966012,13.9316464 L2.4397476,15.7647123 C0.60649526,17.5244555 -1.30008717,18.3310045 1.19313601,20.823974 Z"/>
    </g>
    <g fill="#4F89DC" transform="translate(96 177)">
      <path d="M28.386623,9.75901675 L19.8408437,1.11582224 C18.3698489,-0.371940747 15.9882382,-0.371940747 14.5172434,1.11582224 L6.04151149,9.75901675 C5.55117989,10.2549377 5.55117989,11.0342422 6.04151149,11.5301632 L8.63326424,14.1514599 L10.3144012,15.7809146 C10.8047328,16.2768356 11.5752538,16.2768356 12.1356328,15.7809146 L15.567954,12.592851 C16.4785698,11.7427007 17.9495646,11.7427007 18.9302278,12.592851 L22.362549,15.7809146 C22.8528806,16.2768356 23.6234017,16.2768356 24.1837807,15.7809146 L25.934965,14.1514599 L28.5267177,11.5301632 C28.8769546,11.0342422 28.8769546,10.2549377 28.386623,9.75901675 Z"/>
      <path d="M1.14221925,20.7222394 L14.5505628,34.081337 C16.0247785,35.5501383 18.4116041,35.5501383 19.8858199,34.081337 L33.2941634,20.7222394 C35.6107882,18.4141231 33.9961709,17.7146939 32.3113529,16.1060067 L30.2053303,14.147605 C29.7139251,13.6580046 28.9417168,13.6580046 28.3801108,14.147605 L24.940274,17.2950364 C24.0276642,18.1343514 22.5534484,18.1343514 21.5706379,17.2950364 L18.1308011,14.147605 C17.6393958,13.6580046 16.8671876,13.6580046 16.3055816,14.147605 L12.8657447,17.2950364 C11.953135,18.1343514 10.4789192,18.1343514 9.49610867,17.2950364 L6.05627185,14.147605 C5.56486659,13.6580046 4.79265832,13.6580046 4.23105231,14.147605 L2.33563202,15.896178 C0.580613237,17.574808 -1.2446063,18.3441802 1.14221925,20.7222394 Z"/>
    </g>
    <path fill="#DFE4EE" d="M98 246L130 246 130 246C131.656854 246 133 247.343146 133 249L133 262 133 262C133 263.656854 131.656854 265 130 265L98 265 98 265C96.3431458 265 95 263.656854 95 262L95 249 95 249C95 247.343146 96.3431458 246 98 246zM180 246L212 246 212 246C213.656854 246 215 247.343146 215 249L215 262 215 262C215 263.656854 213.656854 265 212 265L180 265 180 265C178.343146 265 177 263.656854 177 262L177 249 177 249C177 247.343146 178.343146 246 180 246zM139 246L171 246 171 246C172.656854 246 174 247.343146 174 249L174 262 174 262C174 263.656854 172.656854 265 171 265L139 265 139 265C137.343146 265 136 263.656854 136 262L136 249 136 249C136 247.343146 137.343146 246 139 246z"/>
    <path stroke="#FFF" stroke-linecap="round" stroke-width="6" d="M360,84 L578,84" opacity=".4"/>
    <path stroke="#DFE4EE" stroke-linecap="round" stroke-width="6" d="M367 377L380 377M85 377L122 377M137 377L172 377M85 413L122 413M137 413L172 413M85 449L122 449M137 449L172 449M85 485L122 485M137 485L172 485M85 521L122 521M137 521L172 521M85 557L122 557M137 557L172 557M310 377L344 377M196 377L285 377M689 377L723 377M745 377L779 377M530 377L543 377"/>
    <path stroke="#263F6F" stroke-linecap="round" stroke-width="6" d="M165,190 L213,190" opacity=".3"/>
    <path stroke="#DFE4EE" stroke-linecap="round" stroke-width="6" d="M184,201 L215,201"/>
    <g fill="#FFF" transform="translate(356 98)">
      <ellipse cx="11.361" cy="11.116" rx="11.361" ry="11.116"/>
      <ellipse cx="45.024" cy="11.116" opacity=".4" rx="11.361" ry="11.116"/>
      <ellipse cx="78.686" cy="11.116" opacity=".4" rx="11.361" ry="11.116"/>
      <ellipse cx="112.349" cy="11.116" opacity=".4" rx="11.361" ry="11.116"/>
      <ellipse cx="146.011" cy="11.116" opacity=".4" rx="11.361" ry="11.116"/>
      <ellipse cx="179.674" cy="11.116" opacity=".4" rx="11.361" ry="11.116"/>
      <ellipse cx="213.337" cy="11.116" opacity=".4" rx="11.361" ry="11.116"/>
    </g>
    <circle cx="837.5" cy="86.5" r="7.5" fill="#FFF" opacity=".4"/>
    <circle cx="837.5" cy="376.5" r="7.5" fill="#DFE4EE"/>
    <path stroke="#DFE4EE" stroke-linecap="round" stroke-width="6" d="M367 413L506 413M310 413L344 413M196 413L258 413M689 413L723 413M745 413L779 413M530 413L543 413"/>
    <circle cx="837.5" cy="412.5" r="7.5" fill="#DFE4EE"/>
    <path stroke="#DFE4EE" stroke-linecap="round" stroke-width="6" d="M367 449L380 449M310 449L344 449M196 449L285 449M689 449L723 449M745 449L779 449M530 449L543 449"/>
    <circle cx="837.5" cy="449.5" r="7.5" fill="#DFE4EE"/>
    <path stroke="#DFE4EE" stroke-linecap="round" stroke-width="6" d="M367 485L380 485M310 485L344 485M196 485L231 485M689 485L723 485M745 485L779 485M530 485L669 485"/>
    <circle cx="837.5" cy="485.5" r="7.5" fill="#DFE4EE"/>
    <path stroke="#DFE4EE" stroke-linecap="round" stroke-width="6" d="M367 521L506 521M310 521L344 521M196 521L285 521M689 521L723 521M745 521L779 521M530 521L543 521"/>
    <circle cx="837.5" cy="520.5" r="7.5" fill="#DFE4EE"/>
    <path stroke="#DFE4EE" stroke-linecap="round" stroke-width="6" d="M367 557L506 557M310 557L344 557M196 557L285 557M689 557L723 557M745 557L779 557M530 557L543 557"/>
    <circle cx="837.5" cy="557.5" r="7.5" fill="#DFE4EE"/>
    <circle cx="809.5" cy="86.5" r="7.5" fill="#FFF" opacity=".4"/>
    <circle cx="780.5" cy="86.5" r="7.5" fill="#FFF" opacity=".4"/>
    <circle cx="753" cy="86" r="7" fill="#FFF" opacity=".4"/>
    <path stroke="#DFE4EE" d="M96,159.5 C87.9918711,159.5 81.5,165.991871 81.5,174 L81.5,263 C81.5,271.008129 87.9918711,277.5 96,277.5 L214,277.5 C222.008129,277.5 228.5,271.008129 228.5,263 L228.5,174 C228.5,165.991871 222.008129,159.5 214,159.5 L96,159.5 Z" opacity=".5"/>
    <path fill="#DFE4EE" d="M252 246L284 246 284 246C285.656854 246 287 247.343146 287 249L287 262 287 262C287 263.656854 285.656854 265 284 265L252 265 252 265C250.343146 265 249 263.656854 249 262L249 249 249 249C249 247.343146 250.343146 246 252 246zM336 246L368 246 368 246C369.656854 246 371 247.343146 371 249L371 262 371 262C371 263.656854 369.656854 265 368 265L336 265 336 265C334.343146 265 333 263.656854 333 262L333 249 333 249C333 247.343146 334.343146 246 336 246zM294 246L326 246 326 246C327.656854 246 329 247.343146 329 249L329 262 329 262C329 263.656854 327.656854 265 326 265L294 265 294 265C292.343146 265 291 263.656854 291 262L291 249 291 249C291 247.343146 292.343146 246 294 246z"/>
    <path stroke="#263F6F" stroke-linecap="round" stroke-width="6" d="M321,190 L369,190" opacity=".3"/>
    <path stroke="#DFE4EE" stroke-linecap="round" stroke-width="6" d="M338,201 L369,201"/>
    <path stroke="#DFE4EE" d="M251,159.5 C242.991871,159.5 236.5,165.991871 236.5,174 L236.5,263 C236.5,271.008129 242.991871,277.5 251,277.5 L369,277.5 C377.008129,277.5 383.5,271.008129 383.5,263 L383.5,174 C383.5,165.991871 377.008129,159.5 369,159.5 L251,159.5 Z" opacity=".5"/>
    <path fill="#DFE4EE" d="M408 246L440 246 440 246C441.656854 246 443 247.343146 443 249L443 262 443 262C443 263.656854 441.656854 265 440 265L408 265 408 265C406.343146 265 405 263.656854 405 262L405 249 405 249C405 247.343146 406.343146 246 408 246zM491 246L523 246 523 246C524.656854 246 526 247.343146 526 249L526 262 526 262C526 263.656854 524.656854 265 523 265L491 265 491 265C489.343146 265 488 263.656854 488 262L488 249 488 249C488 247.343146 489.343146 246 491 246zM450 246L482 246 482 246C483.656854 246 485 247.343146 485 249L485 262 485 262C485 263.656854 483.656854 265 482 265L450 265 450 265C448.343146 265 447 263.656854 447 262L447 249 447 249C447 247.343146 448.343146 246 450 246z"/>
    <path stroke="#263F6F" stroke-linecap="round" stroke-width="6" d="M477,190 L525,190" opacity=".3"/>
    <path stroke="#DFE4EE" stroke-linecap="round" stroke-width="6" d="M495,201 L526,201"/>
    <path stroke="#DFE4EE" d="M407,159.5 C398.991871,159.5 392.5,165.991871 392.5,174 L392.5,263 C392.5,271.008129 398.991871,277.5 407,277.5 L525,277.5 C533.008129,277.5 539.5,271.008129 539.5,263 L539.5,174 C539.5,165.991871 533.008129,159.5 525,159.5 L407,159.5 Z" opacity=".5"/>
    <path fill="#DFE4EE" d="M565 246L597 246 597 246C598.656854 246 600 247.343146 600 249L600 262 600 262C600 263.656854 598.656854 265 597 265L565 265 565 265C563.343146 265 562 263.656854 562 262L562 249 562 249C562 247.343146 563.343146 246 565 246zM648 246L680 246 680 246C681.656854 246 683 247.343146 683 249L683 262 683 262C683 263.656854 681.656854 265 680 265L648 265 648 265C646.343146 265 645 263.656854 645 262L645 249 645 249C645 247.343146 646.343146 246 648 246zM606 246L638 246 638 246C639.656854 246 641 247.343146 641 249L641 262 641 262C641 263.656854 639.656854 265 638 265L606 265 606 265C604.343146 265 603 263.656854 603 262L603 249 603 249C603 247.343146 604.343146 246 606 246z"/>
    <path stroke="#263F6F" stroke-linecap="round" stroke-width="6" d="M633,190 L681,190" opacity=".3"/>
    <path stroke="#DFE4EE" stroke-linecap="round" stroke-width="6" d="M651,201 L682,201"/>
    <path stroke="#DFE4EE" d="M563,159.5 C554.991871,159.5 548.5,165.991871 548.5,174 L548.5,263 C548.5,271.008129 554.991871,277.5 563,277.5 L681,277.5 C689.008129,277.5 695.5,271.008129 695.5,263 L695.5,174 C695.5,165.991871 689.008129,159.5 681,159.5 L563,159.5 Z" opacity=".5"/>
    <path fill="#4F89DC" d="M721 246L753 246 753 246C754.656854 246 756 247.343146 756 249L756 262 756 262C756 263.656854 754.656854 265 753 265L721 265 721 265C719.343146 265 718 263.656854 718 262L718 249 718 249C718 247.343146 719.343146 246 721 246zM804 246L836 246 836 246C837.656854 246 839 247.343146 839 249L839 262 839 262C839 263.656854 837.656854 265 836 265L804 265 804 265C802.343146 265 801 263.656854 801 262L801 249 801 249C801 247.343146 802.343146 246 804 246zM762 246L794 246 794 246C795.656854 246 797 247.343146 797 249L797 262 797 262C797 263.656854 795.656854 265 794 265L762 265 762 265C760.343146 265 759 263.656854 759 262L759 249 759 249C759 247.343146 760.343146 246 762 246z"/>
    <path stroke="#DFE4EE" stroke-linecap="round" stroke-width="6" d="M789 190L837 190M807 201L838 201"/>
    <path stroke="#DFE4EE" d="M719,159.5 C710.991871,159.5 704.5,165.991871 704.5,174 L704.5,263 C704.5,271.008129 710.991871,277.5 719,277.5 L837,277.5 C845.008129,277.5 851.5,271.008129 851.5,263 L851.5,174 C851.5,165.991871 845.008129,159.5 837,159.5 L719,159.5 Z" opacity=".5"/>
    <path fill="#DFE4EE" d="M721 246L753 246 753 246C754.656854 246 756 247.343146 756 249L756 262 756 262C756 263.656854 754.656854 265 753 265L721 265 721 265C719.343146 265 718 263.656854 718 262L718 249 718 249C718 247.343146 719.343146 246 721 246zM804 246L836 246 836 246C837.656854 246 839 247.343146 839 249L839 262 839 262C839 263.656854 837.656854 265 836 265L804 265 804 265C802.343146 265 801 263.656854 801 262L801 249 801 249C801 247.343146 802.343146 246 804 246zM762 246L794 246 794 246C795.656854 246 797 247.343146 797 249L797 262 797 262C797 263.656854 795.656854 265 794 265L762 265 762 265C760.343146 265 759 263.656854 759 262L759 249 759 249C759 247.343146 760.343146 246 762 246z"/>
    <path stroke="#263F6F" stroke-linecap="round" stroke-width="6" d="M789,190 L837,190" opacity=".2"/>
    <path stroke="#DFE4EE" stroke-linecap="round" stroke-width="6" d="M807,201 L838,201" opacity=".4"/>
    <path stroke="#DFE4EE" d="M719,159.5 C710.991871,159.5 704.5,165.991871 704.5,174 L704.5,263 C704.5,271.008129 710.991871,277.5 719,277.5 L837,277.5 C845.008129,277.5 851.5,271.008129 851.5,263 L851.5,174 C851.5,165.991871 845.008129,159.5 837,159.5 L719,159.5 Z" opacity=".5"/>
    <g transform="translate(249 178)">
      <circle cx="16.446" cy="16.446" r="16.446" fill="#F5A623"/>
      <path fill="#FFF" fill-rule="nonzero" d="M20.4455952,15.5322583 C21.3922202,15.0504353 21.9845023,14.2018719 21.846149,12.7882092 C21.6598319,10.8562934 19.9902945,10.2084769 17.8827314,10.0239889 L17.8823249,7.34426414 L16.2493701,7.34426414 L16.2489128,9.95351661 C15.8192707,9.95351661 15.3812959,9.96195092 14.9453027,9.9706901 L14.9449471,7.3446198 L13.3134656,7.34446737 L13.3131608,10.0235316 C12.95958,10.0307465 12.6123503,10.0376057 12.273301,10.0376057 L12.273301,10.0296795 L10.0209319,10.0287649 L10.0212367,11.7706038 C10.0212367,11.7706038 11.2271408,11.7479429 11.2072744,11.7699433 C11.8684538,11.7704006 12.0843418,12.1540096 12.1464306,12.4851327 L12.1469386,15.5378982 L12.1469386,19.826037 C12.117825,20.0338463 11.9953242,20.3658841 11.5330118,20.3664938 C11.5540468,20.3849883 10.345145,20.3662905 10.345145,20.3662905 L10.0212367,22.3140588 L12.1459225,22.3140588 C12.5418273,22.3145161 12.930822,22.320664 13.3124495,22.3237126 L13.3138721,25.0337704 L14.9449471,25.0342277 L14.9444898,22.3525722 C15.3932361,22.3617178 15.826384,22.3656809 16.2494717,22.365122 L16.2490144,25.0342277 L17.8819185,25.0342277 L17.882833,22.3286919 C20.6276443,22.1711835 22.5492459,21.4803317 22.7881505,18.9049181 C22.9807171,16.831448 22.0039622,15.9059087 20.4455952,15.5322583 Z M14.9843241,11.8881762 C15.9052906,11.8881762 18.8017163,11.5951599 18.8021228,13.5173204 C18.8017163,15.360117 15.9062051,15.1448387 14.9843241,15.1448387 L14.9843241,11.8881762 L14.9843241,11.8881762 Z M14.9836128,20.3797042 L14.9843241,16.7889208 C16.0908456,16.7886159 19.5614653,16.4708047 19.5619226,18.5834995 C19.5623799,20.6095647 16.0908456,20.3788912 14.9836128,20.3797042 Z" transform="rotate(10 16.417 16.19)"/>
    </g>
    <g transform="translate(564 178)">
      <circle cx="16.446" cy="16.446" r="16.446" fill="#35980A"/>
      <path fill="#FFF" fill-rule="nonzero" d="M21.7341394,18.0763782 C21.6330496,17.7626051 21.5104,17.4895209 21.3663542,17.257613 C21.2223902,17.0254802 21.0162014,16.7990475 20.7473787,16.577565 C20.4788833,16.356195 20.2373478,16.177914 20.0231815,16.0423844 C19.8091379,15.9067423 19.5151143,15.7550872 19.1412744,15.5872315 C18.7677618,15.4194134 18.4718154,15.2945341 18.2539672,15.2124064 C18.0358325,15.1303911 17.72029,15.0179623 17.3075442,14.875195 C16.9416001,14.7467906 16.6691363,14.6486123 16.4898666,14.5808475 C16.3108015,14.5130077 16.0753208,14.4167045 15.7833018,14.2917127 C15.4914056,14.1669085 15.2733527,14.0562048 15.1292661,13.9599015 C14.9852203,13.8635983 14.8314787,13.7458443 14.6679186,13.6066771 C14.5043586,13.4675099 14.3895229,13.3193799 14.3232888,13.1623621 C14.2572184,13.0053067 14.2240809,12.8339635 14.2240809,12.6483697 C14.2240809,12.1631033 14.4575979,11.7668274 14.9247955,11.459992 C15.392034,11.1531566 15.9955863,10.9996639 16.7353704,10.9996639 C17.062245,10.9996639 17.3955018,11.0406528 17.733995,11.1228181 C18.0724883,11.2049834 18.3625845,11.2975365 18.6039972,11.401115 C18.8456144,11.5046935 19.0732812,11.6189224 19.2874885,11.7437641 C19.5016548,11.8687183 19.6534326,11.9632215 19.7430675,12.0274612 C19.8326205,12.0917384 19.8893634,12.1345273 19.9124778,12.155978 C20.0138539,12.2273429 20.1187075,12.2522813 20.2277339,12.2309431 C20.3444924,12.2238178 20.4341272,12.1666284 20.4965566,12.0596748 L21.4428159,10.4964719 C21.5362145,10.3537796 21.5169047,10.2181375 21.3844366,10.0895832 C21.337635,10.0467567 21.2794603,9.99684253 21.2088898,9.9396906 C21.1390147,9.88253867 20.9871141,9.77907267 20.7533107,9.6291051 C20.5197528,9.47925003 20.2725309,9.34540801 20.0118493,9.22761652 C19.7508814,9.10993754 19.4120609,8.9903085 18.9954286,8.8690294 C18.5790418,8.74756279 18.1487045,8.66554752 17.704744,8.62275857 L17.704744,6.73828236 C17.704744,6.63841648 17.6697656,6.55628871 17.5998905,6.49201153 C17.5298518,6.42788437 17.4402578,6.39567078 17.3310678,6.39567078 L15.7541326,6.39567078 C15.6529201,6.39567078 15.5653308,6.42953442 15.4913647,6.49737422 C15.4173985,6.56521401 15.3804155,6.64546672 15.3804155,6.73828236 L15.3804155,8.66551002 C14.1578468,8.87956726 13.1650315,9.35782093 12.4019284,10.1001585 C11.6389071,10.8425336 11.2572533,11.7060753 11.2572533,12.6911961 C11.2572533,12.9838185 11.2904726,13.2621904 11.3566658,13.5261619 C11.4227771,13.7903583 11.5045981,14.0277038 11.601965,14.2382359 C11.6992501,14.4489181 11.8375275,14.65585 12.0165926,14.8593319 C12.1956578,15.0627388 12.3650681,15.2376447 12.5246598,15.3838997 C12.6843334,15.5301171 12.8926495,15.6818472 13.1495264,15.8388275 C13.4065669,15.9959579 13.6265425,16.1227496 13.809576,16.2190529 C13.9926504,16.3150561 14.2359449,16.4260599 14.5395416,16.5506766 C14.84322,16.6756683 15.0827508,16.770134 15.2579704,16.8345237 C15.43319,16.8986884 15.6725981,16.9880164 15.9763992,17.1019827 C16.3968362,17.2518753 16.7083694,17.3679042 16.9107945,17.450032 C17.1133831,17.5321598 17.37026,17.6463512 17.681916,17.7926811 C17.9932856,17.938861 18.2209524,18.0727406 18.3651209,18.1941322 C18.5091667,18.3155238 18.6395484,18.4654163 18.7564296,18.6438099 C18.8733108,18.8222034 18.9318537,19.0113598 18.9318537,19.2113166 C18.9318537,19.7752231 18.6924047,20.2105378 18.213384,20.5172232 C17.7345678,20.8242461 17.1795763,20.9777013 16.5489413,20.9777013 C16.2610952,20.9777013 15.9727582,20.9493128 15.6847485,20.8922359 C14.6724597,20.7064171 13.726405,20.260302 12.8465025,19.5537031 L12.8231426,19.5322899 C12.7530221,19.4539873 12.6595416,19.4218112 12.542865,19.4361742 C12.4182517,19.4504246 12.3286577,19.4932886 12.2742059,19.5648035 L11.0711107,21.0101024 C10.9542704,21.1528322 10.9621661,21.2991247 11.0945115,21.4490172 C11.1334991,21.4918812 11.2016151,21.5562708 11.2989002,21.6417737 C11.3964308,21.7276141 11.5775005,21.8612312 11.8421095,22.0435998 C12.1068002,22.225706 12.3949327,22.3967868 12.706466,22.5575922 C13.0179583,22.7181351 13.4130717,22.876878 13.8920515,23.0339708 C14.3710313,23.1908011 14.8673163,23.3013923 15.3812746,23.3655945 L15.3812746,25.2392704 C15.3812746,25.3321985 15.4182986,25.4124137 15.4922238,25.480291 C15.5662308,25.5482058 15.6537792,25.581957 15.7549918,25.581957 L17.3319269,25.581957 C17.4411169,25.581957 17.5307109,25.5498934 17.6007087,25.4857287 C17.6707065,25.421564 17.7055622,25.3394363 17.7055622,25.2393079 L17.7055622,23.365632 C18.9438814,23.1800757 19.95032,22.6928968 20.7250007,21.9041326 C21.4997633,21.1153684 21.8872673,20.1749491 21.8872673,19.0829497 C21.8868582,18.7261252 21.8363337,18.3906388 21.7341394,18.0763782 Z"/>
    </g>
    <g transform="translate(718 178)">
      <circle cx="16.446" cy="16.446" r="16.446" fill="#F58823"/>
      <path fill="#FFF" fill-rule="nonzero" d="M21.6767556,20.3900076 C21.4178832,20.1311352 21.0295746,20.1958533 20.7707022,20.4547256 L20.7059841,20.5194437 C20.1235213,21.1666247 18.9585955,22.3962686 17.0170526,22.3962686 C15.7226907,22.3962686 14.5577649,21.8785238 13.6517116,21.0371885 C13.4575573,20.8430342 13.5869935,20.4547256 13.9105839,20.4547256 L15.7226907,20.4547256 C16.1109992,20.4547256 16.3698716,20.1958533 16.3698716,19.8075447 L16.3698716,18.5131827 C16.3698716,18.1248742 16.1109992,17.8660018 15.7226907,17.8660018 L12.2279134,17.8660018 C12.0984772,17.8660018 11.9043229,17.7365656 11.9043229,17.6071294 C11.8396048,17.2835389 11.8396048,16.9599484 11.8396048,16.5716398 C11.8396048,16.1833312 11.8396048,15.8597408 11.9043229,15.5361503 C11.9043229,15.4067141 12.0984772,15.2772779 12.2279134,15.2772779 L15.7226907,15.2772779 C16.1109992,15.2772779 16.3698716,15.0184055 16.3698716,14.6300969 L16.3698716,13.335735 C16.3698716,12.9474264 16.1109992,12.688554 15.7226907,12.688554 L13.9105839,12.688554 C13.6517116,12.688554 13.4575573,12.3002454 13.6517116,12.1060911 C14.5577649,11.2647559 15.7226907,10.7470111 17.0170526,10.7470111 C18.9585955,10.7470111 20.1235213,12.041373 20.7059841,12.6238359 L20.7707022,12.688554 C21.0295746,12.9474264 21.4178832,12.9474264 21.6767556,12.7532721 L22.6475271,11.9119368 C22.7769633,11.7825006 22.8416813,11.6530644 22.8416813,11.4589101 C22.8416813,11.2647559 22.7769633,11.1353197 22.6475271,11.0058835 C21.935628,10.2939844 20.1235213,8.22300529 17.0170526,8.22300529 C14.1047382,8.22300529 11.5160143,9.97039391 10.2216524,12.5591178 C10.1569343,12.688554 10.0274981,12.7532721 9.96278002,12.7532721 L7.956519,12.7532721 C7.56821042,12.7532721 7.30933803,13.0121445 7.30933803,13.4004531 L7.30933803,14.694815 C7.30933803,15.0831236 7.56821042,15.341996 7.956519,15.341996 L8.99200856,15.341996 C9.18616285,15.341996 9.31559904,15.5361503 9.31559904,15.7303046 C9.25088095,16.053895 9.25088095,16.3774855 9.25088095,16.6363579 C9.25088095,16.8952303 9.25088095,17.2835389 9.31559904,17.5424113 C9.31559904,17.7365656 9.18616285,17.9307199 8.99200856,17.9307199 L7.956519,17.9307199 C7.56821042,17.9307199 7.30933803,18.1895922 7.30933803,18.5779008 L7.30933803,19.8722628 C7.30933803,20.2605714 7.56821042,20.5194437 7.956519,20.5194437 L9.96278002,20.5194437 C10.0922162,20.5194437 10.2216524,20.5841618 10.2216524,20.713598 C11.5160143,23.3023219 14.1047382,25.0497105 17.0170526,25.0497105 C20.1235213,25.0497105 21.935628,23.0434495 22.6475271,22.2668324 C22.7769633,22.1373962 22.8416813,22.00796 22.8416813,21.8138057 C22.8416813,21.6196514 22.7769633,21.4254971 22.6475271,21.360779 L21.6767556,20.3900076 Z"/>
    </g>
    <g fill="#4A4A4A" transform="translate(406 176)">
      <path d="M10.9584489,26.9425922 L0.117025547,20.4205958 L10.9562409,35.9834287 L21.8064964,20.4205958 L10.9562409,26.9425922 L10.9584489,26.9425922 Z M11.1218431,0 L0.280419708,18.3245611 L11.1218431,24.8533044 L21.9632664,18.32681 L11.1240511,0 L11.1218431,0 Z"/>
    </g>
  </g>
</svg>
