<svg xmlns="http://www.w3.org/2000/svg" xmlns:xlink="http://www.w3.org/1999/xlink" width="100%" viewBox="0 0 510 498">
  <defs>
    <path id="product_mpbile-b" d="M29.3413987,0.969527106 L205.259725,0.969527106 C220.980066,0.969527106 233.72392,13.686593 233.72392,29.3706349 L233.72392,455.123164 C233.72392,470.808663 220.977455,483.524272 205.259725,483.524272 L29.3413987,483.524272 C13.6210582,483.524272 0.877204248,470.807206 0.877204248,455.123164 L0.877204248,29.3706349 C0.877204248,13.6851362 13.6236684,0.969527106 29.3413987,0.969527106 Z"/>
    <filter id="product_mpbile-a" width="111.6%" height="105.6%" x="-5.8%" y="-1.6%" filterUnits="objectBoundingBox">
      <feOffset dy="6" in="SourceAlpha" result="shadowOffsetOuter1"/>
      <feGaussianBlur in="shadowOffsetOuter1" result="shadowBlurOuter1" stdDeviation="3.5"/>
      <feColorMatrix in="shadowBlurOuter1" values="0 0 0 0 0   0 0 0 0 0.0904195312   0 0 0 0 0.423203656  0 0 0 0.12 0"/>
    </filter>
    <filter id="product_mpbile-c" width="107.7%" height="103.7%" x="-3.9%" y="-.6%" filterUnits="objectBoundingBox">
      <feGaussianBlur in="SourceAlpha" result="shadowBlurInner1" stdDeviation="1.5"/>
      <feOffset dy="1" in="shadowBlurInner1" result="shadowOffsetInner1"/>
      <feComposite in="shadowOffsetInner1" in2="SourceAlpha" k2="-1" k3="1" operator="arithmetic" result="shadowInnerInner1"/>
      <feColorMatrix in="shadowInnerInner1" values="0 0 0 0 0   0 0 0 0 0   0 0 0 0 0  0 0 0 0.03 0"/>
    </filter>
    <linearGradient id="product_mpbile-d" x1="50%" x2="50%" y1="0%" y2="100%">
      <stop offset="0%" stop-color="#EFF2F7"/>
      <stop offset="100%" stop-color="#FFF"/>
    </linearGradient>
    <linearGradient id="product_mpbile-e" x1="50%" x2="50%" y1="0%" y2="100%">
      <stop offset="0%" stop-color="#E5EDFC"/>
      <stop offset="100%" stop-color="#FFF"/>
    </linearGradient>
    <linearGradient id="product_mpbile-f" x1="50%" x2="50%" y1="0%" y2="100%">
      <stop offset="0%" stop-color="#F3F4F6"/>
      <stop offset="100%" stop-color="#FFF"/>
    </linearGradient>
    <path id="product_mpbile-h" d="M28.4641944,0 L204.382521,0 C220.102861,0 232.846715,12.7170659 232.846715,28.4011078 L232.846715,454.153637 C232.846715,469.839135 220.100251,482.554745 204.382521,482.554745 L28.4641944,482.554745 C12.7438539,482.554745 0,469.837679 0,454.153637 L0,28.4011078 C0,12.7156091 12.7464642,0 28.4641944,0 Z"/>
    <filter id="product_mpbile-g" width="111.6%" height="105.6%" x="-5.8%" y="-1.6%" filterUnits="objectBoundingBox">
      <feOffset dy="6" in="SourceAlpha" result="shadowOffsetOuter1"/>
      <feGaussianBlur in="shadowOffsetOuter1" result="shadowBlurOuter1" stdDeviation="3.5"/>
      <feColorMatrix in="shadowBlurOuter1" values="0 0 0 0 0   0 0 0 0 0.0904195312   0 0 0 0 0.423203656  0 0 0 0.12 0"/>
    </filter>
    <filter id="product_mpbile-i" width="107.7%" height="103.7%" x="-3.9%" y="-.6%" filterUnits="objectBoundingBox">
      <feGaussianBlur in="SourceAlpha" result="shadowBlurInner1" stdDeviation="1.5"/>
      <feOffset dy="1" in="shadowBlurInner1" result="shadowOffsetInner1"/>
      <feComposite in="shadowOffsetInner1" in2="SourceAlpha" k2="-1" k3="1" operator="arithmetic" result="shadowInnerInner1"/>
      <feColorMatrix in="shadowInnerInner1" values="0 0 0 0 0   0 0 0 0 0   0 0 0 0 0  0 0 0 0.03 0"/>
    </filter>
  </defs>
  <g fill="none" fill-rule="evenodd" transform="translate(7 1)">
    <g transform="translate(262)">
      <use fill="#000" filter="url(#product_mpbile-a)" xlink:href="#product_mpbile-b"/>
      <use fill="#FFF" xlink:href="#product_mpbile-b"/>
      <use fill="#000" filter="url(#product_mpbile-c)" xlink:href="#product_mpbile-b"/>
      <path fill="#DFE4EE" d="M24.7531167,131.079016 L209.045087,131.079016 L209.045087,131.079016 C210.701942,131.079016 212.045087,132.422162 212.045087,134.079016 L212.045087,162.079016 L212.045087,162.079016 C212.045087,163.73587 210.701942,165.079016 209.045087,165.079016 L24.7531167,165.079016 L24.7531167,165.079016 C23.0962624,165.079016 21.7531167,163.73587 21.7531167,162.079016 L21.7531167,134.079016 L21.7531167,134.079016 C21.7531167,132.422162 23.0962624,131.079016 24.7531167,131.079016 Z" opacity=".3"/>
      <circle cx="117.301" cy="458.634" r="16.861" fill="url(#product_mpbile-d)" style="mix-blend-mode:multiply"/>
      <rect width="44.964" height="4.015" x="94.819" y="24.254" fill="url(#product_mpbile-e)" rx="2.007" style="mix-blend-mode:multiply"/>
      <path fill="url(#product_mpbile-f)" d="M75.1472772,28.2687972 C76.255878,28.2687972 77.1545765,27.3700987 77.1545765,26.2614979 C77.1545765,25.1528971 76.255878,24.2541986 75.1472772,24.2541986 C74.0386765,24.2541986 73.139978,25.1528971 73.139978,26.2614979 C73.139978,27.3700987 74.0386765,28.2687972 75.1472772,28.2687972 Z" style="mix-blend-mode:multiply"/>
      <path fill="#263F6F" d="M24.7531167,379.14471 L209.045087,379.14471 L209.045087,379.14471 C210.701942,379.14471 212.045087,380.487855 212.045087,382.14471 L212.045087,408.261498 L212.045087,408.261498 C212.045087,409.918352 210.701942,411.261498 209.045087,411.261498 L24.7531167,411.261498 L24.7531167,411.261498 C23.0962624,411.261498 21.7531167,409.918352 21.7531167,408.261498 L21.7531167,382.14471 L21.7531167,382.14471 C21.7531167,380.487855 23.0962624,379.14471 24.7531167,379.14471 Z" opacity=".24"/>
      <circle cx="46.918" cy="395.711" r="8.15" fill="#FFF" opacity=".4"/>
      <circle cx="93.152" cy="395.711" r="8.15" fill="#FFF"/>
      <circle cx="139.152" cy="395.711" r="8.15" fill="#FFF" opacity=".4"/>
      <circle cx="186.152" cy="395.711" r="8.15" fill="#FFF" opacity=".4"/>
      <path fill="#4F77FC" d="M151.877204,137.925731 L201.877204,137.925731 L201.877204,137.925731 C203.534058,137.925731 204.877204,139.268877 204.877204,140.925731 L204.877204,154.925731 L204.877204,154.925731 C204.877204,156.582586 203.534058,157.925731 201.877204,157.925731 L151.877204,157.925731 L151.877204,157.925731 C150.22035,157.925731 148.877204,156.582586 148.877204,154.925731 L148.877204,140.925731 L148.877204,140.925731 C148.877204,139.268877 150.22035,137.925731 151.877204,137.925731 Z"/>
      <path stroke="#263F6F" stroke-linecap="round" stroke-width="5" d="M33.410051,143.469527 L57.7100502,143.469527" opacity=".4"/>
      <path stroke="#DFE4EE" stroke-linecap="round" stroke-width="5" d="M33.410051,153.469527 L135.71005,153.469527"/>
      <path stroke="#DFE4EE" stroke-linecap="round" stroke-width="5" d="M24.8772042,123.469527 L47.1772035,123.469527" opacity=".6"/>
      <path fill="#DFE4EE" d="M24.7531167,186.079016 L209.045087,186.079016 L209.045087,186.079016 C210.701942,186.079016 212.045087,187.422162 212.045087,189.079016 L212.045087,217.079016 L212.045087,217.079016 C212.045087,218.73587 210.701942,220.079016 209.045087,220.079016 L24.7531167,220.079016 L24.7531167,220.079016 C23.0962624,220.079016 21.7531167,218.73587 21.7531167,217.079016 L21.7531167,189.079016 L21.7531167,189.079016 C21.7531167,187.422162 23.0962624,186.079016 24.7531167,186.079016 Z" opacity=".3"/>
      <path fill="#F5A623" d="M151.877204,192.925731 L201.877204,192.925731 L201.877204,192.925731 C203.534058,192.925731 204.877204,194.268877 204.877204,195.925731 L204.877204,209.925731 L204.877204,209.925731 C204.877204,211.582586 203.534058,212.925731 201.877204,212.925731 L151.877204,212.925731 L151.877204,212.925731 C150.22035,212.925731 148.877204,211.582586 148.877204,209.925731 L148.877204,195.925731 L148.877204,195.925731 C148.877204,194.268877 150.22035,192.925731 151.877204,192.925731 Z"/>
      <path stroke="#263F6F" stroke-linecap="round" stroke-width="5" d="M33.410051,198.469527 L57.7100502,198.469527" opacity=".4"/>
      <path stroke="#DFE4EE" stroke-linecap="round" stroke-width="5" d="M33.410051,208.469527 L135.71005,208.469527"/>
      <path stroke="#DFE4EE" stroke-linecap="round" stroke-width="5" d="M24.8772042,178.469527 L47.1772035,178.469527" opacity=".6"/>
      <path fill="#DFE4EE" d="M24.7531167,241.079016 L209.045087,241.079016 L209.045087,241.079016 C210.701942,241.079016 212.045087,242.422162 212.045087,244.079016 L212.045087,272.079016 L212.045087,272.079016 C212.045087,273.73587 210.701942,275.079016 209.045087,275.079016 L24.7531167,275.079016 L24.7531167,275.079016 C23.0962624,275.079016 21.7531167,273.73587 21.7531167,272.079016 L21.7531167,244.079016 L21.7531167,244.079016 C21.7531167,242.422162 23.0962624,241.079016 24.7531167,241.079016 Z" opacity=".3"/>
      <path fill="#4F77FC" d="M151.877204,247.925731 L201.877204,247.925731 L201.877204,247.925731 C203.534058,247.925731 204.877204,249.268877 204.877204,250.925731 L204.877204,264.925731 L204.877204,264.925731 C204.877204,266.582586 203.534058,267.925731 201.877204,267.925731 L151.877204,267.925731 L151.877204,267.925731 C150.22035,267.925731 148.877204,266.582586 148.877204,264.925731 L148.877204,250.925731 L148.877204,250.925731 C148.877204,249.268877 150.22035,247.925731 151.877204,247.925731 Z"/>
      <path stroke="#263F6F" stroke-linecap="round" stroke-width="5" d="M33.410051,253.469527 L57.7100502,253.469527" opacity=".4"/>
      <path stroke="#DFE4EE" stroke-linecap="round" stroke-width="5" d="M33.410051,263.469527 L135.71005,263.469527"/>
      <path stroke="#DFE4EE" stroke-linecap="round" stroke-width="5" d="M24.8772042,233.469527 L47.1772035,233.469527" opacity=".6"/>
      <path fill="#DFE4EE" d="M24.7531167,296.079016 L209.045087,296.079016 L209.045087,296.079016 C210.701942,296.079016 212.045087,297.422162 212.045087,299.079016 L212.045087,327.079016 L212.045087,327.079016 C212.045087,328.73587 210.701942,330.079016 209.045087,330.079016 L24.7531167,330.079016 L24.7531167,330.079016 C23.0962624,330.079016 21.7531167,328.73587 21.7531167,327.079016 L21.7531167,299.079016 L21.7531167,299.079016 C21.7531167,297.422162 23.0962624,296.079016 24.7531167,296.079016 Z" opacity=".3"/>
      <path fill="#4F77FC" d="M151.877204,302.925731 L201.877204,302.925731 L201.877204,302.925731 C203.534058,302.925731 204.877204,304.268877 204.877204,305.925731 L204.877204,319.925731 L204.877204,319.925731 C204.877204,321.582586 203.534058,322.925731 201.877204,322.925731 L151.877204,322.925731 L151.877204,322.925731 C150.22035,322.925731 148.877204,321.582586 148.877204,319.925731 L148.877204,305.925731 L148.877204,305.925731 C148.877204,304.268877 150.22035,302.925731 151.877204,302.925731 Z"/>
      <path stroke="#263F6F" stroke-linecap="round" stroke-width="5" d="M33.410051,308.469527 L57.7100502,308.469527" opacity=".4"/>
      <path stroke="#DFE4EE" stroke-linecap="round" stroke-width="5" d="M33.410051,318.469527 L135.71005,318.469527"/>
      <path stroke="#DFE4EE" stroke-linecap="round" stroke-width="5" d="M24.8772042,288.469527 L47.1772035,288.469527" opacity=".6"/>
      <path fill="#263F6F" d="M24.7531167,76.4439797 L209.045087,76.4439797 L209.045087,76.4439797 C210.701942,76.4439797 212.045087,77.7871254 212.045087,79.4439797 L212.045087,107.765148 L212.045087,107.765148 C212.045087,109.422002 210.701942,110.765148 209.045087,110.765148 L24.7531167,110.765148 L24.7531167,110.765148 C23.0962624,110.765148 21.7531167,109.422002 21.7531167,107.765148 L21.7531167,79.4439797 L21.7531167,79.4439797 C21.7531167,77.7871254 23.0962624,76.4439797 24.7531167,76.4439797 Z" opacity=".8"/>
      <rect width="48.175" height="9.635" x="93.213" y="88.488" fill="#FFF" opacity=".4" rx="4.818"/>
      <path stroke="#FFF" stroke-linecap="round" stroke-width="3" d="M160.517098 148.469445L193.443753 148.469609M160.517098 202.469445L193.443753 202.469609M160.517098 258.469445L193.443753 258.469609M160.517098 313.469445L193.443753 313.469609" opacity=".3"/>
    </g>
    <use fill="#000" filter="url(#product_mpbile-g)" xlink:href="#product_mpbile-h"/>
    <use fill="#FFF" xlink:href="#product_mpbile-h"/>
    <use fill="#000" filter="url(#product_mpbile-i)" xlink:href="#product_mpbile-h"/>
    <circle cx="116.423" cy="457.664" r="16.861" fill="url(#product_mpbile-d)" style="mix-blend-mode:multiply"/>
    <rect width="44.964" height="4.015" x="93.942" y="23.285" fill="url(#product_mpbile-e)" rx="2.007" style="mix-blend-mode:multiply"/>
    <path fill="url(#product_mpbile-f)" d="M74.270073,27.2992701 C75.3786738,27.2992701 76.2773723,26.4005716 76.2773723,25.2919708 C76.2773723,24.18337 75.3786738,23.2846715 74.270073,23.2846715 C73.1614722,23.2846715 72.2627737,24.18337 72.2627737,25.2919708 C72.2627737,26.4005716 73.1614722,27.2992701 74.270073,27.2992701 Z" style="mix-blend-mode:multiply"/>
    <path stroke="#DFE4EE" d="M24,75.5 C22.6192881,75.5 21.5,76.6192881 21.5,78 L21.5,406.321168 C21.5,407.70188 22.6192881,408.821168 24,408.821168 L208.291971,408.821168 C209.672683,408.821168 210.791971,407.70188 210.791971,406.321168 L210.791971,78 C210.791971,76.6192881 209.672683,75.5 208.291971,75.5 L24,75.5 Z" opacity=".8"/>
    <g fill="#263F6F" opacity=".8" transform="translate(93.902 110)">
      <path d="M37.9976949,13.1100218 L26.558507,1.49896801 C24.5894664,-0.499656003 21.401496,-0.499656003 19.4324555,1.49896801 L8.08703138,13.1100218 C7.43068453,13.7762298 7.43068453,14.8231281 8.08703138,15.4893361 L11.5562933,19.0107212 L13.8066254,21.1996904 C14.4629722,21.8658984 15.4943744,21.8658984 16.2444851,21.1996904 L20.838913,16.9169247 C22.0578429,15.7748538 24.0268834,15.7748538 25.3395771,16.9169247 L29.9340051,21.1996904 C30.5903519,21.8658984 31.6217541,21.8658984 32.3718648,21.1996904 L34.7159607,19.0107212 L38.1852226,15.4893361 C38.6540418,14.8231281 38.6540418,13.7762298 37.9976949,13.1100218 Z" opacity=".5"/>
      <path d="M1.52894899,26.6849663 L19.477056,44.6312476 C21.4504081,46.6043989 24.6453591,46.6043989 26.6187111,44.6312476 L44.5668181,26.6849663 C47.6678,23.5842998 45.5065096,22.644704 43.2512501,20.4836334 L40.4321757,17.852765 C39.7743917,17.1950478 38.740731,17.1950478 37.9889779,17.852765 L33.3844897,22.0809464 C32.1628908,23.2084615 30.1895387,23.2084615 28.8739707,22.0809464 L24.2694825,17.852765 C23.6116984,17.1950478 22.5780378,17.1950478 21.8262847,17.852765 L17.2217965,22.0809464 C16.0001976,23.2084615 14.0268455,23.2084615 12.7112774,22.0809464 L8.10678925,17.852765 C7.44900523,17.1950478 6.41534462,17.1950478 5.66359144,17.852765 L3.12642448,20.2017547 C0.777195818,22.4567848 -1.66600199,23.4903403 1.52894899,26.6849663 Z"/>
    </g>
    <path stroke="#DFE4EE" stroke-linecap="round" stroke-width="6" d="M80 188L153.360001 188M70 245L163.360001 245"/>
    <path stroke="#263F6F" stroke-linecap="round" stroke-width="6" d="M45,257 L188.360001,257" opacity=".3"/>
    <path fill="#DFE4EE" d="M39 275L193 275 193 275C194.656854 275 196 276.343146 196 278L196 293 196 293C196 294.656854 194.656854 296 193 296L39 296 39 296C37.3431458 296 36 294.656854 36 293L36 278 36 278C36 276.343146 37.3431458 275 39 275zM39 306L193 306 193 306C194.656854 306 196 307.343146 196 309L196 324 196 324C196 325.656854 194.656854 327 193 327L39 327 39 327C37.3431458 327 36 325.656854 36 324L36 309 36 309C36 307.343146 37.3431458 306 39 306zM39 337L193 337 193 337C194.656854 337 196 338.343146 196 340L196 355 196 355C196 356.656854 194.656854 358 193 358L39 358 39 358C37.3431458 358 36 356.656854 36 355L36 340 36 340C36 338.343146 37.3431458 337 39 337z"/>
    <path stroke="#DFE4EE" d="M39,201.5 C37.6192881,201.5 36.5,202.619288 36.5,204 L36.5,219 C36.5,220.380712 37.6192881,221.5 39,221.5 L193,221.5 C194.380712,221.5 195.5,220.380712 195.5,219 L195.5,204 C195.5,202.619288 194.380712,201.5 193,201.5 L39,201.5 Z"/>
    <path fill="#4F77FC" d="M39,368 L106,368 L106,368 C107.656854,368 109,369.343146 109,371 L109,390 L109,390 C109,391.656854 107.656854,393 106,393 L39,393 L39,393 C37.3431458,393 36,391.656854 36,390 L36,371 L36,371 C36,369.343146 37.3431458,368 39,368 Z"/>
    <path stroke="#FFF" stroke-linecap="round" stroke-width="3" d="M50,380 L93.9300003,380.000134" opacity=".3"/>
    <path fill="#263F6F" d="M126,368 L193,368 L193,368 C194.656854,368 196,369.343146 196,371 L196,390 L196,390 C196,391.656854 194.656854,393 193,393 L126,393 L126,393 C124.343146,393 123,391.656854 123,390 L123,371 L123,371 C123,369.343146 124.343146,368 126,368 Z" opacity=".4"/>
    <path stroke="#FFF" stroke-linecap="round" stroke-width="3" d="M137,380 L180.93,380.000134" opacity=".3"/>
  </g>
</svg>