<svg xmlns="http://www.w3.org/2000/svg" xmlns:xlink="http://www.w3.org/1999/xlink" width="100%" viewBox="0 0 1100 620">
  <defs>
    <path id="product_2-b" d="M27.953749,0 L792.977064,0 C808.415493,0 820.930813,12.5393391 820.930813,28.0041893 L820.930813,534.828133 C820.930813,550.29442 808.41293,562.832323 792.977064,562.832323 L27.953749,562.832323 C12.5153197,562.832323 0,550.292984 0,534.828133 L0,28.0041893 C0,12.5379026 12.5178832,0 27.953749,0 Z"/>
    <filter id="product_2-a" width="103.3%" height="104.8%" x="-1.6%" y="-1.3%" filterUnits="objectBoundingBox">
      <feOffset dy="6" in="SourceAlpha" result="shadowOffsetOuter1"/>
      <feGaussianBlur in="shadowOffsetOuter1" result="shadowBlurOuter1" stdDeviation="3.5"/>
      <feColorMatrix in="shadowBlurOuter1" values="0 0 0 0 0   0 0 0 0 0   0 0 0 0 0  0 0 0 0.12 0"/>
    </filter>
    <filter id="product_2-c" width="102.2%" height="103.2%" x="-1.1%" y="-.5%" filterUnits="objectBoundingBox">
      <feGaussianBlur in="SourceAlpha" result="shadowBlurInner1" stdDeviation="1.5"/>
      <feOffset dy="1" in="shadowBlurInner1" result="shadowOffsetInner1"/>
      <feComposite in="shadowOffsetInner1" in2="SourceAlpha" k2="-1" k3="1" operator="arithmetic" result="shadowInnerInner1"/>
      <feColorMatrix in="shadowInnerInner1" values="0 0 0 0 0   0 0 0 0 0   0 0 0 0 0  0 0 0 0.03 0"/>
    </filter>
    <linearGradient id="product_2-d" x1="50%" x2="50%" y1="0%" y2="100%">
      <stop offset="0%" stop-color="#F3F4F6"/>
      <stop offset="100%" stop-color="#FFF"/>
    </linearGradient>
  </defs>
  <g fill="none" fill-rule="evenodd" transform="translate(54 29)">
    <g>
      <use fill="#000" filter="url(#product_2-a)" xlink:href="#product_2-b"/>
      <use fill="#FFF" xlink:href="#product_2-b"/>
      <use fill="#000" filter="url(#product_2-c)" xlink:href="#product_2-b"/>
      <path fill="url(#product_2-d)" d="M626.017576,113.62658 C627.098311,113.62658 627.97442,112.748891 627.97442,111.666206 C627.97442,110.583521 627.098311,109.705832 626.017576,109.705832 C624.936842,109.705832 624.060733,110.583521 624.060733,111.666206 C624.060733,112.748891 624.936842,113.62658 626.017576,113.62658 Z" style="mix-blend-mode:multiply"/>
    </g>
    <path fill="#263F6F" d="M73.6547891,60.1239467 L744.410222,60.1239467 L744.410222,60.1239467 C746.067076,60.1239467 747.410222,61.4670925 747.410222,63.1239467 L747.410222,112.501266 L747.410222,112.501266 C747.410222,114.15812 746.067076,115.501266 744.410222,115.501266 L73.6547891,115.501266 L73.6547891,115.501266 C71.9979349,115.501266 70.6547891,114.15812 70.6547891,112.501266 L70.6547891,63.1239467 L70.6547891,63.1239467 C70.6547891,61.4670925 71.9979349,60.1239467 73.6547891,60.1239467 Z" opacity=".8"/>
    <path fill="#263F6F" d="M73.6547891,283.215433 L744.410222,283.215433 L744.410222,283.215433 C746.067076,283.215433 747.410222,284.558579 747.410222,286.215433 L747.410222,311.859616 L747.410222,311.859616 C747.410222,313.51647 746.067076,314.859616 744.410222,314.859616 L73.6547891,314.859616 L73.6547891,314.859616 C71.9979349,314.859616 70.6547891,313.51647 70.6547891,311.859616 L70.6547891,286.215433 L70.6547891,286.215433 C70.6547891,284.558579 71.9979349,283.215433 73.6547891,283.215433 Z" opacity=".3"/>
    <polygon fill="#DFE4EE" points="70.655 346.504 747.41 346.504 747.41 347.295 70.655 347.295" opacity=".5"/>
    <polygon fill="#DFE4EE" points="70.655 378.148 747.41 378.148 747.41 378.939 70.655 378.939" opacity=".5"/>
    <polygon fill="#DFE4EE" points="70.655 409.792 747.41 409.792 747.41 410.583 70.655 410.583" opacity=".5"/>
    <polygon fill="#DFE4EE" points="70.655 441.436 747.41 441.436 747.41 442.227 70.655 442.227" opacity=".5"/>
    <polygon fill="#DFE4EE" points="70.655 473.081 747.41 473.081 747.41 473.872 70.655 473.872" opacity=".5"/>
    <polygon fill="#DFE4EE" points="70.655 504.725 747.41 504.725 747.41 505.516 70.655 505.516" opacity=".5"/>
    <g fill="#FFF" transform="translate(83.29 72.782)">
      <path d="M26.0293058,8.99687541 L18.1931957,1.02868085 C16.844357,-0.342893618 14.6605231,-0.342893618 13.3116845,1.02868085 L5.53980479,8.99687541 C5.09019191,9.4540669 5.09019191,10.1725107 5.53980479,10.6297022 L7.91632998,13.0462858 L9.45785983,14.5484864 C9.90747271,15.0056779 10.6140072,15.0056779 11.1278505,14.5484864 L14.2751406,11.6093982 C15.110136,10.8256414 16.4589746,10.8256414 17.3582003,11.6093982 L20.5054904,14.5484864 C20.9551033,15.0056779 21.6616378,15.0056779 22.1754811,14.5484864 L23.7812414,13.0462858 L26.1577666,10.6297022 C26.4789186,10.1725107 26.4789186,9.4540669 26.0293058,8.99687541 Z" opacity=".5"/>
      <path d="M1.04736566,18.3128084 L13.3422368,30.6286123 C14.694029,31.9827059 16.8826448,31.9827059 18.2344369,30.6286123 L30.5293081,18.3128084 C32.6535529,16.184947 31.1730186,15.5401405 29.6281133,14.0570856 L27.6969817,12.2516274 C27.2463844,11.8002629 26.5383028,11.8002629 26.0233344,12.2516274 L22.8691527,15.1532566 C22.0323291,15.9270244 20.6805369,15.9270244 19.7793422,15.1532566 L16.6251606,12.2516274 C16.1745632,11.8002629 15.4664816,11.8002629 14.9515132,12.2516274 L11.7973316,15.1532566 C10.9605079,15.9270244 9.60871575,15.9270244 8.70752101,15.1532566 L5.55333939,12.2516274 C5.10274202,11.8002629 4.39466043,11.8002629 3.87969201,12.2516274 L2.14167357,13.8636436 C0.532397231,15.4111792 -1.14125016,16.1204663 1.04736566,18.3128084 Z"/>
    </g>
    <g fill="#4F89DC" transform="translate(82.5 155.056)">
      <path d="M24.7278405,8.54703164 L17.2835359,0.977246812 C16.0021392,-0.325748937 13.9274969,-0.325748937 12.6461002,0.977246812 L5.26281455,8.54703164 C4.83568232,8.98136356 4.83568232,9.66388514 5.26281455,10.0982171 L7.52051348,12.3939715 L8.98496684,13.8210621 C9.41209907,14.255394 10.0833069,14.255394 10.571458,13.8210621 L13.5613836,11.0289283 C14.3546292,10.2843593 15.6360259,10.2843593 16.4902903,11.0289283 L19.4802159,13.8210621 C19.9073482,14.255394 20.5785559,14.255394 21.0667071,13.8210621 L22.5921793,12.3939715 L24.8498782,10.0982171 C25.1549727,9.66388514 25.1549727,8.98136356 24.7278405,8.54703164 Z"/>
      <path d="M0.994997375,18.1487173 L12.675125,29.848731 C13.9593275,31.1351199 16.0385125,31.1351199 17.3227151,29.848731 L29.0028427,18.1487173 C31.0208752,16.1272489 29.6143677,15.5146828 28.1467077,14.1057806 L26.3121327,12.3905954 C25.8840652,11.961799 25.2113876,11.961799 24.7221676,12.3905954 L21.7256951,15.1471431 C20.9307126,15.8822225 19.6465101,15.8822225 18.7903751,15.1471431 L15.7939025,12.3905954 C15.365835,11.961799 14.6931575,11.961799 14.2039375,12.3905954 L11.207465,15.1471431 C10.4124825,15.8822225 9.12827997,15.8822225 8.27214496,15.1471431 L5.27567242,12.3905954 C4.84760492,11.961799 4.17492741,11.961799 3.68570741,12.3905954 L2.03458989,13.9220108 C0.50577737,15.3921696 -1.08418765,16.0659923 0.994997375,18.1487173 Z"/>
    </g>
    <path fill="#DFE4EE" d="M84.7103038 215.180441L111.876848 215.180441 111.876848 215.180441C113.533702 215.180441 114.876848 216.523587 114.876848 218.180441L114.876848 228.793637 114.876848 228.793637C114.876848 230.450491 113.533702 231.793637 111.876848 231.793637L84.7103038 231.793637 84.7103038 231.793637C83.0534495 231.793637 81.7103038 230.450491 81.7103038 228.793637L81.7103038 218.180441 81.7103038 218.180441C81.7103038 216.523587 83.0534495 215.180441 84.7103038 215.180441zM157.360829 215.180441L184.527373 215.180441 184.527373 215.180441C186.184227 215.180441 187.527373 216.523587 187.527373 218.180441L187.527373 228.793637 187.527373 228.793637C187.527373 230.450491 186.184227 231.793637 184.527373 231.793637L157.360829 231.793637 157.360829 231.793637C155.703974 231.793637 154.360829 230.450491 154.360829 228.793637L154.360829 218.180441 154.360829 218.180441C154.360829 216.523587 155.703974 215.180441 157.360829 215.180441zM121.035566 215.180441L148.20211 215.180441 148.20211 215.180441C149.858964 215.180441 151.20211 216.523587 151.20211 218.180441L151.20211 228.793637 151.20211 228.793637C151.20211 230.450491 149.858964 231.793637 148.20211 231.793637L121.035566 231.793637 121.035566 231.793637C119.378712 231.793637 118.035566 230.450491 118.035566 228.793637L118.035566 218.180441 118.035566 218.180441C118.035566 216.523587 119.378712 215.180441 121.035566 215.180441z"/>
    <path stroke="#FFF" stroke-linecap="round" stroke-width="6" d="M313.876112,73.5727243 L504.306118,73.5727243" opacity=".4"/>
    <path stroke="#DFE4EE" stroke-linecap="round" stroke-width="6" d="M320.983228,330.681707 L332.044343,330.681707"/>
    <path stroke="#263F6F" stroke-linecap="round" stroke-width="6" d="M73.8135076,330.681707 L106.195972,330.681707" opacity=".3"/>
    <path stroke="#DFE4EE" stroke-linecap="round" stroke-width="6" d="M119.614925,330.681707 L150.418031,330.681707"/>
    <path stroke="#263F6F" stroke-linecap="round" stroke-width="6" d="M73.8135076,362.325889 L106.195972,362.325889" opacity=".3"/>
    <path stroke="#DFE4EE" stroke-linecap="round" stroke-width="6" d="M119.614925,362.325889 L150.418031,362.325889"/>
    <path stroke="#263F6F" stroke-linecap="round" stroke-width="6" d="M73.8135076,393.970072 L106.195972,393.970072" opacity=".3"/>
    <path stroke="#DFE4EE" stroke-linecap="round" stroke-width="6" d="M119.614925,393.970072 L150.418031,393.970072"/>
    <path stroke="#263F6F" stroke-linecap="round" stroke-width="6" d="M73.8135076,425.614254 L106.195972,425.614254" opacity=".3"/>
    <path stroke="#DFE4EE" stroke-linecap="round" stroke-width="6" d="M119.614925,425.614254 L150.418031,425.614254"/>
    <path stroke="#263F6F" stroke-linecap="round" stroke-width="6" d="M73.8135076,457.258437 L106.195972,457.258437" opacity=".3"/>
    <path stroke="#DFE4EE" stroke-linecap="round" stroke-width="6" d="M119.614925,457.258437 L150.418031,457.258437"/>
    <path stroke="#263F6F" stroke-linecap="round" stroke-width="6" d="M73.8135076,488.902619 L106.195972,488.902619" opacity=".3"/>
    <path stroke="#DFE4EE" stroke-linecap="round" stroke-width="6" d="M119.614925 488.902619L150.418031 488.902619M270.443733 330.681707L299.667479 330.681707M170.944101 330.681707L249.127983 330.681707M602.109172 330.681707L631.332919 330.681707"/>
    <path stroke="#263F6F" stroke-linecap="round" stroke-width="6" d="M651.069309,330.681707 L680.293055,330.681707" opacity=".3"/>
    <path stroke="#DFE4EE" stroke-linecap="round" stroke-width="6" d="M463.125559,330.681707 L474.186675,330.681707"/>
    <path stroke="#263F6F" stroke-linecap="round" stroke-width="6" d="M144.094994,166.131958 L186.743294,166.131958" opacity=".3"/>
    <path stroke="#DFE4EE" stroke-linecap="round" stroke-width="6" d="M159.888586,176.416317 L186.743294,176.416317"/>
    <g fill="#FFF" transform="translate(310.717 85.44)">
      <ellipse cx="9.982" cy="10" rx="9.982" ry="10"/>
      <ellipse cx="39.558" cy="10" opacity=".4" rx="9.982" ry="10"/>
      <ellipse cx="69.134" cy="10" opacity=".4" rx="9.982" ry="10"/>
      <ellipse cx="98.71" cy="10" opacity=".4" rx="9.982" ry="10"/>
      <ellipse cx="128.286" cy="10" opacity=".4" rx="9.982" ry="10"/>
      <ellipse cx="157.862" cy="10" opacity=".4" rx="9.982" ry="10"/>
      <ellipse cx="187.438" cy="10" opacity=".4" rx="9.982" ry="10"/>
    </g>
    <ellipse cx="731.617" cy="75.946" fill="#FFF" opacity=".4" rx="6.317" ry="6.329"/>
    <ellipse cx="731.617" cy="330.682" fill="#263F6F" opacity=".3" rx="6.317" ry="6.329"/>
    <path stroke="#263F6F" stroke-linecap="round" stroke-width="6" d="M320.983228,362.325889 L442.59949,362.325889" opacity=".3"/>
    <path stroke="#DFE4EE" stroke-linecap="round" stroke-width="6" d="M270.443733 362.325889L299.667479 362.325889M170.944101 362.325889L225.437595 362.325889M602.109172 362.325889L631.332919 362.325889M651.069309 362.325889L680.293055 362.325889M463.125559 362.325889L474.186675 362.325889"/>
    <ellipse cx="731.617" cy="362.326" fill="#263F6F" opacity=".3" rx="6.317" ry="6.329"/>
    <path stroke="#DFE4EE" stroke-linecap="round" stroke-width="6" d="M320.983228 393.970072L332.044343 393.970072M270.443733 393.970072L299.667479 393.970072M170.944101 393.970072L249.127983 393.970072"/>
    <path stroke="#263F6F" stroke-linecap="round" stroke-width="6" d="M602.109172,393.970072 L631.332919,393.970072" opacity=".3"/>
    <path stroke="#DFE4EE" stroke-linecap="round" stroke-width="6" d="M651.069309 393.970072L680.293055 393.970072M463.125559 393.970072L474.186675 393.970072"/>
    <ellipse cx="731.617" cy="393.97" fill="#263F6F" opacity=".3" rx="6.317" ry="6.329"/>
    <path stroke="#DFE4EE" stroke-linecap="round" stroke-width="6" d="M320.983228 425.614254L332.044343 425.614254M270.443733 425.614254L299.667479 425.614254M170.944101 425.614254L201.747206 425.614254M602.109172 425.614254L631.332919 425.614254"/>
    <path stroke="#263F6F" stroke-linecap="round" stroke-width="6" d="M651.069309 425.614254L680.293055 425.614254M463.125559 425.614254L584.741821 425.614254" opacity=".3"/>
    <ellipse cx="731.617" cy="425.614" fill="#263F6F" opacity=".3" rx="6.317" ry="6.329"/>
    <path stroke="#263F6F" stroke-linecap="round" stroke-width="6" d="M320.983228,457.258437 L442.59949,457.258437" opacity=".3"/>
    <path stroke="#DFE4EE" stroke-linecap="round" stroke-width="6" d="M270.443733 457.258437L299.667479 457.258437M170.944101 457.258437L249.127983 457.258437M602.109172 457.258437L631.332919 457.258437M651.069309 457.258437L680.293055 457.258437M463.125559 457.258437L474.186675 457.258437"/>
    <ellipse cx="731.617" cy="457.258" fill="#263F6F" opacity=".3" rx="6.317" ry="6.329"/>
    <path stroke="#263F6F" stroke-linecap="round" stroke-width="6" d="M320.983228,488.902619 L442.59949,488.902619" opacity=".3"/>
    <path stroke="#DFE4EE" stroke-linecap="round" stroke-width="6" d="M270.443733 488.902619L299.667479 488.902619M170.944101 488.902619L249.127983 488.902619M602.109172 488.902619L631.332919 488.902619"/>
    <path stroke="#263F6F" stroke-linecap="round" stroke-width="6" d="M651.069309,488.902619 L680.293055,488.902619" opacity=".3"/>
    <path stroke="#DFE4EE" stroke-linecap="round" stroke-width="6" d="M463.125559,488.902619 L474.186675,488.902619"/>
    <ellipse cx="731.617" cy="488.903" fill="#263F6F" opacity=".3" rx="6.317" ry="6.329"/>
    <ellipse cx="707.137" cy="75.946" fill="#FFF" opacity=".4" rx="6.317" ry="6.329"/>
    <ellipse cx="681.867" cy="75.946" fill="#FFF" opacity=".4" rx="6.317" ry="6.329"/>
    <ellipse cx="657.782" cy="75.55" fill="#FFF" opacity=".4" rx="5.923" ry="5.933"/>
    <path stroke="#DFE4EE" d="M84.8651095,139.734403 C76.8569806,139.734403 70.3651095,146.226274 70.3651095,154.234403 L70.3651095,228.659558 C70.3651095,236.667686 76.8569806,243.159558 84.8651095,243.159558 L184.372567,243.159558 C192.380696,243.159558 198.872567,236.667686 198.872567,228.659558 L198.872567,154.234403 C198.872567,146.226274 192.380696,139.734403 184.372567,139.734403 L84.8651095,139.734403 Z" opacity=".5"/>
    <path fill="#DFE4EE" d="M220.535198 215.180441L247.701742 215.180441 247.701742 215.180441C249.358596 215.180441 250.701742 216.523587 250.701742 218.180441L250.701742 228.793637 250.701742 228.793637C250.701742 230.450491 249.358596 231.793637 247.701742 231.793637L220.535198 231.793637 220.535198 231.793637C218.878344 231.793637 217.535198 230.450491 217.535198 228.793637L217.535198 218.180441 217.535198 218.180441C217.535198 216.523587 218.878344 215.180441 220.535198 215.180441zM293.185723 215.180441L320.352267 215.180441 320.352267 215.180441C322.009121 215.180441 323.352267 216.523587 323.352267 218.180441L323.352267 228.793637 323.352267 228.793637C323.352267 230.450491 322.009121 231.793637 320.352267 231.793637L293.185723 231.793637 293.185723 231.793637C291.528869 231.793637 290.185723 230.450491 290.185723 228.793637L290.185723 218.180441 290.185723 218.180441C290.185723 216.523587 291.528869 215.180441 293.185723 215.180441zM256.860461 215.180441L284.027005 215.180441 284.027005 215.180441C285.683859 215.180441 287.027005 216.523587 287.027005 218.180441L287.027005 228.793637 287.027005 228.793637C287.027005 230.450491 285.683859 231.793637 284.027005 231.793637L256.860461 231.793637 256.860461 231.793637C255.203606 231.793637 253.860461 230.450491 253.860461 228.793637L253.860461 218.180441 253.860461 218.180441C253.860461 216.523587 255.203606 215.180441 256.860461 215.180441z"/>
    <path stroke="#263F6F" stroke-linecap="round" stroke-width="6" d="M279.919888,166.131958 L322.568188,166.131958" opacity=".3"/>
    <path stroke="#DFE4EE" stroke-linecap="round" stroke-width="6" d="M295.71348,176.416317 L322.568188,176.416317"/>
    <path stroke="#DFE4EE" d="M220.690004,139.734403 C212.681875,139.734403 206.190004,146.226274 206.190004,154.234403 L206.190004,228.659558 C206.190004,236.667686 212.681875,243.159558 220.690004,243.159558 L320.197461,243.159558 C328.20559,243.159558 334.697461,236.667686 334.697461,228.659558 L334.697461,154.234403 C334.697461,146.226274 328.20559,139.734403 320.197461,139.734403 L220.690004,139.734403 Z" opacity=".5"/>
    <path fill="#DFE4EE" d="M357.149772 215.180441L384.316316 215.180441 384.316316 215.180441C385.97317 215.180441 387.316316 216.523587 387.316316 218.180441L387.316316 228.793637 387.316316 228.793637C387.316316 230.450491 385.97317 231.793637 384.316316 231.793637L357.149772 231.793637 357.149772 231.793637C355.492918 231.793637 354.149772 230.450491 354.149772 228.793637L354.149772 218.180441 354.149772 218.180441C354.149772 216.523587 355.492918 215.180441 357.149772 215.180441zM429.800297 215.180441L456.966841 215.180441 456.966841 215.180441C458.623695 215.180441 459.966841 216.523587 459.966841 218.180441L459.966841 228.793637 459.966841 228.793637C459.966841 230.450491 458.623695 231.793637 456.966841 231.793637L429.800297 231.793637 429.800297 231.793637C428.143443 231.793637 426.800297 230.450491 426.800297 228.793637L426.800297 218.180441 426.800297 218.180441C426.800297 216.523587 428.143443 215.180441 429.800297 215.180441zM393.475035 215.180441L420.641579 215.180441 420.641579 215.180441C422.298433 215.180441 423.641579 216.523587 423.641579 218.180441L423.641579 228.793637 423.641579 228.793637C423.641579 230.450491 422.298433 231.793637 420.641579 231.793637L393.475035 231.793637 393.475035 231.793637C391.81818 231.793637 390.475035 230.450491 390.475035 228.793637L390.475035 218.180441 390.475035 218.180441C390.475035 216.523587 391.81818 215.180441 393.475035 215.180441z"/>
    <path stroke="#263F6F" stroke-linecap="round" stroke-width="6" d="M416.534462,166.131958 L459.182762,166.131958" opacity=".3"/>
    <path stroke="#DFE4EE" stroke-linecap="round" stroke-width="6" d="M432.328054,176.416317 L459.182762,176.416317"/>
    <path stroke="#DFE4EE" d="M357.304578,139.734403 C349.296449,139.734403 342.804578,146.226274 342.804578,154.234403 L342.804578,228.659558 C342.804578,236.667686 349.296449,243.159558 357.304578,243.159558 L456.812035,243.159558 C464.820164,243.159558 471.312035,236.667686 471.312035,228.659558 L471.312035,154.234403 C471.312035,146.226274 464.820164,139.734403 456.812035,139.734403 L357.304578,139.734403 Z" opacity=".5"/>
    <path fill="#DFE4EE" d="M493.764346 215.180441L520.93089 215.180441 520.93089 215.180441C522.587744 215.180441 523.93089 216.523587 523.93089 218.180441L523.93089 228.793637 523.93089 228.793637C523.93089 230.450491 522.587744 231.793637 520.93089 231.793637L493.764346 231.793637 493.764346 231.793637C492.107492 231.793637 490.764346 230.450491 490.764346 228.793637L490.764346 218.180441 490.764346 218.180441C490.764346 216.523587 492.107492 215.180441 493.764346 215.180441zM566.414871 215.180441L593.581415 215.180441 593.581415 215.180441C595.238269 215.180441 596.581415 216.523587 596.581415 218.180441L596.581415 228.793637 596.581415 228.793637C596.581415 230.450491 595.238269 231.793637 593.581415 231.793637L566.414871 231.793637 566.414871 231.793637C564.758017 231.793637 563.414871 230.450491 563.414871 228.793637L563.414871 218.180441 563.414871 218.180441C563.414871 216.523587 564.758017 215.180441 566.414871 215.180441zM530.089609 215.180441L557.256153 215.180441 557.256153 215.180441C558.913007 215.180441 560.256153 216.523587 560.256153 218.180441L560.256153 228.793637 560.256153 228.793637C560.256153 230.450491 558.913007 231.793637 557.256153 231.793637L530.089609 231.793637 530.089609 231.793637C528.432754 231.793637 527.089609 230.450491 527.089609 228.793637L527.089609 218.180441 527.089609 218.180441C527.089609 216.523587 528.432754 215.180441 530.089609 215.180441z"/>
    <path stroke="#263F6F" stroke-linecap="round" stroke-width="6" d="M553.149036,166.131958 L595.797336,166.131958" opacity=".3"/>
    <path stroke="#DFE4EE" stroke-linecap="round" stroke-width="6" d="M568.942628,176.416317 L595.797336,176.416317"/>
    <path stroke="#DFE4EE" d="M493.919152,139.734403 C485.911023,139.734403 479.419152,146.226274 479.419152,154.234403 L479.419152,228.659558 C479.419152,236.667686 485.911023,243.159558 493.919152,243.159558 L593.426609,243.159558 C601.434738,243.159558 607.926609,236.667686 607.926609,228.659558 L607.926609,154.234403 C607.926609,146.226274 601.434738,139.734403 593.426609,139.734403 L493.919152,139.734403 Z" opacity=".5"/>
    <path fill="#4F89DC" d="M630.37892 215.180441L657.545464 215.180441 657.545464 215.180441C659.202318 215.180441 660.545464 216.523587 660.545464 218.180441L660.545464 228.793637 660.545464 228.793637C660.545464 230.450491 659.202318 231.793637 657.545464 231.793637L630.37892 231.793637 630.37892 231.793637C628.722066 231.793637 627.37892 230.450491 627.37892 228.793637L627.37892 218.180441 627.37892 218.180441C627.37892 216.523587 628.722066 215.180441 630.37892 215.180441zM703.029445 215.180441L730.195989 215.180441 730.195989 215.180441C731.852843 215.180441 733.195989 216.523587 733.195989 218.180441L733.195989 228.793637 733.195989 228.793637C733.195989 230.450491 731.852843 231.793637 730.195989 231.793637L703.029445 231.793637 703.029445 231.793637C701.372591 231.793637 700.029445 230.450491 700.029445 228.793637L700.029445 218.180441 700.029445 218.180441C700.029445 216.523587 701.372591 215.180441 703.029445 215.180441zM666.704183 215.180441L693.870727 215.180441 693.870727 215.180441C695.527581 215.180441 696.870727 216.523587 696.870727 218.180441L696.870727 228.793637 696.870727 228.793637C696.870727 230.450491 695.527581 231.793637 693.870727 231.793637L666.704183 231.793637 666.704183 231.793637C665.047328 231.793637 663.704183 230.450491 663.704183 228.793637L663.704183 218.180441 663.704183 218.180441C663.704183 216.523587 665.047328 215.180441 666.704183 215.180441z"/>
    <path stroke="#DFE4EE" stroke-linecap="round" stroke-width="6" d="M689.76361 166.131958L732.41191 166.131958M705.557202 176.416317L732.41191 176.416317"/>
    <path stroke="#DFE4EE" d="M630.533726,139.734403 C622.525597,139.734403 616.033726,146.226274 616.033726,154.234403 L616.033726,228.659558 C616.033726,236.667686 622.525597,243.159558 630.533726,243.159558 L730.041183,243.159558 C738.049312,243.159558 744.541183,236.667686 744.541183,228.659558 L744.541183,154.234403 C744.541183,146.226274 738.049312,139.734403 730.041183,139.734403 L630.533726,139.734403 Z" opacity=".5"/>
    <path fill="#DFE4EE" d="M630.37892 215.180441L657.545464 215.180441 657.545464 215.180441C659.202318 215.180441 660.545464 216.523587 660.545464 218.180441L660.545464 228.793637 660.545464 228.793637C660.545464 230.450491 659.202318 231.793637 657.545464 231.793637L630.37892 231.793637 630.37892 231.793637C628.722066 231.793637 627.37892 230.450491 627.37892 228.793637L627.37892 218.180441 627.37892 218.180441C627.37892 216.523587 628.722066 215.180441 630.37892 215.180441zM703.029445 215.180441L730.195989 215.180441 730.195989 215.180441C731.852843 215.180441 733.195989 216.523587 733.195989 218.180441L733.195989 228.793637 733.195989 228.793637C733.195989 230.450491 731.852843 231.793637 730.195989 231.793637L703.029445 231.793637 703.029445 231.793637C701.372591 231.793637 700.029445 230.450491 700.029445 228.793637L700.029445 218.180441 700.029445 218.180441C700.029445 216.523587 701.372591 215.180441 703.029445 215.180441zM666.704183 215.180441L693.870727 215.180441 693.870727 215.180441C695.527581 215.180441 696.870727 216.523587 696.870727 218.180441L696.870727 228.793637 696.870727 228.793637C696.870727 230.450491 695.527581 231.793637 693.870727 231.793637L666.704183 231.793637 666.704183 231.793637C665.047328 231.793637 663.704183 230.450491 663.704183 228.793637L663.704183 218.180441 663.704183 218.180441C663.704183 216.523587 665.047328 215.180441 666.704183 215.180441z"/>
    <path stroke="#263F6F" stroke-linecap="round" stroke-width="6" d="M689.76361,166.131958 L732.41191,166.131958" opacity=".2"/>
    <path stroke="#DFE4EE" stroke-linecap="round" stroke-width="6" d="M705.557202,176.416317 L732.41191,176.416317" opacity=".4"/>
    <path stroke="#DFE4EE" d="M630.533726,139.734403 C622.525597,139.734403 616.033726,146.226274 616.033726,154.234403 L616.033726,228.659558 C616.033726,236.667686 622.525597,243.159558 630.533726,243.159558 L730.041183,243.159558 C738.049312,243.159558 744.541183,236.667686 744.541183,228.659558 L744.541183,154.234403 C744.541183,146.226274 738.049312,139.734403 730.041183,139.734403 L630.533726,139.734403 Z" opacity=".5"/>
    <g transform="translate(217.535 155.848)">
      <ellipse cx="14.214" cy="14.24" fill="#F5A623" rx="14.214" ry="14.24"/>
      <path fill="#FFF" fill-rule="nonzero" d="M17.671061,13.448704 C18.4892259,13.0315144 19.0011334,12.2967804 18.8815551,11.0727517 C18.7205219,9.39999018 17.2775461,8.83907416 15.4559863,8.67933408 L15.4556349,6.35907748 L14.0442774,6.35907748 L14.0438822,8.61831521 C13.6725439,8.61831521 13.2940038,8.62561812 12.9171763,8.63318499 L12.9168689,6.35938544 L11.5067848,6.35925346 L11.5065213,8.67893814 C11.2009226,8.6851852 10.9008131,8.69112431 10.6077739,8.69112431 L10.6077739,8.68426134 L8.66105864,8.68346946 L8.66132213,10.1916516 C8.66132213,10.1916516 9.70358108,10.1720306 9.68641064,10.1910797 C10.2578658,10.1914757 10.4444571,10.5236259 10.4981202,10.810331 L10.4985593,13.4535872 L10.4985593,17.1664993 C10.4733965,17.3464324 10.3675194,17.6339293 9.96794439,17.6344573 C9.98612486,17.6504709 8.94127497,17.6342813 8.94127497,17.6342813 L8.66132213,19.3207688 L10.497681,19.3207688 C10.8398603,19.3211647 11.1760672,19.3264879 11.5059065,19.3291275 L11.5071361,21.6756482 L12.9168689,21.6760441 L12.9164736,19.3541158 C13.3043236,19.3620346 13.6786919,19.3654661 14.0443652,19.3649821 L14.04397,21.6760441 L15.4552836,21.6760441 L15.4560741,19.3334389 C17.8284055,19.1970593 19.4892395,18.5988809 19.6957239,16.3689427 C19.8621586,14.5736155 19.0179526,13.7722315 17.671061,13.448704 Z M12.9509023,10.2934524 C13.7468906,10.2934524 16.2502619,10.0397424 16.2506132,11.7040572 C16.2502619,13.2996543 13.7476811,13.1132542 12.9509023,13.1132542 L12.9509023,10.2934524 L12.9509023,10.2934524 Z M12.9502875,17.6458955 L12.9509023,14.5367931 C13.9072652,14.5365291 16.9069105,14.2613503 16.9073057,16.0906404 C16.907701,17.8449217 13.9072652,17.6451916 12.9502875,17.6458955 Z" transform="rotate(10 14.189 14.018)"/>
    </g>
    <g transform="translate(492.344 155.848)">
      <ellipse cx="14.214" cy="14.24" fill="#35980A" rx="14.214" ry="14.24"/>
      <path fill="#FFF" fill-rule="nonzero" d="M18.7847455,15.6515462 C18.697374,15.3798638 18.5913683,15.1434121 18.46687,14.9426132 C18.3424425,14.7416195 18.1642342,14.5455614 17.9318916,14.3537894 C17.6998318,14.1621148 17.4910735,14.007749 17.3059703,13.8903999 C17.1209731,13.7729533 16.8668495,13.6416418 16.5437409,13.4963029 C16.2209151,13.3509964 15.9651296,13.242869 15.7768441,13.1717581 C15.588311,13.1007447 15.3155887,13.0033975 14.9588539,12.8797815 C14.6425695,12.7686018 14.40708,12.6835935 14.2521378,12.6249189 C14.0973723,12.5661794 13.8938471,12.4827946 13.6414561,12.3745697 C13.3891712,12.2665072 13.2007088,12.1706537 13.0761752,12.0872689 C12.9516769,12.0038841 12.8187985,11.9019261 12.6774341,11.7814273 C12.5360697,11.6609285 12.4368175,11.5326692 12.3795717,11.3967143 C12.3224672,11.260727 12.2938266,11.1123683 12.2938266,10.9516708 C12.2938266,10.5314998 12.4956546,10.1883818 12.8994519,9.92270644 C13.3032847,9.6570311 13.8249329,9.52412848 14.4643258,9.52412848 C14.7468426,9.52412848 15.0348753,9.55961897 15.3274339,9.63076229 C15.6199925,9.70190562 15.8707217,9.78204333 16.0793739,9.87172743 C16.2882029,9.96141153 16.4849746,10.0603173 16.6701132,10.1684123 C16.8552164,10.2766047 16.9863975,10.3584309 17.0638686,10.4140532 C17.141269,10.469708 17.1903117,10.5067571 17.2102894,10.5253303 C17.2979085,10.5871221 17.388533,10.6087151 17.4827642,10.5902393 C17.5836782,10.5840699 17.6611493,10.534552 17.7151068,10.4419456 L18.5329556,9.0884365 C18.6136797,8.96488545 18.5969904,8.8474389 18.4824986,8.7361293 C18.4420482,8.69904775 18.391768,8.65582924 18.3307741,8.60634388 C18.2703812,8.55685851 18.1390941,8.46727183 17.9370186,8.33742146 C17.7351553,8.2076685 17.5214821,8.09178054 17.2961759,7.98979004 C17.0706222,7.88789696 16.7777807,7.78431539 16.4176868,7.67930512 C16.057805,7.57413249 15.6858659,7.50311905 15.3021523,7.46606997 L15.3021523,5.83438434 C15.3021523,5.74791484 15.2719206,5.67680398 15.2115278,5.62114919 C15.1509935,5.56562427 15.0735578,5.53773193 14.9791852,5.53773193 L13.6162453,5.53773193 C13.5287676,5.53773193 13.4530645,5.56705298 13.3891358,5.6257925 C13.3252071,5.68453201 13.2932428,5.75401933 13.2932428,5.83438434 L13.2932428,7.50308658 C12.2365807,7.68842939 11.3784936,8.10252835 10.7189461,8.74528604 C10.0594694,9.38807621 9.72960722,10.1357792 9.72960722,10.9887523 C9.72960722,11.2421213 9.75831856,11.4831513 9.81552908,11.7117127 C9.87266888,11.9404688 9.94338646,12.1459759 10.0275404,12.3282665 C10.1116236,12.5106869 10.2311363,12.6898603 10.3859017,12.8660464 C10.5406671,13.0421675 10.6870879,13.1936109 10.8250225,13.3202467 C10.9630279,13.44685 11.1430748,13.5782265 11.3650926,13.7141489 C11.5872519,13.8502011 11.7773761,13.9599846 11.9355713,14.0433694 C12.0938019,14.1264944 12.3040806,14.2226077 12.5664782,14.3305079 C12.8289465,14.4387327 13.0359722,14.5205265 13.1874139,14.5762787 C13.3388556,14.6318361 13.5457752,14.7091813 13.8083496,14.8078598 C14.1717319,14.9376452 14.440989,15.0381096 14.6159443,15.1092204 C14.7910411,15.1803313 15.0130589,15.2792046 15.2824221,15.4059053 C15.5515379,15.5324761 15.7483095,15.6483966 15.8729139,15.7535042 C15.9974122,15.8586119 16.1101007,15.9883974 16.2111207,16.1428605 C16.3121408,16.2973237 16.3627392,16.4611059 16.3627392,16.6342398 C16.3627392,17.1225018 16.1557842,17.4994218 15.7417682,17.7649673 C15.3279289,18.030805 14.8482516,18.1636751 14.3031958,18.1636751 C14.0544114,18.1636751 13.8052027,18.1390948 13.5562768,18.0896744 C12.6813589,17.928782 11.8636869,17.5425105 11.1031901,16.9306974 L11.0830002,16.9121566 C11.0223953,16.8443577 10.9416004,16.8164979 10.8407572,16.8289341 C10.7330543,16.841273 10.6556185,16.878387 10.608556,16.9403087 L9.56872473,18.1917298 C9.46774003,18.3153134 9.47456428,18.4419816 9.58894996,18.571767 C9.62264688,18.608881 9.68151927,18.6646332 9.76560247,18.7386665 C9.84989782,18.8129919 10.0063958,18.9286851 10.2350965,19.0865901 C10.4638678,19.2442679 10.7128998,19.3923993 10.982157,19.5316337 C11.2513788,19.6706408 11.592874,19.8080893 12.0068547,19.9441091 C12.4208354,20.0799016 12.8497728,20.1756577 13.2939853,20.2312476 L13.2939853,21.8535816 C13.2939853,21.9340441 13.325985,22.0034989 13.3898783,22.0622709 C13.4538424,22.1210753 13.5295102,22.150299 13.6169878,22.150299 L14.9799277,22.150299 C15.0743003,22.150299 15.1517361,22.1225365 15.2122349,22.0669791 C15.2727338,22.0114218 15.3028595,21.9403109 15.3028595,21.8536141 L15.3028595,20.23128 C16.3731347,20.070615 17.2429963,19.648788 17.9125503,18.9658315 C18.582175,18.2828751 18.9170935,17.4686071 18.9170935,16.5230925 C18.9167399,16.2141337 18.8730718,15.9236508 18.7847455,15.6515462 Z"/>
    </g>
    <g transform="translate(628.169 155.848)">
      <ellipse cx="14.214" cy="14.24" fill="#F58823" rx="14.214" ry="14.24"/>
      <path fill="#FFF" fill-rule="nonzero" d="M18.7351489,17.6548168 C18.5114064,17.4306705 18.1757925,17.4867071 17.95205,17.7108534 L17.8961144,17.76689 C17.3926936,18.3272557 16.3858521,19.3919506 14.7077829,19.3919506 C13.5890701,19.3919506 12.5822286,18.943658 11.7991296,18.2151825 C11.6313227,18.0470728 11.743194,17.7108534 12.0228722,17.7108534 L13.5890701,17.7108534 C13.9246839,17.7108534 14.1484265,17.4867071 14.1484265,17.1504876 L14.1484265,16.0297562 C14.1484265,15.6935367 13.9246839,15.4693905 13.5890701,15.4693905 L10.5685456,15.4693905 C10.4566743,15.4693905 10.2888674,15.3573173 10.2888674,15.2452442 C10.2329317,14.9650613 10.2329317,14.6848784 10.2329317,14.348659 C10.2329317,14.0124396 10.2329317,13.7322567 10.2888674,13.4520738 C10.2888674,13.3400007 10.4566743,13.2279275 10.5685456,13.2279275 L13.5890701,13.2279275 C13.9246839,13.2279275 14.1484265,13.0037812 14.1484265,12.6675618 L14.1484265,11.5468303 C14.1484265,11.2106109 13.9246839,10.9864646 13.5890701,10.9864646 L12.0228722,10.9864646 C11.7991296,10.9864646 11.6313227,10.6502452 11.7991296,10.4821354 C12.5822286,9.75365999 13.5890701,9.30536741 14.7077829,9.30536741 C16.3858521,9.30536741 17.3926936,10.4260989 17.8961144,10.930428 L17.95205,10.9864646 C18.1757925,11.2106109 18.5114064,11.2106109 18.7351489,11.0425012 L19.5741835,10.3140257 C19.6860548,10.2019526 19.7419905,10.0898794 19.7419905,9.92176971 C19.7419905,9.75365999 19.6860548,9.64158685 19.5741835,9.5295137 C18.9588915,8.9131114 17.3926936,7.11994106 14.7077829,7.11994106 C12.1906791,7.11994106 9.95325352,8.63292853 8.83454073,10.8743915 C8.77860509,10.9864646 8.66673381,11.0425012 8.61079817,11.0425012 L6.87679334,11.0425012 C6.54117951,11.0425012 6.31743695,11.2666475 6.31743695,11.6028669 L6.31743695,12.7235984 C6.31743695,13.0598178 6.54117951,13.2839641 6.87679334,13.2839641 L7.77176358,13.2839641 C7.9395705,13.2839641 8.05144178,13.4520738 8.05144178,13.6201835 C7.99550614,13.9003664 7.99550614,14.1805493 7.99550614,14.4046956 C7.99550614,14.6288419 7.99550614,14.9650613 8.05144178,15.1892076 C8.05144178,15.3573173 7.9395705,15.525427 7.77176358,15.525427 L6.87679334,15.525427 C6.54117951,15.525427 6.31743695,15.7495733 6.31743695,16.0857928 L6.31743695,17.2065242 C6.31743695,17.5427437 6.54117951,17.76689 6.87679334,17.76689 L8.61079817,17.76689 C8.72266945,17.76689 8.83454073,17.8229265 8.83454073,17.9349997 C9.95325352,20.1764626 12.1906791,21.6894501 14.7077829,21.6894501 C17.3926936,21.6894501 18.9588915,19.9523163 19.5741835,19.2798774 C19.6860548,19.1678043 19.7419905,19.0557311 19.7419905,18.8876214 C19.7419905,18.7195117 19.6860548,18.551402 19.5741835,18.4953654 L18.7351489,17.6548168 Z"/>
    </g>
    <path fill="#4A4A4A" d="M9.79794987,23.6935816 L0.104632549,17.9580736 L9.79597567,31.6441825 L19.4971898,17.9580736 L9.79597567,23.6935816 L9.79794987,23.6935816 Z M9.94404059,0 L0.250723279,16.1147999 L9.94404059,21.8562413 L19.6373579,16.1167777 L9.94601479,0 L9.94404059,0 Z" transform="translate(354.94 154.265)"/>
  </g>
</svg>
