<svg xmlns="http://www.w3.org/2000/svg" xmlns:xlink="http://www.w3.org/1999/xlink" width="100%" height="100%" viewBox="0 0 1200 700">
  <defs>
    <path id="wallet-b" d="M28.4224329,0 L806.27244,0 C821.969716,0 834.694873,12.7266141 834.694873,28.4224318 L834.694873,542.815791 C834.694873,558.513067 821.96711,571.238223 806.27244,571.238223 L28.4224329,571.238223 C12.7251567,571.238223 0,558.511609 0,542.815791 L0,28.4224318 C0,12.7251562 12.7277631,0 28.4224329,0 Z"/>
    <filter id="wallet-a" width="108%" height="111.7%" x="-4%" y="-3.8%" filterUnits="objectBoundingBox">
      <feOffset dy="2" in="SourceAlpha" result="shadowOffsetOuter1"/>
      <feGaussianBlur in="shadowOffsetOuter1" result="shadowBlurOuter1" stdDeviation="3"/>
      <feColorMatrix in="shadowBlurOuter1" result="shadowMatrixOuter1" values="0 0 0 0 0.0901960784   0 0 0 0 0.160784314   0 0 0 0 0.278431373  0 0 0 0.1 0"/>
      <feOffset dy="10" in="SourceAlpha" result="shadowOffsetOuter2"/>
      <feGaussianBlur in="shadowOffsetOuter2" result="shadowBlurOuter2" stdDeviation="7.5"/>
      <feColorMatrix in="shadowBlurOuter2" result="shadowMatrixOuter2" values="0 0 0 0 0   0 0 0 0 0.231372549   0 0 0 0 0.862745098  0 0 0 0.14 0"/>
      <feMerge>
        <feMergeNode in="shadowMatrixOuter1"/>
        <feMergeNode in="shadowMatrixOuter2"/>
      </feMerge>
    </filter>
    <filter id="wallet-c" width="111%" height="116.1%" x="-5.5%" y="-6%" filterUnits="objectBoundingBox">
      <feGaussianBlur in="SourceAlpha" result="shadowBlurInner1" stdDeviation="15"/>
      <feOffset dy="-20" in="shadowBlurInner1" result="shadowOffsetInner1"/>
      <feComposite in="shadowOffsetInner1" in2="SourceAlpha" k2="-1" k3="1" operator="arithmetic" result="shadowInnerInner1"/>
      <feColorMatrix in="shadowInnerInner1" result="shadowMatrixInner1" values="0 0 0 0 0.960784314   0 0 0 0 0.976470588   0 0 0 0 1  0 0 0 0 0"/>
      <feGaussianBlur in="SourceAlpha" result="shadowBlurInner2" stdDeviation="1.5"/>
      <feOffset dy="1" in="shadowBlurInner2" result="shadowOffsetInner2"/>
      <feComposite in="shadowOffsetInner2" in2="SourceAlpha" k2="-1" k3="1" operator="arithmetic" result="shadowInnerInner2"/>
      <feColorMatrix in="shadowInnerInner2" result="shadowMatrixInner2" values="0 0 0 0 0.450382734   0 0 0 0 0.684886101   0 0 0 0 1  0 0 0 0.2 0"/>
      <feMerge>
        <feMergeNode in="shadowMatrixInner1"/>
        <feMergeNode in="shadowMatrixInner2"/>
      </feMerge>
    </filter>
    <linearGradient id="wallet-d" x1="50%" x2="50%" y1="0%" y2="100%">
      <stop offset="0%" stop-color="#F3F4F6"/>
      <stop offset="100%" stop-color="#FFF"/>
    </linearGradient>
  </defs>
  <g fill="none" fill-rule="evenodd" transform="translate(145 59)">
    <use fill="#000" filter="url(#wallet-a)" xlink:href="#wallet-b"/>
    <use fill="#FFF" xlink:href="#wallet-b"/>
    <use fill="#000" filter="url(#wallet-c)" xlink:href="#wallet-b"/>
    <path fill="url(#wallet-d)" d="M636.513642,115.323593 C637.612496,115.323593 638.503294,114.432795 638.503294,113.333941 C638.503294,112.235086 637.612496,111.344288 636.513642,111.344288 C635.414787,111.344288 634.523989,112.235086 634.523989,113.333941 C634.523989,114.432795 635.414787,115.323593 636.513642,115.323593 Z" style="mix-blend-mode:multiply"/>
    <path fill="#263F6F" d="M75.8394161,61.0218978 L757.941606,61.0218978 L757.941606,61.0218978 C759.59846,61.0218978 760.941606,62.3650436 760.941606,64.0218978 L760.941606,114.226277 L760.941606,114.226277 C760.941606,115.883132 759.59846,117.226277 757.941606,117.226277 L75.8394161,117.226277 L75.8394161,117.226277 C74.1825618,117.226277 72.8394161,115.883132 72.8394161,114.226277 L72.8394161,64.0218978 L72.8394161,64.0218978 C72.8394161,62.3650436 74.1825618,61.0218978 75.8394161,61.0218978 Z" opacity=".8"/>
    <path fill="#DFE4EE" d="M75.8394161,287.445255 L757.941606,287.445255 L757.941606,287.445255 C759.59846,287.445255 760.941606,288.788401 760.941606,290.445255 L760.941606,316.562044 L760.941606,316.562044 C760.941606,318.218898 759.59846,319.562044 757.941606,319.562044 L75.8394161,319.562044 L75.8394161,319.562044 C74.1825618,319.562044 72.8394161,318.218898 72.8394161,316.562044 L72.8394161,290.445255 L72.8394161,290.445255 C72.8394161,288.788401 74.1825618,287.445255 75.8394161,287.445255 Z"/>
    <polygon fill="#DFE4EE" points="72.839 351.679 760.942 351.679 760.942 352.482 72.839 352.482" opacity=".5"/>
    <polygon fill="#DFE4EE" points="72.839 383.796 760.942 383.796 760.942 384.599 72.839 384.599" opacity=".5"/>
    <polygon fill="#DFE4EE" points="72.839 415.912 760.942 415.912 760.942 416.715 72.839 416.715" opacity=".5"/>
    <polygon fill="#DFE4EE" points="72.839 448.029 760.942 448.029 760.942 448.832 72.839 448.832" opacity=".5"/>
    <polygon fill="#DFE4EE" points="72.839 480.146 760.942 480.146 760.942 480.949 72.839 480.949" opacity=".5"/>
    <polygon fill="#DFE4EE" points="72.839 512.263 760.942 512.263 760.942 513.066 72.839 513.066" opacity=".5"/>
    <g fill="#FFF" transform="translate(85.686 73.869)">
      <path d="M26.4657237,9.13124374 L18.4982302,1.0440442 C17.1267764,-0.348014734 14.9063274,-0.348014734 13.5348736,1.0440442 L5.63268741,9.13124374 C5.17553614,9.59526338 5.17553614,10.3244371 5.63268741,10.7884568 L8.04905839,13.241132 L9.61643416,14.765768 C10.0735854,15.2297877 10.791966,15.2297877 11.3144246,14.765768 L14.5144834,11.7827846 C15.3634786,10.9873223 16.7349324,10.9873223 17.649235,11.7827846 L20.8492938,14.765768 C21.3064451,15.2297877 22.0248257,15.2297877 22.5472843,14.765768 L24.1799673,13.241132 L26.5963383,10.7884568 C26.9228749,10.3244371 26.9228749,9.59526338 26.4657237,9.13124374 Z" opacity=".5"/>
      <path d="M1.06492622,18.5863102 L13.5659382,31.0860506 C14.940395,32.4603676 17.1657061,32.4603676 18.5401629,31.0860506 L31.0411749,18.5863102 C33.2010356,16.4266691 31.6956781,15.7722325 30.1248703,14.2670281 L28.1613606,12.4346054 C27.7032083,11.9764998 26.9832548,11.9764998 26.4596522,12.4346054 L23.2525863,15.3795705 C22.401732,16.1648945 21.0272752,16.1648945 20.1109707,15.3795705 L16.9039048,12.4346054 C16.4457525,11.9764998 15.7257989,11.9764998 15.2021963,12.4346054 L11.9951304,15.3795705 C11.1442762,16.1648945 9.76981939,16.1648945 8.85351485,15.3795705 L5.64644894,12.4346054 C5.18829667,11.9764998 4.4683431,11.9764998 3.9447405,12.4346054 L2.17758174,14.0706971 C0.54132362,15.6413451 -1.16038482,16.3612255 1.06492622,18.5863102 Z"/>
    </g>
    <g fill="#4F89DC" transform="translate(84.883 157.372)">
      <path d="M25.1424375,8.67468155 L17.5733187,0.991841992 C16.2704376,-0.330613997 14.161011,-0.330613997 12.8581299,0.991841992 L5.35105304,8.67468155 C4.91675934,9.11550021 4.91675934,9.80821526 5.35105304,10.2490339 L7.64660547,12.5790754 L9.13561245,14.0274796 C9.56990615,14.4682983 10.2523677,14.4682983 10.7487033,14.0274796 L13.7887593,11.1936453 C14.5953047,10.4379562 15.8981858,10.4379562 16.7667732,11.1936453 L19.8068291,14.0274796 C20.2411228,14.4682983 20.9235844,14.4682983 21.41992,14.0274796 L22.970969,12.5790754 L25.2665214,10.2490339 C25.5767312,9.80821526 25.5767312,9.11550021 25.1424375,8.67468155 Z"/>
      <path d="M1.01167991,18.4197684 L12.8876413,30.2945218 C14.1933753,31.6001229 16.3074208,31.6001229 17.6131547,30.2945218 L29.4891161,18.4197684 C31.5409838,16.3681094 30.1108942,15.7463946 28.6186268,14.3164504 L26.7532926,12.5756489 C26.3180479,12.1404485 25.634092,12.1404485 25.1366696,12.5756489 L22.0899569,15.3733657 C21.2816454,16.1194235 19.9759115,16.1194235 19.1054221,15.3733657 L16.0587095,12.5756489 C15.6234649,12.1404485 14.939509,12.1404485 14.4420865,12.5756489 L11.3953739,15.3733657 C10.5870624,16.1194235 9.28132842,16.1194235 8.4108391,15.3733657 L5.36412649,12.5756489 C4.92888183,12.1404485 4.24492594,12.1404485 3.74750347,12.5756489 L2.06870265,14.129936 C0.514257439,15.6220516 -1.10236558,16.3059379 1.01167991,18.4197684 Z"/>
    </g>
    <path fill="#DFE4EE" d="M87.080292 218.394161L114.80292 218.394161 114.80292 218.394161C116.459774 218.394161 117.80292 219.737306 117.80292 221.394161L117.80292 232.255474 117.80292 232.255474C117.80292 233.912329 116.459774 235.255474 114.80292 235.255474L87.080292 235.255474 87.080292 235.255474C85.4234377 235.255474 84.080292 233.912329 84.080292 232.255474L84.080292 221.394161 84.080292 221.394161C84.080292 219.737306 85.4234377 218.394161 87.080292 218.394161zM160.948905 218.394161L188.671533 218.394161 188.671533 218.394161C190.328387 218.394161 191.671533 219.737306 191.671533 221.394161L191.671533 232.255474 191.671533 232.255474C191.671533 233.912329 190.328387 235.255474 188.671533 235.255474L160.948905 235.255474 160.948905 235.255474C159.292051 235.255474 157.948905 233.912329 157.948905 232.255474L157.948905 221.394161 157.948905 221.394161C157.948905 219.737306 159.292051 218.394161 160.948905 218.394161zM124.014599 218.394161L151.737226 218.394161 151.737226 218.394161C153.394081 218.394161 154.737226 219.737306 154.737226 221.394161L154.737226 232.255474 154.737226 232.255474C154.737226 233.912329 153.394081 235.255474 151.737226 235.255474L124.014599 235.255474 124.014599 235.255474C122.357744 235.255474 121.014599 233.912329 121.014599 232.255474L121.014599 221.394161 121.014599 221.394161C121.014599 219.737306 122.357744 218.394161 124.014599 218.394161z"/>
    <path stroke="#FFF" stroke-linecap="round" stroke-width="6" d="M320.138686,74.6715328 L513.761519,74.6715328" opacity=".4"/>
    <path stroke="#DFE4EE" stroke-linecap="round" stroke-width="6" d="M327.364964 335.620438L338.611534 335.620438M76.0510949 335.620438L108.976497 335.620438M122.620438 335.620438L153.940001 335.620438M76.0510949 367.737226L108.976497 367.737226M122.620438 367.737226L153.940001 367.737226M76.0510949 399.854015L108.976497 399.854015M122.620438 399.854015L153.940001 399.854015M76.0510949 431.970803L108.976497 431.970803M122.620438 431.970803L153.940001 431.970803M76.0510949 464.087591L108.976497 464.087591M122.620438 464.087591L153.940001 464.087591M76.0510949 496.20438L108.976497 496.20438M122.620438 496.20438L153.940001 496.20438M275.978102 335.620438L305.691826 335.620438M174.810219 335.620438L254.304964 335.620438M613.20438 335.620438L642.918103 335.620438M662.985401 335.620438L692.699125 335.620438M471.890511 335.620438L483.137081 335.620438"/>
    <path stroke="#263F6F" stroke-linecap="round" stroke-width="6" d="M147.510949,168.613139 L190.874308,168.613139" opacity=".3"/>
    <path stroke="#DFE4EE" stroke-linecap="round" stroke-width="6" d="M163.569343,179.051095 L190.874308,179.051095"/>
    <g fill="#FFF" transform="translate(316.927 86.715)">
      <circle cx="10.149" cy="10.149" r="10.149"/>
      <circle cx="40.221" cy="10.149" r="10.149" opacity=".4"/>
      <circle cx="70.293" cy="10.149" r="10.149" opacity=".4"/>
      <circle cx="100.365" cy="10.149" r="10.149" opacity=".4"/>
      <circle cx="130.437" cy="10.149" r="10.149" opacity=".4"/>
      <circle cx="160.509" cy="10.149" r="10.149" opacity=".4"/>
      <circle cx="190.581" cy="10.149" r="10.149" opacity=".4"/>
    </g>
    <circle cx="744.883" cy="77.08" r="6.423" fill="#FFF" opacity=".4"/>
    <circle cx="744.883" cy="335.62" r="6.423" fill="#DFE4EE"/>
    <path stroke="#DFE4EE" stroke-linecap="round" stroke-width="6" d="M327.364964 367.737226L451.020293 367.737226M275.978102 367.737226L305.691826 367.737226M174.810219 367.737226L230.217373 367.737226M613.20438 367.737226L642.918103 367.737226M662.985401 367.737226L692.699125 367.737226M471.890511 367.737226L483.137081 367.737226"/>
    <circle cx="744.883" cy="367.737" r="6.423" fill="#DFE4EE"/>
    <path stroke="#DFE4EE" stroke-linecap="round" stroke-width="6" d="M327.364964 399.854015L338.611534 399.854015M275.978102 399.854015L305.691826 399.854015M174.810219 399.854015L254.304964 399.854015M613.20438 399.854015L642.918103 399.854015M662.985401 399.854015L692.699125 399.854015M471.890511 399.854015L483.137081 399.854015"/>
    <circle cx="744.883" cy="399.854" r="6.423" fill="#DFE4EE"/>
    <path stroke="#DFE4EE" stroke-linecap="round" stroke-width="6" d="M327.364964 431.970803L338.611534 431.970803M275.978102 431.970803L305.691826 431.970803M174.810219 431.970803L206.129782 431.970803M613.20438 431.970803L642.918103 431.970803M662.985401 431.970803L692.699125 431.970803M471.890511 431.970803L595.54584 431.970803"/>
    <circle cx="744.883" cy="431.971" r="6.423" fill="#DFE4EE"/>
    <path stroke="#DFE4EE" stroke-linecap="round" stroke-width="6" d="M327.364964 464.087591L451.020293 464.087591M275.978102 464.087591L305.691826 464.087591M174.810219 464.087591L254.304964 464.087591M613.20438 464.087591L642.918103 464.087591M662.985401 464.087591L692.699125 464.087591M471.890511 464.087591L483.137081 464.087591"/>
    <circle cx="744.883" cy="464.088" r="6.423" fill="#DFE4EE"/>
    <path stroke="#DFE4EE" stroke-linecap="round" stroke-width="6" d="M327.364964 496.20438L451.020293 496.20438M275.978102 496.20438L305.691826 496.20438M174.810219 496.20438L254.304964 496.20438M613.20438 496.20438L642.918103 496.20438M662.985401 496.20438L692.699125 496.20438M471.890511 496.20438L483.137081 496.20438"/>
    <circle cx="744.883" cy="496.204" r="6.423" fill="#DFE4EE"/>
    <circle cx="719.993" cy="77.08" r="6.423" fill="#FFF" opacity=".4"/>
    <circle cx="694.299" cy="77.08" r="6.423" fill="#FFF" opacity=".4"/>
    <circle cx="669.81" cy="76.679" r="6.022" fill="#FFF" opacity=".4"/>
    <path stroke="#DFE4EE" d="M87.0364964,141.813869 C79.0283675,141.813869 72.5364964,148.30574 72.5364964,156.313869 L72.5364964,232.298613 C72.5364964,240.306742 79.0283675,246.798613 87.0364964,246.798613 L188.715328,246.798613 C196.723457,246.798613 203.215328,240.306742 203.215328,232.298613 L203.215328,156.313869 C203.215328,148.30574 196.723457,141.813869 188.715328,141.813869 L87.0364964,141.813869 Z" opacity=".5"/>
    <path fill="#DFE4EE" d="M225.182482 218.394161L252.905109 218.394161 252.905109 218.394161C254.561964 218.394161 255.905109 219.737306 255.905109 221.394161L255.905109 232.255474 255.905109 232.255474C255.905109 233.912329 254.561964 235.255474 252.905109 235.255474L225.182482 235.255474 225.182482 235.255474C223.525628 235.255474 222.182482 233.912329 222.182482 232.255474L222.182482 221.394161 222.182482 221.394161C222.182482 219.737306 223.525628 218.394161 225.182482 218.394161zM299.051095 218.394161L326.773723 218.394161 326.773723 218.394161C328.430577 218.394161 329.773723 219.737306 329.773723 221.394161L329.773723 232.255474 329.773723 232.255474C329.773723 233.912329 328.430577 235.255474 326.773723 235.255474L299.051095 235.255474 299.051095 235.255474C297.394241 235.255474 296.051095 233.912329 296.051095 232.255474L296.051095 221.394161 296.051095 221.394161C296.051095 219.737306 297.394241 218.394161 299.051095 218.394161zM262.116788 218.394161L289.839416 218.394161 289.839416 218.394161C291.49627 218.394161 292.839416 219.737306 292.839416 221.394161L292.839416 232.255474 292.839416 232.255474C292.839416 233.912329 291.49627 235.255474 289.839416 235.255474L262.116788 235.255474 262.116788 235.255474C260.459934 235.255474 259.116788 233.912329 259.116788 232.255474L259.116788 221.394161 259.116788 221.394161C259.116788 219.737306 260.459934 218.394161 262.116788 218.394161z"/>
    <path stroke="#263F6F" stroke-linecap="round" stroke-width="6" d="M285.613139,168.613139 L328.976497,168.613139" opacity=".3"/>
    <path stroke="#DFE4EE" stroke-linecap="round" stroke-width="6" d="M301.671533,179.051095 L328.976497,179.051095"/>
    <path stroke="#DFE4EE" d="M225.138686,141.813869 C217.130557,141.813869 210.638686,148.30574 210.638686,156.313869 L210.638686,232.298613 C210.638686,240.306742 217.130557,246.798613 225.138686,246.798613 L326.817518,246.798613 C334.825647,246.798613 341.317518,240.306742 341.317518,232.298613 L341.317518,156.313869 C341.317518,148.30574 334.825647,141.813869 326.817518,141.813869 L225.138686,141.813869 Z" opacity=".5"/>
    <path fill="#DFE4EE" d="M364.087591 218.394161L391.810219 218.394161 391.810219 218.394161C393.467073 218.394161 394.810219 219.737306 394.810219 221.394161L394.810219 232.255474 394.810219 232.255474C394.810219 233.912329 393.467073 235.255474 391.810219 235.255474L364.087591 235.255474 364.087591 235.255474C362.430737 235.255474 361.087591 233.912329 361.087591 232.255474L361.087591 221.394161 361.087591 221.394161C361.087591 219.737306 362.430737 218.394161 364.087591 218.394161zM437.956204 218.394161L465.678832 218.394161 465.678832 218.394161C467.335686 218.394161 468.678832 219.737306 468.678832 221.394161L468.678832 232.255474 468.678832 232.255474C468.678832 233.912329 467.335686 235.255474 465.678832 235.255474L437.956204 235.255474 437.956204 235.255474C436.29935 235.255474 434.956204 233.912329 434.956204 232.255474L434.956204 221.394161 434.956204 221.394161C434.956204 219.737306 436.29935 218.394161 437.956204 218.394161zM401.021898 218.394161L428.744526 218.394161 428.744526 218.394161C430.40138 218.394161 431.744526 219.737306 431.744526 221.394161L431.744526 232.255474 431.744526 232.255474C431.744526 233.912329 430.40138 235.255474 428.744526 235.255474L401.021898 235.255474 401.021898 235.255474C399.365044 235.255474 398.021898 233.912329 398.021898 232.255474L398.021898 221.394161 398.021898 221.394161C398.021898 219.737306 399.365044 218.394161 401.021898 218.394161z"/>
    <path stroke="#263F6F" stroke-linecap="round" stroke-width="6" d="M424.518248,168.613139 L467.881607,168.613139" opacity=".3"/>
    <path stroke="#DFE4EE" stroke-linecap="round" stroke-width="6" d="M440.576642,179.051095 L467.881607,179.051095"/>
    <path stroke="#DFE4EE" d="M364.043796,141.813869 C356.035667,141.813869 349.543796,148.30574 349.543796,156.313869 L349.543796,232.298613 C349.543796,240.306742 356.035667,246.798613 364.043796,246.798613 L465.722628,246.798613 C473.730757,246.798613 480.222628,240.306742 480.222628,232.298613 L480.222628,156.313869 C480.222628,148.30574 473.730757,141.813869 465.722628,141.813869 L364.043796,141.813869 Z" opacity=".5"/>
    <path fill="#DFE4EE" d="M502.992701 218.394161L530.715328 218.394161 530.715328 218.394161C532.372183 218.394161 533.715328 219.737306 533.715328 221.394161L533.715328 232.255474 533.715328 232.255474C533.715328 233.912329 532.372183 235.255474 530.715328 235.255474L502.992701 235.255474 502.992701 235.255474C501.335846 235.255474 499.992701 233.912329 499.992701 232.255474L499.992701 221.394161 499.992701 221.394161C499.992701 219.737306 501.335846 218.394161 502.992701 218.394161zM576.861314 218.394161L604.583942 218.394161 604.583942 218.394161C606.240796 218.394161 607.583942 219.737306 607.583942 221.394161L607.583942 232.255474 607.583942 232.255474C607.583942 233.912329 606.240796 235.255474 604.583942 235.255474L576.861314 235.255474 576.861314 235.255474C575.20446 235.255474 573.861314 233.912329 573.861314 232.255474L573.861314 221.394161 573.861314 221.394161C573.861314 219.737306 575.20446 218.394161 576.861314 218.394161zM539.927007 218.394161L567.649635 218.394161 567.649635 218.394161C569.306489 218.394161 570.649635 219.737306 570.649635 221.394161L570.649635 232.255474 570.649635 232.255474C570.649635 233.912329 569.306489 235.255474 567.649635 235.255474L539.927007 235.255474 539.927007 235.255474C538.270153 235.255474 536.927007 233.912329 536.927007 232.255474L536.927007 221.394161 536.927007 221.394161C536.927007 219.737306 538.270153 218.394161 539.927007 218.394161z"/>
    <path stroke="#263F6F" stroke-linecap="round" stroke-width="6" d="M563.423358,168.613139 L606.786716,168.613139" opacity=".3"/>
    <path stroke="#DFE4EE" stroke-linecap="round" stroke-width="6" d="M579.481752,179.051095 L606.786716,179.051095"/>
    <path stroke="#DFE4EE" d="M502.948905,141.813869 C494.940776,141.813869 488.448905,148.30574 488.448905,156.313869 L488.448905,232.298613 C488.448905,240.306742 494.940776,246.798613 502.948905,246.798613 L604.627737,246.798613 C612.635866,246.798613 619.127737,240.306742 619.127737,232.298613 L619.127737,156.313869 C619.127737,148.30574 612.635866,141.813869 604.627737,141.813869 L502.948905,141.813869 Z" opacity=".5"/>
    <path fill="#4F89DC" d="M641.89781 218.394161L669.620438 218.394161 669.620438 218.394161C671.277292 218.394161 672.620438 219.737306 672.620438 221.394161L672.620438 232.255474 672.620438 232.255474C672.620438 233.912329 671.277292 235.255474 669.620438 235.255474L641.89781 235.255474 641.89781 235.255474C640.240956 235.255474 638.89781 233.912329 638.89781 232.255474L638.89781 221.394161 638.89781 221.394161C638.89781 219.737306 640.240956 218.394161 641.89781 218.394161zM715.766423 218.394161L743.489051 218.394161 743.489051 218.394161C745.145905 218.394161 746.489051 219.737306 746.489051 221.394161L746.489051 232.255474 746.489051 232.255474C746.489051 233.912329 745.145905 235.255474 743.489051 235.255474L715.766423 235.255474 715.766423 235.255474C714.109569 235.255474 712.766423 233.912329 712.766423 232.255474L712.766423 221.394161 712.766423 221.394161C712.766423 219.737306 714.109569 218.394161 715.766423 218.394161zM678.832117 218.394161L706.554745 218.394161 706.554745 218.394161C708.211599 218.394161 709.554745 219.737306 709.554745 221.394161L709.554745 232.255474 709.554745 232.255474C709.554745 233.912329 708.211599 235.255474 706.554745 235.255474L678.832117 235.255474 678.832117 235.255474C677.175263 235.255474 675.832117 233.912329 675.832117 232.255474L675.832117 221.394161 675.832117 221.394161C675.832117 219.737306 677.175263 218.394161 678.832117 218.394161z"/>
    <path stroke="#DFE4EE" stroke-linecap="round" stroke-width="6" d="M702.328467 168.613139L745.691826 168.613139M718.386861 179.051095L745.691826 179.051095"/>
    <path stroke="#DFE4EE" d="M641.854015,141.813869 C633.845886,141.813869 627.354015,148.30574 627.354015,156.313869 L627.354015,232.298613 C627.354015,240.306742 633.845886,246.798613 641.854015,246.798613 L743.532847,246.798613 C751.540976,246.798613 758.032847,240.306742 758.032847,232.298613 L758.032847,156.313869 C758.032847,148.30574 751.540976,141.813869 743.532847,141.813869 L641.854015,141.813869 Z" opacity=".5"/>
    <path fill="#DFE4EE" d="M641.89781 218.394161L669.620438 218.394161 669.620438 218.394161C671.277292 218.394161 672.620438 219.737306 672.620438 221.394161L672.620438 232.255474 672.620438 232.255474C672.620438 233.912329 671.277292 235.255474 669.620438 235.255474L641.89781 235.255474 641.89781 235.255474C640.240956 235.255474 638.89781 233.912329 638.89781 232.255474L638.89781 221.394161 638.89781 221.394161C638.89781 219.737306 640.240956 218.394161 641.89781 218.394161zM715.766423 218.394161L743.489051 218.394161 743.489051 218.394161C745.145905 218.394161 746.489051 219.737306 746.489051 221.394161L746.489051 232.255474 746.489051 232.255474C746.489051 233.912329 745.145905 235.255474 743.489051 235.255474L715.766423 235.255474 715.766423 235.255474C714.109569 235.255474 712.766423 233.912329 712.766423 232.255474L712.766423 221.394161 712.766423 221.394161C712.766423 219.737306 714.109569 218.394161 715.766423 218.394161zM678.832117 218.394161L706.554745 218.394161 706.554745 218.394161C708.211599 218.394161 709.554745 219.737306 709.554745 221.394161L709.554745 232.255474 709.554745 232.255474C709.554745 233.912329 708.211599 235.255474 706.554745 235.255474L678.832117 235.255474 678.832117 235.255474C677.175263 235.255474 675.832117 233.912329 675.832117 232.255474L675.832117 221.394161 675.832117 221.394161C675.832117 219.737306 677.175263 218.394161 678.832117 218.394161z"/>
    <path stroke="#263F6F" stroke-linecap="round" stroke-width="6" d="M702.328467,168.613139 L745.691826,168.613139" opacity=".2"/>
    <path stroke="#DFE4EE" stroke-linecap="round" stroke-width="6" d="M718.386861,179.051095 L745.691826,179.051095" opacity=".4"/>
    <path stroke="#DFE4EE" d="M641.854015,141.813869 C633.845886,141.813869 627.354015,148.30574 627.354015,156.313869 L627.354015,232.298613 C627.354015,240.306742 633.845886,246.798613 641.854015,246.798613 L743.532847,246.798613 C751.540976,246.798613 758.032847,240.306742 758.032847,232.298613 L758.032847,156.313869 C758.032847,148.30574 751.540976,141.813869 743.532847,141.813869 L641.854015,141.813869 Z" opacity=".5"/>
    <g transform="translate(222.182 158.175)">
      <circle cx="14.453" cy="14.453" r="14.453" fill="#F5A623"/>
      <path fill="#FFF" fill-rule="nonzero" d="M17.9673412,13.6495604 C18.7992238,13.2261401 19.3197142,12.4804329 19.198131,11.2381233 C19.0343978,9.54037902 17.5672285,8.97108573 15.7151276,8.80895993 L15.7147704,6.4540503 L14.2797494,6.4540503 L14.2793476,8.74702975 C13.9017834,8.74702975 13.5168964,8.75444172 13.1337509,8.7621216 L13.1334383,6.45436285 L11.6997122,6.4542289 L11.6994443,8.80855807 C11.3887218,8.81489844 11.0835806,8.82092625 10.7856281,8.82092625 L10.7856281,8.81396078 L8.80627347,8.81315707 L8.80654138,10.343864 C8.80654138,10.343864 9.86627526,10.3239499 9.84881694,10.3432835 C10.4298533,10.3436854 10.6195731,10.6807963 10.6741359,10.9717833 L10.6745824,13.6545166 L10.6745824,17.422881 C10.6489977,17.6055013 10.5413455,17.8972921 10.135071,17.8978279 C10.1535563,17.9140806 9.09118802,17.8976493 9.09118802,17.8976493 L8.80654138,19.6093244 L10.6736894,19.6093244 C11.0216058,19.6097263 11.3634497,19.615129 11.6988192,19.617808 L11.7000694,21.999374 L13.1334383,21.9997758 L13.1330365,19.6431695 C13.5273893,19.6512066 13.9080344,19.6546893 14.2798388,19.6541981 L14.2794369,21.9997758 L15.7144132,21.9997758 L15.7152169,19.6221838 C18.1273238,19.4837674 19.816004,18.8766551 20.0259504,16.6134129 C20.1951756,14.7912725 19.3368153,13.9779198 17.9673412,13.6495604 Z M13.1680424,10.4471851 C13.9773766,10.4471851 16.5227204,10.1896859 16.5230776,11.8788573 C16.5227204,13.4982846 13.9781803,13.3091006 13.1680424,13.3091006 L13.1680424,10.4471851 L13.1680424,10.4471851 Z M13.1674173,17.909437 L13.1680424,14.7539001 C14.14044,14.7536322 17.1903786,14.4743436 17.1907805,16.3309541 C17.1911823,18.1114356 14.14044,17.9087226 13.1674173,17.909437 Z" transform="rotate(10 14.427 14.227)"/>
    </g>
    <g transform="translate(501.599 158.175)">
      <circle cx="14.453" cy="14.453" r="14.453" fill="#35980A"/>
      <path fill="#FFF" fill-rule="nonzero" d="M19.0996982,15.885302 C19.0108617,15.609562 18.9030788,15.3695789 18.7764931,15.1657811 C18.6499793,14.9617856 18.4687831,14.7627993 18.2325449,14.5681632 C17.9965944,14.3736259 17.784336,14.2169547 17.5961292,14.097853 C17.4080303,13.9786524 17.1496459,13.8453797 16.8211199,13.6978701 C16.4928816,13.5503936 16.2328075,13.4406512 16.0413651,13.3684783 C15.849671,13.2964043 15.5723761,13.1976032 15.2096601,13.072141 C14.8880728,12.9593008 14.6486349,12.8730229 14.4910949,12.8134721 C14.3337346,12.7538553 14.126797,12.6692251 13.8701743,12.5593839 C13.6136594,12.4497075 13.4220373,12.3524224 13.2954156,12.2677922 C13.1688299,12.1831621 13.0337237,12.0796813 12.8899891,11.9573829 C12.7462545,11.8350844 12.6453383,11.7049096 12.5871326,11.5669242 C12.5290707,11.4289059 12.4999499,11.2783315 12.4999499,11.115234 C12.4999499,10.6887877 12.7051618,10.3405453 13.1157294,10.0709021 C13.5263329,9.80125885 14.0567273,9.66637134 14.7068406,9.66637134 C14.9940941,9.66637134 15.2869561,9.70239187 15.5844199,9.77459772 C15.8818836,9.84680357 16.1368166,9.92813814 16.3489672,10.0191617 C16.5612975,10.1101852 16.7613683,10.2105681 16.9496111,10.3202775 C17.1378178,10.4300858 17.2711984,10.5131341 17.3499684,10.5695871 C17.4286665,10.6260731 17.4785314,10.6636755 17.4988441,10.6825261 C17.5879322,10.7452408 17.6800763,10.7671563 17.7758874,10.7484045 C17.8784933,10.7421429 17.9572633,10.6918856 18.0121255,10.597896 L18.8436867,9.2241723 C18.9257642,9.09877601 18.9087951,8.97957539 18.7923837,8.86660339 C18.751255,8.82896802 18.7001318,8.78510404 18.6381153,8.73487962 C18.5767099,8.68465519 18.4432215,8.59373053 18.2377579,8.46194084 C18.0325101,8.33025003 17.8152544,8.21263128 17.5861706,8.10911755 C17.3568352,8.00570269 17.0590838,7.90057414 16.6929524,7.79399553 C16.3270367,7.68725215 15.9488615,7.61517812 15.5587145,7.57757572 L15.5587145,5.92152086 C15.5587145,5.83375994 15.5279758,5.76158705 15.4665704,5.70510105 C15.4050212,5.64874687 15.3262872,5.62043796 15.2303323,5.62043796 L13.8445408,5.62043796 C13.7555965,5.62043796 13.678624,5.65019692 13.6136235,5.70981371 C13.5486229,5.76943049 13.5161227,5.83995561 13.5161227,5.92152086 L13.5161227,7.61514517 C12.4417442,7.80325607 11.5692701,8.2235396 10.8986643,8.87589688 C10.2281305,9.52828712 9.89273777,10.2871571 9.89273777,11.1528693 C9.89273777,11.4100223 9.92193049,11.6546522 9.98010023,11.8866271 C10.0381981,12.1187997 10.1101013,12.3273761 10.1956662,12.5123891 C10.2811592,12.697534 10.4026757,12.8793834 10.560036,13.0582008 C10.7173962,13.2369523 10.8662719,13.3906575 11.0065192,13.5191846 C11.1468384,13.6476787 11.3299041,13.7810173 11.5556444,13.9189697 C11.7815285,14.0570539 11.9748404,14.168477 12.135688,14.2531071 C12.2965715,14.3374736 12.5103759,14.4350223 12.7771729,14.544534 C13.0440418,14.6543752 13.2545386,14.7373905 13.4085194,14.7939754 C13.5625003,14.8503625 13.7728892,14.9288629 14.039866,15.0290151 C14.4093409,15.1607389 14.6831125,15.2627037 14.8610012,15.3348766 C15.0390337,15.4070495 15.2647739,15.5073995 15.5386534,15.6359925 C15.8122813,15.7644536 16.0123521,15.8821053 16.1390456,15.9887828 C16.2656313,16.0954603 16.3802092,16.2271841 16.482923,16.3839541 C16.5856368,16.5407242 16.6370836,16.7069526 16.6370836,16.8826721 C16.6370836,17.3782264 16.4266587,17.7607757 16.0057011,18.0302871 C15.5849232,18.3000951 15.0972034,18.4349496 14.543009,18.4349496 C14.2900534,18.4349496 14.0366663,18.4100022 13.7835668,18.3598437 C12.8939797,18.1965484 12.0625983,17.8045078 11.2893507,17.1835573 L11.2688223,17.1647396 C11.2072012,17.0959282 11.1250517,17.0676522 11.0225177,17.0802743 C10.913009,17.0927974 10.834275,17.1304657 10.7864234,17.1933122 L9.72915786,18.4634233 C9.62648001,18.5888525 9.63341867,18.7174126 9.74972219,18.8491363 C9.78398409,18.8868047 9.84384356,18.9433895 9.92933653,19.0185284 C10.0150452,19.0939639 10.1741671,19.211385 10.4067023,19.3716483 C10.6393093,19.531681 10.8925166,19.6820247 11.1662883,19.8233386 C11.440024,19.9644218 11.7872448,20.1039231 12.2081665,20.2419743 C12.6290881,20.3797949 13.0652173,20.4769812 13.5168777,20.5334012 L13.5168777,22.1799649 C13.5168777,22.261629 13.5494139,22.3321211 13.6143785,22.3917709 C13.679415,22.4514536 13.7563515,22.4811137 13.8452958,22.4811137 L15.2310873,22.4811137 C15.3270422,22.4811137 15.4057762,22.4529366 15.4672895,22.3965495 C15.5288027,22.3401623 15.5594335,22.2679894 15.5594335,22.1799978 L15.5594335,20.5334342 C16.6476533,20.3703696 17.5320994,19.9422426 18.2128794,19.2490862 C18.8937313,18.5559298 19.2342652,17.7295008 19.2342652,16.7698649 C19.2339057,16.4562918 19.1895054,16.1614705 19.0996982,15.885302 Z"/>
    </g>
    <g transform="translate(639.7 158.175)">
      <circle cx="14.453" cy="14.453" r="14.453" fill="#F58823"/>
      <path fill="#FFF" fill-rule="nonzero" d="M19.0492701,17.9184915 C18.8217762,17.6909976 18.4805353,17.747871 18.2530414,17.975365 L18.1961679,18.0322384 C17.6843066,18.6009732 16.6605839,19.6815693 14.9543796,19.6815693 C13.81691,19.6815693 12.7931873,19.2265815 11.9969586,18.4872263 C11.8263382,18.3166058 11.9400852,17.975365 12.2244526,17.975365 L13.81691,17.975365 C14.1581509,17.975365 14.3856448,17.747871 14.3856448,17.4066302 L14.3856448,16.2691606 C14.3856448,15.9279197 14.1581509,15.7004258 13.81691,15.7004258 L10.7457421,15.7004258 C10.6319951,15.7004258 10.4613747,15.5866788 10.4613747,15.4729319 C10.4045012,15.1885645 10.4045012,14.9041971 10.4045012,14.5629562 C10.4045012,14.2217153 10.4045012,13.9373479 10.4613747,13.6529805 C10.4613747,13.5392336 10.6319951,13.4254866 10.7457421,13.4254866 L13.81691,13.4254866 C14.1581509,13.4254866 14.3856448,13.1979927 14.3856448,12.8567518 L14.3856448,11.7192822 C14.3856448,11.3780414 14.1581509,11.1505474 13.81691,11.1505474 L12.2244526,11.1505474 C11.9969586,11.1505474 11.8263382,10.8093066 11.9969586,10.6386861 C12.7931873,9.8993309 13.81691,9.44434307 14.9543796,9.44434307 C16.6605839,9.44434307 17.6843066,10.5818127 18.1961679,11.093674 L18.2530414,11.1505474 C18.4805353,11.3780414 18.8217762,11.3780414 19.0492701,11.2074209 L19.9023723,10.4680657 C20.0161192,10.3543187 20.0729927,10.2405718 20.0729927,10.0699513 C20.0729927,9.8993309 20.0161192,9.78558394 19.9023723,9.67183698 C19.276764,9.04622871 17.6843066,7.22627737 14.9543796,7.22627737 C12.395073,7.22627737 10.1201338,8.76186131 8.98266423,11.0368005 C8.92579075,11.1505474 8.8120438,11.2074209 8.75517032,11.2074209 L6.99209246,11.2074209 C6.65085158,11.2074209 6.42335766,11.4349148 6.42335766,11.7761557 L6.42335766,12.9136253 C6.42335766,13.2548662 6.65085158,13.4823601 6.99209246,13.4823601 L7.90206813,13.4823601 C8.07268856,13.4823601 8.18643552,13.6529805 8.18643552,13.823601 C8.12956204,14.1079684 8.12956204,14.3923358 8.12956204,14.6198297 C8.12956204,14.8473236 8.12956204,15.1885645 8.18643552,15.4160584 C8.18643552,15.5866788 8.07268856,15.7572993 7.90206813,15.7572993 L6.99209246,15.7572993 C6.65085158,15.7572993 6.42335766,15.9847932 6.42335766,16.3260341 L6.42335766,17.4635036 C6.42335766,17.8047445 6.65085158,18.0322384 6.99209246,18.0322384 L8.75517032,18.0322384 C8.86891727,18.0322384 8.98266423,18.0891119 8.98266423,18.2028589 C10.1201338,20.4777981 12.395073,22.013382 14.9543796,22.013382 C17.6843066,22.013382 19.276764,20.2503041 19.9023723,19.5678224 C20.0161192,19.4540754 20.0729927,19.3403285 20.0729927,19.169708 C20.0729927,18.9990876 20.0161192,18.8284672 19.9023723,18.7715937 L19.0492701,17.9184915 Z"/>
    </g>
    <g fill="#4A4A4A" transform="translate(361.89 156.57)">
      <path d="M9.96222628,24.0474453 L0.106386861,18.2262774 L9.96021898,32.1167883 L19.8240876,18.2262774 L9.96021898,24.0474453 L9.96222628,24.0474453 Z M10.1107664,0 L0.254927007,16.3554745 L10.1107664,22.1826642 L19.9666058,16.3574818 L10.1127737,0 L10.1107664,0 Z"/>
    </g>
  </g>
</svg>
