<?xml version="1.0" encoding="UTF-8"?>
<svg width="100%" viewBox="0 0 128 27" version="1.1" xmlns="http://www.w3.org/2000/svg" xmlns:xlink="http://www.w3.org/1999/xlink">
    <defs></defs>
    <g id="Artboard" stroke="none" stroke-width="1" fill="none" fill-rule="evenodd" transform="translate(-20.000000, -366.000000)">
        <g id="waves_white_logo" transform="translate(20.000000, 366.000000)" fill="#FFFFFF">
            <rect id="Rectangle-path" transform="translate(121.316668, 6.768259) rotate(135.000000) translate(-121.316668, -6.768259) " x="116.599631" y="2.0512219" width="9.43407459" height="9.43407459"></rect>
            <g id="Group" transform="translate(0.000000, 6.387716)" fill-rule="nonzero">
                <polygon id="Shape" points="29.8011516 0.393090211 26.0422265 0.393090211 25.6491363 0.737044146 21.7919386 13.9792706 21.7673704 13.9792706 17.4433781 0.737044146 17.0502879 0.393090211 13.1193858 0.393090211 12.7262956 0.737044146 8.4268714 13.9055662 8.35316699 13.8564299 8.32859885 13.8318618 4.47140115 0.737044146 4.07831094 0.393090211 0.245681382 0.393090211 0 0.737044146 6.01919386 19.384261 6.43685221 19.7527831 10.2203455 19.7527831 10.6380038 19.384261 14.937428 6.043762 15.0357006 6.043762 19.3596929 19.384261 19.7773512 19.7527831 23.6099808 19.7527831 24.0276392 19.384261 30.046833 0.737044146"></polygon>
                <polygon id="Shape" points="72.3285988 0.393090211 68.5451056 0.393090211 68.1274472 0.737044146 62.8452975 14.5197697 62.7961612 14.5443378 57.5631478 0.737044146 57.1454894 0.393090211 53.2882917 0.393090211 53.0426104 0.737044146 60.5850288 19.384261 61.0272553 19.7527831 64.5159309 19.7527831 64.9581574 19.384261 72.5742802 0.737044146"></polygon>
                <path d="M91.8357006,11.1047985 L92.2042226,10.7608445 L92.2042226,10.1957774 C92.2042226,7.17389635 91.3443378,4.5696737 89.6491363,2.75163148 C87.9539347,0.933589251 85.6690979,0 82.8683301,0 C80.1658349,0 77.9055662,1.00729367 76.1612284,2.97274472 C74.4168906,4.93819578 73.5570058,7.32130518 73.5570058,10.0238004 C73.5570058,12.8982726 74.4660269,15.3059501 76.259501,17.1976967 C78.052975,19.0894434 80.4115163,20.0476008 83.2614203,20.0476008 C85.325144,20.0476008 87.0940499,19.556238 88.5190019,18.5489443 C89.9439539,17.5662188 91.4426104,15.9447217 91.9585413,13.7335893 L91.6882917,13.3650672 L88.1504798,13.3650672 L87.6591171,13.7335893 C86.7746641,15.5024952 85.4234165,16.3378119 83.1877159,16.3378119 C81.7381958,16.3378119 80.4360845,15.821881 79.3550864,14.8145873 C78.3232246,13.8564299 77.7335893,12.7017274 77.5861804,11.0556622 L91.8357006,11.1047985 Z M77.8318618,7.66525912 C78.4460653,5.38042226 80.36238,3.68522073 82.8683301,3.68522073 C86.1850288,3.68522073 87.5608445,6.043762 87.9539347,7.66525912 L77.8318618,7.66525912 Z" id="Shape"></path>
                <path d="M46.9005758,0.393090211 L46.5320537,0.761612284 L46.5320537,2.67792706 L46.4583493,2.75163148 C45.9669866,2.11285988 45.3036468,1.54779271 44.5174664,1.08099808 C44.3454894,0.982725528 44.1489443,0.884452975 43.9523992,0.786180422 C42.8959693,0.27024952 41.6921305,0.0245681382 40.3900192,0.0245681382 C37.9577735,0.0245681382 35.8203455,1.00729367 34.0514395,2.92360845 C32.2825336,4.83992322 31.3980806,7.24760077 31.3980806,10.0729367 C31.3980806,12.8982726 32.2825336,15.3059501 34.0514395,17.2222649 C35.8203455,19.1385797 37.9577735,20.1213052 40.3900192,20.1213052 C41.6921305,20.1213052 42.8714012,19.8756238 43.9278311,19.3596929 C44.1243762,19.2614203 44.3454894,19.1631478 44.5420345,19.0403071 C45.3036468,18.5735125 45.9424184,18.0575816 46.4337812,17.4433781 C46.4583493,17.41881 46.5320537,17.4679463 46.5566219,17.4433781 L46.5566219,19.4333973 L46.925144,19.8019194 L50.1435701,19.8019194 L50.5120921,19.4333973 L50.5120921,0.737044146 L50.1435701,0.368522073 L46.9005758,0.368522073 L46.9005758,0.393090211 Z M44.9105566,14.6917466 C43.8295585,15.8464491 42.5274472,16.4115163 40.9550864,16.4115163 C39.4318618,16.4115163 38.3017274,15.8464491 37.1961612,14.6671785 C36.090595,13.512476 35.550096,11.9646833 35.550096,10.0238004 C35.550096,8.1074856 36.1151631,6.5596929 37.1961612,5.38042226 C38.3017274,4.22571977 39.4072937,3.63608445 40.9550864,3.63608445 C42.5028791,3.63608445 43.8049904,4.20115163 44.9105566,5.35585413 C45.6230326,6.11746641 46.0898273,7.02648752 46.3600768,8.13205374 L46.3600768,11.8664107 C46.1143954,13.0211132 45.6230326,13.9547025 44.9105566,14.6917466 Z" id="Shape"></path>
                <path d="M105.471017,8.54971209 C105.471017,8.54971209 103.358157,8.1074856 101.61382,7.71439539 C100.016891,7.34587332 99.206142,6.87907869 99.206142,5.74894434 C99.206142,4.54510557 100.360845,3.5378119 102.842226,3.5378119 C105.274472,3.5378119 106.62572,4.61880998 106.62572,5.57696737 L107.043378,5.94548944 L110.58119,5.94548944 L110.85144,5.60153551 C110.85144,3.07101727 108.664875,0.0491362764 102.940499,0.0491362764 C96.9704415,0.0491362764 95.103263,3.56238004 95.103263,5.82264875 C95.103263,7.71439539 95.7911708,9.95009597 100.360845,11.0065259 C100.360845,11.0065259 102.547409,11.4978887 104.291747,11.8909789 C106.281766,12.3332054 107.117083,13.0211132 107.117083,14.1758157 C107.117083,15.2322457 106.060653,16.5097889 103.309021,16.5097889 C100.753935,16.5097889 99.206142,15.281382 99.1324376,13.8318618 L98.6902111,13.4633397 L95.0786948,13.4633397 L94.8084453,13.8318618 C95.1278311,17.074856 97.5355086,20.1213052 103.284453,20.1213052 C109.79501,20.1213052 111.121689,16.1412668 111.121689,14.052975 C111.121689,11.2522073 109.52476,9.43416507 105.471017,8.54971209 Z" id="Shape"></path>
            </g>
        </g>
    </g>
</svg>