<svg xmlns="http://www.w3.org/2000/svg" width="234" height="40.99"><defs><mask id="a" x="10.29" y="0" width="28.17" height="28.36" maskUnits="userSpaceOnUse"><path fill="#fff" d="M10.29.01h28.16v28.36H10.29V.01z" transform="translate(0 -.01)"/></mask><mask id="b" x="210.58" y="10.75" width="23.42" height="19.52" maskUnits="userSpaceOnUse"><path fill="#fff" d="M234 10.76v19.52h-23.42V10.76H234z" transform="translate(0 -.01)"/></mask><mask id="c" x="0" y="16.99" width="10.77" height="10.79" maskUnits="userSpaceOnUse"><path fill="#fff" d="M0 27.79V17h10.77v10.79H0z" transform="translate(0 -.01)"/></mask></defs><g mask="url(#a)"><path fill="#fff" d="M38.45 14.39l-7.17-7.27-3.75 4L31 14.17l-6.53 6.64-7-6.73L28.09 3.79l-3.58-3.8h-.34l-4.84 5-9 9.19 14.05 14.18 14.08-14"/></g><g mask="url(#b)"><path fill="#fff" d="M224.87 26.78a45.83 45.83 0 0 1-5.48 0c-3.31-.23-5.53-2.93-5.44-6.45a5.84 5.84 0 0 1 5.65-6.07h5.15a6 6 0 0 1 5.9 6.2 6 6 0 0 1-5.78 6.34m8.77-9.22c-1.09-3.88-3.64-6.16-7.55-6.6a36.09 36.09 0 0 0-7.3-.06c-5.18.47-8.36 4.4-8.21 9.82s3.88 9.28 8.93 9.49c1.83.08 3.66.07 5.49 0a9.13 9.13 0 0 0 8.41-6.32c.18-.52.39-1 .58-1.54V18.3a4.51 4.51 0 0 1-.36-.74"/></g><path fill="#fff" d="M23.4 33.58l-9.72-10.39L10 26.88l8.77 9.11 4.53 5h.64l.9-1.29L37 26.99l-3.63-4-10 10.59"/><g mask="url(#c)"><path fill="#fff" d="M7.11 16.99l-1.66 2L0 24.07v.67l3.74 3 7-6.78-3.63-3.97"/></g><path fill="#fff" d="M125.85 26.39a2.07 2.07 0 0 1-.63.13h-10.88v-12c3.76 0 7.49-.07 11.22 0 1.21 0 1.86 1 1.78 2.32a2 2 0 0 1-2.12 2c-1.88.07-3.76 0-5.64 0h-2.9v2.78h5.25a34.86 34.86 0 0 1 3.7.11 2.12 2.12 0 0 1 2 2.18 2.25 2.25 0 0 1-1.81 2.39m2.49-6.46a4.36 4.36 0 0 0 2.2-5.14c-.44-2.21-2-3.25-4.12-3.59a15.56 15.56 0 0 0-2.39-.12h-12.76a3 3 0 0 0-.21.66v17.28a1.44 1.44 0 0 0 1 1c4.51.06 9 .13 13.53 0a5.29 5.29 0 0 0 5.4-5.05 4.81 4.81 0 0 0-2.64-4.93M76.42 10.99a3.48 3.48 0 0 0-2.07 1.77c-2 4-3.75 8-5.74 12.35-.36-.69-.55-1-.71-1.35-1.75-3.77-3.43-7.58-5.29-11.3a3 3 0 0 0-2.1-1.43c-.53 0-1.4 1-1.62 1.71-1.48 4.8-2.83 9.63-4.22 14.46-.23.81-.44 1.64-.66 2.46 3.19.53 3.21.52 4-2.1.27-.95.55-1.89.83-2.83l2.32-8c1.88 4.11 3.5 7.81 5.28 11.43.38.77 1.33 1.76 2 1.78s1.67-1 2.05-1.74c1.69-3.38 3.21-6.84 4.8-10.27a11.62 11.62 0 0 1 .64-1c1.07 3.74 2 7.2 3 10.66.75 2.59 1.08 2.75 4 2q-2.31-8.28-4.7-16.6c-.27-.94-.5-2.21-1.81-2M205.62 18.99H195v2.84h8.41v4.74c-3.14 0-6.15.17-9.14 0s-4.82-2.74-4.93-5.76a5.82 5.82 0 0 1 4.66-6.29 15.06 15.06 0 0 1 2.67-.14h9.2a9.34 9.34 0 0 0 0-2.27c-.12-.42-.65-1-1-1-3.46-.06-6.93-.19-10.37 0-5.24.36-8.51 4.18-8.4 9.43s3.83 9.23 9 9.38c3.57.11 7.14 0 10.71 0 .9 0 1.31-.22 1.29-1.2-.05-2.85-.06-5.7 0-8.55 0-1.05-.4-1.3-1.38-1.28M98.13 26.65c-1.58 0-3.17.06-4.75 0a6 6 0 0 1-5.88-6.21 5.92 5.92 0 0 1 6-6h4.54c4 .05 6.44 2.41 6.43 6.11s-2.49 6.09-6.41 6.16m1.53-15.5a40.4 40.4 0 0 0-7.63.06 8.31 8.31 0 0 0-7.13 5.14c-2.9 6.58 1.78 13.58 9.17 13.58h5a9.34 9.34 0 0 0 9-9.2c.21-5.26-3-9.13-8.33-9.62M170 26.8c-1.41 0-1.77-.45-1.73-1.8.09-3 .07-6.09 0-9.13 0-1.15.32-1.54 1.49-1.52 3.19.07 6.39 0 9.59 0H182v-3.11c-.2-.1-.29-.19-.39-.19-5.18 0-10.36 0-15.53-.06-1.1 0-1.05.65-1.05 1.42v17.58h17v-3.22h-1.87c-3.36 0-6.72-.07-10.08 0M147.19 10.99H144v19h16v-3.36h-12.81V10.99zM136 29.99h4v-19h-4v19zM37 20.37l7.28 7.62L48 24.6l-7.36-7.61L37 20.37"/><path fill="#fff" d="M171 20.99h11v-2h-11v2z"/></svg>
