<svg xmlns="http://www.w3.org/2000/svg" xmlns:xlink="http://www.w3.org/1999/xlink" viewBox="0 0 538 383">
  <defs>
    <linearGradient id="product_token-a" x1="100%" x2="1.612%" y1="29.278%" y2="60.083%">
      <stop offset="0%" stop-color="#0050FF"/>
      <stop offset="100%" stop-color="#0041CE" stop-opacity="0"/>
    </linearGradient>
    <circle id="product_token-c" cx="173.5" cy="173.5" r="173.5"/>
    <filter id="product_token-b" width="122.8%" height="122.8%" x="-11.4%" y="-7.1%" filterUnits="objectBoundingBox">
      <feMorphology in="SourceAlpha" operator="dilate" radius="1.5" result="shadowSpreadOuter1"/>
      <feOffset dy="2" in="shadowSpreadOuter1" result="shadowOffsetOuter1"/>
      <feGaussianBlur in="shadowOffsetOuter1" result="shadowBlurOuter1" stdDeviation="3"/>
      <feComposite in="shadowBlurOuter1" in2="SourceAlpha" operator="out" result="shadowBlurOuter1"/>
      <feColorMatrix in="shadowBlurOuter1" result="shadowMatrixOuter1" values="0 0 0 0 0.694117647   0 0 0 0 0.752941176   0 0 0 0 0.839215686  0 0 0 0.4 0"/>
      <feMorphology in="SourceAlpha" operator="dilate" radius="1.5" result="shadowSpreadOuter2"/>
      <feOffset dy="13" in="shadowSpreadOuter2" result="shadowOffsetOuter2"/>
      <feGaussianBlur in="shadowOffsetOuter2" result="shadowBlurOuter2" stdDeviation="8.5"/>
      <feComposite in="shadowBlurOuter2" in2="SourceAlpha" operator="out" result="shadowBlurOuter2"/>
      <feColorMatrix in="shadowBlurOuter2" result="shadowMatrixOuter2" values="0 0 0 0 0.705882353   0 0 0 0 0.788235294   0 0 0 0 0.952941176  0 0 0 0.35 0"/>
      <feMerge>
        <feMergeNode in="shadowMatrixOuter1"/>
        <feMergeNode in="shadowMatrixOuter2"/>
      </feMerge>
    </filter>
    <filter id="product_token-d" width="138.3%" height="138.3%" x="-19.2%" y="-14.8%" filterUnits="objectBoundingBox">
      <feGaussianBlur in="SourceAlpha" result="shadowBlurInner1" stdDeviation="30"/>
      <feOffset dy="-20" in="shadowBlurInner1" result="shadowOffsetInner1"/>
      <feComposite in="shadowOffsetInner1" in2="SourceAlpha" k2="-1" k3="1" operator="arithmetic" result="shadowInnerInner1"/>
      <feColorMatrix in="shadowInnerInner1" result="shadowMatrixInner1" values="0 0 0 0 0.960784314   0 0 0 0 0.976470588   0 0 0 0 1  0 0 0 0 0"/>
      <feGaussianBlur in="SourceAlpha" result="shadowBlurInner2" stdDeviation="41.5"/>
      <feOffset dy="1" in="shadowBlurInner2" result="shadowOffsetInner2"/>
      <feComposite in="shadowOffsetInner2" in2="SourceAlpha" k2="-1" k3="1" operator="arithmetic" result="shadowInnerInner2"/>
      <feColorMatrix in="shadowInnerInner2" result="shadowMatrixInner2" values="0 0 0 0 0.450980392   0 0 0 0 0.68627451   0 0 0 0 1  0 0 0 0.1 0"/>
      <feMerge>
        <feMergeNode in="shadowMatrixInner1"/>
        <feMergeNode in="shadowMatrixInner2"/>
      </feMerge>
    </filter>
  </defs>
  <g fill="none" fill-rule="evenodd" transform="translate(18 5)">
    <circle cx="332.5" cy="172.5" r="172.5" fill="url(#product_token-a)" opacity=".78"/>
    <g opacity=".2" transform="rotate(-119 332.262 39.267)">
      <path stroke="#FFF" stroke-linecap="square" d="M51.5 58.5L73.0522621 36.9477379M6.51675758 66.2786825L70.4957815 2.29965855M50.5 61.5L126.379883 78.6367188M70.7546872 3.11517544L75.1794919 33.9833395M8.29937345 65.7969783L51.4755821 59.6712898M74.7604344 35.7128502L104.296635 73.6855097"/>
      <circle cx="50" cy="61" r="5" fill="#FFF"/>
      <circle cx="5.668" cy="66.888" r="5" fill="#FFF"/>
      <circle cx="75" cy="35" r="3" fill="#FFF"/>
      <circle cx="70.179" cy="3.349" r="3" fill="#FFF"/>
      <circle cx="104.5" cy="73.866" r="3" fill="#FFF"/>
      <circle cx="128" cy="79" r="3" fill="#FFF"/>
    </g>
    <g opacity=".2" transform="rotate(117 167.675 216.993)">
      <path stroke="#FFF" stroke-linecap="square" d="M6.5 58.5L28.0522621 36.9477379M5.5 61.5L81.3798828 78.6367188M25.7546872 3.11517544L30.1794919 33.9833395M29.7604344 35.7128502L59.2966349 73.6855097"/>
      <circle cx="5" cy="61" r="5" fill="#FFF"/>
      <circle cx="30" cy="35" r="3" fill="#FFF"/>
      <circle cx="25.179" cy="3.349" r="3" fill="#FFF"/>
      <circle cx="59.5" cy="73.866" r="3" fill="#FFF"/>
      <circle cx="83" cy="79" r="3" fill="#FFF"/>
    </g>
    <g opacity=".2" transform="rotate(150 189.848 95.889)">
      <path stroke="#FFF" stroke-linecap="square" d="M6.5 58.5L28.0522621 36.9477379M5.5 61.5L81.3798828 78.6367188M25.7546872 3.11517544L30.1794919 33.9833395M29.7604344 35.7128502L59.2966349 73.6855097"/>
      <circle cx="5" cy="61" r="5" fill="#FFF"/>
      <circle cx="30" cy="35" r="3" fill="#FFF"/>
      <circle cx="25.179" cy="3.349" r="3" fill="#FFF"/>
      <circle cx="59.5" cy="73.866" r="3" fill="#FFF"/>
      <circle cx="83" cy="79" r="3" fill="#FFF"/>
    </g>
    <use fill="#000" filter="url(#product_token-b)" xlink:href="#product_token-c"/>
    <use fill="#FFF" xlink:href="#product_token-c"/>
    <use fill="#000" filter="url(#product_token-d)" xlink:href="#product_token-c"/>
    <use stroke="#FFF" stroke-width="3" xlink:href="#product_token-c"/>
    <circle cx="174" cy="54" r="5" fill="#DFE4EE"/>
    <circle cx="174" cy="74" r="5" fill="#DFE4EE"/>
    <circle cx="174" cy="94" r="5" fill="#DFE4EE"/>
    <circle cx="174" cy="114" r="5" fill="#DFE4EE"/>
    <circle cx="174" cy="232" r="5" fill="#DFE4EE"/>
    <circle cx="54" cy="174" r="5" fill="#DFE4EE"/>
    <circle cx="75" cy="174" r="5" fill="#DFE4EE"/>
    <circle cx="75" cy="154" r="5" fill="#DFE4EE"/>
    <circle cx="95" cy="174" r="5" fill="#DFE4EE"/>
    <circle cx="291" cy="174" r="5" fill="#DFE4EE"/>
    <circle cx="291" cy="194" r="5" fill="#DFE4EE"/>
    <circle cx="270" cy="174" r="5" fill="#DFE4EE"/>
    <circle cx="270" cy="194" r="5" fill="#DFE4EE"/>
    <circle cx="270" cy="154" r="5" fill="#DFE4EE"/>
    <circle cx="270" cy="154" r="5" fill="#DFE4EE"/>
    <circle cx="250" cy="174" r="5" fill="#DFE4EE"/>
    <circle cx="174" cy="252" r="5" fill="#DFE4EE"/>
    <circle cx="174" cy="272" r="5" fill="#DFE4EE"/>
    <circle cx="174" cy="292" r="5" fill="#DFE4EE"/>
    <circle cx="154" cy="292" r="5" fill="#DFE4EE"/>
    <circle cx="134" cy="292" r="5" fill="#DFE4EE"/>
    <circle cx="134" cy="272" r="5" fill="#DFE4EE"/>
    <circle cx="154" cy="272" r="5" fill="#DFE4EE"/>
    <circle cx="154" cy="252" r="5" fill="#DFE4EE"/>
    <circle cx="194" cy="114" r="5" fill="#DFE4EE"/>
    <circle cx="214" cy="94" r="5" fill="#DFE4EE"/>
    <circle cx="194" cy="94" r="5" fill="#DFE4EE"/>
  </g>
</svg>
