<svg xmlns="http://www.w3.org/2000/svg" xmlns:xlink="http://www.w3.org/1999/xlink" width="610" height="391" viewBox="0 0 610 391">
  <defs>
    <path id="code-b" d="M4,-7.99357867e-15 L586,4.3946853e-13 L586,4.42312853e-13 C588.209139,3.79119533e-13 590,1.790861 590,4 L590,367 L590,367 C590,369.209139 588.209139,371 586,371 L4,371 L4,371 C1.790861,371 2.705415e-16,369.209139 0,367 L0,4 L-3.55271368e-15,4 C-3.82325518e-15,1.790861 1.790861,4.05816873e-16 4,0 Z"/>
    <filter id="code-a" width="105.4%" height="108.6%" x="-2.7%" y="-3.8%" filterUnits="objectBoundingBox">
      <feOffset dy="2" in="SourceAlpha" result="shadowOffsetOuter1"/>
      <feGaussianBlur in="shadowOffsetOuter1" result="shadowBlurOuter1" stdDeviation="5"/>
      <feColorMatrix in="shadowBlurOuter1" values="0 0 0 0 0.59345609   0 0 0 0 0.653819356   0 0 0 0 0.741443452  0 0 0 0.2 0"/>
    </filter>
  </defs>
  <g fill="none" fill-rule="evenodd" transform="translate(9 8)">
    <g transform="translate(1)">
      <use fill="#000" filter="url(#code-a)" xlink:href="#code-b"/>
      <use fill="#FFF" xlink:href="#code-b"/>
    </g>
    <path fill="#A2E0F5" fill-rule="nonzero" d="M60 118L111 118C112.656854 118 114 116.656854 114 115 114 113.343146 112.656854 112 111 112L60 112C58.3431458 112 57 113.343146 57 115 57 116.656854 58.3431458 118 60 118zM240 281L291 281C292.656854 281 294 279.656854 294 278 294 276.343146 292.656854 275 291 275L240 275C238.343146 275 237 276.343146 237 278 237 279.656854 238.343146 281 240 281zM145 144L156 144C157.656854 144 159 142.656854 159 141 159 139.343146 157.656854 138 156 138L145 138C143.343146 138 142 139.343146 142 141 142 142.656854 143.343146 144 145 144z"/>
    <path fill="#4F89DC" fill-rule="nonzero" d="M124 118L168 118C169.656854 118 171 116.656854 171 115 171 113.343146 169.656854 112 168 112L124 112C122.343146 112 121 113.343146 121 115 121 116.656854 122.343146 118 124 118zM150 207L194 207C195.656854 207 197 205.656854 197 204 197 202.343146 195.656854 201 194 201L150 201C148.343146 201 147 202.343146 147 204 147 205.656854 148.343146 207 150 207zM145 131L319 131C320.656854 131 322 129.656854 322 128 322 126.343146 320.656854 125 319 125L145 125C143.343146 125 142 126.343146 142 128 142 129.656854 143.343146 131 145 131zM144 157L367 157C368.656854 157 370 155.656854 370 154 370 152.343146 368.656854 151 367 151L144 151C142.343146 151 141 152.343146 141 154 141 155.656854 142.343146 157 144 157z"/>
    <path fill="#DFE4EE" fill-rule="nonzero" d="M181 118L225 118C226.656854 118 228 116.656854 228 115 228 113.343146 226.656854 112 225 112L181 112C179.343146 112 178 113.343146 178 115 178 116.656854 179.343146 118 181 118zM99 131L132 131C133.656854 131 135 129.656854 135 128 135 126.343146 133.656854 125 132 125L99 125C97.3431458 125 96 126.343146 96 128 96 129.656854 97.3431458 131 99 131zM99 144L132 144C133.656854 144 135 142.656854 135 141 135 139.343146 133.656854 138 132 138L99 138C97.3431458 138 96 139.343146 96 141 96 142.656854 97.3431458 144 99 144zM99 157L132 157C133.656854 157 135 155.656854 135 154 135 152.343146 133.656854 151 132 151L99 151C97.3431458 151 96 152.343146 96 154 96 155.656854 97.3431458 157 99 157zM61 170L164 170C165.656854 170 167 168.656854 167 167 167 165.343146 165.656854 164 164 164L61 164C59.3431458 164 58 165.343146 58 167 58 168.656854 59.3431458 170 61 170zM98 183L164 183C165.656854 183 167 181.656854 167 180 167 178.343146 165.656854 177 164 177L98 177C96.3431458 177 95 178.343146 95 180 95 181.656854 96.3431458 183 98 183zM98 207L118 207C119.656854 207 121 205.656854 121 204 121 202.343146 119.656854 201 118 201L98 201C96.3431458 201 95 202.343146 95 204 95 205.656854 96.3431458 207 98 207zM207 207L397 207C398.656854 207 400 205.656854 400 204 400 202.343146 398.656854 201 397 201L207 201C205.343146 201 204 202.343146 204 204 204 205.656854 205.343146 207 207 207zM304 281L534 281C535.656854 281 537 279.656854 537 278 537 276.343146 535.656854 275 534 275L304 275C302.343146 275 301 276.343146 301 278 301 279.656854 302.343146 281 304 281z"/>
    <path fill="#85BBFF" fill-rule="nonzero" d="M130,207 L137,207 C138.656854,207 140,205.656854 140,204 C140,202.343146 138.656854,201 137,201 L130,201 C128.343146,201 127,202.343146 127,204 C127,205.656854 128.343146,207 130,207 Z"/>
    <path fill="#DFE4EE" fill-rule="nonzero" d="M98 195L338 195C339.656854 195 341 193.656854 341 192 341 190.343146 339.656854 189 338 189L98 189C96.3431458 189 95 190.343146 95 192 95 193.656854 96.3431458 195 98 195zM98 219L338 219C339.656854 219 341 217.656854 341 216 341 214.343146 339.656854 213 338 213L98 213C96.3431458 213 95 214.343146 95 216 95 217.656854 96.3431458 219 98 219z"/>
    <path fill="#4F89DC" fill-rule="nonzero" d="M150,231 L194,231 C195.656854,231 197,229.656854 197,228 C197,226.343146 195.656854,225 194,225 L150,225 C148.343146,225 147,226.343146 147,228 C147,229.656854 148.343146,231 150,231 Z"/>
    <path fill="#DFE4EE" fill-rule="nonzero" d="M98 231L118 231C119.656854 231 121 229.656854 121 228 121 226.343146 119.656854 225 118 225L98 225C96.3431458 225 95 226.343146 95 228 95 229.656854 96.3431458 231 98 231zM207 231L397 231C398.656854 231 400 229.656854 400 228 400 226.343146 398.656854 225 397 225L207 225C205.343146 225 204 226.343146 204 228 204 229.656854 205.343146 231 207 231z"/>
    <path fill="#85BBFF" fill-rule="nonzero" d="M130,231 L137,231 C138.656854,231 140,229.656854 140,228 C140,226.343146 138.656854,225 137,225 L130,225 C128.343146,225 127,226.343146 127,228 C127,229.656854 128.343146,231 130,231 Z"/>
    <path fill="#DFE4EE" fill-rule="nonzero" d="M98,243 L338,243 C339.656854,243 341,241.656854 341,240 C341,238.343146 339.656854,237 338,237 L98,237 C96.3431458,237 95,238.343146 95,240 C95,241.656854 96.3431458,243 98,243 Z"/>
    <path fill="#4F89DC" fill-rule="nonzero" d="M150,293 L194,293 C195.656854,293 197,291.656854 197,290 C197,288.343146 195.656854,287 194,287 L150,287 C148.343146,287 147,288.343146 147,290 C147,291.656854 148.343146,293 150,293 Z"/>
    <path fill="#DFE4EE" fill-rule="nonzero" d="M98 293L118 293C119.656854 293 121 291.656854 121 290 121 288.343146 119.656854 287 118 287L98 287C96.3431458 287 95 288.343146 95 290 95 291.656854 96.3431458 293 98 293zM207 293L397 293C398.656854 293 400 291.656854 400 290 400 288.343146 398.656854 287 397 287L207 287C205.343146 287 204 288.343146 204 290 204 291.656854 205.343146 293 207 293z"/>
    <path fill="#85BBFF" fill-rule="nonzero" d="M130,293 L137,293 C138.656854,293 140,291.656854 140,290 C140,288.343146 138.656854,287 137,287 L130,287 C128.343146,287 127,288.343146 127,290 C127,291.656854 128.343146,293 130,293 Z"/>
    <path fill="#DFE4EE" fill-rule="nonzero" d="M98 305L338 305C339.656854 305 341 303.656854 341 302 341 300.343146 339.656854 299 338 299L98 299C96.3431458 299 95 300.343146 95 302 95 303.656854 96.3431458 305 98 305zM98 281L118 281C119.656854 281 121 279.656854 121 278 121 276.343146 119.656854 275 118 275L98 275C96.3431458 275 95 276.343146 95 278 95 279.656854 96.3431458 281 98 281zM129 281L227 281C228.656854 281 230 279.656854 230 278 230 276.343146 228.656854 275 227 275L129 275C127.343146 275 126 276.343146 126 278 126 279.656854 127.343146 281 129 281z"/>
    <path fill="#A2E0F5" fill-rule="nonzero" d="M240,256 L291,256 C292.656854,256 294,254.656854 294,253 C294,251.343146 292.656854,250 291,250 L240,250 C238.343146,250 237,251.343146 237,253 C237,254.656854 238.343146,256 240,256 Z"/>
    <path fill="#4F89DC" fill-rule="nonzero" d="M150,256 L194,256 C195.656854,256 197,254.656854 197,253 C197,251.343146 195.656854,250 194,250 L150,250 C148.343146,250 147,251.343146 147,253 C147,254.656854 148.343146,256 150,256 Z"/>
    <path fill="#DFE4EE" fill-rule="nonzero" d="M304,256 L474,256 C475.656854,256 477,254.656854 477,253 C477,251.343146 475.656854,250 474,250 L304,250 C302.343146,250 301,251.343146 301,253 C301,254.656854 302.343146,256 304,256 Z"/>
    <path fill="#85BBFF" fill-rule="nonzero" d="M131,256 L138,256 C139.656854,256 141,254.656854 141,253 C141,251.343146 139.656854,250 138,250 L131,250 C129.343146,250 128,251.343146 128,253 C128,254.656854 129.343146,256 131,256 Z"/>
    <path fill="#DFE4EE" fill-rule="nonzero" d="M98 256L118 256C119.656854 256 121 254.656854 121 253 121 251.343146 119.656854 250 118 250L98 250C96.3431458 250 95 251.343146 95 253 95 254.656854 96.3431458 256 98 256zM207 256L227 256C228.656854 256 230 254.656854 230 253 230 251.343146 228.656854 250 227 250L207 250C205.343146 250 204 251.343146 204 253 204 254.656854 205.343146 256 207 256z"/>
    <path fill="#A2E0F5" fill-rule="nonzero" d="M240,268 L291,268 C292.656854,268 294,266.656854 294,265 C294,263.343146 292.656854,262 291,262 L240,262 C238.343146,262 237,263.343146 237,265 C237,266.656854 238.343146,268 240,268 Z"/>
    <path fill="#4F89DC" fill-rule="nonzero" d="M150,268 L194,268 C195.656854,268 197,266.656854 197,265 C197,263.343146 195.656854,262 194,262 L150,262 C148.343146,262 147,263.343146 147,265 C147,266.656854 148.343146,268 150,268 Z"/>
    <path fill="#DFE4EE" fill-rule="nonzero" d="M304,268 L474,268 C475.656854,268 477,266.656854 477,265 C477,263.343146 475.656854,262 474,262 L304,262 C302.343146,262 301,263.343146 301,265 C301,266.656854 302.343146,268 304,268 Z"/>
    <path fill="#85BBFF" fill-rule="nonzero" d="M131,268 L138,268 C139.656854,268 141,266.656854 141,265 C141,263.343146 139.656854,262 138,262 L131,262 C129.343146,262 128,263.343146 128,265 C128,266.656854 129.343146,268 131,268 Z"/>
    <path fill="#DFE4EE" fill-rule="nonzero" d="M98 268L118 268C119.656854 268 121 266.656854 121 265 121 263.343146 119.656854 262 118 262L98 262C96.3431458 262 95 263.343146 95 265 95 266.656854 96.3431458 268 98 268zM207 268L227 268C228.656854 268 230 266.656854 230 265 230 263.343146 228.656854 262 227 262L207 262C205.343146 262 204 263.343146 204 265 204 266.656854 205.343146 268 207 268zM62 317L82 317C83.6568542 317 85 315.656854 85 314 85 312.343146 83.6568542 311 82 311L62 311C60.3431458 311 59 312.343146 59 314 59 315.656854 60.3431458 317 62 317z"/>
    <circle cx="36" cy="35" r="6" fill="#DFE4EE"/>
    <circle cx="57" cy="35" r="6" fill="#DFE4EE"/>
    <circle cx="78" cy="35" r="6" fill="#DFE4EE"/>
    <polygon fill="#DFE4EE" fill-rule="nonzero" points="0 62 592.244 62 592.244 61 0 61" opacity=".5"/>
  </g>
</svg>
