<svg xmlns="http://www.w3.org/2000/svg" xmlns:xlink="http://www.w3.org/1999/xlink" width="100%" viewBox="0 0 620 401">
  <defs>
    <path id="code-b" d="M4,-7.99352446e-15 L586,4.39468611e-13 L586,4.42312853e-13 C588.209139,4.41907036e-13 590,1.790861 590,4 L590,367 L590,367 C590,369.209139 588.209139,371 586,371 L4,371 L4,371 C1.790861,371 3.16642949e-14,369.209139 0,367 L0,4 L-3.10862447e-15,4 C-3.37916597e-15,1.790861 1.790861,4.05816873e-16 4,0 Z"/>
    <filter id="code-a" width="111.4%" height="118.1%" x="-5.7%" y="-5.8%" filterUnits="objectBoundingBox">
      <feOffset dy="2" in="SourceAlpha" result="shadowOffsetOuter1"/>
      <feGaussianBlur in="shadowOffsetOuter1" result="shadowBlurOuter1" stdDeviation="3"/>
      <feColorMatrix in="shadowBlurOuter1" result="shadowMatrixOuter1" values="0 0 0 0 0.894132653   0 0 0 0 0.894132653   0 0 0 0 0.894132653  0 0 0 0.8 0"/>
      <feOffset dy="10" in="SourceAlpha" result="shadowOffsetOuter2"/>
      <feGaussianBlur in="shadowOffsetOuter2" result="shadowBlurOuter2" stdDeviation="7.5"/>
      <feColorMatrix in="shadowBlurOuter2" result="shadowMatrixOuter2" values="0 0 0 0 0.883184524   0 0 0 0 0.883184524   0 0 0 0 0.883184524  0 0 0 0.65 0"/>
      <feMerge>
        <feMergeNode in="shadowMatrixOuter1"/>
        <feMergeNode in="shadowMatrixOuter2"/>
      </feMerge>
    </filter>
  </defs>
  <g fill="none" fill-rule="evenodd" transform="translate(13 5)">
    <g transform="translate(2)">
      <use fill="#000" filter="url(#code-a)" xlink:href="#code-b"/>
      <use fill="#FFF" xlink:href="#code-b"/>
    </g>
    <path stroke="#B5BDCE" stroke-linecap="round" stroke-width="6" d="M60 117L111 117M240 280L291 280M145 143L156 143"/>
    <path stroke="#4F77FC" stroke-linecap="round" stroke-width="6" d="M124 117L168 117M150 206L194 206M145 130L319 130M144 156L367 156"/>
    <path stroke="#DFE4EE" stroke-linecap="round" stroke-width="6" d="M181 117L225 117M99 130L132 130M99 143L132 143M99 156L132 156M61 169L164 169M98 182L164 182M98 206L118 206M207 206L397 206M304 280L534 280"/>
    <path stroke="#85BBFF" stroke-linecap="round" stroke-width="6" d="M130,206 L137,206"/>
    <path stroke="#DFE4EE" stroke-linecap="round" stroke-width="6" d="M98 194L338 194M98 218L338 218"/>
    <path stroke="#4F77FC" stroke-linecap="round" stroke-width="6" d="M150,230 L194,230"/>
    <path stroke="#DFE4EE" stroke-linecap="round" stroke-width="6" d="M98 230L118 230M207 230L397 230"/>
    <path stroke="#85BBFF" stroke-linecap="round" stroke-width="6" d="M130,230 L137,230"/>
    <path stroke="#DFE4EE" stroke-linecap="round" stroke-width="6" d="M98,242 L338,242"/>
    <path stroke="#4F77FC" stroke-linecap="round" stroke-width="6" d="M150,292 L194,292"/>
    <path stroke="#DFE4EE" stroke-linecap="round" stroke-width="6" d="M98 292L118 292M207 292L397 292"/>
    <path stroke="#85BBFF" stroke-linecap="round" stroke-width="6" d="M130,292 L137,292"/>
    <path stroke="#DFE4EE" stroke-linecap="round" stroke-width="6" d="M98 304L338 304M98 280L118 280M129 280L227 280"/>
    <path stroke="#B5BDCE" stroke-linecap="round" stroke-width="6" d="M240,255 L291,255"/>
    <path stroke="#4F77FC" stroke-linecap="round" stroke-width="6" d="M150,255 L194,255"/>
    <path stroke="#DFE4EE" stroke-linecap="round" stroke-width="6" d="M304,255 L474,255"/>
    <path stroke="#85BBFF" stroke-linecap="round" stroke-width="6" d="M131,255 L138,255"/>
    <path stroke="#DFE4EE" stroke-linecap="round" stroke-width="6" d="M98 255L118 255M207 255L227 255"/>
    <path stroke="#B5BDCE" stroke-linecap="round" stroke-width="6" d="M240,267 L291,267"/>
    <path stroke="#4F77FC" stroke-linecap="round" stroke-width="6" d="M150,267 L194,267"/>
    <path stroke="#DFE4EE" stroke-linecap="round" stroke-width="6" d="M304,267 L474,267"/>
    <path stroke="#85BBFF" stroke-linecap="round" stroke-width="6" d="M131,267 L138,267"/>
    <path stroke="#DFE4EE" stroke-linecap="round" stroke-width="6" d="M98 267L118 267M207 267L227 267M62 316L82 316"/>
    <circle cx="36" cy="28" r="6" fill="#ED6B60"/>
    <circle cx="57" cy="28" r="6" fill="#F6C050"/>
    <circle cx="78" cy="28" r="6" fill="#64CA57"/>
    <path stroke="#DFE4EE" stroke-linecap="square" d="M0.5,53.5 L591.74445,53.5" opacity=".5"/>
  </g>
</svg>