<svg xmlns="http://www.w3.org/2000/svg" width="2560" height="968" viewBox="0 0 2560 968">
  <defs>
    <linearGradient id="1_bgr-a" x1="48.172%" x2="49.031%" y1="40.05%" y2="86.771%">
      <stop offset="0%" stop-color="#002FFF" stop-opacity=".67"/>
      <stop offset="100%" stop-color="#D8D8D8" stop-opacity="0"/>
    </linearGradient>
    <linearGradient id="1_bgr-b" x1="52.318%" x2="50.029%" y1="-32.698%" y2="97.888%">
      <stop offset="0%" stop-color="#32FFFD" stop-opacity="0"/>
      <stop offset="98.358%" stop-color="#009FFF" stop-opacity=".86"/>
    </linearGradient>
    <linearGradient id="1_bgr-c" x1="50%" x2="52.649%" y1="0%" y2="59.813%">
      <stop offset="0%" stop-color="#006CFF" stop-opacity=".66"/>
      <stop offset="100%" stop-color="#D8D8D8" stop-opacity="0"/>
    </linearGradient>
    <linearGradient id="1_bgr-d" x1="52.122%" x2="50%" y1="19.645%" y2="100%">
      <stop offset="0%" stop-color="#0053FF" stop-opacity=".6"/>
      <stop offset="100%" stop-color="#D8D8D8" stop-opacity="0"/>
    </linearGradient>
    <linearGradient id="1_bgr-e" x1="50%" x2="50%" y1="13.917%" y2="100%">
      <stop offset="0%" stop-color="#0053FF" stop-opacity=".5"/>
      <stop offset="100%" stop-color="#D8D8D8" stop-opacity="0"/>
    </linearGradient>
    <linearGradient id="1_bgr-f" x1="49.333%" x2="50%" y1="-1.985%" y2="98.89%">
      <stop offset="0%" stop-color="#0053FF" stop-opacity=".63"/>
      <stop offset="100%" stop-color="#D8D8D8" stop-opacity="0"/>
    </linearGradient>
    <linearGradient id="1_bgr-g" x1="50%" x2="52.649%" y1="0%" y2="59.813%">
      <stop offset="0%" stop-color="#1E00FF" stop-opacity=".4"/>
      <stop offset="100%" stop-color="#D8D8D8" stop-opacity="0"/>
    </linearGradient>
  </defs>
  <g fill="none" fill-rule="evenodd" transform="translate(-403 -605)">
    <rect width="2752" height="930" x="311" y="582" fill="url(#1_bgr-a)"/>
    <rect width="3000" height="800" x="183" y="454" opacity=".6" transform="rotate(-5 1683 854)"/>
    <rect width="3000" height="800" x="183" y="454" fill="url(#1_bgr-b)" opacity=".6" transform="rotate(-5 1683 854)"/>
    <polygon fill="url(#1_bgr-c)" points="361.26 589.601 2010.329 590.473 1916.072 1675.892 276.964 1675.892" opacity=".6" transform="rotate(-5 1143.647 1132.747)"/>
    <polygon fill="#0053FF" fill-opacity=".5" points="2300.336 73.47 3949.405 74.341 3855.148 1159.76 2216.04 1159.76" opacity=".6" transform="rotate(175 3082.723 616.615)"/>
    <rect width="766" height="698" x="1683" y="582" fill="url(#1_bgr-d)"/>
    <rect width="766" height="698" y="560" fill="url(#1_bgr-e)"/>
    <polygon fill="url(#1_bgr-f)" points="710.365 742.803 1888.365 742.803 1820.624 1522.876 642.624 1522.876" transform="rotate(-5 1265.494 1132.84)"/>
    <polygon fill="url(#1_bgr-g)" points="1777.336 119.47 3426.405 120.341 3332.148 1205.76 1693.04 1205.76" opacity=".6" transform="rotate(175 2559.723 662.615)"/>
    <polygon fill="#0053FF" fill-opacity=".5" points="1777.336 119.47 3426.405 120.341 3332.148 1205.76 1693.04 1205.76" opacity=".5" transform="rotate(175 2559.723 662.615)"/>
  </g>
</svg>
