<svg xmlns="http://www.w3.org/2000/svg" width="2560" height="1301" viewBox="0 0 2560 1301">
  <defs>
    <linearGradient id="6_bgr-a" x1="50%" x2="52.195%" y1="79.509%" y2="-25.589%">
      <stop offset="0%" stop-color="#EEE" stop-opacity="0"/>
      <stop offset="100%" stop-color="#24406E" stop-opacity=".1"/>
    </linearGradient>
    <linearGradient id="6_bgr-b" x1="50.018%" x2="52.247%" y1="98.533%" y2="-27.44%">
      <stop offset="0%" stop-color="#EEE" stop-opacity="0"/>
      <stop offset="100%" stop-color="#006CFF" stop-opacity=".39"/>
    </linearGradient>
    <linearGradient id="6_bgr-c" x1="44.73%" x2="50%" y1="-38.038%" y2="98.89%">
      <stop offset="0%" stop-color="#0035FF" stop-opacity=".07"/>
      <stop offset="100%" stop-color="#D8D8D8" stop-opacity="0"/>
    </linearGradient>
    <linearGradient id="6_bgr-d" x1="48.3%" x2="60.029%" y1="11.747%" y2="174.022%">
      <stop offset="0%" stop-color="#24406E" stop-opacity=".27"/>
      <stop offset="100%" stop-color="#D8D8D8" stop-opacity="0"/>
    </linearGradient>
    <linearGradient id="6_bgr-e" x1="49.333%" x2="50.833%" y1="-1.985%" y2="68.98%">
      <stop offset="0%" stop-color="#0B00FF" stop-opacity=".43"/>
      <stop offset="100%" stop-color="#D8D8D8" stop-opacity="0"/>
    </linearGradient>
    <linearGradient id="6_bgr-f" x1="49.333%" x2="50.833%" y1="-1.985%" y2="68.98%">
      <stop offset="0%" stop-color="#004AFF" stop-opacity=".13"/>
      <stop offset="100%" stop-color="#D8D8D8" stop-opacity="0"/>
    </linearGradient>
    <linearGradient id="6_bgr-g" x1="49.333%" x2="50.833%" y1="-1.985%" y2="68.98%">
      <stop offset="0%" stop-color="#00C7FF" stop-opacity=".43"/>
      <stop offset="100%" stop-color="#D8D8D8" stop-opacity="0"/>
    </linearGradient>
  </defs>
  <g fill="none" fill-rule="evenodd" transform="rotate(180 1701 788)">
    <rect width="2800" height="560" x="722" y="389" fill="#24406E" transform="rotate(-5 2122 669)"/>
    <rect width="3000" height="800" x="749" y="378" fill="url(#6_bgr-a)" opacity=".6" transform="rotate(-5 2249 778)"/>
    <rect width="3000" height="800" x="749" y="759" fill="url(#6_bgr-b)" opacity=".2" transform="rotate(-5 2249 1159)"/>
    <polygon fill="url(#6_bgr-c)" points="2610.825 298.403 3788.825 298.403 3739.387 869.276 2561.387 869.276" transform="rotate(-5 3175.106 583.84)"/>
    <polygon fill="url(#6_bgr-d)" points="850.088 442.765 2213.623 444.509 2163.335 1025.904 799.8 1024.161" opacity=".5" transform="rotate(175 1506.711 734.335)"/>
    <polygon fill="url(#6_bgr-e)" points="99.365 516.803 1277.365 516.803 1209.624 1296.876 31.624 1296.876" opacity=".2" transform="rotate(-5 654.494 906.84)"/>
    <polygon fill="url(#6_bgr-f)" points="407.365 543.803 1585.365 543.803 1517.624 1323.876 339.624 1323.876" opacity=".2" transform="rotate(-5 962.494 933.84)"/>
    <polygon fill="url(#6_bgr-g)" points="2896.365 52.803 4074.365 52.803 4006.624 832.876 2828.624 832.876" opacity=".2" transform="rotate(175 3451.494 442.84)"/>
  </g>
</svg>
