<svg xmlns="http://www.w3.org/2000/svg" width="100%" height="100%" viewBox="0 0 12 12">
  <g fill="currentColor">
    <path d="M11.9267409,0.0732590012 C11.8799722,0.0262022876 11.8163151,-0.000178741632 11.7499702,9.11592176e-07 L7.74949968,9.11592176e-07 C7.61141225,9.11592176e-07 7.49947028,0.111942085 7.49947028,0.250028521 C7.49947028,0.388114957 7.61141225,0.500056131 7.74949968,0.500056131 L11.1463992,0.500056131 L5.07243484,6.57397685 C4.97553521,6.67175547 4.97590269,6.8294676 5.07325693,6.92679361 C5.17061116,7.02411961 5.32832452,7.02444248 5.42607643,6.92751589 L11.4999408,0.853595171 L11.4999408,4.25047028 C11.4999408,4.38855671 11.6118827,4.50049788 11.7499702,4.50049788 C11.8880576,4.50049788 11.9999996,4.38855671 11.9999996,4.25047028 L11.9999996,0.250028521 C12.0001235,0.18369507 11.9737508,0.12005905 11.9267409,0.0732590012 Z"/>
    <path d="M10.7380952,6.23809524 C10.5934492,6.23809524 10.4761905,6.35535399 10.4761905,6.5 L10.4761905,11.2142857 C10.4761905,11.3589317 10.3589317,11.4761905 10.2142857,11.4761905 L0.785714286,11.4761905 C0.64106828,11.4761905 0.523809524,11.3589317 0.523809524,11.2142857 L0.523809524,1.78571429 C0.523809524,1.64106828 0.64106828,1.52380952 0.785714286,1.52380952 L5.5,1.52380952 C5.64464601,1.52380952 5.76190476,1.40655077 5.76190476,1.26190476 C5.76190476,1.11725876 5.64464601,1 5.5,1 L0.785714286,1 C0.351776268,1 5.31420804e-17,1.35177627 0,1.78571429 L0,11.2142857 C8.23970846e-16,11.6482237 0.351776268,12 0.785714286,12 L10.2142857,12 C10.6482237,12 11,11.6482237 11,11.2142857 L11,6.5 C11,6.35535399 10.8827412,6.23809524 10.7380952,6.23809524 Z"/>
  </g>
</svg>
