<?xml version="1.0" encoding="UTF-8"?>
<svg width="20px" height="16px" viewBox="0 0 20 16" version="1.1" xmlns="http://www.w3.org/2000/svg" xmlns:xlink="http://www.w3.org/1999/xlink">
    <g id="Page-1" stroke="none" stroke-width="1" fill="none" fill-rule="evenodd">
        <g id="icon-discord" transform="translate(0.000000, -2.000000)">
            <g>
                <rect id="Rectangle-2" fill-opacity="0" fill="#D8D8D8" x="0" y="0" width="20" height="20"></rect>
                <path d="M17.2625,4.54873047 C17.2625,4.54873047 15.18125,2.91748047 12.71875,2.72998047 L12.5,3.17373047 C14.725,3.71748047 15.74375,4.49873047 16.8125,5.45498047 C14.975,4.51748047 13.15625,3.63623047 9.99375,3.63623047 C6.83125,3.63623047 5.0125,4.51748047 3.175,5.45498047 C4.24375,4.49873047 5.45625,3.62998047 7.4875,3.17373047 L7.26875,2.72998047 C4.6875,2.97373047 2.725,4.54873047 2.725,4.54873047 C2.725,4.54873047 0.4,7.92373047 0,14.5487305 C2.34375,17.2549805 5.90625,17.2737305 5.90625,17.2737305 L6.65,16.2799805 C5.3875,15.8424805 3.95625,15.0549805 2.725,13.6362305 C4.19375,14.7487305 6.41875,15.9112305 10,15.9112305 C13.58125,15.9112305 15.8,14.7549805 17.275,13.6362305 C16.04375,15.0549805 14.6125,15.8424805 13.35,16.2799805 L14.09375,17.2737305 C14.09375,17.2737305 17.65625,17.2549805 20,14.5487305 C19.5875,7.92373047 17.2625,4.54873047 17.2625,4.54873047 Z M7.03125,12.7299805 C6.15,12.7299805 5.4375,11.9174805 5.4375,10.9112305 C5.4375,9.90498047 6.15,9.09248047 7.03125,9.09248047 C7.9125,9.09248047 8.625,9.90498047 8.625,10.9112305 C8.625,11.9174805 7.9125,12.7299805 7.03125,12.7299805 Z M12.94375,12.7299805 C12.0625,12.7299805 11.35,11.9174805 11.35,10.9112305 C11.35,9.90498047 12.0625,9.09248047 12.94375,9.09248047 C13.825,9.09248047 14.5375,9.90498047 14.5375,10.9112305 C14.5375,11.9174805 13.81875,12.7299805 12.94375,12.7299805 Z" id="logo" fill="#AEAEAE" fill-rule="nonzero"></path>
            </g>
        </g>
    </g>
</svg>