<svg xmlns="http://www.w3.org/2000/svg" xmlns:xlink="http://www.w3.org/1999/xlink" width="107" height="107" viewBox="0 0 107 107">
    <defs>
        <path id="b" d="M87 43.5C87 67.524 67.524 87 43.5 87S0 67.524 0 43.5 19.476 0 43.5 0 87 19.476 87 43.5"/>
        <filter id="a" width="136.8%" height="136.8%" x="-18.4%" y="-16.1%" filterUnits="objectBoundingBox">
            <feOffset dy="2" in="SourceAlpha" result="shadowOffsetOuter1"/>
            <feGaussianBlur in="shadowOffsetOuter1" result="shadowBlurOuter1" stdDeviation="5"/>
            <feColorMatrix in="shadowBlurOuter1" values="0 0 0 0 0.403921569 0 0 0 0 0.647058824 0 0 0 0 1 0 0 0 0.2 0"/>
        </filter>
    </defs>
    <g fill="none" fill-rule="evenodd">
        <g transform="translate(10 8)">
            <use fill="#000" filter="url(#a)" xlink:href="#b"/>
            <use fill="#FFF" xlink:href="#b"/>
        </g>
        <path fill="#4F89DC" d="M72.5 69h-38c-2.2 0-4-1.8-4-4V38c0-2.2 1.8-4 4-4h38c2.2 0 4 1.8 4 4v27c0 2.2-1.8 4-4 4"/>
        <path fill="#0044BA" d="M68.125 69H34.5c-2.2 0-4-1.8-4-4v-9"/>
        <path fill="#C0EFF8" d="M71.5 51.5a2 2 0 1 1-4.001-.001 2 2 0 0 1 4.001.001"/>
        <path fill="#C0EFF8" fill-rule="nonzero" d="M76.5 56v-9h-10a2.512 2.512 0 0 0-2.5 2.5v4c0 1.372 1.128 2.5 2.5 2.5h10zm0 3h-10a5.512 5.512 0 0 1-5.5-5.5v-4c0-3.028 2.472-5.5 5.5-5.5h10v15z"/>
    </g>
</svg>
