<svg xmlns="http://www.w3.org/2000/svg" width="8" height="6" viewBox="0 0 8 6">
  <path fill="#FFF" d="M7.51950812,9.56142722 L7.51950812,9.56142722 L7.51950812,9.56142722 C7.22694133,9.87760123 7.22892446,10.3662576 7.52404785,10.6800466 L10.9600207,14.3333333 L14.4691483,10.6873046 L14.4691483,10.6873046 C14.7681008,10.3766891 14.7757082,9.88769958 14.4865628,9.56793482 L14.4865628,9.56793482 L14.4865628,9.56793482 C14.222019,9.275377 13.770399,9.25266709 13.4778412,9.51721082 C13.4655903,9.52828862 13.4537274,9.53978807 13.4422739,9.55168843 L10.9719284,12.1184091 L8.5630641,9.55719213 L8.5630641,9.55719213 C8.29306183,9.27011312 7.84145822,9.25626968 7.55437921,9.52627195 C7.54235231,9.53758343 7.53072162,9.54930891 7.51950812,9.56142722 Z" transform="translate(-7 -9)"/>
</svg>
