<svg xmlns="http://www.w3.org/2000/svg" xmlns:xlink="http://www.w3.org/1999/xlink" width="100%" height="100%" viewBox="0 0 439 271">
  <defs>
    <polygon id="leasing_2-a" points=".987 62 62.116 62 62.116 .87 .987 .87"/>
    <polygon id="leasing_2-c" points="0 .627 0 29.227 48.34 29.227 48.34 .627"/>
    <polygon id="leasing_2-e" points=".512 62 61.641 62 61.641 .87 .512 .87"/>
    <polygon id="leasing_2-g" points="302.683 .844 .437 .844 .437 253.065 302.683 253.065 302.683 .844"/>
  </defs>
  <g fill="none" fill-rule="evenodd" transform="translate(0 -3)">
    <polygon fill="#E0E1E6" fill-rule="nonzero" points="334.205 61.937 334.205 59.937 408.553 59.937 408.553 202.026 406.553 202.026 406.553 61.937"/>
    <polygon fill="#E0E1E6" points="340.832 69.117 342.197 67.652 334.973 60.939 342.197 54.224 340.832 52.76 332.036 60.939"/>
    <g transform="translate(0 28.156)">
      <path fill="#0053FD" d="M249.605,31.522 C249.605,48.402 235.921,62.086 219.041,62.086 C202.16,62.086 188.476,48.402 188.476,31.522 C188.476,14.642 202.16,0.957 219.041,0.957 C235.921,0.957 249.605,14.642 249.605,31.522"/>
      <polygon stroke="#FFF" stroke-width="2" points="219.076 44.196 206.402 31.522 219.076 18.847 231.751 31.522"/>
      <path fill="#0053FD" d="M177.1743,31.522 C177.1743,48.402 163.4903,62.086 146.6103,62.086 C129.7293,62.086 116.0453,48.402 116.0453,31.522 C116.0453,14.642 129.7293,0.957 146.6103,0.957 C163.4903,0.957 177.1743,14.642 177.1743,31.522"/>
      <polygon stroke="#FFF" stroke-width="2" points="146.645 44.196 133.971 31.522 146.645 18.847 159.32 31.522"/>
      <path fill="#0053FD" d="M119.4692,214.4346 C119.4692,231.3156 105.7842,244.9996 88.9052,244.9996 C72.0242,244.9996 58.3392,231.3156 58.3392,214.4346 C58.3392,197.5546 72.0242,183.8706 88.9052,183.8706 C105.7842,183.8706 119.4692,197.5546 119.4692,214.4346"/>
      <polygon stroke="#FFF" stroke-width="2" points="88.905 227.109 76.23 214.434 88.905 201.76 101.579 214.434"/>
      <path fill="#0053FD" d="M322.0356,31.522 C322.0356,48.402 308.3516,62.086 291.4716,62.086 C274.5906,62.086 260.9066,48.402 260.9066,31.522 C260.9066,14.642 274.5906,0.957 291.4716,0.957 C308.3516,0.957 322.0356,14.642 322.0356,31.522"/>
      <polygon stroke="#FFF" stroke-width="2" points="291.506 44.196 278.832 31.522 291.506 18.847 304.181 31.522"/>
      <path fill="#BABFC8" d="M354.2632,192.9932 C353.6782,186.7362 348.4072,181.8372 341.9802,181.8242 L341.9792,181.8242 C335.5522,181.8372 330.2812,186.7362 329.6952,192.9932 L327.4882,192.9932 L327.4882,195.3062 L341.9792,195.3062 L341.9802,195.3062 L356.4702,195.3062 L356.4702,192.9932 L354.2632,192.9932 Z"/>
      <polyline stroke="#FFF" stroke-width="2" points="338.245 181.724 338.245 189.466 345.715 189.466"/>
      <polygon fill="#E0E1E6" points="341.98 197.619 329.832 197.619 329.832 215.953 341.98 225.064 354.126 215.953 354.126 197.619"/>
      <polygon fill="#BABFC8" points="354.562 215.627 341.98 225.064 329.397 215.627 317.81 222.014 317.81 242.865 319.171 244.227 341.979 244.227 341.98 244.227 364.788 244.227 366.149 242.865 366.149 222.014"/>
      <polyline stroke="#FFF" stroke-width="2" points="345.714 181.724 345.714 189.466 341.955 189.466"/>
      <polyline stroke="#FFF" stroke-width="2" points="359.712 211.764 341.979 225.065 324.246 211.764"/>
      <g transform="translate(376 183)">
        <mask id="leasing_2-b" fill="#fff">
          <use xlink:href="#leasing_2-a"/>
        </mask>
        <polygon fill="#0053FE" points="31.551 62 .987 31.435 31.551 .87 62.116 31.435" mask="url(#leasing_2-b)"/>
      </g>
      <polyline stroke="#FFF" stroke-width="2" points="410.363 203.463 410.363 226.479 405.032 226.479 405.032 203.463"/>
      <path stroke="#FFF" stroke-width="2" d="M397.3394,207.7296 C403.0594,202.0086 412.3344,202.0086 418.0544,207.7296"/>
      <g transform="translate(0 215)">
        <mask id="leasing_2-d" fill="#fff">
          <use xlink:href="#leasing_2-c"/>
        </mask>
        <polygon fill="#BABFC8" points="36.752 .627 24.169 10.064 11.588 .627 -.001 7.014 -.001 27.865 1.361 29.227 24.169 29.227 46.978 29.227 48.34 27.865 48.34 7.014" mask="url(#leasing_2-d)"/>
      </g>
      <path fill="#E0E1E6" d="M36.2544,193.9405 C36.2544,187.2495 30.8294,181.8245 24.1384,181.8245 C17.4464,181.8245 12.0224,187.2495 12.0224,193.9405 C12.0224,193.9425 12.0234,193.9435 12.0234,193.9455 L12.0234,215.9535 L24.1694,225.0645 L36.3174,215.9535 L36.3174,193.9405 L36.2544,193.9405 Z"/>
      <path fill="#BABFC8" d="M24.1382,181.8243 C19.6562,181.8243 15.7522,184.2643 13.6562,187.8823 C15.7522,191.5003 19.6562,193.9403 24.1382,193.9403 C28.6202,193.9403 32.5242,191.5003 34.6202,187.8823 C32.5242,184.2643 28.6202,181.8243 24.1382,181.8243"/>
      <path stroke="#E0E1E6" stroke-width="2" d="M33.9604 23.1114L14.3804 42.6924M10.9185 24.545C12.8305 22.633 15.9295 22.633 17.8415 24.545 19.7535 26.457 19.7535 29.556 17.8415 31.468 15.9295 33.379 12.8305 33.379 10.9185 31.468 9.0075 29.556 9.0075 26.457 10.9185 24.545M30.4985 34.3355C32.4105 32.4235 35.5105 32.4235 37.4215 34.3355 39.3335 36.2475 39.3335 39.3465 37.4215 41.2585 35.5105 43.1695 32.4105 43.1695 30.4985 41.2585 28.5875 39.3465 28.5875 36.2475 30.4985 34.3355"/>
      <g transform="translate(188 183)">
        <mask id="leasing_2-f" fill="#fff">
          <use xlink:href="#leasing_2-e"/>
        </mask>
        <polygon fill="#E0E1E6" points="31.077 .87 .512 31.434 31.077 62 61.641 31.434" mask="url(#leasing_2-f)"/>
      </g>
      <polyline stroke="#FFF" stroke-width="2" points="223.321 203.398 227.566 207.643 223.321 211.887"/>
      <path stroke="#FFF" stroke-width="2" d="M227.5659,207.6426 L210.5859,207.6426"/>
      <polyline stroke="#FFF" stroke-width="2" points="214.831 225.473 210.586 221.228 214.831 216.983"/>
      <path stroke="#FFF" stroke-width="2" d="M227.5659,221.2276 L210.5859,221.2276"/>
    </g>
    <path fill="#E0E1E6" d="M195.9459 202.0261L194.0349 202.0261 194.0349 186.8011 195.9459 186.8011 195.9459 202.0261zM200.2509 197.0071C200.3349 199.4431 202.0569 200.6191 203.7369 200.6191 205.4169 200.6191 206.3409 199.8631 206.8239 198.7501L208.7979 198.7501C208.2729 200.7031 206.4879 202.2991 203.7369 202.2991 200.1669 202.2991 198.1929 199.7371 198.1929 196.3981 198.1929 192.8281 200.5869 190.5391 203.6739 190.5391 207.1179 190.5391 209.1969 193.4371 208.9449 197.0071L200.2509 197.0071zM200.2719 195.3691L206.9289 195.3691C206.8869 193.7731 205.6899 192.1771 203.6739 192.1771 201.9729 192.1771 200.4399 193.1011 200.2719 195.3691zM210.6039 199.0441C210.6039 196.3771 213.6069 195.6001 218.2479 195.0751L218.2479 194.8021C218.2479 192.7441 217.0929 192.0511 215.6859 192.0511 214.1109 192.0511 213.1869 192.9121 213.1029 194.2981L211.1289 194.2981C211.3179 191.8621 213.4599 190.4971 215.6649 190.4971 218.7729 190.4971 220.1799 191.9881 220.1589 195.1591L220.1379 197.7631C220.1169 199.6531 220.2219 200.9551 220.4319 202.0261L218.4999 202.0261C218.4369 201.6061 218.3739 201.1441 218.3529 200.4721 217.6599 201.6271 216.4839 202.2991 214.4889 202.2991 212.3679 202.2991 210.6039 201.1231 210.6039 199.0441zM218.3949 196.5871C214.9299 196.9441 212.7249 197.4481 212.7249 199.0021 212.7249 200.0731 213.5439 200.7871 214.9089 200.7871 216.6939 200.7871 218.3949 199.9681 218.3949 197.3011L218.3949 196.5871zM229.4829 194.0251C229.1889 192.6811 228.1389 192.1561 226.8159 192.1561 225.7029 192.1561 224.4429 192.5551 224.4429 193.5841 224.4429 194.4871 225.0729 194.9071 226.1649 195.1171L227.7609 195.4321C229.8189 195.8311 231.6249 196.6081 231.6249 198.7921 231.6249 201.0181 229.6089 202.2991 227.0259 202.2991 224.0649 202.2991 222.3849 200.3461 222.1749 198.3721L224.1909 198.3721C224.4849 199.8211 225.3879 200.6821 227.0679 200.6821 228.5169 200.6821 229.6929 200.0521 229.6929 199.0021 229.6929 197.8681 228.6219 197.3851 227.4039 197.1331L225.7239 196.7971C224.1909 196.4821 222.5109 195.7681 222.5109 193.6681 222.5109 191.6731 224.5269 190.5181 227.0259 190.5181 229.4619 190.5181 231.1209 191.8831 231.4779 194.0251L229.4829 194.0251zM235.3209 197.0071C235.4049 199.4431 237.1269 200.6191 238.8069 200.6191 240.4869 200.6191 241.4109 199.8631 241.8939 198.7501L243.8679 198.7501C243.3429 200.7031 241.5579 202.2991 238.8069 202.2991 235.2369 202.2991 233.2629 199.7371 233.2629 196.3981 233.2629 192.8281 235.6569 190.5391 238.7439 190.5391 242.1879 190.5391 244.2669 193.4371 244.0149 197.0071L235.3209 197.0071zM235.3419 195.3691L241.9989 195.3691C241.9569 193.7731 240.7599 192.1771 238.7439 192.1771 237.0429 192.1771 235.5099 193.1011 235.3419 195.3691z"/>
    <g transform="translate(6 .156)">
      <mask id="leasing_2-h" fill="#fff">
        <use xlink:href="#leasing_2-g"/>
      </mask>
      <path fill="#E0E1E6" d="M191.1217,7.659 L191.1217,9.444 C191.8147,8.247 193.0117,7.47 194.8177,7.47 C197.4007,7.47 199.6477,9.633 199.6477,13.35 C199.6477,17.088 197.4007,19.23 194.8177,19.23 C193.0117,19.23 191.8147,18.453 191.1217,17.256 L191.1217,22.632 L189.2107,22.632 L189.2107,7.659 L191.1217,7.659 Z M194.3347,17.592 C196.2877,17.592 197.5687,16.038 197.5687,13.35 C197.5687,10.662 196.2877,9.108 194.3347,9.108 C192.6337,9.108 191.0377,10.368 191.0377,13.35 C191.0377,16.332 192.6337,17.592 194.3347,17.592 Z M207.5227,9.654 C207.1237,9.612 206.7667,9.57 206.4517,9.57 C204.6877,9.57 203.8057,10.557 203.8057,13.035 L203.8057,18.957 L201.8947,18.957 L201.8947,7.659 L203.7637,7.659 L203.7637,9.633 C204.3307,8.352 205.4857,7.638 206.9557,7.596 C207.1447,7.596 207.3127,7.596 207.5227,7.617 L207.5227,9.654 Z M219.0307,13.35 C219.0307,17.445 216.2377,19.23 213.6127,19.23 C210.9877,19.23 208.1947,17.445 208.1947,13.35 C208.1947,9.255 210.9877,7.47 213.6127,7.47 C216.2377,7.47 219.0307,9.255 219.0307,13.35 Z M213.6127,17.55 C215.3347,17.55 216.9937,16.248 216.9937,13.35 C216.9937,10.347 215.3347,9.15 213.6127,9.15 C211.8907,9.15 210.2317,10.263 210.2317,13.35 C210.2317,16.353 211.8907,17.55 213.6127,17.55 Z M222.0127,6.84 C222.0127,4.488 222.4957,3.732 225.0577,3.732 L226.0447,3.732 L226.0447,5.328 L225.0997,5.328 C224.0917,5.328 223.9237,5.559 223.9237,6.735 L223.9237,7.659 L226.0447,7.659 L226.0447,9.192 L223.9237,9.192 L223.9237,18.957 L222.0127,18.957 L222.0127,9.192 L220.4377,9.192 L220.4377,7.659 L222.0127,7.659 L222.0127,6.84 Z M230.0137,3.732 L230.0137,6.042 L228.1027,6.042 L228.1027,3.732 L230.0137,3.732 Z M230.0137,7.659 L230.0137,18.957 L228.1027,18.957 L228.1027,7.659 L230.0137,7.659 Z M233.5837,4.824 L235.4947,4.824 L235.4947,7.659 L237.6367,7.659 L237.6367,9.192 L235.4947,9.192 L235.4947,15.891 C235.4947,17.067 235.5787,17.361 236.6707,17.361 L237.6367,17.361 L237.6367,18.957 L236.2507,18.957 C234.0877,18.957 233.5837,18.474 233.5837,16.122 L233.5837,9.192 L231.7987,9.192 L231.7987,7.659 L233.5837,7.659 L233.5837,4.824 Z" mask="url(#leasing_2-h)"/>
      <polygon fill="#E0E1E6" fill-rule="nonzero" points="100.044 59.781 100.044 61.781 50.339 61.781 50.339 59.781" mask="url(#leasing_2-h)"/>
      <polygon fill="#E0E1E6" points="56.966 52.602 58.329 54.067 51.107 60.78 58.329 67.495 56.966 68.959 48.169 60.78" mask="url(#leasing_2-h)"/>
      <polygon fill="#E0E1E6" fill-rule="nonzero" points="172.511 241.435 172.511 243.435 125.638 243.435 125.638 241.435" mask="url(#leasing_2-h)"/>
      <polygon fill="#E0E1E6" points="132.265 234.255 133.629 235.72 126.406 242.433 133.629 249.148 132.265 250.612 123.469 242.433" mask="url(#leasing_2-h)"/>
      <polygon fill="#E0E1E6" fill-rule="nonzero" points="253.641 243.435 253.641 241.435 300.514 241.435 300.514 243.435" mask="url(#leasing_2-h)"/>
      <polygon fill="#E0E1E6" points="293.887 250.614 292.523 249.149 299.746 242.436 292.523 235.721 293.887 234.257 302.683 242.436" mask="url(#leasing_2-h)"/>
      <polygon fill="#E0E1E6" fill-rule="nonzero" points="17.169 80.781 19.169 80.781 19.169 197.655 17.169 197.655" mask="url(#leasing_2-h)"/>
      <polygon fill="#E0E1E6" points="9.99 191.028 11.455 189.664 18.168 196.887 24.883 189.664 26.347 191.028 18.168 199.824" mask="url(#leasing_2-h)"/>
      <polyline stroke="#FFF" stroke-width="2.313" points="35.903 239.764 18.17 253.065 .437 239.764" mask="url(#leasing_2-h)"/>
    </g>
  </g>
</svg>
