<svg xmlns="http://www.w3.org/2000/svg" xmlns:xlink="http://www.w3.org/1999/xlink" width="100%" viewBox="0 0 389 189">
  <defs>
    <path id="leasing_scheme-a" d="M24.4669922,4.53130643 C21.3541667,4.41999058 17.3685547,3.30856531 12.8209635,0.100819811 C12.6292318,-0.0336066036 12.3713542,-0.0336066036 12.1791016,0.100819811 C7.63092448,3.30856531 3.64583333,4.41999058 0.533072917,4.53130643 C0.236002604,4.54234814 0,4.7850732 0,5.07998961 C0,6.35087773 0,9.85957405 0,15.4385912 C0,24.1119838 10.7686198,28.1795062 12.3158854,28.7191378 C12.4354167,28.7602874 12.5651042,28.7602874 12.6846354,28.7191378 C14.2328776,28.1785433 25,24.1101221 25,15.4385912 C25,9.85957405 25,6.35081353 25,5.07998961 C25,4.7850732 24.7645182,4.54234814 24.4669922,4.53130643 Z"/>
  </defs>
  <g fill="none" fill-rule="evenodd">
    <path fill="#6479A1" d="M183.624756 126.09668L182.437744 126.09668 179.922607 138 181.109619 138 183.624756 126.09668zM187.617432 137.062012C188.126544 137.062012 188.619094 136.948557 189.095003 136.721672 189.570912 136.494786 189.91678 136.267901 190.132601 136.041016L190.472933 135.708984 191.120394 136.472656C191.087191 136.516924 191.036 136.57918 190.966829 136.659424 190.897659 136.739667 190.744094 136.875244 190.506136 137.066162 190.268178 137.25708 190.021918 137.42586 189.767358 137.57251 189.512798 137.71916 189.183531 137.854736 188.779557 137.979248 188.375583 138.10376 187.971609 138.166016 187.567635 138.166016 186.604744 138.166016 185.782967 137.82707 185.102303 137.14917 184.421639 136.47127 184.081307 135.650879 184.081307 134.687988 184.081307 133.315595 184.571053 132.135498 185.550545 131.147705 186.530037 130.159912 187.631277 129.666016 188.854256 129.666016 189.817147 129.666016 190.619558 129.957929 191.261483 130.541748 191.903407 131.125567 192.224373 131.882324 192.224373 132.812012 192.224373 133.38753 192.116463 133.904943 191.900643 134.36425L185.251717 134.347648 185.251717 134.596672C185.251717 135.299474 185.481375 135.886065 185.940682 136.356445 186.399989 136.826826 186.958906 137.062012 187.617432 137.062012zM188.738078 130.778312C188.057414 130.778312 187.408558 131.019035 186.791536 131.50048 186.174514 131.981925 185.735959 132.590647 185.475871 133.326652L191.020792 133.326652C191.031857 133.260246 191.037394 133.163401 191.037394 133.036125 191.037394 132.377599 190.821574 131.836662 190.389933 131.413322 189.958292 130.989982 189.407677 130.778312 188.738078 130.778312zM196.94751 137.062012C197.832929 137.062012 198.643633 136.651107 199.379639 135.829329 200.115644 135.007552 200.483643 134.120755 200.483643 133.168929 200.483643 132.4772 200.251221 131.905832 199.786377 131.454826 199.321533 131.003819 198.765381 130.778312 198.11792 130.778312 197.326581 130.778312 196.561523 131.154612 195.822754 131.907218 195.083984 132.659825 194.7146 133.539708 194.7146 134.546867 194.7146 135.249669 194.935956 135.844561 195.378662 136.331543 195.821368 136.818525 196.344317 137.062012 196.94751 137.062012zM199.545646 137.999984L199.802946 136.796395C199.769743 136.829598 199.724089 136.876638 199.665983 136.937508 199.607878 136.998378 199.479216 137.109052 199.279997 137.269531 199.080778 137.43001 198.874645 137.569737 198.661589 137.688713 198.448533 137.807688 198.174607 137.916984 197.839811 138.016593 197.505016 138.116203 197.160533 138.166008 196.806364 138.166008 195.920945 138.166008 195.150358 137.818761 194.494596 137.124259 193.838835 136.429758 193.510954 135.606595 193.510954 134.654769 193.510954 133.293441 194.009001 132.121644 195.005095 131.139388 196.001188 130.157132 197.088591 129.665999 198.267302 129.665999 198.615934 129.665999 198.946579 129.71719 199.259245 129.819564 199.57191 129.921937 199.830621 130.047835 200.035376 130.197249 200.240131 130.346663 200.415834 130.497464 200.562484 130.649642 200.709134 130.80182 200.81843 130.927718 200.890373 131.027328L200.989982 131.185042 201.280509 129.840316 202.467521 129.840316 200.732658 137.999984 199.545646 137.999984zM209.91333 130.77832L209.80542 130.653809C209.739014 130.587402 209.63249 130.49748 209.48584 130.384033 209.33919 130.270586 209.16626 130.159912 208.967041 130.052002 208.767822 129.944092 208.520185 129.852783 208.224121 129.778076 207.928057 129.703369 207.622314 129.666016 207.306885 129.666016 206.415937 129.666016 205.684082 129.919189 205.111328 130.425537 204.538574 130.931885 204.252197 131.536456 204.252197 132.239258 204.252197 132.715167 204.444501 133.117754 204.829102 133.447021 205.213702 133.776289 205.635655 134.014247 206.094963 134.160897 206.55427 134.307547 206.976223 134.499851 207.360824 134.737809 207.745424 134.975768 207.937728 135.257994 207.937728 135.584489 207.937728 136.027194 207.768948 136.384128 207.43138 136.65529 207.093812 136.926451 206.612367 137.062028 205.987044 137.062028 205.577542 137.062028 205.19432 136.958268 204.837386 136.750749 204.480453 136.543229 204.248031 136.375827 204.140121 136.248551 204.03221 136.121275 203.950589 136.013365 203.895247 135.924821L202.940658 136.721696 203.040267 136.879411C203.11221 136.97902 203.22427 137.099381 203.376449 137.240495 203.528627 137.381608 203.709858 137.521335 203.920142 137.659684 204.130425 137.798033 204.401587 137.917008 204.733618 138.016618 205.06565 138.116227 205.425347 138.166032 205.81272 138.166032 206.830952 138.166032 207.644428 137.908708 208.25315 137.394059 208.861871 136.879411 209.166235 136.220885 209.166235 135.418473 209.166235 134.931491 208.972553 134.517838 208.585181 134.177506 208.197808 133.837174 207.774468 133.593688 207.315161 133.447038 206.855854 133.300388 206.4339 133.10947 206.0493 132.874284 205.6647 132.639098 205.472396 132.369322 205.472396 132.064958 205.472396 131.716325 205.623196 131.414732 205.924788 131.160172 206.226381 130.905612 206.631733 130.778337 207.140845 130.778337 207.489478 130.778337 207.822895 130.851657 208.141089 130.998307 208.459283 131.144957 208.664038 131.263932 208.755347 131.355241 208.846655 131.446549 208.914448 131.51987 208.958716 131.575212L209.91333 130.77832zM214.462158 137.062012C214.97127 137.062012 215.463821 136.948557 215.93973 136.721672 216.415638 136.494786 216.761507 136.267901 216.977327 136.041016L217.317659 135.708984 217.96512 136.472656C217.931917 136.516924 217.880726 136.57918 217.811556 136.659424 217.742385 136.739667 217.588821 136.875244 217.350863 137.066162 217.112904 137.25708 216.866645 137.42586 216.612085 137.57251 216.357525 137.71916 216.028258 137.854736 215.624284 137.979248 215.22031 138.10376 214.816336 138.166016 214.412362 138.166016 213.449471 138.166016 212.627694 137.82707 211.94703 137.14917 211.266366 136.47127 210.926033 135.650879 210.926033 134.687988 210.926033 133.315595 211.41578 132.135498 212.395272 131.147705 213.374764 130.159912 214.476004 129.666016 215.698983 129.666016 216.661873 129.666016 217.464285 129.957929 218.106209 130.541748 218.748134 131.125567 219.0691 131.882324 219.0691 132.812012 219.0691 133.38753 218.96119 133.904943 218.745369 134.36425L212.096444 134.347648 212.096444 134.596672C212.096444 135.299474 212.326101 135.886065 212.785408 136.356445 213.244716 136.826826 213.803632 137.062012 214.462158 137.062012zM215.582804 130.778312C214.90214 130.778312 214.253285 131.019035 213.636263 131.50048 213.019241 131.981925 212.580686 132.590647 212.320597 133.326652L217.865519 133.326652C217.876584 133.260246 217.882121 133.163401 217.882121 133.036125 217.882121 132.377599 217.6663 131.836662 217.23466 131.413322 216.803019 130.989982 216.252403 130.778312 215.582804 130.778312zM184.374023 5.77832031C183.488604 5.77832031 182.6779 6.18920898 181.941895 7.01098633 181.205889 7.83276367 180.837891 8.7195611 180.837891 9.67138672 180.837891 10.3631158 181.070312 10.9344835 181.535156 11.3854899 182 11.8364964 182.556152 12.0620036 183.203613 12.0620036 183.994952 12.0620036 184.758624 11.6829319 185.494629 10.9247966 186.230634 10.1666613 186.598633 9.28401423 186.598633 8.27685547 186.598633 7.57405329 186.378662 6.98193359 185.938721 6.50048828 185.498779 6.01904297 184.977216 5.77832031 184.374023 5.77832031zM181.792489 4.84033203L181.518579 6.04392099C181.551782 6.01071787 181.597436 5.96367741 181.655542 5.90280771 181.713647 5.84193802 181.840923 5.73126364 182.037378 5.57078457 182.233832 5.4103055 182.439966 5.27057838 182.655786 5.15160322 182.871606 5.03262806 183.146918 4.92195368 183.481714 4.81958008 183.816509 4.71720648 184.158227 4.66601562 184.50686 4.66601562 185.39228 4.66601562 186.164252 5.01464844 186.822778 5.71191406 187.481304 6.40917969 187.810571 7.23372126 187.810571 8.18554688 187.810571 9.546875 187.311138 10.7172852 186.31228 11.6967773 185.313422 12.6762695 184.224634 13.1660156 183.045923 13.1660156 182.69729 13.1660156 182.366645 13.1162109 182.053979 13.0166016 181.741314 12.9169922 181.482604 12.7924805 181.277848 12.6430664 181.073093 12.4936523 180.89739 12.3428521 180.750741 12.1906738 180.604091 12.0384955 180.497567 11.9125977 180.43116 11.8129883L180.331551 11.6552734 179.293953 16.5693359 178.098641 16.5693359 180.597176 4.84033203 181.792489 4.84033203zM194.990723 4.66601562L194.550781 4.66601562C194.202148 4.66601562 193.863203 4.71166992 193.533936 4.80297852 193.204669 4.89428711 192.934893 4.99666071 192.724609 5.11010742 192.514326 5.22355413 192.319257 5.35360241 192.139404 5.50025225 191.959551 5.64690208 191.840576 5.74927568 191.782471 5.80738115 191.724365 5.86548662 191.684247 5.91114092 191.662109 5.94434404L191.902832 4.84034014 190.70752 4.84034014 188.972656 13.0000081 190.167969 13.0000081 191.114258 8.49268389C191.28581 7.71241045 191.671796 7.07878685 192.272217 6.59180498 192.872637 6.10482311 193.524249 5.86133623 194.227051 5.86133623L194.741699 5.86133623 194.990723 4.66601562zM198.900391 12.0786133C199.796875 12.0786133 200.59375 11.7133951 201.291016 10.9829264 201.988281 10.2524576 202.336914 9.41684294 202.336914 8.47609043 202.336914 7.706882 202.080976 7.06218529 201.569092 6.54200029 201.057208 6.0218153 200.416661 5.76172686 199.647453 5.76172686 198.784172 5.76172686 197.995597 6.11589622 197.28173 6.82422686 196.567863 7.53255749 196.210929 8.37923717 196.210929 9.36426592 196.210929 10.1224012 196.466867 10.7643256 196.978752 11.2900391 197.490636 11.8157525 198.131182 12.0786133 198.900391 12.0786133zM195.007324 9.43068027C195.007324 8.21876621 195.480469 7.12167692 196.426758 6.13942051 197.373047 5.1571641 198.479815 4.66603184 199.74707 4.66603184 200.84831 4.66603184 201.755859 5.02988005 202.469727 5.75758457 203.183594 6.4852891 203.540527 7.37485886 203.540527 8.42629385 203.540527 9.70461416 203.053545 10.8141546 202.07959 11.7549071 201.105634 12.6956596 200.012695 13.1660399 198.800781 13.1660399 197.699542 13.1660399 196.791992 12.8063421 196.078125 12.0869384 195.364258 11.3675346 195.007324 10.4821153 195.007324 9.43068027zM209.990234 4.84033203L209.757812 5.94434404 207.798828 5.94434404 206.304688 13.0000081 205.117676 13.0000081 206.611816 5.94434404 205.333496 5.94434404 205.574219 4.84034014 206.852539 4.84034014 207.167969 3.31299639C207.328448 2.55486107 207.643878 1.96826982 208.114258 1.55323076 208.584638 1.1381917 209.160156.930672169 209.84082.930672169 210.045576.930672169 210.243408.952810287 210.434326.997078419 210.625244 1.04134655 210.773272 1.08561468 210.878418 1.12988281L211.01123 1.18798828 210.778809 2.29199219C210.507647 2.12044001 210.172852 2.03466797 209.774414 2.03466797 209.40918 2.03466797 209.102051 2.14257812 208.853027 2.35839844 208.604004 2.57421875 208.440753 2.89241266 208.363281 3.31298828L208.039551 4.84033203 209.990234 4.84033203zM212.198242 2.2421875C212.198242 2.41373968 212.263262 2.56315374 212.393311 2.69042969 212.523359 2.81770563 212.679688 2.88134766 212.862305 2.88134766 213.100263 2.88134766 213.310547 2.79695368 213.493164 2.62817383 213.675781 2.45939398 213.76709 2.25602484 213.76709 2.01806641 213.76709 1.83544922 213.699297 1.67912054 213.563721 1.54907227 213.428144 1.41902399 213.269043 1.35400391 213.086426 1.35400391 212.837402 1.35400391 212.627119 1.44254827 212.455566 1.61962891 212.284014 1.79670954 212.198242 2.00422907 212.198242 2.2421875zM210.123047 13L211.85791 4.84033203 213.053223 4.84033203 211.318359 13 210.123047 13zM216.705566 3.99365234C216.594892 4.55810547 216.312665 4.84033203 215.858887 4.84033203L214.920898 4.84033203 214.680176 5.94433594 216.21582 5.94433594 215.178223 10.7919922C215.017744 11.5501275 215.091064 12.1353326 215.398193 12.5476074 215.705322 12.9598823 216.210284 13.1660156 216.913086 13.1660156 217.33919 13.1715522 217.745928 13.0885444 218.133301 12.9169922L218.357422 11.8129883 218.199707 11.8793945C218.100098 11.9125977 217.953448 11.9513373 217.759766 11.9956055 217.566083 12.0398736 217.37793 12.0620117 217.195312 12.0620117 216.47038 12.0675483 216.19369 11.6442084 216.365242 10.7919922L217.40284 5.94433594 219.187508 5.94433594 219.428231 4.84033203 217.643563 4.84033203 218.216317 2.11767578 217.112313 2.11767578 216.705566 3.99365234z"/>
    <g fill="#E0E1E6" fill-rule="nonzero" transform="translate(269 94)">
      <path d="M25.3333333,51.4583333 C24.34375,52.6458333 23.15625,53.4375 21.5729167,54.03125 C24.34375,66.5 30.28125,74.8125 39.5833333,78.7708333 C48.6875,74.8125 54.8229167,66.5 57.3958333,54.03125 C56.0104167,53.6354167 54.8229167,52.84375 54.03125,51.8541667 C46.90625,57.3958333 35.625,60.5625 25.3333333,51.4583333 Z"/>
      <path d="M61.3541667 54.625L61.15625 54.625C57.3958333 72.2395833 47.6979167 79.5625 40.1770833 82.7291667L39.5833333 82.9270833 38.7916667 82.7291667C31.2708333 79.7604167 21.5729167 72.4375 17.8125 54.625L17.8125 54.625C8.3125 54.625.791666667 61.3541667.791666667 69.8645833L.791666667 83.9166667C11.6770833 90.84375 25.1354167 95 39.5833333 95 54.03125 95 67.4895833 90.84375 78.5729167 83.71875L78.5729167 69.8645833C78.375 61.3541667 70.8541667 54.625 61.3541667 54.625zM65.3125 21.1770833L62.7395833 21.1770833C61.9479167 12.2708333 56.40625 4.94791667 48.4895833 1.78125L44.9270833 21.1770833 44.53125 22.9583333 34.6354167 22.9583333 34.2395833 21.1770833 30.6770833 1.78125C22.7604167 4.94791667 17.0208333 12.46875 16.4270833 21.1770833L13.8541667 21.1770833 13.8541667 26.3229167 19.9895833 26.3229167C19.9895833 26.5208333 20.1875 29.09375 20.1875 30.0833333 20.1875 42.9479167 29.09375 53.6354167 39.9791667 53.6354167 50.8645833 53.6354167 59.7708333 43.1458333 59.7708333 30.0833333 59.7708333 28.8958333 59.5729167 27.5104167 59.5729167 26.3229167L65.5104167 26.3229167 65.5104167 21.1770833 65.3125 21.1770833zM55.8125 30.0833333C55.8125 40.96875 48.6875 49.875 39.78125 49.875 30.875 49.875 23.75 40.96875 23.75 30.0833333 23.75 29.2916667 25.3333333 26.9166667 25.9270833 26.3229167L54.625 26.3229167C55.0208333 26.5208333 55.8125 29.2916667 55.8125 30.0833333z"/>
      <path d="M42.3541667,20.5833333 L45.9166667,0.989583333 C43.9375,0.395833333 41.7604167,0 39.5833333,0 C37.40625,0 35.2291667,0.395833333 33.25,0.989583333 L36.8125,20.5833333 L42.3541667,20.5833333 Z"/>
    </g>
    <g fill="#E0E1E6" fill-rule="nonzero" transform="matrix(-1 0 0 1 389 110)">
      <path d="M21.3649733.389195387C21.2679915.153662904 21.0375021 0 20.7830823 0 16.0070415 0 12.0232291 3.47252972 10.7007495 4.77110721L9.89214763 3.9637472C9.64654427 3.71813846 9.24728137 3.71813846 9.00167801 3.9637472L3.96366038 9.00187518C3.71805702 9.24748392 3.71805702 9.64675557 3.96366038 9.89236431L4.7710027 10.7009838C3.47245366 12.0234924 0 16.0061326 0 20.7835375 0 21.0379629.153659538 21.2684573.389186862 21.3654413.467276136 21.3981891.549143922 21.4133035.629752205 21.4133035.793487778 21.4133035.954704342 21.3490674 1.07561677 21.2294118L8.18677866 14.1180942 9.00041851 14.9317518C9.24602187 15.1773606 9.64528476 15.1773606 9.89088812 14.9317518L14.9289058 9.89362384C15.1745091 9.6480151 15.1745091 9.24874346 14.9289058 9.00313472L14.1152659 8.18947705 21.2264278 1.07815939C21.4090559.89552725 21.4632146.624727871 21.3649733.389195387zM30.5618011 26.5976653L15.4953947 11.5302403 12.0792994 14.9465666 27.1457058 30.0139915C27.264329 30.1326227 27.4245965 30.1982485 27.5924356 30.1982485 29.331401 30.1982485 30.7473076 28.7822463 30.7473076 27.0431633 30.7460456 26.8753128 30.6791623 26.7150344 30.5618011 26.5976653zM4.16686742 7.68682689L7.68682689 4.15169293 7.38515323 3.84871876C6.64917353 3.10956626 5.36315952 3.10956626 4.62717982 3.84871876L3.86519376 4.61398972C3.49720391 4.98356597 3.29435438 5.475899 3.29435438 5.99957418 3.29435438 6.52324937 3.49720391 7.01427647 3.86519376 7.38515864L4.16686742 7.68682689z"/>
    </g>
    <g fill="#E0E1E6" transform="translate(133 158)">
      <path fill-rule="nonzero" d="M124.380081,11.7961451 L124.380081,11.7961451 L124.380081,11.7961451 C124.865188,12.1297408 125.521788,12.0557726 125.920517,11.62261 L130.988767,6.116672 L125.981576,0.402338168 L125.981576,0.402338168 C125.593388,-0.0406717105 124.937939,-0.12952542 124.445818,0.19414832 L124.445818,0.19414832 L124.445818,0.19414832 C124.038617,0.461969621 123.925627,1.00918375 124.193448,1.4163853 C124.217972,1.45367291 124.24529,1.4890464 124.275166,1.52220129 L128.392251,6.09114465 L124.240581,10.4700835 L124.240581,10.4700835 C123.907324,10.8215833 123.922113,11.3766881 124.273613,11.7099449 C124.306801,11.7414103 124.342399,11.7702316 124.380081,11.7961451 Z"/>
      <path fill-rule="nonzero" d="M0.380081438,11.7961451 L0.380081438,11.7961451 L0.380081438,11.7961451 C0.865188196,12.1297408 1.52178822,12.0557726 1.92051716,11.62261 L6.98876736,6.116672 L1.98157557,0.402338168 L1.98157557,0.402338168 C1.59338764,-0.0406717105 0.937939067,-0.12952542 0.445818217,0.19414832 L0.445818217,0.19414832 L0.445818217,0.19414832 C0.0386166753,0.461969621 -0.0743733347,1.00918375 0.193447966,1.4163853 C0.217972477,1.45367291 0.245290267,1.4890464 0.275166205,1.52220129 L4.39225065,6.09114465 L0.240580794,10.4700835 L0.240580794,10.4700835 C-0.0926759788,10.8215833 -0.0778871012,11.3766881 0.273612677,11.7099449 C0.306800507,11.7414103 0.342398658,11.7702316 0.380081438,11.7961451 Z" transform="matrix(-1 0 0 1 6.989 0)"/>
      <g transform="translate(9 5)">
        <rect width="2" height="2" x="76.246"/>
        <rect width="2" height="2" x="72.246"/>
        <rect width="2" height="2" x="68.246"/>
        <rect width="2" height="2" x="64.246"/>
        <rect width="2" height="2" x="60.246"/>
        <rect width="2" height="2" x="56.246"/>
        <rect width="2" height="2" x="52.246"/>
        <rect width="2" height="2" x="48.246"/>
        <rect width="2" height="2" x="44.246"/>
        <rect width="2" height="2" x="40.246"/>
        <rect width="2" height="2" x="36.246"/>
        <rect width="2" height="2" x="32.246"/>
        <rect width="2" height="2" x="28.246"/>
        <rect width="2" height="2" x="24.246"/>
        <rect width="2" height="2" x="20.246"/>
        <rect width="2" height="2" x="16.246"/>
        <rect width="2" height="2" x="12.246"/>
        <rect width="2" height="2" x="8.246"/>
        <rect width="2" height="2" x="4.246"/>
        <rect width="2" height="2" x=".246"/>
        <rect width="2" height="2" x="108.246"/>
        <rect width="2" height="2" x="104.246"/>
        <rect width="2" height="2" x="100.246"/>
        <rect width="2" height="2" x="96.246"/>
        <rect width="2" height="2" x="92.246"/>
        <rect width="2" height="2" x="88.246"/>
        <rect width="2" height="2" x="84.246"/>
        <rect width="2" height="2" x="80.246"/>
        <rect width="2" height="2" x="76.246"/>
        <rect width="2" height="2" x="72.246"/>
      </g>
    </g>
    <g fill="#E0E1E6" transform="translate(60 41)">
      <path fill-rule="nonzero" d="M0.380081438,11.7961451 L0.380081438,11.7961451 L0.380081438,11.7961451 C0.865188196,12.1297408 1.52178822,12.0557726 1.92051716,11.62261 L6.98876736,6.116672 L1.98157557,0.402338168 L1.98157557,0.402338168 C1.59338764,-0.0406717105 0.937939067,-0.12952542 0.445818217,0.19414832 L0.445818217,0.19414832 L0.445818217,0.19414832 C0.0386166753,0.461969621 -0.0743733347,1.00918375 0.193447966,1.4163853 C0.217972477,1.45367291 0.245290267,1.4890464 0.275166205,1.52220129 L4.39225065,6.09114465 L0.240580794,10.4700835 L0.240580794,10.4700835 C-0.0926759788,10.8215833 -0.0778871012,11.3766881 0.273612677,11.7099449 C0.306800507,11.7414103 0.342398658,11.7702316 0.380081438,11.7961451 Z" transform="matrix(-1 0 0 1 6.989 0)"/>
      <rect width="2" height="2" x="65.246" y="5"/>
      <rect width="2" height="2" x="61.246" y="5"/>
      <rect width="2" height="2" x="57.246" y="5"/>
      <rect width="2" height="2" x="53.246" y="5"/>
      <rect width="2" height="2" x="49.246" y="5"/>
      <rect width="2" height="2" x="45.246" y="5"/>
      <rect width="2" height="2" x="41.246" y="5"/>
      <rect width="2" height="2" x="37.246" y="5"/>
      <rect width="2" height="2" x="33.246" y="5"/>
      <rect width="2" height="2" x="29.246" y="5"/>
      <rect width="2" height="2" x="25.246" y="5"/>
      <rect width="2" height="2" x="21.246" y="5"/>
      <rect width="2" height="2" x="17.246" y="5"/>
      <rect width="2" height="2" x="13.246" y="5"/>
      <rect width="2" height="2" x="9.246" y="5"/>
    </g>
    <path fill="#E0E1E6" fill-rule="nonzero" d="M269.380081,52.7961451 L269.380081,52.7961451 L269.380081,52.7961451 C269.865188,53.1297408 270.521788,53.0557726 270.920517,52.62261 L275.988767,47.116672 L270.981576,41.4023382 L270.981576,41.4023382 C270.593388,40.9593283 269.937939,40.8704746 269.445818,41.1941483 L269.445818,41.1941483 L269.445818,41.1941483 C269.038617,41.4619696 268.925627,42.0091838 269.193448,42.4163853 C269.217972,42.4536729 269.24529,42.4890464 269.275166,42.5222013 L273.392251,47.0911446 L269.240581,51.4700835 L269.240581,51.4700835 C268.907324,51.8215833 268.922113,52.3766881 269.273613,52.7099449 C269.306801,52.7414103 269.342399,52.7702316 269.380081,52.7961451 Z" transform="matrix(-1 0 0 1 544.989 0)"/>
    <rect width="2" height="2" x="334.246" y="46" fill="#E0E1E6"/>
    <rect width="2" height="2" x="330.246" y="46" fill="#E0E1E6"/>
    <rect width="2" height="2" x="326.246" y="46" fill="#E0E1E6"/>
    <rect width="2" height="2" x="322.246" y="46" fill="#E0E1E6"/>
    <rect width="2" height="2" x="318.246" y="46" fill="#E0E1E6"/>
    <rect width="2" height="2" x="314.246" y="46" fill="#E0E1E6"/>
    <rect width="2" height="2" x="310.246" y="46" fill="#E0E1E6"/>
    <rect width="2" height="2" x="306.246" y="46" fill="#E0E1E6"/>
    <rect width="2" height="2" x="302.246" y="46" fill="#E0E1E6"/>
    <rect width="2" height="2" x="370.246" y="46" fill="#E0E1E6"/>
    <rect width="2" height="2" x="374.246" y="46" fill="#E0E1E6"/>
    <rect width="2" height="2" x="366.246" y="46" fill="#E0E1E6"/>
    <rect width="2" height="2" x="362.246" y="46" fill="#E0E1E6"/>
    <rect width="2" height="2" x="358.246" y="46" fill="#E0E1E6"/>
    <rect width="2" height="2" x="354.246" y="46" fill="#E0E1E6"/>
    <rect width="2" height="2" x="350.246" y="46" fill="#E0E1E6"/>
    <rect width="2" height="2" x="346.246" y="46" fill="#E0E1E6"/>
    <rect width="2" height="2" x="342.246" y="46" fill="#E0E1E6"/>
    <rect width="2" height="2" x="338.246" y="46" fill="#E0E1E6"/>
    <rect width="2" height="2" x="298.246" y="46" fill="#E0E1E6"/>
    <rect width="2" height="2" x="294.246" y="46" fill="#E0E1E6"/>
    <rect width="2" height="2" x="290.246" y="46" fill="#E0E1E6"/>
    <rect width="2" height="2" x="286.246" y="46" fill="#E0E1E6"/>
    <rect width="2" height="2" x="282.246" y="46" fill="#E0E1E6"/>
    <rect width="2" height="2" x="278.246" y="46" fill="#E0E1E6"/>
    <g fill="#E0E1E6" transform="translate(34 69)">
      <path fill-rule="nonzero" d="M2.88788604,22.2883405 L2.88788604,22.2883405 L2.88788604,22.2883405 C3.37299279,22.6219362 4.02959282,22.547968 4.42832176,22.1148054 L9.49657195,16.6088674 L4.48938017,10.8945336 L4.48938017,10.8945336 C4.10119224,10.4515237 3.44574366,10.36267 2.95362281,10.6863437 L2.95362281,10.6863437 L2.95362281,10.6863437 C2.54642127,10.954165 2.43343126,11.5013792 2.70125256,11.9085807 C2.72577707,11.9458683 2.75309486,11.9812418 2.7829708,12.0143967 L6.90005525,16.5833401 L2.74838539,20.9622789 L2.74838539,20.9622789 C2.41512862,21.3137787 2.4299175,21.8688835 2.78141727,22.2021403 C2.8146051,22.2336057 2.85020326,22.262427 2.88788604,22.2883405 Z" transform="matrix(0 1 1 0 -10.492 10.492)"/>
      <rect width="2" height="2" x="5" y="8.246" transform="matrix(0 1 1 0 -3.246 3.246)"/>
      <rect width="2" height="2" x="5" y="4.246" transform="matrix(0 1 1 0 .754 -.754)"/>
      <rect width="2" height="2" x="5" y=".246" transform="matrix(0 1 1 0 4.754 -4.754)"/>
    </g>
    <rect width="2" height="2" x="374" y="81.754" fill="#E0E1E6" transform="rotate(-90 375 82.754)"/>
    <rect width="2" height="2" x="374" y="85.754" fill="#E0E1E6" transform="rotate(-90 375 86.754)"/>
    <rect width="2" height="2" x="374" y="89.754" fill="#E0E1E6" transform="rotate(-90 375 90.754)"/>
    <rect width="2" height="2" x="374" y="93.754" fill="#E0E1E6" transform="rotate(-90 375 94.754)"/>
    <rect width="2" height="2" x="374" y="49.754" fill="#E0E1E6" transform="rotate(-90 375 50.754)"/>
    <rect width="2" height="2" x="374" y="53.754" fill="#E0E1E6" transform="rotate(-90 375 54.754)"/>
    <rect width="2" height="2" x="374" y="57.754" fill="#E0E1E6" transform="rotate(-90 375 58.754)"/>
    <rect width="2" height="2" x="374" y="61.754" fill="#E0E1E6" transform="rotate(-90 375 62.754)"/>
    <rect width="2" height="2" x="374" y="65.754" fill="#E0E1E6" transform="rotate(-90 375 66.754)"/>
    <rect width="2" height="2" x="374" y="69.754" fill="#E0E1E6" transform="rotate(-90 375 70.754)"/>
    <rect width="2" height="2" x="374" y="73.754" fill="#E0E1E6" transform="rotate(-90 375 74.754)"/>
    <rect width="2" height="2" x="374" y="77.754" fill="#E0E1E6" transform="rotate(-90 375 78.754)"/>
    <rect width="2" height="2" x="374" y="81.754" fill="#E0E1E6" transform="rotate(-90 375 82.754)"/>
    <rect width="2" height="2" x="374" y="85.754" fill="#E0E1E6" transform="rotate(-90 375 86.754)"/>
    <g fill-rule="nonzero" transform="translate(187 149)">
      <use fill="#FFF" fill-rule="evenodd" xlink:href="#leasing_scheme-a"/>
      <path stroke="#E0E1E6" stroke-width="4" d="M23,6.42461769 C19.6640285,6.04153702 16.1227951,4.70546677 12.4998702,2.30418971 C8.87387565,4.70665298 5.3332997,6.04216641 2,6.42476669 C2,8.32200542 2,9.36606828 2,15.4385912 C2,18.5488064 3.72546781,21.2352493 6.77925524,23.5301789 C7.95377715,24.4128353 9.25712767,25.1823535 10.6086595,25.8351742 C11.3135075,26.1756318 11.9571312,26.4497727 12.4998942,26.6571164 C13.0459973,26.4483869 13.6882954,26.1746143 14.3919634,25.8346165 C15.7435518,25.181557 17.0468253,24.4119172 18.2212645,23.5292 C21.2747598,21.2341704 23,18.548028 23,15.4385912 C23,9.36589744 23,8.32192467 23,6.42461074 Z"/>
    </g>
    <g fill="#E0E1E6" fill-rule="nonzero" transform="translate(0 94)">
      <path d="M54.2463768,47.7950311 C50.5093168,51.3354037 45.5921325,53.4989648 40.4782609,53.4989648 C35.3643892,53.4989648 30.6438923,51.3354037 26.7101449,47.7950311 C25.5300207,50.1552795 23.1697723,51.9254658 20.4161491,52.3188406 C26.1200828,59.989648 33.2008282,64.3167702 40.4782609,64.3167702 C47.7556936,64.3167702 54.8364389,60.1863354 60.5403727,52.3188406 C57.7867495,51.9254658 55.426501,50.1552795 54.2463768,47.7950311 Z"/>
      <path d="M65.0641822 52.7122153C58.3768116 62.7432712 49.7225673 68.2505176 40.4782609 68.2505176 31.2339545 68.2505176 22.5797101 62.7432712 15.8923395 52.7122153 7.04140787 53.6956522.354037267 60.1863354.354037267 68.2505176L.354037267 82.6086957C11.5652174 90.0828157 25.3333333 94.4099379 40.4782609 94.4099379 55.6231884 94.4099379 69.3913043 90.0828157 80.7991718 82.805383L80.7991718 68.447205C80.7991718 60.1863354 73.9151139 53.4989648 65.0641822 52.7122153zM19.826087 24.9792961C20.0227743 24.1925466 21.5962733 23.0124224 21.5962733 23.0124224L21.989648 23.7991718C21.989648 24.5859213 21.7929607 25.3726708 21.7929607 26.3561077 21.7929607 39.3374741 30.0538302 49.7619048 40.2815735 49.7619048 50.5093168 49.7619048 58.7701863 39.3374741 58.7701863 26.3561077 58.7701863 23.2091097 58.3768116 20.2587992 57.3933747 17.7018634 57.3933747 17.1118012 57.1966874 16.5217391 57.1966874 15.931677 55.8198758 9.04761905 52.8695652 8.45755694 52.8695652 8.45755694 53.0662526 4.91718427 50.5093168 1.96687371 50.5093168 1.96687371L50.5093168 6.6873706C49.7225673 2.16356108 45.7888199 0 45.7888199 0L45.7888199 2.95031056C38.7080745-1.77018634 32.0207039 4.32712215 32.0207039 4.32712215L32.8074534.786749482C29.6604555 1.18012422 30.0538302 5.50724638 30.0538302 5.50724638 29.0703934 3.14699793 25.9233954 3.93374741 25.9233954 3.93374741L28.6770186 6.09730849C23.3664596 6.88405797 20.6128364 13.7681159 20.6128364 13.7681159L23.3664596 12.7846791C18.6459627 16.1283644 19.4327122 23.4057971 19.826087 24.9792961zM47.1656315 40.9109731C46.1821946 41.8944099 44.805383 41.3043478 44.4120083 40.9109731 42.4451346 38.747412 38.7080745 38.747412 36.5445135 40.9109731 35.757764 41.6977226 34.5776398 41.6977226 33.7908903 40.9109731 33.0041408 40.1242236 33.0041408 38.9440994 33.7908903 38.1573499 35.5610766 36.3871636 37.9213251 35.4037267 40.4782609 35.4037267 43.0351967 35.4037267 45.3954451 36.3871636 47.1656315 38.1573499 47.7556936 38.9440994 47.7556936 40.1242236 47.1656315 40.9109731zM25.9233954 24.7826087C26.3167702 23.4057971 26.3167702 22.2256729 26.3167702 21.242236 26.7101449 19.0786749 27.4968944 16.9151139 28.4803313 14.9482402L31.2339545 16.9151139 32.8074534 12.194617C37.3312629 14.1614907 37.5279503 19.8654244 37.5279503 19.8654244 39.494824 18.8819876 40.8716356 13.1780538 40.8716356 13.1780538 43.4285714 12.194617 45.0020704 22.0289855 45.0020704 22.0289855 45.9855072 18.6853002 44.4120083 11.8012422 44.4120083 11.8012422L46.9689441 17.8985507 46.9689441 11.8012422C48.7391304 13.1780538 48.3457557 19.0786749 48.3457557 19.0786749L51.689441 13.7681159C51.689441 13.9648033 51.8861284 14.1614907 51.8861284 14.1614907L51.2960663 17.7018634 53.0662526 16.5217391C53.0662526 16.7184265 53.26294 16.7184265 53.26294 16.9151139 52.6728778 18.6853002 52.4761905 21.8322981 52.4761905 21.8322981L54.2463768 19.8654244C54.6397516 21.8322981 55.0331263 23.7991718 55.0331263 25.7660455 55.0331263 27.7329193 54.8364389 29.8964803 54.4430642 31.6666667 52.8695652 32.8467909 51.0993789 33.6335404 49.1325052 34.4202899 46.5755694 32.2567288 43.6252588 31.0766046 40.4782609 31.0766046 37.3312629 31.0766046 34.3809524 32.2567288 31.8240166 34.4202899 29.8571429 33.8302277 28.0869565 32.8467909 26.5134576 31.6666667 26.1200828 29.8964803 25.9233954 27.7329193 25.9233954 25.7660455 25.7267081 25.7660455 25.7267081 25.1759834 25.9233954 24.7826087zM19.826087 24.9792961C19.826087 25.1759834 19.826087 25.3726708 19.826087 25.3726708 19.826087 25.1759834 19.826087 25.1759834 19.826087 24.9792961z"/>
    </g>
    <g transform="translate(87 144)">
      <circle cx="20" cy="20" r="20" fill="#4F77FC"/>
      <circle cx="20" cy="20" r="12.593" fill="#002EFF"/>
      <g fill="#FFF" transform="translate(14.222 14.222)">
        <path d="M9.38525776,2.89687539 L6.8249065,0.336524134 C6.3841903,-0.104192067 5.67064978,-0.104192067 5.22993358,0.336524134 L2.69056881,2.89687539 C2.54366341,3.04378079 2.54366341,3.27463214 2.69056881,3.42153754 L3.46706878,4.19803751 L3.97074444,4.68072668 C4.11764984,4.82763208 4.34850118,4.82763208 4.51639307,4.68072668 L5.54473087,3.73633482 C5.81755518,3.484497 6.25827138,3.484497 6.55208218,3.73633482 L7.58041998,4.68072668 C7.72732538,4.82763208 7.95817673,4.82763208 8.12606861,4.68072668 L8.65073076,4.19803751 L9.42723073,3.42153754 C9.53216316,3.27463214 9.53216316,3.04378079 9.38525776,2.89687539 Z"/>
        <path d="M0.622646252,6.77726497 L5.19670141,11.3513201 C5.699608,11.8542267 6.51383771,11.8542267 7.0167443,11.3513201 L11.5907995,6.77726497 C12.3810812,5.98698319 11.8302788,5.74750386 11.2555284,5.19670141 L10.5370904,4.52615929 C10.3694549,4.35852376 10.1060276,4.35852376 9.91444417,4.52615929 L8.74099546,5.60381627 C8.42967233,5.89119146 7.92676575,5.89119146 7.59149469,5.60381627 L6.41804598,4.52615929 C6.25041045,4.35852376 5.98698319,4.35852376 5.79539973,4.52615929 L4.62195102,5.60381627 C4.3106279,5.89119146 3.80772131,5.89119146 3.47245025,5.60381627 L2.29900155,4.52615929 C2.13136602,4.35852376 1.86793876,4.35852376 1.67635529,4.52615929 L1.02976111,5.12485761 C0.43106279,5.699608 -0.191583462,5.96303526 0.622646252,6.77726497 Z"/>
      </g>
      <g stroke="#002EFF" stroke-linecap="square" stroke-width="2" transform="translate(2.222 2.222)">
        <path d="M32.962963 17.7777778L34.4444444 17.7777778M.37037037 17.7777778L1.85185185 17.7777778"/>
        <path d="M17.037037,33.7037037 L18.5185185,33.7037037" transform="rotate(90 17.778 33.704)"/>
        <path d="M17.037037,1.11111111 L18.5185185,1.11111111" transform="rotate(90 17.778 1.111)"/>
        <path d="M28.2983673,29.039108 L29.7798487,29.039108" transform="rotate(45 29.04 29.04)"/>
        <path d="M5.25192402,5.99266476 L6.7334055,5.99266476" transform="rotate(45 5.993 5.993)"/>
        <path d="M5.77570682,29.039108 L7.2571883,29.039108" transform="rotate(135 6.516 29.04)"/>
        <path d="M28.8221501,5.99266476 L30.3036315,5.99266476" transform="rotate(135 29.563 5.993)"/>
        <path d="M31.750674,23.8723658 L33.2321555,23.8723658" transform="rotate(22.5 32.491 23.872)"/>
        <path d="M1.63904483,11.3997206 L3.12052631,11.3997206" transform="rotate(22.5 2.38 11.4)"/>
        <path d="M10.942449,32.4914148 L12.4239305,32.4914148" transform="rotate(112.5 11.683 32.491)"/>
        <path d="M23.4150942,2.37978557 L24.8965757,2.37978557" transform="rotate(112.5 24.156 2.38)"/>
        <path d="M23.131625,32.4914148 L24.6131065,32.4914148" transform="rotate(67.5 23.872 32.491)"/>
        <path d="M10.6589798,2.37978557 L12.1404613,2.37978557" transform="rotate(67.5 11.4 2.38)"/>
        <path d="M2.32340004,23.8723658 L3.80488152,23.8723658" transform="rotate(157.5 3.064 23.872)"/>
        <path d="M32.4350292,11.3997206 L33.9165107,11.3997206" transform="rotate(157.5 33.176 11.4)"/>
      </g>
    </g>
    <g transform="translate(133 27)">
      <circle cx="20" cy="20" r="20" fill="#4F77FC"/>
      <circle cx="20" cy="20" r="12.593" fill="#002EFF"/>
      <g fill="#FFF" transform="translate(14.222 14.222)">
        <path d="M9.38525776,2.89687539 L6.8249065,0.336524134 C6.3841903,-0.104192067 5.67064978,-0.104192067 5.22993358,0.336524134 L2.69056881,2.89687539 C2.54366341,3.04378079 2.54366341,3.27463214 2.69056881,3.42153754 L3.46706878,4.19803751 L3.97074444,4.68072668 C4.11764984,4.82763208 4.34850118,4.82763208 4.51639307,4.68072668 L5.54473087,3.73633482 C5.81755518,3.484497 6.25827138,3.484497 6.55208218,3.73633482 L7.58041998,4.68072668 C7.72732538,4.82763208 7.95817673,4.82763208 8.12606861,4.68072668 L8.65073076,4.19803751 L9.42723073,3.42153754 C9.53216316,3.27463214 9.53216316,3.04378079 9.38525776,2.89687539 Z"/>
        <path d="M0.622646252,6.77726497 L5.19670141,11.3513201 C5.699608,11.8542267 6.51383771,11.8542267 7.0167443,11.3513201 L11.5907995,6.77726497 C12.3810812,5.98698319 11.8302788,5.74750386 11.2555284,5.19670141 L10.5370904,4.52615929 C10.3694549,4.35852376 10.1060276,4.35852376 9.91444417,4.52615929 L8.74099546,5.60381627 C8.42967233,5.89119146 7.92676575,5.89119146 7.59149469,5.60381627 L6.41804598,4.52615929 C6.25041045,4.35852376 5.98698319,4.35852376 5.79539973,4.52615929 L4.62195102,5.60381627 C4.3106279,5.89119146 3.80772131,5.89119146 3.47245025,5.60381627 L2.29900155,4.52615929 C2.13136602,4.35852376 1.86793876,4.35852376 1.67635529,4.52615929 L1.02976111,5.12485761 C0.43106279,5.699608 -0.191583462,5.96303526 0.622646252,6.77726497 Z"/>
      </g>
      <g stroke="#002EFF" stroke-linecap="square" stroke-width="2" transform="translate(2.222 2.222)">
        <path d="M32.962963 17.7777778L34.4444444 17.7777778M.37037037 17.7777778L1.85185185 17.7777778"/>
        <path d="M17.037037,33.7037037 L18.5185185,33.7037037" transform="rotate(90 17.778 33.704)"/>
        <path d="M17.037037,1.11111111 L18.5185185,1.11111111" transform="rotate(90 17.778 1.111)"/>
        <path d="M28.2983673,29.039108 L29.7798487,29.039108" transform="rotate(45 29.04 29.04)"/>
        <path d="M5.25192402,5.99266476 L6.7334055,5.99266476" transform="rotate(45 5.993 5.993)"/>
        <path d="M5.77570682,29.039108 L7.2571883,29.039108" transform="rotate(135 6.516 29.04)"/>
        <path d="M28.8221501,5.99266476 L30.3036315,5.99266476" transform="rotate(135 29.563 5.993)"/>
        <path d="M31.750674,23.8723658 L33.2321555,23.8723658" transform="rotate(22.5 32.491 23.872)"/>
        <path d="M1.63904483,11.3997206 L3.12052631,11.3997206" transform="rotate(22.5 2.38 11.4)"/>
        <path d="M10.942449,32.4914148 L12.4239305,32.4914148" transform="rotate(112.5 11.683 32.491)"/>
        <path d="M23.4150942,2.37978557 L24.8965757,2.37978557" transform="rotate(112.5 24.156 2.38)"/>
        <path d="M23.131625,32.4914148 L24.6131065,32.4914148" transform="rotate(67.5 23.872 32.491)"/>
        <path d="M10.6589798,2.37978557 L12.1404613,2.37978557" transform="rotate(67.5 11.4 2.38)"/>
        <path d="M2.32340004,23.8723658 L3.80488152,23.8723658" transform="rotate(157.5 3.064 23.872)"/>
        <path d="M32.4350292,11.3997206 L33.9165107,11.3997206" transform="rotate(157.5 33.176 11.4)"/>
      </g>
      <g transform="translate(46)">
        <circle cx="20" cy="20" r="20" fill="#4F77FC"/>
        <circle cx="20" cy="20" r="12.593" fill="#002EFF"/>
        <g fill="#FFF" transform="translate(14.222 14.222)">
          <path d="M9.38525776,2.89687539 L6.8249065,0.336524134 C6.3841903,-0.104192067 5.67064978,-0.104192067 5.22993358,0.336524134 L2.69056881,2.89687539 C2.54366341,3.04378079 2.54366341,3.27463214 2.69056881,3.42153754 L3.46706878,4.19803751 L3.97074444,4.68072668 C4.11764984,4.82763208 4.34850118,4.82763208 4.51639307,4.68072668 L5.54473087,3.73633482 C5.81755518,3.484497 6.25827138,3.484497 6.55208218,3.73633482 L7.58041998,4.68072668 C7.72732538,4.82763208 7.95817673,4.82763208 8.12606861,4.68072668 L8.65073076,4.19803751 L9.42723073,3.42153754 C9.53216316,3.27463214 9.53216316,3.04378079 9.38525776,2.89687539 Z"/>
          <path d="M0.622646252,6.77726497 L5.19670141,11.3513201 C5.699608,11.8542267 6.51383771,11.8542267 7.0167443,11.3513201 L11.5907995,6.77726497 C12.3810812,5.98698319 11.8302788,5.74750386 11.2555284,5.19670141 L10.5370904,4.52615929 C10.3694549,4.35852376 10.1060276,4.35852376 9.91444417,4.52615929 L8.74099546,5.60381627 C8.42967233,5.89119146 7.92676575,5.89119146 7.59149469,5.60381627 L6.41804598,4.52615929 C6.25041045,4.35852376 5.98698319,4.35852376 5.79539973,4.52615929 L4.62195102,5.60381627 C4.3106279,5.89119146 3.80772131,5.89119146 3.47245025,5.60381627 L2.29900155,4.52615929 C2.13136602,4.35852376 1.86793876,4.35852376 1.67635529,4.52615929 L1.02976111,5.12485761 C0.43106279,5.699608 -0.191583462,5.96303526 0.622646252,6.77726497 Z"/>
        </g>
        <g stroke="#002EFF" stroke-linecap="square" stroke-width="2" transform="translate(2.222 2.222)">
          <path d="M32.962963 17.7777778L34.4444444 17.7777778M.37037037 17.7777778L1.85185185 17.7777778"/>
          <path d="M17.037037,33.7037037 L18.5185185,33.7037037" transform="rotate(90 17.778 33.704)"/>
          <path d="M17.037037,1.11111111 L18.5185185,1.11111111" transform="rotate(90 17.778 1.111)"/>
          <path d="M28.2983673,29.039108 L29.7798487,29.039108" transform="rotate(45 29.04 29.04)"/>
          <path d="M5.25192402,5.99266476 L6.7334055,5.99266476" transform="rotate(45 5.993 5.993)"/>
          <path d="M5.77570682,29.039108 L7.2571883,29.039108" transform="rotate(135 6.516 29.04)"/>
          <path d="M28.8221501,5.99266476 L30.3036315,5.99266476" transform="rotate(135 29.563 5.993)"/>
          <path d="M31.750674,23.8723658 L33.2321555,23.8723658" transform="rotate(22.5 32.491 23.872)"/>
          <path d="M1.63904483,11.3997206 L3.12052631,11.3997206" transform="rotate(22.5 2.38 11.4)"/>
          <path d="M10.942449,32.4914148 L12.4239305,32.4914148" transform="rotate(112.5 11.683 32.491)"/>
          <path d="M23.4150942,2.37978557 L24.8965757,2.37978557" transform="rotate(112.5 24.156 2.38)"/>
          <path d="M23.131625,32.4914148 L24.6131065,32.4914148" transform="rotate(67.5 23.872 32.491)"/>
          <path d="M10.6589798,2.37978557 L12.1404613,2.37978557" transform="rotate(67.5 11.4 2.38)"/>
          <path d="M2.32340004,23.8723658 L3.80488152,23.8723658" transform="rotate(157.5 3.064 23.872)"/>
          <path d="M32.4350292,11.3997206 L33.9165107,11.3997206" transform="rotate(157.5 33.176 11.4)"/>
        </g>
      </g>
      <g transform="translate(92)">
        <circle cx="20" cy="20" r="20" fill="#4F77FC"/>
        <circle cx="20" cy="20" r="12.593" fill="#002EFF"/>
        <g fill="#FFF" transform="translate(14.222 14.222)">
          <path d="M9.38525776,2.89687539 L6.8249065,0.336524134 C6.3841903,-0.104192067 5.67064978,-0.104192067 5.22993358,0.336524134 L2.69056881,2.89687539 C2.54366341,3.04378079 2.54366341,3.27463214 2.69056881,3.42153754 L3.46706878,4.19803751 L3.97074444,4.68072668 C4.11764984,4.82763208 4.34850118,4.82763208 4.51639307,4.68072668 L5.54473087,3.73633482 C5.81755518,3.484497 6.25827138,3.484497 6.55208218,3.73633482 L7.58041998,4.68072668 C7.72732538,4.82763208 7.95817673,4.82763208 8.12606861,4.68072668 L8.65073076,4.19803751 L9.42723073,3.42153754 C9.53216316,3.27463214 9.53216316,3.04378079 9.38525776,2.89687539 Z"/>
          <path d="M0.622646252,6.77726497 L5.19670141,11.3513201 C5.699608,11.8542267 6.51383771,11.8542267 7.0167443,11.3513201 L11.5907995,6.77726497 C12.3810812,5.98698319 11.8302788,5.74750386 11.2555284,5.19670141 L10.5370904,4.52615929 C10.3694549,4.35852376 10.1060276,4.35852376 9.91444417,4.52615929 L8.74099546,5.60381627 C8.42967233,5.89119146 7.92676575,5.89119146 7.59149469,5.60381627 L6.41804598,4.52615929 C6.25041045,4.35852376 5.98698319,4.35852376 5.79539973,4.52615929 L4.62195102,5.60381627 C4.3106279,5.89119146 3.80772131,5.89119146 3.47245025,5.60381627 L2.29900155,4.52615929 C2.13136602,4.35852376 1.86793876,4.35852376 1.67635529,4.52615929 L1.02976111,5.12485761 C0.43106279,5.699608 -0.191583462,5.96303526 0.622646252,6.77726497 Z"/>
        </g>
        <g stroke="#002EFF" stroke-linecap="square" stroke-width="2" transform="translate(2.222 2.222)">
          <path d="M32.962963 17.7777778L34.4444444 17.7777778M.37037037 17.7777778L1.85185185 17.7777778"/>
          <path d="M17.037037,33.7037037 L18.5185185,33.7037037" transform="rotate(90 17.778 33.704)"/>
          <path d="M17.037037,1.11111111 L18.5185185,1.11111111" transform="rotate(90 17.778 1.111)"/>
          <path d="M28.2983673,29.039108 L29.7798487,29.039108" transform="rotate(45 29.04 29.04)"/>
          <path d="M5.25192402,5.99266476 L6.7334055,5.99266476" transform="rotate(45 5.993 5.993)"/>
          <path d="M5.77570682,29.039108 L7.2571883,29.039108" transform="rotate(135 6.516 29.04)"/>
          <path d="M28.8221501,5.99266476 L30.3036315,5.99266476" transform="rotate(135 29.563 5.993)"/>
          <path d="M31.750674,23.8723658 L33.2321555,23.8723658" transform="rotate(22.5 32.491 23.872)"/>
          <path d="M1.63904483,11.3997206 L3.12052631,11.3997206" transform="rotate(22.5 2.38 11.4)"/>
          <path d="M10.942449,32.4914148 L12.4239305,32.4914148" transform="rotate(112.5 11.683 32.491)"/>
          <path d="M23.4150942,2.37978557 L24.8965757,2.37978557" transform="rotate(112.5 24.156 2.38)"/>
          <path d="M23.131625,32.4914148 L24.6131065,32.4914148" transform="rotate(67.5 23.872 32.491)"/>
          <path d="M10.6589798,2.37978557 L12.1404613,2.37978557" transform="rotate(67.5 11.4 2.38)"/>
          <path d="M2.32340004,23.8723658 L3.80488152,23.8723658" transform="rotate(157.5 3.064 23.872)"/>
          <path d="M32.4350292,11.3997206 L33.9165107,11.3997206" transform="rotate(157.5 33.176 11.4)"/>
        </g>
      </g>
    </g>
    <g transform="translate(356 153)">
      <rect width="25.6" height="15" x="3.2" y="8" fill="#002EFF"/>
      <rect width="32" height="8" fill="#4F77FC" rx="2"/>
      <rect width="32" height="8" y="11" fill="#4F77FC" rx="2"/>
      <rect width="32" height="8" y="22" fill="#4F77FC" rx="2"/>
      <ellipse cx="6.4" cy="4" fill="#FFF" stroke="#002EFF" rx="2.133" ry="2"/>
      <ellipse cx="26.667" cy="4" fill="#002EFF" rx="1.067" ry="1"/>
      <ellipse cx="22.4" cy="4" fill="#002EFF" rx="1.067" ry="1"/>
      <ellipse cx="18.133" cy="4" fill="#002EFF" rx="1.067" ry="1"/>
      <ellipse cx="26.667" cy="15" fill="#002EFF" rx="1.067" ry="1"/>
      <ellipse cx="22.4" cy="15" fill="#002EFF" rx="1.067" ry="1"/>
      <ellipse cx="18.133" cy="15" fill="#002EFF" rx="1.067" ry="1"/>
      <ellipse cx="26.667" cy="26" fill="#002EFF" rx="1.067" ry="1"/>
      <ellipse cx="22.4" cy="26" fill="#002EFF" rx="1.067" ry="1"/>
      <ellipse cx="18.133" cy="26" fill="#002EFF" rx="1.067" ry="1"/>
      <ellipse cx="6.4" cy="15" fill="#FFF" stroke="#002EFF" rx="2.133" ry="2"/>
      <ellipse cx="6.4" cy="26" fill="#FFF" stroke="#002EFF" rx="2.133" ry="2"/>
    </g>
    <g transform="translate(29 34)">
      <path fill="#E0E1E6" fill-rule="nonzero" d="M22.1726183,0.806365906 L0.758352057,22.2395621 L0.758352057,22.2395621 C-0.0167913884,23.0153908 -0.0162359077,24.2727021 0.759592758,25.0478456 C0.76116606,25.0494175 0.762742003,25.0509868 0.764320578,25.0525534 L0.764320578,25.0525534 L0.764320578,25.0525534 C1.54623735,25.8285474 2.80844075,25.8261481 3.58740176,25.0471871 L25.0004205,3.63416837 L25.0004205,3.63416837 C25.781469,2.85311979 25.781469,1.58678983 25.0004205,0.805741244 L25.0004205,0.805741244 L25.0004205,0.805741244 C24.2197169,0.0250376517 22.9539463,0.0250376517 22.1732427,0.805741244 C22.1730345,0.805949419 22.1728264,0.806157639 22.1726183,0.806365906 Z"/>
      <circle cx="6.034" cy="4.552" r="4.552" stroke="#E0E1E6" stroke-width="4"/>
      <circle cx="18.793" cy="22.103" r="4.552" stroke="#E0E1E6" stroke-width="4"/>
    </g>
  </g>
</svg>
