<?xml version="1.0" encoding="UTF-8"?>
<svg width="390px" height="495px" viewBox="0 0 390 495" version="1.1" xmlns="http://www.w3.org/2000/svg" xmlns:xlink="http://www.w3.org/1999/xlink">
    <!-- Generator: Sketch 48 (47235) - http://www.bohemiancoding.com/sketch -->
    <title>Без названия</title>
    <desc>Created with Sketch.</desc>
    <defs>
        <path d="M4,-3.21600168e-13 L320,5.04496727e-13 C322.209139,4.82455764e-13 324,1.790861 324,4 L324,425 C324,427.209139 322.209139,429 320,429 L4,429 C1.790861,429 1.29633758e-14,427.209139 1.46549439e-14,425 L1.02140518e-14,4 C-1.2515963e-15,1.790861 1.790861,-3.40654696e-13 4,-3.21600168e-13 Z" id="path-1"></path>
        <filter x="-4.9%" y="-3.3%" width="109.9%" height="107.5%" filterUnits="objectBoundingBox" id="filter-2">
            <feOffset dx="0" dy="2" in="SourceAlpha" result="shadowOffsetOuter1"></feOffset>
            <feGaussianBlur stdDeviation="5" in="shadowOffsetOuter1" result="shadowBlurOuter1"></feGaussianBlur>
            <feColorMatrix values="0 0 0 0 0.166473492   0 0 0 0 0.255380713   0 0 0 0 0.433195153  0 0 0 0.22 0" type="matrix" in="shadowBlurOuter1"></feColorMatrix>
        </filter>
        <path d="M27,23 L343,23 C345.209139,23 347,24.790861 347,27 L347,448 C347,450.209139 345.209139,452 343,452 L27,452 C24.790861,452 23,450.209139 23,448 L23,27 C23,24.790861 24.790861,23 27,23 Z" id="path-3"></path>
        <filter x="-4.9%" y="-3.3%" width="109.9%" height="107.5%" filterUnits="objectBoundingBox" id="filter-4">
            <feOffset dx="0" dy="2" in="SourceAlpha" result="shadowOffsetOuter1"></feOffset>
            <feGaussianBlur stdDeviation="5" in="shadowOffsetOuter1" result="shadowBlurOuter1"></feGaussianBlur>
            <feColorMatrix values="0 0 0 0 0.166473492   0 0 0 0 0.255380713   0 0 0 0 0.433195153  0 0 0 0.22 0" type="matrix" in="shadowBlurOuter1"></feColorMatrix>
        </filter>
        <path d="M50,46 L366,46 C368.209139,46 370,47.790861 370,50 L370,471 C370,473.209139 368.209139,475 366,475 L50,475 C47.790861,475 46,473.209139 46,471 L46,50 C46,47.790861 47.790861,46 50,46 Z" id="path-5"></path>
        <filter x="-4.9%" y="-3.3%" width="109.9%" height="107.5%" filterUnits="objectBoundingBox" id="filter-6">
            <feOffset dx="0" dy="2" in="SourceAlpha" result="shadowOffsetOuter1"></feOffset>
            <feGaussianBlur stdDeviation="5" in="shadowOffsetOuter1" result="shadowBlurOuter1"></feGaussianBlur>
            <feColorMatrix values="0 0 0 0 0.166473492   0 0 0 0 0.255380713   0 0 0 0 0.433195153  0 0 0 0.22 0" type="matrix" in="shadowBlurOuter1"></feColorMatrix>
        </filter>
    </defs>
    <g id="Page-1" stroke="none" stroke-width="1" fill="none" fill-rule="evenodd">
        <g id="Без-названия" transform="translate(10.000000, 8.000000)">
            <g id="whitepaper-b" fill-rule="nonzero">
                <use fill="black" fill-opacity="1" filter="url(#filter-2)" xlink:href="#path-1"></use>
                <use fill="#FFFFFF" fill-rule="evenodd" xlink:href="#path-1"></use>
            </g>
            <g id="whitepaper-d" fill-rule="nonzero">
                <use fill="black" fill-opacity="1" filter="url(#filter-4)" xlink:href="#path-3"></use>
                <use fill="#FFFFFF" fill-rule="evenodd" xlink:href="#path-3"></use>
            </g>
            <g id="whitepaper-f" fill-rule="nonzero">
                <use fill="black" fill-opacity="1" filter="url(#filter-6)" xlink:href="#path-5"></use>
                <use fill="#FFFFFF" fill-rule="evenodd" xlink:href="#path-5"></use>
            </g>
            <path d="M276.214286,245 L278.785714,245 C278.904061,245 279,244.776142 279,244.5 C279,244.223858 278.904061,244 278.785714,244 L276.214286,244 C276.095939,244 276,244.223858 276,244.5 C276,244.776142 276.095939,245 276.214286,245 Z" id="Shape" fill="#A2E0F5" fill-rule="nonzero" opacity="0.33"></path>
            <polygon id="Shape" fill="#DFE4EE" fill-rule="nonzero" opacity="0.33" points="112 339 302 339 302 338 112 338"></polygon>
            <polygon id="Shape" fill="#DFE4EE" fill-rule="nonzero" opacity="0.33" points="112 322 302 322 302 321 112 321"></polygon>
            <polygon id="Shape" fill="#DFE4EE" fill-rule="nonzero" opacity="0.33" points="112 305 302 305 302 304 112 304"></polygon>
            <polygon id="Shape" fill="#DFE4EE" fill-rule="nonzero" opacity="0.33" points="112 288 302 288 302 287 112 287"></polygon>
            <polygon id="Shape" fill="#DFE4EE" fill-rule="nonzero" opacity="0.33" points="112 271 302 271 302 270 112 270"></polygon>
            <polygon id="Shape" fill="#DFE4EE" fill-rule="nonzero" opacity="0.33" points="112 254 302 254 302 253 112 253"></polygon>
            <g id="Group" transform="translate(173.000000, 100.000000)" fill="#4F77FC">
                <rect id="Rectangle" transform="translate(33.234019, 33.234019) rotate(45.000000) translate(-33.234019, -33.234019) " x="9.73401872" y="9.73401872" width="47" height="47"></rect>
            </g>
            <path d="M114,370 L187,370 C188.656854,370 190,368.656854 190,367 C190,365.343146 188.656854,364 187,364 L114,364 C112.343146,364 111,365.343146 111,367 C111,368.656854 112.343146,370 114,370 Z M114,383 L299,383 C300.656854,383 302,381.656854 302,380 C302,378.343146 300.656854,377 299,377 L114,377 C112.343146,377 111,378.343146 111,380 C111,381.656854 112.343146,383 114,383 Z" id="Shape" fill="#B5BDCE" fill-rule="nonzero"></path>
            <path d="M114,396 L299,396 C300.656854,396 302,394.656854 302,393 C302,391.343146 300.656854,390 299,390 L114,390 C112.343146,390 111,391.343146 111,393 C111,394.656854 112.343146,396 114,396 Z M114,409 L299,409 C300.656854,409 302,407.656854 302,406 C302,404.343146 300.656854,403 299,403 L114,403 C112.343146,403 111,404.343146 111,406 C111,407.656854 112.343146,409 114,409 Z" id="Shape" fill="#DFE4EE" fill-rule="nonzero"></path>
            <path d="M114,215 L299,215 C300.656854,215 302,213.656854 302,212 C302,210.343146 300.656854,209 299,209 L114,209 C112.343146,209 111,210.343146 111,212 C111,213.656854 112.343146,215 114,215 Z" id="Shape" fill="#B5BDCE" fill-rule="nonzero"></path>
            <path d="M114,228 L299,228 C300.656854,228 302,226.656854 302,225 C302,223.343146 300.656854,222 299,222 L114,222 C112.343146,222 111,223.343146 111,225 C111,226.656854 112.343146,228 114,228 Z" id="Shape" fill="#DFE4EE" fill-rule="nonzero"></path>
            <path d="M114,228 L299,228 C300.656854,228 302,226.656854 302,225 C302,223.343146 300.656854,222 299,222 L114,222 C112.343146,222 111,223.343146 111,225 C111,226.656854 112.343146,228 114,228 Z" id="Shape" fill="#DFE4EE" fill-rule="nonzero"></path>
            <path d="M199,370 L212,370 C213.656854,370 215,368.656854 215,367 C215,365.343146 213.656854,364 212,364 L199,364 C197.343146,364 196,365.343146 196,367 C196,368.656854 197.343146,370 199,370 Z" id="Shape" fill="#B5BDCE" fill-rule="nonzero"></path>
            <path d="M113.5,319.5 L151.5,300.5 M192.5,279.5 L272.50625,279.5 M152.5,299.5 L191.5,279.5 M272.5,279.5 L302.5,248.5" id="Shape" stroke="#DFE4EE" stroke-linecap="square"></path>
            <circle id="Oval" fill="#DFE4EE" fill-rule="nonzero" cx="113" cy="321" r="4"></circle>
            <circle id="Oval" fill="#DFE4EE" fill-rule="nonzero" cx="150" cy="301" r="4"></circle>
            <circle id="Oval" fill="#B5BDCE" fill-rule="nonzero" cx="190" cy="280" r="4"></circle>
            <circle id="Oval" fill="#B5BDCE" fill-rule="nonzero" cx="230" cy="280" r="4"></circle>
            <circle id="Oval" fill="#4F77FC" fill-rule="nonzero" cx="270" cy="280" r="4"></circle>
            <circle id="Oval" fill="#4F77FC" fill-rule="nonzero" cx="300" cy="251" r="4"></circle>
        </g>
    </g>
</svg>