<svg xmlns="http://www.w3.org/2000/svg" xmlns:xlink="http://www.w3.org/1999/xlink" viewBox="0 0 620 401">
  <defs>
    <path id="console-b" d="M4,-7.99352446e-15 L586,4.39468611e-13 L586,4.42312853e-13 C588.209139,4.41907036e-13 590,1.790861 590,4 L590,367 L590,367 C590,369.209139 588.209139,371 586,371 L4,371 L4,371 C1.790861,371 3.16642949e-14,369.209139 0,367 L0,4 L-3.10862447e-15,4 C-3.37916597e-15,1.790861 1.790861,4.05816873e-16 4,0 Z"/>
    <filter id="console-a" width="111.4%" height="118.1%" x="-5.7%" y="-5.8%" filterUnits="objectBoundingBox">
      <feOffset dy="2" in="SourceAlpha" result="shadowOffsetOuter1"/>
      <feGaussianBlur in="shadowOffsetOuter1" result="shadowBlurOuter1" stdDeviation="3"/>
      <feColorMatrix in="shadowBlurOuter1" result="shadowMatrixOuter1" values="0 0 0 0 0.694117647   0 0 0 0 0.752941176   0 0 0 0 0.839215686  0 0 0 0.4 0"/>
      <feOffset dy="10" in="SourceAlpha" result="shadowOffsetOuter2"/>
      <feGaussianBlur in="shadowOffsetOuter2" result="shadowBlurOuter2" stdDeviation="7.5"/>
      <feColorMatrix in="shadowBlurOuter2" result="shadowMatrixOuter2" values="0 0 0 0 0.705882353   0 0 0 0 0.788235294   0 0 0 0 0.952941176  0 0 0 0.35 0"/>
      <feMerge>
        <feMergeNode in="shadowMatrixOuter1"/>
        <feMergeNode in="shadowMatrixOuter2"/>
      </feMerge>
    </filter>
  </defs>
  <g fill="none" fill-rule="evenodd" transform="translate(14 5)">
    <g transform="translate(1)">
      <use fill="#000" filter="url(#console-a)" xlink:href="#console-b"/>
      <use fill="#172947" xlink:href="#console-b"/>
    </g>
    <path stroke="#DFE4EE" stroke-linecap="round" stroke-width="6" d="M60 105L78 105M91 105L125 105M60 118L78 118M91 118L125 118M138 118L242 118M138 131L242 131M60 131L78 131M91 131L125 131M255 131L289 131M138 144L242 144M60 144L78 144M60 157L258 157M60 170L530 170M60 183L530 183M60 196L530 196M60 209L530 209M60 222L530 222M60 234L530 234M60 247L530 247M60 260L530 260M60 299L530 299M271 157L529 157M91 144L125 144M60 273L78 273M91 273L125 273M138 273L242 273M138 286L242 286M60 286L78 286M91 286L125 286M255 144L289 144M302 144L466 144" opacity=".4"/>
    <circle cx="36" cy="25" r="6" fill="#ED6B60" opacity=".5"/>
    <circle cx="57" cy="25" r="6" fill="#F6C050" opacity=".5"/>
    <circle cx="78" cy="25" r="6" fill="#64CA57" opacity=".5"/>
    <path stroke="#DFE4EE" stroke-linecap="square" d="M0.5,51.5 L591.74445,51.5" opacity=".1"/>
  </g>
</svg>
