<svg xmlns="http://www.w3.org/2000/svg" xmlns:xlink="http://www.w3.org/1999/xlink" width="610" height="391" viewBox="0 0 610 391">
  <defs>
    <path id="console-b" d="M4,-7.99357867e-15 L586,4.3946853e-13 L586,4.42312853e-13 C588.209139,3.79119533e-13 590,1.790861 590,4 L590,367 L590,367 C590,369.209139 588.209139,371 586,371 L4,371 L4,371 C1.790861,371 2.705415e-16,369.209139 0,367 L0,4 L-3.55271368e-15,4 C-3.82325518e-15,1.790861 1.790861,4.05816873e-16 4,0 Z"/>
    <filter id="console-a" width="105.4%" height="108.6%" x="-2.7%" y="-3.8%" filterUnits="objectBoundingBox">
      <feOffset dy="2" in="SourceAlpha" result="shadowOffsetOuter1"/>
      <feGaussianBlur in="shadowOffsetOuter1" result="shadowBlurOuter1" stdDeviation="5"/>
      <feColorMatrix in="shadowBlurOuter1" values="0 0 0 0 0.59345609   0 0 0 0 0.653819356   0 0 0 0 0.741443452  0 0 0 0.2 0"/>
    </filter>
  </defs>
  <g fill="none" fill-rule="evenodd" transform="translate(9 8)">
    <g transform="translate(1)">
      <use fill="#000" filter="url(#console-a)" xlink:href="#console-b"/>
      <use fill="#172947" xlink:href="#console-b"/>
    </g>
    <path fill="#DFE4EE" fill-rule="nonzero" d="M60 118L78 118C79.6568542 118 81 116.656854 81 115 81 113.343146 79.6568542 112 78 112L60 112C58.3431458 112 57 113.343146 57 115 57 116.656854 58.3431458 118 60 118zM91 118L125 118C126.656854 118 128 116.656854 128 115 128 113.343146 126.656854 112 125 112L91 112C89.3431458 112 88 113.343146 88 115 88 116.656854 89.3431458 118 91 118zM60 131L78 131C79.6568542 131 81 129.656854 81 128 81 126.343146 79.6568542 125 78 125L60 125C58.3431458 125 57 126.343146 57 128 57 129.656854 58.3431458 131 60 131zM91 131L125 131C126.656854 131 128 129.656854 128 128 128 126.343146 126.656854 125 125 125L91 125C89.3431458 125 88 126.343146 88 128 88 129.656854 89.3431458 131 91 131zM138 131L242 131C243.656854 131 245 129.656854 245 128 245 126.343146 243.656854 125 242 125L138 125C136.343146 125 135 126.343146 135 128 135 129.656854 136.343146 131 138 131zM138 144L242 144C243.656854 144 245 142.656854 245 141 245 139.343146 243.656854 138 242 138L138 138C136.343146 138 135 139.343146 135 141 135 142.656854 136.343146 144 138 144zM60 144L78 144C79.6568542 144 81 142.656854 81 141 81 139.343146 79.6568542 138 78 138L60 138C58.3431458 138 57 139.343146 57 141 57 142.656854 58.3431458 144 60 144zM91 144L125 144C126.656854 144 128 142.656854 128 141 128 139.343146 126.656854 138 125 138L91 138C89.3431458 138 88 139.343146 88 141 88 142.656854 89.3431458 144 91 144zM255 144L289 144C290.656854 144 292 142.656854 292 141 292 139.343146 290.656854 138 289 138L255 138C253.343146 138 252 139.343146 252 141 252 142.656854 253.343146 144 255 144zM138 157L242 157C243.656854 157 245 155.656854 245 154 245 152.343146 243.656854 151 242 151L138 151C136.343146 151 135 152.343146 135 154 135 155.656854 136.343146 157 138 157zM60 157L78 157C79.6568542 157 81 155.656854 81 154 81 152.343146 79.6568542 151 78 151L60 151C58.3431458 151 57 152.343146 57 154 57 155.656854 58.3431458 157 60 157zM60 170L258 170C259.656854 170 261 168.656854 261 167 261 165.343146 259.656854 164 258 164L60 164C58.3431458 164 57 165.343146 57 167 57 168.656854 58.3431458 170 60 170zM60 183L530 183C531.656854 183 533 181.656854 533 180 533 178.343146 531.656854 177 530 177L60 177C58.3431458 177 57 178.343146 57 180 57 181.656854 58.3431458 183 60 183zM60 196L530 196C531.656854 196 533 194.656854 533 193 533 191.343146 531.656854 190 530 190L60 190C58.3431458 190 57 191.343146 57 193 57 194.656854 58.3431458 196 60 196zM60 209L530 209C531.656854 209 533 207.656854 533 206 533 204.343146 531.656854 203 530 203L60 203C58.3431458 203 57 204.343146 57 206 57 207.656854 58.3431458 209 60 209zM60 222L530 222C531.656854 222 533 220.656854 533 219 533 217.343146 531.656854 216 530 216L60 216C58.3431458 216 57 217.343146 57 219 57 220.656854 58.3431458 222 60 222zM60 235L530 235C531.656854 235 533 233.656854 533 232 533 230.343146 531.656854 229 530 229L60 229C58.3431458 229 57 230.343146 57 232 57 233.656854 58.3431458 235 60 235zM60 247L530 247C531.656854 247 533 245.656854 533 244 533 242.343146 531.656854 241 530 241L60 241C58.3431458 241 57 242.343146 57 244 57 245.656854 58.3431458 247 60 247zM60 260L530 260C531.656854 260 533 258.656854 533 257 533 255.343146 531.656854 254 530 254L60 254C58.3431458 254 57 255.343146 57 257 57 258.656854 58.3431458 260 60 260zM60 273L530 273C531.656854 273 533 271.656854 533 270 533 268.343146 531.656854 267 530 267L60 267C58.3431458 267 57 268.343146 57 270 57 271.656854 58.3431458 273 60 273zM60 312L530 312C531.656854 312 533 310.656854 533 309 533 307.343146 531.656854 306 530 306L60 306C58.3431458 306 57 307.343146 57 309 57 310.656854 58.3431458 312 60 312zM271 170L529 170C530.656854 170 532 168.656854 532 167 532 165.343146 530.656854 164 529 164L271 164C269.343146 164 268 165.343146 268 167 268 168.656854 269.343146 170 271 170zM91 157L125 157C126.656854 157 128 155.656854 128 154 128 152.343146 126.656854 151 125 151L91 151C89.3431458 151 88 152.343146 88 154 88 155.656854 89.3431458 157 91 157zM60 286L78 286C79.6568542 286 81 284.656854 81 283 81 281.343146 79.6568542 280 78 280L60 280C58.3431458 280 57 281.343146 57 283 57 284.656854 58.3431458 286 60 286zM91 286L125 286C126.656854 286 128 284.656854 128 283 128 281.343146 126.656854 280 125 280L91 280C89.3431458 280 88 281.343146 88 283 88 284.656854 89.3431458 286 91 286zM138 286L242 286C243.656854 286 245 284.656854 245 283 245 281.343146 243.656854 280 242 280L138 280C136.343146 280 135 281.343146 135 283 135 284.656854 136.343146 286 138 286zM138 299L242 299C243.656854 299 245 297.656854 245 296 245 294.343146 243.656854 293 242 293L138 293C136.343146 293 135 294.343146 135 296 135 297.656854 136.343146 299 138 299zM60 299L78 299C79.6568542 299 81 297.656854 81 296 81 294.343146 79.6568542 293 78 293L60 293C58.3431458 293 57 294.343146 57 296 57 297.656854 58.3431458 299 60 299zM91 299L125 299C126.656854 299 128 297.656854 128 296 128 294.343146 126.656854 293 125 293L91 293C89.3431458 293 88 294.343146 88 296 88 297.656854 89.3431458 299 91 299zM255 157L289 157C290.656854 157 292 155.656854 292 154 292 152.343146 290.656854 151 289 151L255 151C253.343146 151 252 152.343146 252 154 252 155.656854 253.343146 157 255 157zM302 157L466 157C467.656854 157 469 155.656854 469 154 469 152.343146 467.656854 151 466 151L302 151C300.343146 151 299 152.343146 299 154 299 155.656854 300.343146 157 302 157z" opacity=".4"/>
    <circle cx="36" cy="35" r="6" fill="#DFE4EE" opacity=".2"/>
    <circle cx="57" cy="35" r="6" fill="#DFE4EE" opacity=".2"/>
    <circle cx="78" cy="35" r="6" fill="#DFE4EE" opacity=".2"/>
    <path stroke="#DFE4EE" stroke-linecap="square" d="M0.5,61.5 L591.74445,61.5" opacity=".1"/>
  </g>
</svg>
