<svg xmlns="http://www.w3.org/2000/svg" width="136" height="26"><path d="M43.12 24.78h6.02V.4h-6.02v24.38zM32 10.59a2.93 2.93 0 0 1 2.85 3.1H29a3 3 0 0 1 3-3.1zm6.29 9.26a12.93 12.93 0 0 1-4.28.78c-2.59 0-4.62-.86-5-2.92h11.16a10 10 0 0 0 .23-2.35c0-4.67-2.32-9-8.25-9-5.76 0-8.82 4.51-8.82 9.57 0 5.83 4.08 9.17 9.77 9.17a14.78 14.78 0 0 0 6.13-1.1l-.89-4.12zM118.13 10.59A2.93 2.93 0 0 1 121 13.7h-5.91a3 3 0 0 1 3.04-3.11zm6.29 9.26a12.9 12.9 0 0 1-4.27.78c-2.6 0-4.62-.86-5-2.92h11.06a10 10 0 0 0 .23-2.35c0-4.67-2.32-9-8.25-9-5.76 0-8.82 4.51-8.82 9.57 0 5.83 4.08 9.17 9.77 9.17a14.79 14.79 0 0 0 6.18-1.1l-.89-4.12zM61.2 20.69c-1.95 0-3.23-1.93-3.23-4.9 0-2.37.86-4.91 3.25-4.91s3.12 2.63 3.12 4.88c.01 3-1.24 4.93-3.14 4.93zm-.08 4.45c4.68 0 9.42-2.95 9.42-9.53 0-3.92-2.32-9.18-9.12-9.18-7 0-9.55 5.1-9.55 9.48 0 5.5 3.82 9.23 9.26 9.23zM73.19 24.77h6.02V6.8h-6.02v17.97zM97.88 6.79h-2.31v4.45h2.3v7.43c0 4 1.87 6.47 6.09 6.47a17.8 17.8 0 0 0 4.26-.6v-4.67a9.88 9.88 0 0 1-2.07.3c-.85 0-2.34-.24-2.34-2.5v-6.42h3.88V6.79h-3.88V1.24l-5.9.67zM84 1.9v4.89h-2.35v4.45H84v7.43c0 4 1.87 6.47 6.09 6.47a17.8 17.8 0 0 0 4.25-.6v-4.67a9.88 9.88 0 0 1-2.07.3c-.85 0-2.34-.24-2.34-2.5v-6.42h3.88V6.79h-3.96V1.24L84 1.9M73.19 5.08h6.02V.41h-6.02v4.67zM0 24.8h7.1c10.4 0 14.37-6.21 14.37-12.11C21.47 4.61 16.31 0 7 0 4.39 0 1.55.11 0 .28zM8 20H5.94V5c.44 0 1.23-.09 2.14-.09 3.53 0 7.14 2.31 7.14 7.61C15.22 18.58 10.61 20 8 20zM128.43 21.84a3.33 3.33 0 1 1 3.33 3.33 3.33 3.33 0 0 1-3.33-3.33"/></svg>
