<svg xmlns="http://www.w3.org/2000/svg" width="256" height="134" viewBox="0 0 256 134">
  <g fill="#FFF" fill-rule="evenodd">
    <path d="M9.462,120.675 L13.899,120.675 C16.194,120.675 18.234,121.27 18.234,123.718 C18.234,124.891 17.724,125.945 16.874,126.438 C18.047,126.931 18.744,127.849 18.744,129.362 C18.744,131.98 16.789,133 14.324,133 L9.462,133 L9.462,120.675 Z M11.196,125.945 L14.171,125.945 C15.582,125.945 16.483,125.401 16.483,123.956 C16.483,122.698 15.548,122.137 14.171,122.137 L11.196,122.137 L11.196,125.945 Z M11.196,131.538 L14.341,131.538 C16.092,131.538 16.959,130.773 16.959,129.379 C16.959,127.934 16.092,127.322 14.239,127.322 L11.196,127.322 L11.196,131.538 Z M23.436,122.171 L19.424,122.171 L19.424,120.675 L29.182,120.675 L29.182,122.171 L25.17,122.171 L25.17,133 L23.436,133 L23.436,122.171 Z M40.98,129.073 C40.436,131.793 38.311,133.221 35.642,133.221 C32.106,133.221 30.049,130.569 30.049,126.812 C30.049,122.987 32.293,120.454 35.778,120.454 C38.328,120.454 40.385,121.967 40.912,124.602 L39.229,124.602 C38.855,123.072 37.665,121.916 35.693,121.916 C33.517,121.916 31.817,123.616 31.817,126.812 C31.817,129.923 33.449,131.759 35.744,131.759 C37.699,131.759 38.906,130.654 39.297,129.073 L40.98,129.073 Z"/>
    <rect width="51" height="100"/>
    <rect width="51" height="55" x="101" y="45"/>
    <rect width="51" height="2" x="202" y="98"/>
    <path d="M110.462,120.675 L118.826,120.675 L118.826,122.171 L112.196,122.171 L112.196,125.911 L118.435,125.911 L118.435,127.407 L112.196,127.407 L112.196,131.504 L118.826,131.504 L118.826,133 L110.462,133 L110.462,120.675 Z M123.433,122.171 L119.421,122.171 L119.421,120.675 L129.179,120.675 L129.179,122.171 L125.167,122.171 L125.167,133 L123.433,133 L123.433,122.171 Z M140.586,120.675 L140.586,133 L138.852,133 L138.852,127.407 L132.375,127.407 L132.375,133 L130.641,133 L130.641,120.675 L132.375,120.675 L132.375,125.911 L138.852,125.911 L138.852,120.675 L140.586,120.675 Z M208.305,131.028 L210.583,120.675 L212.402,120.675 L209.325,133 L207.217,133 L204.837,122.868 L202.508,133 L200.4,133 L197.272,120.675 L199.176,120.675 L201.556,131.028 L203.834,120.675 L205.874,120.675 L208.305,131.028 Z M217.247,120.675 L219.253,120.675 L223.894,133 L222.024,133 L221.055,130.331 L215.394,130.331 L214.442,133 L212.674,133 L217.247,120.675 Z M215.921,128.852 L220.511,128.852 L218.199,122.426 L215.921,128.852 Z M225.985,120.675 L229.402,131.215 L232.751,120.675 L234.57,120.675 L230.388,133 L228.314,133 L224.081,120.675 L225.985,120.675 Z M236.202,120.675 L244.566,120.675 L244.566,122.171 L237.936,122.171 L237.936,125.911 L244.175,125.911 L244.175,127.407 L237.936,127.407 L237.936,131.504 L244.566,131.504 L244.566,133 L236.202,133 L236.202,120.675 Z M250.567,120.454 C252.777,120.454 254.766,121.44 255.242,123.82 L253.559,123.82 C253.134,122.392 251.74,121.916 250.499,121.916 C249.547,121.916 247.881,122.341 247.881,123.718 C247.881,124.806 248.748,125.35 249.887,125.605 L251.315,125.928 C253.202,126.336 255.463,127.05 255.463,129.532 C255.463,131.946 253.219,133.221 250.771,133.221 C247.864,133.221 246.028,131.64 245.705,129.175 L247.405,129.175 C247.728,130.875 248.918,131.759 250.805,131.759 C252.624,131.759 253.678,130.892 253.678,129.685 C253.678,128.393 252.573,127.849 251.026,127.509 L249.496,127.186 C247.813,126.812 246.113,125.877 246.113,123.82 C246.113,121.474 248.578,120.454 250.567,120.454 Z"/>
  </g>
</svg>
