<svg xmlns="http://www.w3.org/2000/svg" width="100%" viewBox="0 0 256 126">
  <g fill="#FFF" fill-rule="evenodd">
    <path d="M9.462,112.675 L13.899,112.675 C16.194,112.675 18.234,113.27 18.234,115.718 C18.234,116.891 17.724,117.945 16.874,118.438 C18.047,118.931 18.744,119.849 18.744,121.362 C18.744,123.98 16.789,125 14.324,125 L9.462,125 L9.462,112.675 Z M11.196,117.945 L14.171,117.945 C15.582,117.945 16.483,117.401 16.483,115.956 C16.483,114.698 15.548,114.137 14.171,114.137 L11.196,114.137 L11.196,117.945 Z M11.196,123.538 L14.341,123.538 C16.092,123.538 16.959,122.773 16.959,121.379 C16.959,119.934 16.092,119.322 14.239,119.322 L11.196,119.322 L11.196,123.538 Z M23.436,114.171 L19.424,114.171 L19.424,112.675 L29.182,112.675 L29.182,114.171 L25.17,114.171 L25.17,125 L23.436,125 L23.436,114.171 Z M40.98,121.073 C40.436,123.793 38.311,125.221 35.642,125.221 C32.106,125.221 30.049,122.569 30.049,118.812 C30.049,114.987 32.293,112.454 35.778,112.454 C38.328,112.454 40.385,113.967 40.912,116.602 L39.229,116.602 C38.855,115.072 37.665,113.916 35.693,113.916 C33.517,113.916 31.817,115.616 31.817,118.812 C31.817,121.923 33.449,123.759 35.744,123.759 C37.699,123.759 38.906,122.654 39.297,121.073 L40.98,121.073 Z"/>
    <rect width="51" height="11" y="81"/>
    <rect width="51" height="11" y="68"/>
    <rect width="51" height="11" y="55"/>
    <rect width="51" height="11" y="42"/>
    <rect width="51" height="11" y="29"/>
    <rect width="51" height="11" y="16"/>
    <rect width="51" height="5" y="9"/>
    <rect width="51" height="1.5" y="6"/>
    <rect width="51" height="1.5" y="3"/>
    <rect width="51" height="1"/>
    <rect width="51" height="11" x="101" y="81"/>
    <rect width="51" height="11" x="101" y="68"/>
    <rect width="51" height="11" x="101" y="55"/>
    <rect width="51" height="11" x="101" y="42"/>
    <rect width="51" height="5" x="101" y="35"/>
    <rect width="51" height="1.5" x="101" y="32"/>
    <rect width="51" height="1.5" x="101" y="29"/>
    <rect width="51" height="1" x="101" y="26"/>
    <rect width="51" height="11" x="202" y="81"/>
    <rect width="51" height="5" x="202" y="74"/>
    <rect width="51" height="1.5" x="202" y="71"/>
    <rect width="51" height="1.5" x="202" y="68"/>
    <rect width="51" height="1" x="202" y="65"/>
    <path d="M110.462 112.675L118.826 112.675 118.826 114.171 112.196 114.171 112.196 117.911 118.435 117.911 118.435 119.407 112.196 119.407 112.196 123.504 118.826 123.504 118.826 125 110.462 125 110.462 112.675zM123.433 114.171L119.421 114.171 119.421 112.675 129.179 112.675 129.179 114.171 125.167 114.171 125.167 125 123.433 125 123.433 114.171zM140.586 112.675L140.586 125 138.852 125 138.852 119.407 132.375 119.407 132.375 125 130.641 125 130.641 112.675 132.375 112.675 132.375 117.911 138.852 117.911 138.852 112.675 140.586 112.675zM208.305 123.028L210.583 112.675 212.402 112.675 209.325 125 207.217 125 204.837 114.868 202.508 125 200.4 125 197.272 112.675 199.176 112.675 201.556 123.028 203.834 112.675 205.874 112.675 208.305 123.028zM217.247 112.675L219.253 112.675 223.894 125 222.024 125 221.055 122.331 215.394 122.331 214.442 125 212.674 125 217.247 112.675zM215.921 120.852L220.511 120.852 218.199 114.426 215.921 120.852zM225.985 112.675L229.402 123.215 232.751 112.675 234.57 112.675 230.388 125 228.314 125 224.081 112.675 225.985 112.675zM236.202 112.675L244.566 112.675 244.566 114.171 237.936 114.171 237.936 117.911 244.175 117.911 244.175 119.407 237.936 119.407 237.936 123.504 244.566 123.504 244.566 125 236.202 125 236.202 112.675zM250.567 112.454C252.777 112.454 254.766 113.44 255.242 115.82L253.559 115.82C253.134 114.392 251.74 113.916 250.499 113.916 249.547 113.916 247.881 114.341 247.881 115.718 247.881 116.806 248.748 117.35 249.887 117.605L251.315 117.928C253.202 118.336 255.463 119.05 255.463 121.532 255.463 123.946 253.219 125.221 250.771 125.221 247.864 125.221 246.028 123.64 245.705 121.175L247.405 121.175C247.728 122.875 248.918 123.759 250.805 123.759 252.624 123.759 253.678 122.892 253.678 121.685 253.678 120.393 252.573 119.849 251.026 119.509L249.496 119.186C247.813 118.812 246.113 117.877 246.113 115.82 246.113 113.474 248.578 112.454 250.567 112.454z"/>
  </g>
</svg>
