<svg xmlns="http://www.w3.org/2000/svg" xmlns:xlink="http://www.w3.org/1999/xlink" width="100%" viewBox="0 0 441 110">
  <defs>
    <linearGradient id="ng_model-a" x1="19.868%" y1="50%" y2="50%">
      <stop offset="0%" stop-color="#D5CE4F"/>
      <stop offset="100%" stop-color="#5ECE1F"/>
    </linearGradient>
    <rect id="ng_model-b" width="41.506" height="41.506"/>
    <rect id="ng_model-c" width="41.506" height="41.506"/>
    <rect id="ng_model-d" width="41.506" height="41.506"/>
    <rect id="ng_model-e" width="41.506" height="41.506"/>
    <linearGradient id="ng_model-f" x1="3.209%" y1="50%" y2="50%">
      <stop offset="0%" stop-color="#C1D54F"/>
      <stop offset="100%" stop-color="#5ECE1F"/>
    </linearGradient>
    <rect id="ng_model-g" width="5.929" height="61.271"/>
    <rect id="ng_model-h" width="5.929" height="61.271"/>
    <rect id="ng_model-i" width="41.506" height="41.506"/>
  </defs>
  <g fill="none" fill-rule="evenodd">
    <polygon fill="url(#ng_model-a)" points="380 21 410 21 410 41 380 41"/>
    <polygon fill="url(#ng_model-a)" points="312 21 342 21 342 41 312 41"/>
    <g transform="translate(341 10)">
      <use fill="#4F77FC" xlink:href="#ng_model-b"/>
      <rect width="35.506" height="35.506" x="3" y="3" stroke="#EBECF0" stroke-width="6"/>
      <polygon fill="#4F77FC" points="44.253 18.006 48.526 23.5 39.981 23.5" transform="rotate(90 44.253 20.753)"/>
      <path fill="#4F77FC" d="M39.5662788,14.2637301 L40.6961552,14.2637301 L40.6961552,21.3016892 C35.5520531,21.9232057 33.9455084,21.6691748 35.8765212,20.5395963 C37.8075341,19.4100179 39.0374532,17.3180625 39.5662788,14.2637301 Z" transform="rotate(90 37.891 17.948)"/>
      <path fill="#4F77FC" d="M39.5662788,19.7572366 L40.6961552,19.7572366 L40.6961552,26.7951957 C35.5520531,27.4167122 33.9455084,27.1626813 35.8765212,26.0331028 C37.8075341,24.9035244 39.0374532,22.811569 39.5662788,19.7572366 Z" transform="scale(1 -1) rotate(90 61.333 0)"/>
    </g>
    <polygon fill="url(#ng_model-a)" points="242 21 272 21 272 41 242 41"/>
    <g transform="translate(271 10)">
      <use fill="#4F77FC" xlink:href="#ng_model-c"/>
      <rect width="35.506" height="35.506" x="3" y="3" stroke="#EBECF0" stroke-width="6"/>
      <polygon fill="#4F77FC" points="44.253 18.006 48.526 23.5 39.981 23.5" transform="rotate(90 44.253 20.753)"/>
      <path fill="#4F77FC" d="M39.5662788,14.2637301 L40.6961552,14.2637301 L40.6961552,21.3016892 C35.5520531,21.9232057 33.9455084,21.6691748 35.8765212,20.5395963 C37.8075341,19.4100179 39.0374532,17.3180625 39.5662788,14.2637301 Z" transform="rotate(90 37.891 17.948)"/>
      <path fill="#4F77FC" d="M39.5662788,19.7572366 L40.6961552,19.7572366 L40.6961552,26.7951957 C35.5520531,27.4167122 33.9455084,27.1626813 35.8765212,26.0331028 C37.8075341,24.9035244 39.0374532,22.811569 39.5662788,19.7572366 Z" transform="scale(1 -1) rotate(90 61.333 0)"/>
    </g>
    <path fill="#6479A1" d="M228.179199,96.9936523 C228.068525,97.5581055 227.786298,97.840332 227.33252,97.840332 L226.394531,97.840332 L226.153809,98.9443359 L227.689453,98.9443359 L226.651855,103.791992 C226.491376,104.550128 226.564697,105.135333 226.871826,105.547607 C227.178955,105.959882 227.683917,106.166016 228.386719,106.166016 C228.812823,106.171552 229.219561,106.088544 229.606934,105.916992 L229.831055,104.812988 L229.67334,104.879395 C229.57373,104.912598 229.427081,104.951337 229.233398,104.995605 C229.039716,105.039874 228.851562,105.062012 228.668945,105.062012 C227.944013,105.067548 227.667323,104.644208 227.838875,103.791992 L228.876473,98.9443359 L230.661141,98.9443359 L230.901864,97.840332 L229.117196,97.840332 L229.68995,95.1176758 L228.585946,95.1176758 L228.179199,96.9936523 Z M237.64209,97.6660156 L237.202148,97.6660156 C236.853516,97.6660156 236.51457,97.7116699 236.185303,97.8029785 C235.856036,97.8942871 235.58626,97.9966607 235.375977,98.1101074 C235.165693,98.2235541 234.970624,98.3536024 234.790771,98.5002522 C234.610919,98.6469021 234.491943,98.7492757 234.433838,98.8073812 C234.375732,98.8654866 234.335615,98.9111409 234.313477,98.944344 L234.554199,97.8403401 L233.358887,97.8403401 L231.624023,106.000008 L232.819336,106.000008 L233.765625,101.492684 C233.937177,100.71241 234.323164,100.078787 234.923584,99.591805 C235.524004,99.1048231 236.175616,98.8613362 236.878418,98.8613362 L237.393066,98.8613362 L237.64209,97.6660156 Z M241.095215,105.062012 C241.980634,105.062012 242.791338,104.651107 243.527344,103.829329 C244.263349,103.007552 244.631348,102.120755 244.631348,101.168929 C244.631348,100.4772 244.398926,99.9058323 243.934082,99.4548259 C243.469238,99.0038195 242.913086,98.7783122 242.265625,98.7783122 C241.474287,98.7783122 240.709229,99.1546116 239.970459,99.9072185 C239.231689,100.659825 238.862305,101.539708 238.862305,102.546867 C238.862305,103.249669 239.083662,103.844561 239.526367,104.331543 C239.969073,104.818525 240.492022,105.062012 241.095215,105.062012 Z M243.693351,105.999984 L243.950651,104.796395 C243.917448,104.829598 243.871794,104.876638 243.813688,104.937508 C243.755583,104.998378 243.626921,105.109052 243.427702,105.269531 C243.228483,105.43001 243.02235,105.569737 242.809294,105.688713 C242.596238,105.807688 242.322312,105.916984 241.987516,106.016593 C241.652721,106.116203 241.308239,106.166008 240.954069,106.166008 C240.06865,106.166008 239.298063,105.818761 238.642302,105.124259 C237.98654,104.429758 237.658659,103.606595 237.658659,102.654769 C237.658659,101.293441 238.156706,100.121644 239.1528,99.1393881 C240.148893,98.1571317 241.236296,97.6659994 242.415007,97.6659994 C242.763639,97.6659994 243.094285,97.7171903 243.40695,97.8195639 C243.719615,97.9219375 243.978326,98.0478354 244.183081,98.1972494 C244.387836,98.3466635 244.563539,98.4974637 244.710189,98.649642 C244.856839,98.8018203 244.966135,98.9277182 245.038078,99.0273275 L245.137687,99.1850424 L245.428215,97.8403158 L246.615226,97.8403158 L244.880363,105.999984 L243.693351,105.999984 Z M250.524902,97.840332 L249.32959,97.840332 L247.594727,106 L248.790039,106 L249.719727,101.583984 C249.891279,100.764971 250.263428,100.092608 250.836182,99.5668945 C251.408936,99.0411811 252.057783,98.7783203 252.782715,98.7783203 C253.336103,98.7783203 253.782959,98.9401855 254.123291,99.263916 C254.463623,99.5876465 254.633789,100.026202 254.633789,100.57959 C254.633789,100.690264 254.611651,100.881182 254.567383,101.152344 L253.546387,106 L254.741699,106 L255.754395,101.152344 C255.815264,100.914385 255.845703,100.637695 255.845703,100.322266 C255.845703,99.5087891 255.585615,98.8627143 255.06543,98.3840332 C254.545245,97.9053521 253.859044,97.6660156 253.006828,97.6660156 C252.674797,97.6660156 252.351066,97.7144341 252.035636,97.8112793 C251.720207,97.9081244 251.465647,98.0160346 251.271965,98.1350098 C251.078282,98.2539849 250.894279,98.3909478 250.719963,98.5458984 C250.545646,98.7008491 250.432199,98.8087592 250.379631,98.8696289 C250.327062,98.9304986 250.289708,98.9775391 250.26757,99.0107422 L250.524902,97.840332 Z M263.914062,98.7783203 L263.806152,98.6538086 C263.739746,98.5874023 263.633222,98.4974799 263.486572,98.3840332 C263.339922,98.2705865 263.166992,98.1599121 262.967773,98.052002 C262.768555,97.9440918 262.520917,97.8527832 262.224854,97.7780762 C261.92879,97.7033691 261.623047,97.6660156 261.307617,97.6660156 C260.416669,97.6660156 259.684814,97.9191895 259.112061,98.4255371 C258.539307,98.9318848 258.25293,99.5364556 258.25293,100.239258 C258.25293,100.715167 258.445234,101.117754 258.829834,101.447021 C259.214434,101.776289 259.636388,102.014247 260.095695,102.160897 C260.555002,102.307547 260.976956,102.499851 261.361556,102.737809 C261.746156,102.975768 261.93846,103.257994 261.93846,103.584489 C261.93846,104.027194 261.769681,104.384128 261.432113,104.65529 C261.094545,104.926451 260.6131,105.062028 259.987777,105.062028 C259.578274,105.062028 259.195052,104.958268 258.838119,104.750749 C258.481185,104.543229 258.248763,104.375827 258.140853,104.248551 C258.032943,104.121275 257.951321,104.013365 257.89598,103.924821 L256.94139,104.721696 L257.040999,104.879411 C257.112942,104.97902 257.225003,105.099381 257.377181,105.240495 C257.529359,105.381608 257.71059,105.521335 257.920874,105.659684 C258.131158,105.798033 258.402319,105.917008 258.734351,106.016618 C259.066382,106.116227 259.42608,106.166032 259.813452,106.166032 C260.831684,106.166032 261.645161,105.908708 262.253882,105.394059 C262.862603,104.879411 263.166968,104.220885 263.166968,103.418473 C263.166968,102.931491 262.973286,102.517838 262.585913,102.177506 C262.198541,101.837174 261.775201,101.593688 261.315894,101.447038 C260.856586,101.300388 260.434633,101.10947 260.050033,100.874284 C259.665432,100.639098 259.473128,100.369322 259.473128,100.064958 C259.473128,99.7163248 259.623929,99.4147325 259.925521,99.1601725 C260.227113,98.9056125 260.632465,98.7783365 261.141577,98.7783365 C261.49021,98.7783365 261.823627,98.8516574 262.141821,98.9983072 C262.460015,99.1449571 262.664771,99.2639322 262.756079,99.3552408 C262.847388,99.4465494 262.91518,99.5198703 262.959448,99.5752115 L263.914062,98.7783203 Z M268.363281,105.062012 C269.248701,105.062012 270.059405,104.651107 270.79541,103.829329 C271.531415,103.007552 271.899414,102.120755 271.899414,101.168929 C271.899414,100.4772 271.666992,99.9058323 271.202148,99.4548259 C270.737305,99.0038195 270.181152,98.7783122 269.533691,98.7783122 C268.742353,98.7783122 267.977295,99.1546116 267.238525,99.9072185 C266.499756,100.659825 266.130371,101.539708 266.130371,102.546867 C266.130371,103.249669 266.351728,103.844561 266.794434,104.331543 C267.237139,104.818525 267.760088,105.062012 268.363281,105.062012 Z M270.961418,105.999984 L271.218718,104.796395 C271.185514,104.829598 271.13986,104.876638 271.081755,104.937508 C271.023649,104.998378 270.894987,105.109052 270.695768,105.269531 C270.49655,105.43001 270.290416,105.569737 270.07736,105.688713 C269.864304,105.807688 269.590378,105.916984 269.255583,106.016593 C268.920787,106.116203 268.576305,106.166008 268.222136,106.166008 C267.336716,106.166008 266.56613,105.818761 265.910368,105.124259 C265.254606,104.429758 264.926725,103.606595 264.926725,102.654769 C264.926725,101.293441 265.424772,100.121644 266.420866,99.1393881 C267.41696,98.1571317 268.504362,97.6659994 269.683073,97.6659994 C270.031706,97.6659994 270.362351,97.7171903 270.675016,97.8195639 C270.987682,97.9219375 271.246392,98.0478354 271.451148,98.1972494 C271.655903,98.3466635 271.831605,98.4974637 271.978255,98.649642 C272.124905,98.8018203 272.234201,98.9277182 272.306144,99.0273275 L272.405754,99.1850424 L272.696281,97.8403158 L273.883293,97.8403158 L272.148429,105.999984 L270.961418,105.999984 Z M275.037109,102.654785 C275.037109,103.617676 275.377441,104.443604 276.058105,105.132568 C276.73877,105.821533 277.560547,106.166016 278.523438,106.166016 C278.916338,106.166016 279.312012,106.10376 279.710449,105.979248 C280.108887,105.854736 280.435381,105.71916 280.689941,105.57251 C280.944501,105.42586 281.193525,105.25708 281.437012,105.066162 C281.680499,104.875244 281.8396,104.739667 281.914307,104.659424 C281.989014,104.57918 282.042969,104.516924 282.076172,104.472656 L281.345703,103.725586 L281.221191,103.858398 C281.132647,103.946943 281.006749,104.059003 280.843498,104.19458 C280.680246,104.330157 280.490715,104.464355 280.274894,104.597168 C280.059074,104.72998 279.803136,104.840655 279.507072,104.929199 C279.211008,105.017744 278.910794,105.062012 278.606429,105.062012 C277.947903,105.062012 277.388987,104.818525 276.929679,104.331543 C276.470372,103.844561 276.240715,103.249669 276.240715,102.546867 C276.240715,101.51757 276.600412,100.632151 277.319816,99.8906169 C278.03922,99.1490831 278.841631,98.7783122 279.727051,98.7783122 C280.031415,98.7783122 280.323329,98.8225803 280.602791,98.9111247 C280.882254,98.9996691 281.109139,99.1006646 281.283455,99.2141113 C281.457772,99.327558 281.619637,99.4589844 281.769051,99.6083984 C281.918465,99.7578125 282.01531,99.8601861 282.059578,99.9155273 C282.103847,99.9708686 282.13705,100.015137 282.159188,100.04834 L283.080575,99.284668 L282.956063,99.1186523 C282.878592,99.0024414 282.751316,98.8682427 282.574235,98.7160645 C282.397154,98.5638862 282.189635,98.4075575 281.951676,98.2470784 C281.713718,98.0865993 281.41489,97.9496365 281.055192,97.8361897 C280.695494,97.722743 280.316422,97.6660237 279.917985,97.6660237 C278.567722,97.6660237 277.416677,98.1751356 276.464852,99.1933675 C275.513026,100.211599 275.037109,101.3654 275.037109,102.654785 Z M286.284668,96.9936523 C286.173994,97.5581055 285.891767,97.840332 285.437988,97.840332 L284.5,97.840332 L284.259277,98.9443359 L285.794922,98.9443359 L284.757324,103.791992 C284.596845,104.550128 284.670166,105.135333 284.977295,105.547607 C285.284424,105.959882 285.789385,106.166016 286.492188,106.166016 C286.918292,106.171552 287.32503,106.088544 287.712402,105.916992 L287.936523,104.812988 L287.778809,104.879395 C287.679199,104.912598 287.532549,104.951337 287.338867,104.995605 C287.145185,105.039874 286.957031,105.062012 286.774414,105.062012 C286.049482,105.067548 285.772792,104.644208 285.944344,103.791992 L286.981942,98.9443359 L288.76661,98.9443359 L289.007332,97.840332 L287.222664,97.840332 L287.795418,95.1176758 L286.691414,95.1176758 L286.284668,96.9936523 Z M291.804688,95.2421875 C291.804688,95.4137397 291.869708,95.5631537 291.999756,95.6904297 C292.129804,95.8177056 292.286133,95.8813477 292.46875,95.8813477 C292.706708,95.8813477 292.916992,95.7969537 293.099609,95.6281738 C293.282227,95.459394 293.373535,95.2560248 293.373535,95.0180664 C293.373535,94.8354492 293.305743,94.6791205 293.170166,94.5490723 C293.034589,94.419024 292.875488,94.3540039 292.692871,94.3540039 C292.443848,94.3540039 292.233564,94.4425483 292.062012,94.6196289 C291.89046,94.7967095 291.804688,95.0042291 291.804688,95.2421875 Z M289.729492,106 L290.924805,106 L292.659668,97.840332 L291.464355,97.840332 L289.729492,106 Z M297.706543,105.078613 C298.603027,105.078613 299.399902,104.713395 300.097168,103.982926 C300.794434,103.252458 301.143066,102.416843 301.143066,101.47609 C301.143066,100.706882 300.887128,100.062185 300.375244,99.5420003 C299.86336,99.0218153 299.222814,98.7617269 298.453605,98.7617269 C297.590324,98.7617269 296.80175,99.1158962 296.087883,99.8242269 C295.374015,100.532557 295.017082,101.379237 295.017082,102.364266 C295.017082,103.122401 295.27302,103.764326 295.784904,104.290039 C296.296788,104.815753 296.937335,105.078613 297.706543,105.078613 Z M293.813477,102.43068 C293.813477,101.218766 294.286621,100.121677 295.23291,99.1394205 C296.179199,98.1571641 297.285967,97.6660318 298.553223,97.6660318 C299.654462,97.6660318 300.562012,98.02988 301.275879,98.7575846 C301.989746,99.4852891 302.34668,100.374859 302.34668,101.426294 C302.34668,102.704614 301.859698,103.814155 300.885742,104.754907 C299.911787,105.69566 298.818848,106.16604 297.606934,106.16604 C296.505694,106.16604 295.598145,105.806342 294.884277,105.086938 C294.17041,104.367535 293.813477,103.482115 293.813477,102.43068 Z M306.422363,97.840332 L305.227051,97.840332 L303.492188,106 L304.6875,106 L305.617188,101.583984 C305.78874,100.764971 306.160889,100.092608 306.733643,99.5668945 C307.306396,99.0411811 307.955244,98.7783203 308.680176,98.7783203 C309.233564,98.7783203 309.68042,98.9401855 310.020752,99.263916 C310.361084,99.5876465 310.53125,100.026202 310.53125,100.57959 C310.53125,100.690264 310.509112,100.881182 310.464844,101.152344 L309.443848,106 L310.63916,106 L311.651855,101.152344 C311.712725,100.914385 311.743164,100.637695 311.743164,100.322266 C311.743164,99.5087891 311.483076,98.8627143 310.962891,98.3840332 C310.442706,97.9053521 309.756505,97.6660156 308.904289,97.6660156 C308.572258,97.6660156 308.248527,97.7144341 307.933097,97.8112793 C307.617668,97.9081244 307.363108,98.0160346 307.169425,98.1350098 C306.975743,98.2539849 306.79174,98.3909478 306.617424,98.5458984 C306.443107,98.7008491 306.32966,98.8087592 306.277092,98.8696289 C306.224523,98.9304986 306.187169,98.9775391 306.165031,99.0107422 L306.422363,97.840332 Z M319.811523,98.7783203 L319.703613,98.6538086 C319.637207,98.5874023 319.530683,98.4974799 319.384033,98.3840332 C319.237383,98.2705865 319.064453,98.1599121 318.865234,98.052002 C318.666016,97.9440918 318.418378,97.8527832 318.122314,97.7780762 C317.826251,97.7033691 317.520508,97.6660156 317.205078,97.6660156 C316.31413,97.6660156 315.582275,97.9191895 315.009521,98.4255371 C314.436768,98.9318848 314.150391,99.5364556 314.150391,100.239258 C314.150391,100.715167 314.342695,101.117754 314.727295,101.447021 C315.111895,101.776289 315.533849,102.014247 315.993156,102.160897 C316.452463,102.307547 316.874417,102.499851 317.259017,102.737809 C317.643617,102.975768 317.835921,103.257994 317.835921,103.584489 C317.835921,104.027194 317.667141,104.384128 317.329574,104.65529 C316.992006,104.926451 316.510561,105.062028 315.885238,105.062028 C315.475735,105.062028 315.092513,104.958268 314.735579,104.750749 C314.378646,104.543229 314.146224,104.375827 314.038314,104.248551 C313.930404,104.121275 313.848782,104.013365 313.793441,103.924821 L312.838851,104.721696 L312.93846,104.879411 C313.010403,104.97902 313.122464,105.099381 313.274642,105.240495 C313.42682,105.381608 313.608051,105.521335 313.818335,105.659684 C314.028619,105.798033 314.29978,105.917008 314.631812,106.016618 C314.963843,106.116227 315.323541,106.166032 315.710913,106.166032 C316.729145,106.166032 317.542622,105.908708 318.151343,105.394059 C318.760064,104.879411 319.064429,104.220885 319.064429,103.418473 C319.064429,102.931491 318.870747,102.517838 318.483374,102.177506 C318.096002,101.837174 317.672662,101.593688 317.213355,101.447038 C316.754047,101.300388 316.332094,101.10947 315.947494,100.874284 C315.562893,100.639098 315.370589,100.369322 315.370589,100.064958 C315.370589,99.7163248 315.521389,99.4147325 315.822982,99.1601725 C316.124574,98.9056125 316.529926,98.7783365 317.039038,98.7783365 C317.387671,98.7783365 317.721088,98.8516574 318.039282,98.9983072 C318.357476,99.1449571 318.562232,99.2639322 318.65354,99.3552408 C318.744849,99.4465494 318.812641,99.5198703 318.856909,99.5752115 L319.811523,98.7783203 Z"/>
    <g fill="#E0E1E6" transform="rotate(90 129 164)">
      <rect width="2" height="2"/>
      <rect width="2" height="2" x="4"/>
      <rect width="2" height="2" x="8"/>
      <rect width="2" height="2" x="12"/>
      <rect width="2" height="2" x="16"/>
      <rect width="2" height="2" x="20"/>
      <rect width="2" height="2" x="24"/>
      <rect width="2" height="2" x="28"/>
      <rect width="2" height="2" x="32"/>
      <rect width="2" height="2" x="36"/>
      <rect width="2" height="2" x="40"/>
      <rect width="2" height="2" x="44"/>
      <rect width="2" height="2" x="48"/>
      <rect width="2" height="2" x="52"/>
    </g>
    <circle cx="292" cy="32" r="3" fill="#FFF"/>
    <polygon fill="url(#ng_model-a)" points="172 21 202 21 202 41 172 41"/>
    <g transform="translate(201 10)">
      <use fill="#4F77FC" xlink:href="#ng_model-d"/>
      <rect width="35.506" height="35.506" x="3" y="3" stroke="#EBECF0" stroke-width="6"/>
      <polygon fill="#4F77FC" points="44.253 18.006 48.526 23.5 39.981 23.5" transform="rotate(90 44.253 20.753)"/>
      <path fill="#4F77FC" d="M39.5662788,14.2637301 L40.6961552,14.2637301 L40.6961552,21.3016892 C35.5520531,21.9232057 33.9455084,21.6691748 35.8765212,20.5395963 C37.8075341,19.4100179 39.0374532,17.3180625 39.5662788,14.2637301 Z" transform="rotate(90 37.891 17.948)"/>
      <path fill="#4F77FC" d="M39.5662788,19.7572366 L40.6961552,19.7572366 L40.6961552,26.7951957 C35.5520531,27.4167122 33.9455084,27.1626813 35.8765212,26.0331028 C37.8075341,24.9035244 39.0374532,22.811569 39.5662788,19.7572366 Z" transform="scale(1 -1) rotate(90 61.333 0)"/>
    </g>
    <polygon fill="url(#ng_model-a)" points="101 21 131 21 131 41 101 41"/>
    <g transform="translate(130 10)">
      <use fill="#4F77FC" xlink:href="#ng_model-e"/>
      <rect width="35.506" height="35.506" x="3" y="3" stroke="#EBECF0" stroke-width="6"/>
      <polygon fill="#4F77FC" points="44.253 18.006 48.526 23.5 39.981 23.5" transform="rotate(90 44.253 20.753)"/>
      <path fill="#4F77FC" d="M39.5662788,14.2637301 L40.6961552,14.2637301 L40.6961552,21.3016892 C35.5520531,21.9232057 33.9455084,21.6691748 35.8765212,20.5395963 C37.8075341,19.4100179 39.0374532,17.3180625 39.5662788,14.2637301 Z" transform="rotate(90 37.891 17.948)"/>
      <path fill="#4F77FC" d="M39.5662788,19.7572366 L40.6961552,19.7572366 L40.6961552,26.7951957 C35.5520531,27.4167122 33.9455084,27.1626813 35.8765212,26.0331028 C37.8075341,24.9035244 39.0374532,22.811569 39.5662788,19.7572366 Z" transform="scale(1 -1) rotate(90 61.333 0)"/>
    </g>
    <rect width="35" height="20" x="26" y="21" fill="#5ECE1F"/>
    <rect width="35" height="20" x="406" y="21" fill="#5ECE1F"/>
    <rect width="20" height="20" y="21" fill="url(#ng_model-f)"/>
    <g transform="translate(20)">
      <use fill="#4F77FC" xlink:href="#ng_model-g"/>
      <rect width="1" height="55.271" x="3" y="3" stroke="#EBECF0" stroke-width="6"/>
    </g>
    <g transform="translate(410)">
      <use fill="#4F77FC" xlink:href="#ng_model-h"/>
      <rect width="1" height="55.271" x="3" y="3" stroke="#EBECF0" stroke-width="6"/>
    </g>
    <g transform="translate(60 10)">
      <use fill="#4F77FC" xlink:href="#ng_model-i"/>
      <rect width="35.506" height="35.506" x="3" y="3" stroke="#EBECF0" stroke-width="6"/>
      <polygon fill="#4F77FC" points="44.253 18.006 48.526 23.5 39.981 23.5" transform="rotate(90 44.253 20.753)"/>
      <path fill="#4F77FC" d="M39.5662788,14.2637301 L40.6961552,14.2637301 L40.6961552,21.3016892 C35.5520531,21.9232057 33.9455084,21.6691748 35.8765212,20.5395963 C37.8075341,19.4100179 39.0374532,17.3180625 39.5662788,14.2637301 Z" transform="rotate(90 37.891 17.948)"/>
      <path fill="#4F77FC" d="M39.5662788,19.7572366 L40.6961552,19.7572366 L40.6961552,26.7951957 C35.5520531,27.4167122 33.9455084,27.1626813 35.8765212,26.0331028 C37.8075341,24.9035244 39.0374532,22.811569 39.5662788,19.7572366 Z" transform="scale(1 -1) rotate(90 61.333 0)"/>
    </g>
    <path fill="#6479A1" d="M356.436523,97.840332 L355.241211,97.840332 L353.506348,106 L354.70166,106 L355.631348,101.583984 C355.8029,100.764971 356.175049,100.092608 356.747803,99.5668945 C357.320557,99.0411811 357.969404,98.7783203 358.694336,98.7783203 C359.247724,98.7783203 359.69458,98.9401855 360.034912,99.263916 C360.375244,99.5876465 360.54541,100.026202 360.54541,100.57959 C360.54541,100.690264 360.523272,100.881182 360.479004,101.152344 L359.458008,106 L360.65332,106 L361.666016,101.152344 C361.726885,100.914385 361.757324,100.637695 361.757324,100.322266 C361.757324,99.5087891 361.497236,98.8627143 360.977051,98.3840332 C360.456866,97.9053521 359.770665,97.6660156 358.918449,97.6660156 C358.586418,97.6660156 358.262687,97.7144341 357.947258,97.8112793 C357.631828,97.9081244 357.377268,98.0160346 357.183586,98.1350098 C356.989903,98.2539849 356.8059,98.3909478 356.631584,98.5458984 C356.457267,98.7008491 356.343821,98.8087592 356.291252,98.8696289 C356.238683,98.9304986 356.201329,98.9775391 356.179191,99.0107422 L356.436523,97.840332 Z M367.069824,105.062012 C367.578936,105.062012 368.071487,104.948557 368.547396,104.721672 C369.023304,104.494786 369.369173,104.267901 369.584993,104.041016 L369.925325,103.708984 L370.572786,104.472656 C370.539583,104.516924 370.488392,104.57918 370.419222,104.659424 C370.350051,104.739667 370.196487,104.875244 369.958529,105.066162 C369.72057,105.25708 369.474311,105.42586 369.219751,105.57251 C368.965191,105.71916 368.635924,105.854736 368.23195,105.979248 C367.827976,106.10376 367.424002,106.166016 367.020028,106.166016 C366.057137,106.166016 365.23536,105.82707 364.554696,105.14917 C363.874032,104.47127 363.5337,103.650879 363.5337,102.687988 C363.5337,101.315595 364.023446,100.135498 365.002938,99.1477051 C365.98243,98.1599121 367.08367,97.6660156 368.306649,97.6660156 C369.269539,97.6660156 370.071951,97.9579291 370.713875,98.541748 C371.3558,99.125567 371.676766,99.8823242 371.676766,100.812012 C371.676766,101.38753 371.568856,101.904943 371.353035,102.36425 L364.70411,102.347648 L364.70411,102.596672 C364.70411,103.299474 364.933767,103.886065 365.393075,104.356445 C365.852382,104.826826 366.411298,105.062012 367.069824,105.062012 Z M368.19047,98.7783122 C367.509806,98.7783122 366.860951,99.0190349 366.243929,99.5004802 C365.626907,99.9819255 365.188352,100.590647 364.928263,101.326652 L370.473185,101.326652 C370.48425,101.260246 370.489787,101.163401 370.489787,101.036125 C370.489787,100.377599 370.273966,99.8366618 369.842326,99.413322 C369.410685,98.9899821 368.860069,98.7783122 368.19047,98.7783122 Z M375.461914,96.9936523 C375.35124,97.5581055 375.069013,97.840332 374.615234,97.840332 L373.677246,97.840332 L373.436523,98.9443359 L374.972168,98.9443359 L373.93457,103.791992 C373.774091,104.550128 373.847412,105.135333 374.154541,105.547607 C374.46167,105.959882 374.966631,106.166016 375.669434,106.166016 C376.095538,106.171552 376.502276,106.088544 376.889648,105.916992 L377.11377,104.812988 L376.956055,104.879395 C376.856445,104.912598 376.709795,104.951337 376.516113,104.995605 C376.322431,105.039874 376.134277,105.062012 375.95166,105.062012 C375.226728,105.067548 374.950038,104.644208 375.12159,103.791992 L376.159188,98.9443359 L377.943856,98.9443359 L378.184578,97.840332 L376.39991,97.840332 L376.972664,95.1176758 L375.86866,95.1176758 L375.461914,96.9936523 Z M384.908203,97.840332 L381.529785,104.132324 L380.749512,97.840332 L379.537598,97.840332 L380.608398,106 L381.712402,106 L385.065918,99.7910156 L385.796387,106 L386.900391,106 L391.440918,97.840332 L390.145996,97.840332 L386.692871,104.132324 L385.929199,97.840332 L384.908203,97.840332 Z M395.383789,105.078613 C396.280273,105.078613 397.077148,104.713395 397.774414,103.982926 C398.47168,103.252458 398.820312,102.416843 398.820312,101.47609 C398.820312,100.706882 398.564374,100.062185 398.05249,99.5420003 C397.540606,99.0218153 396.90006,98.7617269 396.130851,98.7617269 C395.26757,98.7617269 394.478996,99.1158962 393.765129,99.8242269 C393.051261,100.532557 392.694328,101.379237 392.694328,102.364266 C392.694328,103.122401 392.950266,103.764326 393.46215,104.290039 C393.974034,104.815753 394.614581,105.078613 395.383789,105.078613 Z M391.490723,102.43068 C391.490723,101.218766 391.963867,100.121677 392.910156,99.1394205 C393.856445,98.1571641 394.963213,97.6660318 396.230469,97.6660318 C397.331708,97.6660318 398.239258,98.02988 398.953125,98.7575846 C399.666992,99.4852891 400.023926,100.374859 400.023926,101.426294 C400.023926,102.704614 399.536944,103.814155 398.562988,104.754907 C397.589033,105.69566 396.496094,106.16604 395.28418,106.16604 C394.18294,106.16604 393.275391,105.806342 392.561523,105.086938 C391.847656,104.367535 391.490723,103.482115 391.490723,102.43068 Z M407.1875,97.6660156 L406.938477,98.8613362 L406.423828,98.8613362 C405.721026,98.8613362 405.069415,99.1048231 404.468994,99.591805 C403.868574,100.078787 403.482587,100.71241 403.311035,101.492684 L402.364746,106.000008 L401.169434,106.000008 L402.904297,97.8403401 L404.099609,97.8403401 L403.858887,98.944344 C403.881025,98.9111409 403.921143,98.8654866 403.979248,98.8073812 C404.037354,98.7492757 404.156329,98.6469021 404.336182,98.5002522 C404.516035,98.3536024 404.711103,98.2235541 404.921387,98.1101074 C405.13167,97.9966607 405.401446,97.8942871 405.730713,97.8029785 C406.05998,97.7116699 406.398926,97.6660156 406.747559,97.6660156 L407.1875,97.6660156 Z M408.78125,103.708984 L408.308105,106 L407.121094,106 L409.63623,94.0966797 L410.823242,94.0966797 L409.121582,102.090332 L414.068848,97.840332 L415.571289,97.840332 L411.711426,101.152344 L414.176758,106 L412.865234,106 L410.790039,101.990723 L408.78125,103.708984 Z"/>
    <g fill="#E0E1E6" transform="matrix(0 1 1 0 420 32)">
      <rect width="2" height="2" y="8"/>
      <rect width="2" height="2" x="4" y="8"/>
      <rect width="2" height="2" x="8" y="8"/>
      <rect width="2" height="2" x="12" y="8"/>
      <rect width="2" height="2" x="16" y="8"/>
      <rect width="2" height="2" x="20" y="8"/>
      <rect width="2" height="2" x="24" y="8"/>
      <rect width="2" height="2" x="28" y="8"/>
      <rect width="2" height="2" x="32" y="8"/>
      <rect width="2" height="2" x="36" y="8"/>
      <rect width="2" height="2" x="40" y="8"/>
      <rect width="2" height="2" x="44" y="8"/>
      <rect width="2" height="2" x="48" y="8"/>
      <rect width="2" height="2" x="52" y="8"/>
      <rect width="2" height="2" x="56" y="8"/>
      <rect width="2" height="2" x="60" y="8"/>
      <rect width="2" height="2" x="64" y="8"/>
      <rect width="2" height="2" x="68" y="8"/>
      <rect width="2" height="2" x="68" y="4"/>
      <rect width="2" height="2" x="68"/>
    </g>
    <circle cx="429" cy="31" r="3" fill="#FFF"/>
    <path fill="#6479A1" d="M120.388672,106 L121.583984,106 L122.59668,101.152344 C122.668622,100.814776 122.70459,100.504883 122.70459,100.222656 C122.70459,99.4147162 122.456953,98.7866211 121.96167,98.3383789 C121.466387,97.8901367 120.828613,97.6660156 120.04834,97.6660156 C119.666504,97.6660156 119.302656,97.7172065 118.956787,97.8195801 C118.610919,97.9219537 118.332842,98.0381646 118.122559,98.1682129 C117.912275,98.2982612 117.713056,98.4462891 117.524902,98.6123047 C117.336749,98.7783203 117.217773,98.8959174 117.167969,98.9650879 C117.118164,99.0342584 117.082197,99.0854492 117.060059,99.1186523 L116.993652,98.9609375 C116.954913,98.8613281 116.876055,98.7395806 116.75708,98.5957031 C116.638105,98.4518256 116.494227,98.3120985 116.325448,98.1765218 C116.156668,98.0409451 115.920095,97.9219699 115.615731,97.8195963 C115.311366,97.7172227 114.976571,97.6660318 114.611336,97.6660318 C114.306972,97.6660318 114.015058,97.7089219 113.735596,97.7946939 C113.456133,97.880466 113.232012,97.9773111 113.063232,98.0852213 C112.894453,98.1931314 112.736738,98.3148789 112.590088,98.4504557 C112.443438,98.5860324 112.349365,98.6801052 112.307861,98.7326741 C112.266357,98.785243 112.23454,98.8281331 112.212402,98.8613362 L112.436523,97.8403401 L111.241211,97.8403401 L109.506348,106.000008 L110.70166,106.000008 L111.647949,101.492684 C111.819501,100.668142 112.159833,100.009616 112.668945,99.5171061 C113.178057,99.0245957 113.739746,98.7783365 114.354004,98.7783365 C114.863116,98.7783365 115.27124,98.9249864 115.578369,99.2182779 C115.885498,99.5115695 116.039062,99.9293728 116.039062,100.471688 C116.039062,100.709646 116.016924,100.936532 115.972656,101.152352 L114.95166,106.000008 L116.138672,106.000008 L117.093262,101.492684 C117.264814,100.668142 117.60376,100.009616 118.110107,99.5171061 C118.616455,99.0245957 119.176758,98.7783365 119.791016,98.7783365 C120.305664,98.7783365 120.715167,98.9249864 121.019531,99.2182779 C121.323896,99.5115695 121.476074,99.9293728 121.476074,100.471688 C121.476074,100.709646 121.453936,100.936532 121.409668,101.152352 L120.388672,106 Z M126.365234,95.2421875 C126.365234,95.4137397 126.430254,95.5631537 126.560303,95.6904297 C126.690351,95.8177056 126.84668,95.8813477 127.029297,95.8813477 C127.267255,95.8813477 127.477539,95.7969537 127.660156,95.6281738 C127.842773,95.459394 127.934082,95.2560248 127.934082,95.0180664 C127.934082,94.8354492 127.86629,94.6791205 127.730713,94.5490723 C127.595136,94.419024 127.436035,94.3540039 127.253418,94.3540039 C127.004395,94.3540039 126.794111,94.4425483 126.622559,94.6196289 C126.451006,94.7967095 126.365234,95.0042291 126.365234,95.2421875 Z M124.290039,106 L125.485352,106 L127.220215,97.840332 L126.024902,97.840332 L124.290039,106 Z M128.374023,102.654785 C128.374023,103.617676 128.714355,104.443604 129.39502,105.132568 C130.075684,105.821533 130.897461,106.166016 131.860352,106.166016 C132.253253,106.166016 132.648926,106.10376 133.047363,105.979248 C133.445801,105.854736 133.772295,105.71916 134.026855,105.57251 C134.281415,105.42586 134.530439,105.25708 134.773926,105.066162 C135.017413,104.875244 135.176514,104.739667 135.251221,104.659424 C135.325928,104.57918 135.379883,104.516924 135.413086,104.472656 L134.682617,103.725586 L134.558105,103.858398 C134.469561,103.946943 134.343663,104.059003 134.180412,104.19458 C134.01716,104.330157 133.827629,104.464355 133.611808,104.597168 C133.395988,104.72998 133.14005,104.840655 132.843986,104.929199 C132.547922,105.017744 132.247708,105.062012 131.943343,105.062012 C131.284817,105.062012 130.725901,104.818525 130.266593,104.331543 C129.807286,103.844561 129.577629,103.249669 129.577629,102.546867 C129.577629,101.51757 129.937326,100.632151 130.65673,99.8906169 C131.376134,99.1490831 132.178545,98.7783122 133.063965,98.7783122 C133.36833,98.7783122 133.660243,98.8225803 133.939705,98.9111247 C134.219168,98.9996691 134.446053,99.1006646 134.620369,99.2141113 C134.794686,99.327558 134.956551,99.4589844 135.105965,99.6083984 C135.255379,99.7578125 135.352224,99.8601861 135.396492,99.9155273 C135.440761,99.9708686 135.473964,100.015137 135.496102,100.04834 L136.417489,99.284668 L136.292977,99.1186523 C136.215506,99.0024414 136.08823,98.8682427 135.911149,98.7160645 C135.734068,98.5638862 135.526549,98.4075575 135.28859,98.2470784 C135.050632,98.0865993 134.751804,97.9496365 134.392106,97.8361897 C134.032408,97.722743 133.653337,97.6660237 133.254899,97.6660237 C131.904636,97.6660237 130.753592,98.1751356 129.801766,99.1933675 C128.84994,100.211599 128.374023,101.3654 128.374023,102.654785 Z M142.966797,97.6660156 L142.526855,97.6660156 C142.178223,97.6660156 141.839277,97.7116699 141.51001,97.8029785 C141.180743,97.8942871 140.910967,97.9966607 140.700684,98.1101074 C140.4904,98.2235541 140.295331,98.3536024 140.115479,98.5002522 C139.935626,98.6469021 139.81665,98.7492757 139.758545,98.8073812 C139.700439,98.8654866 139.660322,98.9111409 139.638184,98.944344 L139.878906,97.8403401 L138.683594,97.8403401 L136.94873,106.000008 L138.144043,106.000008 L139.090332,101.492684 C139.261884,100.71241 139.647871,100.078787 140.248291,99.591805 C140.848711,99.1048231 141.500323,98.8613362 142.203125,98.8613362 L142.717773,98.8613362 L142.966797,97.6660156 Z M146.876465,105.078613 C147.772949,105.078613 148.569824,104.713395 149.26709,103.982926 C149.964355,103.252458 150.312988,102.416843 150.312988,101.47609 C150.312988,100.706882 150.05705,100.062185 149.545166,99.5420003 C149.033282,99.0218153 148.392735,98.7617269 147.623527,98.7617269 C146.760246,98.7617269 145.971672,99.1158962 145.257804,99.8242269 C144.543937,100.532557 144.187004,101.379237 144.187004,102.364266 C144.187004,103.122401 144.442942,103.764326 144.954826,104.290039 C145.46671,104.815753 146.107256,105.078613 146.876465,105.078613 Z M142.983398,102.43068 C142.983398,101.218766 143.456543,100.121677 144.402832,99.1394205 C145.349121,98.1571641 146.455889,97.6660318 147.723145,97.6660318 C148.824384,97.6660318 149.731934,98.02988 150.445801,98.7575846 C151.159668,99.4852891 151.516602,100.374859 151.516602,101.426294 C151.516602,102.704614 151.02962,103.814155 150.055664,104.754907 C149.081708,105.69566 147.98877,106.16604 146.776855,106.16604 C145.675616,106.16604 144.768066,105.806342 144.054199,105.086938 C143.340332,104.367535 142.983398,103.482115 142.983398,102.43068 Z M158.256836,98.7783203 C157.371417,98.7783203 156.560712,99.189209 155.824707,100.010986 C155.088702,100.832764 154.720703,101.719561 154.720703,102.671387 C154.720703,103.363116 154.953125,103.934484 155.417969,104.38549 C155.882812,104.836496 156.438965,105.062004 157.086426,105.062004 C157.877764,105.062004 158.642822,104.682932 159.381592,103.924797 C160.120361,103.166661 160.489746,102.284014 160.489746,101.276855 C160.489746,100.574053 160.268389,99.9819336 159.825684,99.5004883 C159.382978,99.019043 158.860029,98.7783203 158.256836,98.7783203 Z M156.455575,94.0966797 L155.401375,99.043921 C155.434578,99.0107179 155.480233,98.9636774 155.538338,98.9028077 C155.596444,98.841938 155.72372,98.7312636 155.920174,98.5707846 C156.116629,98.4103055 156.322762,98.2705784 156.538582,98.1516032 C156.754403,98.0326281 157.029715,97.9219537 157.36451,97.8195801 C157.699306,97.7172065 158.043788,97.6660156 158.397957,97.6660156 C159.283377,97.6660156 160.053963,98.0146484 160.709725,98.7119141 C161.365487,99.4091797 161.693367,100.233721 161.693367,101.185547 C161.693367,102.546875 161.193934,103.717285 160.195076,104.696777 C159.196218,105.67627 158.10743,106.166016 156.928719,106.166016 C156.580086,106.166016 156.249441,106.116211 155.936776,106.016602 C155.62411,105.916992 155.366786,105.79248 155.164803,105.643066 C154.96282,105.493652 154.787117,105.342852 154.637703,105.190674 C154.488289,105.038496 154.380379,104.912598 154.313973,104.812988 L154.214364,104.655273 L153.940438,106 L152.753426,106 L155.268563,94.0966797 L156.455575,94.0966797 Z M166.648926,94.0966797 L165.461914,94.0966797 L162.946777,106 L164.133789,106 L166.648926,94.0966797 Z M170.998535,105.078613 C171.89502,105.078613 172.691895,104.713395 173.38916,103.982926 C174.086426,103.252458 174.435059,102.416843 174.435059,101.47609 C174.435059,100.706882 174.179121,100.062185 173.667236,99.5420003 C173.155352,99.0218153 172.514806,98.7617269 171.745597,98.7617269 C170.882316,98.7617269 170.093742,99.1158962 169.379875,99.8242269 C168.666008,100.532557 168.309074,101.379237 168.309074,102.364266 C168.309074,103.122401 168.565012,103.764326 169.076896,104.290039 C169.58878,104.815753 170.229327,105.078613 170.998535,105.078613 Z M167.105469,102.43068 C167.105469,101.218766 167.578613,100.121677 168.524902,99.1394205 C169.471191,98.1571641 170.57796,97.6660318 171.845215,97.6660318 C172.946455,97.6660318 173.854004,98.02988 174.567871,98.7575846 C175.281738,99.4852891 175.638672,100.374859 175.638672,101.426294 C175.638672,102.704614 175.15169,103.814155 174.177734,104.754907 C173.203779,105.69566 172.11084,106.16604 170.898926,106.16604 C169.797686,106.16604 168.890137,105.806342 168.17627,105.086938 C167.462402,104.367535 167.105469,103.482115 167.105469,102.43068 Z M176.958496,102.654785 C176.958496,103.617676 177.298828,104.443604 177.979492,105.132568 C178.660156,105.821533 179.481934,106.166016 180.444824,106.166016 C180.837725,106.166016 181.233398,106.10376 181.631836,105.979248 C182.030273,105.854736 182.356768,105.71916 182.611328,105.57251 C182.865888,105.42586 183.114912,105.25708 183.358398,105.066162 C183.601885,104.875244 183.760986,104.739667 183.835693,104.659424 C183.9104,104.57918 183.964355,104.516924 183.997559,104.472656 L183.26709,103.725586 L183.142578,103.858398 C183.054034,103.946943 182.928136,104.059003 182.764884,104.19458 C182.601633,104.330157 182.412101,104.464355 182.196281,104.597168 C181.980461,104.72998 181.724523,104.840655 181.428459,104.929199 C181.132395,105.017744 180.832181,105.062012 180.527816,105.062012 C179.86929,105.062012 179.310373,104.818525 178.851066,104.331543 C178.391759,103.844561 178.162101,103.249669 178.162101,102.546867 C178.162101,101.51757 178.521799,100.632151 179.241203,99.8906169 C179.960607,99.1490831 180.763018,98.7783122 181.648438,98.7783122 C181.952802,98.7783122 182.244716,98.8225803 182.524178,98.9111247 C182.80364,98.9996691 183.030526,99.1006646 183.204842,99.2141113 C183.379158,99.327558 183.541024,99.4589844 183.690438,99.6083984 C183.839852,99.7578125 183.936697,99.8601861 183.980965,99.9155273 C184.025233,99.9708686 184.058436,100.015137 184.080575,100.04834 L185.001961,99.284668 L184.87745,99.1186523 C184.799978,99.0024414 184.672702,98.8682427 184.495622,98.7160645 C184.318541,98.5638862 184.111022,98.4075575 183.873063,98.2470784 C183.635105,98.0865993 183.336277,97.9496365 182.976579,97.8361897 C182.616881,97.722743 182.237809,97.6660237 181.839372,97.6660237 C180.489109,97.6660237 179.338064,98.1751356 178.386239,99.1933675 C177.434413,100.211599 176.958496,101.3654 176.958496,102.654785 Z M187.284668,103.708984 L189.293457,101.990723 L191.368652,106 L192.680176,106 L190.214844,101.152344 L194.074707,97.840332 L192.572266,97.840332 L187.625,102.090332 L189.32666,94.0966797 L188.139648,94.0966797 L185.624512,106 L186.811523,106 L187.284668,103.708984 Z"/>
    <g fill="#E0E1E6" transform="rotate(90 50.5 101.5)">
      <rect width="2" height="2"/>
      <rect width="2" height="2" x="4"/>
      <rect width="2" height="2" x="8"/>
      <rect width="2" height="2" x="12"/>
      <rect width="2" height="2" x="16"/>
      <rect width="2" height="2" x="20"/>
      <rect width="2" height="2" x="24"/>
      <rect width="2" height="2" x="28"/>
      <rect width="2" height="2" x="32"/>
    </g>
    <circle cx="151" cy="48" r="3" fill="#FFF"/>
    <path fill="#6479A1" d="M3.2578125,103.708984 L5.26660156,101.990723 L7.34179688,106 L8.65332031,106 L6.18798828,101.152344 L10.0478516,97.840332 L8.54541016,97.840332 L3.59814453,102.090332 L5.29980469,94.0966797 L4.11279297,94.0966797 L1.59765625,106 L2.78466797,106 L3.2578125,103.708984 Z M13.8828125,105.062012 C14.3919244,105.062012 14.8844752,104.948557 15.360384,104.721672 C15.8362927,104.494786 16.1821613,104.267901 16.3979816,104.041016 L16.7383137,103.708984 L17.3857746,104.472656 C17.3525715,104.516924 17.3013806,104.57918 17.2322102,104.659424 C17.1630397,104.739667 17.0094752,104.875244 16.7715168,105.066162 C16.5335584,105.25708 16.2872992,105.42586 16.0327392,105.57251 C15.7781792,105.71916 15.4489121,105.854736 15.0449381,105.979248 C14.640964,106.10376 14.23699,106.166016 13.8330159,106.166016 C12.8701253,106.166016 12.0483479,105.82707 11.3676839,105.14917 C10.6870198,104.47127 10.3466878,103.650879 10.3466878,102.687988 C10.3466878,101.315595 10.8364339,100.135498 11.8159261,99.1477051 C12.7954183,98.1599121 13.8966579,97.6660156 15.119637,97.6660156 C16.0825276,97.6660156 16.8849392,97.9579291 17.5268636,98.541748 C18.168788,99.125567 18.4897542,99.8823242 18.4897542,100.812012 C18.4897542,101.38753 18.381844,101.904943 18.1660237,102.36425 L11.5170979,102.347648 L11.5170979,102.596672 C11.5170979,103.299474 11.7467556,103.886065 12.2060628,104.356445 C12.66537,104.826826 13.2242866,105.062012 13.8828125,105.062012 Z M15.0034585,98.7783122 C14.3227944,98.7783122 13.6739392,99.0190349 13.0569172,99.5004802 C12.4398952,99.9819255 12.0013399,100.590647 11.7412515,101.326652 L17.2861733,101.326652 C17.2972383,101.260246 17.3027749,101.163401 17.3027749,101.036125 C17.3027749,100.377599 17.0869546,99.8366618 16.655314,99.413322 C16.2236733,98.9899821 15.6730576,98.7783122 15.0034585,98.7783122 Z M21.0878906,107.187012 L21.8017497,105.950195 L20.2329021,97.840332 L21.4614177,97.840332 L22.6816325,104.472656 L26.7324138,97.840332 L28.052238,97.840332 L22.3246989,107.187012 C21.7934489,108.050293 21.2981663,108.663165 20.8388591,109.025635 C20.3795519,109.388105 19.8538384,109.569336 19.2617188,109.569336 C19.0791016,109.569336 18.9089355,109.555499 18.7512207,109.527832 C18.5935059,109.500165 18.4814453,109.469727 18.4150391,109.436523 L18.2988281,109.40332 L18.5146484,108.33252 C18.7304688,108.421064 18.9794922,108.465332 19.2617188,108.465332 C19.9921875,108.465332 20.6009088,108.039228 21.0878906,107.187012 Z M36.7514648,98.7783203 C35.8660455,98.7783203 35.0553412,99.189209 34.3193359,100.010986 C33.5833306,100.832764 33.215332,101.719561 33.215332,102.671387 C33.215332,103.363116 33.4477539,103.934484 33.9125977,104.38549 C34.3774414,104.836496 34.9335938,105.062004 35.5810547,105.062004 C36.3723931,105.062004 37.1374512,104.682932 37.8762207,103.924797 C38.6149902,103.166661 38.984375,102.284014 38.984375,101.276855 C38.984375,100.574053 38.7630181,99.9819336 38.3203125,99.5004883 C37.8776069,99.019043 37.3546576,98.7783203 36.7514648,98.7783203 Z M34.9502034,94.0966797 L33.8960042,99.043921 C33.9292073,99.0107179 33.9748616,98.9636774 34.0329671,98.9028077 C34.0910726,98.841938 34.2183485,98.7312636 34.414803,98.5707846 C34.6112576,98.4103055 34.8173909,98.2705784 35.0332112,98.1516032 C35.2490315,98.0326281 35.5243435,97.9219537 35.859139,97.8195801 C36.1939344,97.7172065 36.5384169,97.6660156 36.8925862,97.6660156 C37.7780056,97.6660156 38.5485921,98.0146484 39.2043538,98.7119141 C39.8601155,99.4091797 40.1879964,100.233721 40.1879964,101.185547 C40.1879964,102.546875 39.6885633,103.717285 38.6897054,104.696777 C37.6908474,105.67627 36.6020589,106.166016 35.4233479,106.166016 C35.0747151,106.166016 34.7440701,106.116211 34.4314046,106.016602 C34.1187391,105.916992 33.8614149,105.79248 33.6594319,105.643066 C33.457449,105.493652 33.2817464,105.342852 33.1323323,105.190674 C32.9829183,105.038496 32.8750081,104.912598 32.8086019,104.812988 L32.7089925,104.655273 L32.4350667,106 L31.248055,106 L33.7631917,94.0966797 L34.9502034,94.0966797 Z M45.1435547,94.0966797 L43.956543,94.0966797 L41.4414062,106 L42.628418,106 L45.1435547,94.0966797 Z M49.4931641,105.078613 C50.3896484,105.078613 51.1865234,104.713395 51.8837891,103.982926 C52.5810547,103.252458 52.9296875,102.416843 52.9296875,101.47609 C52.9296875,100.706882 52.6737494,100.062185 52.1618652,99.5420003 C51.649981,99.0218153 51.0094347,98.7617269 50.2402263,98.7617269 C49.376945,98.7617269 48.5883708,99.1158962 47.8745036,99.8242269 C47.1606364,100.532557 46.8037028,101.379237 46.8037028,102.364266 C46.8037028,103.122401 47.0596409,103.764326 47.5715251,104.290039 C48.0834093,104.815753 48.7239556,105.078613 49.4931641,105.078613 Z M45.6000977,102.43068 C45.6000977,101.218766 46.0732422,100.121677 47.0195312,99.1394205 C47.9658203,98.1571641 49.0725884,97.6660318 50.3398438,97.6660318 C51.4410834,97.6660318 52.3486328,98.02988 53.0625,98.7575846 C53.7763672,99.4852891 54.1333008,100.374859 54.1333008,101.426294 C54.1333008,102.704614 53.6463189,103.814155 52.6723633,104.754907 C51.6984076,105.69566 50.6054688,106.16604 49.3935547,106.16604 C48.292315,106.16604 47.3847656,105.806342 46.6708984,105.086938 C45.9570312,104.367535 45.6000977,103.482115 45.6000977,102.43068 Z M55.453125,102.654785 C55.453125,103.617676 55.793457,104.443604 56.4741211,105.132568 C57.1547852,105.821533 57.9765625,106.166016 58.9394531,106.166016 C59.3323541,106.166016 59.7280273,106.10376 60.1264648,105.979248 C60.5249023,105.854736 60.851397,105.71916 61.105957,105.57251 C61.360517,105.42586 61.6095405,105.25708 61.8530273,105.066162 C62.0965142,104.875244 62.2556152,104.739667 62.3303223,104.659424 C62.4050293,104.57918 62.4589844,104.516924 62.4921875,104.472656 L61.7617188,103.725586 L61.637207,103.858398 C61.5486627,103.946943 61.4227648,104.059003 61.2595134,104.19458 C61.096262,104.330157 60.9067302,104.464355 60.6909099,104.597168 C60.4750896,104.72998 60.2191515,104.840655 59.9230876,104.929199 C59.6270237,105.017744 59.3268094,105.062012 59.0224447,105.062012 C58.3639188,105.062012 57.8050022,104.818525 57.345695,104.331543 C56.8863878,103.844561 56.6567302,103.249669 56.6567302,102.546867 C56.6567302,101.51757 57.016428,100.632151 57.7358317,99.8906169 C58.4552355,99.1490831 59.257647,98.7783122 60.1430664,98.7783122 C60.4474311,98.7783122 60.7393446,98.8225803 61.0188069,98.9111247 C61.2982693,98.9996691 61.5251546,99.1006646 61.699471,99.2141113 C61.8737874,99.327558 62.0356526,99.4589844 62.1850667,99.6083984 C62.3344808,99.7578125 62.4313259,99.8601861 62.475594,99.9155273 C62.5198622,99.9708686 62.5530653,100.015137 62.5752034,100.04834 L63.4965901,99.284668 L63.3720784,99.1186523 C63.2946072,99.0024414 63.1673312,98.8682427 62.9902506,98.7160645 C62.81317,98.5638862 62.6056504,98.4075575 62.367692,98.2470784 C62.1297336,98.0865993 61.8309054,97.9496365 61.4712076,97.8361897 C61.1115098,97.722743 60.7324381,97.6660237 60.3340006,97.6660237 C58.9837375,97.6660237 57.8326931,98.1751356 56.8808675,99.1933675 C55.9290419,100.211599 55.453125,101.3654 55.453125,102.654785 Z M65.7792969,103.708984 L67.7880859,101.990723 L69.8632812,106 L71.1748047,106 L68.7094727,101.152344 L72.5693359,97.840332 L71.0668945,97.840332 L66.1196289,102.090332 L67.8212891,94.0966797 L66.6342773,94.0966797 L64.1191406,106 L65.3061523,106 L65.7792969,103.708984 Z"/>
    <g fill="#E0E1E6" transform="rotate(90 -13.5 37.5)">
      <rect width="2" height="2"/>
      <rect width="2" height="2" x="4"/>
      <rect width="2" height="2" x="8"/>
      <rect width="2" height="2" x="12"/>
      <rect width="2" height="2" x="16"/>
      <rect width="2" height="2" x="20"/>
      <rect width="2" height="2" x="24"/>
      <rect width="2" height="2" x="28"/>
      <rect width="2" height="2" x="32"/>
    </g>
    <circle cx="23" cy="48" r="3" fill="#FFF"/>
  </g>
</svg>
