<svg xmlns="http://www.w3.org/2000/svg" xmlns:xlink="http://www.w3.org/1999/xlink" width="100%" viewBox="0 0 440 110">
  <defs>
    <linearGradient id="tr_blockchain_model-a" x1="3.209%" y1="50%" y2="50%">
      <stop offset="0%" stop-color="#860B0B"/>
      <stop offset="54.279%" stop-color="#DC9D7E"/>
      <stop offset="77.087%" stop-color="#C1D54F"/>
      <stop offset="100%" stop-color="#5ECE1F"/>
    </linearGradient>
    <linearGradient id="tr_blockchain_model-b" x1="3.209%" y1="50%" y2="50%">
      <stop offset="0%" stop-color="#860B0B"/>
      <stop offset="100%" stop-color="#DC9D7E"/>
    </linearGradient>
    <linearGradient id="tr_blockchain_model-c" x1="3.209%" y1="50%" y2="50%">
      <stop offset="0%" stop-color="#C1D54F"/>
      <stop offset="100%" stop-color="#5ECE1F"/>
    </linearGradient>
    <rect id="tr_blockchain_model-d" width="68" height="68"/>
    <rect id="tr_blockchain_model-e" width="68" height="68"/>
    <rect id="tr_blockchain_model-f" width="68" height="68"/>
  </defs>
  <g fill="none" fill-rule="evenodd">
    <path fill="#6479A1" d="M24.4365234 100.840332L23.2412109 100.840332 21.5063477 109 22.7016602 109 23.6313477 104.583984C23.8028998 103.764971 24.1750488 103.092608 24.7478027 102.566895 25.3205566 102.041181 25.9694037 101.77832 26.6943359 101.77832 27.2477241 101.77832 27.6945801 101.940186 28.0349121 102.263916 28.3752441 102.587646 28.5454102 103.026202 28.5454102 103.57959 28.5454102 103.690264 28.523272 103.881182 28.4790039 104.152344L27.4580078 109 28.6533203 109 29.6660156 104.152344C29.7268853 103.914385 29.7573242 103.637695 29.7573242 103.322266 29.7573242 102.508789 29.4972358 101.862714 28.9770508 101.384033 28.4568658 100.905352 27.7706652 100.666016 26.9184489 100.666016 26.5864177 100.666016 26.2626872 100.714434 25.9472575 100.811279 25.6318278 100.908124 25.3772678 101.016035 25.1835856 101.13501 24.9899035 101.253985 24.8059001 101.390948 24.6315837 101.545898 24.4572673 101.700849 24.3438206 101.808759 24.2912517 101.869629 24.2386827 101.930499 24.2013292 101.977539 24.1791911 102.010742L24.4365234 100.840332zM35.0698242 108.062012C35.5789361 108.062012 36.0714869 107.948557 36.5473957 107.721672 37.0233045 107.494786 37.369173 107.267901 37.5849934 107.041016L37.9253254 106.708984 38.5727863 107.472656C38.5395832 107.516924 38.4883924 107.57918 38.4192219 107.659424 38.3500514 107.739667 38.1964869 107.875244 37.9585285 108.066162 37.7205701 108.25708 37.4743109 108.42586 37.2197509 108.57251 36.9651909 108.71916 36.6359239 108.854736 36.2319498 108.979248 35.8279757 109.10376 35.4240017 109.166016 35.0200276 109.166016 34.057137 109.166016 33.2353597 108.82707 32.5546956 108.14917 31.8740315 107.47127 31.5336995 106.650879 31.5336995 105.687988 31.5336995 104.315595 32.0234456 103.135498 33.0029378 102.147705 33.98243 101.159912 35.0836697 100.666016 36.3066487 100.666016 37.2695394 100.666016 38.0719509 100.957929 38.7138753 101.541748 39.3557997 102.125567 39.6767659 102.882324 39.6767659 103.812012 39.6767659 104.38753 39.5688558 104.904943 39.3530354 105.36425L32.7041097 105.347648 32.7041097 105.596672C32.7041097 106.299474 32.9337673 106.886065 33.3930745 107.356445 33.8523817 107.826826 34.4112983 108.062012 35.0698242 108.062012zM36.1904702 101.778312C35.5098062 101.778312 34.8609509 102.019035 34.2439289 102.50048 33.6269069 102.981925 33.1883516 103.590647 32.9282632 104.326652L38.4731851 104.326652C38.4842501 104.260246 38.4897866 104.163401 38.4897866 104.036125 38.4897866 103.377599 38.2739663 102.836662 37.8423257 102.413322 37.4106851 101.989982 36.8600693 101.778312 36.1904702 101.778312zM43.4619141 99.9936523C43.3512397 100.558105 43.0690131 100.840332 42.6152344 100.840332L41.6772461 100.840332 41.4365234 101.944336 42.972168 101.944336 41.9345703 106.791992C41.7740912 107.550128 41.8474121 108.135333 42.154541 108.547607 42.4616699 108.959882 42.9666314 109.166016 43.6694336 109.166016 44.0955377 109.171552 44.5022759 109.088544 44.8896484 108.916992L45.1137695 107.812988 44.9560547 107.879395C44.8564453 107.912598 44.7097955 107.951337 44.5161133 107.995605 44.3224311 108.039874 44.1342773 108.062012 43.9516602 108.062012 43.226728 108.067548 42.950038 107.644208 43.1215901 106.791992L44.1591878 101.944336 45.9438558 101.944336 46.1845784 100.840332 44.3999104 100.840332 44.9726644 98.1176758 43.8686604 98.1176758 43.4619141 99.9936523zM52.9082031 100.840332L49.5297852 107.132324 48.7495117 100.840332 47.5375977 100.840332 48.6083984 109 49.7124023 109 53.065918 102.791016 53.7963867 109 54.9003906 109 59.440918 100.840332 58.1459961 100.840332 54.6928711 107.132324 53.9291992 100.840332 52.9082031 100.840332zM63.3837891 108.078613C64.2802734 108.078613 65.0771484 107.713395 65.7744141 106.982926 66.4716797 106.252458 66.8203125 105.416843 66.8203125 104.47609 66.8203125 103.706882 66.5643744 103.062185 66.0524902 102.542 65.540606 102.021815 64.9000597 101.761727 64.1308513 101.761727 63.26757 101.761727 62.4789958 102.115896 61.7651286 102.824227 61.0512614 103.532557 60.6943278 104.379237 60.6943278 105.364266 60.6943278 106.122401 60.9502659 106.764326 61.4621501 107.290039 61.9740343 107.815753 62.6145806 108.078613 63.3837891 108.078613zM59.4907227 105.43068C59.4907227 104.218766 59.9638672 103.121677 60.9101562 102.139421 61.8564453 101.157164 62.9632134 100.666032 64.2304688 100.666032 65.3317084 100.666032 66.2392578 101.02988 66.953125 101.757585 67.6669922 102.485289 68.0239258 103.374859 68.0239258 104.426294 68.0239258 105.704614 67.5369439 106.814155 66.5629883 107.754907 65.5890326 108.69566 64.4960938 109.16604 63.2841797 109.16604 62.18294 109.16604 61.2753906 108.806342 60.5615234 108.086938 59.8476562 107.367535 59.4907227 106.482115 59.4907227 105.43068zM75.1875 100.666016L74.9384766 101.861336 74.4238281 101.861336C73.7210259 101.861336 73.0694146 102.104823 72.4689941 102.591805 71.8685737 103.078787 71.4825873 103.71241 71.3110352 104.492684L70.3647461 109.000008 69.1694336 109.000008 70.9042969 100.84034 72.0996094 100.84034 71.8588867 101.944344C71.8810248 101.911141 71.9211426 101.865487 71.979248 101.807381 72.0373535 101.749276 72.1563287 101.646902 72.3361816 101.500252 72.5160346 101.353602 72.711103 101.223554 72.9213867 101.110107 73.1316705 100.996661 73.4014459 100.894287 73.7307129 100.802979 74.0599799 100.71167 74.3989258 100.666016 74.7475586 100.666016L75.1875 100.666016zM76.78125 106.708984L76.3081055 109 75.1210938 109 77.6362305 97.0966797 78.8232422 97.0966797 77.121582 105.090332 82.0688477 100.840332 83.5712891 100.840332 79.7114258 104.152344 82.1767578 109 80.8652344 109 78.7900391 104.990723 76.78125 106.708984zM207.101074 101.77832C206.215655 101.77832 205.404951 102.189209 204.668945 103.010986 203.93294 103.832764 203.564941 104.719561 203.564941 105.671387 203.564941 106.363116 203.797363 106.934484 204.262207 107.38549 204.727051 107.836496 205.283203 108.062004 205.930664 108.062004 206.722003 108.062004 207.487061 107.682932 208.22583 106.924797 208.9646 106.166661 209.333984 105.284014 209.333984 104.276855 209.333984 103.574053 209.112628 102.981934 208.669922 102.500488 208.227216 102.019043 207.704267 101.77832 207.101074 101.77832zM205.299813 97.0966797L204.245614 102.043921C204.278817 102.010718 204.324471 101.963677 204.382576 101.902808 204.440682 101.841938 204.567958 101.731264 204.764412 101.570785 204.960867 101.410306 205.167 101.270578 205.382821 101.151603 205.598641 101.032628 205.873953 100.921954 206.208748 100.81958 206.543544 100.717206 206.888026 100.666016 207.242196 100.666016 208.127615 100.666016 208.898201 101.014648 209.553963 101.711914 210.209725 102.40918 210.537606 103.233721 210.537606 104.185547 210.537606 105.546875 210.038173 106.717285 209.039315 107.696777 208.040457 108.67627 206.951668 109.166016 205.772957 109.166016 205.424325 109.166016 205.093679 109.116211 204.781014 109.016602 204.468349 108.916992 204.211024 108.79248 204.009041 108.643066 203.807058 108.493652 203.631356 108.342852 203.481942 108.190674 203.332528 108.038496 203.224617 107.912598 203.158211 107.812988L203.058602 107.655273 202.784676 109 201.597664 109 204.112801 97.0966797 205.299813 97.0966797zM215.493164 97.0966797L214.306152 97.0966797 211.791016 109 212.978027 109 215.493164 97.0966797zM219.842773 108.078613C220.739258 108.078613 221.536133 107.713395 222.233398 106.982926 222.930664 106.252458 223.279297 105.416843 223.279297 104.47609 223.279297 103.706882 223.023359 103.062185 222.511475 102.542 221.99959 102.021815 221.359044 101.761727 220.589836 101.761727 219.726554 101.761727 218.93798 102.115896 218.224113 102.824227 217.510246 103.532557 217.153312 104.379237 217.153312 105.364266 217.153312 106.122401 217.40925 106.764326 217.921134 107.290039 218.433019 107.815753 219.073565 108.078613 219.842773 108.078613zM215.949707 105.43068C215.949707 104.218766 216.422852 103.121677 217.369141 102.139421 218.31543 101.157164 219.422198 100.666032 220.689453 100.666032 221.790693 100.666032 222.698242 101.02988 223.412109 101.757585 224.125977 102.485289 224.48291 103.374859 224.48291 104.426294 224.48291 105.704614 223.995928 106.814155 223.021973 107.754907 222.048017 108.69566 220.955078 109.16604 219.743164 109.16604 218.641924 109.16604 217.734375 108.806342 217.020508 108.086938 216.306641 107.367535 215.949707 106.482115 215.949707 105.43068zM225.802734 105.654785C225.802734 106.617676 226.143066 107.443604 226.82373 108.132568 227.504395 108.821533 228.326172 109.166016 229.289062 109.166016 229.681963 109.166016 230.077637 109.10376 230.476074 108.979248 230.874512 108.854736 231.201006 108.71916 231.455566 108.57251 231.710126 108.42586 231.95915 108.25708 232.202637 108.066162 232.446124 107.875244 232.605225 107.739667 232.679932 107.659424 232.754639 107.57918 232.808594 107.516924 232.841797 107.472656L232.111328 106.725586 231.986816 106.858398C231.898272 106.946943 231.772374 107.059003 231.609123 107.19458 231.445871 107.330157 231.25634 107.464355 231.040519 107.597168 230.824699 107.72998 230.568761 107.840655 230.272697 107.929199 229.976633 108.017744 229.676419 108.062012 229.372054 108.062012 228.713528 108.062012 228.154612 107.818525 227.695304 107.331543 227.235997 106.844561 227.00634 106.249669 227.00634 105.546867 227.00634 104.51757 227.366037 103.632151 228.085441 102.890617 228.804845 102.149083 229.607256 101.778312 230.492676 101.778312 230.79704 101.778312 231.088954 101.82258 231.368416 101.911125 231.647879 101.999669 231.874764 102.100665 232.04908 102.214111 232.223397 102.327558 232.385262 102.458984 232.534676 102.608398 232.68409 102.757812 232.780935 102.860186 232.825203 102.915527 232.869472 102.970869 232.902675 103.015137 232.924813 103.04834L233.8462 102.284668 233.721688 102.118652C233.644217 102.002441 233.516941 101.868243 233.33986 101.716064 233.162779 101.563886 232.95526 101.407557 232.717301 101.247078 232.479343 101.086599 232.180515 100.949636 231.820817 100.83619 231.461119 100.722743 231.082047 100.666024 230.68361 100.666024 229.333347 100.666024 228.182302 101.175136 227.230477 102.193367 226.278651 103.211599 225.802734 104.3654 225.802734 105.654785zM236.128906 106.708984L238.137695 104.990723 240.212891 109 241.524414 109 239.059082 104.152344 242.918945 100.840332 241.416504 100.840332 236.469238 105.090332 238.170898 97.0966797 236.983887 97.0966797 234.46875 109 235.655762 109 236.128906 106.708984zM342.179199 99.9936523C342.068525 100.558105 341.786298 100.840332 341.33252 100.840332L340.394531 100.840332 340.153809 101.944336 341.689453 101.944336 340.651855 106.791992C340.491376 107.550128 340.564697 108.135333 340.871826 108.547607 341.178955 108.959882 341.683917 109.166016 342.386719 109.166016 342.812823 109.171552 343.219561 109.088544 343.606934 108.916992L343.831055 107.812988 343.67334 107.879395C343.57373 107.912598 343.427081 107.951337 343.233398 107.995605 343.039716 108.039874 342.851562 108.062012 342.668945 108.062012 341.944013 108.067548 341.667323 107.644208 341.838875 106.791992L342.876473 101.944336 344.661141 101.944336 344.901864 100.840332 343.117196 100.840332 343.68995 98.1176758 342.585946 98.1176758 342.179199 99.9936523zM351.64209 100.666016L351.202148 100.666016C350.853516 100.666016 350.51457 100.71167 350.185303 100.802979 349.856036 100.894287 349.58626 100.996661 349.375977 101.110107 349.165693 101.223554 348.970624 101.353602 348.790771 101.500252 348.610919 101.646902 348.491943 101.749276 348.433838 101.807381 348.375732 101.865487 348.335615 101.911141 348.313477 101.944344L348.554199 100.84034 347.358887 100.84034 345.624023 109.000008 346.819336 109.000008 347.765625 104.492684C347.937177 103.71241 348.323164 103.078787 348.923584 102.591805 349.524004 102.104823 350.175616 101.861336 350.878418 101.861336L351.393066 101.861336 351.64209 100.666016zM355.095215 108.062012C355.980634 108.062012 356.791338 107.651107 357.527344 106.829329 358.263349 106.007552 358.631348 105.120755 358.631348 104.168929 358.631348 103.4772 358.398926 102.905832 357.934082 102.454826 357.469238 102.003819 356.913086 101.778312 356.265625 101.778312 355.474287 101.778312 354.709229 102.154612 353.970459 102.907218 353.231689 103.659825 352.862305 104.539708 352.862305 105.546867 352.862305 106.249669 353.083662 106.844561 353.526367 107.331543 353.969073 107.818525 354.492022 108.062012 355.095215 108.062012zM357.693351 108.999984L357.950651 107.796395C357.917448 107.829598 357.871794 107.876638 357.813688 107.937508 357.755583 107.998378 357.626921 108.109052 357.427702 108.269531 357.228483 108.43001 357.02235 108.569737 356.809294 108.688713 356.596238 108.807688 356.322312 108.916984 355.987516 109.016593 355.652721 109.116203 355.308239 109.166008 354.954069 109.166008 354.06865 109.166008 353.298063 108.818761 352.642302 108.124259 351.98654 107.429758 351.658659 106.606595 351.658659 105.654769 351.658659 104.293441 352.156706 103.121644 353.1528 102.139388 354.148893 101.157132 355.236296 100.665999 356.415007 100.665999 356.763639 100.665999 357.094285 100.71719 357.40695 100.819564 357.719615 100.921937 357.978326 101.047835 358.183081 101.197249 358.387836 101.346663 358.563539 101.497464 358.710189 101.649642 358.856839 101.80182 358.966135 101.927718 359.038078 102.027328L359.137687 102.185042 359.428215 100.840316 360.615226 100.840316 358.880363 108.999984 357.693351 108.999984zM364.524902 100.840332L363.32959 100.840332 361.594727 109 362.790039 109 363.719727 104.583984C363.891279 103.764971 364.263428 103.092608 364.836182 102.566895 365.408936 102.041181 366.057783 101.77832 366.782715 101.77832 367.336103 101.77832 367.782959 101.940186 368.123291 102.263916 368.463623 102.587646 368.633789 103.026202 368.633789 103.57959 368.633789 103.690264 368.611651 103.881182 368.567383 104.152344L367.546387 109 368.741699 109 369.754395 104.152344C369.815264 103.914385 369.845703 103.637695 369.845703 103.322266 369.845703 102.508789 369.585615 101.862714 369.06543 101.384033 368.545245 100.905352 367.859044 100.666016 367.006828 100.666016 366.674797 100.666016 366.351066 100.714434 366.035636 100.811279 365.720207 100.908124 365.465647 101.016035 365.271965 101.13501 365.078282 101.253985 364.894279 101.390948 364.719963 101.545898 364.545646 101.700849 364.432199 101.808759 364.379631 101.869629 364.327062 101.930499 364.289708 101.977539 364.26757 102.010742L364.524902 100.840332zM377.914062 101.77832L377.806152 101.653809C377.739746 101.587402 377.633222 101.49748 377.486572 101.384033 377.339922 101.270586 377.166992 101.159912 376.967773 101.052002 376.768555 100.944092 376.520917 100.852783 376.224854 100.778076 375.92879 100.703369 375.623047 100.666016 375.307617 100.666016 374.416669 100.666016 373.684814 100.919189 373.112061 101.425537 372.539307 101.931885 372.25293 102.536456 372.25293 103.239258 372.25293 103.715167 372.445234 104.117754 372.829834 104.447021 373.214434 104.776289 373.636388 105.014247 374.095695 105.160897 374.555002 105.307547 374.976956 105.499851 375.361556 105.737809 375.746156 105.975768 375.93846 106.257994 375.93846 106.584489 375.93846 107.027194 375.769681 107.384128 375.432113 107.65529 375.094545 107.926451 374.6131 108.062028 373.987777 108.062028 373.578274 108.062028 373.195052 107.958268 372.838119 107.750749 372.481185 107.543229 372.248763 107.375827 372.140853 107.248551 372.032943 107.121275 371.951321 107.013365 371.89598 106.924821L370.94139 107.721696 371.040999 107.879411C371.112942 107.97902 371.225003 108.099381 371.377181 108.240495 371.529359 108.381608 371.71059 108.521335 371.920874 108.659684 372.131158 108.798033 372.402319 108.917008 372.734351 109.016618 373.066382 109.116227 373.42608 109.166032 373.813452 109.166032 374.831684 109.166032 375.645161 108.908708 376.253882 108.394059 376.862603 107.879411 377.166968 107.220885 377.166968 106.418473 377.166968 105.931491 376.973286 105.517838 376.585913 105.177506 376.198541 104.837174 375.775201 104.593688 375.315894 104.447038 374.856586 104.300388 374.434633 104.10947 374.050033 103.874284 373.665432 103.639098 373.473128 103.369322 373.473128 103.064958 373.473128 102.716325 373.623929 102.414732 373.925521 102.160172 374.227113 101.905612 374.632465 101.778337 375.141577 101.778337 375.49021 101.778337 375.823627 101.851657 376.141821 101.998307 376.460015 102.144957 376.664771 102.263932 376.756079 102.355241 376.847388 102.446549 376.91518 102.51987 376.959448 102.575212L377.914062 101.77832zM382.363281 108.062012C383.248701 108.062012 384.059405 107.651107 384.79541 106.829329 385.531415 106.007552 385.899414 105.120755 385.899414 104.168929 385.899414 103.4772 385.666992 102.905832 385.202148 102.454826 384.737305 102.003819 384.181152 101.778312 383.533691 101.778312 382.742353 101.778312 381.977295 102.154612 381.238525 102.907218 380.499756 103.659825 380.130371 104.539708 380.130371 105.546867 380.130371 106.249669 380.351728 106.844561 380.794434 107.331543 381.237139 107.818525 381.760088 108.062012 382.363281 108.062012zM384.961418 108.999984L385.218718 107.796395C385.185514 107.829598 385.13986 107.876638 385.081755 107.937508 385.023649 107.998378 384.894987 108.109052 384.695768 108.269531 384.49655 108.43001 384.290416 108.569737 384.07736 108.688713 383.864304 108.807688 383.590378 108.916984 383.255583 109.016593 382.920787 109.116203 382.576305 109.166008 382.222136 109.166008 381.336716 109.166008 380.56613 108.818761 379.910368 108.124259 379.254606 107.429758 378.926725 106.606595 378.926725 105.654769 378.926725 104.293441 379.424772 103.121644 380.420866 102.139388 381.41696 101.157132 382.504362 100.665999 383.683073 100.665999 384.031706 100.665999 384.362351 100.71719 384.675016 100.819564 384.987682 100.921937 385.246392 101.047835 385.451148 101.197249 385.655903 101.346663 385.831605 101.497464 385.978255 101.649642 386.124905 101.80182 386.234201 101.927718 386.306144 102.027328L386.405754 102.185042 386.696281 100.840316 387.883293 100.840316 386.148429 108.999984 384.961418 108.999984zM389.037109 105.654785C389.037109 106.617676 389.377441 107.443604 390.058105 108.132568 390.73877 108.821533 391.560547 109.166016 392.523438 109.166016 392.916338 109.166016 393.312012 109.10376 393.710449 108.979248 394.108887 108.854736 394.435381 108.71916 394.689941 108.57251 394.944501 108.42586 395.193525 108.25708 395.437012 108.066162 395.680499 107.875244 395.8396 107.739667 395.914307 107.659424 395.989014 107.57918 396.042969 107.516924 396.076172 107.472656L395.345703 106.725586 395.221191 106.858398C395.132647 106.946943 395.006749 107.059003 394.843498 107.19458 394.680246 107.330157 394.490715 107.464355 394.274894 107.597168 394.059074 107.72998 393.803136 107.840655 393.507072 107.929199 393.211008 108.017744 392.910794 108.062012 392.606429 108.062012 391.947903 108.062012 391.388987 107.818525 390.929679 107.331543 390.470372 106.844561 390.240715 106.249669 390.240715 105.546867 390.240715 104.51757 390.600412 103.632151 391.319816 102.890617 392.03922 102.149083 392.841631 101.778312 393.727051 101.778312 394.031415 101.778312 394.323329 101.82258 394.602791 101.911125 394.882254 101.999669 395.109139 102.100665 395.283455 102.214111 395.457772 102.327558 395.619637 102.458984 395.769051 102.608398 395.918465 102.757812 396.01531 102.860186 396.059578 102.915527 396.103847 102.970869 396.13705 103.015137 396.159188 103.04834L397.080575 102.284668 396.956063 102.118652C396.878592 102.002441 396.751316 101.868243 396.574235 101.716064 396.397154 101.563886 396.189635 101.407557 395.951676 101.247078 395.713718 101.086599 395.41489 100.949636 395.055192 100.83619 394.695494 100.722743 394.316422 100.666024 393.917985 100.666024 392.567722 100.666024 391.416677 101.175136 390.464852 102.193367 389.513026 103.211599 389.037109 104.3654 389.037109 105.654785zM400.284668 99.9936523C400.173994 100.558105 399.891767 100.840332 399.437988 100.840332L398.5 100.840332 398.259277 101.944336 399.794922 101.944336 398.757324 106.791992C398.596845 107.550128 398.670166 108.135333 398.977295 108.547607 399.284424 108.959882 399.789385 109.166016 400.492188 109.166016 400.918292 109.171552 401.32503 109.088544 401.712402 108.916992L401.936523 107.812988 401.778809 107.879395C401.679199 107.912598 401.532549 107.951337 401.338867 107.995605 401.145185 108.039874 400.957031 108.062012 400.774414 108.062012 400.049482 108.067548 399.772792 107.644208 399.944344 106.791992L400.981942 101.944336 402.76661 101.944336 403.007332 100.840332 401.222664 100.840332 401.795418 98.1176758 400.691414 98.1176758 400.284668 99.9936523zM405.804688 98.2421875C405.804688 98.4137397 405.869708 98.5631537 405.999756 98.6904297 406.129804 98.8177056 406.286133 98.8813477 406.46875 98.8813477 406.706708 98.8813477 406.916992 98.7969537 407.099609 98.6281738 407.282227 98.459394 407.373535 98.2560248 407.373535 98.0180664 407.373535 97.8354492 407.305743 97.6791205 407.170166 97.5490723 407.034589 97.419024 406.875488 97.3540039 406.692871 97.3540039 406.443848 97.3540039 406.233564 97.4425483 406.062012 97.6196289 405.89046 97.7967095 405.804688 98.0042291 405.804688 98.2421875zM403.729492 109L404.924805 109 406.659668 100.840332 405.464355 100.840332 403.729492 109zM411.706543 108.078613C412.603027 108.078613 413.399902 107.713395 414.097168 106.982926 414.794434 106.252458 415.143066 105.416843 415.143066 104.47609 415.143066 103.706882 414.887128 103.062185 414.375244 102.542 413.86336 102.021815 413.222814 101.761727 412.453605 101.761727 411.590324 101.761727 410.80175 102.115896 410.087883 102.824227 409.374015 103.532557 409.017082 104.379237 409.017082 105.364266 409.017082 106.122401 409.27302 106.764326 409.784904 107.290039 410.296788 107.815753 410.937335 108.078613 411.706543 108.078613zM407.813477 105.43068C407.813477 104.218766 408.286621 103.121677 409.23291 102.139421 410.179199 101.157164 411.285967 100.666032 412.553223 100.666032 413.654462 100.666032 414.562012 101.02988 415.275879 101.757585 415.989746 102.485289 416.34668 103.374859 416.34668 104.426294 416.34668 105.704614 415.859698 106.814155 414.885742 107.754907 413.911787 108.69566 412.818848 109.16604 411.606934 109.16604 410.505694 109.16604 409.598145 108.806342 408.884277 108.086938 408.17041 107.367535 407.813477 106.482115 407.813477 105.43068zM420.422363 100.840332L419.227051 100.840332 417.492188 109 418.6875 109 419.617188 104.583984C419.78874 103.764971 420.160889 103.092608 420.733643 102.566895 421.306396 102.041181 421.955244 101.77832 422.680176 101.77832 423.233564 101.77832 423.68042 101.940186 424.020752 102.263916 424.361084 102.587646 424.53125 103.026202 424.53125 103.57959 424.53125 103.690264 424.509112 103.881182 424.464844 104.152344L423.443848 109 424.63916 109 425.651855 104.152344C425.712725 103.914385 425.743164 103.637695 425.743164 103.322266 425.743164 102.508789 425.483076 101.862714 424.962891 101.384033 424.442706 100.905352 423.756505 100.666016 422.904289 100.666016 422.572258 100.666016 422.248527 100.714434 421.933097 100.811279 421.617668 100.908124 421.363108 101.016035 421.169425 101.13501 420.975743 101.253985 420.79174 101.390948 420.617424 101.545898 420.443107 101.700849 420.32966 101.808759 420.277092 101.869629 420.224523 101.930499 420.187169 101.977539 420.165031 102.010742L420.422363 100.840332zM433.811523 101.77832L433.703613 101.653809C433.637207 101.587402 433.530683 101.49748 433.384033 101.384033 433.237383 101.270586 433.064453 101.159912 432.865234 101.052002 432.666016 100.944092 432.418378 100.852783 432.122314 100.778076 431.826251 100.703369 431.520508 100.666016 431.205078 100.666016 430.31413 100.666016 429.582275 100.919189 429.009521 101.425537 428.436768 101.931885 428.150391 102.536456 428.150391 103.239258 428.150391 103.715167 428.342695 104.117754 428.727295 104.447021 429.111895 104.776289 429.533849 105.014247 429.993156 105.160897 430.452463 105.307547 430.874417 105.499851 431.259017 105.737809 431.643617 105.975768 431.835921 106.257994 431.835921 106.584489 431.835921 107.027194 431.667141 107.384128 431.329574 107.65529 430.992006 107.926451 430.510561 108.062028 429.885238 108.062028 429.475735 108.062028 429.092513 107.958268 428.735579 107.750749 428.378646 107.543229 428.146224 107.375827 428.038314 107.248551 427.930404 107.121275 427.848782 107.013365 427.793441 106.924821L426.838851 107.721696 426.93846 107.879411C427.010403 107.97902 427.122464 108.099381 427.274642 108.240495 427.42682 108.381608 427.608051 108.521335 427.818335 108.659684 428.028619 108.798033 428.29978 108.917008 428.631812 109.016618 428.963843 109.116227 429.323541 109.166032 429.710913 109.166032 430.729145 109.166032 431.542622 108.908708 432.151343 108.394059 432.760064 107.879411 433.064429 107.220885 433.064429 106.418473 433.064429 105.931491 432.870747 105.517838 432.483374 105.177506 432.096002 104.837174 431.672662 104.593688 431.213355 104.447038 430.754047 104.300388 430.332094 104.10947 429.947494 103.874284 429.562893 103.639098 429.370589 103.369322 429.370589 103.064958 429.370589 102.716325 429.521389 102.414732 429.822982 102.160172 430.124574 101.905612 430.529926 101.778337 431.039038 101.778337 431.387671 101.778337 431.721088 101.851657 432.039282 101.998307 432.357476 102.144957 432.562232 102.263932 432.65354 102.355241 432.744849 102.446549 432.812641 102.51987 432.856909 102.575212L433.811523 101.77832z"/>
    <rect width="102" height="20" x="86" y="24" fill="url(#tr_blockchain_model-a)"/>
    <rect width="102" height="20" x="250" y="24" fill="url(#tr_blockchain_model-a)"/>
    <rect width="22" height="20" x="418" y="24" fill="url(#tr_blockchain_model-b)"/>
    <rect width="20" height="20" y="24" fill="url(#tr_blockchain_model-c)"/>
    <g transform="translate(20)">
      <use fill="#4F77FC" xlink:href="#tr_blockchain_model-d"/>
      <rect width="58" height="58" x="5" y="5" stroke="#EBECF0" stroke-width="10"/>
      <polygon fill="#4F77FC" points="72.5 29.5 79.5 38.5 65.5 38.5" transform="rotate(90 72.5 34)"/>
      <path fill="#4F77FC" d="M64.8213503,23.3682387 L66.6724245,23.3682387 L66.6724245,34.8985121 C58.2448529,35.9167413 55.6128542,35.5005629 58.7764284,33.649977 C61.9400026,31.799391 63.9549766,28.372145 64.8213503,23.3682387 Z" transform="rotate(90 62.077 29.404)"/>
      <path fill="#4F77FC" d="M64.8213503,32.3682387 L66.6724245,32.3682387 L66.6724245,43.8985121 C58.2448529,44.9167413 55.6128542,44.5005629 58.7764284,42.649977 C61.9400026,40.799391 63.9549766,37.372145 64.8213503,32.3682387 Z" transform="scale(1 -1) rotate(90 100.481 0)"/>
    </g>
    <g transform="translate(352)">
      <use fill="#4F77FC" xlink:href="#tr_blockchain_model-e"/>
      <rect width="58" height="58" x="5" y="5" stroke="#EBECF0" stroke-width="10"/>
      <polygon fill="#4F77FC" points="72.5 29.5 79.5 38.5 65.5 38.5" transform="rotate(90 72.5 34)"/>
      <path fill="#4F77FC" d="M64.8213503,23.3682387 L66.6724245,23.3682387 L66.6724245,34.8985121 C58.2448529,35.9167413 55.6128542,35.5005629 58.7764284,33.649977 C61.9400026,31.799391 63.9549766,28.372145 64.8213503,23.3682387 Z" transform="rotate(90 62.077 29.404)"/>
      <path fill="#4F77FC" d="M64.8213503,32.3682387 L66.6724245,32.3682387 L66.6724245,43.8985121 C58.2448529,44.9167413 55.6128542,44.5005629 58.7764284,42.649977 C61.9400026,40.799391 63.9549766,37.372145 64.8213503,32.3682387 Z" transform="scale(1 -1) rotate(90 100.481 0)"/>
    </g>
    <g transform="translate(188)">
      <use fill="#4F77FC" xlink:href="#tr_blockchain_model-f"/>
      <rect width="58" height="58" x="5" y="5" stroke="#EBECF0" stroke-width="10"/>
      <polygon fill="#4F77FC" points="72.5 29.5 79.5 38.5 65.5 38.5" transform="rotate(90 72.5 34)"/>
      <path fill="#4F77FC" d="M64.8213503,23.3682387 L66.6724245,23.3682387 L66.6724245,34.8985121 C58.2448529,35.9167413 55.6128542,35.5005629 58.7764284,33.649977 C61.9400026,31.799391 63.9549766,28.372145 64.8213503,23.3682387 Z" transform="rotate(90 62.077 29.404)"/>
      <path fill="#4F77FC" d="M64.8213503,32.3682387 L66.6724245,32.3682387 L66.6724245,43.8985121 C58.2448529,44.9167413 55.6128542,44.5005629 58.7764284,42.649977 C61.9400026,40.799391 63.9549766,37.372145 64.8213503,32.3682387 Z" transform="scale(1 -1) rotate(90 100.481 0)"/>
    </g>
    <g fill="#E0E1E6" transform="rotate(90 -8 27)">
      <rect width="2" height="2" y="8"/>
      <rect width="2" height="2" x="4" y="8"/>
      <rect width="2" height="2" x="8" y="8"/>
      <rect width="2" height="2" x="12" y="8"/>
      <rect width="2" height="2" x="16" y="8"/>
      <rect width="2" height="2" x="20" y="8"/>
      <rect width="2" height="2" x="24" y="8"/>
      <rect width="2" height="2" x="28" y="8"/>
      <rect width="2" height="2" x="32" y="8"/>
      <rect width="2" height="2" x="36" y="8"/>
      <rect width="2" height="2" x="40" y="8"/>
      <rect width="2" height="2" x="44" y="8"/>
      <rect width="2" height="2" x="48" y="8"/>
      <rect width="2" height="2" x="52" y="8"/>
      <rect width="2" height="2" x="56" y="8"/>
      <rect width="2" height="2" x="60" y="8"/>
      <rect width="2" height="2" x="64" y="8"/>
      <rect width="2" height="2" x="68" y="8"/>
      <rect width="2" height="2" x="68" y="4"/>
      <rect width="2" height="2" x="68"/>
    </g>
    <g fill="#E0E1E6" transform="rotate(90 77.5 145.5)">
      <rect width="2" height="2"/>
      <rect width="2" height="2" x="4"/>
      <rect width="2" height="2" x="8"/>
      <rect width="2" height="2" x="12"/>
      <rect width="2" height="2" x="16"/>
      <rect width="2" height="2" x="20"/>
    </g>
    <circle cx="10" cy="34" r="3" fill="#FFF"/>
    <circle cx="222" cy="65" r="3" fill="#FFF"/>
    <g fill="#E0E1E6" transform="rotate(90 174.5 212.5)">
      <rect width="2" height="2"/>
      <rect width="2" height="2" x="4"/>
      <rect width="2" height="2" x="8"/>
      <rect width="2" height="2" x="12"/>
      <rect width="2" height="2" x="16"/>
      <rect width="2" height="2" x="20"/>
      <rect width="2" height="2" x="24"/>
      <rect width="2" height="2" x="28"/>
      <rect width="2" height="2" x="32"/>
      <rect width="2" height="2" x="36"/>
      <rect width="2" height="2" x="40"/>
      <rect width="2" height="2" x="44"/>
      <rect width="2" height="2" x="48"/>
      <rect width="2" height="2" x="52"/>
    </g>
    <circle cx="386" cy="35" r="3" fill="#FFF"/>
  </g>
</svg>
