<svg xmlns="http://www.w3.org/2000/svg" width="100%" viewBox="0 0 313 130">
  <g fill="#FFF" fill-rule="evenodd">
    <path d="M7.462 116.675L11.899 116.675C14.194 116.675 16.234 117.27 16.234 119.718 16.234 120.891 15.724 121.945 14.874 122.438 16.047 122.931 16.744 123.849 16.744 125.362 16.744 127.98 14.789 129 12.324 129L7.462 129 7.462 116.675zM9.196 121.945L12.171 121.945C13.582 121.945 14.483 121.401 14.483 119.956 14.483 118.698 13.548 118.137 12.171 118.137L9.196 118.137 9.196 121.945zM9.196 127.538L12.341 127.538C14.092 127.538 14.959 126.773 14.959 125.379 14.959 123.934 14.092 123.322 12.239 123.322L9.196 123.322 9.196 127.538zM21.436 118.171L17.424 118.171 17.424 116.675 27.182 116.675 27.182 118.171 23.17 118.171 23.17 129 21.436 129 21.436 118.171zM38.98 125.073C38.436 127.793 36.311 129.221 33.642 129.221 30.106 129.221 28.049 126.569 28.049 122.812 28.049 118.987 30.293 116.454 33.778 116.454 36.328 116.454 38.385 117.967 38.912 120.602L37.229 120.602C36.855 119.072 35.665 117.916 33.693 117.916 31.517 117.916 29.817 119.616 29.817 122.812 29.817 125.923 31.449 127.759 33.744 127.759 35.699 127.759 36.906 126.654 37.297 125.073L38.98 125.073zM104.462 116.675L112.826 116.675 112.826 118.171 106.196 118.171 106.196 121.911 112.435 121.911 112.435 123.407 106.196 123.407 106.196 127.504 112.826 127.504 112.826 129 104.462 129 104.462 116.675zM117.433 118.171L113.421 118.171 113.421 116.675 123.179 116.675 123.179 118.171 119.167 118.171 119.167 129 117.433 129 117.433 118.171zM134.586 116.675L134.586 129 132.852 129 132.852 123.407 126.375 123.407 126.375 129 124.641 129 124.641 116.675 126.375 116.675 126.375 121.911 132.852 121.911 132.852 116.675 134.586 116.675zM235.305 127.028L237.583 116.675 239.402 116.675 236.325 129 234.217 129 231.837 118.868 229.508 129 227.4 129 224.272 116.675 226.176 116.675 228.556 127.028 230.834 116.675 232.874 116.675 235.305 127.028zM244.247 116.675L246.253 116.675 250.894 129 249.024 129 248.055 126.331 242.394 126.331 241.442 129 239.674 129 244.247 116.675zM242.921 124.852L247.511 124.852 245.199 118.426 242.921 124.852zM252.985 116.675L256.402 127.215 259.751 116.675 261.57 116.675 257.388 129 255.314 129 251.081 116.675 252.985 116.675zM263.202 116.675L271.566 116.675 271.566 118.171 264.936 118.171 264.936 121.911 271.175 121.911 271.175 123.407 264.936 123.407 264.936 127.504 271.566 127.504 271.566 129 263.202 129 263.202 116.675zM277.567 116.454C279.777 116.454 281.766 117.44 282.242 119.82L280.559 119.82C280.134 118.392 278.74 117.916 277.499 117.916 276.547 117.916 274.881 118.341 274.881 119.718 274.881 120.806 275.748 121.35 276.887 121.605L278.315 121.928C280.202 122.336 282.463 123.05 282.463 125.532 282.463 127.946 280.219 129.221 277.771 129.221 274.864 129.221 273.028 127.64 272.705 125.175L274.405 125.175C274.728 126.875 275.918 127.759 277.805 127.759 279.624 127.759 280.678 126.892 280.678 125.685 280.678 124.393 279.573 123.849 278.026 123.509L276.496 123.186C274.813 122.812 273.113 121.877 273.113 119.82 273.113 117.474 275.578 116.454 277.567 116.454z"/>
    <g transform="translate(0 85)">
      <circle cx="5.5" cy="5.5" r="5.5"/>
      <circle cx="23.5" cy="5.5" r="5.5"/>
      <circle cx="41.5" cy="5.5" r="5.5"/>
    </g>
    <circle cx="102.5" cy="90.5" r="5.5"/>
    <circle cx="120.5" cy="90.5" r="5.5"/>
    <circle cx="138.5" cy="90.5" r="5.5"/>
    <circle cx="102.5" cy="73.5" r="5.5"/>
    <circle cx="120.5" cy="73.5" r="5.5"/>
    <circle cx="199.5" cy="90.5" r="5.5"/>
    <circle cx="217.5" cy="90.5" r="5.5"/>
    <circle cx="235.5" cy="90.5" r="5.5"/>
    <circle cx="253.5" cy="90.5" r="5.5"/>
    <circle cx="271.5" cy="90.5" r="5.5"/>
    <circle cx="199.5" cy="73.5" r="5.5"/>
    <circle cx="217.5" cy="73.5" r="5.5"/>
    <circle cx="235.5" cy="73.5" r="5.5"/>
    <circle cx="253.5" cy="73.5" r="5.5"/>
    <circle cx="271.5" cy="73.5" r="5.5"/>
    <circle cx="199.5" cy="56.5" r="5.5"/>
    <circle cx="217.5" cy="56.5" r="5.5"/>
    <circle cx="235.5" cy="56.5" r="5.5"/>
    <circle cx="253.5" cy="56.5" r="5.5"/>
    <circle cx="271.5" cy="56.5" r="5.5"/>
    <circle cx="199.5" cy="39.5" r="5.5"/>
    <circle cx="217.5" cy="39.5" r="5.5"/>
    <circle cx="235.5" cy="39.5" r="5.5"/>
    <circle cx="253.5" cy="39.5" r="5.5"/>
    <circle cx="271.5" cy="39.5" r="5.5"/>
    <circle cx="199.5" cy="22.5" r="5.5"/>
    <circle cx="217.5" cy="22.5" r="5.5"/>
    <circle cx="235.5" cy="22.5" r="5.5"/>
    <circle cx="253.5" cy="22.5" r="5.5"/>
    <circle cx="271.5" cy="22.5" r="5.5"/>
    <circle cx="289.5" cy="90.5" r="5.5"/>
    <circle cx="307.5" cy="90.5" r="5.5"/>
    <circle cx="289.5" cy="73.5" r="5.5"/>
    <circle cx="307.5" cy="73.5" r="5.5"/>
    <circle cx="289.5" cy="56.5" r="5.5"/>
    <circle cx="307.5" cy="56.5" r="5.5"/>
    <circle cx="289.5" cy="39.5" r="5.5"/>
    <circle cx="307.5" cy="39.5" r="5.5"/>
    <circle cx="289.5" cy="22.5" r="5.5"/>
    <circle cx="307.5" cy="22.5" r="5.5"/>
    <circle cx="199.5" cy="5.5" r="5.5"/>
    <circle cx="217.5" cy="5.5" r="5.5"/>
    <circle cx="235.5" cy="5.5" r="5.5"/>
    <circle cx="253.5" cy="5.5" r="5.5"/>
    <circle cx="271.5" cy="5.5" r="5.5"/>
    <circle cx="289.5" cy="5.5" r="5.5"/>
    <circle cx="307.5" cy="5.5" r="5.5"/>
  </g>
</svg>
