<svg xmlns="http://www.w3.org/2000/svg" width="87" height="87" viewBox="0 0 87 87">
  <g fill="none" fill-rule="evenodd">
    <path fill="#C0EFF8" d="M87,43.5 C87,67.524 67.524,87 43.5,87 C19.476,87 0,67.524 0,43.5 C0,19.476 19.476,0 43.5,0 C67.524,0 87,19.476 87,43.5"/>
    <path fill="#4F89DC" d="M60,64 L27,64 C24.8,64 23,62.2 23,60 L23,27 C23,24.8 24.8,23 27,23 L60,23 C62.2,23 64,24.8 64,27 L64,60 C64,62.2 62.2,64 60,64"/>
    <path fill="#0044BA" d="M64 49.917L64 60C64 62.2 62.2 64 60 64L27 64M54.5 46.5C54.5 47.604 53.604 48.5 52.5 48.5 51.396 48.5 50.5 47.604 50.5 46.5 50.5 45.396 51.396 44.5 52.5 44.5 53.604 44.5 54.5 45.396 54.5 46.5M54.5 38.5C54.5 39.604 53.604 40.5 52.5 40.5 51.396 40.5 50.5 39.604 50.5 38.5 50.5 37.396 51.396 36.5 52.5 36.5 53.604 36.5 54.5 37.396 54.5 38.5M59.5 33.5C59.5 34.604 58.604 35.5 57.5 35.5 56.396 35.5 55.5 34.604 55.5 33.5 55.5 32.396 56.396 31.5 57.5 31.5 58.604 31.5 59.5 32.396 59.5 33.5"/>
    <path fill="#C0EFF8" fill-rule="nonzero" d="M31.5606602,48.5606602 L45.0606602,35.0606602 C45.6464466,34.4748737 45.6464466,33.5251263 45.0606602,32.9393398 C44.4748737,32.3535534 43.5251263,32.3535534 42.9393398,32.9393398 L29.4393398,46.4393398 C28.8535534,47.0251263 28.8535534,47.9748737 29.4393398,48.5606602 C30.0251263,49.1464466 30.9748737,49.1464466 31.5606602,48.5606602 Z"/>
    <path fill="#C0EFF8" fill-rule="nonzero" d="M47.5,43 C47.5,36.0915729 41.9084271,30.5 35,30.5 C34.1715729,30.5 33.5,31.1715729 33.5,32 C33.5,32.8284271 34.1715729,33.5 35,33.5 C40.2515729,33.5 44.5,37.7484271 44.5,43 C44.5,43.8284271 45.1715729,44.5 46,44.5 C46.8284271,44.5 47.5,43.8284271 47.5,43 Z"/>
  </g>
</svg>
