<svg xmlns="http://www.w3.org/2000/svg" width="87" height="87" viewBox="0 0 87 87">
  <g fill="none" fill-rule="evenodd">
    <path fill="#C0EFF8" d="M87,43.5 C87,67.524 67.524,87 43.5,87 C19.476,87 0,67.524 0,43.5 C0,19.476 19.476,0 43.5,0 C67.524,0 87,19.476 87,43.5"/>
    <path fill="#4F89DC" d="M43.5,21.5 C31.35,21.5 21.5,31.35 21.5,43.5 C21.5,55.65 31.35,65.5 43.5,65.5 C55.65,65.5 65.5,55.65 65.5,43.5 L43.5,43.5 L43.5,21.5 Z"/>
    <path fill="#0044BA" d="M43.5,21.5 L43.5,43.5 L65.5,43.5 C65.5,31.35 55.65,21.5 43.5,21.5"/>
    <path fill="#C0EFF8" d="M34.5 46.5C34.5 47.604 33.604 48.5 32.5 48.5 31.396 48.5 30.5 47.604 30.5 46.5 30.5 45.396 31.396 44.5 32.5 44.5 33.604 44.5 34.5 45.396 34.5 46.5M41.5 53.5C41.5 54.604 40.604 55.5 39.5 55.5 38.396 55.5 37.5 54.604 37.5 53.5 37.5 52.396 38.396 51.5 39.5 51.5 40.604 51.5 41.5 52.396 41.5 53.5"/>
    <path fill="#C0EFF8" fill-rule="nonzero" d="M38.4393398,45.4393398 L31.4393398,52.4393398 C30.8535534,53.0251263 30.8535534,53.9748737 31.4393398,54.5606602 C32.0251263,55.1464466 32.9748737,55.1464466 33.5606602,54.5606602 L40.5606602,47.5606602 C41.1464466,46.9748737 41.1464466,46.0251263 40.5606602,45.4393398 C39.9748737,44.8535534 39.0251263,44.8535534 38.4393398,45.4393398 Z"/>
  </g>
</svg>
