<svg xmlns="http://www.w3.org/2000/svg" width="87" height="87" viewBox="0 0 87 87">
  <g fill="none" fill-rule="evenodd">
    <path fill="#C0EFF8" d="M87,43.5 C87,67.524 67.524,87 43.5,87 C19.476,87 0,67.524 0,43.5 C0,19.476 19.476,0 43.5,0 C67.524,0 87,19.476 87,43.5"/>
    <path fill="#A2E0F5" d="M45,43.5 C45,44.329 44.329,45 43.5,45 C42.671,45 42,44.329 42,43.5 C42,42.671 42.671,42 43.5,42 C44.329,42 45,42.671 45,43.5"/>
    <path fill="#4F89DC" d="M25.1079,26.54 C24.1739,26.726 23.4999,27.546 23.4999,28.5 L23.4999,35.866 C23.4999,44.548 26.8799,52.71 33.0199,58.848 L42.0859,67.914 C42.4759,68.304 42.9879,68.5 43.4999,68.5 C44.0119,68.5 44.5249,68.304 44.9139,67.914 L53.9809,58.848 C60.1199,52.71 63.4999,44.548 63.4999,35.866 L63.4999,28.5 C63.4999,27.546 62.8259,26.726 61.8919,26.54 L60.6619,26.292 C55.0139,25.164 49.5419,23.286 44.3939,20.71 C43.8319,20.43 43.1679,20.43 42.6059,20.71 C37.4579,23.286 31.9859,25.164 26.3379,26.292 L25.1079,26.54"/>
    <path fill="#0044BA" d="M60.3271 49.9131C62.4041 45.5841 63.5001 40.8091 63.5001 35.8661L63.5001 28.5001C63.5001 27.5461 62.8261 26.7261 61.8911 26.5401L60.6621 26.2921C55.0141 25.1641 49.5421 23.2861 44.3941 20.7101 43.8321 20.4301 43.1681 20.4301 42.6061 20.7101M45.5 31.5C45.5 32.604 44.604 33.5 43.5 33.5 42.396 33.5 41.5 32.604 41.5 31.5 41.5 30.396 42.396 29.5 43.5 29.5 44.604 29.5 45.5 30.396 45.5 31.5M45.5 47.5C45.5 48.604 44.604 49.5 43.5 49.5 42.396 49.5 41.5 48.604 41.5 47.5 41.5 46.396 42.396 45.5 43.5 45.5 44.604 45.5 45.5 46.396 45.5 47.5"/>
    <path fill="#C0EFF8" d="M45.5 39.5C45.5 40.604 44.604 41.5 43.5 41.5 42.396 41.5 41.5 40.604 41.5 39.5 41.5 38.396 42.396 37.5 43.5 37.5 44.604 37.5 45.5 38.396 45.5 39.5M38.5 47.5C38.5 48.604 37.604 49.5 36.5 49.5 35.396 49.5 34.5 48.604 34.5 47.5 34.5 46.396 35.396 45.5 36.5 45.5 37.604 45.5 38.5 46.396 38.5 47.5"/>
    <path fill="#0044BA" d="M38.5,39.5 C38.5,40.604 37.604,41.5 36.5,41.5 C35.396,41.5 34.5,40.604 34.5,39.5 C34.5,38.396 35.396,37.5 36.5,37.5 C37.604,37.5 38.5,38.396 38.5,39.5"/>
    <path fill="#C0EFF8" d="M45.5,55.5 C45.5,56.604 44.604,57.5 43.5,57.5 C42.396,57.5 41.5,56.604 41.5,55.5 C41.5,54.396 42.396,53.5 43.5,53.5 C44.604,53.5 45.5,54.396 45.5,55.5"/>
  </g>
</svg>
