<svg xmlns="http://www.w3.org/2000/svg" width="87" height="87" viewBox="0 0 87 87">
  <g fill="none" fill-rule="evenodd">
    <path fill="#C0EFF8" d="M43.5,87 C19.476,87 0,67.524 0,43.5 C0,19.476 19.476,0 43.5,0 C67.524,0 87,19.476 87,43.5 C87,67.524 67.524,87 43.5,87 Z"/>
    <path fill="#4F89DC" d="M43.5,21.5 C31.35,21.5 21.5,31.35 21.5,43.5 C21.5,55.65 31.35,65.5 43.5,65.5 C55.65,65.5 65.5,55.65 65.5,43.5 L43.5,43.5 L43.5,21.5 Z"/>
    <path fill="#0044BA" d="M43.5 21.5L43.5 43.5 65.5 43.5C65.5 31.35 55.65 21.5 43.5 21.5M43.5 65.5L43.5 43.5 65.5 43.5C65.5 55.65 55.65 65.5 43.5 65.5"/>
    <path fill="#C0EFF8" fill-rule="nonzero" d="M40.3549 49.4755C39.0185427 49.4755 38.3492925 51.0912129 39.2942398 52.0361602L43.0962398 55.8381602C43.6820263 56.4239466 44.6317737 56.4239466 45.2175602 55.8381602 45.8033466 55.2523737 45.8033466 54.3026263 45.2175602 53.7168398L43.9762203 52.4755 51.4189 52.4755C52.2473271 52.4755 52.9189 51.8039271 52.9189 50.9755L52.9189 35.8755C52.9189 35.0470729 52.2473271 34.3755 51.4189 34.3755 50.5904729 34.3755 49.9189 35.0470729 49.9189 35.8755L49.9189 49.4755 40.3549 49.4755zM37.0811 37.3756L46.2561 37.3756C47.5925563 37.3756 48.2617616 35.7596826 47.316615 34.8147947L43.662615 31.1617947C43.0767484 30.5760884 42.1270009 30.5762184 41.5412947 31.162085 40.9555884 31.7479516 40.9557184 32.6976991 41.541585 33.2834053L42.6340787 34.3756 35.5811 34.3756C34.7526729 34.3756 34.0811 35.0471729 34.0811 35.8756L34.0811 50.9756C34.0811 51.8040271 34.7526729 52.4756 35.5811 52.4756 36.4095271 52.4756 37.0811 51.8040271 37.0811 50.9756L37.0811 37.3756z"/>
  </g>
</svg>
