<svg xmlns="http://www.w3.org/2000/svg" width="87" height="87" viewBox="0 0 87 87">
  <g fill="none" fill-rule="evenodd">
    <path fill="#C0EFF8" d="M87,43.5 C87,67.524 67.524,87 43.5,87 C19.476,87 0,67.524 0,43.5 C0,19.476 19.476,0 43.5,0 C67.524,0 87,19.476 87,43.5"/>
    <path fill="#4F89DC" d="M62.5,61 L24.5,61 C22.3,61 20.5,59.2 20.5,57 L20.5,30 C20.5,27.8 22.3,26 24.5,26 L62.5,26 C64.7,26 66.5,27.8 66.5,30 L66.5,57 C66.5,59.2 64.7,61 62.5,61"/>
    <path fill="#0044BA" d="M58.125,61 L24.5,61 C22.3,61 20.5,59.2 20.5,57 L20.5,48"/>
    <path fill="#C0EFF8" d="M61.5,43.5 C61.5,44.604 60.604,45.5 59.5,45.5 C58.396,45.5 57.5,44.604 57.5,43.5 C57.5,42.396 58.396,41.5 59.5,41.5 C60.604,41.5 61.5,42.396 61.5,43.5"/>
    <path fill="#C0EFF8" fill-rule="nonzero" d="M66.5,48 C67.8715729,48 69,46.8715729 69,45.5 L69,41.5 C69,40.1284271 67.8715729,39 66.5,39 L56.5,39 C55.1284271,39 54,40.1284271 54,41.5 L54,45.5 C54,46.8715729 55.1284271,48 56.5,48 L66.5,48 Z M66.5,51 L56.5,51 C53.4715729,51 51,48.5284271 51,45.5 L51,41.5 C51,38.4715729 53.4715729,36 56.5,36 L66.5,36 C69.5284271,36 72,38.4715729 72,41.5 L72,45.5 C72,48.5284271 69.5284271,51 66.5,51 Z"/>
  </g>
</svg>
