<svg xmlns="http://www.w3.org/2000/svg" xmlns:xlink="http://www.w3.org/1999/xlink" width="100%" height="100%" viewBox="0 0 1200 700">
  <defs>
    <path id="1_index_image-b" d="M28.4641944,0 L204.382521,0 C220.102861,0 232.846715,12.7170659 232.846715,28.4011078 L232.846715,454.153637 C232.846715,469.839135 220.100251,482.554745 204.382521,482.554745 L28.4641944,482.554745 C12.7438539,482.554745 0,469.837679 0,454.153637 L0,28.4011078 C0,12.7156091 12.7464642,0 28.4641944,0 Z"/>
    <filter id="1_index_image-a" width="122.3%" height="110.8%" x="-11.2%" y="-3.9%" filterUnits="objectBoundingBox">
      <feOffset dy="7" in="SourceAlpha" result="shadowOffsetOuter1"/>
      <feGaussianBlur in="shadowOffsetOuter1" result="shadowBlurOuter1" stdDeviation="7.5"/>
      <feColorMatrix in="shadowBlurOuter1" values="0 0 0 0 0.0901960784   0 0 0 0 0.160784314   0 0 0 0 0.278431373  0 0 0 0.15 0"/>
    </filter>
    <filter id="1_index_image-c" width="134.4%" height="116.6%" x="-17.2%" y="-6.8%" filterUnits="objectBoundingBox">
      <feGaussianBlur in="SourceAlpha" result="shadowBlurInner1" stdDeviation="15"/>
      <feOffset dy="-20" in="shadowBlurInner1" result="shadowOffsetInner1"/>
      <feComposite in="shadowOffsetInner1" in2="SourceAlpha" k2="-1" k3="1" operator="arithmetic" result="shadowInnerInner1"/>
      <feColorMatrix in="shadowInnerInner1" result="shadowMatrixInner1" values="0 0 0 0 0.960784314   0 0 0 0 0.976470588   0 0 0 0 1  0 0 0 0 0"/>
      <feGaussianBlur in="SourceAlpha" result="shadowBlurInner2" stdDeviation="1.5"/>
      <feOffset dy="1" in="shadowBlurInner2" result="shadowOffsetInner2"/>
      <feComposite in="shadowOffsetInner2" in2="SourceAlpha" k2="-1" k3="1" operator="arithmetic" result="shadowInnerInner2"/>
      <feColorMatrix in="shadowInnerInner2" result="shadowMatrixInner2" values="0 0 0 0 0.450382734   0 0 0 0 0.684886101   0 0 0 0 1  0 0 0 0.2 0"/>
      <feMerge>
        <feMergeNode in="shadowMatrixInner1"/>
        <feMergeNode in="shadowMatrixInner2"/>
      </feMerge>
    </filter>
    <linearGradient id="1_index_image-d" x1="50%" x2="50%" y1="0%" y2="100%">
      <stop offset="0%" stop-color="#EFF2F7"/>
      <stop offset="100%" stop-color="#FFF"/>
    </linearGradient>
    <linearGradient id="1_index_image-e" x1="50%" x2="50%" y1="0%" y2="100%">
      <stop offset="0%" stop-color="#E5EDFC"/>
      <stop offset="100%" stop-color="#FFF"/>
    </linearGradient>
    <linearGradient id="1_index_image-f" x1="50%" x2="50%" y1="0%" y2="100%">
      <stop offset="0%" stop-color="#F3F4F6"/>
      <stop offset="100%" stop-color="#FFF"/>
    </linearGradient>
    <path id="1_index_image-h" d="M28.4224329,0 L806.27244,0 C821.969716,0 834.694873,12.7266141 834.694873,28.4224318 L834.694873,542.815791 C834.694873,558.513067 821.96711,571.238223 806.27244,571.238223 L28.4224329,571.238223 C12.7251567,571.238223 0,558.511609 0,542.815791 L0,28.4224318 C0,12.7251562 12.7277631,0 28.4224329,0 Z"/>
    <filter id="1_index_image-g" width="106.2%" height="109.1%" x="-3.1%" y="-3.3%" filterUnits="objectBoundingBox">
      <feOffset dy="7" in="SourceAlpha" result="shadowOffsetOuter1"/>
      <feGaussianBlur in="shadowOffsetOuter1" result="shadowBlurOuter1" stdDeviation="7.5"/>
      <feColorMatrix in="shadowBlurOuter1" values="0 0 0 0 0.0901960784   0 0 0 0 0.160784314   0 0 0 0 0.278431373  0 0 0 0.14 0"/>
    </filter>
    <filter id="1_index_image-i" width="109.6%" height="114%" x="-4.8%" y="-5.8%" filterUnits="objectBoundingBox">
      <feGaussianBlur in="SourceAlpha" result="shadowBlurInner1" stdDeviation="15"/>
      <feOffset dy="-20" in="shadowBlurInner1" result="shadowOffsetInner1"/>
      <feComposite in="shadowOffsetInner1" in2="SourceAlpha" k2="-1" k3="1" operator="arithmetic" result="shadowInnerInner1"/>
      <feColorMatrix in="shadowInnerInner1" result="shadowMatrixInner1" values="0 0 0 0 0.960784314   0 0 0 0 0.976470588   0 0 0 0 1  0 0 0 0 0"/>
      <feGaussianBlur in="SourceAlpha" result="shadowBlurInner2" stdDeviation="1.5"/>
      <feOffset dy="1" in="shadowBlurInner2" result="shadowOffsetInner2"/>
      <feComposite in="shadowOffsetInner2" in2="SourceAlpha" k2="-1" k3="1" operator="arithmetic" result="shadowInnerInner2"/>
      <feColorMatrix in="shadowInnerInner2" result="shadowMatrixInner2" values="0 0 0 0 0.450382734   0 0 0 0 0.684886101   0 0 0 0 1  0 0 0 0.2 0"/>
      <feMerge>
        <feMergeNode in="shadowMatrixInner1"/>
        <feMergeNode in="shadowMatrixInner2"/>
      </feMerge>
    </filter>
  </defs>
  <g fill="none" fill-rule="evenodd" transform="rotate(-5 1105.979 -388.882)">
    <g transform="translate(.856 89.324)">
      <use fill="#000" filter="url(#1_index_image-a)" xlink:href="#1_index_image-b"/>
      <use fill="#FFF" xlink:href="#1_index_image-b"/>
      <use fill="#000" filter="url(#1_index_image-c)" xlink:href="#1_index_image-b"/>
      <circle cx="116.423" cy="457.664" r="16.861" fill="url(#1_index_image-d)" style="mix-blend-mode:multiply"/>
      <rect width="44.964" height="4.015" x="93.942" y="23.285" fill="url(#1_index_image-e)" rx="2.007" style="mix-blend-mode:multiply"/>
      <path fill="url(#1_index_image-f)" d="M74.270073,27.2992701 C75.3786738,27.2992701 76.2773723,26.4005716 76.2773723,25.2919708 C76.2773723,24.18337 75.3786738,23.2846715 74.270073,23.2846715 C73.1614722,23.2846715 72.2627737,24.18337 72.2627737,25.2919708 C72.2627737,26.4005716 73.1614722,27.2992701 74.270073,27.2992701 Z" style="mix-blend-mode:multiply"/>
      <path fill="#263F6F" d="M23.8759124,378.175182 L208.167883,378.175182 L208.167883,378.175182 C209.824737,378.175182 211.167883,379.518328 211.167883,381.175182 L211.167883,407.291971 L211.167883,407.291971 C211.167883,408.948825 209.824737,410.291971 208.167883,410.291971 L23.8759124,410.291971 L23.8759124,410.291971 C22.2190582,410.291971 20.8759124,408.948825 20.8759124,407.291971 L20.8759124,381.175182 L20.8759124,381.175182 C20.8759124,379.518328 22.2190582,378.175182 23.8759124,378.175182 Z" opacity=".24"/>
      <circle cx="46.041" cy="394.741" r="8.15" fill="#FFF" opacity=".4"/>
      <circle cx="92.275" cy="394.741" r="8.15" fill="#FFF" opacity=".4"/>
      <circle cx="138.275" cy="394.741" r="8.15" fill="#FFF" opacity=".4"/>
      <circle cx="185.275" cy="394.741" r="8.15" fill="#FFF"/>
      <path fill="#4A90E2" d="M55.9927007,321.167883 L176.051095,321.167883 L176.051095,321.167883 C177.707949,321.167883 179.051095,322.511029 179.051095,324.167883 L179.051095,342.255474 L179.051095,342.255474 C179.051095,343.912329 177.707949,345.255474 176.051095,345.255474 L55.9927007,345.255474 L55.9927007,345.255474 C54.3358465,345.255474 52.9927007,343.912329 52.9927007,342.255474 L52.9927007,324.167883 L52.9927007,324.167883 C52.9927007,322.511029 54.3358465,321.167883 55.9927007,321.167883 Z"/>
      <path stroke="#263F6F" stroke-linecap="round" stroke-width="6" d="M23.5328467,179.927007 L67.832846,179.927007" opacity=".4"/>
      <path stroke="#DFE4EE" stroke-linecap="round" stroke-width="6" d="M174.532847,179.927007 L206.832846,179.927007"/>
      <path stroke="#FFF" stroke-linecap="round" stroke-width="3" d="M85.6398933,333.499918 L148.566549,333.500082" opacity=".3"/>
      <path fill="#DFE4EE" d="M21.2773723,195.109489 L210.766423,195.109489 L210.766423,195.109489 C210.988144,195.109489 211.167883,195.289229 211.167883,195.510949 L211.167883,195.510949 L211.167883,195.510949 C211.167883,195.732669 210.988144,195.912409 210.766423,195.912409 L21.2773723,195.912409 L21.2773723,195.912409 C21.0556521,195.912409 20.8759124,195.732669 20.8759124,195.510949 L20.8759124,195.510949 L20.8759124,195.510949 C20.8759124,195.289229 21.0556521,195.109489 21.2773723,195.109489 Z"/>
      <path fill="#263F6F" d="M23.8759124,75.4744526 L208.167883,75.4744526 L208.167883,75.4744526 C209.824737,75.4744526 211.167883,76.8175983 211.167883,78.4744526 L211.167883,160.79562 L211.167883,160.79562 C211.167883,162.452475 209.824737,163.79562 208.167883,163.79562 L23.8759124,163.79562 L23.8759124,163.79562 C22.2190582,163.79562 20.8759124,162.452475 20.8759124,160.79562 L20.8759124,78.4744526 L20.8759124,78.4744526 C20.8759124,76.8175983 22.2190582,75.4744526 23.8759124,75.4744526 Z" opacity=".8"/>
      <g fill="#263F6F" transform="translate(77.08 218.97)">
        <polygon points="0 31.314 0 34.526 0 37.737 0 40.949 3.212 40.949 3.212 37.737 3.212 34.526 3.212 31.314"/>
        <path d="M0,0 L0,3.21183942 L0,6.42335766 L0,9.6350365 L0,12.8467153 L0,16.0585547 L0,19.2702336 L0,22.4817518 L3.21167883,22.4817518 L6.42335766,22.4817518 L9.6350365,22.4817518 L12.8467153,22.4817518 L16.0583942,22.4817518 L19.270073,22.4817518 L22.4817518,22.4817518 L22.4817518,19.2702336 L22.4817518,16.0585547 L22.4817518,12.8467153 L22.4817518,9.6350365 L22.4817518,6.42335766 L22.4817518,3.21183942 L22.4817518,0 L0,0 Z M3.21167883,16.0585547 L3.21167883,12.8467153 L3.21167883,9.6350365 L3.21167883,6.42335766 L3.21167883,3.21183942 L6.42335766,3.21183942 L9.6350365,3.21183942 L12.8467153,3.21183942 L16.0583942,3.21183942 L19.270073,3.21183942 L19.270073,6.42335766 L19.270073,9.6350365 L19.270073,12.8467153 L19.270073,16.0585547 L19.270073,19.2702336 L16.0583942,19.2702336 L12.8467153,19.2702336 L9.6350365,19.2702336 L6.42335766,19.2702336 L3.21167883,19.2702336 L3.21167883,16.0585547 Z"/>
        <polygon points="3.212 47.372 3.212 50.584 3.212 53.796 6.423 53.796 6.423 50.584 6.423 47.372 6.423 44.161 3.212 44.161"/>
        <polygon points="9.635 31.314 6.423 31.314 6.423 34.526 6.423 37.737 9.635 37.737 12.847 37.737 12.847 34.526 9.635 34.526"/>
        <polygon points="6.423 44.161 9.635 44.161 9.635 40.949 6.423 40.949"/>
        <polygon points="12.847 16.058 16.058 16.058 16.058 12.847 16.058 9.635 16.058 6.423 12.847 6.423 9.635 6.423 6.423 6.423 6.423 9.635 6.423 12.847 6.423 16.058 9.635 16.058"/>
        <polygon points="9.635 50.584 12.847 50.584 12.847 47.372 16.058 47.372 16.058 44.161 12.847 44.161 9.635 44.161 9.635 47.372"/>
        <polygon points="9.635 63.431 6.423 63.431 6.423 66.642 6.423 69.854 6.423 73.066 9.635 73.066 12.847 73.066 16.058 73.066 16.058 69.854 16.058 66.642 16.058 63.431 12.847 63.431"/>
        <polygon points="12.847 41.752 16.058 41.752 16.058 38.54 12.847 38.54"/>
        <polygon points="12.311 25.693 9.234 25.693 6.156 25.693 3.078 25.693 0 25.693 0 28.905 3.078 28.905 6.156 28.905 9.234 28.905 12.311 28.905 12.311 32.117 12.311 35.328 15.389 35.328 15.389 32.117 18.467 32.117 18.467 28.905 15.389 28.905 15.389 25.693"/>
        <polygon points="16.058 50.584 16.058 53.796 19.27 53.796 22.482 53.796 22.482 50.584 19.27 50.584"/>
        <path d="M19.2699354,57.0072993 L16.0582795,57.0072993 L12.8466236,57.0072993 L9.63512826,57.0072993 L6.42331178,57.0072993 L3.21165589,57.0072993 L0,57.0072993 L0,60.2191387 L0,63.4306569 L0,66.6423358 L0,69.8540146 L0,73.065854 L0,76.2775328 L0,79.4890511 L3.21165589,79.4890511 L6.42331178,79.4890511 L9.63512826,79.4890511 L12.8466236,79.4890511 L16.0582795,79.4890511 L19.2699354,79.4890511 L22.4817518,79.4890511 L22.4817518,76.2775328 L22.4817518,73.065854 L22.4817518,69.8540146 L22.4817518,66.6423358 L22.4817518,63.4306569 L22.4817518,60.2191387 L22.4817518,57.0072993 L19.2699354,57.0072993 Z M3.21165589,73.065854 L3.21165589,69.8540146 L3.21165589,66.6423358 L3.21165589,63.4306569 L3.21165589,60.2191387 L6.42331178,60.2191387 L9.63512826,60.2191387 L12.8466236,60.2191387 L16.0582795,60.2191387 L19.2699354,60.2191387 L19.2699354,63.4306569 L19.2699354,66.6423358 L19.2699354,69.8540146 L19.2699354,73.065854 L19.2699354,76.2775328 L16.0582795,76.2775328 L12.8466236,76.2775328 L9.63512826,76.2775328 L6.42331178,76.2775328 L3.21165589,76.2775328 L3.21165589,73.065854 Z"/>
        <polygon points="18.467 34.526 21.679 34.526 21.679 31.314 18.467 31.314"/>
        <polygon points="18.467 41.752 21.679 41.752 21.679 38.54 18.467 38.54"/>
        <polygon points="28.905 19.27 28.905 16.058 25.693 16.058 25.693 19.27 25.693 22.482 28.905 22.482"/>
        <polygon points="28.102 53.26 28.102 50.182 31.314 50.182 31.314 47.105 31.314 44.027 28.102 44.027 24.891 44.027 24.891 40.949 21.679 40.949 21.679 44.027 18.467 44.027 18.467 47.105 21.679 47.105 24.891 47.105 24.891 50.182 24.891 53.26 24.891 56.338 24.891 59.416 28.102 59.416 28.102 56.338"/>
        <polygon points="31.314 16.058 31.314 19.27 31.314 22.482 34.526 22.482 34.526 19.27 34.526 16.058 34.526 12.847 31.314 12.847"/>
        <polygon points="34.526 38.005 34.526 41.083 37.737 41.083 37.737 44.161 40.949 44.161 44.161 44.161 44.161 41.083 47.372 41.083 47.372 38.005 44.161 38.005 40.949 38.005 37.737 38.005 37.737 34.927 40.949 34.927 44.161 34.927 44.161 31.849 40.949 31.849 37.737 31.849 34.526 31.849 34.526 34.927 31.314 34.927 31.314 31.849 31.314 28.771 34.526 28.771 34.526 25.693 31.314 25.693 28.102 25.693 24.891 25.693 21.679 25.693 18.467 25.693 18.467 28.771 21.679 28.771 21.679 31.849 24.891 31.849 28.102 31.849 28.102 34.927 28.102 38.005 28.102 41.083 31.314 41.083 31.314 38.005"/>
        <polygon points="31.314 44.161 34.526 44.161 34.526 40.949 31.314 40.949"/>
        <polygon points="40.949 73.066 44.161 73.066 44.161 69.854 40.949 69.854"/>
        <path d="M28.9051095,0 L28.9051095,3.13152777 L25.6934307,3.13152777 L25.6934307,6.26274241 L28.9051095,6.26274241 L28.9051095,9.39411361 L25.6934307,9.39411361 L25.6934307,12.5254848 L28.9051095,12.5254848 L32.1167883,12.5254848 L32.1167883,9.39411361 L35.3284672,9.39411361 L35.3284672,12.5254848 L38.540146,12.5254848 L38.540146,9.39411361 L38.540146,6.26274241 L41.7518248,6.26274241 L44.9635036,6.26274241 L48.1751825,6.26274241 L48.1751825,9.39411361 L44.9635036,9.39411361 L41.7518248,9.39411361 L41.7518248,12.5254848 L38.540146,12.5254848 L38.540146,15.6570126 L41.7518248,15.6570126 L41.7518248,18.7883838 L38.540146,18.7883838 L38.540146,21.9195984 L38.540146,25.0509696 L38.540146,28.1823408 L41.7518248,28.1823408 L44.9635036,28.1823408 L44.9635036,31.3138686 L48.1751825,31.3138686 L48.1751825,28.1823408 L51.3868613,28.1823408 L51.3868613,25.0509696 L51.3868613,21.9195984 L54.5985401,21.9195984 L54.5985401,18.7883838 L54.5985401,15.6570126 L54.5985401,12.5254848 L54.5985401,9.39411361 L54.5985401,6.26274241 L51.3868613,6.26274241 L51.3868613,3.13152777 L48.1751825,3.13152777 L44.9635036,3.13152777 L41.7518248,3.13152777 L38.540146,3.13152777 L35.3284672,3.13152777 L35.3284672,6.26274241 L32.1167883,6.26274241 L32.1167883,3.13152777 L32.1167883,0 L28.9051095,0 Z M44.9635036,12.5254848 L48.1751825,12.5254848 L51.3868613,12.5254848 L51.3868613,15.6570126 L48.1751825,15.6570126 L44.9635036,15.6570126 L44.9635036,12.5254848 Z M48.1751825,21.919755 L51.3870219,21.919755 L51.3870219,18.7883838 L48.1751825,18.7883838 L48.1751825,21.919755 Z M44.9635036,18.7883838 L44.9635036,21.9195984 L44.9635036,25.0509696 L41.7518248,25.0509696 L41.7518248,21.9195984 L41.7518248,18.7883838 L44.9635036,18.7883838 Z"/>
        <polygon points="44.964 73.066 44.964 76.277 41.752 76.277 38.54 76.277 38.54 73.066 35.328 73.066 35.328 76.277 35.328 79.489 38.54 79.489 41.752 79.489 44.964 79.489 48.175 79.489 48.175 76.277 48.175 73.066"/>
        <polygon points="47.372 73.066 50.584 73.066 50.584 69.854 47.372 69.854"/>
        <polygon points="50.584 3.212 53.796 3.212 53.796 0 50.584 0"/>
        <polygon points="50.584 32.117 53.796 32.117 53.796 28.905 50.584 28.905"/>
        <polygon points="53.796 28.905 57.007 28.905 57.007 25.693 53.796 25.693"/>
        <polygon points="57.007 60.219 60.219 60.219 60.219 57.007 57.007 57.007"/>
        <polygon points="66.642 6.423 63.431 6.423 63.431 9.635 63.431 12.847 63.431 16.058 66.642 16.058 69.854 16.058 73.066 16.058 73.066 12.847 73.066 9.635 73.066 6.423 69.854 6.423"/>
        <polygon points="66.642 28.905 69.854 28.905 69.854 25.693 66.642 25.693"/>
        <path d="M60.5022591,25.6934307 L60.5022591,28.8578789 L60.5022591,32.0223272 L57.3378202,32.0223272 L57.3378202,35.1867754 L54.1733812,35.1867754 L51.0091005,35.1867754 L51.0091005,32.0223272 L47.8445033,32.0223272 L47.8445033,35.1867754 L47.8445033,38.3512237 L51.0091005,38.3512237 L54.1733812,38.3512237 L54.1733812,41.515672 L51.0091005,41.515672 L51.0091005,44.6802784 L47.8445033,44.6802784 L44.6800644,44.6802784 L44.6800644,47.8445685 L44.6800644,51.0090167 L41.5156254,51.0090167 L38.3513447,51.0090167 L38.3513447,47.8445685 L35.1867475,47.8445685 L35.1867475,51.0090167 L32.0223086,51.0090167 L32.0223086,54.173465 L32.0223086,57.3379133 L32.0223086,60.5023615 L28.8578696,60.5023615 L28.8578696,63.6668098 L25.6934307,63.6668098 L25.6934307,66.8312581 L25.6934307,69.9957063 L25.6934307,73.1603128 L25.6934307,76.3246028 L25.6934307,79.4890511 L28.8578696,79.4890511 L28.8578696,76.3246028 L28.8578696,73.1603128 L32.0223086,73.1603128 L32.0223086,69.9957063 L28.8578696,69.9957063 L28.8578696,66.8312581 L32.0223086,66.8312581 L35.1867475,66.8312581 L35.1867475,69.9957063 L38.3513447,69.9957063 L38.3513447,66.8312581 L41.5156254,66.8312581 L44.6800644,66.8312581 L47.8445033,66.8312581 L51.0091005,66.8312581 L51.0091005,69.9957063 L54.1733812,69.9957063 L57.3378202,69.9957063 L60.5022591,69.9957063 L60.5022591,66.8312581 L63.6666981,66.8312581 L63.6666981,69.9957063 L66.8312953,69.9957063 L66.8312953,73.1603128 L63.6666981,73.1603128 L60.5022591,73.1603128 L57.3378202,73.1603128 L54.1733812,73.1603128 L51.0091005,73.1603128 L51.0091005,76.3246028 L54.1733812,76.3246028 L54.1733812,79.4890511 L57.3378202,79.4890511 L60.5022591,79.4890511 L63.6666981,79.4890511 L66.8312953,79.4890511 L69.995576,79.4890511 L73.160015,79.4890511 L76.3244539,79.4890511 L79.4890511,79.4890511 L79.4890511,66.8312581 L76.3244539,66.8312581 L73.160015,66.8312581 L73.160015,63.6668098 L69.995576,63.6668098 L69.995576,66.8312581 L66.8312953,66.8312581 L66.8312953,63.6668098 L69.995576,63.6668098 L69.995576,60.5023615 L66.8312953,60.5023615 L66.8312953,57.3379133 L69.995576,57.3379133 L69.995576,54.173465 L66.8312953,54.173465 L66.8312953,51.0090167 L66.8312953,47.8445685 L69.995576,47.8445685 L69.995576,44.6802784 L69.995576,41.515672 L66.8312953,41.515672 L66.8312953,44.6802784 L63.6666981,44.6802784 L63.6666981,41.515672 L66.8312953,41.515672 L66.8312953,38.3512237 L63.6666981,38.3512237 L63.6666981,35.1867754 L66.8312953,35.1867754 L69.995576,35.1867754 L69.995576,32.0223272 L66.8312953,32.0223272 L63.6666981,32.0223272 L63.6666981,28.8578789 L63.6666981,25.6934307 L60.5022591,25.6934307 Z M57.3378202,44.6802784 L60.5022591,44.6802784 L60.5022591,41.515672 L57.3378202,41.515672 L57.3378202,44.6802784 Z M54.1733812,44.6802784 L54.1733812,47.8445685 L57.3378202,47.8445685 L60.5022591,47.8445685 L60.5022591,51.0090167 L57.3378202,51.0090167 L54.1733812,51.0090167 L51.0091005,51.0090167 L51.0091005,47.8445685 L51.0091005,44.6802784 L54.1733812,44.6802784 Z M47.8445033,51.0090167 L47.8445033,54.173465 L51.0091005,54.173465 L51.0091005,57.3379133 L51.0091005,60.5023615 L51.0091005,63.6668098 L47.8445033,63.6668098 L44.6800644,63.6668098 L41.5156254,63.6668098 L38.3513447,63.6668098 L35.1867475,63.6668098 L35.1867475,60.5023615 L35.1867475,57.3379133 L38.3513447,57.3379133 L41.5156254,57.3379133 L41.5156254,60.5023615 L44.6800644,60.5023615 L47.8445033,60.5023615 L47.8445033,57.3379133 L44.6800644,57.3379133 L44.6800644,54.173465 L44.6800644,51.0090167 L47.8445033,51.0090167 Z M54.1733812,60.5023615 L54.1733812,57.3379133 L54.1733812,54.173465 L57.3378202,54.173465 L60.5022591,54.173465 L63.6666981,54.173465 L63.6666981,57.3379133 L63.6666981,60.5023615 L63.6666981,63.6668098 L60.5022591,63.6668098 L57.3378202,63.6668098 L54.1733812,63.6668098 L54.1733812,60.5023615 Z M69.995576,73.1603128 L73.160015,73.1603128 L73.160015,69.9957063 L76.3244539,69.9957063 L76.3244539,73.1603128 L76.3244539,76.3246028 L73.160015,76.3246028 L69.995576,76.3246028 L69.995576,73.1603128 Z"/>
        <polygon points="69.854 53.796 73.066 53.796 73.066 50.584 69.854 50.584"/>
        <polygon points="76.277 57.007 73.066 57.007 69.854 57.007 69.854 60.219 73.066 60.219 76.277 60.219 79.489 60.219 79.489 57.007"/>
        <polygon points="73.066 25.693 73.066 28.905 73.066 32.117 73.066 35.328 76.277 35.328 76.277 38.54 73.066 38.54 69.854 38.54 69.854 41.752 73.066 41.752 73.066 44.964 73.066 48.175 76.277 48.175 76.277 51.387 79.489 51.387 79.489 44.964 76.277 44.964 76.277 41.752 79.489 41.752 79.489 32.117 76.277 32.117 76.277 28.905 76.277 25.693"/>
        <path d="M57.0072993,0 L57.0072993,3.21183942 L57.0072993,6.42335766 L57.0072993,9.6350365 L57.0072993,12.8467153 L57.0072993,16.0585547 L57.0072993,19.2702336 L57.0072993,22.4817518 L60.2189781,22.4817518 L63.4306569,22.4817518 L66.6423358,22.4817518 L69.8540146,22.4817518 L73.0656934,22.4817518 L76.2773723,22.4817518 L79.4890511,22.4817518 L79.4890511,0 L57.0072993,0 Z M60.2189781,16.0585547 L60.2189781,12.8467153 L60.2189781,9.6350365 L60.2189781,6.42335766 L60.2189781,3.21183942 L63.4306569,3.21183942 L66.6423358,3.21183942 L69.8540146,3.21183942 L73.0656934,3.21183942 L76.2773723,3.21183942 L76.2773723,6.42335766 L76.2773723,9.6350365 L76.2773723,12.8467153 L76.2773723,16.0585547 L76.2773723,19.2702336 L73.0656934,19.2702336 L69.8540146,19.2702336 L66.6423358,19.2702336 L63.4306569,19.2702336 L60.2189781,19.2702336 L60.2189781,16.0585547 Z"/>
      </g>
      <polygon fill="#FFF" points="192.701 118.212 197.518 124.635 187.883 124.635" opacity=".4" transform="rotate(90 192.7 121.423)"/>
      <polygon fill="#FFF" points="38.54 118.212 43.358 124.635 33.723 124.635" opacity=".4" transform="rotate(-90 38.54 121.423)"/>
      <rect width="48.175" height="9.635" x="92.336" y="87.518" fill="#FFF" opacity=".4" rx="4.818"/>
      <rect width="72.263" height="4.818" x="80.292" y="115" fill="#FFF" rx="2.409"/>
      <rect width="52.26" height="4.818" x="90.292" y="125.029" fill="#FFF" opacity=".4" rx="2.409"/>
    </g>
    <g transform="translate(253.856 .324)">
      <g>
        <use fill="#000" filter="url(#1_index_image-g)" xlink:href="#1_index_image-h"/>
        <use fill="#FFF" xlink:href="#1_index_image-h"/>
        <use fill="#000" filter="url(#1_index_image-i)" xlink:href="#1_index_image-h"/>
        <path fill="url(#1_index_image-f)" d="M636.513642,115.323593 C637.612496,115.323593 638.503294,114.432795 638.503294,113.333941 C638.503294,112.235086 637.612496,111.344288 636.513642,111.344288 C635.414787,111.344288 634.523989,112.235086 634.523989,113.333941 C634.523989,114.432795 635.414787,115.323593 636.513642,115.323593 Z" style="mix-blend-mode:multiply"/>
      </g>
      <path fill="#263F6F" d="M74.8394161,61.0218978 L756.941606,61.0218978 L756.941606,61.0218978 C758.59846,61.0218978 759.941606,62.3650436 759.941606,64.0218978 L759.941606,114.226277 L759.941606,114.226277 C759.941606,115.883132 758.59846,117.226277 756.941606,117.226277 L74.8394161,117.226277 L74.8394161,117.226277 C73.1825618,117.226277 71.8394161,115.883132 71.8394161,114.226277 L71.8394161,64.0218978 L71.8394161,64.0218978 C71.8394161,62.3650436 73.1825618,61.0218978 74.8394161,61.0218978 Z" opacity=".8"/>
      <path fill="#263F6F" d="M74.8394161,287.445255 L756.941606,287.445255 L756.941606,287.445255 C758.59846,287.445255 759.941606,288.788401 759.941606,290.445255 L759.941606,316.562044 L759.941606,316.562044 C759.941606,318.218898 758.59846,319.562044 756.941606,319.562044 L74.8394161,319.562044 L74.8394161,319.562044 C73.1825618,319.562044 71.8394161,318.218898 71.8394161,316.562044 L71.8394161,290.445255 L71.8394161,290.445255 C71.8394161,288.788401 73.1825618,287.445255 74.8394161,287.445255 Z" opacity=".3"/>
      <polygon fill="#DFE4EE" points="71.839 351.679 759.942 351.679 759.942 352.482 71.839 352.482" opacity=".5"/>
      <polygon fill="#DFE4EE" points="71.839 383.796 759.942 383.796 759.942 384.599 71.839 384.599" opacity=".5"/>
      <polygon fill="#DFE4EE" points="71.839 415.912 759.942 415.912 759.942 416.715 71.839 416.715" opacity=".5"/>
      <polygon fill="#DFE4EE" points="71.839 448.029 759.942 448.029 759.942 448.832 71.839 448.832" opacity=".5"/>
      <polygon fill="#DFE4EE" points="71.839 480.146 759.942 480.146 759.942 480.949 71.839 480.949" opacity=".5"/>
      <polygon fill="#DFE4EE" points="71.839 512.263 759.942 512.263 759.942 513.066 71.839 513.066" opacity=".5"/>
      <g fill="#FFF" transform="translate(84.686 73.869)">
        <path d="M26.4657237,9.13124374 L18.4982302,1.0440442 C17.1267764,-0.348014734 14.9063274,-0.348014734 13.5348736,1.0440442 L5.63268741,9.13124374 C5.17553614,9.59526338 5.17553614,10.3244371 5.63268741,10.7884568 L8.04905839,13.241132 L9.61643416,14.765768 C10.0735854,15.2297877 10.791966,15.2297877 11.3144246,14.765768 L14.5144834,11.7827846 C15.3634786,10.9873223 16.7349324,10.9873223 17.649235,11.7827846 L20.8492938,14.765768 C21.3064451,15.2297877 22.0248257,15.2297877 22.5472843,14.765768 L24.1799673,13.241132 L26.5963383,10.7884568 C26.9228749,10.3244371 26.9228749,9.59526338 26.4657237,9.13124374 Z" opacity=".5"/>
        <path d="M1.06492622,18.5863102 L13.5659382,31.0860506 C14.940395,32.4603676 17.1657061,32.4603676 18.5401629,31.0860506 L31.0411749,18.5863102 C33.2010356,16.4266691 31.6956781,15.7722325 30.1248703,14.2670281 L28.1613606,12.4346054 C27.7032083,11.9764998 26.9832548,11.9764998 26.4596522,12.4346054 L23.2525863,15.3795705 C22.401732,16.1648945 21.0272752,16.1648945 20.1109707,15.3795705 L16.9039048,12.4346054 C16.4457525,11.9764998 15.7257989,11.9764998 15.2021963,12.4346054 L11.9951304,15.3795705 C11.1442762,16.1648945 9.76981939,16.1648945 8.85351485,15.3795705 L5.64644894,12.4346054 C5.18829667,11.9764998 4.4683431,11.9764998 3.9447405,12.4346054 L2.17758174,14.0706971 C0.54132362,15.6413451 -1.16038482,16.3612255 1.06492622,18.5863102 Z"/>
      </g>
      <g fill="#4F89DC" transform="translate(83.883 157.372)">
        <path d="M25.1424375,8.67468155 L17.5733187,0.991841992 C16.2704376,-0.330613997 14.161011,-0.330613997 12.8581299,0.991841992 L5.35105304,8.67468155 C4.91675934,9.11550021 4.91675934,9.80821526 5.35105304,10.2490339 L7.64660547,12.5790754 L9.13561245,14.0274796 C9.56990615,14.4682983 10.2523677,14.4682983 10.7487033,14.0274796 L13.7887593,11.1936453 C14.5953047,10.4379562 15.8981858,10.4379562 16.7667732,11.1936453 L19.8068291,14.0274796 C20.2411228,14.4682983 20.9235844,14.4682983 21.41992,14.0274796 L22.970969,12.5790754 L25.2665214,10.2490339 C25.5767312,9.80821526 25.5767312,9.11550021 25.1424375,8.67468155 Z"/>
        <path d="M1.01167991,18.4197684 L12.8876413,30.2945218 C14.1933753,31.6001229 16.3074208,31.6001229 17.6131547,30.2945218 L29.4891161,18.4197684 C31.5409838,16.3681094 30.1108942,15.7463946 28.6186268,14.3164504 L26.7532926,12.5756489 C26.3180479,12.1404485 25.634092,12.1404485 25.1366696,12.5756489 L22.0899569,15.3733657 C21.2816454,16.1194235 19.9759115,16.1194235 19.1054221,15.3733657 L16.0587095,12.5756489 C15.6234649,12.1404485 14.939509,12.1404485 14.4420865,12.5756489 L11.3953739,15.3733657 C10.5870624,16.1194235 9.28132842,16.1194235 8.4108391,15.3733657 L5.36412649,12.5756489 C4.92888183,12.1404485 4.24492594,12.1404485 3.74750347,12.5756489 L2.06870265,14.129936 C0.514257439,15.6220516 -1.10236558,16.3059379 1.01167991,18.4197684 Z"/>
      </g>
      <path fill="#DFE4EE" d="M86.080292 218.394161L113.80292 218.394161 113.80292 218.394161C115.459774 218.394161 116.80292 219.737306 116.80292 221.394161L116.80292 232.255474 116.80292 232.255474C116.80292 233.912329 115.459774 235.255474 113.80292 235.255474L86.080292 235.255474 86.080292 235.255474C84.4234377 235.255474 83.080292 233.912329 83.080292 232.255474L83.080292 221.394161 83.080292 221.394161C83.080292 219.737306 84.4234377 218.394161 86.080292 218.394161zM159.948905 218.394161L187.671533 218.394161 187.671533 218.394161C189.328387 218.394161 190.671533 219.737306 190.671533 221.394161L190.671533 232.255474 190.671533 232.255474C190.671533 233.912329 189.328387 235.255474 187.671533 235.255474L159.948905 235.255474 159.948905 235.255474C158.292051 235.255474 156.948905 233.912329 156.948905 232.255474L156.948905 221.394161 156.948905 221.394161C156.948905 219.737306 158.292051 218.394161 159.948905 218.394161zM123.014599 218.394161L150.737226 218.394161 150.737226 218.394161C152.394081 218.394161 153.737226 219.737306 153.737226 221.394161L153.737226 232.255474 153.737226 232.255474C153.737226 233.912329 152.394081 235.255474 150.737226 235.255474L123.014599 235.255474 123.014599 235.255474C121.357744 235.255474 120.014599 233.912329 120.014599 232.255474L120.014599 221.394161 120.014599 221.394161C120.014599 219.737306 121.357744 218.394161 123.014599 218.394161z"/>
      <path stroke="#FFF" stroke-linecap="round" stroke-width="6" d="M319.138686,74.6715328 L512.761519,74.6715328" opacity=".4"/>
      <path stroke="#DFE4EE" stroke-linecap="round" stroke-width="6" d="M326.364964,335.620438 L337.611534,335.620438"/>
      <path stroke="#263F6F" stroke-linecap="round" stroke-width="6" d="M75.0510949,335.620438 L107.976497,335.620438" opacity=".3"/>
      <path stroke="#DFE4EE" stroke-linecap="round" stroke-width="6" d="M121.620438,335.620438 L152.940001,335.620438"/>
      <path stroke="#263F6F" stroke-linecap="round" stroke-width="6" d="M75.0510949,367.737226 L107.976497,367.737226" opacity=".3"/>
      <path stroke="#DFE4EE" stroke-linecap="round" stroke-width="6" d="M121.620438,367.737226 L152.940001,367.737226"/>
      <path stroke="#263F6F" stroke-linecap="round" stroke-width="6" d="M75.0510949,399.854015 L107.976497,399.854015" opacity=".3"/>
      <path stroke="#DFE4EE" stroke-linecap="round" stroke-width="6" d="M121.620438,399.854015 L152.940001,399.854015"/>
      <path stroke="#263F6F" stroke-linecap="round" stroke-width="6" d="M75.0510949,431.970803 L107.976497,431.970803" opacity=".3"/>
      <path stroke="#DFE4EE" stroke-linecap="round" stroke-width="6" d="M121.620438,431.970803 L152.940001,431.970803"/>
      <path stroke="#263F6F" stroke-linecap="round" stroke-width="6" d="M75.0510949,464.087591 L107.976497,464.087591" opacity=".3"/>
      <path stroke="#DFE4EE" stroke-linecap="round" stroke-width="6" d="M121.620438,464.087591 L152.940001,464.087591"/>
      <path stroke="#263F6F" stroke-linecap="round" stroke-width="6" d="M75.0510949,496.20438 L107.976497,496.20438" opacity=".3"/>
      <path stroke="#DFE4EE" stroke-linecap="round" stroke-width="6" d="M121.620438 496.20438L152.940001 496.20438M274.978102 335.620438L304.691826 335.620438M173.810219 335.620438L253.304964 335.620438M612.20438 335.620438L641.918103 335.620438"/>
      <path stroke="#263F6F" stroke-linecap="round" stroke-width="6" d="M661.985401,335.620438 L691.699125,335.620438" opacity=".3"/>
      <path stroke="#DFE4EE" stroke-linecap="round" stroke-width="6" d="M470.890511,335.620438 L482.137081,335.620438"/>
      <path stroke="#263F6F" stroke-linecap="round" stroke-width="6" d="M146.510949,168.613139 L189.874308,168.613139" opacity=".3"/>
      <path stroke="#DFE4EE" stroke-linecap="round" stroke-width="6" d="M162.569343,179.051095 L189.874308,179.051095"/>
      <g fill="#FFF" transform="translate(315.927 86.715)">
        <circle cx="10.149" cy="10.149" r="10.149"/>
        <circle cx="40.221" cy="10.149" r="10.149" opacity=".4"/>
        <circle cx="70.293" cy="10.149" r="10.149" opacity=".4"/>
        <circle cx="100.365" cy="10.149" r="10.149" opacity=".4"/>
        <circle cx="130.437" cy="10.149" r="10.149" opacity=".4"/>
        <circle cx="160.509" cy="10.149" r="10.149" opacity=".4"/>
        <circle cx="190.581" cy="10.149" r="10.149" opacity=".4"/>
      </g>
      <circle cx="743.883" cy="77.08" r="6.423" fill="#FFF" opacity=".4"/>
      <circle cx="743.883" cy="335.62" r="6.423" fill="#263F6F" opacity=".3"/>
      <path stroke="#263F6F" stroke-linecap="round" stroke-width="6" d="M326.364964,367.737226 L450.020293,367.737226" opacity=".3"/>
      <path stroke="#DFE4EE" stroke-linecap="round" stroke-width="6" d="M274.978102 367.737226L304.691826 367.737226M173.810219 367.737226L229.217373 367.737226M612.20438 367.737226L641.918103 367.737226M661.985401 367.737226L691.699125 367.737226M470.890511 367.737226L482.137081 367.737226"/>
      <circle cx="743.883" cy="367.737" r="6.423" fill="#263F6F" opacity=".3"/>
      <path stroke="#DFE4EE" stroke-linecap="round" stroke-width="6" d="M326.364964 399.854015L337.611534 399.854015M274.978102 399.854015L304.691826 399.854015M173.810219 399.854015L253.304964 399.854015"/>
      <path stroke="#263F6F" stroke-linecap="round" stroke-width="6" d="M612.20438,399.854015 L641.918103,399.854015" opacity=".3"/>
      <path stroke="#DFE4EE" stroke-linecap="round" stroke-width="6" d="M661.985401 399.854015L691.699125 399.854015M470.890511 399.854015L482.137081 399.854015"/>
      <circle cx="743.883" cy="399.854" r="6.423" fill="#263F6F" opacity=".3"/>
      <path stroke="#DFE4EE" stroke-linecap="round" stroke-width="6" d="M326.364964 431.970803L337.611534 431.970803M274.978102 431.970803L304.691826 431.970803M173.810219 431.970803L205.129782 431.970803M612.20438 431.970803L641.918103 431.970803"/>
      <path stroke="#263F6F" stroke-linecap="round" stroke-width="6" d="M661.985401 431.970803L691.699125 431.970803M470.890511 431.970803L594.54584 431.970803" opacity=".3"/>
      <circle cx="743.883" cy="431.971" r="6.423" fill="#263F6F" opacity=".3"/>
      <path stroke="#263F6F" stroke-linecap="round" stroke-width="6" d="M326.364964,464.087591 L450.020293,464.087591" opacity=".3"/>
      <path stroke="#DFE4EE" stroke-linecap="round" stroke-width="6" d="M274.978102 464.087591L304.691826 464.087591M173.810219 464.087591L253.304964 464.087591M612.20438 464.087591L641.918103 464.087591M661.985401 464.087591L691.699125 464.087591M470.890511 464.087591L482.137081 464.087591"/>
      <circle cx="743.883" cy="464.088" r="6.423" fill="#263F6F" opacity=".3"/>
      <path stroke="#263F6F" stroke-linecap="round" stroke-width="6" d="M326.364964,496.20438 L450.020293,496.20438" opacity=".3"/>
      <path stroke="#DFE4EE" stroke-linecap="round" stroke-width="6" d="M274.978102 496.20438L304.691826 496.20438M173.810219 496.20438L253.304964 496.20438M612.20438 496.20438L641.918103 496.20438"/>
      <path stroke="#263F6F" stroke-linecap="round" stroke-width="6" d="M661.985401,496.20438 L691.699125,496.20438" opacity=".3"/>
      <path stroke="#DFE4EE" stroke-linecap="round" stroke-width="6" d="M470.890511,496.20438 L482.137081,496.20438"/>
      <circle cx="743.883" cy="496.204" r="6.423" fill="#263F6F" opacity=".3"/>
      <circle cx="718.993" cy="77.08" r="6.423" fill="#FFF" opacity=".4"/>
      <circle cx="693.299" cy="77.08" r="6.423" fill="#FFF" opacity=".4"/>
      <circle cx="668.81" cy="76.679" r="6.022" fill="#FFF" opacity=".4"/>
      <path stroke="#DFE4EE" d="M86.0364964,141.813869 C78.0283675,141.813869 71.5364964,148.30574 71.5364964,156.313869 L71.5364964,232.298613 C71.5364964,240.306742 78.0283675,246.798613 86.0364964,246.798613 L187.715328,246.798613 C195.723457,246.798613 202.215328,240.306742 202.215328,232.298613 L202.215328,156.313869 C202.215328,148.30574 195.723457,141.813869 187.715328,141.813869 L86.0364964,141.813869 Z" opacity=".5"/>
      <path fill="#DFE4EE" d="M224.182482 218.394161L251.905109 218.394161 251.905109 218.394161C253.561964 218.394161 254.905109 219.737306 254.905109 221.394161L254.905109 232.255474 254.905109 232.255474C254.905109 233.912329 253.561964 235.255474 251.905109 235.255474L224.182482 235.255474 224.182482 235.255474C222.525628 235.255474 221.182482 233.912329 221.182482 232.255474L221.182482 221.394161 221.182482 221.394161C221.182482 219.737306 222.525628 218.394161 224.182482 218.394161zM298.051095 218.394161L325.773723 218.394161 325.773723 218.394161C327.430577 218.394161 328.773723 219.737306 328.773723 221.394161L328.773723 232.255474 328.773723 232.255474C328.773723 233.912329 327.430577 235.255474 325.773723 235.255474L298.051095 235.255474 298.051095 235.255474C296.394241 235.255474 295.051095 233.912329 295.051095 232.255474L295.051095 221.394161 295.051095 221.394161C295.051095 219.737306 296.394241 218.394161 298.051095 218.394161zM261.116788 218.394161L288.839416 218.394161 288.839416 218.394161C290.49627 218.394161 291.839416 219.737306 291.839416 221.394161L291.839416 232.255474 291.839416 232.255474C291.839416 233.912329 290.49627 235.255474 288.839416 235.255474L261.116788 235.255474 261.116788 235.255474C259.459934 235.255474 258.116788 233.912329 258.116788 232.255474L258.116788 221.394161 258.116788 221.394161C258.116788 219.737306 259.459934 218.394161 261.116788 218.394161z"/>
      <path stroke="#263F6F" stroke-linecap="round" stroke-width="6" d="M284.613139,168.613139 L327.976497,168.613139" opacity=".3"/>
      <path stroke="#DFE4EE" stroke-linecap="round" stroke-width="6" d="M300.671533,179.051095 L327.976497,179.051095"/>
      <path stroke="#DFE4EE" d="M224.138686,141.813869 C216.130557,141.813869 209.638686,148.30574 209.638686,156.313869 L209.638686,232.298613 C209.638686,240.306742 216.130557,246.798613 224.138686,246.798613 L325.817518,246.798613 C333.825647,246.798613 340.317518,240.306742 340.317518,232.298613 L340.317518,156.313869 C340.317518,148.30574 333.825647,141.813869 325.817518,141.813869 L224.138686,141.813869 Z" opacity=".5"/>
      <path fill="#DFE4EE" d="M363.087591 218.394161L390.810219 218.394161 390.810219 218.394161C392.467073 218.394161 393.810219 219.737306 393.810219 221.394161L393.810219 232.255474 393.810219 232.255474C393.810219 233.912329 392.467073 235.255474 390.810219 235.255474L363.087591 235.255474 363.087591 235.255474C361.430737 235.255474 360.087591 233.912329 360.087591 232.255474L360.087591 221.394161 360.087591 221.394161C360.087591 219.737306 361.430737 218.394161 363.087591 218.394161zM436.956204 218.394161L464.678832 218.394161 464.678832 218.394161C466.335686 218.394161 467.678832 219.737306 467.678832 221.394161L467.678832 232.255474 467.678832 232.255474C467.678832 233.912329 466.335686 235.255474 464.678832 235.255474L436.956204 235.255474 436.956204 235.255474C435.29935 235.255474 433.956204 233.912329 433.956204 232.255474L433.956204 221.394161 433.956204 221.394161C433.956204 219.737306 435.29935 218.394161 436.956204 218.394161zM400.021898 218.394161L427.744526 218.394161 427.744526 218.394161C429.40138 218.394161 430.744526 219.737306 430.744526 221.394161L430.744526 232.255474 430.744526 232.255474C430.744526 233.912329 429.40138 235.255474 427.744526 235.255474L400.021898 235.255474 400.021898 235.255474C398.365044 235.255474 397.021898 233.912329 397.021898 232.255474L397.021898 221.394161 397.021898 221.394161C397.021898 219.737306 398.365044 218.394161 400.021898 218.394161z"/>
      <path stroke="#263F6F" stroke-linecap="round" stroke-width="6" d="M423.518248,168.613139 L466.881607,168.613139" opacity=".3"/>
      <path stroke="#DFE4EE" stroke-linecap="round" stroke-width="6" d="M439.576642,179.051095 L466.881607,179.051095"/>
      <path stroke="#DFE4EE" d="M363.043796,141.813869 C355.035667,141.813869 348.543796,148.30574 348.543796,156.313869 L348.543796,232.298613 C348.543796,240.306742 355.035667,246.798613 363.043796,246.798613 L464.722628,246.798613 C472.730757,246.798613 479.222628,240.306742 479.222628,232.298613 L479.222628,156.313869 C479.222628,148.30574 472.730757,141.813869 464.722628,141.813869 L363.043796,141.813869 Z" opacity=".5"/>
      <path fill="#DFE4EE" d="M501.992701 218.394161L529.715328 218.394161 529.715328 218.394161C531.372183 218.394161 532.715328 219.737306 532.715328 221.394161L532.715328 232.255474 532.715328 232.255474C532.715328 233.912329 531.372183 235.255474 529.715328 235.255474L501.992701 235.255474 501.992701 235.255474C500.335846 235.255474 498.992701 233.912329 498.992701 232.255474L498.992701 221.394161 498.992701 221.394161C498.992701 219.737306 500.335846 218.394161 501.992701 218.394161zM575.861314 218.394161L603.583942 218.394161 603.583942 218.394161C605.240796 218.394161 606.583942 219.737306 606.583942 221.394161L606.583942 232.255474 606.583942 232.255474C606.583942 233.912329 605.240796 235.255474 603.583942 235.255474L575.861314 235.255474 575.861314 235.255474C574.20446 235.255474 572.861314 233.912329 572.861314 232.255474L572.861314 221.394161 572.861314 221.394161C572.861314 219.737306 574.20446 218.394161 575.861314 218.394161zM538.927007 218.394161L566.649635 218.394161 566.649635 218.394161C568.306489 218.394161 569.649635 219.737306 569.649635 221.394161L569.649635 232.255474 569.649635 232.255474C569.649635 233.912329 568.306489 235.255474 566.649635 235.255474L538.927007 235.255474 538.927007 235.255474C537.270153 235.255474 535.927007 233.912329 535.927007 232.255474L535.927007 221.394161 535.927007 221.394161C535.927007 219.737306 537.270153 218.394161 538.927007 218.394161z"/>
      <path stroke="#263F6F" stroke-linecap="round" stroke-width="6" d="M562.423358,168.613139 L605.786716,168.613139" opacity=".3"/>
      <path stroke="#DFE4EE" stroke-linecap="round" stroke-width="6" d="M578.481752,179.051095 L605.786716,179.051095"/>
      <path stroke="#DFE4EE" d="M501.948905,141.813869 C493.940776,141.813869 487.448905,148.30574 487.448905,156.313869 L487.448905,232.298613 C487.448905,240.306742 493.940776,246.798613 501.948905,246.798613 L603.627737,246.798613 C611.635866,246.798613 618.127737,240.306742 618.127737,232.298613 L618.127737,156.313869 C618.127737,148.30574 611.635866,141.813869 603.627737,141.813869 L501.948905,141.813869 Z" opacity=".5"/>
      <path fill="#4F89DC" d="M640.89781 218.394161L668.620438 218.394161 668.620438 218.394161C670.277292 218.394161 671.620438 219.737306 671.620438 221.394161L671.620438 232.255474 671.620438 232.255474C671.620438 233.912329 670.277292 235.255474 668.620438 235.255474L640.89781 235.255474 640.89781 235.255474C639.240956 235.255474 637.89781 233.912329 637.89781 232.255474L637.89781 221.394161 637.89781 221.394161C637.89781 219.737306 639.240956 218.394161 640.89781 218.394161zM714.766423 218.394161L742.489051 218.394161 742.489051 218.394161C744.145905 218.394161 745.489051 219.737306 745.489051 221.394161L745.489051 232.255474 745.489051 232.255474C745.489051 233.912329 744.145905 235.255474 742.489051 235.255474L714.766423 235.255474 714.766423 235.255474C713.109569 235.255474 711.766423 233.912329 711.766423 232.255474L711.766423 221.394161 711.766423 221.394161C711.766423 219.737306 713.109569 218.394161 714.766423 218.394161zM677.832117 218.394161L705.554745 218.394161 705.554745 218.394161C707.211599 218.394161 708.554745 219.737306 708.554745 221.394161L708.554745 232.255474 708.554745 232.255474C708.554745 233.912329 707.211599 235.255474 705.554745 235.255474L677.832117 235.255474 677.832117 235.255474C676.175263 235.255474 674.832117 233.912329 674.832117 232.255474L674.832117 221.394161 674.832117 221.394161C674.832117 219.737306 676.175263 218.394161 677.832117 218.394161z"/>
      <path stroke="#DFE4EE" stroke-linecap="round" stroke-width="6" d="M701.328467 168.613139L744.691826 168.613139M717.386861 179.051095L744.691826 179.051095"/>
      <path stroke="#DFE4EE" d="M640.854015,141.813869 C632.845886,141.813869 626.354015,148.30574 626.354015,156.313869 L626.354015,232.298613 C626.354015,240.306742 632.845886,246.798613 640.854015,246.798613 L742.532847,246.798613 C750.540976,246.798613 757.032847,240.306742 757.032847,232.298613 L757.032847,156.313869 C757.032847,148.30574 750.540976,141.813869 742.532847,141.813869 L640.854015,141.813869 Z" opacity=".5"/>
      <path fill="#DFE4EE" d="M640.89781 218.394161L668.620438 218.394161 668.620438 218.394161C670.277292 218.394161 671.620438 219.737306 671.620438 221.394161L671.620438 232.255474 671.620438 232.255474C671.620438 233.912329 670.277292 235.255474 668.620438 235.255474L640.89781 235.255474 640.89781 235.255474C639.240956 235.255474 637.89781 233.912329 637.89781 232.255474L637.89781 221.394161 637.89781 221.394161C637.89781 219.737306 639.240956 218.394161 640.89781 218.394161zM714.766423 218.394161L742.489051 218.394161 742.489051 218.394161C744.145905 218.394161 745.489051 219.737306 745.489051 221.394161L745.489051 232.255474 745.489051 232.255474C745.489051 233.912329 744.145905 235.255474 742.489051 235.255474L714.766423 235.255474 714.766423 235.255474C713.109569 235.255474 711.766423 233.912329 711.766423 232.255474L711.766423 221.394161 711.766423 221.394161C711.766423 219.737306 713.109569 218.394161 714.766423 218.394161zM677.832117 218.394161L705.554745 218.394161 705.554745 218.394161C707.211599 218.394161 708.554745 219.737306 708.554745 221.394161L708.554745 232.255474 708.554745 232.255474C708.554745 233.912329 707.211599 235.255474 705.554745 235.255474L677.832117 235.255474 677.832117 235.255474C676.175263 235.255474 674.832117 233.912329 674.832117 232.255474L674.832117 221.394161 674.832117 221.394161C674.832117 219.737306 676.175263 218.394161 677.832117 218.394161z"/>
      <path stroke="#263F6F" stroke-linecap="round" stroke-width="6" d="M701.328467,168.613139 L744.691826,168.613139" opacity=".2"/>
      <path stroke="#DFE4EE" stroke-linecap="round" stroke-width="6" d="M717.386861,179.051095 L744.691826,179.051095" opacity=".4"/>
      <path stroke="#DFE4EE" d="M640.854015,141.813869 C632.845886,141.813869 626.354015,148.30574 626.354015,156.313869 L626.354015,232.298613 C626.354015,240.306742 632.845886,246.798613 640.854015,246.798613 L742.532847,246.798613 C750.540976,246.798613 757.032847,240.306742 757.032847,232.298613 L757.032847,156.313869 C757.032847,148.30574 750.540976,141.813869 742.532847,141.813869 L640.854015,141.813869 Z" opacity=".5"/>
      <g transform="translate(221.182 158.175)">
        <circle cx="14.453" cy="14.453" r="14.453" fill="#F5A623"/>
        <path fill="#FFF" fill-rule="nonzero" d="M17.9673412,13.6495604 C18.7992238,13.2261401 19.3197142,12.4804329 19.198131,11.2381233 C19.0343978,9.54037902 17.5672285,8.97108573 15.7151276,8.80895993 L15.7147704,6.4540503 L14.2797494,6.4540503 L14.2793476,8.74702975 C13.9017834,8.74702975 13.5168964,8.75444172 13.1337509,8.7621216 L13.1334383,6.45436285 L11.6997122,6.4542289 L11.6994443,8.80855807 C11.3887218,8.81489844 11.0835806,8.82092625 10.7856281,8.82092625 L10.7856281,8.81396078 L8.80627347,8.81315707 L8.80654138,10.343864 C8.80654138,10.343864 9.86627526,10.3239499 9.84881694,10.3432835 C10.4298533,10.3436854 10.6195731,10.6807963 10.6741359,10.9717833 L10.6745824,13.6545166 L10.6745824,17.422881 C10.6489977,17.6055013 10.5413455,17.8972921 10.135071,17.8978279 C10.1535563,17.9140806 9.09118802,17.8976493 9.09118802,17.8976493 L8.80654138,19.6093244 L10.6736894,19.6093244 C11.0216058,19.6097263 11.3634497,19.615129 11.6988192,19.617808 L11.7000694,21.999374 L13.1334383,21.9997758 L13.1330365,19.6431695 C13.5273893,19.6512066 13.9080344,19.6546893 14.2798388,19.6541981 L14.2794369,21.9997758 L15.7144132,21.9997758 L15.7152169,19.6221838 C18.1273238,19.4837674 19.816004,18.8766551 20.0259504,16.6134129 C20.1951756,14.7912725 19.3368153,13.9779198 17.9673412,13.6495604 Z M13.1680424,10.4471851 C13.9773766,10.4471851 16.5227204,10.1896859 16.5230776,11.8788573 C16.5227204,13.4982846 13.9781803,13.3091006 13.1680424,13.3091006 L13.1680424,10.4471851 L13.1680424,10.4471851 Z M13.1674173,17.909437 L13.1680424,14.7539001 C14.14044,14.7536322 17.1903786,14.4743436 17.1907805,16.3309541 C17.1911823,18.1114356 14.14044,17.9087226 13.1674173,17.909437 Z" transform="rotate(10 14.427 14.227)"/>
      </g>
      <g transform="translate(500.599 158.175)">
        <circle cx="14.453" cy="14.453" r="14.453" fill="#35980A"/>
        <path fill="#FFF" fill-rule="nonzero" d="M19.0996982,15.885302 C19.0108617,15.609562 18.9030788,15.3695789 18.7764931,15.1657811 C18.6499793,14.9617856 18.4687831,14.7627993 18.2325449,14.5681632 C17.9965944,14.3736259 17.784336,14.2169547 17.5961292,14.097853 C17.4080303,13.9786524 17.1496459,13.8453797 16.8211199,13.6978701 C16.4928816,13.5503936 16.2328075,13.4406512 16.0413651,13.3684783 C15.849671,13.2964043 15.5723761,13.1976032 15.2096601,13.072141 C14.8880728,12.9593008 14.6486349,12.8730229 14.4910949,12.8134721 C14.3337346,12.7538553 14.126797,12.6692251 13.8701743,12.5593839 C13.6136594,12.4497075 13.4220373,12.3524224 13.2954156,12.2677922 C13.1688299,12.1831621 13.0337237,12.0796813 12.8899891,11.9573829 C12.7462545,11.8350844 12.6453383,11.7049096 12.5871326,11.5669242 C12.5290707,11.4289059 12.4999499,11.2783315 12.4999499,11.115234 C12.4999499,10.6887877 12.7051618,10.3405453 13.1157294,10.0709021 C13.5263329,9.80125885 14.0567273,9.66637134 14.7068406,9.66637134 C14.9940941,9.66637134 15.2869561,9.70239187 15.5844199,9.77459772 C15.8818836,9.84680357 16.1368166,9.92813814 16.3489672,10.0191617 C16.5612975,10.1101852 16.7613683,10.2105681 16.9496111,10.3202775 C17.1378178,10.4300858 17.2711984,10.5131341 17.3499684,10.5695871 C17.4286665,10.6260731 17.4785314,10.6636755 17.4988441,10.6825261 C17.5879322,10.7452408 17.6800763,10.7671563 17.7758874,10.7484045 C17.8784933,10.7421429 17.9572633,10.6918856 18.0121255,10.597896 L18.8436867,9.2241723 C18.9257642,9.09877601 18.9087951,8.97957539 18.7923837,8.86660339 C18.751255,8.82896802 18.7001318,8.78510404 18.6381153,8.73487962 C18.5767099,8.68465519 18.4432215,8.59373053 18.2377579,8.46194084 C18.0325101,8.33025003 17.8152544,8.21263128 17.5861706,8.10911755 C17.3568352,8.00570269 17.0590838,7.90057414 16.6929524,7.79399553 C16.3270367,7.68725215 15.9488615,7.61517812 15.5587145,7.57757572 L15.5587145,5.92152086 C15.5587145,5.83375994 15.5279758,5.76158705 15.4665704,5.70510105 C15.4050212,5.64874687 15.3262872,5.62043796 15.2303323,5.62043796 L13.8445408,5.62043796 C13.7555965,5.62043796 13.678624,5.65019692 13.6136235,5.70981371 C13.5486229,5.76943049 13.5161227,5.83995561 13.5161227,5.92152086 L13.5161227,7.61514517 C12.4417442,7.80325607 11.5692701,8.2235396 10.8986643,8.87589688 C10.2281305,9.52828712 9.89273777,10.2871571 9.89273777,11.1528693 C9.89273777,11.4100223 9.92193049,11.6546522 9.98010023,11.8866271 C10.0381981,12.1187997 10.1101013,12.3273761 10.1956662,12.5123891 C10.2811592,12.697534 10.4026757,12.8793834 10.560036,13.0582008 C10.7173962,13.2369523 10.8662719,13.3906575 11.0065192,13.5191846 C11.1468384,13.6476787 11.3299041,13.7810173 11.5556444,13.9189697 C11.7815285,14.0570539 11.9748404,14.168477 12.135688,14.2531071 C12.2965715,14.3374736 12.5103759,14.4350223 12.7771729,14.544534 C13.0440418,14.6543752 13.2545386,14.7373905 13.4085194,14.7939754 C13.5625003,14.8503625 13.7728892,14.9288629 14.039866,15.0290151 C14.4093409,15.1607389 14.6831125,15.2627037 14.8610012,15.3348766 C15.0390337,15.4070495 15.2647739,15.5073995 15.5386534,15.6359925 C15.8122813,15.7644536 16.0123521,15.8821053 16.1390456,15.9887828 C16.2656313,16.0954603 16.3802092,16.2271841 16.482923,16.3839541 C16.5856368,16.5407242 16.6370836,16.7069526 16.6370836,16.8826721 C16.6370836,17.3782264 16.4266587,17.7607757 16.0057011,18.0302871 C15.5849232,18.3000951 15.0972034,18.4349496 14.543009,18.4349496 C14.2900534,18.4349496 14.0366663,18.4100022 13.7835668,18.3598437 C12.8939797,18.1965484 12.0625983,17.8045078 11.2893507,17.1835573 L11.2688223,17.1647396 C11.2072012,17.0959282 11.1250517,17.0676522 11.0225177,17.0802743 C10.913009,17.0927974 10.834275,17.1304657 10.7864234,17.1933122 L9.72915786,18.4634233 C9.62648001,18.5888525 9.63341867,18.7174126 9.74972219,18.8491363 C9.78398409,18.8868047 9.84384356,18.9433895 9.92933653,19.0185284 C10.0150452,19.0939639 10.1741671,19.211385 10.4067023,19.3716483 C10.6393093,19.531681 10.8925166,19.6820247 11.1662883,19.8233386 C11.440024,19.9644218 11.7872448,20.1039231 12.2081665,20.2419743 C12.6290881,20.3797949 13.0652173,20.4769812 13.5168777,20.5334012 L13.5168777,22.1799649 C13.5168777,22.261629 13.5494139,22.3321211 13.6143785,22.3917709 C13.679415,22.4514536 13.7563515,22.4811137 13.8452958,22.4811137 L15.2310873,22.4811137 C15.3270422,22.4811137 15.4057762,22.4529366 15.4672895,22.3965495 C15.5288027,22.3401623 15.5594335,22.2679894 15.5594335,22.1799978 L15.5594335,20.5334342 C16.6476533,20.3703696 17.5320994,19.9422426 18.2128794,19.2490862 C18.8937313,18.5559298 19.2342652,17.7295008 19.2342652,16.7698649 C19.2339057,16.4562918 19.1895054,16.1614705 19.0996982,15.885302 Z"/>
      </g>
      <g transform="translate(638.7 158.175)">
        <circle cx="14.453" cy="14.453" r="14.453" fill="#F58823"/>
        <path fill="#FFF" fill-rule="nonzero" d="M19.0492701,17.9184915 C18.8217762,17.6909976 18.4805353,17.747871 18.2530414,17.975365 L18.1961679,18.0322384 C17.6843066,18.6009732 16.6605839,19.6815693 14.9543796,19.6815693 C13.81691,19.6815693 12.7931873,19.2265815 11.9969586,18.4872263 C11.8263382,18.3166058 11.9400852,17.975365 12.2244526,17.975365 L13.81691,17.975365 C14.1581509,17.975365 14.3856448,17.747871 14.3856448,17.4066302 L14.3856448,16.2691606 C14.3856448,15.9279197 14.1581509,15.7004258 13.81691,15.7004258 L10.7457421,15.7004258 C10.6319951,15.7004258 10.4613747,15.5866788 10.4613747,15.4729319 C10.4045012,15.1885645 10.4045012,14.9041971 10.4045012,14.5629562 C10.4045012,14.2217153 10.4045012,13.9373479 10.4613747,13.6529805 C10.4613747,13.5392336 10.6319951,13.4254866 10.7457421,13.4254866 L13.81691,13.4254866 C14.1581509,13.4254866 14.3856448,13.1979927 14.3856448,12.8567518 L14.3856448,11.7192822 C14.3856448,11.3780414 14.1581509,11.1505474 13.81691,11.1505474 L12.2244526,11.1505474 C11.9969586,11.1505474 11.8263382,10.8093066 11.9969586,10.6386861 C12.7931873,9.8993309 13.81691,9.44434307 14.9543796,9.44434307 C16.6605839,9.44434307 17.6843066,10.5818127 18.1961679,11.093674 L18.2530414,11.1505474 C18.4805353,11.3780414 18.8217762,11.3780414 19.0492701,11.2074209 L19.9023723,10.4680657 C20.0161192,10.3543187 20.0729927,10.2405718 20.0729927,10.0699513 C20.0729927,9.8993309 20.0161192,9.78558394 19.9023723,9.67183698 C19.276764,9.04622871 17.6843066,7.22627737 14.9543796,7.22627737 C12.395073,7.22627737 10.1201338,8.76186131 8.98266423,11.0368005 C8.92579075,11.1505474 8.8120438,11.2074209 8.75517032,11.2074209 L6.99209246,11.2074209 C6.65085158,11.2074209 6.42335766,11.4349148 6.42335766,11.7761557 L6.42335766,12.9136253 C6.42335766,13.2548662 6.65085158,13.4823601 6.99209246,13.4823601 L7.90206813,13.4823601 C8.07268856,13.4823601 8.18643552,13.6529805 8.18643552,13.823601 C8.12956204,14.1079684 8.12956204,14.3923358 8.12956204,14.6198297 C8.12956204,14.8473236 8.12956204,15.1885645 8.18643552,15.4160584 C8.18643552,15.5866788 8.07268856,15.7572993 7.90206813,15.7572993 L6.99209246,15.7572993 C6.65085158,15.7572993 6.42335766,15.9847932 6.42335766,16.3260341 L6.42335766,17.4635036 C6.42335766,17.8047445 6.65085158,18.0322384 6.99209246,18.0322384 L8.75517032,18.0322384 C8.86891727,18.0322384 8.98266423,18.0891119 8.98266423,18.2028589 C10.1201338,20.4777981 12.395073,22.013382 14.9543796,22.013382 C17.6843066,22.013382 19.276764,20.2503041 19.9023723,19.5678224 C20.0161192,19.4540754 20.0729927,19.3403285 20.0729927,19.169708 C20.0729927,18.9990876 20.0161192,18.8284672 19.9023723,18.7715937 L19.0492701,17.9184915 Z"/>
      </g>
      <path fill="#4A4A4A" d="M9.96222628,24.0474453 L0.106386861,18.2262774 L9.96021898,32.1167883 L19.8240876,18.2262774 L9.96021898,24.0474453 L9.96222628,24.0474453 Z M10.1107664,0 L0.254927007,16.3554745 L10.1107664,22.1826642 L19.9666058,16.3574818 L10.1127737,0 L10.1107664,0 Z" transform="translate(360.89 156.57)"/>
    </g>
  </g>
</svg>
