<svg xmlns="http://www.w3.org/2000/svg" width="100%" height="100%" viewBox="0 0 1200 700">
  <g fill="none" fill-rule="evenodd" transform="translate(2)">
    <g transform="translate(80.724)">
      <path fill="#172947" d="M4,8.45016331e-15 L967.980408,7.50429666e-13 L967.980408,7.531753e-13 C970.189547,8.78344489e-13 971.980408,1.790861 971.980408,4 L971.980408,607.884993 L971.980408,607.884993 C971.980408,610.094132 970.189547,611.884993 967.980408,611.884993 L4,611.884993 L4,611.884993 C1.790861,611.884993 2.705415e-16,610.094132 0,607.884993 L0,4 L-3.10862447e-15,4 C-3.37916597e-15,1.790861 1.790861,4.05816873e-16 4,0 Z" transform="translate(1.647)"/>
      <path stroke="#DFE4EE" stroke-linecap="round" stroke-width="6" d="M98.8454652 173.174998L128.499105 173.174998M149.915622 173.174998L205.928052 173.174998M98.8454652 194.615712L128.499105 194.615712M149.915622 194.615712L205.928052 194.615712M227.34457 194.615712L398.67671 194.615712M227.34457 216.056426L398.67671 216.056426M98.8454652 216.056426L128.499105 216.056426M149.915622 216.056426L205.928052 216.056426M420.093227 216.056426L476.105657 216.056426M227.34457 237.49714L398.67671 237.49714M98.8454652 237.49714L128.499105 237.49714M98.8454652 258.937854L425.0355 258.937854M98.8454652 280.378568L873.134942 280.378568M98.8454652 301.819282L873.134942 301.819282M98.8454652 323.259996L873.134942 323.259996M98.8454652 344.70071L873.134942 344.70071M98.8454652 366.141424L873.134942 366.141424M98.8454652 385.932853L873.134942 385.932853M98.8454652 407.373567L873.134942 407.373567M98.8454652 428.814281L873.134942 428.814281M98.8454652 493.136423L873.134942 493.136423M446.452018 258.937854L871.487518 258.937854M149.915622 237.49714L205.928052 237.49714M98.8454652 450.254995L128.499105 450.254995M149.915622 450.254995L205.928052 450.254995M227.34457 450.254995L398.67671 450.254995M227.34457 471.695709L398.67671 471.695709M98.8454652 471.695709L128.499105 471.695709M149.915622 471.695709L205.928052 471.695709M420.093227 237.49714L476.105657 237.49714M497.522175 237.49714L767.69978 237.49714" opacity=".4"/>
      <ellipse cx="59.307" cy="41.232" fill="#ED6B60" opacity=".5" rx="9.885" ry="9.896"/>
      <ellipse cx="93.903" cy="41.232" fill="#F6C050" opacity=".5" rx="9.885" ry="9.896"/>
      <ellipse cx="128.499" cy="41.232" fill="#64CA57" opacity=".5" rx="9.885" ry="9.896"/>
      <path stroke="#DFE4EE" stroke-linecap="square" d="M0.82371221,84.9382133 L974.854258,84.9382133" opacity=".1"/>
    </g>
    <g transform="translate(0 84.114)">
      <path fill="#FFF" d="M4,8.44940437e-15 L967.980408,7.50428907e-13 L967.980408,7.531753e-13 C970.189547,7.52769483e-13 971.980408,1.790861 971.980408,4 L971.980408,607.884993 L971.980408,607.884993 C971.980408,610.094132 970.189547,611.884993 967.980408,611.884993 L4,611.884993 L4,611.884993 C1.790861,611.884993 2.705415e-16,610.094132 0,607.884993 L0,4 L-3.99680289e-15,4 C-5.24839918e-15,1.790861 1.790861,-4.82361547e-16 4,-8.8817842e-16 Z"/>
      <rect width="971.98" height="65.971" y="82.464" fill="#DFE4EE" rx="4"/>
      <path fill="#A2E0F5" fill-rule="nonzero" d="M72.4866745 239.146426L90.6083431 239.146426C93.3378852 239.146426 95.5506163 236.931195 95.5506163 234.198569 95.5506163 231.465943 93.3378852 229.250712 90.6083431 229.250712L72.4866745 229.250712C69.7571323 229.250712 67.5444012 231.465943 67.5444012 234.198569 67.5444012 236.931195 69.7571323 239.146426 72.4866745 239.146426zM764.404931 239.146426L897.846309 239.146426C900.575851 239.146426 902.788582 236.931195 902.788582 234.198569 902.788582 231.465943 900.575851 229.250712 897.846309 229.250712L764.404931 229.250712C761.675389 229.250712 759.462657 231.465943 759.462657 234.198569 759.462657 236.931195 761.675389 239.146426 764.404931 239.146426z"/>
      <path fill="#4F89DC" fill-rule="nonzero" d="M495.87475,239.146426 L596.36764,239.146426 C599.097182,239.146426 601.309913,236.931195 601.309913,234.198569 C601.309913,231.465943 599.097182,229.250712 596.36764,229.250712 L495.87475,229.250712 C493.145208,229.250712 490.932477,231.465943 490.932477,234.198569 C490.932477,236.931195 493.145208,239.146426 495.87475,239.146426 Z"/>
      <path fill="#DFE4EE" fill-rule="nonzero" d="M112.024861,239.146426 L476.105657,239.146426 C478.835199,239.146426 481.047931,236.931195 481.047931,234.198569 C481.047931,231.465943 478.835199,229.250712 476.105657,229.250712 L112.024861,229.250712 C109.295318,229.250712 107.082587,231.465943 107.082587,234.198569 C107.082587,236.931195 109.295318,239.146426 112.024861,239.146426 Z"/>
      <path fill="#A2E0F5" fill-rule="nonzero" d="M72.4866745 265.534997L90.6083431 265.534997C93.3378852 265.534997 95.5506163 263.319766 95.5506163 260.58714 95.5506163 257.854514 93.3378852 255.639283 90.6083431 255.639283L72.4866745 255.639283C69.7571323 255.639283 67.5444012 257.854514 67.5444012 260.58714 67.5444012 263.319766 69.7571323 265.534997 72.4866745 265.534997zM780.879175 265.534997L897.846309 265.534997C900.575851 265.534997 902.788582 263.319766 902.788582 260.58714 902.788582 257.854514 900.575851 255.639283 897.846309 255.639283L780.879175 255.639283C778.149633 255.639283 775.936902 257.854514 775.936902 260.58714 775.936902 263.319766 778.149633 265.534997 780.879175 265.534997z"/>
      <path fill="#4F89DC" fill-rule="nonzero" d="M495.87475,265.534997 L629.316128,265.534997 C632.04567,265.534997 634.258402,263.319766 634.258402,260.58714 C634.258402,257.854514 632.04567,255.639283 629.316128,255.639283 L495.87475,255.639283 C493.145208,255.639283 490.932477,257.854514 490.932477,260.58714 C490.932477,263.319766 493.145208,265.534997 495.87475,265.534997 Z"/>
      <path fill="#DFE4EE" fill-rule="nonzero" d="M112.024861,265.534997 L476.105657,265.534997 C478.835199,265.534997 481.047931,263.319766 481.047931,260.58714 C481.047931,257.854514 478.835199,255.639283 476.105657,255.639283 L112.024861,255.639283 C109.295318,255.639283 107.082587,257.854514 107.082587,260.58714 C107.082587,263.319766 109.295318,265.534997 112.024861,265.534997 Z"/>
      <path fill="#A2E0F5" fill-rule="nonzero" d="M72.4866745 291.923568L90.6083431 291.923568C93.3378852 291.923568 95.5506163 289.708337 95.5506163 286.975711 95.5506163 284.243085 93.3378852 282.027854 90.6083431 282.027854L72.4866745 282.027854C69.7571323 282.027854 67.5444012 284.243085 67.5444012 286.975711 67.5444012 289.708337 69.7571323 291.923568 72.4866745 291.923568zM787.468873 291.923568L897.846309 291.923568C900.575851 291.923568 902.788582 289.708337 902.788582 286.975711 902.788582 284.243085 900.575851 282.027854 897.846309 282.027854L787.468873 282.027854C784.73933 282.027854 782.526599 284.243085 782.526599 286.975711 782.526599 289.708337 784.73933 291.923568 787.468873 291.923568z"/>
      <path fill="#4F89DC" fill-rule="nonzero" d="M495.87475,291.923568 L579.893396,291.923568 C582.622938,291.923568 584.835669,289.708337 584.835669,286.975711 C584.835669,284.243085 582.622938,282.027854 579.893396,282.027854 L495.87475,282.027854 C493.145208,282.027854 490.932477,284.243085 490.932477,286.975711 C490.932477,289.708337 493.145208,291.923568 495.87475,291.923568 Z"/>
      <path fill="#DFE4EE" fill-rule="nonzero" d="M112.024861,291.923568 L476.105657,291.923568 C478.835199,291.923568 481.047931,289.708337 481.047931,286.975711 C481.047931,284.243085 478.835199,282.027854 476.105657,282.027854 L112.024861,282.027854 C109.295318,282.027854 107.082587,284.243085 107.082587,286.975711 C107.082587,289.708337 109.295318,291.923568 112.024861,291.923568 Z"/>
      <path fill="#A2E0F5" fill-rule="nonzero" d="M72.4866745 318.312139L90.6083431 318.312139C93.3378852 318.312139 95.5506163 316.096908 95.5506163 313.364282 95.5506163 310.631656 93.3378852 308.416425 90.6083431 308.416425L72.4866745 308.416425C69.7571323 308.416425 67.5444012 310.631656 67.5444012 313.364282 67.5444012 316.096908 69.7571323 318.312139 72.4866745 318.312139zM797.353419 318.312139L897.846309 318.312139C900.575851 318.312139 902.788582 316.096908 902.788582 313.364282 902.788582 310.631656 900.575851 308.416425 897.846309 308.416425L797.353419 308.416425C794.623877 308.416425 792.411146 310.631656 792.411146 313.364282 792.411146 316.096908 794.623877 318.312139 797.353419 318.312139z"/>
      <path fill="#4F89DC" fill-rule="nonzero" d="M495.87475,318.312139 L662.264617,318.312139 C664.994159,318.312139 667.20689,316.096908 667.20689,313.364282 C667.20689,310.631656 664.994159,308.416425 662.264617,308.416425 L495.87475,308.416425 C493.145208,308.416425 490.932477,310.631656 490.932477,313.364282 C490.932477,316.096908 493.145208,318.312139 495.87475,318.312139 Z"/>
      <path fill="#DFE4EE" fill-rule="nonzero" d="M112.024861,318.312139 L476.105657,318.312139 C478.835199,318.312139 481.047931,316.096908 481.047931,313.364282 C481.047931,310.631656 478.835199,308.416425 476.105657,308.416425 L112.024861,308.416425 C109.295318,308.416425 107.082587,310.631656 107.082587,313.364282 C107.082587,316.096908 109.295318,318.312139 112.024861,318.312139 Z"/>
      <path fill="#A2E0F5" fill-rule="nonzero" d="M72.4866745 344.70071L90.6083431 344.70071C93.3378852 344.70071 95.5506163 342.485479 95.5506163 339.752853 95.5506163 337.020227 93.3378852 334.804996 90.6083431 334.804996L72.4866745 334.804996C69.7571323 334.804996 67.5444012 337.020227 67.5444012 339.752853 67.5444012 342.485479 69.7571323 344.70071 72.4866745 344.70071zM802.295692 344.70071L897.846309 344.70071C900.575851 344.70071 902.788582 342.485479 902.788582 339.752853 902.788582 337.020227 900.575851 334.804996 897.846309 334.804996L802.295692 334.804996C799.56615 334.804996 797.353419 337.020227 797.353419 339.752853 797.353419 342.485479 799.56615 344.70071 802.295692 344.70071z"/>
      <path fill="#4F89DC" fill-rule="nonzero" d="M495.87475,344.70071 L563.419152,344.70071 C566.148694,344.70071 568.361425,342.485479 568.361425,339.752853 C568.361425,337.020227 566.148694,334.804996 563.419152,334.804996 L495.87475,334.804996 C493.145208,334.804996 490.932477,337.020227 490.932477,339.752853 C490.932477,342.485479 493.145208,344.70071 495.87475,344.70071 Z"/>
      <path fill="#DFE4EE" fill-rule="nonzero" d="M112.024861,344.70071 L476.105657,344.70071 C478.835199,344.70071 481.047931,342.485479 481.047931,339.752853 C481.047931,337.020227 478.835199,334.804996 476.105657,334.804996 L112.024861,334.804996 C109.295318,334.804996 107.082587,337.020227 107.082587,339.752853 C107.082587,342.485479 109.295318,344.70071 112.024861,344.70071 Z"/>
      <path fill="#A2E0F5" fill-rule="nonzero" d="M72.4866745 371.089281L90.6083431 371.089281C93.3378852 371.089281 95.5506163 368.87405 95.5506163 366.141424 95.5506163 363.408798 93.3378852 361.193567 90.6083431 361.193567L72.4866745 361.193567C69.7571323 361.193567 67.5444012 363.408798 67.5444012 366.141424 67.5444012 368.87405 69.7571323 371.089281 72.4866745 371.089281zM803.943117 371.089281L897.846309 371.089281C900.575851 371.089281 902.788582 368.87405 902.788582 366.141424 902.788582 363.408798 900.575851 361.193567 897.846309 361.193567L803.943117 361.193567C801.213575 361.193567 799.000844 363.408798 799.000844 366.141424 799.000844 368.87405 801.213575 371.089281 803.943117 371.089281z"/>
      <path fill="#4F89DC" fill-rule="nonzero" d="M495.87475,371.089281 L761.110082,371.089281 C763.839624,371.089281 766.052355,368.87405 766.052355,366.141424 C766.052355,363.408798 763.839624,361.193567 761.110082,361.193567 L495.87475,361.193567 C493.145208,361.193567 490.932477,363.408798 490.932477,366.141424 C490.932477,368.87405 493.145208,371.089281 495.87475,371.089281 Z"/>
      <path fill="#DFE4EE" fill-rule="nonzero" d="M112.024861,371.089281 L476.105657,371.089281 C478.835199,371.089281 481.047931,368.87405 481.047931,366.141424 C481.047931,363.408798 478.835199,361.193567 476.105657,361.193567 L112.024861,361.193567 C109.295318,361.193567 107.082587,363.408798 107.082587,366.141424 C107.082587,368.87405 109.295318,371.089281 112.024861,371.089281 Z"/>
      <path fill="#A2E0F5" fill-rule="nonzero" d="M72.4866745 397.477852L90.6083431 397.477852C93.3378852 397.477852 95.5506163 395.262621 95.5506163 392.529995 95.5506163 389.797369 93.3378852 387.582138 90.6083431 387.582138L72.4866745 387.582138C69.7571323 387.582138 67.5444012 389.797369 67.5444012 392.529995 67.5444012 395.262621 69.7571323 397.477852 72.4866745 397.477852zM812.180239 397.477852L897.846309 397.477852C900.575851 397.477852 902.788582 395.262621 902.788582 392.529995 902.788582 389.797369 900.575851 387.582138 897.846309 387.582138L812.180239 387.582138C809.450697 387.582138 807.237966 389.797369 807.237966 392.529995 807.237966 395.262621 809.450697 397.477852 812.180239 397.477852z"/>
      <path fill="#4F89DC" fill-rule="nonzero" d="M495.87475,397.477852 L530.470663,397.477852 C533.200205,397.477852 535.412936,395.262621 535.412936,392.529995 C535.412936,389.797369 533.200205,387.582138 530.470663,387.582138 L495.87475,387.582138 C493.145208,387.582138 490.932477,389.797369 490.932477,392.529995 C490.932477,395.262621 493.145208,397.477852 495.87475,397.477852 Z"/>
      <path fill="#DFE4EE" fill-rule="nonzero" d="M112.024861,397.477852 L476.105657,397.477852 C478.835199,397.477852 481.047931,395.262621 481.047931,392.529995 C481.047931,389.797369 478.835199,387.582138 476.105657,387.582138 L112.024861,387.582138 C109.295318,387.582138 107.082587,389.797369 107.082587,392.529995 C107.082587,395.262621 109.295318,397.477852 112.024861,397.477852 Z"/>
      <path fill="#A2E0F5" fill-rule="nonzero" d="M72.4866745 425.515709L90.6083431 425.515709C93.3378852 425.515709 95.5506163 423.300478 95.5506163 420.567852 95.5506163 417.835226 93.3378852 415.619995 90.6083431 415.619995L72.4866745 415.619995C69.7571323 415.619995 67.5444012 417.835226 67.5444012 420.567852 67.5444012 423.300478 69.7571323 425.515709 72.4866745 425.515709zM813.827663 425.515709L897.846309 425.515709C900.575851 425.515709 902.788582 423.300478 902.788582 420.567852 902.788582 417.835226 900.575851 415.619995 897.846309 415.619995L813.827663 415.619995C811.098121 415.619995 808.88539 417.835226 808.88539 420.567852 808.88539 423.300478 811.098121 425.515709 813.827663 425.515709z"/>
      <path fill="#4F89DC" fill-rule="nonzero" d="M495.87475,425.515709 L629.316128,425.515709 C632.04567,425.515709 634.258402,423.300478 634.258402,420.567852 C634.258402,417.835226 632.04567,415.619995 629.316128,415.619995 L495.87475,415.619995 C493.145208,415.619995 490.932477,417.835226 490.932477,420.567852 C490.932477,423.300478 493.145208,425.515709 495.87475,425.515709 Z"/>
      <path fill="#DFE4EE" fill-rule="nonzero" d="M112.024861,425.515709 L476.105657,425.515709 C478.835199,425.515709 481.047931,423.300478 481.047931,420.567852 C481.047931,417.835226 478.835199,415.619995 476.105657,415.619995 L112.024861,415.619995 C109.295318,415.619995 107.082587,417.835226 107.082587,420.567852 C107.082587,423.300478 109.295318,425.515709 112.024861,425.515709 Z"/>
      <path fill="#A2E0F5" fill-rule="nonzero" d="M72.4866745 451.90428L90.6083431 451.90428C93.3378852 451.90428 95.5506163 449.689049 95.5506163 446.956423 95.5506163 444.223797 93.3378852 442.008566 90.6083431 442.008566L72.4866745 442.008566C69.7571323 442.008566 67.5444012 444.223797 67.5444012 446.956423 67.5444012 449.689049 69.7571323 451.90428 72.4866745 451.90428zM830.301908 451.90428L897.846309 451.90428C900.575851 451.90428 902.788582 449.689049 902.788582 446.956423 902.788582 444.223797 900.575851 442.008566 897.846309 442.008566L830.301908 442.008566C827.572365 442.008566 825.359634 444.223797 825.359634 446.956423 825.359634 449.689049 827.572365 451.90428 830.301908 451.90428z"/>
      <path fill="#4F89DC" fill-rule="nonzero" d="M495.87475,451.90428 L711.687349,451.90428 C714.416891,451.90428 716.629623,449.689049 716.629623,446.956423 C716.629623,444.223797 714.416891,442.008566 711.687349,442.008566 L495.87475,442.008566 C493.145208,442.008566 490.932477,444.223797 490.932477,446.956423 C490.932477,449.689049 493.145208,451.90428 495.87475,451.90428 Z"/>
      <path fill="#DFE4EE" fill-rule="nonzero" d="M112.024861,451.90428 L476.105657,451.90428 C478.835199,451.90428 481.047931,449.689049 481.047931,446.956423 C481.047931,444.223797 478.835199,442.008566 476.105657,442.008566 L112.024861,442.008566 C109.295318,442.008566 107.082587,444.223797 107.082587,446.956423 C107.082587,449.689049 109.295318,451.90428 112.024861,451.90428 Z"/>
      <path fill="#A2E0F5" fill-rule="nonzero" d="M72.4866745 478.292852L90.6083431 478.292852C93.3378852 478.292852 95.5506163 476.07762 95.5506163 473.344994 95.5506163 470.612368 93.3378852 468.397137 90.6083431 468.397137L72.4866745 468.397137C69.7571323 468.397137 67.5444012 470.612368 67.5444012 473.344994 67.5444012 476.07762 69.7571323 478.292852 72.4866745 478.292852zM830.478877 478.292852L897.846309 478.292852C900.575851 478.292852 902.788582 476.07762 902.788582 473.344994 902.788582 470.612368 900.575851 468.397137 897.846309 468.397137L830.478877 468.397137C827.749335 468.397137 825.536604 470.612368 825.536604 473.344994 825.536604 476.07762 827.749335 478.292852 830.478877 478.292852z"/>
      <path fill="#4F89DC" fill-rule="nonzero" d="M495.87475,478.292852 L596.36764,478.292852 C599.097182,478.292852 601.309913,476.07762 601.309913,473.344994 C601.309913,470.612368 599.097182,468.397137 596.36764,468.397137 L495.87475,468.397137 C493.145208,468.397137 490.932477,470.612368 490.932477,473.344994 C490.932477,476.07762 493.145208,478.292852 495.87475,478.292852 Z"/>
      <path fill="#DFE4EE" fill-rule="nonzero" d="M112.024861,478.292852 L476.105657,478.292852 C478.835199,478.292852 481.047931,476.07762 481.047931,473.344994 C481.047931,470.612368 478.835199,468.397137 476.105657,468.397137 L112.024861,468.397137 C109.295318,468.397137 107.082587,470.612368 107.082587,473.344994 C107.082587,476.07762 109.295318,478.292852 112.024861,478.292852 Z"/>
      <path fill="#A2E0F5" fill-rule="nonzero" d="M72.4866745 509.62928L90.6083431 509.62928C93.3378852 509.62928 95.5506163 507.414049 95.5506163 504.681423 95.5506163 501.948797 93.3378852 499.733566 90.6083431 499.733566L72.4866745 499.733566C69.7571323 499.733566 67.5444012 501.948797 67.5444012 504.681423 67.5444012 507.414049 69.7571323 509.62928 72.4866745 509.62928zM879.72464 509.62928L897.846309 509.62928C900.575851 509.62928 902.788582 507.414049 902.788582 504.681423 902.788582 501.948797 900.575851 499.733566 897.846309 499.733566L879.72464 499.733566C876.995098 499.733566 874.782367 501.948797 874.782367 504.681423 874.782367 507.414049 876.995098 509.62928 879.72464 509.62928z"/>
      <path fill="#4F89DC" fill-rule="nonzero" d="M495.87475,509.62928 L579.893396,509.62928 C582.622938,509.62928 584.835669,507.414049 584.835669,504.681423 C584.835669,501.948797 582.622938,499.733566 579.893396,499.733566 L495.87475,499.733566 C493.145208,499.733566 490.932477,501.948797 490.932477,504.681423 C490.932477,507.414049 493.145208,509.62928 495.87475,509.62928 Z"/>
      <path fill="#DFE4EE" fill-rule="nonzero" d="M112.024861,509.62928 L476.105657,509.62928 C478.835199,509.62928 481.047931,507.414049 481.047931,504.681423 C481.047931,501.948797 478.835199,499.733566 476.105657,499.733566 L112.024861,499.733566 C109.295318,499.733566 107.082587,501.948797 107.082587,504.681423 C107.082587,507.414049 109.295318,509.62928 112.024861,509.62928 Z"/>
      <path fill="#A2E0F5" fill-rule="nonzero" d="M72.4866745,509.62928 L90.6083431,509.62928 C93.3378852,509.62928 95.5506163,507.414049 95.5506163,504.681423 C95.5506163,501.948797 93.3378852,499.733566 90.6083431,499.733566 L72.4866745,499.733566 C69.7571323,499.733566 67.5444012,501.948797 67.5444012,504.681423 C67.5444012,507.414049 69.7571323,509.62928 72.4866745,509.62928 Z"/>
      <path fill="#DFE4EE" fill-rule="nonzero" d="M112.024861,509.62928 L476.105657,509.62928 C478.835199,509.62928 481.047931,507.414049 481.047931,504.681423 C481.047931,501.948797 478.835199,499.733566 476.105657,499.733566 L112.024861,499.733566 C109.295318,499.733566 107.082587,501.948797 107.082587,504.681423 C107.082587,507.414049 109.295318,509.62928 112.024861,509.62928 Z"/>
      <polygon fill="#DFE4EE" fill-rule="nonzero" points="68.368 489.838 905.26 489.838 905.26 488.189 68.368 488.189" opacity=".4"/>
      <polygon fill="#DFE4EE" fill-rule="nonzero" points="68.368 461.8 905.26 461.8 905.26 460.151 68.368 460.151" opacity=".4"/>
      <polygon fill="#DFE4EE" fill-rule="nonzero" points="68.368 435.411 905.26 435.411 905.26 433.762 68.368 433.762" opacity=".4"/>
      <polygon fill="#DFE4EE" fill-rule="nonzero" points="68.368 409.023 905.26 409.023 905.26 407.374 68.368 407.374" opacity=".4"/>
      <polygon fill="#DFE4EE" fill-rule="nonzero" points="68.368 382.634 905.26 382.634 905.26 380.985 68.368 380.985" opacity=".4"/>
      <polygon fill="#DFE4EE" fill-rule="nonzero" points="68.368 354.596 905.26 354.596 905.26 352.947 68.368 352.947" opacity=".4"/>
      <polygon fill="#DFE4EE" fill-rule="nonzero" points="68.368 328.208 905.26 328.208 905.26 326.559 68.368 326.559" opacity=".4"/>
      <polygon fill="#DFE4EE" fill-rule="nonzero" points="68.368 301.819 905.26 301.819 905.26 300.17 68.368 300.17" opacity=".4"/>
      <polygon fill="#DFE4EE" fill-rule="nonzero" points="68.368 275.431 905.26 275.431 905.26 273.781 68.368 273.781" opacity=".4"/>
      <polygon fill="#DFE4EE" fill-rule="nonzero" points="68.368 249.042 905.26 249.042 905.26 247.393 68.368 247.393" opacity=".4"/>
      <polygon fill="#DFE4EE" fill-rule="nonzero" points="68.368 221.004 905.26 221.004 905.26 219.355 68.368 219.355" opacity=".4"/>
      <polygon fill="#DFE4EE" fill-rule="nonzero" points="50.246 140.189 921.734 140.189 921.734 138.54 50.246 138.54"/>
      <path stroke="#DFE4EE" stroke-linecap="square" d="M51.070157,112.97607 L920.910251,112.97607" opacity=".33"/>
      <ellipse cx="59.307" cy="39.583" fill="#ED6B60" rx="9.885" ry="9.896"/>
      <ellipse cx="93.903" cy="39.583" fill="#F6C050" rx="9.885" ry="9.896"/>
      <ellipse cx="128.499" cy="39.583" fill="#64CA57" rx="9.885" ry="9.896"/>
      <path stroke="#DFE4EE" stroke-linecap="square" d="M0.82371221,83.2889276 L974.854258,83.2889276" opacity=".5"/>
      <path fill="#FFF" fill-rule="nonzero" d="M85.6660698 120.397856L200.985779 120.397856C203.715321 120.397856 205.928052 118.182625 205.928052 115.449999 205.928052 112.717373 203.715321 110.502142 200.985779 110.502142L85.6660698 110.502142C82.9365277 110.502142 80.7237966 112.717373 80.7237966 115.449999 80.7237966 118.182625 82.9365277 120.397856 85.6660698 120.397856zM299.831244 120.397856L382.202465 120.397856C384.932008 120.397856 387.144739 118.182625 387.144739 115.449999 387.144739 112.717373 384.932008 110.502142 382.202465 110.502142L299.831244 110.502142C297.101702 110.502142 294.888971 112.717373 294.888971 115.449999 294.888971 118.182625 297.101702 120.397856 299.831244 120.397856zM851.718425 120.397856L884.666913 120.397856C887.396456 120.397856 889.609187 118.182625 889.609187 115.449999 889.609187 112.717373 887.396456 110.502142 884.666913 110.502142L851.718425 110.502142C848.988883 110.502142 846.776152 112.717373 846.776152 115.449999 846.776152 118.182625 848.988883 120.397856 851.718425 120.397856zM425.0355 120.397856L507.406721 120.397856C510.136263 120.397856 512.348995 118.182625 512.348995 115.449999 512.348995 112.717373 510.136263 110.502142 507.406721 110.502142L425.0355 110.502142C422.305958 110.502142 420.093227 112.717373 420.093227 115.449999 420.093227 118.182625 422.305958 120.397856 425.0355 120.397856zM550.239756 120.397856L632.610977 120.397856C635.340519 120.397856 637.55325 118.182625 637.55325 115.449999 637.55325 112.717373 635.340519 110.502142 632.610977 110.502142L550.239756 110.502142C547.510214 110.502142 545.297483 112.717373 545.297483 115.449999 545.297483 118.182625 547.510214 120.397856 550.239756 120.397856z"/>
    </g>
  </g>
</svg>