<svg xmlns="http://www.w3.org/2000/svg" xmlns:xlink="http://www.w3.org/1999/xlink" width="87" height="87" viewBox="0 0 87 87">
    <defs>
        <path id="a" d="M0 .398h49.436v34.267H0z"/>
        <path id="c" d="M.02.398h49.525v34.328H.019z"/>
    </defs>
    <g fill="none" fill-rule="evenodd">
        <circle cx="43.5" cy="43.5" r="43.5" fill="#193564"/>
        <g transform="translate(19 23.666)">
            <mask id="b" fill="#fff">
                <use xlink:href="#a"/>
            </mask>
            <path fill="#FFF" d="M28.044 34.62h7.758c.335.027.674.045 1.014.045 6.97 0 12.62-5.65 12.62-12.62 0-6.97-5.65-12.62-12.62-12.62-.173 0-.346.006-.518.013-1.542-5.225-6.375-9.04-12.101-9.04-5.727 0-10.558 3.815-12.102 9.04C5.369 9.714 0 15.251 0 22.046c0 6.617 5.096 12.041 11.577 12.572v.002h.03c.334.027.672.045 1.013.045.34 0 .68-.018 1.013-.045h7.818" mask="url(#b)"/>
        </g>
        <g transform="translate(19 23.666)">
            <mask id="d" fill="#fff">
                <use xlink:href="#c"/>
            </mask>
            <path fill="#4F89DC" d="M33.278 34.713s3.282.013 3.624.013c6.983 0 12.643-5.66 12.643-12.642 0-6.983-5.66-12.643-12.643-12.643-.174 0-.346.007-.519.013C34.837 4.22 29.996.398 24.26.398S13.683 4.219 12.137 9.454C5.4 9.731.02 15.278.02 22.084c0 6.63 5.106 12.064 11.6 12.596v.002h.028c1.079.076 4.342 0 4.342 0" mask="url(#d)"/>
        </g>
        <path stroke="#A2E0F5" stroke-linecap="round" stroke-width="3" d="M43.586 29.042s-5.605.204-6.922 5.002"/>
        <path fill="#0044BA" d="M36.044 44.596h5.437v-7.743c0-.5.405-.904.904-.904h2.525c.5 0 .904.404.904.904v7.73h5.438c.352 0 .529.426.28.675l-7.085 7.073c-.45.45-1.18.45-1.629 0l-7.053-7.06a.396.396 0 0 1 .28-.675"/>
    </g>
</svg>
