<svg xmlns="http://www.w3.org/2000/svg" width="100%" viewBox="0 0 50 50">
  <g fill="none" fill-rule="evenodd" transform="translate(5 4)">
    <path fill="#4F77FC" d="M0 37C0 39.2 1.8 41 4 41L37 41C39.2 41 41 39.2 41 37L41 17 0 17 0 37zM41 4C41 1.8 39.2 0 37 0L4 0C1.8 0 0 1.8 0 4L0 14 41 14 41 4z"/>
    <polygon fill="#002EFF" points="0 17 41 17 41 14 0 14"/>
    <path fill="#002EFF" d="M9.5 7.5C9.5 8.604 8.604 9.5 7.5 9.5 6.396 9.5 5.5 8.604 5.5 7.5 5.5 6.396 6.396 5.5 7.5 5.5 8.604 5.5 9.5 6.396 9.5 7.5M15.5 7.5C15.5 8.604 14.604 9.5 13.5 9.5 12.396 9.5 11.5 8.604 11.5 7.5 11.5 6.396 12.396 5.5 13.5 5.5 14.604 5.5 15.5 6.396 15.5 7.5M21.5 7.5C21.5 8.604 20.604 9.5 19.5 9.5 18.396 9.5 17.5 8.604 17.5 7.5 17.5 6.396 18.396 5.5 19.5 5.5 20.604 5.5 21.5 6.396 21.5 7.5"/>
    <g fill="#FFF" fill-rule="nonzero" transform="translate(20 21)">
      <path d="M12.0479932,6.46230678 L7.87599322,2.29030678 C7.48951751,1.90383107 6.84868249,1.90383107 6.46220678,2.29030678 L2.29020678,6.46230678 C1.90373107,6.84878249 1.90373107,7.48961751 2.29020678,7.87609322 L6.46220678,12.0480932 C6.84868249,12.4345689 7.48951751,12.4345689 7.87599322,12.0480932 L12.0479932,7.87609322 C12.4344689,7.48961751 12.4344689,6.84878249 12.0479932,6.46230678 Z M13.4622068,9.29030678 L9.29020678,13.4623068 C8.12268249,14.6298311 6.21551751,14.6298311 5.04799322,13.4623068 L0.875993219,9.29030678 C-0.291531073,8.12278249 -0.291531073,6.21561751 0.875993219,5.04809322 L5.04799322,0.876093219 C6.21551751,-0.291431073 8.12268249,-0.291431073 9.29020678,0.876093219 L13.4622068,5.04809322 C14.6297311,6.21561751 14.6297311,8.12278249 13.4622068,9.29030678 Z"/>
      <path d="M2.46199322,5.87630678 L4.46199322,7.87630678 C4.85251751,8.26683107 5.48568249,8.26683107 5.87620678,7.87630678 C6.26673107,7.48578249 6.26673107,6.85261751 5.87620678,6.46209322 L3.87620678,4.46209322 C3.48568249,4.07156893 2.85251751,4.07156893 2.46199322,4.46209322 C2.07146893,4.85261751 2.07146893,5.48578249 2.46199322,5.87630678 Z"/>
      <path d="M6.46199322 4.46209322L4.46199322 6.46209322C4.07146893 6.85261751 4.07146893 7.48578249 4.46199322 7.87630678 4.85251751 8.26683107 5.48568249 8.26683107 5.87620678 7.87630678L7.87620678 5.87630678C8.26673107 5.48578249 8.26673107 4.85261751 7.87620678 4.46209322 7.48568249 4.07156893 6.85251751 4.07156893 6.46199322 4.46209322zM10.4619932 4.46209322L8.46199322 6.46209322C8.07146893 6.85261751 8.07146893 7.48578249 8.46199322 7.87630678 8.85251751 8.26683107 9.48568249 8.26683107 9.87620678 7.87630678L11.8762068 5.87630678C12.2667311 5.48578249 12.2667311 4.85261751 11.8762068 4.46209322 11.4856825 4.07156893 10.8525175 4.07156893 10.4619932 4.46209322z"/>
      <path d="M6.46199322,5.87630678 L8.46199322,7.87630678 C8.85251751,8.26683107 9.48568249,8.26683107 9.87620678,7.87630678 C10.2667311,7.48578249 10.2667311,6.85261751 9.87620678,6.46209322 L7.87620678,4.46209322 C7.48568249,4.07156893 6.85251751,4.07156893 6.46199322,4.46209322 C6.07146893,4.85261751 6.07146893,5.48578249 6.46199322,5.87630678 Z"/>
    </g>
  </g>
</svg>
