<svg xmlns="http://www.w3.org/2000/svg" width="88.11" height="88.11" viewBox="0 0 88.11 88.11"><title>Artboard 231</title><rect x="12.9" y="12.9" width="62.3" height="62.3" transform="translate(-18.25 44.06) rotate(-45)" fill="#0053ff"/><polygon points="44.06 88.11 88.11 44.06 0 44.06 44.06 88.11" fill="#003597"/><path d="M44.06,38.79l-8.58-8.58,8.58-8.58,8.58,8.58Zm-6.11-8.58,6.11,6.11,6.11-6.11L44.06,24.1Z" fill="#fff"/><path d="M57.9,52.63l-8.58-8.58,8.58-8.58,8.58,8.58Zm-6.11-8.58,6.11,6.11L64,44.06,57.9,37.95Z" fill="#fff"/><path d="M30.21,52.63l-8.58-8.58,8.58-8.58,8.58,8.58ZM24.1,44.06l6.11,6.11,6.11-6.11-6.11-6.11Z" fill="#fff"/><path d="M44.06,66.48,35.48,57.9l8.58-8.58,8.58,8.58ZM37.95,57.9,44.06,64l6.11-6.11-6.11-6.11Z" fill="#fff"/></svg>