<svg xmlns="http://www.w3.org/2000/svg" width="100%" viewBox="0 0 50 50">
  <g fill="none" fill-rule="evenodd" transform="translate(5 4)">
    <path fill="#4F77FC" d="M0 37C0 39.2 1.8 41 4 41L37 41C39.2 41 41 39.2 41 37L41 17 0 17 0 37zM41 4C41 1.8 39.2 0 37 0L4 0C1.8 0 0 1.8 0 4L0 14 41 14 41 4z"/>
    <polygon fill="#002EFF" points="0 17 41 17 41 14 0 14"/>
    <path fill="#002EFF" d="M9.5 7.5C9.5 8.604 8.604 9.5 7.5 9.5 6.396 9.5 5.5 8.604 5.5 7.5 5.5 6.396 6.396 5.5 7.5 5.5 8.604 5.5 9.5 6.396 9.5 7.5M15.5 7.5C15.5 8.604 14.604 9.5 13.5 9.5 12.396 9.5 11.5 8.604 11.5 7.5 11.5 6.396 12.396 5.5 13.5 5.5 14.604 5.5 15.5 6.396 15.5 7.5M21.5 7.5C21.5 8.604 20.604 9.5 19.5 9.5 18.396 9.5 17.5 8.604 17.5 7.5 17.5 6.396 18.396 5.5 19.5 5.5 20.604 5.5 21.5 6.396 21.5 7.5"/>
    <path fill="#FFF" fill-rule="nonzero" d="M21.5 25L34.5 25C35.3284271 25 36 24.3284271 36 23.5 36 22.6715729 35.3284271 22 34.5 22L21.5 22C20.6715729 22 20 22.6715729 20 23.5 20 24.3284271 20.6715729 25 21.5 25zM21.5 30L34.5 30C35.3284271 30 36 29.3284271 36 28.5 36 27.6715729 35.3284271 27 34.5 27L21.5 27C20.6715729 27 20 27.6715729 20 28.5 20 29.3284271 20.6715729 30 21.5 30zM21.5 35L34.5 35C35.3284271 35 36 34.3284271 36 33.5 36 32.6715729 35.3284271 32 34.5 32L21.5 32C20.6715729 32 20 32.6715729 20 33.5 20 34.3284271 20.6715729 35 21.5 35z"/>
  </g>
</svg>
