<svg xmlns="http://www.w3.org/2000/svg" xmlns:xlink="http://www.w3.org/1999/xlink" width="100%" height="100%" viewBox="0 0 50 50">
  <defs>
    <polygon id="get-a" points="0 .398 49.436 .398 49.436 34.665 0 34.665"/>
    <polygon id="get-c" points=".019 .398 49.545 .398 49.545 34.726 .019 34.726"/>
  </defs>
  <g fill="none" fill-rule="evenodd" transform="translate(0 7)">
    <g transform="translate(0 .666)">
      <mask id="get-b" fill="#fff">
        <use xlink:href="#get-a"/>
      </mask>
      <path fill="#FFF" d="M28.0438298,34.6201064 L35.8023404,34.6201064 C36.1374468,34.6467021 36.4757447,34.6647872 36.8161702,34.6647872 C43.786383,34.6647872 49.436383,29.0147872 49.436383,22.0456383 C49.436383,15.0754255 43.786383,9.4243617 36.8161702,9.4243617 C36.642766,9.4243617 36.4704255,9.43074468 36.2980851,9.43819149 C34.7555319,4.21265957 29.9225532,0.397765957 24.1970213,0.397765957 C18.4704255,0.397765957 13.6385106,4.21265957 12.0948936,9.43819149 C5.3693617,9.7137234 0.000212765957,15.2509574 0.000212765957,22.0456383 C0.000212765957,28.6626596 5.09595745,34.0871277 11.5768085,34.6179787 L11.5768085,34.6201064 L11.6065957,34.6201064 C11.9406383,34.6467021 12.2789362,34.6647872 12.6204255,34.6647872 C12.9608511,34.6647872 13.2991489,34.6467021 13.6331915,34.6201064 L21.4512766,34.6201064" mask="url(#get-b)"/>
    </g>
    <g transform="translate(0 .666)">
      <mask id="get-d" fill="#fff">
        <use xlink:href="#get-c"/>
      </mask>
      <path fill="#4F89DC" d="M33.2778723,34.7126596 C33.2778723,34.7126596 36.5597872,34.7264894 36.9023404,34.7264894 C43.8853191,34.7264894 49.5448936,29.0658511 49.5448936,22.0839362 C49.5448936,15.1009574 43.8853191,9.44138298 36.9023404,9.44138298 C36.7278723,9.44138298 36.5555319,9.44776596 36.3831915,9.45414894 C34.8374468,4.21904255 29.9959574,0.397765957 24.2597872,0.397765957 C18.523617,0.397765957 13.6831915,4.21904255 12.1374468,9.45414894 C5.39914894,9.73074468 0.0193617021,15.2775532 0.0193617021,22.0839362 C0.0193617021,28.7137234 5.12468085,34.147766 11.6182979,34.6796809 L11.6182979,34.6818085 L11.6470213,34.6818085 C12.7257447,34.7584043 15.9885106,34.6818085 15.9885106,34.6818085" mask="url(#get-d)"/>
    </g>
    <path fill="#C0EFF8" fill-rule="nonzero" d="M24.5317599,4.54290978 C23.4308278,4.58302726 21.8801148,4.88769798 20.2994969,5.70414246 C18.3090894,6.73225763 16.8457139,8.35859546 16.2175501,10.6469788 C15.9982579,11.4458545 16.4681031,12.2712427 17.2669788,12.490535 C18.0658545,12.7098273 18.8912427,12.239982 19.110535,11.4411063 C19.5003579,10.0209923 20.3871541,9.035442 21.6762801,8.36956326 C22.3266363,8.03363152 23.0378125,7.8028571 23.7510321,7.66272987 C24.173903,7.57964784 24.4903977,7.54640811 24.6410061,7.54092 C25.4688837,7.51075251 26.1155556,6.81516948 26.0853881,5.98729182 C26.0552206,5.15941416 25.3596376,4.51274229 24.5317599,4.54290978 Z"/>
    <path fill="#0044BA" d="M17.0444053,22.5961768 L22.4812537,22.5961768 L22.4812537,14.8525087 C22.4812537,14.3533857 22.8863612,13.9490426 23.3854842,13.9490426 L25.9101448,13.9490426 C26.4092678,13.9490426 26.8136109,14.3533857 26.8136109,14.8525087 L26.8136109,22.5824185 L32.251988,22.5824185 C32.6043551,22.5824185 32.7809209,23.0089279 32.5317415,23.2581072 L25.4469464,30.3314371 C24.996742,30.7808771 24.2675485,30.7801127 23.8181085,30.3306727 L16.7646518,23.2711012 C16.5162368,23.0219219 16.6920382,22.5961768 17.0444053,22.5961768"/>
  </g>
</svg>
