<svg xmlns="http://www.w3.org/2000/svg" width="78.32" height="97.9" viewBox="0 0 78.32 97.9"><title>Artboard 121</title><rect x="11.47" y="31.05" width="55.38" height="55.38" transform="translate(-30.07 44.9) rotate(-45)" fill="#003597"/><polygon points="39.16 0 0.01 39.17 39.16 78.32 78.31 39.17 39.16 0" fill="#0053ff"/><path d="M46.44,52.51H28.26v-12H46.44l3.62,3.62v4.78Zm-16-2.22h15L47.83,48V45l-2.31-2.31h-15Z" fill="#fff"/><path d="M46.44,42.72H28.26v-12H46.44l3.62,3.62V39.1Zm-16-2.22h15l2.31-2.31V35.25l-2.31-2.31h-15Z" fill="#fff"/><rect x="38.06" y="22.03" width="2.2" height="9.79" fill="#fff"/><rect x="38.06" y="51.39" width="2.2" height="9.8" fill="#fff"/></svg>