<svg xmlns="http://www.w3.org/2000/svg" width="100%" height="100%" viewBox="0 0 50 50">
  <g fill="none" fill-rule="evenodd">
    <path fill="#4F89DC" d="M26,31 C26,23.82 20.18,18 13,18 C5.82,18 0,23.82 0,31 C0,38.18 5.82,44 13,44 C20.18,44 26,38.18 26,31"/>
    <path fill="#4F89DC" d="M50,31 C50,23.82 44.18,18 37,18 C29.82,18 24,23.82 24,31 C24,38.18 29.82,44 37,44 C44.18,44 50,38.18 50,31"/>
    <path fill="#C0EFF8" fill-rule="nonzero" d="M7 33.5L12.5 33.5C13.0522847 33.5 13.5 33.0522847 13.5 32.5 13.5 31.9477153 13.0522847 31.5 12.5 31.5L7 31.5C6.44771525 31.5 6 31.9477153 6 32.5 6 33.0522847 6.44771525 33.5 7 33.5zM7.1 30.5L15.5 30.5C16.0522847 30.5 16.5 30.0522847 16.5 29.5 16.5 28.9477153 16.0522847 28.5 15.5 28.5L7.1 28.5C6.54771525 28.5 6.1 28.9477153 6.1 29.5 6.1 30.0522847 6.54771525 30.5 7.1 30.5zM15.8472136 24.7055728L15.2472136 24.4055728C14.9251089 24.2445205 14.5486314 24.1323496 14.1695131 24.1059605 13.8485634 24.0153722 13.5746434 24 13 24 12.2657769 24 11.543295 24.125649 10.9286093 24.3715233 10.2373907 24.6480108 9.64712554 25.0346183 9.24595831 25.5404233 8.77328523 26.0251637 8.37152017 26.6231618 8.1513167 27.2837722 7.8330394 28.2386041 7.70442964 28.6979247 7.61005051 29.3585786 7.53194565 29.9053127 7.91184464 30.4118446 8.45857864 30.4899495 9.00531265 30.5680544 9.51184464 30.1881554 9.58994949 29.6414214 9.66223703 29.1354086 9.7669606 28.7613959 10.0486833 27.9162278 10.1662266 27.563598 10.416717 27.1974965 10.7071068 26.9071068L10.8 26.8C10.9486501 26.6017999 11.2645011 26.3912325 11.6713907 26.2284767 12.0374742 26.0820433 12.5092231 26 13 26 13.440312 26 13.5669454 26.009741 13.6837722 26.0486833 13.7857387 26.0826721 13.8925179 26.1 14 26.1 14.0981281 26.1 14.2428967 26.1394824 14.3527864 26.1944272L14.9527864 26.4944272C15.004553 26.5203105 15.0122726 26.5264862 15.0928932 26.6071068 15.2226276 26.7368412 15.325035 26.8037532 15.4738325 26.8797978 15.8665098 27.195906 16.4425379 27.1716756 16.8071068 26.8071068 17.1976311 26.4165825 17.1976311 25.7834175 16.8071068 25.3928932 16.681694 25.2674805 16.581818 25.2007744 16.4408859 25.1277739 16.253598 24.9471108 16.0997088 24.8318204 15.8472136 24.7055728zM7.6 29.7L7.6 31.8C7.6 32.3522847 8.04771525 32.8 8.6 32.8 9.15228475 32.8 9.6 32.3522847 9.6 31.8L9.6 29.7C9.6 29.1477153 9.15228475 28.7 8.6 28.7 8.04771525 28.7 7.6 29.1477153 7.6 29.7zM9.29289322 36.0071068C9.81241815 36.5266317 10.3203537 36.8851744 10.9286093 37.1284767 11.543295 37.374351 12.2657769 37.5 13 37.5 13.7199823 37.5 14.0228515 37.4798087 14.4162278 37.3486833 14.5679555 37.2981135 14.6382971 37.2744471 14.7234069 37.2449861 14.9862883 37.1539887 15.1785792 37.0787444 15.3472136 36.9944272 15.6867058 36.8246811 15.887588 36.7046107 16.1074923 36.5027498 16.2610645 36.4027588 16.3872045 36.2824046 16.5057213 36.1401844 16.5508083 36.08608 16.6279023 35.9863112 16.6071068 36.0071068L16.9071068 35.7071068C17.2976311 35.3165825 17.2976311 34.6834175 16.9071068 34.2928932 16.5165825 33.9023689 15.8834175 33.9023689 15.4928932 34.2928932L15.1928932 34.5928932C15.1277904 34.657996 15.0157686 34.7983473 14.9783919 34.8468148 14.9110922 34.8879595 14.8488109 34.9369755 14.7928932 34.9928932 14.7225402 35.0632462 14.6629427 35.1004947 14.4527864 35.2055728 14.3814208 35.2412556 14.255687 35.2904558 14.0691857 35.3550139 13.9938017 35.3811084 13.9320445 35.4018865 13.7837722 35.4513167 13.6771485 35.4868579 13.4800177 35.5 13 35.5 12.5092231 35.5 12.0374742 35.4179567 11.6713907 35.2715233 11.3373386 35.1379025 11.0475819 34.9333683 10.7071068 34.5928932 10.4202347 34.3060212 10.2009307 33.9405144 10.0486833 33.4837722L9.99442719 33.3527864C9.77919738 32.9223268 9.69194875 32.5733323 9.59227788 31.7759653 9.52377538 31.2279453 9.0239852 30.8392196 8.47596527 30.9077221 7.92794533 30.9762246 7.53921963 31.4760148 7.60772212 32.0240347 7.72908492 32.9949371 7.86209615 33.5423453 8.17437524 34.1839843 8.42243318 34.8981066 8.79542781 35.5096414 9.29289322 36.0071068zM33.343043 35.181928C34.3860779 36.0908067 35.9471737 36.745 37.158 36.745 39.2217727 36.745 40.944 35.2392789 40.944 33.309 40.944 31.5369576 39.6453644 30.5587236 37.4391656 29.9123407 35.9411138 29.4442833 35.372 29.0166077 35.372 28.437 35.372 27.6751808 36.1438266 27 37.158 27 37.8378503 27 38.4372866 27.3108055 38.7405483 27.7755114 39.0423782 28.2380232 39.6619996 28.3682816 40.1245114 28.0664517 40.5870232 27.7646218 40.7172816 27.1450004 40.4154517 26.6824886 39.7353048 25.6402593 38.5004659 25 37.158 25 35.0943398 25 33.372 26.5066736 33.372 28.437 33.372 30.2060055 34.5814914 31.1149097 36.8598692 31.826525 38.3137464 32.2526527 38.944 32.7274091 38.944 33.309 38.944 34.0704851 38.1724973 34.745 37.158 34.745 36.4600808 34.745 35.354055 34.2815084 34.656957 33.674072 34.240574 33.3112446 33.6088993 33.35466 33.246072 33.771043 32.8832446 34.187426 32.92666 34.8191007 33.343043 35.181928z"/>
    <path fill="#C0EFF8" fill-rule="nonzero" d="M36 23L36 24.922C36 25.4742847 36.4477153 25.922 37 25.922 37.5522847 25.922 38 25.4742847 38 24.922L38 23C38 22.4477153 37.5522847 22 37 22 36.4477153 22 36 22.4477153 36 23zM36 36L36 37.923C36 38.4752847 36.4477153 38.923 37 38.923 37.5522847 38.923 38 38.4752847 38 37.923L38 36C38 35.4477153 37.5522847 35 37 35 36.4477153 35 36 35.4477153 36 36z"/>
    <path fill="#0044BA" d="M37,19.2976 C37,12.1176 31.18,6.2976 24,6.2976 C16.82,6.2976 11,12.1176 11,19.2976 C11,26.4776 16.82,32.2976 24,32.2976 C31.18,32.2976 37,26.4776 37,19.2976"/>
    <g fill="#C0EFF8" fill-rule="nonzero" transform="translate(21 12)">
      <path d="M-.0303 2.371L-.0303 11.298C-.0303 11.8502847.41741525 12.298.9697 12.298 1.52198475 12.298 1.9697 11.8502847 1.9697 11.298L1.9697 2.371C1.9697 1.81871525 1.52198475 1.371.9697 1.371.41741525 1.371-.0303 1.81871525-.0303 2.371zM2.2832-.0001L2.2832 2.3709C2.2832 2.92318475 2.73091525 3.3709 3.2832 3.3709 3.83548475 3.3709 4.2832 2.92318475 4.2832 2.3709L4.2832-.0001C4.2832-.55238475 3.83548475-1.0001 3.2832-1.0001 2.73091525-1.0001 2.2832-.55238475 2.2832-.0001zM2.2832 11.2977L2.2832 13.6527C2.2832 14.2049847 2.73091525 14.6527 3.2832 14.6527 3.83548475 14.6527 4.2832 14.2049847 4.2832 13.6527L4.2832 11.2977C4.2832 10.7454153 3.83548475 10.2977 3.2832 10.2977 2.73091525 10.2977 2.2832 10.7454153 2.2832 11.2977z"/>
      <path d="M0,3.371 L3.762,3.371 C5.00594068,3.39762513 5.58320225,3.92631262 5.55932755,4.56289697 C5.53655449,5.17010756 4.98529206,5.63345389 4.05970496,5.54821378 C3.50974742,5.49756653 3.02286103,5.90233749 2.97221378,6.45229504 C2.92156653,7.00225258 3.32633749,7.48913897 3.87629504,7.53978622 C5.92496741,7.72845465 7.49138989,6.4118474 7.55792245,4.63785303 C7.62633303,2.81378396 6.10503951,1.42050077 3.78321806,1.37122513 L0,1.371 C-0.55228475,1.371 -1,1.81871525 -1,2.371 C-1,2.92328475 -0.55228475,3.371 0,3.371 Z"/>
      <path d="M0,12.2977 L4.468,12.2977 C6.31413202,12.331638 7.85374359,10.8469498 7.88783299,8.9819757 C7.92192187,7.13975703 6.47192364,5.6096895 4.63047149,5.54432931 L1.016,5.5437 C0.46371525,5.5437 0.016,5.99141525 0.016,6.5437 C0.016,7.09598475 0.46371525,7.5437 1.016,7.5437 L4.595,7.5437 C5.31044891,7.56972373 5.90207124,8.1940156 5.88817116,8.94519893 C5.87426255,9.70611438 5.24620373,10.3117681 4.48628962,10.2978673 L0,10.2977 C-0.55228475,10.2977 -1,10.7454153 -1,11.2977 C-1,11.8499847 -0.55228475,12.2977 0,12.2977 Z"/>
    </g>
  </g>
</svg>
