<?xml version="1.0" encoding="UTF-8"?>
<svg width="80px" height="80px" viewBox="0 0 80 80" version="1.1" xmlns="http://www.w3.org/2000/svg" xmlns:xlink="http://www.w3.org/1999/xlink">
    <!-- Generator: sketchtool 51.1 (57501) - http://www.bohemiancoding.com/sketch -->
    <title>F69F97C3-A0DD-4F14-99D3-CB7602F86CBD</title>
    <desc>Created with sketchtool.</desc>
    <defs></defs>
    <g id="Page-1" stroke="none" stroke-width="1" fill="none" fill-rule="evenodd">
        <g id="dex_2_0" transform="translate(-761.000000, -3090.000000)" fill-rule="nonzero">
            <g id="dex_list" transform="translate(761.000000, 3090.000000)">
                <rect id="Rectangle-path" fill="#0053FF" transform="translate(39.999478, 40.000000) rotate(-45.000000) translate(-39.999478, -40.000000) " x="12.3475695" y="12.3480913" width="55.3038175" height="55.3038175"></rect>
                <circle id="Oval" fill="#003598" cx="39.826087" cy="39.826087" r="21.7391304"></circle>
                <path d="M42.5,44 C37.8055796,44 34,40.1944204 34,35.5 C34,30.8055796 37.8055796,27 42.5,27 C47.1944204,27 51,30.8055796 51,35.5 C51,40.1944204 47.1944204,44 42.5,44 Z M42.5,42 C46.0898509,42 49,39.0898509 49,35.5 C49,31.9101491 46.0898509,29 42.5,29 C38.9101491,29 36,31.9101491 36,35.5 C36,39.0898509 38.9101491,42 42.5,42 Z" id="Oval" fill="#FFFFFF"></path>
                <polygon id="Shape" fill="#FFFFFF" points="29.7391581 50.9778798 28.2608419 49.6308159 36.7391027 40.3264681 38.217419 41.6735319"></polygon>
            </g>
        </g>
    </g>
</svg>