<svg xmlns="http://www.w3.org/2000/svg" width="100%" viewBox="0 0 50 50">
  <g fill="none" fill-rule="evenodd" transform="translate(5 4)">
    <path fill="#4F77FC" d="M31.9238 18.8086C31.4298 18.9586 30.9448 19.0386 30.4658 19.0876 30.7368 19.2266 31.0098 19.3646 31.2758 19.5016 32.5108 20.1446 33.6768 20.7496 34.9028 21.1596 36.8338 21.8026 38.9078 21.9466 40.9998 21.9316L40.9998 12.1986 35.6168 16.5706C34.5878 17.4066 33.4218 18.3526 31.9238 18.8086M7.3447 15.2969C10.0417 16.7309 12.4527 17.8719 14.6547 17.2969 14.8927 17.2339 15.1247 17.1539 15.3577 17.0739 15.5997 16.9919 15.8427 16.9099 16.0887 16.8399 16.8537 16.6209 17.7037 16.4919 18.7627 16.4349 20.6777 16.3309 22.6047 16.4939 24.4807 16.8929 25.1127 16.6299 25.7757 16.4259 26.4777 16.3109 27.2547 16.1839 28.0037 16.1749 28.7277 16.1659 29.5727 16.1559 30.3697 16.1469 31.0487 15.9399 31.9867 15.6529 32.8707 14.9359 33.7267 14.2409L40.9997 8.3339 40.9997 3.9999C40.9997 1.7999 39.1997-.0001 36.9997-.0001L3.9997-.0001C1.7997-.0001-.0003 1.7999-.0003 3.9999L-.0003 13.0009C2.4897 12.9479 4.9797 14.0389 7.3447 15.2969"/>
    <path fill="#4F77FC" d="M33.9541,4.0049 C32.5041,3.5219 31.1761,2.8309 29.8921,2.1639 C29.0641,1.7339 28.2831,1.3279 27.4771,0.9769 C26.6201,0.6029 25.7301,0.3009 24.8251,0.0579 C23.5971,0.7359 22.4371,1.7289 21.3041,2.7029 L21.0001,2.9629 C18.6921,4.9419 16.0971,6.7489 13.0341,6.7079 C10.6271,6.6639 8.6621,5.5029 6.7631,4.3799 C5.9601,3.9059 5.2031,3.4579 4.4321,3.1059 C2.9961,2.4479 1.4591,2.1489 0.0001,2.2029 L0.0001,16.9999 C0.0001,19.1999 1.8001,20.9999 4.0001,20.9999 L37.0001,20.9999 C39.2001,20.9999 41.0001,19.1999 41.0001,16.9999 L41.0001,4.9329 C38.6791,4.9479 36.2641,4.7749 33.9541,4.0049" transform="translate(0 20)"/>
    <path fill="#4F77FC" d="M5.6797,4.377 C6.5937,4.795 7.4557,5.305 8.2897,5.798 C9.9267,6.765 11.4727,7.679 13.0887,7.708 C15.1777,7.773 17.1907,6.278 19.0487,4.686 L19.3477,4.428 C19.7337,4.097 20.1337,3.757 20.5417,3.42 C20.0027,3.402 19.4617,3.4 18.9237,3.431 C18.0847,3.476 17.4657,3.566 16.9147,3.725 C16.7147,3.781 16.5187,3.849 16.3237,3.915 C16.0217,4.018 15.7197,4.119 15.4117,4.199 C11.8957,5.113 8.4517,3.284 5.9367,1.945 C4.0497,0.942 1.9387,-0.054 -0.0003,0.018 L-0.0003,3.203 C1.8927,3.152 3.8587,3.544 5.6797,4.377" transform="translate(0 16)"/>
    <path fill="#002EFF" d="M5.9365,5.9453 C8.4525,7.2843 11.8955,9.1133 15.4125,8.1993 C15.7195,8.1193 16.0215,8.0173 16.3235,7.9153 C16.5195,7.8483 16.7145,7.7813 16.9145,7.7243 C17.4655,7.5663 18.0845,7.4753 18.9235,7.4303 C19.4615,7.4003 20.0025,7.4023 20.5415,7.4203 C21.7265,6.4443 23.0155,5.5033 24.4805,4.8923 C22.6045,4.4943 20.6775,4.3313 18.7625,4.4343 C17.7035,4.4923 16.8535,4.6213 16.0885,4.8403 C15.8425,4.9103 15.5995,4.9923 15.3575,5.0743 C15.1245,5.1543 14.8935,5.2343 14.6545,5.2973 C12.4535,5.8723 10.0415,4.7303 7.3445,3.2973 C4.9795,2.0393 2.4895,0.9483 -0.0005,1.0013 L-0.0005,4.0173 C1.9385,3.9463 4.0495,4.9423 5.9365,5.9453" transform="translate(0 12)"/>
    <path fill="#002EFF" d="M10.9033,2.1592 C9.6763,1.7502 8.5103,1.1442 7.2753,0.5022 C7.0103,0.3642 6.7373,0.2262 6.4663,0.0882 C5.8883,0.1462 5.3203,0.1592 4.7643,0.1662 C4.1233,0.1742 3.5163,0.1812 2.9623,0.2712 C2.2223,0.3922 1.5133,0.6782 0.8253,1.0572 C1.7303,1.3012 2.6193,1.6022 3.4773,1.9762 C4.2833,2.3282 5.0643,2.7342 5.8923,3.1642 C7.1753,3.8312 8.5043,4.5212 9.9543,5.0052 C12.2643,5.7742 14.6793,5.9482 17.0003,5.9322 L17.0003,2.9312 C14.9083,2.9462 12.8333,2.8032 10.9033,2.1592" transform="translate(24 19)"/>
    <path fill="#FFF" d="M4.4316,4.1055 C5.2026,4.4585 5.9606,4.9065 6.7636,5.3795 C8.6626,6.5025 10.6266,7.6645 13.0346,7.7085 C16.0976,7.7495 18.6916,5.9415 21.0006,3.9625 L21.3036,3.7035 C22.4376,2.7285 23.5966,1.7365 24.8256,1.0575 C23.4266,0.6825 21.9876,0.4665 20.5416,0.4195 C20.1336,0.7565 19.7336,1.0965 19.3476,1.4275 L19.0486,1.6855 C17.1906,3.2785 15.1776,4.7735 13.0886,4.7085 C11.4726,4.6785 9.9266,3.7645 8.2896,2.7975 C7.4556,2.3045 6.5936,1.7945 5.6796,1.3765 C3.8586,0.5435 1.8926,0.1525 -0.0004,0.2035 L-0.0004,3.2035 C1.4596,3.1485 2.9956,3.4485 4.4316,4.1055" transform="translate(0 19)"/>
    <path fill="#FFF" d="M33.7266,14.2412 C32.8716,14.9352 31.9866,15.6532 31.0486,15.9392 C30.3706,16.1462 29.5726,16.1562 28.7276,16.1662 C28.0036,16.1752 27.2546,16.1832 26.4776,16.3102 C25.7756,16.4262 25.1126,16.6302 24.4806,16.8922 C25.9196,17.1992 27.3296,17.6392 28.6766,18.2262 C29.2906,18.4952 29.8826,18.7902 30.4666,19.0882 C30.9456,19.0392 31.4306,18.9592 31.9236,18.8082 C33.4216,18.3522 34.5876,17.4062 35.6176,16.5702 L40.9996,12.1982 L40.9996,8.3342 L33.7266,14.2412 Z"/>
    <path fill="#FFF" d="M24.8252,20.0576 C25.5132,19.6776 26.2222,19.3926 26.9622,19.2716 C27.5162,19.1816 28.1232,19.1736 28.7642,19.1656 C29.3212,19.1596 29.8882,19.1466 30.4662,19.0876 C29.8832,18.7896 29.2912,18.4956 28.6772,18.2266 C27.3292,17.6396 25.9202,17.1996 24.4812,16.8926 C23.0152,17.5026 21.7262,18.4446 20.5422,19.4196 C21.9872,19.4666 23.4272,19.6826 24.8252,20.0576"/>
  </g>
</svg>
