<svg xmlns="http://www.w3.org/2000/svg" width="78.32" height="83.22" viewBox="0 0 78.32 83.22"><title>Artboard 321</title><rect x="11.47" y="16.37" width="55.38" height="55.38" transform="translate(-19.68 40.59) rotate(-45)" fill="#003597"/><polygon points="39.16 63.64 78.31 24.48 53.85 0 24.48 0 0.01 24.49 39.16 63.64" fill="#0053ff"/><polygon points="39.16 14.69 53.85 0 24.48 0 39.16 14.69" fill="#003597"/><rect x="18.06" y="19.7" width="10.38" height="2.2" transform="translate(-7.9 22.52) rotate(-44.96)" fill="#fff"/><rect x="24.59" y="26.23" width="10.38" height="2.2" transform="translate(-10.6 29.06) rotate(-45)" fill="#fff"/><rect x="31.11" y="32.76" width="10.38" height="2.2" transform="translate(-13.31 35.59) rotate(-45)" fill="#fff"/><rect x="37.64" y="39.28" width="10.38" height="2.2" transform="translate(-16.01 42.12) rotate(-45)" fill="#fff"/><rect x="37.44" y="22.97" width="17.31" height="2.2" transform="translate(-3.52 39.64) rotate(-45)" fill="#fff"/><rect x="43.97" y="29.49" width="17.31" height="2.2" transform="translate(-6.21 46.21) rotate(-45.04)" fill="#fff"/></svg>