<svg xmlns="http://www.w3.org/2000/svg" width="100%" viewBox="0 0 50 50">
  <g fill="none" fill-rule="evenodd" transform="translate(8 3)">
    <path fill="#4F77FC" d="M30,43 L4,43 C1.8,43 0,41.2 0,39 L0,4 C0,1.8 1.8,0 4,0 L30,0 C32.2,0 34,1.8 34,4 L34,39 C34,41.2 32.2,43 30,43"/>
    <path fill="#002EFF" d="M24 0L29.7894737 0C32.1052632 0 34 1.8 34 4L34 8.25 34 39M10 30C10 31.104 9.104 32 8 32 6.896 32 6 31.104 6 30 6 28.896 6.896 28 8 28 9.104 28 10 28.896 10 30M16 30C16 31.104 15.104 32 14 32 12.896 32 12 31.104 12 30 12 28.896 12.896 28 14 28 15.104 28 16 28.896 16 30"/>
    <path fill="#FFF" fill-rule="nonzero" d="M7 15.5L27 15.5C27.8284271 15.5 28.5 14.8284271 28.5 14 28.5 13.1715729 27.8284271 12.5 27 12.5L7 12.5C6.17157288 12.5 5.5 13.1715729 5.5 14 5.5 14.8284271 6.17157288 15.5 7 15.5zM7 21.5L27 21.5C27.8284271 21.5 28.5 20.8284271 28.5 20 28.5 19.1715729 27.8284271 18.5 27 18.5L7 18.5C6.17157288 18.5 5.5 19.1715729 5.5 20 5.5 20.8284271 6.17157288 21.5 7 21.5z"/>
  </g>
</svg>
