<svg xmlns="http://www.w3.org/2000/svg" width="100%" viewBox="0 0 50 50">
  <g fill="none" fill-rule="evenodd" transform="translate(3 3)">
    <path fill="#4F77FC" d="M0,22 C0,34.15 9.85,44 22,44 C34.15,44 44,34.15 44,22 C44,9.85 34.15,0 22,0 C9.85,0 0,9.85 0,22 Z"/>
    <path fill="#002EFF" d="M22,0 L22,22 C22,22 27,8 28.768,1.061 C26.636,0.372 24.361,0 22,0"/>
    <path fill="#FFF" d="M13 25C13 26.104 12.104 27 11 27 9.896 27 9 26.104 9 25 9 23.896 9.896 23 11 23 12.104 23 13 23.896 13 25M20 32C20 33.104 19.104 34 18 34 16.896 34 16 33.104 16 32 16 30.896 16.896 30 18 30 19.104 30 20 30.896 20 32"/>
    <path fill="#FFF" fill-rule="nonzero" d="M16.9393398,23.9393398 L9.93933983,30.9393398 C9.35355339,31.5251263 9.35355339,32.4748737 9.93933983,33.0606602 C10.5251263,33.6464466 11.4748737,33.6464466 12.0606602,33.0606602 L19.0606602,26.0606602 C19.6464466,25.4748737 19.6464466,24.5251263 19.0606602,23.9393398 C18.4748737,23.3535534 17.5251263,23.3535534 16.9393398,23.9393398 Z"/>
  </g>
</svg>
