<?xml version="1.0" encoding="UTF-8"?>
<svg width="80px" height="80px" viewBox="0 0 80 80" version="1.1" xmlns="http://www.w3.org/2000/svg" xmlns:xlink="http://www.w3.org/1999/xlink">
    <!-- Generator: sketchtool 51.1 (57501) - http://www.bohemiancoding.com/sketch -->
    <title>C2CC3D94-FF78-44E6-807D-204614E0A3F6</title>
    <desc>Created with sketchtool.</desc>
    <defs></defs>
    <g id="Page-1" stroke="none" stroke-width="1" fill="none" fill-rule="evenodd">
        <g id="dex_2_0" transform="translate(-230.000000, -2088.000000)" fill-rule="nonzero">
            <g id="Group-8" transform="translate(229.000000, 1958.000000)">
                <g id="fees" transform="translate(1.000000, 130.000000)">
                    <rect id="Rectangle-path" fill="#0053FF" transform="translate(40.002609, 39.996174) rotate(-45.000000) translate(-40.002609, -39.996174) " x="12.3507" y="12.3442652" width="55.3038175" height="55.3038175"></rect>
                    <rect id="Rectangle-path" fill="#003598" transform="translate(49.738043, 49.859574) rotate(-45.000000) translate(-49.738043, -49.859574) " x="22.0861348" y="36.0336195" width="55.3038175" height="27.6519087"></rect>
                    <path d="M31.3043478,41 C28.350825,41 25.9565217,38.6056967 25.9565217,35.6521739 C25.9565217,32.6986511 28.350825,30.3043478 31.3043478,30.3043478 C34.2578706,30.3043478 36.6521739,32.6986511 36.6521739,35.6521739 C36.6521739,38.6056967 34.2578706,41 31.3043478,41 Z M31.3043478,39 C33.1533011,39 34.6521739,37.5011272 34.6521739,35.6521739 C34.6521739,33.8032206 33.1533011,32.3043478 31.3043478,32.3043478 C29.4553945,32.3043478 27.9565217,33.8032206 27.9565217,35.6521739 C27.9565217,37.5011272 29.4553945,39 31.3043478,39 Z" id="Oval" fill="#FFFFFF"></path>
                    <polygon id="Shape" fill="#FFFFFF" points="47.9885454 30.597241 49.402759 32.0114546 32.0114546 49.402759 30.597241 47.9885454"></polygon>
                    <path d="M48.6956522,49.6956522 C45.7421294,49.6956522 43.3478261,47.3013489 43.3478261,44.3478261 C43.3478261,41.3943033 45.7421294,39 48.6956522,39 C51.649175,39 54.0434783,41.3943033 54.0434783,44.3478261 C54.0434783,47.3013489 51.649175,49.6956522 48.6956522,49.6956522 Z M48.6956522,47.6956522 C50.5446055,47.6956522 52.0434783,46.1967794 52.0434783,44.3478261 C52.0434783,42.4988728 50.5446055,41 48.6956522,41 C46.8466989,41 45.3478261,42.4988728 45.3478261,44.3478261 C45.3478261,46.1967794 46.8466989,47.6956522 48.6956522,47.6956522 Z" id="Oval" fill="#FFFFFF"></path>
                </g>
            </g>
        </g>
    </g>
</svg>