<svg xmlns="http://www.w3.org/2000/svg" width="88.11" height="88.11" viewBox="0 0 88.11 88.11"><title>Artboard 51</title><rect x="12.9" y="12.9" width="62.3" height="62.3" transform="translate(-18.25 44.06) rotate(-45)" fill="#0053ff"/><rect x="23.92" y="39.49" width="62.3" height="31.15" transform="translate(-22.81 55.07) rotate(-45)" fill="#003597"/><rect x="30.21" y="42.95" width="27.69" height="2.2" transform="translate(-18.25 44.06) rotate(-45)" fill="#fff"/><path d="M34.27,45.15a6,6,0,1,1,4.24-1.75A6,6,0,0,1,34.27,45.15Zm0-9.79a3.79,3.79,0,1,0,2.68,1.11A3.78,3.78,0,0,0,34.27,35.37Z" fill="#fff"/><path d="M53.85,54.94a6,6,0,0,1-4.24-10.23h0a6,6,0,1,1,4.24,10.23Zm0-9.79a3.78,3.78,0,0,0-2.68,1.11h0a3.8,3.8,0,1,0,2.68-1.11Z" fill="#fff"/></svg>