<svg xmlns="http://www.w3.org/2000/svg" width="100%" viewBox="0 0 50 50">
  <g fill="none" fill-rule="evenodd" transform="translate(4 3)">
    <path fill="#4F77FC" d="M21.5,43 C9.626,43 0,33.374 0,21.5 C0,9.626 9.626,0 21.5,0 C33.374,0 43,9.626 43,21.5 C43,33.374 33.374,43 21.5,43 Z"/>
    <path fill="#002EFF" fill-rule="nonzero" d="M20.001,21.0171 C20.001,25.1592204 23.3592661,28.5171 27.501,28.5171 C28.3294271,28.5171 29.001,27.8455271 29.001,27.0171 C29.001,26.1886729 28.3294271,25.5171 27.501,25.5171 C25.0160431,25.5171 23.001,23.5022889 23.001,21.0171 C23.001,20.1886729 22.3294271,19.5171 21.501,19.5171 C20.6725729,19.5171 20.001,20.1886729 20.001,21.0171 Z"/>
    <path fill="#FFF" fill-rule="nonzero" d="M17.001,21.0171 C17.001,18.5325271 19.0164271,16.5171 21.501,16.5171 C23.9855729,16.5171 26.001,18.5325271 26.001,21.0171 C26.001,21.8455271 26.6725729,22.5171 27.501,22.5171 C28.3294271,22.5171 29.001,21.8455271 29.001,21.0171 C29.001,16.8756729 25.6424271,13.5171 21.501,13.5171 C17.3595729,13.5171 14.001,16.8756729 14.001,21.0171 C14.001,21.8455271 14.6725729,22.5171 15.501,22.5171 C16.3294271,22.5171 17.001,21.8455271 17.001,21.0171 Z"/>
    <path fill="#FFF" fill-rule="nonzero" d="M14.001028,21.0262625 C14.0286852,25.5539748 16.7470768,29.6313997 20.9156557,31.3981764 C21.6784032,31.7214531 22.5587997,31.3651917 22.8820764,30.6024443 C23.2053531,29.8396968 22.8490917,28.9593003 22.0863443,28.6360236 C19.0205896,27.336659 17.0213126,24.337863 17.000972,21.0079375 C16.9959117,20.1795259 16.3202492,19.5120677 15.4918375,19.517128 C14.6634259,19.5221883 13.9959677,20.1978508 14.001028,21.0262625 Z"/>
    <path fill="#002EFF" fill-rule="nonzero" d="M13.5386922,29.1419639 C11.8438559,26.7846743 10.9538067,23.9441813 11.000605,21.0417829 C10.9841695,15.214044 15.6722036,10.4992196 21.4711006,10.4825938 C27.2698171,10.4659686 31.9850565,15.1544153 32.0008055,20.9526742 C32.0034304,21.8582727 31.8888713,22.7617475 31.6602357,23.6394979 C31.4514157,24.4411747 31.9320211,25.2603443 32.7336979,25.4691643 C33.5353747,25.6779843 34.3545443,25.1973789 34.5633643,24.3957021 C34.8570095,23.2683745 35.0041663,22.1078162 35.0007937,20.9442522 C34.9805445,13.4891646 28.9181629,7.46123034 21.4624994,7.48260616 C14.0067793,7.50398215 7.97943223,13.5657731 8.00080616,21.0218999 C7.94379766,24.540749 9.03158667,28.0123067 11.1029078,30.8932361 C11.5865083,31.5658594 12.5238128,31.7190927 13.1964361,31.2354922 C13.8690594,30.7518917 14.0222927,29.8145872 13.5386922,29.1419639 Z"/>
  </g>
</svg>
