<svg xmlns="http://www.w3.org/2000/svg" width="88.11" height="88.11" viewBox="0 0 88.11 88.11"><title>Artboard 301</title><rect x="12.9" y="12.9" width="62.3" height="62.3" transform="translate(-18.25 44.06) rotate(-45)" fill="#0053ff"/><polygon points="44.06 88.11 88.11 44.06 0 44.06 44.06 88.11" fill="#003597"/><path d="M64.65,44.06h-2a18.44,18.44,0,0,0-5.43-13.12l1.44-1.44A20.46,20.46,0,0,1,64.65,44.06Z" fill="#fff"/><path d="M25.49,44.06h-2A20.6,20.6,0,0,1,54.79,26.47l-1.06,1.73A18.56,18.56,0,0,0,25.49,44.06Z" fill="#fff"/><path d="M24.34,50a20.6,20.6,0,0,1-.88-6h2a18.59,18.59,0,0,0,.8,5.4Z" fill="#fff"/><path d="M63.77,50l-1.94-.59a18.59,18.59,0,0,0,.8-5.4h2A20.6,20.6,0,0,1,63.77,50Z" fill="#fff"/><path d="M58.13,58.65h-2V44.06a12,12,0,0,0-12-12V30A14.07,14.07,0,0,1,58.13,44.06Z" fill="#fff"/><path d="M32,44.06H30a14.06,14.06,0,0,1,8.28-12.83l.84,1.85a12.06,12.06,0,0,0-6,6A11.94,11.94,0,0,0,32,44.06Z" fill="#fff"/><rect x="29.99" y="50.58" width="2.03" height="8.07" fill="#fff"/><path d="M51.6,62.8h-2V44.06a5.51,5.51,0,0,0-11,0V62.52h-2V44.06a7.54,7.54,0,0,1,15.08,0Z" fill="#fff"/><rect x="43.04" y="57.11" width="2.03" height="6.53" fill="#fff"/><rect x="43.04" y="44.06" width="2.03" height="6.53" fill="#fff"/></svg>