<svg xmlns="http://www.w3.org/2000/svg" width="88.11" height="62.3" viewBox="0 0 88.11 62.3"><title>Artboard 91</title><path d="M66.08,9.12A31.15,31.15,0,0,0,22,9.12l-22,22,22,22a31.15,31.15,0,0,0,44.06,0l22-22Z" fill="#0053ff"/><circle cx="44.06" cy="31.15" r="19.58" fill="#003597"/><path d="M44.06,42A10.89,10.89,0,1,1,54.95,31.15,10.9,10.9,0,0,1,44.06,42Zm0-19.58a8.69,8.69,0,1,0,8.69,8.69A8.7,8.7,0,0,0,44.06,22.46Z" fill="#fff"/><rect x="24.53" y="30.05" width="39.04" height="2.2" transform="translate(-9.12 40.29) rotate(-45.02)" fill="#fff"/></svg>