<svg xmlns="http://www.w3.org/2000/svg" width="100%" height="100%" viewBox="0 0 50 50">
  <g fill="none" fill-rule="evenodd" transform="translate(3 3)">
    <path fill="#4F77FC" d="M22,0 C9.85,0 0,9.85 0,22 C0,34.15 9.85,44 22,44 C34.15,44 44,34.15 44,22 C44,9.85 34.15,0 22,0"/>
    <path fill="#002EFF" d="M22,11 C13.1632593,11 6,21.9096296 6,21.9096296 C6,21.9096296 13.1632593,32.8180741 22,32.8180741 C30.8367407,32.8180741 38,21.9096296 38,21.9096296 C38,21.9096296 30.8367407,11 22,11"/>
    <path fill="#FFF" fill-rule="nonzero" d="M25.5,22 C25.5,20.0670353 23.9331811,18.5 22,18.5 C20.0674271,18.5 18.5,20.0674271 18.5,22 C18.5,23.9331811 20.0670353,25.5 22,25.5 C23.9335729,25.5 25.5,23.9335729 25.5,22 Z M28.5,22 C28.5,25.5904271 25.5904271,28.5 22,28.5 C18.4102739,28.5 15.5,25.5901282 15.5,22 C15.5,18.4105729 18.4105729,15.5 22,15.5 C25.5901282,15.5 28.5,18.4102739 28.5,22 Z"/>
    <path fill="#4F89DC" d="M17.2017,26.3848 C16.1447,25.2288 15.4997,23.6898 15.4997,21.9998 C15.4997,18.4098 18.4097,15.4998 21.9997,15.4998 C23.8897,15.4998 25.5907,16.3058 26.7787,17.5938 C27.8477,18.7518 18.3897,27.6848 17.2017,26.3848"/>
    <path fill="#4F89DC" fill-rule="nonzero" d="M31.0428932,8.54289322 L9.54289322,30.0428932 C9.15236893,30.4334175 9.15236893,31.0665825 9.54289322,31.4571068 C9.93341751,31.8476311 10.5665825,31.8476311 10.9571068,31.4571068 L32.4571068,9.95710678 C32.8476311,9.56658249 32.8476311,8.93341751 32.4571068,8.54289322 C32.0665825,8.15236893 31.4334175,8.15236893 31.0428932,8.54289322 Z"/>
    <path fill="#FFF" fill-rule="nonzero" d="M30.9393398,10.9393398 L10.9393398,30.9393398 C10.3535534,31.5251263 10.3535534,32.4748737 10.9393398,33.0606602 C11.5251263,33.6464466 12.4748737,33.6464466 13.0606602,33.0606602 L33.0606602,13.0606602 C33.6464466,12.4748737 33.6464466,11.5251263 33.0606602,10.9393398 C32.4748737,10.3535534 31.5251263,10.3535534 30.9393398,10.9393398 Z"/>
  </g>
</svg>
