<svg xmlns="http://www.w3.org/2000/svg" width="100%" viewBox="0 0 50 50">
  <g fill="none" fill-rule="evenodd" transform="translate(3 3)">
    <path fill="#4F77FC" d="M22.5,0.5 C10.35,0.5 0.5,10.35 0.5,22.5 C0.5,34.65 10.35,44.5 22.5,44.5 C34.65,44.5 44.5,34.65 44.5,22.5 L22.5,22.5 L22.5,0.5 Z"/>
    <path fill="#002EFF" d="M22.5,0.5 L22.5,22.5 L44.5,22.5 C44.5,10.35 34.65,0.5 22.5,0.5"/>
    <path fill="#FFF" d="M13.5 25.5C13.5 26.604 12.604 27.5 11.5 27.5 10.396 27.5 9.5 26.604 9.5 25.5 9.5 24.396 10.396 23.5 11.5 23.5 12.604 23.5 13.5 24.396 13.5 25.5M20.5 32.5C20.5 33.604 19.604 34.5 18.5 34.5 17.396 34.5 16.5 33.604 16.5 32.5 16.5 31.396 17.396 30.5 18.5 30.5 19.604 30.5 20.5 31.396 20.5 32.5"/>
    <path fill="#FFF" fill-rule="nonzero" d="M17.4393398,24.4393398 L10.4393398,31.4393398 C9.85355339,32.0251263 9.85355339,32.9748737 10.4393398,33.5606602 C11.0251263,34.1464466 11.9748737,34.1464466 12.5606602,33.5606602 L19.5606602,26.5606602 C20.1464466,25.9748737 20.1464466,25.0251263 19.5606602,24.4393398 C18.9748737,23.8535534 18.0251263,23.8535534 17.4393398,24.4393398 Z"/>
  </g>
</svg>
