<?xml version="1.0" encoding="UTF-8"?>
<svg width="80px" height="80px" viewBox="0 0 80 80" version="1.1" xmlns="http://www.w3.org/2000/svg" xmlns:xlink="http://www.w3.org/1999/xlink">
    <!-- Generator: sketchtool 51.1 (57501) - http://www.bohemiancoding.com/sketch -->
    <title>669E5E57-1817-46EE-B45E-6997A1209EF9</title>
    <desc>Created with sketchtool.</desc>
    <defs></defs>
    <g id="Page-1" stroke="none" stroke-width="1" fill="none" fill-rule="evenodd">
        <g id="dex_2_0" transform="translate(-229.000000, -1958.000000)" fill-rule="nonzero">
            <g id="Group-8" transform="translate(229.000000, 1958.000000)">
                <g id="liquidity">
                    <rect id="Rectangle-path" fill="#0053FF" transform="translate(40.002609, 39.996174) rotate(-45.000000) translate(-40.002609, -39.996174) " x="12.3507" y="12.3442652" width="55.3038175" height="55.3038175"></rect>
                    <rect id="Rectangle-path" fill="#003598" transform="translate(49.738043, 49.859574) rotate(-45.000000) translate(-49.738043, -49.859574) " x="22.0861348" y="36.0336195" width="55.3038175" height="27.6519087"></rect>
                    <polygon id="Shape" fill="#FFFFFF" points="41.0243902 55.6519446 39.0243902 55.6519446 39.0243902 49.626236 41.0243902 49.626236"></polygon>
                    <polygon id="Shape" fill="#FFFFFF" points="41.0243902 29.7870798 39.0243902 29.7870798 39.0243902 23.7613711 41.0243902 23.7613711"></polygon>
                    <path d="M38,48.6486486 L42,48.6486486 L42,31.2432432 L38,31.2432432 L38,48.6486486 Z M36,29.2432432 L44,29.2432432 L44,50.6486486 L36,50.6486486 L36,29.2432432 Z" id="Rectangle-4" fill="#FFFFFF"></path>
                    <polygon id="Shape" fill="#FFFFFF" points="52.0243902 38.8941367 50.0243902 38.8941367 50.0243902 36.1255679 52.0243902 36.1255679"></polygon>
                    <polygon id="Shape" fill="#FFFFFF" points="52.0243902 27.0102799 50.0243902 27.0102799 50.0243902 24.2417111 52.0243902 24.2417111"></polygon>
                    <path d="M49,34.5953251 L53,34.5953251 L53,28.7604091 L49,28.7604091 L49,34.5953251 Z M47,26.7604091 L55,26.7604091 L55,36.5953251 L47,36.5953251 L47,26.7604091 Z" id="Rectangle-4" fill="#FFFFFF"></path>
                    <polygon id="Shape" fill="#FFFFFF" points="30.0243902 53.1455932 28.0243902 53.1455932 28.0243902 50.0513104 30.0243902 50.0513104"></polygon>
                    <polygon id="Shape" fill="#FFFFFF" points="30.0243902 39.8636356 28.0243902 39.8636356 28.0243902 36.7693527 30.0243902 36.7693527"></polygon>
                    <path d="M27,41.5843682 L27,48.5763331 L31,48.5763331 L31,41.5843682 L27,41.5843682 Z M25,39.5843682 L33,39.5843682 L33,50.5763331 L25,50.5763331 L25,39.5843682 Z" id="Rectangle-4" fill="#FFFFFF"></path>
                </g>
            </g>
        </g>
    </g>
</svg>