<svg xmlns="http://www.w3.org/2000/svg" width="100%" height="100%" viewBox="0 0 50 50">
  <g fill="none" fill-rule="evenodd" transform="translate(5 4)">
    <g fill="#4F89DC">
      <path d="M0,37 C0,39.2 1.8,41 4,41 L37,41 C39.2,41 41,39.2 41,37 L41,8 L0,8 L0,37 Z"/>
      <path d="M41,4 C41,1.8 39.2,0 37,0 L4,0 C1.8,0 0,1.8 0,4 L0,14 L41,14 L41,4 Z"/>
    </g>
    <path fill="#A2E0F5" fill-rule="nonzero" d="M7.5 16L33.5 16C34.3284271 16 35 15.3284271 35 14.5 35 13.6715729 34.3284271 13 33.5 13L7.5 13C6.67157288 13 6 13.6715729 6 14.5 6 15.3284271 6.67157288 16 7.5 16zM7.5 10L23.5 10C24.3284271 10 25 9.32842712 25 8.5 25 7.67157288 24.3284271 7 23.5 7L7.5 7C6.67157288 7 6 7.67157288 6 8.5 6 9.32842712 6.67157288 10 7.5 10z"/>
    <path fill="#0044BA" fill-rule="nonzero" d="M7.5 22L33.5 22C34.3284271 22 35 21.3284271 35 20.5 35 19.6715729 34.3284271 19 33.5 19L7.5 19C6.67157288 19 6 19.6715729 6 20.5 6 21.3284271 6.67157288 22 7.5 22zM7.5 28L33.5 28C34.3284271 28 35 27.3284271 35 26.5 35 25.6715729 34.3284271 25 33.5 25L7.5 25C6.67157288 25 6 25.6715729 6 26.5 6 27.3284271 6.67157288 28 7.5 28zM7.5 34L33.5 34C34.3284271 34 35 33.3284271 35 32.5 35 31.6715729 34.3284271 31 33.5 31L7.5 31C6.67157288 31 6 31.6715729 6 32.5 6 33.3284271 6.67157288 34 7.5 34z"/>
  </g>
</svg>
