<svg xmlns="http://www.w3.org/2000/svg" width="78.32" height="97.9" viewBox="0 0 78.32 97.9"><title>Artboard 261</title><rect x="11.47" y="31.05" width="55.38" height="55.38" transform="translate(-30.07 44.9) rotate(-45)" fill="#003597"/><polygon points="39.16 0 0.01 39.17 39.16 78.32 78.31 39.17 39.16 0" fill="#0053ff"/><rect x="19.07" y="36.84" width="3.46" height="2.2" transform="translate(-20.73 25.81) rotate(-44.98)" fill="#fff"/><rect x="25.6" y="43.36" width="3.46" height="2.2" transform="translate(-23.44 32.36) rotate(-45.02)" fill="#fff"/><rect x="32.13" y="49.89" width="3.46" height="2.2" transform="translate(-26.14 38.89) rotate(-45.02)" fill="#fff"/><rect x="38.65" y="56.42" width="3.46" height="2.2" transform="translate(-28.85 45.42) rotate(-45.02)" fill="#fff"/><rect x="24.39" y="24.6" width="17.31" height="2.2" transform="translate(-8.5 30.88) rotate(-44.98)" fill="#fff"/><rect x="30.92" y="31.12" width="17.31" height="2.2" transform="translate(-11.2 37.43) rotate(-45.02)" fill="#fff"/><rect x="37.44" y="37.65" width="17.31" height="2.2" transform="translate(-13.9 43.93) rotate(-44.98)" fill="#fff"/><rect x="43.97" y="44.18" width="17.31" height="2.2" transform="translate(-16.6 50.49) rotate(-45.02)" fill="#fff"/></svg>