<svg xmlns="http://www.w3.org/2000/svg" width="100%" height="100%" viewBox="0 0 50 50">
  <g fill="none" fill-rule="evenodd" transform="translate(3 2)">
    <path fill="#0044BA" d="M33,15.4994932 C33,16.2890633 32.937,17.0654569 32.816,17.8236063 C31.622,25.2814452 24.772,31 16.5,31 C7.387,31 0,24.0600948 0,15.4994932 C0,6.93889161 7.387,0 16.5,0 C25.613,0 33,6.93889161 33,15.4994932"/>
    <path fill="#4F89DC" d="M23.2078881,38 L33,20.9631096 C33,20.9631096 16.0995548,19.0122267 20.8381166,20.663605 C25.5776597,22.3149833 23.2078881,38 23.2078881,38"/>
    <path fill="#4F89DC" d="M11,22.4994932 C11,23.2890633 11.063,24.0654569 11.184,24.8236063 C12.378,32.2814452 19.228,38 27.5,38 C36.613,38 44,31.0600948 44,22.4994932 C44,13.9388916 36.613,7 27.5,7 C18.387,7 11,13.9388916 11,22.4994932"/>
    <path fill="#4F89DC" d="M21.7921119,46 L12,28.9631096 C12,28.9631096 28.9004452,27.0122267 24.1618834,28.663605 C19.4223403,30.3149833 21.7921119,46 21.7921119,46"/>
    <path fill="#C0EFF8" d="M24 22C24 23.104 23.104 24 22 24 20.896 24 20 23.104 20 22 20 20.896 20.896 20 22 20 23.104 20 24 20.896 24 22M30 22C30 23.104 29.104 24 28 24 26.896 24 26 23.104 26 22 26 20.896 26.896 20 28 20 29.104 20 30 20.896 30 22M36 22C36 23.104 35.104 24 34 24 32.896 24 32 23.104 32 22 32 20.896 32.896 20 34 20 35.104 20 36 20.896 36 22"/>
  </g>
</svg>
