<svg xmlns="http://www.w3.org/2000/svg" width="100%" height="100%" viewBox="0 0 50 50">
  <g fill="none" fill-rule="evenodd" transform="translate(5 5)">
    <path fill="#4F89DC" d="M37,41 L4,41 C1.8,41 0,39.2 0,37 L0,4 C0,1.8 1.8,0 4,0 L37,0 C39.2,0 41,1.8 41,4 L41,37 C41,39.2 39.2,41 37,41"/>
    <path fill="#0044BA" d="M41 26.917L41 37C41 39.2 39.2 41 37 41L4 41M31.5 23.5C31.5 24.604 30.604 25.5 29.5 25.5 28.396 25.5 27.5 24.604 27.5 23.5 27.5 22.396 28.396 21.5 29.5 21.5 30.604 21.5 31.5 22.396 31.5 23.5M31.5 15.5C31.5 16.604 30.604 17.5 29.5 17.5 28.396 17.5 27.5 16.604 27.5 15.5 27.5 14.396 28.396 13.5 29.5 13.5 30.604 13.5 31.5 14.396 31.5 15.5M36.5 10.5C36.5 11.604 35.604 12.5 34.5 12.5 33.396 12.5 32.5 11.604 32.5 10.5 32.5 9.396 33.396 8.5 34.5 8.5 35.604 8.5 36.5 9.396 36.5 10.5"/>
    <path fill="#C0EFF8" fill-rule="nonzero" d="M8.56066017,25.5606602 L22.0606602,12.0606602 C22.6464466,11.4748737 22.6464466,10.5251263 22.0606602,9.93933983 C21.4748737,9.35355339 20.5251263,9.35355339 19.9393398,9.93933983 L6.43933983,23.4393398 C5.85355339,24.0251263 5.85355339,24.9748737 6.43933983,25.5606602 C7.02512627,26.1464466 7.97487373,26.1464466 8.56066017,25.5606602 Z"/>
    <path fill="#C0EFF8" fill-rule="nonzero" d="M24.5,20 C24.5,13.0915729 18.9084271,7.5 12,7.5 C11.1715729,7.5 10.5,8.17157288 10.5,9 C10.5,9.82842712 11.1715729,10.5 12,10.5 C17.2515729,10.5 21.5,14.7484271 21.5,20 C21.5,20.8284271 22.1715729,21.5 23,21.5 C23.8284271,21.5 24.5,20.8284271 24.5,20 Z"/>
  </g>
</svg>
