<svg xmlns="http://www.w3.org/2000/svg" width="100%" viewBox="0 0 50 50">
  <g fill="none" fill-rule="evenodd" transform="translate(4 8)">
    <path fill="#4F77FC" d="M43,4 L43,30 C43,32.2 41.2,34 39,34 L4,34 C1.8,34 0,32.2 0,30 L0,4 C0,1.8 1.8,0 4,0 L39,0 C41.2,0 43,1.8 43,4"/>
    <path fill="#002EFF" d="M0 10L0 4.21052632C0 1.89473684 1.8 0 4 0L8.25 0 39 0M38 4C39.104 4 40 4.896 40 6 40 7.104 39.104 8 38 8 36.896 8 36 7.104 36 6 36 4.896 36.896 4 38 4M38 26C39.104 26 40 26.896 40 28 40 29.104 39.104 30 38 30 36.896 30 36 29.104 36 28 36 26.896 36.896 26 38 26M7 26C8.104 26 9 26.896 9 28 9 29.104 8.104 30 7 30 5.896 30 5 29.104 5 28 5 26.896 5.896 26 7 26"/>
    <path fill="#FFF" fill-rule="nonzero" d="M27.5,17 C27.5,13.9624271 25.0375729,11.5 22,11.5 C18.9624271,11.5 16.5,13.9624271 16.5,17 C16.5,20.0375729 18.9624271,22.5 22,22.5 C25.0375729,22.5 27.5,20.0375729 27.5,17 Z M30.5,17 C30.5,21.6944271 26.6944271,25.5 22,25.5 C17.3055729,25.5 13.5,21.6944271 13.5,17 C13.5,12.3055729 17.3055729,8.5 22,8.5 C26.6944271,8.5 30.5,12.3055729 30.5,17 Z"/>
  </g>
</svg>
