<svg xmlns="http://www.w3.org/2000/svg" width="97.9" height="78.32" viewBox="0 0 97.9 78.32"><title>Artboard 311</title><polyline points="39.16 58.74 58.74 78.32 97.9 39.16 68.53 9.79 58.74 19.58" fill="#003597"/><path d="M70,56.17c-3.86,0-8.78-2.57-12.34-6.14a22.42,22.42,0,0,1-5.59-8.81c-1-3.31-.69-6.06,1-7.74h0c1.68-1.67,4.43-2,7.75-1a22.75,22.75,0,0,1,8.79,5.58c5.1,5.1,8.16,13,4.59,16.53A5.72,5.72,0,0,1,70,56.17Zm-12.69-22a3.72,3.72,0,0,0-2.7.92h0c-1.05,1.05-1.22,3.06-.44,5.52a20.49,20.49,0,0,0,5,7.91c4.63,4.63,11.15,6.86,13.42,4.59s0-8.79-4.59-13.42a20.5,20.5,0,0,0-7.9-5A9.55,9.55,0,0,0,57.33,34.13Z" fill="#fff"/><rect x="57.69" y="64.99" width="6.96" height="2.2" transform="translate(-28.82 62.56) rotate(-44.96)" fill="#fff"/><rect x="6.57" y="13.5" width="55.38" height="41.54" transform="translate(-14.19 34.27) rotate(-45)" fill="#0053ff"/><path d="M40.64,46.38c-3.86,0-8.77-2.57-12.34-6.14a22.42,22.42,0,0,1-5.59-8.81c-1-3.31-.69-6.06,1-7.74h0c3.29-3.29,10.71-1.23,16.54,4.6A22.69,22.69,0,0,1,45.72,37c1.09,3.39.78,6.18-.88,7.84A5.73,5.73,0,0,1,40.64,46.38ZM27.94,24.33a3.69,3.69,0,0,0-2.69.92h0c-1.05,1.05-1.22,3.06-.44,5.52a20.49,20.49,0,0,0,5,7.91c4.63,4.63,11.15,6.86,13.42,4.59,1-1,1.16-3.08.35-5.61a20.41,20.41,0,0,0-4.94-7.81C35.25,26.43,30.93,24.33,27.94,24.33Z" fill="#fff"/><rect x="33.25" y="11.14" width="6.92" height="2.2" transform="translate(2.09 29.53) rotate(-44.98)" fill="#fff"/><rect x="28.32" y="55.2" width="6.96" height="2.2" transform="translate(-30.49 38.94) rotate(-44.96)" fill="#fff"/></svg>