<svg xmlns="http://www.w3.org/2000/svg" width="100%" viewBox="0 0 50 50">
  <g fill="none" fill-rule="evenodd" transform="translate(3 3)">
    <path fill="#4F77FC" d="M22,0 C9.85,0 0,9.85 0,22 C0,34.15 9.85,44 22,44 C34.15,44 44,34.15 44,22 C44,9.85 34.15,0 22,0"/>
    <path fill="#002EFF" d="M7.5029,38.5488 C11.3749,41.9428 16.4469,43.9998 21.9999,43.9998 C32.3839,43.9998 41.0869,36.8058 43.3989,27.1298 C40.9999,27.9998 13.9999,35.9998 7.5029,38.5488"/>
    <path fill="#FFF" d="M24,7 C24,8.104 23.104,9 22,9 C20.896,9 20,8.104 20,7 C20,5.896 20.896,5 22,5 C23.104,5 24,5.896 24,7"/>
    <path fill="#FFF" fill-rule="nonzero" d="M24,22 C24,20.8952847 23.1047153,20 22,20 C20.8952847,20 20,20.8952847 20,22 C20,23.1047153 20.8952847,24 22,24 C23.1047153,24 24,23.1047153 24,22 Z M26,22 C26,24.2092847 24.2092847,26 22,26 C19.7907153,26 18,24.2092847 18,22 C18,19.7907153 19.7907153,18 22,18 C24.2092847,18 26,19.7907153 26,22 Z"/>
    <path fill="#FFF" d="M7 20C8.104 20 9 20.896 9 22 9 23.104 8.104 24 7 24 5.896 24 5 23.104 5 22 5 20.896 5.896 20 7 20M37 20C38.104 20 39 20.896 39 22 39 23.104 38.104 24 37 24 35.896 24 35 23.104 35 22 35 20.896 35.896 20 37 20M12.8076 9.979C13.5886 10.76 13.5886 12.026 12.8076 12.808 12.0266 13.589 10.7606 13.589 9.9786 12.808 9.1986 12.026 9.1986 10.76 9.9786 9.979 10.7606 9.198 12.0266 9.198 12.8076 9.979M31.1924 9.979C31.9734 9.198 33.2404 9.198 34.0204 9.979 34.8014 10.76 34.8014 12.026 34.0204 12.808 33.2404 13.589 31.9734 13.589 31.1924 12.808 30.4114 12.026 30.4114 10.76 31.1924 9.979"/>
    <path fill="#FFF" fill-rule="nonzero" d="M27.5428932,15.0428932 L23.5428932,19.0428932 C23.1523689,19.4334175 23.1523689,20.0665825 23.5428932,20.4571068 C23.9334175,20.8476311 24.5665825,20.8476311 24.9571068,20.4571068 L28.9571068,16.4571068 C29.3476311,16.0665825 29.3476311,15.4334175 28.9571068,15.0428932 C28.5665825,14.6523689 27.9334175,14.6523689 27.5428932,15.0428932 Z"/>
  </g>
</svg>
