<svg xmlns="http://www.w3.org/2000/svg" width="78.3" height="93.49" viewBox="0 0 78.3 93.49"><title>Artboard 141</title><polygon points="39.15 15.17 0 54.34 39.16 93.49 78.3 54.34 39.15 15.17" fill="#0053ff"/><polygon points="39.15 15.17 39.16 93.49 78.3 54.34 39.15 15.17" fill="#003597"/><path d="M45.23,70H33l.21-1.19c0-.08,1.32-7.41,1.93-12.54A7.65,7.65,0,0,1,33.54,55,7.94,7.94,0,1,1,44.77,43.82h0a8,8,0,0,1,0,11.23,7.67,7.67,0,0,1-1.63,1.23Zm-9.76-2h7.4l-2-12.89.7-.32a5.8,5.8,0,0,0,1.73-1.17,5.91,5.91,0,1,0-8.35,0,5.8,5.8,0,0,0,1.73,1.17l.67.31-.08.73C36.85,59.83,35.89,65.55,35.47,68Z" fill="#fff"/><path d="M22.51,62.16H16.63V22.52A22.54,22.54,0,0,1,39.15,0V5.87A16.66,16.66,0,0,0,22.51,22.52Z" fill="#0053ff"/><path d="M61.67,71.46H55.79V22.52A16.66,16.66,0,0,0,39.15,5.87V0A22.54,22.54,0,0,1,61.67,22.52Z" fill="#003597"/></svg>