<svg xmlns="http://www.w3.org/2000/svg" width="100%" viewBox="0 0 50 50">
  <g fill="none" fill-rule="evenodd" transform="translate(5 5)">
    <path fill="#4F77FC" d="M37,41 L4,41 C1.8,41 0,39.2 0,37 L0,4 C0,1.8 1.8,0 4,0 L37,0 C39.2,0 41,1.8 41,4 L41,37 C41,39.2 39.2,41 37,41"/>
    <g transform="translate(6 7)">
      <path fill="#002EFF" d="M25.5380462,13.4615385 C25.5380462,19.8336923 20.3720462,24.9996923 13.9998923,24.9996923 C7.62773846,24.9996923 2.46173846,19.8336923 2.46173846,13.4615385 C2.46173846,7.08938462 7.62773846,1.92338462 13.9998923,1.92338462 C20.3720462,1.92338462 25.5380462,7.08938462 25.5380462,13.4615385"/>
      <path fill="#4F77FC" fill-rule="nonzero" d="M13-2.22044605e-16L13 5.12830769C13 5.68059244 13.4477153 6.12830769 14 6.12830769 14.5522847 6.12830769 15 5.68059244 15 5.12830769L15-2.22044605e-16C15-.55228475 14.5522847-1 14-1 13.4477153-1 13-.55228475 13-2.22044605e-16zM13 21.7950923L13 26.9234C13 27.4756847 13.4477153 27.9234 14 27.9234 14.5522847 27.9234 15 27.4756847 15 26.9234L15 21.7950923C15 21.2428076 14.5522847 20.7950923 14 20.7950923 13.4477153 20.7950923 13 21.2428076 13 21.7950923zM.538461538 14.4615385L5.66676923 14.4615385C6.21905398 14.4615385 6.66676923 14.0138232 6.66676923 13.4615385 6.66676923 12.9092537 6.21905398 12.4615385 5.66676923 12.4615385L.538461538 12.4615385C-.0138232114 12.4615385-.461538462 12.9092537-.461538462 13.4615385-.461538462 14.0138232-.0138232114 14.4615385.538461538 14.4615385zM22.3335538 14.4615385L27.4618615 14.4615385C28.0141463 14.4615385 28.4618615 14.0138232 28.4618615 13.4615385 28.4618615 12.9092537 28.0141463 12.4615385 27.4618615 12.4615385L22.3335538 12.4615385C21.7812691 12.4615385 21.3335538 12.9092537 21.3335538 13.4615385 21.3335538 14.0138232 21.7812691 14.4615385 22.3335538 14.4615385zM3.77407783 4.64982986L7.40007783 8.27582986C7.79060213 8.66635415 8.4237671 8.66635415 8.8142914 8.27582986 9.20481569 7.88530557 9.20481569 7.25214059 8.8142914 6.8616163L5.1882914 3.2356163C4.7977671 2.845092 4.16460213 2.845092 3.77407783 3.2356163 3.38355354 3.62614059 3.38355354 4.25930557 3.77407783 4.64982986zM19.1854932 20.0612452L22.8114932 23.6872452C23.2020175 24.0777695 23.8351825 24.0777695 24.2257068 23.6872452 24.6162311 23.296721 24.6162311 22.663556 24.2257068 22.2730317L20.5997068 18.6470317C20.2091825 18.2565074 19.5760175 18.2565074 19.1854932 18.6470317 18.7949689 19.037556 18.7949689 19.670721 19.1854932 20.0612452zM5.1882914 23.6874606L8.8142914 20.0614606C9.20481569 19.6709363 9.20481569 19.0377714 8.8142914 18.6472471 8.4237671 18.2567228 7.79060213 18.2567228 7.40007783 18.6472471L3.77407783 22.2732471C3.38355354 22.6637714 3.38355354 23.2969363 3.77407783 23.6874606 4.16460213 24.0779849 4.7977671 24.0779849 5.1882914 23.6874606zM20.5997068 8.27604524L24.2257068 4.65004524C24.6162311 4.25952095 24.6162311 3.62635597 24.2257068 3.23583168 23.8351825 2.84530739 23.2020175 2.84530739 22.8114932 3.23583168L19.1854932 6.86183168C18.7949689 7.25235597 18.7949689 7.88552095 19.1854932 8.27604524 19.5760175 8.66656953 20.2091825 8.66656953 20.5997068 8.27604524z"/>
      <path fill="#FFF" fill-rule="nonzero" d="M15.9346932,15.4740932 C17.0464766,14.3623098 17.0464766,12.5605517 15.9349468,11.4490218 C14.8231053,10.3379773 13.0209562,10.3379773 11.9096218,11.4485147 C10.7985773,12.5603562 10.7985773,14.3625053 11.9093683,15.4740932 C13.0211517,16.5858766 14.8229098,16.5858766 15.9346932,15.4740932 Z M17.3489068,16.8883068 C15.4560748,18.7811388 12.3879867,18.7811388 10.4949013,16.8880532 C8.60348419,14.9952793 8.60348419,11.9275822 10.4954083,10.0343013 C12.3881822,8.14288419 15.4558793,8.14288419 17.3489068,10.0345548 C19.2417388,11.9273867 19.2417388,14.9954748 17.3489068,16.8883068 Z"/>
    </g>
    <path fill="#FFF" fill-rule="nonzero" d="M35.5,16.5 L35.5,23.5 C35.5,24.0522847 35.9477153,24.5 36.5,24.5 C37.0522847,24.5 37.5,24.0522847 37.5,23.5 L37.5,16.5 C37.5,15.9477153 37.0522847,15.5 36.5,15.5 C35.9477153,15.5 35.5,15.9477153 35.5,16.5 Z"/>
  </g>
</svg>
