<svg xmlns="http://www.w3.org/2000/svg" width="100%" height="100%" viewBox="0 0 50 50">
  <g fill="none" fill-rule="evenodd" transform="translate(5 5)">
    <path fill="#4F89DC" d="M37,41 L4,41 C1.8,41 0,39.2 0,37 L0,4 C0,1.8 1.8,0 4,0 L37,0 C39.2,0 41,1.8 41,4 L41,37 C41,39.2 39.2,41 37,41"/>
    <g transform="translate(6 7)">
      <path fill="#0044BA" d="M25.5380462,13.4615385 C25.5380462,19.8336923 20.3720462,24.9996923 13.9998923,24.9996923 C7.62773846,24.9996923 2.46173846,19.8336923 2.46173846,13.4615385 C2.46173846,7.08938462 7.62773846,1.92338462 13.9998923,1.92338462 C20.3720462,1.92338462 25.5380462,7.08938462 25.5380462,13.4615385"/>
      <path stroke="#4F89DC" stroke-linecap="round" stroke-width="2" d="M14 0L14 5.12830769M14 21.7950923L14 26.9234M.538461538 13.4615385L5.66676923 13.4615385M22.3335538 13.4615385L27.4618615 13.4615385M4.48118462 3.94272308L8.10718462 7.56872308M19.8926 19.3541385L23.5186 22.9801385M4.48118462 22.9803538L8.10718462 19.3543538M19.8926 7.56893846L23.5186 3.94293846"/>
      <path fill="#C0EFF8" fill-rule="nonzero" d="M15.9346932,15.4740932 C17.0464766,14.3623098 17.0464766,12.5605517 15.9349468,11.4490218 C14.8231053,10.3379773 13.0209562,10.3379773 11.9096218,11.4485147 C10.7985773,12.5603562 10.7985773,14.3625053 11.9093683,15.4740932 C13.0211517,16.5858766 14.8229098,16.5858766 15.9346932,15.4740932 Z M17.3489068,16.8883068 C15.4560748,18.7811388 12.3879867,18.7811388 10.4949013,16.8880532 C8.60348419,14.9952793 8.60348419,11.9275822 10.4954083,10.0343013 C12.3881822,8.14288419 15.4558793,8.14288419 17.3489068,10.0345548 C19.2417388,11.9273867 19.2417388,14.9954748 17.3489068,16.8883068 Z"/>
    </g>
    <path fill="#C0EFF8" fill-rule="nonzero" d="M35.5,16.5 L35.5,23.5 C35.5,24.0522847 35.9477153,24.5 36.5,24.5 C37.0522847,24.5 37.5,24.0522847 37.5,23.5 L37.5,16.5 C37.5,15.9477153 37.0522847,15.5 36.5,15.5 C35.9477153,15.5 35.5,15.9477153 35.5,16.5 Z"/>
  </g>
</svg>
