<svg xmlns="http://www.w3.org/2000/svg" width="100%" height="100%" viewBox="0 0 50 50">
  <g fill="none" fill-rule="evenodd" transform="translate(5 4)">
    <path fill="#4F89DC" d="M0 37C0 39.2 1.8 41 4 41L37 41C39.2 41 41 39.2 41 37L41 17 0 17 0 37zM41 4C41 1.8 39.2 0 37 0L4 0C1.8 0 0 1.8 0 4L0 14 41 14 41 4z"/>
    <polygon fill="#0044BA" points="0 17 41 17 41 14 0 14"/>
    <path fill="#0044BA" d="M9.5 7.5C9.5 8.604 8.604 9.5 7.5 9.5 6.396 9.5 5.5 8.604 5.5 7.5 5.5 6.396 6.396 5.5 7.5 5.5 8.604 5.5 9.5 6.396 9.5 7.5M15.5 7.5C15.5 8.604 14.604 9.5 13.5 9.5 12.396 9.5 11.5 8.604 11.5 7.5 11.5 6.396 12.396 5.5 13.5 5.5 14.604 5.5 15.5 6.396 15.5 7.5M21.5 7.5C21.5 8.604 20.604 9.5 19.5 9.5 18.396 9.5 17.5 8.604 17.5 7.5 17.5 6.396 18.396 5.5 19.5 5.5 20.604 5.5 21.5 6.396 21.5 7.5"/>
    <g fill="#A2E0F5" fill-rule="nonzero" transform="translate(16 23)">
      <path d="M2.12138034 5.44012L5.77072017 1.79078017C6.35650661 1.20499373 6.35650661.255246266 5.77072017-.330540172 5.18493373-.916326609 4.23518627-.916326609 3.64939983-.330540172L-1.06060017 4.37945983C-1.64638661 4.96524627-1.64638661 5.91499373-1.06060017 6.50078017L3.64939983 11.2107802C4.23518627 11.7965666 5.18493373 11.7965666 5.77072017 11.2107802 6.35650661 10.6249937 6.35650661 9.67524627 5.77072017 9.08945983L2.12138034 5.44012zM12.2292798 9.08933983C11.6434934 9.67512627 11.6434934 10.6248737 12.2292798 11.2106602 12.8150663 11.7964466 13.7648137 11.7964466 14.3506002 11.2106602L19.0606002 6.50066017C19.6463866 5.91487373 19.6463866 4.96512627 19.0606002 4.37933983L14.3506002-.330660172C13.7648137-.916446609 12.8150663-.916446609 12.2292798-.330660172 11.6434934.255126266 11.6434934 1.20487373 12.2292798 1.79066017L15.8786197 5.44 12.2292798 9.08933983z"/>
    </g>
  </g>
</svg>
