<svg xmlns="http://www.w3.org/2000/svg" width="100%" viewBox="0 0 50 50">
  <g fill="none" fill-rule="evenodd" transform="translate(5 4)">
    <path fill="#4F77FC" d="M0 37C0 39.2 1.8 41 4 41L37 41C39.2 41 41 39.2 41 37L41 17 0 17 0 37zM41 4C41 1.8 39.2 0 37 0L4 0C1.8 0 0 1.8 0 4L0 14 41 14 41 4z"/>
    <polygon fill="#002EFF" points="0 17 41 17 41 14 0 14"/>
    <path fill="#002EFF" d="M9.5 7.5C9.5 8.604 8.604 9.5 7.5 9.5 6.396 9.5 5.5 8.604 5.5 7.5 5.5 6.396 6.396 5.5 7.5 5.5 8.604 5.5 9.5 6.396 9.5 7.5M15.5 7.5C15.5 8.604 14.604 9.5 13.5 9.5 12.396 9.5 11.5 8.604 11.5 7.5 11.5 6.396 12.396 5.5 13.5 5.5 14.604 5.5 15.5 6.396 15.5 7.5M21.5 7.5C21.5 8.604 20.604 9.5 19.5 9.5 18.396 9.5 17.5 8.604 17.5 7.5 17.5 6.396 18.396 5.5 19.5 5.5 20.604 5.5 21.5 6.396 21.5 7.5"/>
    <g fill="#FFF" fill-rule="nonzero" transform="translate(14 22)">
      <path d="M4.12138034 6.44012L7.77072017 2.79078017C8.35650661 2.20499373 8.35650661 1.25524627 7.77072017.669459828 7.18493373.0836733906 6.23518627.0836733906 5.64939983.669459828L.939399828 5.37945983C.353613391 5.96524627.353613391 6.91499373.939399828 7.50078017L5.64939983 12.2107802C6.23518627 12.7965666 7.18493373 12.7965666 7.77072017 12.2107802 8.35650661 11.6249937 8.35650661 10.6752463 7.77072017 10.0894598L4.12138034 6.44012zM14.2292798 10.0893398C13.6434934 10.6751263 13.6434934 11.6248737 14.2292798 12.2106602 14.8150663 12.7964466 15.7648137 12.7964466 16.3506002 12.2106602L21.0606002 7.50066017C21.6463866 6.91487373 21.6463866 5.96512627 21.0606002 5.37933983L16.3506002.669339828C15.7648137.0835533906 14.8150663.0835533906 14.2292798.669339828 13.6434934 1.25512627 13.6434934 2.20487373 14.2292798 2.79066017L17.8786197 6.44 14.2292798 10.0893398z"/>
    </g>
  </g>
</svg>
