<svg xmlns="http://www.w3.org/2000/svg" width="100%" viewBox="0 0 50 50">
  <g fill="none" fill-rule="evenodd" transform="translate(3 3)">
    <path fill="#4F77FC" d="M22,0 C9.85,0 0,9.85 0,22 C0,34.15 9.85,44 22,44 C34.15,44 44,34.15 44,22 C44,9.85 34.15,0 22,0"/>
    <path fill="#002EFF" d="M35,23.7333333 L35,20.2666667 L31.2018333,19.5070333 C30.9864667,18.711 30.6705667,17.9565667 30.2684333,17.2576 L32.4182,14.0331667 L29.9668333,11.5818 L26.7424,13.7311333 C26.0434333,13.3294333 25.2894333,13.0135333 24.4929667,12.7981667 L23.7333333,9 L20.2666667,9 L19.5070333,12.7981667 C18.711,13.0135333 17.9565667,13.3294333 17.2576,13.7311333 L14.0331667,11.5818 L11.5818,14.0331667 L13.7311333,17.2576 C13.3294333,17.9565667 13.0135333,18.711 12.7981667,19.5070333 L9,20.2666667 L9,23.7333333 L12.7981667,24.4929667 C13.0135333,25.2894333 13.3294333,26.0434333 13.7311333,26.7424 L11.5818,29.9668333 L14.0331667,32.4182 L17.2576,30.2684333 C17.9565667,30.6705667 18.711,30.9864667 19.5070333,31.2018333 L20.2666667,35 L23.7333333,35 L24.4929667,31.2018333 C25.2894333,30.9864667 26.0434333,30.6705667 26.7424,30.2684333 L29.9668333,32.4182 L32.4182,29.9668333 L30.2684333,26.7424 C30.6705667,26.0434333 30.9864667,25.2894333 31.2018333,24.4929667 L35,23.7333333 Z M27.2,22 C27.2,24.8717 24.8717,27.2 22,27.2 C19.1283,27.2 16.8,24.8717 16.8,22 C16.8,19.1283 19.1283,16.8 22,16.8 C24.8717,16.8 27.2,19.1283 27.2,22 L27.2,22 Z"/>
    <circle cx="22" cy="22" r="2" fill="#FFF"/>
  </g>
</svg>
