<svg xmlns="http://www.w3.org/2000/svg" width="68.87" height="79.53" viewBox="0 0 68.87 79.53"><title>Artboard 241</title><polygon points="68.88 59.65 68.88 19.88 34.44 0 0 19.88 0 59.65 34.44 79.53 68.88 59.65" fill="#0053ff"/><circle cx="34.52" cy="39.85" r="24.48" fill="#003597"/><rect x="33.36" y="26.45" width="2.32" height="26.8" fill="#fff"/><rect x="21.12" y="38.69" width="26.8" height="2.32" fill="#fff"/><rect x="21.12" y="38.69" width="26.8" height="2.32" transform="translate(-18.07 36.09) rotate(-45.01)" fill="#fff"/><rect x="33.36" y="26.45" width="2.32" height="26.8" transform="translate(-18.07 36.08) rotate(-45)" fill="#fff"/><circle cx="34.52" cy="39.85" r="9.79" fill="#003597"/><path d="M34.52,50.74A10.89,10.89,0,1,1,45.41,39.85,10.9,10.9,0,0,1,34.52,50.74Zm0-19.58a8.69,8.69,0,1,0,8.69,8.69A8.7,8.7,0,0,0,34.52,31.16Z" fill="#fff"/></svg>