<svg xmlns="http://www.w3.org/2000/svg" width="68.53" height="83.22" viewBox="0 0 68.53 83.22"><title>Artboard 41</title><polygon points="53.85 0 34.27 0 14.69 0 0 14.69 0 48.95 34.27 83.22 68.53 48.95 68.53 14.69 53.85 0" fill="#0053ff"/><polygon points="34.27 0 34.27 78.32 34.27 83.22 68.53 48.95 68.53 14.69 53.85 0 34.27 0" fill="#003597"/><polygon points="34.27 57.85 23.7 47.28 25.25 45.73 34.27 54.74 43.28 45.73 44.84 47.28 34.27 57.85" fill="#fff"/><polygon points="25.25 27.7 23.7 26.14 34.27 15.57 44.84 26.14 43.28 27.7 34.27 18.69 25.25 27.7" fill="#fff"/><polygon points="23.7 47.28 13.13 36.71 23.7 26.14 25.25 27.7 16.24 36.71 25.25 45.73 23.7 47.28" fill="#fff"/><polygon points="44.84 47.28 43.28 45.73 52.29 36.71 43.28 27.7 44.84 26.14 55.4 36.71 44.84 47.28" fill="#fff"/></svg>