<svg xmlns="http://www.w3.org/2000/svg" width="100%" viewBox="0 0 50 50">
  <g fill="none" fill-rule="evenodd" transform="translate(5 1)">
    <path fill="#A2E0F5" d="M22,23.5 C22,24.329 21.329,25 20.5,25 C19.671,25 19,24.329 19,23.5 C19,22.671 19.671,22 20.5,22 C21.329,22 22,22.671 22,23.5"/>
    <path fill="#4F77FC" d="M2.1079,6.54 C1.1739,6.726 0.4999,7.546 0.4999,8.5 L0.4999,15.866 C0.4999,24.548 3.8799,32.71 10.0199,38.848 L19.0859,47.914 C19.4759,48.304 19.9879,48.5 20.4999,48.5 C21.0119,48.5 21.5249,48.304 21.9139,47.914 L30.9809,38.848 C37.1199,32.71 40.4999,24.548 40.4999,15.866 L40.4999,8.5 C40.4999,7.546 39.8259,6.726 38.8919,6.54 L37.6619,6.292 C32.0139,5.164 26.5419,3.286 21.3939,0.71 C20.8319,0.43 20.1679,0.43 19.6059,0.71 C14.4579,3.286 8.9859,5.164 3.3379,6.292 L2.1079,6.54"/>
    <path fill="#002EFF" d="M37.3271 29.9131C39.4041 25.5841 40.5001 20.8091 40.5001 15.8661L40.5001 8.5001C40.5001 7.5461 39.8261 6.7261 38.8911 6.5401L37.6621 6.2921C32.0141 5.1641 26.5421 3.2861 21.3941.7101 20.8321.4301 20.1681.4301 19.6061.7101M22.5 11.5C22.5 12.604 21.604 13.5 20.5 13.5 19.396 13.5 18.5 12.604 18.5 11.5 18.5 10.396 19.396 9.5 20.5 9.5 21.604 9.5 22.5 10.396 22.5 11.5M22.5 27.5C22.5 28.604 21.604 29.5 20.5 29.5 19.396 29.5 18.5 28.604 18.5 27.5 18.5 26.396 19.396 25.5 20.5 25.5 21.604 25.5 22.5 26.396 22.5 27.5"/>
    <path fill="#FFF" d="M22.5 19.5C22.5 20.604 21.604 21.5 20.5 21.5 19.396 21.5 18.5 20.604 18.5 19.5 18.5 18.396 19.396 17.5 20.5 17.5 21.604 17.5 22.5 18.396 22.5 19.5M15.5 27.5C15.5 28.604 14.604 29.5 13.5 29.5 12.396 29.5 11.5 28.604 11.5 27.5 11.5 26.396 12.396 25.5 13.5 25.5 14.604 25.5 15.5 26.396 15.5 27.5"/>
    <path fill="#002EFF" d="M15.5,19.5 C15.5,20.604 14.604,21.5 13.5,21.5 C12.396,21.5 11.5,20.604 11.5,19.5 C11.5,18.396 12.396,17.5 13.5,17.5 C14.604,17.5 15.5,18.396 15.5,19.5"/>
    <path fill="#FFF" d="M22.5,35.5 C22.5,36.604 21.604,37.5 20.5,37.5 C19.396,37.5 18.5,36.604 18.5,35.5 C18.5,34.396 19.396,33.5 20.5,33.5 C21.604,33.5 22.5,34.396 22.5,35.5"/>
  </g>
</svg>
