<svg xmlns="http://www.w3.org/2000/svg" width="100%" height="100%" viewBox="0 0 50 50">
  <g fill="none" fill-rule="evenodd" transform="translate(3 3)">
    <path fill="#4F89DC" d="M22,0 C9.85,0 0,9.85 0,22 C0,34.15 9.85,44 22,44 C34.15,44 44,34.15 44,22 C44,9.85 34.15,0 22,0"/>
    <path fill="#0044BA" d="M22,14 C17.582,14 14,17.582 14,22 C14,26.418 17.582,30 22,30 C26.418,30 30,26.418 30,22 C30,17.582 26.418,14 22,14"/>
    <path fill="#C0EFF8" fill-rule="nonzero" d="M22,5.5 C31.1124271,5.5 38.5,12.8875729 38.5,22 C38.5,31.1124271 31.1124271,38.5 22,38.5 C12.8875729,38.5 5.5,31.1124271 5.5,22 C5.5,12.8875729 12.8875729,5.5 22,5.5 Z M22,8.5 C14.5444271,8.5 8.5,14.5444271 8.5,22 C8.5,29.4555729 14.5444271,35.5 22,35.5 C29.4555729,35.5 35.5,29.4555729 35.5,22 C35.5,14.5444271 29.4555729,8.5 22,8.5 Z"/>
    <path fill="#C0EFF8" fill-rule="nonzero" d="M23.8106602,22.3106602 L35.8106602,10.3106602 C36.3964466,9.72487373 36.3964466,8.77512627 35.8106602,8.18933983 C35.2248737,7.60355339 34.2751263,7.60355339 33.6893398,8.18933983 L21.6893398,20.1893398 C21.1035534,20.7751263 21.1035534,21.7248737 21.6893398,22.3106602 C22.2751263,22.8964466 23.2248737,22.8964466 23.8106602,22.3106602 Z"/>
  </g>
</svg>
