<svg xmlns="http://www.w3.org/2000/svg" width="88.11" height="88.11" viewBox="0 0 88.11 88.11"><title>Artboard 61</title><rect x="12.9" y="12.9" width="62.3" height="62.3" transform="translate(-18.25 44.06) rotate(-45)" fill="#0053ff"/><circle cx="43.92" cy="43.92" r="24.48" fill="#003597"/><path d="M43.91,59.76A15.84,15.84,0,1,1,59.76,43.91,15.86,15.86,0,0,1,43.91,59.76Zm0-29.37A13.53,13.53,0,1,0,57.44,43.91,13.54,13.54,0,0,0,43.91,30.39Z" fill="#fff"/><path d="M43.91,50A6.05,6.05,0,1,1,50,43.91,6.06,6.06,0,0,1,43.91,50Zm0-9.79a3.74,3.74,0,1,0,3.74,3.74A3.74,3.74,0,0,0,43.91,40.18Z" fill="#fff"/><rect x="40.37" y="34.19" width="24.23" height="2.31" transform="translate(-9.62 47.46) rotate(-45)" fill="#fff"/></svg>