<svg xmlns="http://www.w3.org/2000/svg" width="100%" height="100%" viewBox="0 0 50 50">
  <g fill="none" fill-rule="evenodd" transform="translate(3 3)">
    <path fill="#4F89DC" d="M22,0 C9.85,0 0,9.85 0,22 C0,34.15 9.85,44 22,44 C34.15,44 44,34.15 44,22 C44,9.85 34.15,0 22,0"/>
    <path fill="#0044BA" d="M22,0 L22,44 C34.15,44 44,34.15 44,22 C44,9.85 34.15,0 22,0"/>
    <path fill="#C0EFF8" d="M7 20C8.104 20 9 20.896 9 22 9 23.104 8.104 24 7 24 5.896 24 5 23.104 5 22 5 20.896 5.896 20 7 20M13 20C14.104 20 15 20.896 15 22 15 23.104 14.104 24 13 24 11.896 24 11 23.104 11 22 11 20.896 11.896 20 13 20M13 14C14.104 14 15 14.896 15 16 15 17.104 14.104 18 13 18 11.896 18 11 17.104 11 16 11 14.896 11.896 14 13 14M37 20C38.104 20 39 20.896 39 22 39 23.104 38.104 24 37 24 35.896 24 35 23.104 35 22 35 20.896 35.896 20 37 20M31.1924 9.979C31.9734 9.198 33.2404 9.198 34.0204 9.979 34.8014 10.76 34.8014 12.026 34.0204 12.808 33.2404 13.589 31.9734 13.589 31.1924 12.808 30.4114 12.026 30.4114 10.76 31.1924 9.979M31.1924 30.5861C31.9734 29.8051 33.2404 29.8051 34.0204 30.5861 34.8014 31.3671 34.8014 32.6331 34.0204 33.4141 33.2404 34.1951 31.9734 34.1951 31.1924 33.4141 30.4114 32.6331 30.4114 31.3671 31.1924 30.5861z"/>
  </g>
</svg>
