<svg xmlns="http://www.w3.org/2000/svg" width="100%" viewBox="0 0 50 50">
  <g fill="none" fill-rule="evenodd" transform="translate(3 3)">
    <path fill="#4F77FC" d="M0,22 C0,34.15 9.85,44 22,44 C34.15,44 44,34.15 44,22 C44,9.85 34.15,0 22,0 C9.85,0 0,9.85 0,22 Z"/>
    <path fill="#002EFF" d="M22,0 L22,44 C34.15,44 44,34.15 44,22 C44,9.85 34.15,0 22,0"/>
    <polygon fill="#FFF" points="25.846 17.729 25.75 17.73 22 10.999 18.25 17.73 11.798 17.73 16.904 23.419 15.558 31 22 27.634 28.443 31 27.096 23.419 32.202 17.73 25.846 17.73"/>
  </g>
</svg>
