<?xml version="1.0" encoding="UTF-8"?>
<svg width="80px" height="80px" viewBox="0 0 80 80" version="1.1" xmlns="http://www.w3.org/2000/svg" xmlns:xlink="http://www.w3.org/1999/xlink">
    <!-- Generator: sketchtool 51.1 (57501) - http://www.bohemiancoding.com/sketch -->
    <title>C74A0FAA-D7B1-43E9-8FC1-7ECB7FDA65E2</title>
    <desc>Created with sketchtool.</desc>
    <defs></defs>
    <g id="Page-1" stroke="none" stroke-width="1" fill="none" fill-rule="evenodd">
        <g id="dex_2_0" transform="translate(-230.000000, -3284.000000)" fill-rule="nonzero">
            <g id="trading" transform="translate(230.000000, 3284.000000)">
                <rect id="Rectangle-path" fill="#0053FF" transform="translate(39.997043, 39.994261) rotate(-45.000000) translate(-39.997043, -39.994261) " x="12.3451348" y="12.3423521" width="55.3038175" height="55.3038175"></rect>
                <rect id="Rectangle-path" fill="#003598" transform="translate(49.779435, 49.843400) rotate(-45.000000) translate(-49.779435, -49.843400) " x="22.1275261" y="36.0174456" width="55.3038175" height="27.6519087"></rect>
                <polygon id="Shape" fill="#FFFFFF" points="58.7711541 37.2059367 60.1853677 38.6201503 40 58.8055179 19.8146323 38.6201503 21.2288459 37.2059367 40 55.9770908"></polygon>
                <polygon id="Shape" fill="#FFFFFF" points="34.9450671 45.0549329 36.3592807 43.6407193 40.7071068 47.9885454 39.2928932 49.402759"></polygon>
                <polygon id="Shape" fill="#FFFFFF" points="37.2059367 38.6201503 38.6201503 37.2059367 45.0549329 43.6407193 43.6407193 45.0549329"></polygon>
                <polygon id="Shape" fill="#FFFFFF" points="37.2059367 29.9244981 38.6201503 28.5102845 49.402759 39.2928932 47.9885454 40.7071068"></polygon>
            </g>
        </g>
    </g>
</svg>