<svg xmlns="http://www.w3.org/2000/svg" width="100%" viewBox="0 0 50 50">
  <g fill="none" fill-rule="evenodd" transform="translate(3 3)">
    <path fill="#4F77FC" d="M22,0 C9.85,0 0,9.85 0,22 C0,34.15 9.85,44 22,44 C34.15,44 44,34.15 44,22 L22,22 L22,0 Z"/>
    <path fill="#002EFF" d="M22 0L22 22 44 22C44 9.85 34.15 0 22 0M22 44L22 22 44 22C44 34.15 34.15 44 22 44"/>
    <path fill="#FFF" fill-rule="nonzero" d="M18.4958477 27.1675646C17.165856 27.1675646 16.4997938 28.790507 17.4402399 29.7396824L21.2241293 33.5586944C21.8071254 34.1471019 22.7523488 34.1471019 23.3353449 33.5586944 23.918341 32.9702868 23.918341 32.0162897 23.3353449 31.4278822L22.0999181 30.180988 29.5071451 30.180988C30.3316261 30.180988 31 29.5064102 31 28.6742763L31 13.5067117C31 12.6745778 30.3316261 12 29.5071451 12 28.6826642 12 28.0142903 12.6745778 28.0142903 13.5067117L28.0142903 27.1675646 18.4958477 27.1675646zM15.0706227 15.7285432L24.4616106 15.7285432C25.8295283 15.7285432 26.5144873 14.0942775 25.5470911 13.1386606L21.8070726 9.44418163C21.2074142 8.85182481 20.2353088 8.85195627 19.6358145 9.44447524 19.0363201 10.0369942 19.0364532 10.9975258 19.6361116 11.5898826L20.7543236 12.6944789 13.5353114 12.6944789C12.6873823 12.6944789 12 13.3736773 12 14.2115111L12 29.4829679C12 30.3208016 12.6873823 31 13.5353114 31 14.3832404 31 15.0706227 30.3208016 15.0706227 29.4829679L15.0706227 15.7285432z"/>
  </g>
</svg>
