<?xml version="1.0" encoding="UTF-8"?>
<svg width="79px" height="98px" viewBox="0 0 79 98" version="1.1" xmlns="http://www.w3.org/2000/svg" xmlns:xlink="http://www.w3.org/1999/xlink">
    <!-- Generator: sketchtool 51.1 (57501) - http://www.bohemiancoding.com/sketch -->
    <title>E2D55EFC-D6C1-4EA2-A24A-27B03171F0D5</title>
    <desc>Created with sketchtool.</desc>
    <defs></defs>
    <g id="Page-1" stroke="none" stroke-width="1" fill="none" fill-rule="evenodd">
        <g id="dex_2_0" transform="translate(-230.000000, -2376.000000)" fill-rule="nonzero">
            <g id="ui" transform="translate(230.000000, 2376.000000)">
                <rect id="Rectangle-path" fill="#003598" transform="translate(39.168215, 58.535220) rotate(-45.000000) translate(-39.168215, -58.535220) " x="11.5587233" y="30.9257282" width="55.2189826" height="55.2189826"></rect>
                <polygon id="Shape" fill="#0053FF" points="39.0243902 0 0 39.0243902 39.0243902 78.0487805 78.0487805 39.0243902"></polygon>
                <path d="M27.3535534,26.8535534 L27.3535534,50.8535534 L51.3535534,50.8535534 L51.3535534,26.8535534 L27.3535534,26.8535534 Z M25.3535534,24.8535534 L53.3535534,24.8535534 L53.3535534,52.8535534 L25.3535534,52.8535534 L25.3535534,24.8535534 Z" id="Rectangle-15" fill="#FFFFFF" transform="translate(39.353553, 38.853553) rotate(-45.000000) translate(-39.353553, -38.853553) "></path>
                <polygon id="Line-2" fill="#FFFFFF" transform="translate(34.050253, 33.550253) rotate(-45.000000) translate(-34.050253, -33.550253) " points="20.5502525 34.5502525 20.5502525 32.5502525 47.5502525 32.5502525 47.5502525 34.5502525"></polygon>
            </g>
        </g>
    </g>
</svg>