<svg xmlns="http://www.w3.org/2000/svg" width="100%" height="100%" viewBox="0 0 50 50">
  <g fill="none" fill-rule="evenodd" transform="translate(2 8)">
    <path fill="#4F89DC" d="M42.5,35 L4.5,35 C2.3,35 0.5,33.2 0.5,31 L0.5,4 C0.5,1.8 2.3,0 4.5,0 L42.5,0 C44.7,0 46.5,1.8 46.5,4 L46.5,31 C46.5,33.2 44.7,35 42.5,35"/>
    <path fill="#0044BA" d="M38.125,35 L4.5,35 C2.3,35 0.5,33.2 0.5,31 L0.5,22"/>
    <path fill="#C0EFF8" d="M41.5,17.5 C41.5,18.604 40.604,19.5 39.5,19.5 C38.396,19.5 37.5,18.604 37.5,17.5 C37.5,16.396 38.396,15.5 39.5,15.5 C40.604,15.5 41.5,16.396 41.5,17.5"/>
    <path fill="#C0EFF8" fill-rule="nonzero" d="M46.5,22 C46.5,19.5 46.5,16.140625 46.5,13 L36.5,13 C35.1284271,13 34,14.1284271 34,15.5 L34,19.5 C34,20.8715729 35.1284271,22 36.5,22 L46.5,22 Z M46.5,25 L36.5,25 C33.4715729,25 31,22.5284271 31,19.5 L31,15.5 C31,12.4715729 33.4715729,10 36.5,10 L46.5,10 C46.5,14.3325195 46.5,20.0844727 46.5,25 Z"/>
  </g>
</svg>
