<svg width="136px" height="26px" viewBox="0 0 136 26" version="1.1" xmlns="http://www.w3.org/2000/svg" xmlns:xlink="http://www.w3.org/1999/xlink">
    <defs></defs>
    <g id="Page-1" stroke="none" stroke-width="1" fill="none" fill-rule="evenodd" opacity="0.5">
        <g id="1440_index_site_prototype" transform="translate(-1092.000000, -813.000000)" fill="#575757">
            <g id="1_mane" transform="translate(164.000000, 271.000000)">
                <g id="Deloitte_Logo" transform="translate(928.000000, 542.000000)">
                    <polygon id="path3435" fill-rule="nonzero" points="43.2311939 24.8977463 49.2452696 24.8977463 49.2452696 0.517440192 43.2311939 0.517440192"></polygon>
                    <path d="M32.1553471,10.7081709 C34.3460143,10.7081709 35.0082708,12.7099638 35.0082708,13.8108315 C35.0043258,13.8108315 29.1040536,13.8108315 29.1008924,13.8108315 C29.1008924,12.253179 30.1835798,10.7081709 32.1553471,10.7081709 Z M38.448385,19.9711066 C37.485819,20.2974949 36.0277409,20.7463769 34.1729445,20.7463769 C31.5808028,20.7463769 29.5505592,19.882595 29.2202209,17.8278525 L40.2771052,17.8278525 C40.3593001,17.4342906 40.5047124,16.7981109 40.5047124,15.4743827 C40.5047124,10.8053762 38.182063,6.52044867 32.2549171,6.52044867 C26.497692,6.52044867 23.4329624,11.035349 23.4329624,16.0923859 C23.4329624,21.9246926 27.5100468,25.2604875 33.2016818,25.2604875 C36.7808859,25.2604875 38.3614551,24.4212045 39.3406215,24.0900744 L38.448385,19.9711066 L38.448385,19.9711066 Z" id="path3439" fill-rule="nonzero"></path>
                    <path d="M118.241134,10.7081709 C120.437346,10.7081709 121.094863,12.7099638 121.094863,13.8116219 C121.090898,13.8100418 115.189058,13.8100418 115.187472,13.8116219 C115.187472,12.253179 116.268583,10.7081709 118.241134,10.7081709 Z M124.535764,19.9703168 C123.573201,20.2974949 122.115114,20.7471673 120.261888,20.7471673 C117.666603,20.7471673 115.637935,19.882595 115.305227,17.8294332 L126.363691,17.8294332 C126.445884,17.435081 126.590508,16.7973205 126.590508,15.4751731 C126.590508,10.8045858 124.267865,6.52044867 118.342297,6.52044867 C112.585859,6.52044867 109.518763,11.0337689 109.518763,16.0915955 C109.518763,21.9231119 113.602161,25.2589067 119.290633,25.2589067 C122.865895,25.2589067 124.448035,24.4212045 125.428775,24.089284 L124.535764,19.9703168 L124.535764,19.9703168 Z" id="path3443" fill-rule="nonzero"></path>
                    <path d="M61.3105577,20.8072287 C59.3640813,20.8072287 58.0846069,18.8820935 58.0846069,15.904298 C58.0846069,13.5310704 58.9420706,10.9982058 61.3326813,10.9982058 C63.6395233,10.9982058 64.4574685,13.6235339 64.4574685,15.8782183 C64.4574685,18.8702389 63.2127701,20.8072287 61.3105577,20.8072287 Z M61.2315239,25.2557457 C65.9108041,25.2557457 70.6469854,22.3095615 70.6469854,15.728064 C70.6469854,11.8082483 68.3259173,6.54573741 61.5247211,6.54573741 C54.5235814,6.54573741 51.9701698,11.64624 51.9701698,16.0267918 C51.9701698,21.5232275 55.7872499,25.2557457 61.2315239,25.2557457 L61.2315239,25.2557457 Z" id="path3447" fill-rule="nonzero"></path>
                    <polygon id="path3449" fill-rule="nonzero" points="73.3007645 24.8898437 79.3148403 24.8898437 79.3148403 6.91084968 73.3007645 6.91084968"></polygon>
                    <path d="M97.990866,6.90689829 L95.6776925,6.9124298 L95.6776925,11.3672693 L97.9821739,11.36964 L97.9821739,18.7967428 C97.9821739,22.7489602 99.8504049,25.2707612 104.068164,25.2707612 C105.950622,25.2707612 107.985604,24.7815744 108.323847,24.6725153 C108.32859,24.6685633 108.289064,20.0153626 108.289064,19.998767 C108.096237,20.0635701 106.96061,20.2982852 106.214571,20.2982852 C105.368177,20.2982852 103.877701,20.060409 103.877701,17.7938702 L103.877701,11.3672693 L107.753266,11.3672693 L107.753266,6.90373682 C107.753266,6.90373682 104.389008,6.90373682 103.877701,6.90373682 C103.877701,6.37819699 103.877701,1.35198146 103.877701,1.35198146 L97.9821739,2.0189826 L97.990866,6.90689829 Z" id="path3453" fill-rule="nonzero"></path>
                    <path d="M84.0636617,2.0189826 L84.0723553,6.90689829 L81.7591909,6.9124298 L81.7591909,11.3672693 L84.0636617,11.36964 L84.0636617,18.7967428 C84.0636617,22.7489602 85.9319003,25.2707612 90.1504397,25.2707612 C92.032116,25.2707612 94.0670975,24.7815744 94.405341,24.6725153 C94.4100836,24.6685633 94.3705728,20.0153626 94.3705728,19.998767 C94.1777308,20.0635701 93.0420889,20.2982852 92.2968582,20.2982852 C91.449668,20.2982852 89.9591913,20.060409 89.9591913,17.7938702 L89.9591913,11.3672693 L93.8355377,11.3672693 L93.8355377,6.90373682 C93.8355377,6.90373682 90.4705092,6.90373682 89.9591913,6.90373682 C89.9591913,6.37819699 89.9591913,1.35198146 89.9591913,1.35198146 L84.0636617,2.0189826" id="path3457" fill-rule="nonzero"></path>
                    <polygon id="path3459" fill-rule="nonzero" points="73.3007645 5.19593004 79.3148403 5.19593004 79.3148403 0.525342809 73.3007645 0.525342809"></polygon>
                    <path d="M0.116380423,24.9182939 L7.21077232,24.9151325 C17.6117225,24.9151325 21.5757947,18.7074402 21.5757947,12.8087498 C21.5757947,4.72571006 16.4215477,0.114394666 7.06614999,0.114394666 C4.49455968,0.114394666 1.66138837,0.228195221 0.109266649,0.39810721 L0.116380423,24.9182939 Z M8.11722873,20.0864888 C7.3150909,20.0691022 6.48133832,20.1315346 6.05932761,20.0951817 C6.06169887,20.093601 6.02376637,5.11295004 6.04826123,5.10978903 C6.49082335,5.06316186 7.27399722,5.02206728 8.18519615,5.02206728 C11.7177726,5.02206728 15.3262141,7.33444249 15.3262141,12.6301453 C15.3262141,18.6987472 10.7149013,20.1433892 8.11722873,20.0864888 L8.11722873,20.0864888 Z" id="path3463"></path>
                    <path d="M128.53619,21.9555133 C128.53619,20.1181 130.025874,18.6292019 131.863286,18.6292019 C133.699906,18.6292019 135.191175,20.1181 135.191175,21.9555133 C135.191175,23.7937178 133.699906,25.2834056 131.863286,25.2834056 C130.025874,25.2834056 128.53619,23.7937178 128.53619,21.9555133" id="path3467" fill-rule="nonzero"></path>
                </g>
            </g>
        </g>
    </g>
</svg>