<svg xmlns="http://www.w3.org/2000/svg" xmlns:xlink="http://www.w3.org/1999/xlink" width="845" height="590" viewBox="0 0 845 590">
  <defs>
    <path id="developers_1st_screen_image-b" d="M4,-7.99352446e-15 L586,4.39468611e-13 L586,4.42312853e-13 C588.209139,4.41907036e-13 590,1.790861 590,4 L590,367 L590,367 C590,369.209139 588.209139,371 586,371 L4,371 L4,371 C1.790861,371 3.16642949e-14,369.209139 0,367 L0,4 L-3.10862447e-15,4 C-3.37916597e-15,1.790861 1.790861,4.05816873e-16 4,0 Z"/>
    <filter id="developers_1st_screen_image-a" width="111.4%" height="118.1%" x="-5.7%" y="-5.8%" filterUnits="objectBoundingBox">
      <feOffset dy="2" in="SourceAlpha" result="shadowOffsetOuter1"/>
      <feGaussianBlur in="shadowOffsetOuter1" result="shadowBlurOuter1" stdDeviation="3"/>
      <feColorMatrix in="shadowBlurOuter1" result="shadowMatrixOuter1" values="0 0 0 0 0.694117647   0 0 0 0 0.752941176   0 0 0 0 0.839215686  0 0 0 0.4 0"/>
      <feOffset dy="10" in="SourceAlpha" result="shadowOffsetOuter2"/>
      <feGaussianBlur in="shadowOffsetOuter2" result="shadowBlurOuter2" stdDeviation="7.5"/>
      <feColorMatrix in="shadowBlurOuter2" result="shadowMatrixOuter2" values="0 0 0 0 0.705882353   0 0 0 0 0.788235294   0 0 0 0 0.952941176  0 0 0 0.35 0"/>
      <feMerge>
        <feMergeNode in="shadowMatrixOuter1"/>
        <feMergeNode in="shadowMatrixOuter2"/>
      </feMerge>
    </filter>
  </defs>
  <g fill="none" fill-rule="evenodd" transform="translate(-1)">
    <g opacity=".5" transform="translate(201)">
      <path fill="#172947" d="M4,-7.99352446e-15 L586,4.39468611e-13 L586,4.42312853e-13 C588.209139,4.41907036e-13 590,1.790861 590,4 L590,367 L590,367 C590,369.209139 588.209139,371 586,371 L4,371 L4,371 C1.790861,371 3.16642949e-14,369.209139 0,367 L0,4 L-3.10862447e-15,4 C-3.37916597e-15,1.790861 1.790861,4.05816873e-16 4,0 Z" transform="translate(1)"/>
      <path stroke="#DFE4EE" stroke-linecap="round" stroke-width="6" d="M60 105L78 105M91 105L125 105M60 118L78 118M91 118L125 118M138 118L242 118M138 131L242 131M60 131L78 131M91 131L125 131M255 131L289 131M138 144L242 144M60 144L78 144M60 157L258 157M60 170L530 170M60 183L530 183M60 196L530 196M60 209L530 209M60 222L530 222M60 234L530 234M60 247L530 247M60 260L530 260M60 299L530 299M271 157L529 157M91 144L125 144M60 273L78 273M91 273L125 273M138 273L242 273M138 286L242 286M60 286L78 286M91 286L125 286M255 144L289 144M302 144L466 144" opacity=".4"/>
      <circle cx="36" cy="25" r="6" fill="#ED6B60"/>
      <circle cx="57" cy="25" r="6" fill="#F6C050"/>
      <circle cx="78" cy="25" r="6" fill="#64CA57"/>
      <path stroke="#DFE4EE" stroke-linecap="square" d="M0.5,51.5 L591.74445,51.5" opacity=".1"/>
    </g>
    <g transform="translate(88.22 52)">
      <path fill="#172947" d="M4,-7.99352446e-15 L586,4.39468611e-13 L586,4.42312853e-13 C588.209139,4.41907036e-13 590,1.790861 590,4 L590,367 L590,367 C590,369.209139 588.209139,371 586,371 L4,371 L4,371 C1.790861,371 3.16642949e-14,369.209139 0,367 L0,4 L-3.10862447e-15,4 C-3.37916597e-15,1.790861 1.790861,4.05816873e-16 4,0 Z" transform="translate(1)"/>
      <path stroke="#DFE4EE" stroke-linecap="round" stroke-width="6" d="M60 105L78 105M91 105L125 105M60 118L78 118M91 118L125 118M138 118L242 118M138 131L242 131M60 131L78 131M91 131L125 131M255 131L289 131M138 144L242 144M60 144L78 144M60 157L258 157M60 170L530 170M60 183L530 183M60 196L530 196M60 209L530 209M60 222L530 222M60 234L530 234M60 247L530 247M60 260L530 260M60 299L530 299M271 157L529 157M91 144L125 144M60 273L78 273M91 273L125 273M138 273L242 273M138 286L242 286M60 286L78 286M91 286L125 286M255 144L289 144M302 144L466 144" opacity=".4"/>
      <circle cx="36" cy="25" r="6" fill="#ED6B60" opacity=".5"/>
      <circle cx="57" cy="25" r="6" fill="#F6C050" opacity=".5"/>
      <circle cx="78" cy="25" r="6" fill="#64CA57" opacity=".5"/>
      <path stroke="#DFE4EE" stroke-linecap="square" d="M0.5,51.5 L591.74445,51.5" opacity=".1"/>
    </g>
    <g opacity=".1" transform="rotate(150 -.432 233.008)">
      <path stroke="#DFE4EE" stroke-linecap="square" d="M6.5 58.5L28.0522621 36.9477379M5.5 61.5L81.3798828 78.6367188M25.7546872 3.11517544L30.1794919 33.9833395M29.7604344 35.7128502L59.2966349 73.6855097"/>
      <circle cx="5" cy="61" r="5" fill="#DFE4EE"/>
      <circle cx="30" cy="35" r="3" fill="#DFE4EE"/>
      <circle cx="25.179" cy="3.349" r="3" fill="#DFE4EE"/>
      <circle cx="59.5" cy="73.866" r="3" fill="#DFE4EE"/>
      <circle cx="83" cy="79" r="3" fill="#DFE4EE"/>
    </g>
    <g opacity=".1" transform="rotate(-180 77.61 203.5)">
      <path stroke="#DFE4EE" stroke-linecap="square" d="M6.5 58.5L28.0522621 36.9477379M5.5 61.5L81.3798828 78.6367188M25.7546872 3.11517544L30.1794919 33.9833395M29.7604344 35.7128502L59.2966349 73.6855097"/>
      <circle cx="5" cy="61" r="5" fill="#DFE4EE"/>
      <circle cx="30" cy="35" r="3" fill="#DFE4EE"/>
      <circle cx="25.179" cy="3.349" r="3" fill="#DFE4EE"/>
      <circle cx="59.5" cy="73.866" r="3" fill="#DFE4EE"/>
      <circle cx="83" cy="79" r="3" fill="#DFE4EE"/>
    </g>
    <g opacity=".1" transform="rotate(161 407.824 228.375)">
      <path stroke="#DFE4EE" stroke-linecap="square" d="M51.5 58.5L73.0522621 36.9477379M6.51675758 66.2786825L70.4957815 2.29965855M50.5 61.5L126.379883 78.6367188M70.7546872 3.11517544L75.1794919 33.9833395M8.29937345 65.7969783L51.4755821 59.6712898M74.7604344 35.7128502L104.296635 73.6855097"/>
      <circle cx="50" cy="61" r="5" fill="#DFE4EE"/>
      <circle cx="5.668" cy="66.888" r="5" fill="#DFE4EE"/>
      <circle cx="75" cy="35" r="3" fill="#DFE4EE"/>
      <circle cx="70.179" cy="3.349" r="3" fill="#DFE4EE"/>
      <circle cx="104.5" cy="73.866" r="3" fill="#DFE4EE"/>
      <circle cx="128" cy="79" r="3" fill="#DFE4EE"/>
    </g>
    <g transform="translate(145.22 194)">
      <use fill="#000" filter="url(#developers_1st_screen_image-a)" xlink:href="#developers_1st_screen_image-b"/>
      <use fill="#FFF" xlink:href="#developers_1st_screen_image-b"/>
      <rect width="590" height="40" y="50" fill="#DFE4EE" rx="4"/>
      <path fill="#A2E0F5" fill-rule="nonzero" d="M44 145L55 145C56.6568542 145 58 143.656854 58 142 58 140.343146 56.6568542 139 55 139L44 139C42.3431458 139 41 140.343146 41 142 41 143.656854 42.3431458 145 44 145zM464 145L545 145C546.656854 145 548 143.656854 548 142 548 140.343146 546.656854 139 545 139L464 139C462.343146 139 461 140.343146 461 142 461 143.656854 462.343146 145 464 145z"/>
      <path fill="#4F89DC" fill-rule="nonzero" d="M301,145 L362,145 C363.656854,145 365,143.656854 365,142 C365,140.343146 363.656854,139 362,139 L301,139 C299.343146,139 298,140.343146 298,142 C298,143.656854 299.343146,145 301,145 Z"/>
      <path fill="#DFE4EE" fill-rule="nonzero" d="M68,145 L289,145 C290.656854,145 292,143.656854 292,142 C292,140.343146 290.656854,139 289,139 L68,139 C66.3431458,139 65,140.343146 65,142 C65,143.656854 66.3431458,145 68,145 Z"/>
      <path fill="#A2E0F5" fill-rule="nonzero" d="M44 161L55 161C56.6568542 161 58 159.656854 58 158 58 156.343146 56.6568542 155 55 155L44 155C42.3431458 155 41 156.343146 41 158 41 159.656854 42.3431458 161 44 161zM474 161L545 161C546.656854 161 548 159.656854 548 158 548 156.343146 546.656854 155 545 155L474 155C472.343146 155 471 156.343146 471 158 471 159.656854 472.343146 161 474 161z"/>
      <path fill="#4F89DC" fill-rule="nonzero" d="M301,161 L382,161 C383.656854,161 385,159.656854 385,158 C385,156.343146 383.656854,155 382,155 L301,155 C299.343146,155 298,156.343146 298,158 C298,159.656854 299.343146,161 301,161 Z"/>
      <path fill="#DFE4EE" fill-rule="nonzero" d="M68,161 L289,161 C290.656854,161 292,159.656854 292,158 C292,156.343146 290.656854,155 289,155 L68,155 C66.3431458,155 65,156.343146 65,158 C65,159.656854 66.3431458,161 68,161 Z"/>
      <path fill="#A2E0F5" fill-rule="nonzero" d="M44 177L55 177C56.6568542 177 58 175.656854 58 174 58 172.343146 56.6568542 171 55 171L44 171C42.3431458 171 41 172.343146 41 174 41 175.656854 42.3431458 177 44 177zM478 177L545 177C546.656854 177 548 175.656854 548 174 548 172.343146 546.656854 171 545 171L478 171C476.343146 171 475 172.343146 475 174 475 175.656854 476.343146 177 478 177z"/>
      <path fill="#4F89DC" fill-rule="nonzero" d="M301,177 L352,177 C353.656854,177 355,175.656854 355,174 C355,172.343146 353.656854,171 352,171 L301,171 C299.343146,171 298,172.343146 298,174 C298,175.656854 299.343146,177 301,177 Z"/>
      <path fill="#DFE4EE" fill-rule="nonzero" d="M68,177 L289,177 C290.656854,177 292,175.656854 292,174 C292,172.343146 290.656854,171 289,171 L68,171 C66.3431458,171 65,172.343146 65,174 C65,175.656854 66.3431458,177 68,177 Z"/>
      <path fill="#A2E0F5" fill-rule="nonzero" d="M44 193L55 193C56.6568542 193 58 191.656854 58 190 58 188.343146 56.6568542 187 55 187L44 187C42.3431458 187 41 188.343146 41 190 41 191.656854 42.3431458 193 44 193zM484 193L545 193C546.656854 193 548 191.656854 548 190 548 188.343146 546.656854 187 545 187L484 187C482.343146 187 481 188.343146 481 190 481 191.656854 482.343146 193 484 193z"/>
      <path fill="#4F89DC" fill-rule="nonzero" d="M301,193 L402,193 C403.656854,193 405,191.656854 405,190 C405,188.343146 403.656854,187 402,187 L301,187 C299.343146,187 298,188.343146 298,190 C298,191.656854 299.343146,193 301,193 Z"/>
      <path fill="#DFE4EE" fill-rule="nonzero" d="M68,193 L289,193 C290.656854,193 292,191.656854 292,190 C292,188.343146 290.656854,187 289,187 L68,187 C66.3431458,187 65,188.343146 65,190 C65,191.656854 66.3431458,193 68,193 Z"/>
      <path fill="#A2E0F5" fill-rule="nonzero" d="M44 209L55 209C56.6568542 209 58 207.656854 58 206 58 204.343146 56.6568542 203 55 203L44 203C42.3431458 203 41 204.343146 41 206 41 207.656854 42.3431458 209 44 209zM487 209L545 209C546.656854 209 548 207.656854 548 206 548 204.343146 546.656854 203 545 203L487 203C485.343146 203 484 204.343146 484 206 484 207.656854 485.343146 209 487 209z"/>
      <path fill="#4F89DC" fill-rule="nonzero" d="M301,209 L342,209 C343.656854,209 345,207.656854 345,206 C345,204.343146 343.656854,203 342,203 L301,203 C299.343146,203 298,204.343146 298,206 C298,207.656854 299.343146,209 301,209 Z"/>
      <path fill="#DFE4EE" fill-rule="nonzero" d="M68,209 L289,209 C290.656854,209 292,207.656854 292,206 C292,204.343146 290.656854,203 289,203 L68,203 C66.3431458,203 65,204.343146 65,206 C65,207.656854 66.3431458,209 68,209 Z"/>
      <path fill="#A2E0F5" fill-rule="nonzero" d="M44 225L55 225C56.6568542 225 58 223.656854 58 222 58 220.343146 56.6568542 219 55 219L44 219C42.3431458 219 41 220.343146 41 222 41 223.656854 42.3431458 225 44 225zM488 225L545 225C546.656854 225 548 223.656854 548 222 548 220.343146 546.656854 219 545 219L488 219C486.343146 219 485 220.343146 485 222 485 223.656854 486.343146 225 488 225z"/>
      <path fill="#4F89DC" fill-rule="nonzero" d="M301,225 L462,225 C463.656854,225 465,223.656854 465,222 C465,220.343146 463.656854,219 462,219 L301,219 C299.343146,219 298,220.343146 298,222 C298,223.656854 299.343146,225 301,225 Z"/>
      <path fill="#DFE4EE" fill-rule="nonzero" d="M68,225 L289,225 C290.656854,225 292,223.656854 292,222 C292,220.343146 290.656854,219 289,219 L68,219 C66.3431458,219 65,220.343146 65,222 C65,223.656854 66.3431458,225 68,225 Z"/>
      <path fill="#A2E0F5" fill-rule="nonzero" d="M44 241L55 241C56.6568542 241 58 239.656854 58 238 58 236.343146 56.6568542 235 55 235L44 235C42.3431458 235 41 236.343146 41 238 41 239.656854 42.3431458 241 44 241zM493 241L545 241C546.656854 241 548 239.656854 548 238 548 236.343146 546.656854 235 545 235L493 235C491.343146 235 490 236.343146 490 238 490 239.656854 491.343146 241 493 241z"/>
      <path fill="#4F89DC" fill-rule="nonzero" d="M301,241 L322,241 C323.656854,241 325,239.656854 325,238 C325,236.343146 323.656854,235 322,235 L301,235 C299.343146,235 298,236.343146 298,238 C298,239.656854 299.343146,241 301,241 Z"/>
      <path fill="#DFE4EE" fill-rule="nonzero" d="M68,241 L289,241 C290.656854,241 292,239.656854 292,238 C292,236.343146 290.656854,235 289,235 L68,235 C66.3431458,235 65,236.343146 65,238 C65,239.656854 66.3431458,241 68,241 Z"/>
      <path fill="#A2E0F5" fill-rule="nonzero" d="M44 258L55 258C56.6568542 258 58 256.656854 58 255 58 253.343146 56.6568542 252 55 252L44 252C42.3431458 252 41 253.343146 41 255 41 256.656854 42.3431458 258 44 258zM494 258L545 258C546.656854 258 548 256.656854 548 255 548 253.343146 546.656854 252 545 252L494 252C492.343146 252 491 253.343146 491 255 491 256.656854 492.343146 258 494 258z"/>
      <path fill="#4F89DC" fill-rule="nonzero" d="M301,258 L382,258 C383.656854,258 385,256.656854 385,255 C385,253.343146 383.656854,252 382,252 L301,252 C299.343146,252 298,253.343146 298,255 C298,256.656854 299.343146,258 301,258 Z"/>
      <path fill="#DFE4EE" fill-rule="nonzero" d="M68,258 L289,258 C290.656854,258 292,256.656854 292,255 C292,253.343146 290.656854,252 289,252 L68,252 C66.3431458,252 65,253.343146 65,255 C65,256.656854 66.3431458,258 68,258 Z"/>
      <path fill="#A2E0F5" fill-rule="nonzero" d="M44 274L55 274C56.6568542 274 58 272.656854 58 271 58 269.343146 56.6568542 268 55 268L44 268C42.3431458 268 41 269.343146 41 271 41 272.656854 42.3431458 274 44 274zM504 274L545 274C546.656854 274 548 272.656854 548 271 548 269.343146 546.656854 268 545 268L504 268C502.343146 268 501 269.343146 501 271 501 272.656854 502.343146 274 504 274z"/>
      <path fill="#4F89DC" fill-rule="nonzero" d="M301,274 L432,274 C433.656854,274 435,272.656854 435,271 C435,269.343146 433.656854,268 432,268 L301,268 C299.343146,268 298,269.343146 298,271 C298,272.656854 299.343146,274 301,274 Z"/>
      <path fill="#DFE4EE" fill-rule="nonzero" d="M68,274 L289,274 C290.656854,274 292,272.656854 292,271 C292,269.343146 290.656854,268 289,268 L68,268 C66.3431458,268 65,269.343146 65,271 C65,272.656854 66.3431458,274 68,274 Z"/>
      <path fill="#A2E0F5" fill-rule="nonzero" d="M44 290L55 290C56.6568542 290 58 288.656854 58 287 58 285.343146 56.6568542 284 55 284L44 284C42.3431458 284 41 285.343146 41 287 41 288.656854 42.3431458 290 44 290zM504.107422 290L545 290C546.656854 290 548 288.656854 548 287 548 285.343146 546.656854 284 545 284L504.107422 284C502.450568 284 501.107422 285.343146 501.107422 287 501.107422 288.656854 502.450568 290 504.107422 290z"/>
      <path fill="#4F89DC" fill-rule="nonzero" d="M301,290 L362,290 C363.656854,290 365,288.656854 365,287 C365,285.343146 363.656854,284 362,284 L301,284 C299.343146,284 298,285.343146 298,287 C298,288.656854 299.343146,290 301,290 Z"/>
      <path fill="#DFE4EE" fill-rule="nonzero" d="M68,290 L289,290 C290.656854,290 292,288.656854 292,287 C292,285.343146 290.656854,284 289,284 L68,284 C66.3431458,284 65,285.343146 65,287 C65,288.656854 66.3431458,290 68,290 Z"/>
      <path fill="#A2E0F5" fill-rule="nonzero" d="M44 309L55 309C56.6568542 309 58 307.656854 58 306 58 304.343146 56.6568542 303 55 303L44 303C42.3431458 303 41 304.343146 41 306 41 307.656854 42.3431458 309 44 309zM534 309L545 309C546.656854 309 548 307.656854 548 306 548 304.343146 546.656854 303 545 303L534 303C532.343146 303 531 304.343146 531 306 531 307.656854 532.343146 309 534 309z"/>
      <path fill="#4F89DC" fill-rule="nonzero" d="M301,309 L352,309 C353.656854,309 355,307.656854 355,306 C355,304.343146 353.656854,303 352,303 L301,303 C299.343146,303 298,304.343146 298,306 C298,307.656854 299.343146,309 301,309 Z"/>
      <path fill="#DFE4EE" fill-rule="nonzero" d="M68,309 L289,309 C290.656854,309 292,307.656854 292,306 C292,304.343146 290.656854,303 289,303 L68,303 C66.3431458,303 65,304.343146 65,306 C65,307.656854 66.3431458,309 68,309 Z"/>
      <path fill="#A2E0F5" fill-rule="nonzero" d="M44,309 L55,309 C56.6568542,309 58,307.656854 58,306 C58,304.343146 56.6568542,303 55,303 L44,303 C42.3431458,303 41,304.343146 41,306 C41,307.656854 42.3431458,309 44,309 Z"/>
      <path fill="#DFE4EE" fill-rule="nonzero" d="M68,309 L289,309 C290.656854,309 292,307.656854 292,306 C292,304.343146 290.656854,303 289,303 L68,303 C66.3431458,303 65,304.343146 65,306 C65,307.656854 66.3431458,309 68,309 Z"/>
      <polygon fill="#DFE4EE" fill-rule="nonzero" points="41.5 297 549.5 297 549.5 296 41.5 296" opacity=".4"/>
      <polygon fill="#DFE4EE" fill-rule="nonzero" points="41.5 280 549.5 280 549.5 279 41.5 279" opacity=".4"/>
      <polygon fill="#DFE4EE" fill-rule="nonzero" points="41.5 264 549.5 264 549.5 263 41.5 263" opacity=".4"/>
      <polygon fill="#DFE4EE" fill-rule="nonzero" points="41.5 248 549.5 248 549.5 247 41.5 247" opacity=".4"/>
      <polygon fill="#DFE4EE" fill-rule="nonzero" points="41.5 232 549.5 232 549.5 231 41.5 231" opacity=".4"/>
      <polygon fill="#DFE4EE" fill-rule="nonzero" points="41.5 215 549.5 215 549.5 214 41.5 214" opacity=".4"/>
      <polygon fill="#DFE4EE" fill-rule="nonzero" points="41.5 199 549.5 199 549.5 198 41.5 198" opacity=".4"/>
      <polygon fill="#DFE4EE" fill-rule="nonzero" points="41.5 183 549.5 183 549.5 182 41.5 182" opacity=".4"/>
      <polygon fill="#DFE4EE" fill-rule="nonzero" points="41.5 167 549.5 167 549.5 166 41.5 166" opacity=".4"/>
      <polygon fill="#DFE4EE" fill-rule="nonzero" points="41.5 151 549.5 151 549.5 150 41.5 150" opacity=".4"/>
      <polygon fill="#DFE4EE" fill-rule="nonzero" points="41.5 134 549.5 134 549.5 133 41.5 133" opacity=".4"/>
      <polygon fill="#DFE4EE" fill-rule="nonzero" points="30.5 85 559.5 85 559.5 84 30.5 84"/>
      <path stroke="#DFE4EE" stroke-linecap="square" d="M31,68.5 L559,68.5" opacity=".33"/>
      <circle cx="36" cy="24" r="6" fill="#ED6B60"/>
      <circle cx="57" cy="24" r="6" fill="#F6C050"/>
      <circle cx="78" cy="24" r="6" fill="#64CA57"/>
      <path stroke="#DFE4EE" stroke-linecap="square" d="M0.5,50.5 L591.74445,50.5" opacity=".5"/>
      <path fill="#FFF" fill-rule="nonzero" d="M52 73L122 73C123.656854 73 125 71.6568542 125 70 125 68.3431458 123.656854 67 122 67L52 67C50.3431458 67 49 68.3431458 49 70 49 71.6568542 50.3431458 73 52 73zM182 73L232 73C233.656854 73 235 71.6568542 235 70 235 68.3431458 233.656854 67 232 67L182 67C180.343146 67 179 68.3431458 179 70 179 71.6568542 180.343146 73 182 73zM517 73L537 73C538.656854 73 540 71.6568542 540 70 540 68.3431458 538.656854 67 537 67L517 67C515.343146 67 514 68.3431458 514 70 514 71.6568542 515.343146 73 517 73zM258 73L308 73C309.656854 73 311 71.6568542 311 70 311 68.3431458 309.656854 67 308 67L258 67C256.343146 67 255 68.3431458 255 70 255 71.6568542 256.343146 73 258 73zM334 73L384 73C385.656854 73 387 71.6568542 387 70 387 68.3431458 385.656854 67 384 67L334 67C332.343146 67 331 68.3431458 331 70 331 71.6568542 332.343146 73 334 73z"/>
    </g>
    <g opacity=".1" transform="translate(531.22 123)">
      <path stroke="#DFE4EE" stroke-linecap="square" d="M6.5 26.5L28.0522621 4.94773794M5.5 29.5L81.3798828 46.6367188M30.0751953 3.63183594L34.5 34.5"/>
      <circle cx="5" cy="29" r="5" fill="#DFE4EE"/>
      <circle cx="30" cy="3" r="3" fill="#DFE4EE"/>
      <circle cx="34" cy="36" r="3" fill="#DFE4EE"/>
      <circle cx="83" cy="47" r="3" fill="#DFE4EE"/>
    </g>
  </g>
</svg>
