<svg xmlns="http://www.w3.org/2000/svg" xmlns:xlink="http://www.w3.org/1999/xlink" width="662" height="443" viewBox="0 0 662 443">
  <defs>
    <path id="table-b" d="M4,-7.99357867e-15 L586,4.3946853e-13 L586,4.42312853e-13 C588.209139,3.79119533e-13 590,1.790861 590,4 L590,367 L590,367 C590,369.209139 588.209139,371 586,371 L4,371 L4,371 C1.790861,371 2.705415e-16,369.209139 0,367 L0,4 L-3.55271368e-15,4 C-3.82325518e-15,1.790861 1.790861,4.05816873e-16 4,0 Z"/>
    <filter id="table-a" width="105.4%" height="108.6%" x="-2.7%" y="-3.8%" filterUnits="objectBoundingBox">
      <feOffset dy="2" in="SourceAlpha" result="shadowOffsetOuter1"/>
      <feGaussianBlur in="shadowOffsetOuter1" result="shadowBlurOuter1" stdDeviation="5"/>
      <feColorMatrix in="shadowBlurOuter1" values="0 0 0 0 0.59345609   0 0 0 0 0.653819356   0 0 0 0 0.741443452  0 0 0 0.2 0"/>
    </filter>
  </defs>
  <g fill="none" fill-rule="evenodd" transform="translate(10)">
    <g transform="translate(59)">
      <path fill="#172947" d="M4,-7.99357867e-15 L586,4.3946853e-13 L586,4.42312853e-13 C588.209139,3.79119533e-13 590,1.790861 590,4 L590,367 L590,367 C590,369.209139 588.209139,371 586,371 L4,371 L4,371 C1.790861,371 2.705415e-16,369.209139 0,367 L0,4 L-3.55271368e-15,4 C-3.82325518e-15,1.790861 1.790861,4.05816873e-16 4,0 Z" transform="translate(1)"/>
      <circle cx="36" cy="35" r="6" fill="#DFE4EE" opacity=".2"/>
      <circle cx="57" cy="35" r="6" fill="#DFE4EE" opacity=".2"/>
      <circle cx="78" cy="35" r="6" fill="#DFE4EE" opacity=".2"/>
      <path stroke="#DFE4EE" stroke-linecap="square" d="M0.5,61.5 L591.74445,61.5" opacity=".1"/>
    </g>
    <g transform="translate(0 60)">
      <use fill="#000" filter="url(#table-a)" xlink:href="#table-b"/>
      <use fill="#FFF" xlink:href="#table-b"/>
      <rect width="590" height="40" y="62" fill="#DFE4EE" rx="4"/>
      <path fill="#A2E0F5" fill-rule="nonzero" d="M44 157L55 157C56.6568542 157 58 155.656854 58 154 58 152.343146 56.6568542 151 55 151L44 151C42.3431458 151 41 152.343146 41 154 41 155.656854 42.3431458 157 44 157zM464 157L545 157C546.656854 157 548 155.656854 548 154 548 152.343146 546.656854 151 545 151L464 151C462.343146 151 461 152.343146 461 154 461 155.656854 462.343146 157 464 157z"/>
      <path fill="#4F89DC" fill-rule="nonzero" d="M301,157 L362,157 C363.656854,157 365,155.656854 365,154 C365,152.343146 363.656854,151 362,151 L301,151 C299.343146,151 298,152.343146 298,154 C298,155.656854 299.343146,157 301,157 Z"/>
      <path fill="#DFE4EE" fill-rule="nonzero" d="M68,157 L289,157 C290.656854,157 292,155.656854 292,154 C292,152.343146 290.656854,151 289,151 L68,151 C66.3431458,151 65,152.343146 65,154 C65,155.656854 66.3431458,157 68,157 Z"/>
      <path fill="#A2E0F5" fill-rule="nonzero" d="M44 173L55 173C56.6568542 173 58 171.656854 58 170 58 168.343146 56.6568542 167 55 167L44 167C42.3431458 167 41 168.343146 41 170 41 171.656854 42.3431458 173 44 173zM474 173L545 173C546.656854 173 548 171.656854 548 170 548 168.343146 546.656854 167 545 167L474 167C472.343146 167 471 168.343146 471 170 471 171.656854 472.343146 173 474 173z"/>
      <path fill="#4F89DC" fill-rule="nonzero" d="M301,173 L382,173 C383.656854,173 385,171.656854 385,170 C385,168.343146 383.656854,167 382,167 L301,167 C299.343146,167 298,168.343146 298,170 C298,171.656854 299.343146,173 301,173 Z"/>
      <path fill="#DFE4EE" fill-rule="nonzero" d="M68,173 L289,173 C290.656854,173 292,171.656854 292,170 C292,168.343146 290.656854,167 289,167 L68,167 C66.3431458,167 65,168.343146 65,170 C65,171.656854 66.3431458,173 68,173 Z"/>
      <path fill="#A2E0F5" fill-rule="nonzero" d="M44 189L55 189C56.6568542 189 58 187.656854 58 186 58 184.343146 56.6568542 183 55 183L44 183C42.3431458 183 41 184.343146 41 186 41 187.656854 42.3431458 189 44 189zM478 189L545 189C546.656854 189 548 187.656854 548 186 548 184.343146 546.656854 183 545 183L478 183C476.343146 183 475 184.343146 475 186 475 187.656854 476.343146 189 478 189z"/>
      <path fill="#4F89DC" fill-rule="nonzero" d="M301,189 L352,189 C353.656854,189 355,187.656854 355,186 C355,184.343146 353.656854,183 352,183 L301,183 C299.343146,183 298,184.343146 298,186 C298,187.656854 299.343146,189 301,189 Z"/>
      <path fill="#DFE4EE" fill-rule="nonzero" d="M68,189 L289,189 C290.656854,189 292,187.656854 292,186 C292,184.343146 290.656854,183 289,183 L68,183 C66.3431458,183 65,184.343146 65,186 C65,187.656854 66.3431458,189 68,189 Z"/>
      <path fill="#A2E0F5" fill-rule="nonzero" d="M44 205L55 205C56.6568542 205 58 203.656854 58 202 58 200.343146 56.6568542 199 55 199L44 199C42.3431458 199 41 200.343146 41 202 41 203.656854 42.3431458 205 44 205zM484 205L545 205C546.656854 205 548 203.656854 548 202 548 200.343146 546.656854 199 545 199L484 199C482.343146 199 481 200.343146 481 202 481 203.656854 482.343146 205 484 205z"/>
      <path fill="#4F89DC" fill-rule="nonzero" d="M301,205 L402,205 C403.656854,205 405,203.656854 405,202 C405,200.343146 403.656854,199 402,199 L301,199 C299.343146,199 298,200.343146 298,202 C298,203.656854 299.343146,205 301,205 Z"/>
      <path fill="#DFE4EE" fill-rule="nonzero" d="M68,205 L289,205 C290.656854,205 292,203.656854 292,202 C292,200.343146 290.656854,199 289,199 L68,199 C66.3431458,199 65,200.343146 65,202 C65,203.656854 66.3431458,205 68,205 Z"/>
      <path fill="#A2E0F5" fill-rule="nonzero" d="M44 221L55 221C56.6568542 221 58 219.656854 58 218 58 216.343146 56.6568542 215 55 215L44 215C42.3431458 215 41 216.343146 41 218 41 219.656854 42.3431458 221 44 221zM487 221L545 221C546.656854 221 548 219.656854 548 218 548 216.343146 546.656854 215 545 215L487 215C485.343146 215 484 216.343146 484 218 484 219.656854 485.343146 221 487 221z"/>
      <path fill="#4F89DC" fill-rule="nonzero" d="M301,221 L342,221 C343.656854,221 345,219.656854 345,218 C345,216.343146 343.656854,215 342,215 L301,215 C299.343146,215 298,216.343146 298,218 C298,219.656854 299.343146,221 301,221 Z"/>
      <path fill="#DFE4EE" fill-rule="nonzero" d="M68,221 L289,221 C290.656854,221 292,219.656854 292,218 C292,216.343146 290.656854,215 289,215 L68,215 C66.3431458,215 65,216.343146 65,218 C65,219.656854 66.3431458,221 68,221 Z"/>
      <path fill="#A2E0F5" fill-rule="nonzero" d="M44 237L55 237C56.6568542 237 58 235.656854 58 234 58 232.343146 56.6568542 231 55 231L44 231C42.3431458 231 41 232.343146 41 234 41 235.656854 42.3431458 237 44 237zM488 237L545 237C546.656854 237 548 235.656854 548 234 548 232.343146 546.656854 231 545 231L488 231C486.343146 231 485 232.343146 485 234 485 235.656854 486.343146 237 488 237z"/>
      <path fill="#4F89DC" fill-rule="nonzero" d="M301,237 L462,237 C463.656854,237 465,235.656854 465,234 C465,232.343146 463.656854,231 462,231 L301,231 C299.343146,231 298,232.343146 298,234 C298,235.656854 299.343146,237 301,237 Z"/>
      <path fill="#DFE4EE" fill-rule="nonzero" d="M68,237 L289,237 C290.656854,237 292,235.656854 292,234 C292,232.343146 290.656854,231 289,231 L68,231 C66.3431458,231 65,232.343146 65,234 C65,235.656854 66.3431458,237 68,237 Z"/>
      <path fill="#A2E0F5" fill-rule="nonzero" d="M44 253L55 253C56.6568542 253 58 251.656854 58 250 58 248.343146 56.6568542 247 55 247L44 247C42.3431458 247 41 248.343146 41 250 41 251.656854 42.3431458 253 44 253zM493 253L545 253C546.656854 253 548 251.656854 548 250 548 248.343146 546.656854 247 545 247L493 247C491.343146 247 490 248.343146 490 250 490 251.656854 491.343146 253 493 253z"/>
      <path fill="#4F89DC" fill-rule="nonzero" d="M301,253 L322,253 C323.656854,253 325,251.656854 325,250 C325,248.343146 323.656854,247 322,247 L301,247 C299.343146,247 298,248.343146 298,250 C298,251.656854 299.343146,253 301,253 Z"/>
      <path fill="#DFE4EE" fill-rule="nonzero" d="M68,253 L289,253 C290.656854,253 292,251.656854 292,250 C292,248.343146 290.656854,247 289,247 L68,247 C66.3431458,247 65,248.343146 65,250 C65,251.656854 66.3431458,253 68,253 Z"/>
      <path fill="#A2E0F5" fill-rule="nonzero" d="M44 270L55 270C56.6568542 270 58 268.656854 58 267 58 265.343146 56.6568542 264 55 264L44 264C42.3431458 264 41 265.343146 41 267 41 268.656854 42.3431458 270 44 270zM494 270L545 270C546.656854 270 548 268.656854 548 267 548 265.343146 546.656854 264 545 264L494 264C492.343146 264 491 265.343146 491 267 491 268.656854 492.343146 270 494 270z"/>
      <path fill="#4F89DC" fill-rule="nonzero" d="M301,270 L382,270 C383.656854,270 385,268.656854 385,267 C385,265.343146 383.656854,264 382,264 L301,264 C299.343146,264 298,265.343146 298,267 C298,268.656854 299.343146,270 301,270 Z"/>
      <path fill="#DFE4EE" fill-rule="nonzero" d="M68,270 L289,270 C290.656854,270 292,268.656854 292,267 C292,265.343146 290.656854,264 289,264 L68,264 C66.3431458,264 65,265.343146 65,267 C65,268.656854 66.3431458,270 68,270 Z"/>
      <path fill="#A2E0F5" fill-rule="nonzero" d="M44 286L55 286C56.6568542 286 58 284.656854 58 283 58 281.343146 56.6568542 280 55 280L44 280C42.3431458 280 41 281.343146 41 283 41 284.656854 42.3431458 286 44 286zM504 286L545 286C546.656854 286 548 284.656854 548 283 548 281.343146 546.656854 280 545 280L504 280C502.343146 280 501 281.343146 501 283 501 284.656854 502.343146 286 504 286z"/>
      <path fill="#4F89DC" fill-rule="nonzero" d="M301,286 L432,286 C433.656854,286 435,284.656854 435,283 C435,281.343146 433.656854,280 432,280 L301,280 C299.343146,280 298,281.343146 298,283 C298,284.656854 299.343146,286 301,286 Z"/>
      <path fill="#DFE4EE" fill-rule="nonzero" d="M68,286 L289,286 C290.656854,286 292,284.656854 292,283 C292,281.343146 290.656854,280 289,280 L68,280 C66.3431458,280 65,281.343146 65,283 C65,284.656854 66.3431458,286 68,286 Z"/>
      <path fill="#A2E0F5" fill-rule="nonzero" d="M44 302L55 302C56.6568542 302 58 300.656854 58 299 58 297.343146 56.6568542 296 55 296L44 296C42.3431458 296 41 297.343146 41 299 41 300.656854 42.3431458 302 44 302zM504.107422 302L545 302C546.656854 302 548 300.656854 548 299 548 297.343146 546.656854 296 545 296L504.107422 296C502.450568 296 501.107422 297.343146 501.107422 299 501.107422 300.656854 502.450568 302 504.107422 302z"/>
      <path fill="#4F89DC" fill-rule="nonzero" d="M301,302 L362,302 C363.656854,302 365,300.656854 365,299 C365,297.343146 363.656854,296 362,296 L301,296 C299.343146,296 298,297.343146 298,299 C298,300.656854 299.343146,302 301,302 Z"/>
      <path fill="#DFE4EE" fill-rule="nonzero" d="M68,302 L289,302 C290.656854,302 292,300.656854 292,299 C292,297.343146 290.656854,296 289,296 L68,296 C66.3431458,296 65,297.343146 65,299 C65,300.656854 66.3431458,302 68,302 Z"/>
      <path fill="#A2E0F5" fill-rule="nonzero" d="M44 321L55 321C56.6568542 321 58 319.656854 58 318 58 316.343146 56.6568542 315 55 315L44 315C42.3431458 315 41 316.343146 41 318 41 319.656854 42.3431458 321 44 321zM534 321L545 321C546.656854 321 548 319.656854 548 318 548 316.343146 546.656854 315 545 315L534 315C532.343146 315 531 316.343146 531 318 531 319.656854 532.343146 321 534 321z"/>
      <path fill="#4F89DC" fill-rule="nonzero" d="M301,321 L352,321 C353.656854,321 355,319.656854 355,318 C355,316.343146 353.656854,315 352,315 L301,315 C299.343146,315 298,316.343146 298,318 C298,319.656854 299.343146,321 301,321 Z"/>
      <path fill="#DFE4EE" fill-rule="nonzero" d="M68,321 L289,321 C290.656854,321 292,319.656854 292,318 C292,316.343146 290.656854,315 289,315 L68,315 C66.3431458,315 65,316.343146 65,318 C65,319.656854 66.3431458,321 68,321 Z"/>
      <path fill="#A2E0F5" fill-rule="nonzero" d="M44,321 L55,321 C56.6568542,321 58,319.656854 58,318 C58,316.343146 56.6568542,315 55,315 L44,315 C42.3431458,315 41,316.343146 41,318 C41,319.656854 42.3431458,321 44,321 Z"/>
      <path fill="#DFE4EE" fill-rule="nonzero" d="M68,321 L289,321 C290.656854,321 292,319.656854 292,318 C292,316.343146 290.656854,315 289,315 L68,315 C66.3431458,315 65,316.343146 65,318 C65,319.656854 66.3431458,321 68,321 Z"/>
      <polygon fill="#DFE4EE" fill-rule="nonzero" points="41.5 309 549.5 309 549.5 308 41.5 308"/>
      <polygon fill="#DFE4EE" fill-rule="nonzero" points="41.5 292 549.5 292 549.5 291 41.5 291"/>
      <polygon fill="#DFE4EE" fill-rule="nonzero" points="41.5 276 549.5 276 549.5 275 41.5 275"/>
      <polygon fill="#DFE4EE" fill-rule="nonzero" points="41.5 260 549.5 260 549.5 259 41.5 259"/>
      <polygon fill="#DFE4EE" fill-rule="nonzero" points="41.5 244 549.5 244 549.5 243 41.5 243"/>
      <polygon fill="#DFE4EE" fill-rule="nonzero" points="41.5 227 549.5 227 549.5 226 41.5 226"/>
      <polygon fill="#DFE4EE" fill-rule="nonzero" points="41.5 211 549.5 211 549.5 210 41.5 210"/>
      <polygon fill="#DFE4EE" fill-rule="nonzero" points="41.5 195 549.5 195 549.5 194 41.5 194"/>
      <polygon fill="#DFE4EE" fill-rule="nonzero" points="41.5 179 549.5 179 549.5 178 41.5 178"/>
      <polygon fill="#DFE4EE" fill-rule="nonzero" points="41.5 163 549.5 163 549.5 162 41.5 162"/>
      <polygon fill="#DFE4EE" fill-rule="nonzero" points="41.5 146 549.5 146 549.5 145 41.5 145"/>
      <polygon fill="#DFE4EE" fill-rule="nonzero" points="30.5 97 559.5 97 559.5 96 30.5 96"/>
      <path stroke="#DFE4EE" stroke-linecap="square" d="M31,80.5 L559,80.5" opacity=".33"/>
      <circle cx="36" cy="36" r="6" fill="#DFE4EE"/>
      <circle cx="57" cy="36" r="6" fill="#DFE4EE"/>
      <circle cx="78" cy="36" r="6" fill="#DFE4EE"/>
      <path stroke="#DFE4EE" stroke-linecap="square" d="M0.5,62.5 L591.74445,62.5" opacity=".5"/>
      <path fill="#FFF" fill-rule="nonzero" d="M52 85L122 85C123.656854 85 125 83.6568542 125 82 125 80.3431458 123.656854 79 122 79L52 79C50.3431458 79 49 80.3431458 49 82 49 83.6568542 50.3431458 85 52 85zM182 85L232 85C233.656854 85 235 83.6568542 235 82 235 80.3431458 233.656854 79 232 79L182 79C180.343146 79 179 80.3431458 179 82 179 83.6568542 180.343146 85 182 85zM517 85L537 85C538.656854 85 540 83.6568542 540 82 540 80.3431458 538.656854 79 537 79L517 79C515.343146 79 514 80.3431458 514 82 514 83.6568542 515.343146 85 517 85zM258 85L308 85C309.656854 85 311 83.6568542 311 82 311 80.3431458 309.656854 79 308 79L258 79C256.343146 79 255 80.3431458 255 82 255 83.6568542 256.343146 85 258 85zM334 85L384 85C385.656854 85 387 83.6568542 387 82 387 80.3431458 385.656854 79 384 79L334 79C332.343146 79 331 80.3431458 331 82 331 83.6568542 332.343146 85 334 85z"/>
    </g>
  </g>
</svg>
