<svg xmlns="http://www.w3.org/2000/svg" width="100%" viewBox="0 0 230 91">
  <g fill="none" fill-rule="evenodd">
    <g transform="translate(197.273 58.09)">
      <circle cx="16.364" cy="16.364" r="16.364" fill="#4F77FC"/>
      <circle cx="16.364" cy="16.364" r="10.303" fill="#002EFF"/>
      <g fill="#FFF" transform="translate(11.636 11.636)">
        <path d="M7.67884726,2.37017078 L5.58401441,0.275337928 C5.22342842,-0.0852480548 4.63962255,-0.0852480548 4.27903657,0.275337928 L2.20137448,2.37017078 C2.08117915,2.4903661 2.08117915,2.67924448 2.20137448,2.7994398 L2.83669264,3.43475796 L3.2487909,3.82968547 C3.36898623,3.94988079 3.5578646,3.94988079 3.69523069,3.82968547 L4.53659798,3.05700122 C4.75981788,2.85095209 5.12040386,2.85095209 5.36079451,3.05700122 L6.20216181,3.82968547 C6.32235713,3.94988079 6.5112355,3.94988079 6.64860159,3.82968547 L7.07787062,3.43475796 L7.71318878,2.7994398 C7.79904258,2.67924448 7.79904258,2.4903661 7.67884726,2.37017078 Z"/>
        <path d="M0.509437843,5.54503498 L4.25184661,9.28744374 C4.66331564,9.69891277 5.32950358,9.69891277 5.74097261,9.28744374 L9.48338138,5.54503498 C10.1299756,4.89844079 9.67931901,4.70250316 9.20906869,4.25184661 L8.6212558,3.70322124 C8.48409945,3.5660649 8.26856806,3.5660649 8.11181795,3.70322124 L7.15172356,4.58494058 C6.89700464,4.82006574 6.48553561,4.82006574 6.21122293,4.58494058 L5.25112853,3.70322124 C5.11397219,3.5660649 4.89844079,3.5660649 4.74169069,3.70322124 L3.78159629,4.58494058 C3.52687737,4.82006574 3.11540834,4.82006574 2.84109566,4.58494058 L1.88100126,3.70322124 C1.74384492,3.5660649 1.52831353,3.5660649 1.37156342,3.70322124 L0.842531816,4.19306532 C0.352687737,4.66331564 -0.156750105,4.87884703 0.509437843,5.54503498 Z"/>
      </g>
      <g stroke="#002EFF" stroke-linecap="square" stroke-width="2" transform="translate(1.818 1.818)">
        <path d="M26.969697 14.5454545L28.1818182 14.5454545M.303030303 14.5454545L1.51515152 14.5454545"/>
        <path d="M13.9393939,27.5757576 L15.1515152,27.5757576" transform="rotate(90 14.545 27.576)"/>
        <path d="M13.9393939,0.909090909 L15.1515152,0.909090909" transform="rotate(90 14.545 .91)"/>
        <path d="M23.1532096,23.7592702 L24.3653308,23.7592702" transform="rotate(45 23.76 23.76)"/>
        <path d="M4.29702874,4.90308935 L5.50914995,4.90308935" transform="rotate(45 4.903 4.903)"/>
        <path d="M4.72557831,23.7592702 L5.93769952,23.7592702" transform="rotate(135 5.332 23.76)"/>
        <path d="M23.5817591,4.90308935 L24.7938803,4.90308935" transform="rotate(135 24.188 4.903)"/>
        <path d="M25.9778242,19.5319356 L27.1899454,19.5319356" transform="rotate(22.5 26.584 19.532)"/>
        <path d="M1.34103668,9.3270441 L2.55315789,9.3270441" transform="rotate(22.5 1.947 9.327)"/>
        <path d="M8.95291285,26.5838848 L10.1650341,26.5838848" transform="rotate(112.5 9.559 26.584)"/>
        <path d="M19.1578044,1.94709728 L20.3699256,1.94709728" transform="rotate(112.5 19.764 1.947)"/>
        <path d="M18.925875,26.5838848 L20.1379962,26.5838848" transform="rotate(67.5 19.532 26.584)"/>
        <path d="M8.7209835,1.94709728 L9.93310471,1.94709728" transform="rotate(67.5 9.327 1.947)"/>
        <path d="M1.90096367,19.5319356 L3.11308488,19.5319356" transform="rotate(157.5 2.507 19.532)"/>
        <path d="M26.5377512,9.3270441 L27.7498724,9.3270441" transform="rotate(157.5 27.144 9.327)"/>
      </g>
    </g>
    <g transform="translate(162.09 .818)">
      <circle cx="16.364" cy="16.364" r="16.364" fill="#4F77FC"/>
      <circle cx="16.364" cy="16.364" r="10.303" fill="#002EFF"/>
      <g fill="#FFF" transform="translate(11.636 11.636)">
        <path d="M7.67884726,2.37017078 L5.58401441,0.275337928 C5.22342842,-0.0852480548 4.63962255,-0.0852480548 4.27903657,0.275337928 L2.20137448,2.37017078 C2.08117915,2.4903661 2.08117915,2.67924448 2.20137448,2.7994398 L2.83669264,3.43475796 L3.2487909,3.82968547 C3.36898623,3.94988079 3.5578646,3.94988079 3.69523069,3.82968547 L4.53659798,3.05700122 C4.75981788,2.85095209 5.12040386,2.85095209 5.36079451,3.05700122 L6.20216181,3.82968547 C6.32235713,3.94988079 6.5112355,3.94988079 6.64860159,3.82968547 L7.07787062,3.43475796 L7.71318878,2.7994398 C7.79904258,2.67924448 7.79904258,2.4903661 7.67884726,2.37017078 Z"/>
        <path d="M0.509437843,5.54503498 L4.25184661,9.28744374 C4.66331564,9.69891277 5.32950358,9.69891277 5.74097261,9.28744374 L9.48338138,5.54503498 C10.1299756,4.89844079 9.67931901,4.70250316 9.20906869,4.25184661 L8.6212558,3.70322124 C8.48409945,3.5660649 8.26856806,3.5660649 8.11181795,3.70322124 L7.15172356,4.58494058 C6.89700464,4.82006574 6.48553561,4.82006574 6.21122293,4.58494058 L5.25112853,3.70322124 C5.11397219,3.5660649 4.89844079,3.5660649 4.74169069,3.70322124 L3.78159629,4.58494058 C3.52687737,4.82006574 3.11540834,4.82006574 2.84109566,4.58494058 L1.88100126,3.70322124 C1.74384492,3.5660649 1.52831353,3.5660649 1.37156342,3.70322124 L0.842531816,4.19306532 C0.352687737,4.66331564 -0.156750105,4.87884703 0.509437843,5.54503498 Z"/>
      </g>
      <g stroke="#002EFF" stroke-linecap="square" stroke-width="2" transform="translate(1.818 1.818)">
        <path d="M26.969697 14.5454545L28.1818182 14.5454545M.303030303 14.5454545L1.51515152 14.5454545"/>
        <path d="M13.9393939,27.5757576 L15.1515152,27.5757576" transform="rotate(90 14.545 27.576)"/>
        <path d="M13.9393939,0.909090909 L15.1515152,0.909090909" transform="rotate(90 14.545 .91)"/>
        <path d="M23.1532096,23.7592702 L24.3653308,23.7592702" transform="rotate(45 23.76 23.76)"/>
        <path d="M4.29702874,4.90308935 L5.50914995,4.90308935" transform="rotate(45 4.903 4.903)"/>
        <path d="M4.72557831,23.7592702 L5.93769952,23.7592702" transform="rotate(135 5.332 23.76)"/>
        <path d="M23.5817591,4.90308935 L24.7938803,4.90308935" transform="rotate(135 24.188 4.903)"/>
        <path d="M25.9778242,19.5319356 L27.1899454,19.5319356" transform="rotate(22.5 26.584 19.532)"/>
        <path d="M1.34103668,9.3270441 L2.55315789,9.3270441" transform="rotate(22.5 1.947 9.327)"/>
        <path d="M8.95291285,26.5838848 L10.1650341,26.5838848" transform="rotate(112.5 9.559 26.584)"/>
        <path d="M19.1578044,1.94709728 L20.3699256,1.94709728" transform="rotate(112.5 19.764 1.947)"/>
        <path d="M18.925875,26.5838848 L20.1379962,26.5838848" transform="rotate(67.5 19.532 26.584)"/>
        <path d="M8.7209835,1.94709728 L9.93310471,1.94709728" transform="rotate(67.5 9.327 1.947)"/>
        <path d="M1.90096367,19.5319356 L3.11308488,19.5319356" transform="rotate(157.5 2.507 19.532)"/>
        <path d="M26.5377512,9.3270441 L27.7498724,9.3270441" transform="rotate(157.5 27.144 9.327)"/>
      </g>
    </g>
    <g transform="translate(162.91 58.09)">
      <circle cx="16.364" cy="16.364" r="16.364" fill="#4F77FC"/>
      <circle cx="16.364" cy="16.364" r="10.303" fill="#002EFF"/>
      <g fill="#FFF" transform="translate(11.636 11.636)">
        <path d="M7.67884726,2.37017078 L5.58401441,0.275337928 C5.22342842,-0.0852480548 4.63962255,-0.0852480548 4.27903657,0.275337928 L2.20137448,2.37017078 C2.08117915,2.4903661 2.08117915,2.67924448 2.20137448,2.7994398 L2.83669264,3.43475796 L3.2487909,3.82968547 C3.36898623,3.94988079 3.5578646,3.94988079 3.69523069,3.82968547 L4.53659798,3.05700122 C4.75981788,2.85095209 5.12040386,2.85095209 5.36079451,3.05700122 L6.20216181,3.82968547 C6.32235713,3.94988079 6.5112355,3.94988079 6.64860159,3.82968547 L7.07787062,3.43475796 L7.71318878,2.7994398 C7.79904258,2.67924448 7.79904258,2.4903661 7.67884726,2.37017078 Z"/>
        <path d="M0.509437843,5.54503498 L4.25184661,9.28744374 C4.66331564,9.69891277 5.32950358,9.69891277 5.74097261,9.28744374 L9.48338138,5.54503498 C10.1299756,4.89844079 9.67931901,4.70250316 9.20906869,4.25184661 L8.6212558,3.70322124 C8.48409945,3.5660649 8.26856806,3.5660649 8.11181795,3.70322124 L7.15172356,4.58494058 C6.89700464,4.82006574 6.48553561,4.82006574 6.21122293,4.58494058 L5.25112853,3.70322124 C5.11397219,3.5660649 4.89844079,3.5660649 4.74169069,3.70322124 L3.78159629,4.58494058 C3.52687737,4.82006574 3.11540834,4.82006574 2.84109566,4.58494058 L1.88100126,3.70322124 C1.74384492,3.5660649 1.52831353,3.5660649 1.37156342,3.70322124 L0.842531816,4.19306532 C0.352687737,4.66331564 -0.156750105,4.87884703 0.509437843,5.54503498 Z"/>
      </g>
      <g stroke="#002EFF" stroke-linecap="square" stroke-width="2" transform="translate(1.818 1.818)">
        <path d="M26.969697 14.5454545L28.1818182 14.5454545M.303030303 14.5454545L1.51515152 14.5454545"/>
        <path d="M13.9393939,27.5757576 L15.1515152,27.5757576" transform="rotate(90 14.545 27.576)"/>
        <path d="M13.9393939,0.909090909 L15.1515152,0.909090909" transform="rotate(90 14.545 .91)"/>
        <path d="M23.1532096,23.7592702 L24.3653308,23.7592702" transform="rotate(45 23.76 23.76)"/>
        <path d="M4.29702874,4.90308935 L5.50914995,4.90308935" transform="rotate(45 4.903 4.903)"/>
        <path d="M4.72557831,23.7592702 L5.93769952,23.7592702" transform="rotate(135 5.332 23.76)"/>
        <path d="M23.5817591,4.90308935 L24.7938803,4.90308935" transform="rotate(135 24.188 4.903)"/>
        <path d="M25.9778242,19.5319356 L27.1899454,19.5319356" transform="rotate(22.5 26.584 19.532)"/>
        <path d="M1.34103668,9.3270441 L2.55315789,9.3270441" transform="rotate(22.5 1.947 9.327)"/>
        <path d="M8.95291285,26.5838848 L10.1650341,26.5838848" transform="rotate(112.5 9.559 26.584)"/>
        <path d="M19.1578044,1.94709728 L20.3699256,1.94709728" transform="rotate(112.5 19.764 1.947)"/>
        <path d="M18.925875,26.5838848 L20.1379962,26.5838848" transform="rotate(67.5 19.532 26.584)"/>
        <path d="M8.7209835,1.94709728 L9.93310471,1.94709728" transform="rotate(67.5 9.327 1.947)"/>
        <path d="M1.90096367,19.5319356 L3.11308488,19.5319356" transform="rotate(157.5 2.507 19.532)"/>
        <path d="M26.5377512,9.3270441 L27.7498724,9.3270441" transform="rotate(157.5 27.144 9.327)"/>
      </g>
    </g>
    <g transform="translate(67.182 58.09)">
      <circle cx="16.364" cy="16.364" r="16.364" fill="#4F77FC"/>
      <circle cx="16.364" cy="16.364" r="10.303" fill="#002EFF"/>
      <g fill="#FFF" transform="translate(11.636 11.636)">
        <path d="M7.67884726,2.37017078 L5.58401441,0.275337928 C5.22342842,-0.0852480548 4.63962255,-0.0852480548 4.27903657,0.275337928 L2.20137448,2.37017078 C2.08117915,2.4903661 2.08117915,2.67924448 2.20137448,2.7994398 L2.83669264,3.43475796 L3.2487909,3.82968547 C3.36898623,3.94988079 3.5578646,3.94988079 3.69523069,3.82968547 L4.53659798,3.05700122 C4.75981788,2.85095209 5.12040386,2.85095209 5.36079451,3.05700122 L6.20216181,3.82968547 C6.32235713,3.94988079 6.5112355,3.94988079 6.64860159,3.82968547 L7.07787062,3.43475796 L7.71318878,2.7994398 C7.79904258,2.67924448 7.79904258,2.4903661 7.67884726,2.37017078 Z"/>
        <path d="M0.509437843,5.54503498 L4.25184661,9.28744374 C4.66331564,9.69891277 5.32950358,9.69891277 5.74097261,9.28744374 L9.48338138,5.54503498 C10.1299756,4.89844079 9.67931901,4.70250316 9.20906869,4.25184661 L8.6212558,3.70322124 C8.48409945,3.5660649 8.26856806,3.5660649 8.11181795,3.70322124 L7.15172356,4.58494058 C6.89700464,4.82006574 6.48553561,4.82006574 6.21122293,4.58494058 L5.25112853,3.70322124 C5.11397219,3.5660649 4.89844079,3.5660649 4.74169069,3.70322124 L3.78159629,4.58494058 C3.52687737,4.82006574 3.11540834,4.82006574 2.84109566,4.58494058 L1.88100126,3.70322124 C1.74384492,3.5660649 1.52831353,3.5660649 1.37156342,3.70322124 L0.842531816,4.19306532 C0.352687737,4.66331564 -0.156750105,4.87884703 0.509437843,5.54503498 Z"/>
      </g>
      <g stroke="#002EFF" stroke-linecap="square" stroke-width="2" transform="translate(1.818 1.818)">
        <path d="M26.969697 14.5454545L28.1818182 14.5454545M.303030303 14.5454545L1.51515152 14.5454545"/>
        <path d="M13.9393939,27.5757576 L15.1515152,27.5757576" transform="rotate(90 14.545 27.576)"/>
        <path d="M13.9393939,0.909090909 L15.1515152,0.909090909" transform="rotate(90 14.545 .91)"/>
        <path d="M23.1532096,23.7592702 L24.3653308,23.7592702" transform="rotate(45 23.76 23.76)"/>
        <path d="M4.29702874,4.90308935 L5.50914995,4.90308935" transform="rotate(45 4.903 4.903)"/>
        <path d="M4.72557831,23.7592702 L5.93769952,23.7592702" transform="rotate(135 5.332 23.76)"/>
        <path d="M23.5817591,4.90308935 L24.7938803,4.90308935" transform="rotate(135 24.188 4.903)"/>
        <path d="M25.9778242,19.5319356 L27.1899454,19.5319356" transform="rotate(22.5 26.584 19.532)"/>
        <path d="M1.34103668,9.3270441 L2.55315789,9.3270441" transform="rotate(22.5 1.947 9.327)"/>
        <path d="M8.95291285,26.5838848 L10.1650341,26.5838848" transform="rotate(112.5 9.559 26.584)"/>
        <path d="M19.1578044,1.94709728 L20.3699256,1.94709728" transform="rotate(112.5 19.764 1.947)"/>
        <path d="M18.925875,26.5838848 L20.1379962,26.5838848" transform="rotate(67.5 19.532 26.584)"/>
        <path d="M8.7209835,1.94709728 L9.93310471,1.94709728" transform="rotate(67.5 9.327 1.947)"/>
        <path d="M1.90096367,19.5319356 L3.11308488,19.5319356" transform="rotate(157.5 2.507 19.532)"/>
        <path d="M26.5377512,9.3270441 L27.7498724,9.3270441" transform="rotate(157.5 27.144 9.327)"/>
      </g>
    </g>
    <g transform="translate(32.818 58.09)">
      <circle cx="16.364" cy="16.364" r="16.364" fill="#4F77FC"/>
      <circle cx="16.364" cy="16.364" r="10.303" fill="#002EFF"/>
      <g fill="#FFF" transform="translate(11.636 11.636)">
        <path d="M7.67884726,2.37017078 L5.58401441,0.275337928 C5.22342842,-0.0852480548 4.63962255,-0.0852480548 4.27903657,0.275337928 L2.20137448,2.37017078 C2.08117915,2.4903661 2.08117915,2.67924448 2.20137448,2.7994398 L2.83669264,3.43475796 L3.2487909,3.82968547 C3.36898623,3.94988079 3.5578646,3.94988079 3.69523069,3.82968547 L4.53659798,3.05700122 C4.75981788,2.85095209 5.12040386,2.85095209 5.36079451,3.05700122 L6.20216181,3.82968547 C6.32235713,3.94988079 6.5112355,3.94988079 6.64860159,3.82968547 L7.07787062,3.43475796 L7.71318878,2.7994398 C7.79904258,2.67924448 7.79904258,2.4903661 7.67884726,2.37017078 Z"/>
        <path d="M0.509437843,5.54503498 L4.25184661,9.28744374 C4.66331564,9.69891277 5.32950358,9.69891277 5.74097261,9.28744374 L9.48338138,5.54503498 C10.1299756,4.89844079 9.67931901,4.70250316 9.20906869,4.25184661 L8.6212558,3.70322124 C8.48409945,3.5660649 8.26856806,3.5660649 8.11181795,3.70322124 L7.15172356,4.58494058 C6.89700464,4.82006574 6.48553561,4.82006574 6.21122293,4.58494058 L5.25112853,3.70322124 C5.11397219,3.5660649 4.89844079,3.5660649 4.74169069,3.70322124 L3.78159629,4.58494058 C3.52687737,4.82006574 3.11540834,4.82006574 2.84109566,4.58494058 L1.88100126,3.70322124 C1.74384492,3.5660649 1.52831353,3.5660649 1.37156342,3.70322124 L0.842531816,4.19306532 C0.352687737,4.66331564 -0.156750105,4.87884703 0.509437843,5.54503498 Z"/>
      </g>
      <g stroke="#002EFF" stroke-linecap="square" stroke-width="2" transform="translate(1.818 1.818)">
        <path d="M26.969697 14.5454545L28.1818182 14.5454545M.303030303 14.5454545L1.51515152 14.5454545"/>
        <path d="M13.9393939,27.5757576 L15.1515152,27.5757576" transform="rotate(90 14.545 27.576)"/>
        <path d="M13.9393939,0.909090909 L15.1515152,0.909090909" transform="rotate(90 14.545 .91)"/>
        <path d="M23.1532096,23.7592702 L24.3653308,23.7592702" transform="rotate(45 23.76 23.76)"/>
        <path d="M4.29702874,4.90308935 L5.50914995,4.90308935" transform="rotate(45 4.903 4.903)"/>
        <path d="M4.72557831,23.7592702 L5.93769952,23.7592702" transform="rotate(135 5.332 23.76)"/>
        <path d="M23.5817591,4.90308935 L24.7938803,4.90308935" transform="rotate(135 24.188 4.903)"/>
        <path d="M25.9778242,19.5319356 L27.1899454,19.5319356" transform="rotate(22.5 26.584 19.532)"/>
        <path d="M1.34103668,9.3270441 L2.55315789,9.3270441" transform="rotate(22.5 1.947 9.327)"/>
        <path d="M8.95291285,26.5838848 L10.1650341,26.5838848" transform="rotate(112.5 9.559 26.584)"/>
        <path d="M19.1578044,1.94709728 L20.3699256,1.94709728" transform="rotate(112.5 19.764 1.947)"/>
        <path d="M18.925875,26.5838848 L20.1379962,26.5838848" transform="rotate(67.5 19.532 26.584)"/>
        <path d="M8.7209835,1.94709728 L9.93310471,1.94709728" transform="rotate(67.5 9.327 1.947)"/>
        <path d="M1.90096367,19.5319356 L3.11308488,19.5319356" transform="rotate(157.5 2.507 19.532)"/>
        <path d="M26.5377512,9.3270441 L27.7498724,9.3270441" transform="rotate(157.5 27.144 9.327)"/>
      </g>
    </g>
    <g transform="translate(32.818 .818)">
      <circle cx="16.364" cy="16.364" r="16.364" fill="#4F77FC"/>
      <circle cx="16.364" cy="16.364" r="10.303" fill="#002EFF"/>
      <g fill="#FFF" transform="translate(11.636 11.636)">
        <path d="M7.67884726,2.37017078 L5.58401441,0.275337928 C5.22342842,-0.0852480548 4.63962255,-0.0852480548 4.27903657,0.275337928 L2.20137448,2.37017078 C2.08117915,2.4903661 2.08117915,2.67924448 2.20137448,2.7994398 L2.83669264,3.43475796 L3.2487909,3.82968547 C3.36898623,3.94988079 3.5578646,3.94988079 3.69523069,3.82968547 L4.53659798,3.05700122 C4.75981788,2.85095209 5.12040386,2.85095209 5.36079451,3.05700122 L6.20216181,3.82968547 C6.32235713,3.94988079 6.5112355,3.94988079 6.64860159,3.82968547 L7.07787062,3.43475796 L7.71318878,2.7994398 C7.79904258,2.67924448 7.79904258,2.4903661 7.67884726,2.37017078 Z"/>
        <path d="M0.509437843,5.54503498 L4.25184661,9.28744374 C4.66331564,9.69891277 5.32950358,9.69891277 5.74097261,9.28744374 L9.48338138,5.54503498 C10.1299756,4.89844079 9.67931901,4.70250316 9.20906869,4.25184661 L8.6212558,3.70322124 C8.48409945,3.5660649 8.26856806,3.5660649 8.11181795,3.70322124 L7.15172356,4.58494058 C6.89700464,4.82006574 6.48553561,4.82006574 6.21122293,4.58494058 L5.25112853,3.70322124 C5.11397219,3.5660649 4.89844079,3.5660649 4.74169069,3.70322124 L3.78159629,4.58494058 C3.52687737,4.82006574 3.11540834,4.82006574 2.84109566,4.58494058 L1.88100126,3.70322124 C1.74384492,3.5660649 1.52831353,3.5660649 1.37156342,3.70322124 L0.842531816,4.19306532 C0.352687737,4.66331564 -0.156750105,4.87884703 0.509437843,5.54503498 Z"/>
      </g>
      <g stroke="#002EFF" stroke-linecap="square" stroke-width="2" transform="translate(1.818 1.818)">
        <path d="M26.969697 14.5454545L28.1818182 14.5454545M.303030303 14.5454545L1.51515152 14.5454545"/>
        <path d="M13.9393939,27.5757576 L15.1515152,27.5757576" transform="rotate(90 14.545 27.576)"/>
        <path d="M13.9393939,0.909090909 L15.1515152,0.909090909" transform="rotate(90 14.545 .91)"/>
        <path d="M23.1532096,23.7592702 L24.3653308,23.7592702" transform="rotate(45 23.76 23.76)"/>
        <path d="M4.29702874,4.90308935 L5.50914995,4.90308935" transform="rotate(45 4.903 4.903)"/>
        <path d="M4.72557831,23.7592702 L5.93769952,23.7592702" transform="rotate(135 5.332 23.76)"/>
        <path d="M23.5817591,4.90308935 L24.7938803,4.90308935" transform="rotate(135 24.188 4.903)"/>
        <path d="M25.9778242,19.5319356 L27.1899454,19.5319356" transform="rotate(22.5 26.584 19.532)"/>
        <path d="M1.34103668,9.3270441 L2.55315789,9.3270441" transform="rotate(22.5 1.947 9.327)"/>
        <path d="M8.95291285,26.5838848 L10.1650341,26.5838848" transform="rotate(112.5 9.559 26.584)"/>
        <path d="M19.1578044,1.94709728 L20.3699256,1.94709728" transform="rotate(112.5 19.764 1.947)"/>
        <path d="M18.925875,26.5838848 L20.1379962,26.5838848" transform="rotate(67.5 19.532 26.584)"/>
        <path d="M8.7209835,1.94709728 L9.93310471,1.94709728" transform="rotate(67.5 9.327 1.947)"/>
        <path d="M1.90096367,19.5319356 L3.11308488,19.5319356" transform="rotate(157.5 2.507 19.532)"/>
        <path d="M26.5377512,9.3270441 L27.7498724,9.3270441" transform="rotate(157.5 27.144 9.327)"/>
      </g>
    </g>
    <rect width="1.636" height="1.636" x="124.091" y="16.364" fill="#E0E1E6"/>
    <rect width="1.636" height="1.636" x="93.364" y="16.364" fill="#E0E1E6"/>
    <rect width="1.636" height="1.636" x="96.636" y="16.364" fill="#E0E1E6"/>
    <rect width="1.636" height="1.636" x="99.909" y="16.364" fill="#E0E1E6"/>
    <rect width="1.636" height="1.636" x="83.364" y="16.364" fill="#E0E1E6"/>
    <rect width="1.636" height="1.636" x="86.636" y="16.364" fill="#E0E1E6"/>
    <rect width="1.636" height="1.636" x="89.909" y="16.364" fill="#E0E1E6"/>
    <rect width="1.636" height="1.636" x="73.364" y="16.364" fill="#E0E1E6"/>
    <rect width="1.636" height="1.636" x="76.636" y="16.364" fill="#E0E1E6"/>
    <rect width="1.636" height="1.636" x="67.364" y="16.364" fill="#E0E1E6"/>
    <rect width="1.636" height="1.636" x="70.636" y="16.364" fill="#E0E1E6"/>
    <rect width="1.636" height="1.636" x="79.909" y="16.364" fill="#E0E1E6"/>
    <g fill="#E0E1E6" fill-rule="nonzero">
      <path d="M8.94545455,18.1704545 C8.59602273,18.5897727 8.17670455,18.8693182 7.61761364,19.0789773 C8.59602273,23.4818182 10.6926136,26.4170455 13.9772727,27.8147727 C17.1920455,26.4170455 19.3585227,23.4818182 20.2670455,19.0789773 C19.7778409,18.9392045 19.3585227,18.6596591 19.0789773,18.3102273 C16.5630682,20.2670455 12.5795455,21.3852273 8.94545455,18.1704545 Z"/>
      <path d="M21.6647727 19.2886364L21.5948864 19.2886364C20.2670455 25.5085227 16.8426136 28.0943182 14.1869318 29.2125L13.9772727 29.2823864 13.6977273 29.2125C11.0420455 28.1642045 7.61761364 25.5784091 6.28977273 19.2886364L6.28977273 19.2886364C2.93522727 19.2886364.279545455 21.6647727.279545455 24.6698864L.279545455 29.6318182C4.12329545 32.0778409 8.87556818 33.5454545 13.9772727 33.5454545 19.0789773 33.5454545 23.83125 32.0778409 27.7448864 29.5619318L27.7448864 24.6698864C27.675 21.6647727 25.0193182 19.2886364 21.6647727 19.2886364zM23.0625 7.47784091L22.1539773 7.47784091C21.8744318 4.33295455 19.9176136 1.74715909 17.1221591.628977273L15.8642045 7.47784091 15.7244318 8.10681818 12.2301136 8.10681818 12.0903409 7.47784091 10.8323864.628977273C8.03693182 1.74715909 6.01022727 4.40284091 5.80056818 7.47784091L4.89204545 7.47784091 4.89204545 9.29488636 7.05852273 9.29488636C7.05852273 9.36477273 7.12840909 10.2732955 7.12840909 10.6227273 7.12840909 15.1653409 10.2732955 18.9392045 14.1170455 18.9392045 17.9607955 18.9392045 21.1056818 15.2352273 21.1056818 10.6227273 21.1056818 10.2034091 21.0357955 9.71420455 21.0357955 9.29488636L23.1323864 9.29488636 23.1323864 7.47784091 23.0625 7.47784091zM19.7079545 10.6227273C19.7079545 14.4664773 17.1920455 17.6113636 14.0471591 17.6113636 10.9022727 17.6113636 8.38636364 14.4664773 8.38636364 10.6227273 8.38636364 10.3431818 8.94545455 9.50454545 9.15511364 9.29488636L19.2886364 9.29488636C19.4284091 9.36477273 19.7079545 10.3431818 19.7079545 10.6227273z"/>
      <path d="M14.9556818,7.26818182 L16.2136364,0.349431818 C15.5147727,0.139772727 14.7460227,0 13.9772727,0 C13.2085227,0 12.4397727,0.139772727 11.7409091,0.349431818 L12.9988636,7.26818182 L14.9556818,7.26818182 Z"/>
    </g>
    <g fill="#E0E1E6" fill-rule="nonzero" transform="translate(0 57.273)">
      <path d="M8.94545455,18.1704545 C8.59602273,18.5897727 8.17670455,18.8693182 7.61761364,19.0789773 C8.59602273,23.4818182 10.6926136,26.4170455 13.9772727,27.8147727 C17.1920455,26.4170455 19.3585227,23.4818182 20.2670455,19.0789773 C19.7778409,18.9392045 19.3585227,18.6596591 19.0789773,18.3102273 C16.5630682,20.2670455 12.5795455,21.3852273 8.94545455,18.1704545 Z"/>
      <path d="M21.6647727 19.2886364L21.5948864 19.2886364C20.2670455 25.5085227 16.8426136 28.0943182 14.1869318 29.2125L13.9772727 29.2823864 13.6977273 29.2125C11.0420455 28.1642045 7.61761364 25.5784091 6.28977273 19.2886364L6.28977273 19.2886364C2.93522727 19.2886364.279545455 21.6647727.279545455 24.6698864L.279545455 29.6318182C4.12329545 32.0778409 8.87556818 33.5454545 13.9772727 33.5454545 19.0789773 33.5454545 23.83125 32.0778409 27.7448864 29.5619318L27.7448864 24.6698864C27.675 21.6647727 25.0193182 19.2886364 21.6647727 19.2886364zM23.0625 7.47784091L22.1539773 7.47784091C21.8744318 4.33295455 19.9176136 1.74715909 17.1221591.628977273L15.8642045 7.47784091 15.7244318 8.10681818 12.2301136 8.10681818 12.0903409 7.47784091 10.8323864.628977273C8.03693182 1.74715909 6.01022727 4.40284091 5.80056818 7.47784091L4.89204545 7.47784091 4.89204545 9.29488636 7.05852273 9.29488636C7.05852273 9.36477273 7.12840909 10.2732955 7.12840909 10.6227273 7.12840909 15.1653409 10.2732955 18.9392045 14.1170455 18.9392045 17.9607955 18.9392045 21.1056818 15.2352273 21.1056818 10.6227273 21.1056818 10.2034091 21.0357955 9.71420455 21.0357955 9.29488636L23.1323864 9.29488636 23.1323864 7.47784091 23.0625 7.47784091zM19.7079545 10.6227273C19.7079545 14.4664773 17.1920455 17.6113636 14.0471591 17.6113636 10.9022727 17.6113636 8.38636364 14.4664773 8.38636364 10.6227273 8.38636364 10.3431818 8.94545455 9.50454545 9.15511364 9.29488636L19.2886364 9.29488636C19.4284091 9.36477273 19.7079545 10.3431818 19.7079545 10.6227273z"/>
      <path d="M14.9556818,7.26818182 L16.2136364,0.349431818 C15.5147727,0.139772727 14.7460227,0 13.9772727,0 C13.2085227,0 12.4397727,0.139772727 11.7409091,0.349431818 L12.9988636,7.26818182 L14.9556818,7.26818182 Z"/>
    </g>
    <g fill="#E0E1E6" fill-rule="nonzero" transform="matrix(-1 0 0 1 139.455 2.455)">
      <path d="M18.7611314.341762459C18.6759692.13493534 18.4735706 0 18.250158 0 14.056194 0 10.5579061 3.04931748 9.39660277 4.1896317L8.68654875 3.48066815C8.47087813 3.26499282 8.12027513 3.26499282 7.90460452 3.48066815L3.48059192 7.90477766C3.2649213 8.120453 3.2649213 8.47106368 3.48059192 8.68673902L4.18953993 9.39680859C3.04925069 10.5581373 0 14.0553959 0 18.2505577 0 18.4739753.134932384 18.6763783.341754974 18.7615424.410327169 18.7902991.482217374 18.8035714.553001575 18.8035714.696781985 18.8035714.838350388 18.747164.944526691 18.6420914L7.18902048 12.3974609 7.90349852 13.1119545C8.11916913 13.3276299 8.46977213 13.3276299 8.68544274 13.1119545L13.1094553 8.68784504C13.325126 8.4721697 13.325126 8.12155903 13.1094553 7.90588369L12.3949773 7.19139 18.6394711.946759434C18.7998416.786385465 18.8473997.548589579 18.7611314.341762459zM26.837102 23.3560926L13.6069038 10.125 10.6071429 13.1249638 23.837341 26.3560564C23.9415071 26.4602295 24.0822421 26.5178571 24.229626 26.5178571 25.7566561 26.5178571 27 25.2744292 27 23.7472958 26.9988919 23.599902 26.9401599 23.4591575 26.837102 23.3560926zM3.65903324 6.75L6.75 3.64570813 6.48509262 3.37965873C5.83880995 2.73058995 4.70952804 2.73058995 4.06324537 3.37965873L3.39412586 4.05166281C3.07098452 4.3761972 2.89285714 4.80852747 2.89285714 5.26838009 2.89285714 5.72823271 3.07098452 6.15941621 3.39412586 6.48509737L3.65903324 6.75z"/>
    </g>
    <path fill="#E0E1E6" fill-rule="nonzero" d="M104.320166,21.922529 L104.320166,21.922529 L104.320166,21.922529 C104.717072,22.195471 105.25429,22.1349516 105.580523,21.7805458 L109.727273,17.2756874 L105.630479,12.6003234 L105.630479,12.6003234 C105.312871,12.2378608 104.776595,12.1651623 104.373951,12.4299862 L104.373951,12.4299862 L104.373951,12.4299862 C104.040786,12.6491128 103.948339,13.0968334 104.167466,13.4299983 C104.187531,13.4605064 104.209882,13.4894483 104.234326,13.516575 L107.60285,17.2548014 L104.206029,20.8375696 L104.206029,20.8375696 C103.933365,21.1251603 103.945465,21.579337 104.233055,21.8520016 C104.260209,21.877746 104.289335,21.9013271 104.320166,21.922529 Z"/>
    <rect width="1.636" height="1.636" x="141.636" y="16.364" fill="#E0E1E6"/>
    <rect width="1.636" height="1.636" x="144.909" y="16.364" fill="#E0E1E6"/>
    <rect width="1.636" height="1.636" x="148.182" y="16.364" fill="#E0E1E6"/>
    <path fill="#E0E1E6" fill-rule="nonzero" d="M152.592893,21.922529 L152.592893,21.922529 L152.592893,21.922529 C152.989799,22.195471 153.527017,22.1349516 153.85325,21.7805458 L158,17.2756874 L153.903207,12.6003234 L153.903207,12.6003234 C153.585598,12.2378608 153.049322,12.1651623 152.646678,12.4299862 L152.646678,12.4299862 L152.646678,12.4299862 C152.313513,12.6491128 152.221067,13.0968334 152.440193,13.4299983 C152.460259,13.4605064 152.48261,13.4894483 152.507054,13.516575 L155.875577,17.2548014 L152.478756,20.8375696 L152.478756,20.8375696 C152.206092,21.1251603 152.218192,21.579337 152.505783,21.8520016 C152.532936,21.877746 152.562062,21.9013271 152.592893,21.922529 Z"/>
    <rect width="1.636" height="1.636" x="141.636" y="73.636" fill="#E0E1E6"/>
    <rect width="1.636" height="1.636" x="144.909" y="73.636" fill="#E0E1E6"/>
    <rect width="1.636" height="1.636" x="148.182" y="73.636" fill="#E0E1E6"/>
    <path fill="#E0E1E6" fill-rule="nonzero" d="M152.592893,79.1952563 L152.592893,79.1952563 L152.592893,79.1952563 C152.989799,79.4681982 153.527017,79.4076789 153.85325,79.053273 L158,74.5484147 L153.903207,69.8730507 L153.903207,69.8730507 C153.585598,69.510588 153.049322,69.4378895 152.646678,69.7027135 L152.646678,69.7027135 L152.646678,69.7027135 C152.313513,69.92184 152.221067,70.3695607 152.440193,70.7027256 C152.460259,70.7332336 152.48261,70.7621756 152.507054,70.7893023 L155.875577,74.5275287 L152.478756,78.1102968 L152.478756,78.1102968 C152.206092,78.3978876 152.218192,78.8520643 152.505783,79.1247289 C152.532936,79.1504733 152.562062,79.1740543 152.592893,79.1952563 Z"/>
    <rect width="1.636" height="1.636" x=".818" fill="#E0E1E6" transform="translate(99.09 73.636)"/>
    <g fill="#E0E1E6" fill-rule="nonzero" transform="matrix(-1 0 0 1 139.455 59.727)">
      <path d="M18.7611314.341762459C18.6759692.13493534 18.4735706 0 18.250158 0 14.056194 0 10.5579061 3.04931748 9.39660277 4.1896317L8.68654875 3.48066815C8.47087813 3.26499282 8.12027513 3.26499282 7.90460452 3.48066815L3.48059192 7.90477766C3.2649213 8.120453 3.2649213 8.47106368 3.48059192 8.68673902L4.18953993 9.39680859C3.04925069 10.5581373 0 14.0553959 0 18.2505577 0 18.4739753.134932384 18.6763783.341754974 18.7615424.410327169 18.7902991.482217374 18.8035714.553001575 18.8035714.696781985 18.8035714.838350388 18.747164.944526691 18.6420914L7.18902048 12.3974609 7.90349852 13.1119545C8.11916913 13.3276299 8.46977213 13.3276299 8.68544274 13.1119545L13.1094553 8.68784504C13.325126 8.4721697 13.325126 8.12155903 13.1094553 7.90588369L12.3949773 7.19139 18.6394711.946759434C18.7998416.786385465 18.8473997.548589579 18.7611314.341762459zM26.837102 23.3560926L13.6069038 10.125 10.6071429 13.1249638 23.837341 26.3560564C23.9415071 26.4602295 24.0822421 26.5178571 24.229626 26.5178571 25.7566561 26.5178571 27 25.2744292 27 23.7472958 26.9988919 23.599902 26.9401599 23.4591575 26.837102 23.3560926zM3.65903324 6.75L6.75 3.64570813 6.48509262 3.37965873C5.83880995 2.73058995 4.70952804 2.73058995 4.06324537 3.37965873L3.39412586 4.05166281C3.07098452 4.3761972 2.89285714 4.80852747 2.89285714 5.26838009 2.89285714 5.72823271 3.07098452 6.15941621 3.39412586 6.48509737L3.65903324 6.75z"/>
    </g>
    <path fill="#E0E1E6" fill-rule="nonzero" d="M104.320166,79.1952563 L104.320166,79.1952563 L104.320166,79.1952563 C104.717072,79.4681982 105.25429,79.4076789 105.580523,79.053273 L109.727273,74.5484147 L105.630479,69.8730507 L105.630479,69.8730507 C105.312871,69.510588 104.776595,69.4378895 104.373951,69.7027135 L104.373951,69.7027135 L104.373951,69.7027135 C104.040786,69.92184 103.948339,70.3695607 104.167466,70.7027256 C104.187531,70.7332336 104.209882,70.7621756 104.234326,70.7893023 L107.60285,74.5275287 L104.206029,78.1102968 L104.206029,78.1102968 C103.933365,78.3978876 103.945465,78.8520643 104.233055,79.1247289 C104.260209,79.1504733 104.289335,79.1740543 104.320166,79.1952563 Z"/>
  </g>
</svg>
