<svg xmlns="http://www.w3.org/2000/svg" width="100%" viewBox="0 0 440 111">
  <g fill="none" fill-rule="evenodd">
    <g transform="translate(400 71)">
      <circle cx="20" cy="20" r="20" fill="#4F77FC"/>
      <circle cx="20" cy="20" r="12.593" fill="#002EFF"/>
      <g fill="#FFF" transform="translate(14.222 14.222)">
        <path d="M9.38525776,2.89687539 L6.8249065,0.336524134 C6.3841903,-0.104192067 5.67064978,-0.104192067 5.22993358,0.336524134 L2.69056881,2.89687539 C2.54366341,3.04378079 2.54366341,3.27463214 2.69056881,3.42153754 L3.46706878,4.19803751 L3.97074444,4.68072668 C4.11764984,4.82763208 4.34850118,4.82763208 4.51639307,4.68072668 L5.54473087,3.73633482 C5.81755518,3.484497 6.25827138,3.484497 6.55208218,3.73633482 L7.58041998,4.68072668 C7.72732538,4.82763208 7.95817673,4.82763208 8.12606861,4.68072668 L8.65073076,4.19803751 L9.42723073,3.42153754 C9.53216316,3.27463214 9.53216316,3.04378079 9.38525776,2.89687539 Z"/>
        <path d="M0.622646252,6.77726497 L5.19670141,11.3513201 C5.699608,11.8542267 6.51383771,11.8542267 7.0167443,11.3513201 L11.5907995,6.77726497 C12.3810812,5.98698319 11.8302788,5.74750386 11.2555284,5.19670141 L10.5370904,4.52615929 C10.3694549,4.35852376 10.1060276,4.35852376 9.91444417,4.52615929 L8.74099546,5.60381627 C8.42967233,5.89119146 7.92676575,5.89119146 7.59149469,5.60381627 L6.41804598,4.52615929 C6.25041045,4.35852376 5.98698319,4.35852376 5.79539973,4.52615929 L4.62195102,5.60381627 C4.3106279,5.89119146 3.80772131,5.89119146 3.47245025,5.60381627 L2.29900155,4.52615929 C2.13136602,4.35852376 1.86793876,4.35852376 1.67635529,4.52615929 L1.02976111,5.12485761 C0.43106279,5.699608 -0.191583462,5.96303526 0.622646252,6.77726497 Z"/>
      </g>
      <g stroke="#002EFF" stroke-linecap="square" stroke-width="2" transform="translate(2.222 2.222)">
        <path d="M32.962963 17.7777778L34.4444444 17.7777778M.37037037 17.7777778L1.85185185 17.7777778"/>
        <path d="M17.037037,33.7037037 L18.5185185,33.7037037" transform="rotate(90 17.778 33.704)"/>
        <path d="M17.037037,1.11111111 L18.5185185,1.11111111" transform="rotate(90 17.778 1.111)"/>
        <path d="M28.2983673,29.039108 L29.7798487,29.039108" transform="rotate(45 29.04 29.04)"/>
        <path d="M5.25192402,5.99266476 L6.7334055,5.99266476" transform="rotate(45 5.993 5.993)"/>
        <path d="M5.77570682,29.039108 L7.2571883,29.039108" transform="rotate(135 6.516 29.04)"/>
        <path d="M28.8221501,5.99266476 L30.3036315,5.99266476" transform="rotate(135 29.563 5.993)"/>
        <path d="M31.750674,23.8723658 L33.2321555,23.8723658" transform="rotate(22.5 32.491 23.872)"/>
        <path d="M1.63904483,11.3997206 L3.12052631,11.3997206" transform="rotate(22.5 2.38 11.4)"/>
        <path d="M10.942449,32.4914148 L12.4239305,32.4914148" transform="rotate(112.5 11.683 32.491)"/>
        <path d="M23.4150942,2.37978557 L24.8965757,2.37978557" transform="rotate(112.5 24.156 2.38)"/>
        <path d="M23.131625,32.4914148 L24.6131065,32.4914148" transform="rotate(67.5 23.872 32.491)"/>
        <path d="M10.6589798,2.37978557 L12.1404613,2.37978557" transform="rotate(67.5 11.4 2.38)"/>
        <path d="M2.32340003,23.8723658 L3.80488151,23.8723658" transform="rotate(157.5 3.064 23.872)"/>
        <path d="M32.4350292,11.3997206 L33.9165107,11.3997206" transform="rotate(157.5 33.176 11.4)"/>
      </g>
    </g>
    <g transform="translate(357 1)">
      <circle cx="20" cy="20" r="20" fill="#4F77FC"/>
      <circle cx="20" cy="20" r="12.593" fill="#002EFF"/>
      <g fill="#FFF" transform="translate(14.222 14.222)">
        <path d="M9.38525776,2.89687539 L6.8249065,0.336524134 C6.3841903,-0.104192067 5.67064978,-0.104192067 5.22993358,0.336524134 L2.69056881,2.89687539 C2.54366341,3.04378079 2.54366341,3.27463214 2.69056881,3.42153754 L3.46706878,4.19803751 L3.97074444,4.68072668 C4.11764984,4.82763208 4.34850118,4.82763208 4.51639307,4.68072668 L5.54473087,3.73633482 C5.81755518,3.484497 6.25827138,3.484497 6.55208218,3.73633482 L7.58041998,4.68072668 C7.72732538,4.82763208 7.95817673,4.82763208 8.12606861,4.68072668 L8.65073076,4.19803751 L9.42723073,3.42153754 C9.53216316,3.27463214 9.53216316,3.04378079 9.38525776,2.89687539 Z"/>
        <path d="M0.622646252,6.77726497 L5.19670141,11.3513201 C5.699608,11.8542267 6.51383771,11.8542267 7.0167443,11.3513201 L11.5907995,6.77726497 C12.3810812,5.98698319 11.8302788,5.74750386 11.2555284,5.19670141 L10.5370904,4.52615929 C10.3694549,4.35852376 10.1060276,4.35852376 9.91444417,4.52615929 L8.74099546,5.60381627 C8.42967233,5.89119146 7.92676575,5.89119146 7.59149469,5.60381627 L6.41804598,4.52615929 C6.25041045,4.35852376 5.98698319,4.35852376 5.79539973,4.52615929 L4.62195102,5.60381627 C4.3106279,5.89119146 3.80772131,5.89119146 3.47245025,5.60381627 L2.29900155,4.52615929 C2.13136602,4.35852376 1.86793876,4.35852376 1.67635529,4.52615929 L1.02976111,5.12485761 C0.43106279,5.699608 -0.191583462,5.96303526 0.622646252,6.77726497 Z"/>
      </g>
      <g stroke="#002EFF" stroke-linecap="square" stroke-width="2" transform="translate(2.222 2.222)">
        <path d="M32.962963 17.7777778L34.4444444 17.7777778M.37037037 17.7777778L1.85185185 17.7777778"/>
        <path d="M17.037037,33.7037037 L18.5185185,33.7037037" transform="rotate(90 17.778 33.704)"/>
        <path d="M17.037037,1.11111111 L18.5185185,1.11111111" transform="rotate(90 17.778 1.111)"/>
        <path d="M28.2983673,29.039108 L29.7798487,29.039108" transform="rotate(45 29.04 29.04)"/>
        <path d="M5.25192402,5.99266476 L6.7334055,5.99266476" transform="rotate(45 5.993 5.993)"/>
        <path d="M5.77570682,29.039108 L7.2571883,29.039108" transform="rotate(135 6.516 29.04)"/>
        <path d="M28.8221501,5.99266476 L30.3036315,5.99266476" transform="rotate(135 29.563 5.993)"/>
        <path d="M31.750674,23.8723658 L33.2321555,23.8723658" transform="rotate(22.5 32.491 23.872)"/>
        <path d="M1.63904483,11.3997206 L3.12052631,11.3997206" transform="rotate(22.5 2.38 11.4)"/>
        <path d="M10.942449,32.4914148 L12.4239305,32.4914148" transform="rotate(112.5 11.683 32.491)"/>
        <path d="M23.4150942,2.37978557 L24.8965757,2.37978557" transform="rotate(112.5 24.156 2.38)"/>
        <path d="M23.131625,32.4914148 L24.6131065,32.4914148" transform="rotate(67.5 23.872 32.491)"/>
        <path d="M10.6589798,2.37978557 L12.1404613,2.37978557" transform="rotate(67.5 11.4 2.38)"/>
        <path d="M2.32340003,23.8723658 L3.80488151,23.8723658" transform="rotate(157.5 3.064 23.872)"/>
        <path d="M32.4350292,11.3997206 L33.9165107,11.3997206" transform="rotate(157.5 33.176 11.4)"/>
      </g>
    </g>
    <g transform="translate(358 71)">
      <circle cx="20" cy="20" r="20" fill="#4F77FC"/>
      <circle cx="20" cy="20" r="12.593" fill="#002EFF"/>
      <g fill="#FFF" transform="translate(14.222 14.222)">
        <path d="M9.38525776,2.89687539 L6.8249065,0.336524134 C6.3841903,-0.104192067 5.67064978,-0.104192067 5.22993358,0.336524134 L2.69056881,2.89687539 C2.54366341,3.04378079 2.54366341,3.27463214 2.69056881,3.42153754 L3.46706878,4.19803751 L3.97074444,4.68072668 C4.11764984,4.82763208 4.34850118,4.82763208 4.51639307,4.68072668 L5.54473087,3.73633482 C5.81755518,3.484497 6.25827138,3.484497 6.55208218,3.73633482 L7.58041998,4.68072668 C7.72732538,4.82763208 7.95817673,4.82763208 8.12606861,4.68072668 L8.65073076,4.19803751 L9.42723073,3.42153754 C9.53216316,3.27463214 9.53216316,3.04378079 9.38525776,2.89687539 Z"/>
        <path d="M0.622646252,6.77726497 L5.19670141,11.3513201 C5.699608,11.8542267 6.51383771,11.8542267 7.0167443,11.3513201 L11.5907995,6.77726497 C12.3810812,5.98698319 11.8302788,5.74750386 11.2555284,5.19670141 L10.5370904,4.52615929 C10.3694549,4.35852376 10.1060276,4.35852376 9.91444417,4.52615929 L8.74099546,5.60381627 C8.42967233,5.89119146 7.92676575,5.89119146 7.59149469,5.60381627 L6.41804598,4.52615929 C6.25041045,4.35852376 5.98698319,4.35852376 5.79539973,4.52615929 L4.62195102,5.60381627 C4.3106279,5.89119146 3.80772131,5.89119146 3.47245025,5.60381627 L2.29900155,4.52615929 C2.13136602,4.35852376 1.86793876,4.35852376 1.67635529,4.52615929 L1.02976111,5.12485761 C0.43106279,5.699608 -0.191583462,5.96303526 0.622646252,6.77726497 Z"/>
      </g>
      <g stroke="#002EFF" stroke-linecap="square" stroke-width="2" transform="translate(2.222 2.222)">
        <path d="M32.962963 17.7777778L34.4444444 17.7777778M.37037037 17.7777778L1.85185185 17.7777778"/>
        <path d="M17.037037,33.7037037 L18.5185185,33.7037037" transform="rotate(90 17.778 33.704)"/>
        <path d="M17.037037,1.11111111 L18.5185185,1.11111111" transform="rotate(90 17.778 1.111)"/>
        <path d="M28.2983673,29.039108 L29.7798487,29.039108" transform="rotate(45 29.04 29.04)"/>
        <path d="M5.25192402,5.99266476 L6.7334055,5.99266476" transform="rotate(45 5.993 5.993)"/>
        <path d="M5.77570682,29.039108 L7.2571883,29.039108" transform="rotate(135 6.516 29.04)"/>
        <path d="M28.8221501,5.99266476 L30.3036315,5.99266476" transform="rotate(135 29.563 5.993)"/>
        <path d="M31.750674,23.8723658 L33.2321555,23.8723658" transform="rotate(22.5 32.491 23.872)"/>
        <path d="M1.63904483,11.3997206 L3.12052631,11.3997206" transform="rotate(22.5 2.38 11.4)"/>
        <path d="M10.942449,32.4914148 L12.4239305,32.4914148" transform="rotate(112.5 11.683 32.491)"/>
        <path d="M23.4150942,2.37978557 L24.8965757,2.37978557" transform="rotate(112.5 24.156 2.38)"/>
        <path d="M23.131625,32.4914148 L24.6131065,32.4914148" transform="rotate(67.5 23.872 32.491)"/>
        <path d="M10.6589798,2.37978557 L12.1404613,2.37978557" transform="rotate(67.5 11.4 2.38)"/>
        <path d="M2.32340003,23.8723658 L3.80488151,23.8723658" transform="rotate(157.5 3.064 23.872)"/>
        <path d="M32.4350292,11.3997206 L33.9165107,11.3997206" transform="rotate(157.5 33.176 11.4)"/>
      </g>
    </g>
    <g transform="translate(87 71)">
      <circle cx="20" cy="20" r="20" fill="#4F77FC"/>
      <circle cx="20" cy="20" r="12.593" fill="#002EFF"/>
      <g fill="#FFF" transform="translate(14.222 14.222)">
        <path d="M9.38525776,2.89687539 L6.8249065,0.336524134 C6.3841903,-0.104192067 5.67064978,-0.104192067 5.22993358,0.336524134 L2.69056881,2.89687539 C2.54366341,3.04378079 2.54366341,3.27463214 2.69056881,3.42153754 L3.46706878,4.19803751 L3.97074444,4.68072668 C4.11764984,4.82763208 4.34850118,4.82763208 4.51639307,4.68072668 L5.54473087,3.73633482 C5.81755518,3.484497 6.25827138,3.484497 6.55208218,3.73633482 L7.58041998,4.68072668 C7.72732538,4.82763208 7.95817673,4.82763208 8.12606861,4.68072668 L8.65073076,4.19803751 L9.42723073,3.42153754 C9.53216316,3.27463214 9.53216316,3.04378079 9.38525776,2.89687539 Z"/>
        <path d="M0.622646252,6.77726497 L5.19670141,11.3513201 C5.699608,11.8542267 6.51383771,11.8542267 7.0167443,11.3513201 L11.5907995,6.77726497 C12.3810812,5.98698319 11.8302788,5.74750386 11.2555284,5.19670141 L10.5370904,4.52615929 C10.3694549,4.35852376 10.1060276,4.35852376 9.91444417,4.52615929 L8.74099546,5.60381627 C8.42967233,5.89119146 7.92676575,5.89119146 7.59149469,5.60381627 L6.41804598,4.52615929 C6.25041045,4.35852376 5.98698319,4.35852376 5.79539973,4.52615929 L4.62195102,5.60381627 C4.3106279,5.89119146 3.80772131,5.89119146 3.47245025,5.60381627 L2.29900155,4.52615929 C2.13136602,4.35852376 1.86793876,4.35852376 1.67635529,4.52615929 L1.02976111,5.12485761 C0.43106279,5.699608 -0.191583462,5.96303526 0.622646252,6.77726497 Z"/>
      </g>
      <g stroke="#002EFF" stroke-linecap="square" stroke-width="2" transform="translate(2.222 2.222)">
        <path d="M32.962963 17.7777778L34.4444444 17.7777778M.37037037 17.7777778L1.85185185 17.7777778"/>
        <path d="M17.037037,33.7037037 L18.5185185,33.7037037" transform="rotate(90 17.778 33.704)"/>
        <path d="M17.037037,1.11111111 L18.5185185,1.11111111" transform="rotate(90 17.778 1.111)"/>
        <path d="M28.2983673,29.039108 L29.7798487,29.039108" transform="rotate(45 29.04 29.04)"/>
        <path d="M5.25192402,5.99266476 L6.7334055,5.99266476" transform="rotate(45 5.993 5.993)"/>
        <path d="M5.77570682,29.039108 L7.2571883,29.039108" transform="rotate(135 6.516 29.04)"/>
        <path d="M28.8221501,5.99266476 L30.3036315,5.99266476" transform="rotate(135 29.563 5.993)"/>
        <path d="M31.750674,23.8723658 L33.2321555,23.8723658" transform="rotate(22.5 32.491 23.872)"/>
        <path d="M1.63904483,11.3997206 L3.12052631,11.3997206" transform="rotate(22.5 2.38 11.4)"/>
        <path d="M10.942449,32.4914148 L12.4239305,32.4914148" transform="rotate(112.5 11.683 32.491)"/>
        <path d="M23.4150942,2.37978557 L24.8965757,2.37978557" transform="rotate(112.5 24.156 2.38)"/>
        <path d="M23.131625,32.4914148 L24.6131065,32.4914148" transform="rotate(67.5 23.872 32.491)"/>
        <path d="M10.6589798,2.37978557 L12.1404613,2.37978557" transform="rotate(67.5 11.4 2.38)"/>
        <path d="M2.32340003,23.8723658 L3.80488151,23.8723658" transform="rotate(157.5 3.064 23.872)"/>
        <path d="M32.4350292,11.3997206 L33.9165107,11.3997206" transform="rotate(157.5 33.176 11.4)"/>
      </g>
    </g>
    <g transform="translate(45 71)">
      <circle cx="20" cy="20" r="20" fill="#4F77FC"/>
      <circle cx="20" cy="20" r="12.593" fill="#002EFF"/>
      <g fill="#FFF" transform="translate(14.222 14.222)">
        <path d="M9.38525776,2.89687539 L6.8249065,0.336524134 C6.3841903,-0.104192067 5.67064978,-0.104192067 5.22993358,0.336524134 L2.69056881,2.89687539 C2.54366341,3.04378079 2.54366341,3.27463214 2.69056881,3.42153754 L3.46706878,4.19803751 L3.97074444,4.68072668 C4.11764984,4.82763208 4.34850118,4.82763208 4.51639307,4.68072668 L5.54473087,3.73633482 C5.81755518,3.484497 6.25827138,3.484497 6.55208218,3.73633482 L7.58041998,4.68072668 C7.72732538,4.82763208 7.95817673,4.82763208 8.12606861,4.68072668 L8.65073076,4.19803751 L9.42723073,3.42153754 C9.53216316,3.27463214 9.53216316,3.04378079 9.38525776,2.89687539 Z"/>
        <path d="M0.622646252,6.77726497 L5.19670141,11.3513201 C5.699608,11.8542267 6.51383771,11.8542267 7.0167443,11.3513201 L11.5907995,6.77726497 C12.3810812,5.98698319 11.8302788,5.74750386 11.2555284,5.19670141 L10.5370904,4.52615929 C10.3694549,4.35852376 10.1060276,4.35852376 9.91444417,4.52615929 L8.74099546,5.60381627 C8.42967233,5.89119146 7.92676575,5.89119146 7.59149469,5.60381627 L6.41804598,4.52615929 C6.25041045,4.35852376 5.98698319,4.35852376 5.79539973,4.52615929 L4.62195102,5.60381627 C4.3106279,5.89119146 3.80772131,5.89119146 3.47245025,5.60381627 L2.29900155,4.52615929 C2.13136602,4.35852376 1.86793876,4.35852376 1.67635529,4.52615929 L1.02976111,5.12485761 C0.43106279,5.699608 -0.191583462,5.96303526 0.622646252,6.77726497 Z"/>
      </g>
      <g stroke="#002EFF" stroke-linecap="square" stroke-width="2" transform="translate(2.222 2.222)">
        <path d="M32.962963 17.7777778L34.4444444 17.7777778M.37037037 17.7777778L1.85185185 17.7777778"/>
        <path d="M17.037037,33.7037037 L18.5185185,33.7037037" transform="rotate(90 17.778 33.704)"/>
        <path d="M17.037037,1.11111111 L18.5185185,1.11111111" transform="rotate(90 17.778 1.111)"/>
        <path d="M28.2983673,29.039108 L29.7798487,29.039108" transform="rotate(45 29.04 29.04)"/>
        <path d="M5.25192402,5.99266476 L6.7334055,5.99266476" transform="rotate(45 5.993 5.993)"/>
        <path d="M5.77570682,29.039108 L7.2571883,29.039108" transform="rotate(135 6.516 29.04)"/>
        <path d="M28.8221501,5.99266476 L30.3036315,5.99266476" transform="rotate(135 29.563 5.993)"/>
        <path d="M31.750674,23.8723658 L33.2321555,23.8723658" transform="rotate(22.5 32.491 23.872)"/>
        <path d="M1.63904483,11.3997206 L3.12052631,11.3997206" transform="rotate(22.5 2.38 11.4)"/>
        <path d="M10.942449,32.4914148 L12.4239305,32.4914148" transform="rotate(112.5 11.683 32.491)"/>
        <path d="M23.4150942,2.37978557 L24.8965757,2.37978557" transform="rotate(112.5 24.156 2.38)"/>
        <path d="M23.131625,32.4914148 L24.6131065,32.4914148" transform="rotate(67.5 23.872 32.491)"/>
        <path d="M10.6589798,2.37978557 L12.1404613,2.37978557" transform="rotate(67.5 11.4 2.38)"/>
        <path d="M2.32340003,23.8723658 L3.80488151,23.8723658" transform="rotate(157.5 3.064 23.872)"/>
        <path d="M32.4350292,11.3997206 L33.9165107,11.3997206" transform="rotate(157.5 33.176 11.4)"/>
      </g>
    </g>
    <g transform="translate(45 1)">
      <circle cx="20" cy="20" r="20" fill="#4F77FC"/>
      <circle cx="20" cy="20" r="12.593" fill="#002EFF"/>
      <g fill="#FFF" transform="translate(14.222 14.222)">
        <path d="M9.38525776,2.89687539 L6.8249065,0.336524134 C6.3841903,-0.104192067 5.67064978,-0.104192067 5.22993358,0.336524134 L2.69056881,2.89687539 C2.54366341,3.04378079 2.54366341,3.27463214 2.69056881,3.42153754 L3.46706878,4.19803751 L3.97074444,4.68072668 C4.11764984,4.82763208 4.34850118,4.82763208 4.51639307,4.68072668 L5.54473087,3.73633482 C5.81755518,3.484497 6.25827138,3.484497 6.55208218,3.73633482 L7.58041998,4.68072668 C7.72732538,4.82763208 7.95817673,4.82763208 8.12606861,4.68072668 L8.65073076,4.19803751 L9.42723073,3.42153754 C9.53216316,3.27463214 9.53216316,3.04378079 9.38525776,2.89687539 Z"/>
        <path d="M0.622646252,6.77726497 L5.19670141,11.3513201 C5.699608,11.8542267 6.51383771,11.8542267 7.0167443,11.3513201 L11.5907995,6.77726497 C12.3810812,5.98698319 11.8302788,5.74750386 11.2555284,5.19670141 L10.5370904,4.52615929 C10.3694549,4.35852376 10.1060276,4.35852376 9.91444417,4.52615929 L8.74099546,5.60381627 C8.42967233,5.89119146 7.92676575,5.89119146 7.59149469,5.60381627 L6.41804598,4.52615929 C6.25041045,4.35852376 5.98698319,4.35852376 5.79539973,4.52615929 L4.62195102,5.60381627 C4.3106279,5.89119146 3.80772131,5.89119146 3.47245025,5.60381627 L2.29900155,4.52615929 C2.13136602,4.35852376 1.86793876,4.35852376 1.67635529,4.52615929 L1.02976111,5.12485761 C0.43106279,5.699608 -0.191583462,5.96303526 0.622646252,6.77726497 Z"/>
      </g>
      <g stroke="#002EFF" stroke-linecap="square" stroke-width="2" transform="translate(2.222 2.222)">
        <path d="M32.962963 17.7777778L34.4444444 17.7777778M.37037037 17.7777778L1.85185185 17.7777778"/>
        <path d="M17.037037,33.7037037 L18.5185185,33.7037037" transform="rotate(90 17.778 33.704)"/>
        <path d="M17.037037,1.11111111 L18.5185185,1.11111111" transform="rotate(90 17.778 1.111)"/>
        <path d="M28.2983673,29.039108 L29.7798487,29.039108" transform="rotate(45 29.04 29.04)"/>
        <path d="M5.25192402,5.99266476 L6.7334055,5.99266476" transform="rotate(45 5.993 5.993)"/>
        <path d="M5.77570682,29.039108 L7.2571883,29.039108" transform="rotate(135 6.516 29.04)"/>
        <path d="M28.8221501,5.99266476 L30.3036315,5.99266476" transform="rotate(135 29.563 5.993)"/>
        <path d="M31.750674,23.8723658 L33.2321555,23.8723658" transform="rotate(22.5 32.491 23.872)"/>
        <path d="M1.63904483,11.3997206 L3.12052631,11.3997206" transform="rotate(22.5 2.38 11.4)"/>
        <path d="M10.942449,32.4914148 L12.4239305,32.4914148" transform="rotate(112.5 11.683 32.491)"/>
        <path d="M23.4150942,2.37978557 L24.8965757,2.37978557" transform="rotate(112.5 24.156 2.38)"/>
        <path d="M23.131625,32.4914148 L24.6131065,32.4914148" transform="rotate(67.5 23.872 32.491)"/>
        <path d="M10.6589798,2.37978557 L12.1404613,2.37978557" transform="rotate(67.5 11.4 2.38)"/>
        <path d="M2.32340003,23.8723658 L3.80488151,23.8723658" transform="rotate(157.5 3.064 23.872)"/>
        <path d="M32.4350292,11.3997206 L33.9165107,11.3997206" transform="rotate(157.5 33.176 11.4)"/>
      </g>
    </g>
    <g transform="translate(171 71)">
      <circle cx="20" cy="20" r="20" fill="#4F77FC"/>
      <circle cx="20" cy="20" r="12.593" fill="#002EFF"/>
      <g fill="#FFF" transform="translate(14.222 14.222)">
        <path d="M9.38525776,2.89687539 L6.8249065,0.336524134 C6.3841903,-0.104192067 5.67064978,-0.104192067 5.22993358,0.336524134 L2.69056881,2.89687539 C2.54366341,3.04378079 2.54366341,3.27463214 2.69056881,3.42153754 L3.46706878,4.19803751 L3.97074444,4.68072668 C4.11764984,4.82763208 4.34850118,4.82763208 4.51639307,4.68072668 L5.54473087,3.73633482 C5.81755518,3.484497 6.25827138,3.484497 6.55208218,3.73633482 L7.58041998,4.68072668 C7.72732538,4.82763208 7.95817673,4.82763208 8.12606861,4.68072668 L8.65073076,4.19803751 L9.42723073,3.42153754 C9.53216316,3.27463214 9.53216316,3.04378079 9.38525776,2.89687539 Z"/>
        <path d="M0.622646252,6.77726497 L5.19670141,11.3513201 C5.699608,11.8542267 6.51383771,11.8542267 7.0167443,11.3513201 L11.5907995,6.77726497 C12.3810812,5.98698319 11.8302788,5.74750386 11.2555284,5.19670141 L10.5370904,4.52615929 C10.3694549,4.35852376 10.1060276,4.35852376 9.91444417,4.52615929 L8.74099546,5.60381627 C8.42967233,5.89119146 7.92676575,5.89119146 7.59149469,5.60381627 L6.41804598,4.52615929 C6.25041045,4.35852376 5.98698319,4.35852376 5.79539973,4.52615929 L4.62195102,5.60381627 C4.3106279,5.89119146 3.80772131,5.89119146 3.47245025,5.60381627 L2.29900155,4.52615929 C2.13136602,4.35852376 1.86793876,4.35852376 1.67635529,4.52615929 L1.02976111,5.12485761 C0.43106279,5.699608 -0.191583462,5.96303526 0.622646252,6.77726497 Z"/>
      </g>
      <g stroke="#002EFF" stroke-linecap="square" stroke-width="2" transform="translate(2.222 2.222)">
        <path d="M32.962963 17.7777778L34.4444444 17.7777778M.37037037 17.7777778L1.85185185 17.7777778"/>
        <path d="M17.037037,33.7037037 L18.5185185,33.7037037" transform="rotate(90 17.778 33.704)"/>
        <path d="M17.037037,1.11111111 L18.5185185,1.11111111" transform="rotate(90 17.778 1.111)"/>
        <path d="M28.2983673,29.039108 L29.7798487,29.039108" transform="rotate(45 29.04 29.04)"/>
        <path d="M5.25192402,5.99266476 L6.7334055,5.99266476" transform="rotate(45 5.993 5.993)"/>
        <path d="M5.77570682,29.039108 L7.2571883,29.039108" transform="rotate(135 6.516 29.04)"/>
        <path d="M28.8221501,5.99266476 L30.3036315,5.99266476" transform="rotate(135 29.563 5.993)"/>
        <path d="M31.750674,23.8723658 L33.2321555,23.8723658" transform="rotate(22.5 32.491 23.872)"/>
        <path d="M1.63904483,11.3997206 L3.12052631,11.3997206" transform="rotate(22.5 2.38 11.4)"/>
        <path d="M10.942449,32.4914148 L12.4239305,32.4914148" transform="rotate(112.5 11.683 32.491)"/>
        <path d="M23.4150942,2.37978557 L24.8965757,2.37978557" transform="rotate(112.5 24.156 2.38)"/>
        <path d="M23.131625,32.4914148 L24.6131065,32.4914148" transform="rotate(67.5 23.872 32.491)"/>
        <path d="M10.6589798,2.37978557 L12.1404613,2.37978557" transform="rotate(67.5 11.4 2.38)"/>
        <path d="M2.32340003,23.8723658 L3.80488151,23.8723658" transform="rotate(157.5 3.064 23.872)"/>
        <path d="M32.4350292,11.3997206 L33.9165107,11.3997206" transform="rotate(157.5 33.176 11.4)"/>
      </g>
    </g>
    <g transform="translate(129 71)">
      <circle cx="20" cy="20" r="20" fill="#4F77FC"/>
      <circle cx="20" cy="20" r="12.593" fill="#002EFF"/>
      <g fill="#FFF" transform="translate(14.222 14.222)">
        <path d="M9.38525776,2.89687539 L6.8249065,0.336524134 C6.3841903,-0.104192067 5.67064978,-0.104192067 5.22993358,0.336524134 L2.69056881,2.89687539 C2.54366341,3.04378079 2.54366341,3.27463214 2.69056881,3.42153754 L3.46706878,4.19803751 L3.97074444,4.68072668 C4.11764984,4.82763208 4.34850118,4.82763208 4.51639307,4.68072668 L5.54473087,3.73633482 C5.81755518,3.484497 6.25827138,3.484497 6.55208218,3.73633482 L7.58041998,4.68072668 C7.72732538,4.82763208 7.95817673,4.82763208 8.12606861,4.68072668 L8.65073076,4.19803751 L9.42723073,3.42153754 C9.53216316,3.27463214 9.53216316,3.04378079 9.38525776,2.89687539 Z"/>
        <path d="M0.622646252,6.77726497 L5.19670141,11.3513201 C5.699608,11.8542267 6.51383771,11.8542267 7.0167443,11.3513201 L11.5907995,6.77726497 C12.3810812,5.98698319 11.8302788,5.74750386 11.2555284,5.19670141 L10.5370904,4.52615929 C10.3694549,4.35852376 10.1060276,4.35852376 9.91444417,4.52615929 L8.74099546,5.60381627 C8.42967233,5.89119146 7.92676575,5.89119146 7.59149469,5.60381627 L6.41804598,4.52615929 C6.25041045,4.35852376 5.98698319,4.35852376 5.79539973,4.52615929 L4.62195102,5.60381627 C4.3106279,5.89119146 3.80772131,5.89119146 3.47245025,5.60381627 L2.29900155,4.52615929 C2.13136602,4.35852376 1.86793876,4.35852376 1.67635529,4.52615929 L1.02976111,5.12485761 C0.43106279,5.699608 -0.191583462,5.96303526 0.622646252,6.77726497 Z"/>
      </g>
      <g stroke="#002EFF" stroke-linecap="square" stroke-width="2" transform="translate(2.222 2.222)">
        <path d="M32.962963 17.7777778L34.4444444 17.7777778M.37037037 17.7777778L1.85185185 17.7777778"/>
        <path d="M17.037037,33.7037037 L18.5185185,33.7037037" transform="rotate(90 17.778 33.704)"/>
        <path d="M17.037037,1.11111111 L18.5185185,1.11111111" transform="rotate(90 17.778 1.111)"/>
        <path d="M28.2983673,29.039108 L29.7798487,29.039108" transform="rotate(45 29.04 29.04)"/>
        <path d="M5.25192402,5.99266476 L6.7334055,5.99266476" transform="rotate(45 5.993 5.993)"/>
        <path d="M5.77570682,29.039108 L7.2571883,29.039108" transform="rotate(135 6.516 29.04)"/>
        <path d="M28.8221501,5.99266476 L30.3036315,5.99266476" transform="rotate(135 29.563 5.993)"/>
        <path d="M31.750674,23.8723658 L33.2321555,23.8723658" transform="rotate(22.5 32.491 23.872)"/>
        <path d="M1.63904483,11.3997206 L3.12052631,11.3997206" transform="rotate(22.5 2.38 11.4)"/>
        <path d="M10.942449,32.4914148 L12.4239305,32.4914148" transform="rotate(112.5 11.683 32.491)"/>
        <path d="M23.4150942,2.37978557 L24.8965757,2.37978557" transform="rotate(112.5 24.156 2.38)"/>
        <path d="M23.131625,32.4914148 L24.6131065,32.4914148" transform="rotate(67.5 23.872 32.491)"/>
        <path d="M10.6589798,2.37978557 L12.1404613,2.37978557" transform="rotate(67.5 11.4 2.38)"/>
        <path d="M2.32340003,23.8723658 L3.80488151,23.8723658" transform="rotate(157.5 3.064 23.872)"/>
        <path d="M32.4350292,11.3997206 L33.9165107,11.3997206" transform="rotate(157.5 33.176 11.4)"/>
      </g>
    </g>
    <g fill="#E0E1E6" transform="translate(89 20)">
      <rect width="2" height="2" x="4"/>
      <rect width="2" height="2"/>
      <rect width="2" height="2" x="8"/>
      <rect width="2" height="2" x="12"/>
      <rect width="2" height="2" x="16"/>
      <rect width="2" height="2" x="20"/>
      <rect width="2" height="2" x="24"/>
      <rect width="2" height="2" x="28"/>
      <rect width="2" height="2" x="32"/>
      <rect width="2" height="2" x="36"/>
      <rect width="2" height="2" x="40"/>
      <rect width="2" height="2" x="44"/>
      <rect width="2" height="2" x="48"/>
      <rect width="2" height="2" x="52"/>
      <rect width="2" height="2" x="56"/>
      <rect width="2" height="2" x="60"/>
      <rect width="2" height="2" x="64"/>
      <rect width="2" height="2" x="68"/>
    </g>
    <g fill="#E0E1E6" transform="translate(162 20)">
      <rect width="2" height="2"/>
      <rect width="2" height="2" x="4"/>
      <rect width="2" height="2" x="8"/>
      <rect width="2" height="2" x="12"/>
      <rect width="2" height="2" x="16"/>
      <rect width="2" height="2" x="20"/>
      <rect width="2" height="2" x="24"/>
      <rect width="2" height="2" x="28"/>
      <rect width="2" height="2" x="32"/>
      <rect width="2" height="2" x="36"/>
      <rect width="2" height="2" x="40"/>
      <rect width="2" height="2" x="44"/>
      <rect width="2" height="2" x="48"/>
      <rect width="2" height="2" x="52"/>
      <rect width="2" height="2" x="56"/>
      <rect width="2" height="2" x="60"/>
      <rect width="2" height="2" x="64"/>
    </g>
    <g fill="#E0E1E6" fill-rule="nonzero">
      <path d="M10.9333333,22.2083333 C10.50625,22.7208333 9.99375,23.0625 9.31041667,23.31875 C10.50625,28.7 13.06875,32.2875 17.0833333,33.9958333 C21.0125,32.2875 23.6604167,28.7 24.7708333,23.31875 C24.1729167,23.1479167 23.6604167,22.80625 23.31875,22.3791667 C20.24375,24.7708333 15.375,26.1375 10.9333333,22.2083333 Z"/>
      <path d="M26.4791667 23.575L26.39375 23.575C24.7708333 31.1770833 20.5854167 34.3375 17.3395833 35.7041667L17.0833333 35.7895833 16.7416667 35.7041667C13.4958333 34.4229167 9.31041667 31.2625 7.6875 23.575L7.6875 23.575C3.5875 23.575.341666667 26.4791667.341666667 30.1520833L.341666667 36.2166667C5.03958333 39.20625 10.8479167 41 17.0833333 41 23.31875 41 29.1270833 39.20625 33.9104167 36.13125L33.9104167 30.1520833C33.825 26.4791667 30.5791667 23.575 26.4791667 23.575zM28.1875 9.13958333L27.0770833 9.13958333C26.7354167 5.29583333 24.34375 2.13541667 20.9270833.76875L19.3895833 9.13958333 19.21875 9.90833333 14.9479167 9.90833333 14.7770833 9.13958333 13.2395833.76875C9.82291667 2.13541667 7.34583333 5.38125 7.08958333 9.13958333L5.97916667 9.13958333 5.97916667 11.3604167 8.62708333 11.3604167C8.62708333 11.4458333 8.7125 12.55625 8.7125 12.9833333 8.7125 18.5354167 12.55625 23.1479167 17.2541667 23.1479167 21.9520833 23.1479167 25.7958333 18.6208333 25.7958333 12.9833333 25.7958333 12.4708333 25.7104167 11.8729167 25.7104167 11.3604167L28.2729167 11.3604167 28.2729167 9.13958333 28.1875 9.13958333zM24.0875 12.9833333C24.0875 17.68125 21.0125 21.525 17.16875 21.525 13.325 21.525 10.25 17.68125 10.25 12.9833333 10.25 12.6416667 10.9333333 11.6166667 11.1895833 11.3604167L23.575 11.3604167C23.7458333 11.4458333 24.0875 12.6416667 24.0875 12.9833333z"/>
      <path d="M18.2791667,8.88333333 L19.8166667,0.427083333 C18.9625,0.170833333 18.0229167,0 17.0833333,0 C16.14375,0 15.2041667,0.170833333 14.35,0.427083333 L15.8875,8.88333333 L18.2791667,8.88333333 Z"/>
    </g>
    <g fill="#E0E1E6" fill-rule="nonzero" transform="translate(0 70)">
      <path d="M10.9333333,22.2083333 C10.50625,22.7208333 9.99375,23.0625 9.31041667,23.31875 C10.50625,28.7 13.06875,32.2875 17.0833333,33.9958333 C21.0125,32.2875 23.6604167,28.7 24.7708333,23.31875 C24.1729167,23.1479167 23.6604167,22.80625 23.31875,22.3791667 C20.24375,24.7708333 15.375,26.1375 10.9333333,22.2083333 Z"/>
      <path d="M26.4791667 23.575L26.39375 23.575C24.7708333 31.1770833 20.5854167 34.3375 17.3395833 35.7041667L17.0833333 35.7895833 16.7416667 35.7041667C13.4958333 34.4229167 9.31041667 31.2625 7.6875 23.575L7.6875 23.575C3.5875 23.575.341666667 26.4791667.341666667 30.1520833L.341666667 36.2166667C5.03958333 39.20625 10.8479167 41 17.0833333 41 23.31875 41 29.1270833 39.20625 33.9104167 36.13125L33.9104167 30.1520833C33.825 26.4791667 30.5791667 23.575 26.4791667 23.575zM28.1875 9.13958333L27.0770833 9.13958333C26.7354167 5.29583333 24.34375 2.13541667 20.9270833.76875L19.3895833 9.13958333 19.21875 9.90833333 14.9479167 9.90833333 14.7770833 9.13958333 13.2395833.76875C9.82291667 2.13541667 7.34583333 5.38125 7.08958333 9.13958333L5.97916667 9.13958333 5.97916667 11.3604167 8.62708333 11.3604167C8.62708333 11.4458333 8.7125 12.55625 8.7125 12.9833333 8.7125 18.5354167 12.55625 23.1479167 17.2541667 23.1479167 21.9520833 23.1479167 25.7958333 18.6208333 25.7958333 12.9833333 25.7958333 12.4708333 25.7104167 11.8729167 25.7104167 11.3604167L28.2729167 11.3604167 28.2729167 9.13958333 28.1875 9.13958333zM24.0875 12.9833333C24.0875 17.68125 21.0125 21.525 17.16875 21.525 13.325 21.525 10.25 17.68125 10.25 12.9833333 10.25 12.6416667 10.9333333 11.6166667 11.1895833 11.3604167L23.575 11.3604167C23.7458333 11.4458333 24.0875 12.6416667 24.0875 12.9833333z"/>
      <path d="M18.2791667,8.88333333 L19.8166667,0.427083333 C18.9625,0.170833333 18.0229167,0 17.0833333,0 C16.14375,0 15.2041667,0.170833333 14.35,0.427083333 L15.8875,8.88333333 L18.2791667,8.88333333 Z"/>
    </g>
    <g fill="#E0E1E6" fill-rule="nonzero" transform="matrix(-1 0 0 1 278 3)">
      <path d="M22.9302718.417709673C22.8261846.164920971 22.5788085 0 22.3057487 0 17.1797927 0 12.9041074 3.72694358 11.4847367 5.12066097L10.6168929 4.25414997C10.3532955 3.99054677 9.92478072 3.99054677 9.6611833 4.25414997L4.25405679 9.66139492C3.99045937 9.92499811 3.99045937 10.3535223 4.25405679 10.6171255L5.12054881 11.4849883C3.72686195 12.9043901 0 17.1788172 0 22.3062372 0 22.5793031.164917359 22.8266846.417700523 22.930774.501510984 22.9659211.58937679 22.9821429.675890814 22.9821429.851622426 22.9821429 1.02465047 22.9132005 1.15442151 22.7847784L8.78658059 15.1524522 9.65983152 16.0257222C9.92342894 16.2893254 10.3519437 16.2893254 10.6155411 16.0257222L16.0226676 10.6184773C16.2862651 10.3548741 16.2862651 9.92634992 16.0226676 9.66274673L15.1494167 8.78947667 22.7815758 1.15715042C22.9775841.96113779 23.0357107.670498374 22.9302718.417709673zM32.8009025 28.5463354L16.6306603 12.375 12.9642857 16.0416224 29.1345279 32.2129578C29.261842 32.3402805 29.4338514 32.4107143 29.6139873 32.4107143 31.4803575 32.4107143 33 30.8909691 33 29.0244727 32.9986456 28.8443246 32.9268621 28.6723036 32.8009025 28.5463354zM4.47215174 8.25L8.25 4.45586549 7.92622431 4.130694C7.13632327 3.33738771 5.75608982 3.33738771 4.96618878 4.130694L4.14837605 4.95203232C3.75342553 5.34868547 3.53571429 5.87708913 3.53571429 6.43913122 3.53571429 7.00117331 3.75342553 7.52817537 4.14837605 7.92623012L4.47215174 8.25z"/>
    </g>
    <path fill="#E0E1E6" fill-rule="nonzero" d="M231.391314,26.7942021 L231.391314,26.7942021 L231.391314,26.7942021 C231.876421,27.1277978 232.533021,27.0538297 232.93175,26.620667 L238,21.1147291 L232.992808,15.4003952 L232.992808,15.4003952 C232.60462,14.9573854 231.949172,14.8685317 231.457051,15.1922054 L231.457051,15.1922054 L231.457051,15.1922054 C231.049849,15.4600267 230.936859,16.0072408 231.204681,16.4144424 C231.229205,16.45173 231.256523,16.4871035 231.286399,16.5202584 L235.403483,21.0892017 L231.251813,25.4681406 L231.251813,25.4681406 C230.918557,25.8196404 230.933346,26.3747452 231.284845,26.708002 C231.318033,26.7394674 231.353631,26.7682886 231.391314,26.7942021 Z"/>
    <g fill="#E0E1E6" transform="translate(288 20)">
      <rect width="2" height="2"/>
      <rect width="2" height="2" x="4"/>
      <rect width="2" height="2" x="8"/>
      <rect width="2" height="2" x="12"/>
      <rect width="2" height="2" x="16"/>
      <rect width="2" height="2" x="20"/>
      <rect width="2" height="2" x="24"/>
      <rect width="2" height="2" x="28"/>
      <rect width="2" height="2" x="32"/>
      <rect width="2" height="2" x="36"/>
      <rect width="2" height="2" x="40"/>
      <rect width="2" height="2" x="44"/>
      <rect width="2" height="2" x="48"/>
      <rect width="2" height="2" x="52"/>
    </g>
    <path fill="#E0E1E6" fill-rule="nonzero" d="M345.391314,26.7942021 L345.391314,26.7942021 L345.391314,26.7942021 C345.876421,27.1277978 346.533021,27.0538297 346.93175,26.620667 L352,21.1147291 L346.992808,15.4003952 L346.992808,15.4003952 C346.60462,14.9573854 345.949172,14.8685317 345.457051,15.1922054 L345.457051,15.1922054 L345.457051,15.1922054 C345.049849,15.4600267 344.936859,16.0072408 345.204681,16.4144424 C345.229205,16.45173 345.256523,16.4871035 345.286399,16.5202584 L349.403483,21.0892017 L345.251813,25.4681406 L345.251813,25.4681406 C344.918557,25.8196404 344.933346,26.3747452 345.284845,26.708002 C345.318033,26.7394674 345.353631,26.7682886 345.391314,26.7942021 Z"/>
    <g fill="#E0E1E6" transform="translate(288 90)">
      <rect width="2" height="2"/>
      <rect width="2" height="2" x="4"/>
      <rect width="2" height="2" x="8"/>
      <rect width="2" height="2" x="12"/>
      <rect width="2" height="2" x="16"/>
      <rect width="2" height="2" x="20"/>
      <rect width="2" height="2" x="24"/>
      <rect width="2" height="2" x="28"/>
      <rect width="2" height="2" x="32"/>
      <rect width="2" height="2" x="36"/>
      <rect width="2" height="2" x="40"/>
      <rect width="2" height="2" x="44"/>
      <rect width="2" height="2" x="48"/>
      <rect width="2" height="2" x="52"/>
    </g>
    <path fill="#E0E1E6" fill-rule="nonzero" d="M345.391314,96.7942021 L345.391314,96.7942021 L345.391314,96.7942021 C345.876421,97.1277978 346.533021,97.0538297 346.93175,96.620667 L352,91.1147291 L346.992808,85.4003952 L346.992808,85.4003952 C346.60462,84.9573854 345.949172,84.8685317 345.457051,85.1922054 L345.457051,85.1922054 L345.457051,85.1922054 C345.049849,85.4600267 344.936859,86.0072408 345.204681,86.4144424 C345.229205,86.45173 345.256523,86.4871035 345.286399,86.5202584 L349.403483,91.0892017 L345.251813,95.4681406 L345.251813,95.4681406 C344.918557,95.8196404 344.933346,96.3747452 345.284845,96.708002 C345.318033,96.7394674 345.353631,96.7682886 345.391314,96.7942021 Z"/>
    <g fill="#E0E1E6" transform="translate(214 90)">
      <rect width="2" height="2"/>
      <rect width="2" height="2" x="4"/>
      <rect width="2" height="2" x="8"/>
      <rect width="2" height="2" x="12"/>
    </g>
    <g fill="#E0E1E6" fill-rule="nonzero" transform="matrix(-1 0 0 1 278 73)">
      <path d="M22.9302718.417709673C22.8261846.164920971 22.5788085 0 22.3057487 0 17.1797927 0 12.9041074 3.72694358 11.4847367 5.12066097L10.6168929 4.25414997C10.3532955 3.99054677 9.92478072 3.99054677 9.6611833 4.25414997L4.25405679 9.66139492C3.99045937 9.92499811 3.99045937 10.3535223 4.25405679 10.6171255L5.12054881 11.4849883C3.72686195 12.9043901 0 17.1788172 0 22.3062372 0 22.5793031.164917359 22.8266846.417700523 22.930774.501510984 22.9659211.58937679 22.9821429.675890814 22.9821429.851622426 22.9821429 1.02465047 22.9132005 1.15442151 22.7847784L8.78658059 15.1524522 9.65983152 16.0257222C9.92342894 16.2893254 10.3519437 16.2893254 10.6155411 16.0257222L16.0226676 10.6184773C16.2862651 10.3548741 16.2862651 9.92634992 16.0226676 9.66274673L15.1494167 8.78947667 22.7815758 1.15715042C22.9775841.96113779 23.0357107.670498374 22.9302718.417709673zM32.8009025 28.5463354L16.6306603 12.375 12.9642857 16.0416224 29.1345279 32.2129578C29.261842 32.3402805 29.4338514 32.4107143 29.6139873 32.4107143 31.4803575 32.4107143 33 30.8909691 33 29.0244727 32.9986456 28.8443246 32.9268621 28.6723036 32.8009025 28.5463354zM4.47215174 8.25L8.25 4.45586549 7.92622431 4.130694C7.13632327 3.33738771 5.75608982 3.33738771 4.96618878 4.130694L4.14837605 4.95203232C3.75342553 5.34868547 3.53571429 5.87708913 3.53571429 6.43913122 3.53571429 7.00117331 3.75342553 7.52817537 4.14837605 7.92623012L4.47215174 8.25z"/>
    </g>
    <path fill="#E0E1E6" fill-rule="nonzero" d="M231.391314,96.7942021 L231.391314,96.7942021 L231.391314,96.7942021 C231.876421,97.1277978 232.533021,97.0538297 232.93175,96.620667 L238,91.1147291 L232.992808,85.4003952 L232.992808,85.4003952 C232.60462,84.9573854 231.949172,84.8685317 231.457051,85.1922054 L231.457051,85.1922054 L231.457051,85.1922054 C231.049849,85.4600267 230.936859,86.0072408 231.204681,86.4144424 C231.229205,86.45173 231.256523,86.4871035 231.286399,86.5202584 L235.403483,91.0892017 L231.251813,95.4681406 L231.251813,95.4681406 C230.918557,95.8196404 230.933346,96.3747452 231.284845,96.708002 C231.318033,96.7394674 231.353631,96.7682886 231.391314,96.7942021 Z"/>
  </g>
</svg>
