<svg xmlns="http://www.w3.org/2000/svg" width="100%" viewBox="0 0 229 89">
  <g fill="none" fill-rule="evenodd">
    <g fill="#E0E1E6" transform="translate(84 16)">
      <rect width="1.599" height="1.6"/>
      <rect width="1.599" height="1.6" x="3.198"/>
      <rect width="1.599" height="1.6" x="6.397"/>
      <rect width="1.599" height="1.6" x="9.595"/>
      <rect width="1.599" height="1.6" x="12.793"/>
      <rect width="1.599" height="1.6" x="15.992"/>
      <rect width="1.599" height="1.6" x="19.19"/>
      <rect width="1.599" height="1.6" x="22.388"/>
      <rect width="1.599" height="1.6" x="25.587"/>
      <rect width="1.599" height="1.6" x="28.785"/>
      <rect width="1.599" height="1.6" x="31.983"/>
      <rect width="1.599" height="1.6" x="35.182"/>
      <rect width="1.599" height="1.6" x="38.38"/>
      <rect width="1.599" height="1.6" x="41.579"/>
      <rect width="1.599" height="1.6" x="44.777"/>
      <rect width="1.599" height="1.6" x="47.975"/>
      <rect width="1.599" height="1.6" x="51.174"/>
    </g>
    <g fill="#E0E1E6" transform="translate(55 16)">
      <rect width="1.599" height="1.6"/>
      <rect width="1.599" height="1.6" x="3.198"/>
      <rect width="1.599" height="1.6" x="6.397"/>
      <rect width="1.599" height="1.6" x="9.595"/>
      <rect width="1.599" height="1.6" x="12.793"/>
      <rect width="1.599" height="1.6" x="15.992"/>
      <rect width="1.599" height="1.6" x="19.19"/>
      <rect width="1.599" height="1.6" x="22.388"/>
      <rect width="1.599" height="1.6" x="25.587"/>
      <rect width="1.599" height="1.6" x="28.785"/>
      <rect width="1.599" height="1.6" x="31.983"/>
      <rect width="1.599" height="1.6" x="35.182"/>
      <rect width="1.599" height="1.6" x="38.38"/>
      <rect width="1.599" height="1.6" x="41.579"/>
      <rect width="1.599" height="1.6" x="44.777"/>
      <rect width="1.599" height="1.6" x="47.975"/>
      <rect width="1.599" height="1.6" x="51.174"/>
    </g>
    <g transform="translate(32.182)">
      <path fill="#E0E1E6" fill-rule="nonzero" d="M29.0577104,0.298181818 L3.72534748,0.298181818 C1.93718069,0.298181818 0.298027799,1.78909091 0.298027799,3.72727273 L0.298027799,29.0727273 C0.298027799,30.8618182 1.78816679,32.5018182 3.72534748,32.5018182 L29.0577104,32.5018182 C30.8458772,32.5018182 32.4850301,31.0109091 32.4850301,29.0727273 L32.4850301,3.72727273 C32.4850301,1.78909091 30.8458772,0.298181818 29.0577104,0.298181818 Z"/>
      <path fill="#FFF" d="M25.3323629,25.9418182 L23.3951822,25.9418182 L23.3951822,27.7309091 L22.0540571,27.7309091 L22.0540571,25.9418182 L20.2658903,25.9418182 L20.2658903,27.7309091 L18.9247652,27.7309091 L18.9247652,25.9418182 L17.1365984,25.9418182 L17.1365984,27.7309091 L15.7954733,27.7309091 L15.7954733,25.9418182 L14.0073065,25.9418182 L14.0073065,27.7309091 L12.5171675,27.7309091 L12.5171675,25.9418182 L10.7290008,25.9418182 L10.7290008,27.7309091 L9.38787566,27.7309091 L9.38787566,25.9418182 L7.45069497,25.9418182 C7.00365327,25.9418182 6.70562547,25.6436364 6.70562547,25.3454545 L6.70562547,23.4072727 L5.06647258,23.4072727 L5.06647258,22.0654545 L6.85463937,22.0654545 L6.85463937,20.2763636 L5.06647258,20.2763636 L5.06647258,18.9345455 L6.85463937,18.9345455 L6.85463937,17.1454545 L5.06647258,17.1454545 L5.06647258,15.8036364 L6.85463937,15.8036364 L6.85463937,14.0145455 L5.06647258,14.0145455 L5.06647258,12.5236364 L6.85463937,12.5236364 L6.85463937,10.7345455 L5.06647258,10.7345455 L5.06647258,9.39272727 L6.85463937,9.39272727 L6.85463937,7.45454545 C6.85463937,7.00727273 7.15266717,6.70909091 7.59970887,6.70909091 L9.53688956,6.70909091 L9.53688956,5.06909091 L10.8780147,5.06909091 L10.8780147,6.70909091 L12.6661814,6.70909091 L12.6661814,5.06909091 L14.0073065,5.06909091 L14.0073065,6.70909091 L15.7954733,6.70909091 L15.7954733,5.06909091 L17.1365984,5.06909091 L17.1365984,6.70909091 L18.9247652,6.70909091 L18.9247652,5.06909091 L20.2658903,5.06909091 L20.2658903,6.70909091 L22.0540571,6.70909091 L22.0540571,5.06909091 L23.3951822,5.06909091 L23.3951822,6.70909091 L25.3323629,6.70909091 C25.7794046,6.70909091 26.0774324,7.00727273 26.0774324,7.45454545 L26.0774324,9.39272727 L27.7165853,9.39272727 L27.7165853,10.7345455 L26.0774324,10.7345455 L26.0774324,12.5236364 L27.7165853,12.5236364 L27.7165853,13.8654545 L26.0774324,13.8654545 L26.0774324,15.6545455 L27.7165853,15.6545455 L27.7165853,16.9963636 L26.0774324,16.9963636 L26.0774324,18.7854545 L27.7165853,18.7854545 L27.7165853,20.1272727 L26.0774324,20.1272727 L26.0774324,21.9163636 L27.7165853,21.9163636 L27.7165853,23.2581818 L26.0774324,23.2581818 L26.0774324,25.1963636 C25.9284185,25.6436364 25.6303907,25.9418182 25.3323629,25.9418182 Z M4.47041698,3.42909091 C4.91745868,3.42909091 5.36450038,3.87636364 5.36450038,4.32363636 C5.36450038,4.92 4.91745868,5.21818182 4.47041698,5.21818182 C3.87436138,5.21818182 3.57633358,4.77090909 3.57633358,4.32363636 C3.57633358,3.87636364 3.87436138,3.42909091 4.47041698,3.42909091 Z M4.47041698,29.2218182 C3.87436138,29.2218182 3.57633358,28.7745455 3.57633358,28.3272727 C3.57633358,27.7309091 4.02337528,27.4327273 4.47041698,27.4327273 C4.91745868,27.4327273 5.36450038,27.88 5.36450038,28.3272727 C5.36450038,28.7745455 4.91745868,29.2218182 4.47041698,29.2218182 Z M28.3126409,29.2218182 C27.8655992,29.2218182 27.4185575,28.7745455 27.4185575,28.3272727 C27.4185575,27.7309091 27.8655992,27.4327273 28.3126409,27.4327273 C28.7596826,27.4327273 29.2067243,27.88 29.2067243,28.3272727 C29.2067243,28.7745455 28.7596826,29.2218182 28.3126409,29.2218182 Z M28.3126409,5.21818182 C27.8655992,5.21818182 27.4185575,4.77090909 27.4185575,4.32363636 C27.4185575,3.87636364 27.8655992,3.42909091 28.3126409,3.42909091 C28.7596826,3.42909091 29.2067243,3.87636364 29.2067243,4.32363636 C29.2067243,4.92 28.7596826,5.21818182 28.3126409,5.21818182 Z"/>
      <path fill="#F6C050" fill-rule="nonzero" d="M16.242515,17.5927273 C16.3915289,17.8909091 16.3915289,18.04 16.242515,18.3381818 L14.0073065,21.9163636 L16.3915289,21.9163636 L20.5639181,15.2072727 L16.9875845,15.2072727 C16.6895567,15.2072727 16.5405428,15.0581818 16.3915289,14.9090909 C16.242515,14.76 16.242515,14.4618182 16.3915289,14.3127273 L18.6267374,10.7345455 L16.242515,10.7345455 L12.0701258,17.4436364 L15.6464594,17.4436364 C15.9444872,17.2945455 16.242515,17.4436364 16.242515,17.5927273 Z"/>
    </g>
    <g fill="#E0E1E6" fill-rule="nonzero">
      <path d="M8.74214876,17.7666667 C8.40065857,18.1766667 7.99087035,18.45 7.44448605,18.655 C8.40065857,22.96 10.4495997,25.83 13.6596074,27.1966667 C16.8013171,25.83 18.9185563,22.96 19.8064308,18.655 C19.3283445,18.5183333 18.9185563,18.245 18.6453642,17.9033333 C16.1866348,19.8166667 12.2936467,20.91 8.74214876,17.7666667 Z"/>
      <path d="M21.1723915 18.86L21.1040935 18.86C19.8064308 24.9416667 16.459827 27.47 13.8645015 28.5633333L13.6596074 28.6316667 13.3864153 28.5633333C10.7910899 27.5383333 7.44448605 25.01 6.14682335 18.86L6.14682335 18.86C2.86851756 18.86.273192149 21.1833333.273192149 24.1216667L.273192149 28.9733333C4.02958419 31.365 8.67385072 32.8 13.6596074 32.8 18.6453642 32.8 23.2896307 31.365 27.1143208 28.905L27.1143208 24.1216667C27.0460227 21.1833333 24.4506973 18.86 21.1723915 18.86zM22.5383523 7.31166667L21.6504778 7.31166667C21.3772856 4.23666667 19.4649406 1.70833333 16.7330191.615L15.5036544 7.31166667 15.3670584 7.92666667 11.9521565 7.92666667 11.8155604 7.31166667 10.5861958.615C7.85427428 1.70833333 5.8736312 4.305 5.66873709 7.31166667L4.7808626 7.31166667 4.7808626 9.08833333 6.89810176 9.08833333C6.89810176 9.15666667 6.96639979 10.045 6.96639979 10.3866667 6.96639979 14.8283333 10.0398115 18.5183333 13.7962035 18.5183333 17.5525956 18.5183333 20.6260072 14.8966667 20.6260072 10.3866667 20.6260072 9.97666667 20.5577092 9.49833333 20.5577092 9.08833333L22.6066503 9.08833333 22.6066503 7.31166667 22.5383523 7.31166667zM19.2600465 10.3866667C19.2600465 14.145 16.8013171 17.22 13.7279055 17.22 10.6544938 17.22 8.19576446 14.145 8.19576446 10.3866667 8.19576446 10.1133333 8.74214876 9.29333333 8.94704287 9.08833333L18.8502583 9.08833333C18.9868543 9.15666667 19.2600465 10.1133333 19.2600465 10.3866667z"/>
      <path d="M14.61578,7.10666667 L15.8451446,0.341666667 C15.1621643,0.136666667 14.4108858,0 13.6596074,0 C12.908329,0 12.1570506,0.136666667 11.4740702,0.341666667 L12.7034349,7.10666667 L14.61578,7.10666667 Z"/>
    </g>
    <g transform="translate(32.182 56)">
      <path fill="#E0E1E6" fill-rule="nonzero" d="M29.0577104,0.298181818 L3.72534748,0.298181818 C1.93718069,0.298181818 0.298027799,1.78909091 0.298027799,3.72727273 L0.298027799,29.0727273 C0.298027799,30.8618182 1.78816679,32.5018182 3.72534748,32.5018182 L29.0577104,32.5018182 C30.8458772,32.5018182 32.4850301,31.0109091 32.4850301,29.0727273 L32.4850301,3.72727273 C32.4850301,1.78909091 30.8458772,0.298181818 29.0577104,0.298181818 Z"/>
      <path fill="#FFF" d="M25.3323629,25.9418182 L23.3951822,25.9418182 L23.3951822,27.7309091 L22.0540571,27.7309091 L22.0540571,25.9418182 L20.2658903,25.9418182 L20.2658903,27.7309091 L18.9247652,27.7309091 L18.9247652,25.9418182 L17.1365984,25.9418182 L17.1365984,27.7309091 L15.7954733,27.7309091 L15.7954733,25.9418182 L14.0073065,25.9418182 L14.0073065,27.7309091 L12.5171675,27.7309091 L12.5171675,25.9418182 L10.7290008,25.9418182 L10.7290008,27.7309091 L9.38787566,27.7309091 L9.38787566,25.9418182 L7.45069497,25.9418182 C7.00365327,25.9418182 6.70562547,25.6436364 6.70562547,25.3454545 L6.70562547,23.4072727 L5.06647258,23.4072727 L5.06647258,22.0654545 L6.85463937,22.0654545 L6.85463937,20.2763636 L5.06647258,20.2763636 L5.06647258,18.9345455 L6.85463937,18.9345455 L6.85463937,17.1454545 L5.06647258,17.1454545 L5.06647258,15.8036364 L6.85463937,15.8036364 L6.85463937,14.0145455 L5.06647258,14.0145455 L5.06647258,12.5236364 L6.85463937,12.5236364 L6.85463937,10.7345455 L5.06647258,10.7345455 L5.06647258,9.39272727 L6.85463937,9.39272727 L6.85463937,7.45454545 C6.85463937,7.00727273 7.15266717,6.70909091 7.59970887,6.70909091 L9.53688956,6.70909091 L9.53688956,5.06909091 L10.8780147,5.06909091 L10.8780147,6.70909091 L12.6661814,6.70909091 L12.6661814,5.06909091 L14.0073065,5.06909091 L14.0073065,6.70909091 L15.7954733,6.70909091 L15.7954733,5.06909091 L17.1365984,5.06909091 L17.1365984,6.70909091 L18.9247652,6.70909091 L18.9247652,5.06909091 L20.2658903,5.06909091 L20.2658903,6.70909091 L22.0540571,6.70909091 L22.0540571,5.06909091 L23.3951822,5.06909091 L23.3951822,6.70909091 L25.3323629,6.70909091 C25.7794046,6.70909091 26.0774324,7.00727273 26.0774324,7.45454545 L26.0774324,9.39272727 L27.7165853,9.39272727 L27.7165853,10.7345455 L26.0774324,10.7345455 L26.0774324,12.5236364 L27.7165853,12.5236364 L27.7165853,13.8654545 L26.0774324,13.8654545 L26.0774324,15.6545455 L27.7165853,15.6545455 L27.7165853,16.9963636 L26.0774324,16.9963636 L26.0774324,18.7854545 L27.7165853,18.7854545 L27.7165853,20.1272727 L26.0774324,20.1272727 L26.0774324,21.9163636 L27.7165853,21.9163636 L27.7165853,23.2581818 L26.0774324,23.2581818 L26.0774324,25.1963636 C25.9284185,25.6436364 25.6303907,25.9418182 25.3323629,25.9418182 Z M4.47041698,3.42909091 C4.91745868,3.42909091 5.36450038,3.87636364 5.36450038,4.32363636 C5.36450038,4.92 4.91745868,5.21818182 4.47041698,5.21818182 C3.87436138,5.21818182 3.57633358,4.77090909 3.57633358,4.32363636 C3.57633358,3.87636364 3.87436138,3.42909091 4.47041698,3.42909091 Z M4.47041698,29.2218182 C3.87436138,29.2218182 3.57633358,28.7745455 3.57633358,28.3272727 C3.57633358,27.7309091 4.02337528,27.4327273 4.47041698,27.4327273 C4.91745868,27.4327273 5.36450038,27.88 5.36450038,28.3272727 C5.36450038,28.7745455 4.91745868,29.2218182 4.47041698,29.2218182 Z M28.3126409,29.2218182 C27.8655992,29.2218182 27.4185575,28.7745455 27.4185575,28.3272727 C27.4185575,27.7309091 27.8655992,27.4327273 28.3126409,27.4327273 C28.7596826,27.4327273 29.2067243,27.88 29.2067243,28.3272727 C29.2067243,28.7745455 28.7596826,29.2218182 28.3126409,29.2218182 Z M28.3126409,5.21818182 C27.8655992,5.21818182 27.4185575,4.77090909 27.4185575,4.32363636 C27.4185575,3.87636364 27.8655992,3.42909091 28.3126409,3.42909091 C28.7596826,3.42909091 29.2067243,3.87636364 29.2067243,4.32363636 C29.2067243,4.92 28.7596826,5.21818182 28.3126409,5.21818182 Z"/>
      <path fill="#F6C050" fill-rule="nonzero" d="M16.242515,17.5927273 C16.3915289,17.8909091 16.3915289,18.04 16.242515,18.3381818 L14.0073065,21.9163636 L16.3915289,21.9163636 L20.5639181,15.2072727 L16.9875845,15.2072727 C16.6895567,15.2072727 16.5405428,15.0581818 16.3915289,14.9090909 C16.242515,14.76 16.242515,14.4618182 16.3915289,14.3127273 L18.6267374,10.7345455 L16.242515,10.7345455 L12.0701258,17.4436364 L15.6464594,17.4436364 C15.9444872,17.2945455 16.242515,17.4436364 16.242515,17.5927273 Z"/>
    </g>
    <g transform="translate(65.764 56)">
      <path fill="#E0E1E6" fill-rule="nonzero" d="M29.0577104,0.298181818 L3.72534748,0.298181818 C1.93718069,0.298181818 0.298027799,1.78909091 0.298027799,3.72727273 L0.298027799,29.0727273 C0.298027799,30.8618182 1.78816679,32.5018182 3.72534748,32.5018182 L29.0577104,32.5018182 C30.8458772,32.5018182 32.4850301,31.0109091 32.4850301,29.0727273 L32.4850301,3.72727273 C32.4850301,1.78909091 30.8458772,0.298181818 29.0577104,0.298181818 Z"/>
      <path fill="#FFF" d="M25.3323629,25.9418182 L23.3951822,25.9418182 L23.3951822,27.7309091 L22.0540571,27.7309091 L22.0540571,25.9418182 L20.2658903,25.9418182 L20.2658903,27.7309091 L18.9247652,27.7309091 L18.9247652,25.9418182 L17.1365984,25.9418182 L17.1365984,27.7309091 L15.7954733,27.7309091 L15.7954733,25.9418182 L14.0073065,25.9418182 L14.0073065,27.7309091 L12.5171675,27.7309091 L12.5171675,25.9418182 L10.7290008,25.9418182 L10.7290008,27.7309091 L9.38787566,27.7309091 L9.38787566,25.9418182 L7.45069497,25.9418182 C7.00365327,25.9418182 6.70562547,25.6436364 6.70562547,25.3454545 L6.70562547,23.4072727 L5.06647258,23.4072727 L5.06647258,22.0654545 L6.85463937,22.0654545 L6.85463937,20.2763636 L5.06647258,20.2763636 L5.06647258,18.9345455 L6.85463937,18.9345455 L6.85463937,17.1454545 L5.06647258,17.1454545 L5.06647258,15.8036364 L6.85463937,15.8036364 L6.85463937,14.0145455 L5.06647258,14.0145455 L5.06647258,12.5236364 L6.85463937,12.5236364 L6.85463937,10.7345455 L5.06647258,10.7345455 L5.06647258,9.39272727 L6.85463937,9.39272727 L6.85463937,7.45454545 C6.85463937,7.00727273 7.15266717,6.70909091 7.59970887,6.70909091 L9.53688956,6.70909091 L9.53688956,5.06909091 L10.8780147,5.06909091 L10.8780147,6.70909091 L12.6661814,6.70909091 L12.6661814,5.06909091 L14.0073065,5.06909091 L14.0073065,6.70909091 L15.7954733,6.70909091 L15.7954733,5.06909091 L17.1365984,5.06909091 L17.1365984,6.70909091 L18.9247652,6.70909091 L18.9247652,5.06909091 L20.2658903,5.06909091 L20.2658903,6.70909091 L22.0540571,6.70909091 L22.0540571,5.06909091 L23.3951822,5.06909091 L23.3951822,6.70909091 L25.3323629,6.70909091 C25.7794046,6.70909091 26.0774324,7.00727273 26.0774324,7.45454545 L26.0774324,9.39272727 L27.7165853,9.39272727 L27.7165853,10.7345455 L26.0774324,10.7345455 L26.0774324,12.5236364 L27.7165853,12.5236364 L27.7165853,13.8654545 L26.0774324,13.8654545 L26.0774324,15.6545455 L27.7165853,15.6545455 L27.7165853,16.9963636 L26.0774324,16.9963636 L26.0774324,18.7854545 L27.7165853,18.7854545 L27.7165853,20.1272727 L26.0774324,20.1272727 L26.0774324,21.9163636 L27.7165853,21.9163636 L27.7165853,23.2581818 L26.0774324,23.2581818 L26.0774324,25.1963636 C25.9284185,25.6436364 25.6303907,25.9418182 25.3323629,25.9418182 Z M4.47041698,3.42909091 C4.91745868,3.42909091 5.36450038,3.87636364 5.36450038,4.32363636 C5.36450038,4.92 4.91745868,5.21818182 4.47041698,5.21818182 C3.87436138,5.21818182 3.57633358,4.77090909 3.57633358,4.32363636 C3.57633358,3.87636364 3.87436138,3.42909091 4.47041698,3.42909091 Z M4.47041698,29.2218182 C3.87436138,29.2218182 3.57633358,28.7745455 3.57633358,28.3272727 C3.57633358,27.7309091 4.02337528,27.4327273 4.47041698,27.4327273 C4.91745868,27.4327273 5.36450038,27.88 5.36450038,28.3272727 C5.36450038,28.7745455 4.91745868,29.2218182 4.47041698,29.2218182 Z M28.3126409,29.2218182 C27.8655992,29.2218182 27.4185575,28.7745455 27.4185575,28.3272727 C27.4185575,27.7309091 27.8655992,27.4327273 28.3126409,27.4327273 C28.7596826,27.4327273 29.2067243,27.88 29.2067243,28.3272727 C29.2067243,28.7745455 28.7596826,29.2218182 28.3126409,29.2218182 Z M28.3126409,5.21818182 C27.8655992,5.21818182 27.4185575,4.77090909 27.4185575,4.32363636 C27.4185575,3.87636364 27.8655992,3.42909091 28.3126409,3.42909091 C28.7596826,3.42909091 29.2067243,3.87636364 29.2067243,4.32363636 C29.2067243,4.92 28.7596826,5.21818182 28.3126409,5.21818182 Z"/>
      <path fill="#F6C050" fill-rule="nonzero" d="M16.242515,17.5927273 C16.3915289,17.8909091 16.3915289,18.04 16.242515,18.3381818 L14.0073065,21.9163636 L16.3915289,21.9163636 L20.5639181,15.2072727 L16.9875845,15.2072727 C16.6895567,15.2072727 16.5405428,15.0581818 16.3915289,14.9090909 C16.242515,14.76 16.242515,14.4618182 16.3915289,14.3127273 L18.6267374,10.7345455 L16.242515,10.7345455 L12.0701258,17.4436364 L15.6464594,17.4436364 C15.9444872,17.2945455 16.242515,17.4436364 16.242515,17.5927273 Z"/>
    </g>
    <g transform="translate(99.347 56)">
      <path fill="#E0E1E6" fill-rule="nonzero" d="M29.0577104,0.298181818 L3.72534748,0.298181818 C1.93718069,0.298181818 0.298027799,1.78909091 0.298027799,3.72727273 L0.298027799,29.0727273 C0.298027799,30.8618182 1.78816679,32.5018182 3.72534748,32.5018182 L29.0577104,32.5018182 C30.8458772,32.5018182 32.4850301,31.0109091 32.4850301,29.0727273 L32.4850301,3.72727273 C32.4850301,1.78909091 30.8458772,0.298181818 29.0577104,0.298181818 Z"/>
      <path fill="#FFF" d="M25.3323629,25.9418182 L23.3951822,25.9418182 L23.3951822,27.7309091 L22.0540571,27.7309091 L22.0540571,25.9418182 L20.2658903,25.9418182 L20.2658903,27.7309091 L18.9247652,27.7309091 L18.9247652,25.9418182 L17.1365984,25.9418182 L17.1365984,27.7309091 L15.7954733,27.7309091 L15.7954733,25.9418182 L14.0073065,25.9418182 L14.0073065,27.7309091 L12.5171675,27.7309091 L12.5171675,25.9418182 L10.7290008,25.9418182 L10.7290008,27.7309091 L9.38787566,27.7309091 L9.38787566,25.9418182 L7.45069497,25.9418182 C7.00365327,25.9418182 6.70562547,25.6436364 6.70562547,25.3454545 L6.70562547,23.4072727 L5.06647258,23.4072727 L5.06647258,22.0654545 L6.85463937,22.0654545 L6.85463937,20.2763636 L5.06647258,20.2763636 L5.06647258,18.9345455 L6.85463937,18.9345455 L6.85463937,17.1454545 L5.06647258,17.1454545 L5.06647258,15.8036364 L6.85463937,15.8036364 L6.85463937,14.0145455 L5.06647258,14.0145455 L5.06647258,12.5236364 L6.85463937,12.5236364 L6.85463937,10.7345455 L5.06647258,10.7345455 L5.06647258,9.39272727 L6.85463937,9.39272727 L6.85463937,7.45454545 C6.85463937,7.00727273 7.15266717,6.70909091 7.59970887,6.70909091 L9.53688956,6.70909091 L9.53688956,5.06909091 L10.8780147,5.06909091 L10.8780147,6.70909091 L12.6661814,6.70909091 L12.6661814,5.06909091 L14.0073065,5.06909091 L14.0073065,6.70909091 L15.7954733,6.70909091 L15.7954733,5.06909091 L17.1365984,5.06909091 L17.1365984,6.70909091 L18.9247652,6.70909091 L18.9247652,5.06909091 L20.2658903,5.06909091 L20.2658903,6.70909091 L22.0540571,6.70909091 L22.0540571,5.06909091 L23.3951822,5.06909091 L23.3951822,6.70909091 L25.3323629,6.70909091 C25.7794046,6.70909091 26.0774324,7.00727273 26.0774324,7.45454545 L26.0774324,9.39272727 L27.7165853,9.39272727 L27.7165853,10.7345455 L26.0774324,10.7345455 L26.0774324,12.5236364 L27.7165853,12.5236364 L27.7165853,13.8654545 L26.0774324,13.8654545 L26.0774324,15.6545455 L27.7165853,15.6545455 L27.7165853,16.9963636 L26.0774324,16.9963636 L26.0774324,18.7854545 L27.7165853,18.7854545 L27.7165853,20.1272727 L26.0774324,20.1272727 L26.0774324,21.9163636 L27.7165853,21.9163636 L27.7165853,23.2581818 L26.0774324,23.2581818 L26.0774324,25.1963636 C25.9284185,25.6436364 25.6303907,25.9418182 25.3323629,25.9418182 Z M4.47041698,3.42909091 C4.91745868,3.42909091 5.36450038,3.87636364 5.36450038,4.32363636 C5.36450038,4.92 4.91745868,5.21818182 4.47041698,5.21818182 C3.87436138,5.21818182 3.57633358,4.77090909 3.57633358,4.32363636 C3.57633358,3.87636364 3.87436138,3.42909091 4.47041698,3.42909091 Z M4.47041698,29.2218182 C3.87436138,29.2218182 3.57633358,28.7745455 3.57633358,28.3272727 C3.57633358,27.7309091 4.02337528,27.4327273 4.47041698,27.4327273 C4.91745868,27.4327273 5.36450038,27.88 5.36450038,28.3272727 C5.36450038,28.7745455 4.91745868,29.2218182 4.47041698,29.2218182 Z M28.3126409,29.2218182 C27.8655992,29.2218182 27.4185575,28.7745455 27.4185575,28.3272727 C27.4185575,27.7309091 27.8655992,27.4327273 28.3126409,27.4327273 C28.7596826,27.4327273 29.2067243,27.88 29.2067243,28.3272727 C29.2067243,28.7745455 28.7596826,29.2218182 28.3126409,29.2218182 Z M28.3126409,5.21818182 C27.8655992,5.21818182 27.4185575,4.77090909 27.4185575,4.32363636 C27.4185575,3.87636364 27.8655992,3.42909091 28.3126409,3.42909091 C28.7596826,3.42909091 29.2067243,3.87636364 29.2067243,4.32363636 C29.2067243,4.92 28.7596826,5.21818182 28.3126409,5.21818182 Z"/>
      <path fill="#F6C050" fill-rule="nonzero" d="M16.242515,17.5927273 C16.3915289,17.8909091 16.3915289,18.04 16.242515,18.3381818 L14.0073065,21.9163636 L16.3915289,21.9163636 L20.5639181,15.2072727 L16.9875845,15.2072727 C16.6895567,15.2072727 16.5405428,15.0581818 16.3915289,14.9090909 C16.242515,14.76 16.242515,14.4618182 16.3915289,14.3127273 L18.6267374,10.7345455 L16.242515,10.7345455 L12.0701258,17.4436364 L15.6464594,17.4436364 C15.9444872,17.2945455 16.242515,17.4436364 16.242515,17.5927273 Z"/>
    </g>
    <g fill="#E0E1E6" fill-rule="nonzero" transform="translate(0 56)">
      <path d="M8.74214876,17.7666667 C8.40065857,18.1766667 7.99087035,18.45 7.44448605,18.655 C8.40065857,22.96 10.4495997,25.83 13.6596074,27.1966667 C16.8013171,25.83 18.9185563,22.96 19.8064308,18.655 C19.3283445,18.5183333 18.9185563,18.245 18.6453642,17.9033333 C16.1866348,19.8166667 12.2936467,20.91 8.74214876,17.7666667 Z"/>
      <path d="M21.1723915 18.86L21.1040935 18.86C19.8064308 24.9416667 16.459827 27.47 13.8645015 28.5633333L13.6596074 28.6316667 13.3864153 28.5633333C10.7910899 27.5383333 7.44448605 25.01 6.14682335 18.86L6.14682335 18.86C2.86851756 18.86.273192149 21.1833333.273192149 24.1216667L.273192149 28.9733333C4.02958419 31.365 8.67385072 32.8 13.6596074 32.8 18.6453642 32.8 23.2896307 31.365 27.1143208 28.905L27.1143208 24.1216667C27.0460227 21.1833333 24.4506973 18.86 21.1723915 18.86zM22.5383523 7.31166667L21.6504778 7.31166667C21.3772856 4.23666667 19.4649406 1.70833333 16.7330191.615L15.5036544 7.31166667 15.3670584 7.92666667 11.9521565 7.92666667 11.8155604 7.31166667 10.5861958.615C7.85427428 1.70833333 5.8736312 4.305 5.66873709 7.31166667L4.7808626 7.31166667 4.7808626 9.08833333 6.89810176 9.08833333C6.89810176 9.15666667 6.96639979 10.045 6.96639979 10.3866667 6.96639979 14.8283333 10.0398115 18.5183333 13.7962035 18.5183333 17.5525956 18.5183333 20.6260072 14.8966667 20.6260072 10.3866667 20.6260072 9.97666667 20.5577092 9.49833333 20.5577092 9.08833333L22.6066503 9.08833333 22.6066503 7.31166667 22.5383523 7.31166667zM19.2600465 10.3866667C19.2600465 14.145 16.8013171 17.22 13.7279055 17.22 10.6544938 17.22 8.19576446 14.145 8.19576446 10.3866667 8.19576446 10.1133333 8.74214876 9.29333333 8.94704287 9.08833333L18.8502583 9.08833333C18.9868543 9.15666667 19.2600465 10.1133333 19.2600465 10.3866667z"/>
      <path d="M14.61578,7.10666667 L15.8451446,0.341666667 C15.1621643,0.136666667 14.4108858,0 13.6596074,0 C12.908329,0 12.1570506,0.136666667 11.4740702,0.341666667 L12.7034349,7.10666667 L14.61578,7.10666667 Z"/>
    </g>
    <g fill="#E0E1E6" fill-rule="nonzero" transform="matrix(-1 0 0 1 173.386 2)">
      <path d="M18.3347421.334167738C18.2515154.131936777 18.0537167 0 17.8353817 0 13.7367351 0 10.3179537 2.98155487 9.18304361 4.09652878L8.48912718 3.40331997C8.27835817 3.19243742 7.93572343 3.19243742 7.72495442 3.40331997L3.40148755 7.72911593C3.19071854 7.93999849 3.19071854 8.28281782 3.40148755 8.49370037L4.09432312 9.18799062C2.97994953 10.3235121 0 13.7430538 0 17.8449898 0 18.0634425.131865739 18.2613477.333987815 18.3446192.401001551 18.3727369.471257888 18.3857143.540433358 18.3857143.680946031 18.3857143.81929697 18.3305604.923060175 18.2278227L7.02563365 12.1219617 7.72387355 12.8205778C7.93464256 13.0314603 8.27727731 13.0314603 8.48804632 12.8205778L12.8115132 8.49478182C13.0222822 8.28389927 13.0222822 7.94107994 12.8115132 7.73019738L12.1132733 7.03158134 18.2158468.925720336C18.3725724.768910232 18.4190497.536398699 18.3347421.334167738zM26.2271679 22.8370683L13.297656 9.9 10.3660714 12.8332979 23.2955833 25.7703662C23.3973819 25.8722244 23.5349184 25.9285714 23.6789527 25.9285714 25.1712776 25.9285714 26.3863636 24.7127752 26.3863636 23.2195782 26.3852807 23.0754597 26.3278836 22.9378428 26.2271679 22.8370683zM3.57587339 6.6L6.59659091 3.56469239 6.33770415 3.3045552C5.70610972 2.66991017 4.60249331 2.66991017 3.97089888 3.3045552L3.31698663 3.96162586C3.00118942 4.27894837 2.82711039 4.7016713 2.82711039 5.15130498 2.82711039 5.60093865 3.00118942 6.0225403 3.31698663 6.34098409L3.57587339 6.6z"/>
    </g>
    <path fill="#4F77FC" d="M200.147243,16.2442827 C200.147243,17.1231889 200.325954,17.8028764 200.683376,18.2833452 C201.040798,18.7638139 201.463651,19.0040483 201.951931,19.0040483 C202.44021,19.0040483 202.862085,18.7638139 203.217556,18.2833452 C203.573026,17.8028764 203.750759,17.1231889 203.750759,16.2442827 C203.750759,15.3653764 203.573026,14.6856889 203.217556,14.2052202 C202.862085,13.7247514 202.44021,13.484517 201.951931,13.484517 C201.463651,13.484517 201.040798,13.7247514 200.683376,14.2052202 C200.325954,14.6856889 200.147243,15.3653764 200.147243,16.2442827 Z M205.549587,16.2442827 C205.549587,17.5567827 205.199975,18.6153783 204.500759,19.4200639 C203.801542,20.2247495 202.951932,20.6270952 201.951931,20.6270952 C200.951929,20.6270952 200.101341,20.2247495 199.400167,19.4200639 C198.698993,18.6153783 198.348409,17.5567827 198.348409,16.2442827 C198.348409,14.9317827 198.698993,13.8741655 199.400167,13.0714311 C200.101341,12.2686967 200.951929,11.8673295 201.951931,11.8673295 C202.951932,11.8673295 203.801542,12.2686967 204.500759,13.0714311 C205.199975,13.8741655 205.549587,14.9317827 205.549587,16.2442827 Z M206.387477,19.663228 C206.387477,19.9034624 206.481227,20.1134214 206.668727,20.2931108 C206.856227,20.4728002 207.082792,20.562642 207.348415,20.562642 C207.614038,20.562642 207.840602,20.4728002 208.028102,20.2931108 C208.215602,20.1134214 208.309352,19.9034624 208.309352,19.663228 C208.309352,19.4229936 208.215602,19.2130346 208.028102,19.0333452 C207.840602,18.8536558 207.614038,18.7638139 207.348415,18.7638139 C207.082792,18.7638139 206.856227,18.8536558 206.668727,19.0333452 C206.481227,19.2130346 206.387477,19.4229936 206.387477,19.663228 Z M210.946071,16.2442827 C210.946071,17.1231889 211.124782,17.8028764 211.482204,18.2833452 C211.839626,18.7638139 212.262479,19.0040483 212.750759,19.0040483 C213.239038,19.0040483 213.660913,18.7638139 214.016384,18.2833452 C214.371854,17.8028764 214.549587,17.1231889 214.549587,16.2442827 C214.549587,15.3653764 214.371854,14.6856889 214.016384,14.2052202 C213.660913,13.7247514 213.239038,13.484517 212.750759,13.484517 C212.262479,13.484517 211.839626,13.7247514 211.482204,14.2052202 C211.124782,14.6856889 210.946071,15.3653764 210.946071,16.2442827 Z M216.348415,16.2442827 C216.348415,17.5567827 215.998804,18.6153783 215.299587,19.4200639 C214.60037,20.2247495 213.750761,20.6270952 212.750759,20.6270952 C211.750757,20.6270952 210.900169,20.2247495 210.198995,19.4200639 C209.497821,18.6153783 209.147237,17.5567827 209.147237,16.2442827 C209.147237,14.9317827 209.497821,13.8741655 210.198995,13.0714311 C210.900169,12.2686967 211.750757,11.8673295 212.750759,11.8673295 C213.750761,11.8673295 214.60037,12.2686967 215.299587,13.0714311 C215.998804,13.8741655 216.348415,14.9317827 216.348415,16.2442827 Z M217.186306,19.663228 C217.186306,19.9034624 217.280056,20.1134214 217.467556,20.2931108 C217.655056,20.4728002 217.88162,20.562642 218.147243,20.562642 C218.412866,20.562642 218.639431,20.4728002 218.826931,20.2931108 C219.014431,20.1134214 219.108181,19.9034624 219.108181,19.663228 C219.108181,19.4229936 219.014431,19.2130346 218.826931,19.0333452 C218.639431,18.8536558 218.412866,18.7638139 218.147243,18.7638139 C217.88162,18.7638139 217.655056,18.8536558 217.467556,19.0333452 C217.280056,19.2130346 217.186306,19.4229936 217.186306,19.663228 Z M220.42654,19.663228 C220.42654,19.9034624 220.52029,20.1134214 220.70779,20.2931108 C220.89529,20.4728002 221.121854,20.562642 221.387477,20.562642 C221.6531,20.562642 221.879665,20.4728002 222.067165,20.2931108 C222.254665,20.1134214 222.348415,19.9034624 222.348415,19.663228 C222.348415,19.4229936 222.254665,19.2130346 222.067165,19.0333452 C221.879665,18.8536558 221.6531,18.7638139 221.387477,18.7638139 C221.121854,18.7638139 220.89529,18.8536558 220.70779,19.0333452 C220.52029,19.2130346 220.42654,19.4229936 220.42654,19.663228 Z M223.666774,19.663228 C223.666774,19.9034624 223.760524,20.1134214 223.948024,20.2931108 C224.135524,20.4728002 224.362089,20.562642 224.627712,20.562642 C224.893335,20.562642 225.119899,20.4728002 225.307399,20.2931108 C225.494899,20.1134214 225.588649,19.9034624 225.588649,19.663228 C225.588649,19.4229936 225.494899,19.2130346 225.307399,19.0333452 C225.119899,18.8536558 224.893335,18.7638139 224.627712,18.7638139 C224.362089,18.7638139 224.135524,18.8536558 223.948024,19.0333452 C223.760524,19.2130346 223.666774,19.4229936 223.666774,19.663228 Z" opacity=".8"/>
    <g transform="translate(195.91 56.8)">
      <ellipse cx="16.364" cy="16" fill="#4F77FC" rx="16.364" ry="16"/>
      <ellipse cx="16.364" cy="16" fill="#002EFF" rx="10.303" ry="10.074"/>
      <path fill="#FFF" fill-rule="nonzero" d="M1.945916,1.33768047 L1.945916,0 L2.91891454,0 L2.91891454,1.33768047 L3.56758024,1.33768047 L3.56758024,0 L4.54065986,0 L4.54065986,1.36725907 C8.07199591,1.64904667 7.32830069,4.79220824 5.77571935,5.04331002 L5.77571935,5.09685204 C8.11221318,5.60989054 7.72341918,9.15378682 4.54065986,9.31156573 L4.54065986,10.2716049 L3.56758024,10.2716049 L3.56758024,9.3185254 L2.91891454,9.3185254 L2.91891454,10.2716049 L1.945916,10.2716049 L1.945916,9.3185254 C1.29733139,9.3185254 0.648665695,9.3185254 0,9.3185254 L0,7.89495626 L0.810832119,7.89495626 C1.0340542,7.89495626 1.21624818,7.71740556 1.21624818,7.49959948 L1.21624818,2.99155146 C1.21624818,2.77374538 1.03413528,2.59619467 0.810832119,2.59619467 L0,2.59619467 L0,1.33768047 L1.945916,1.33768047 L1.945916,1.33768047 Z M2.91891454,4.49428685 L3.91826513,4.49428685 C4.38384493,4.49428685 4.73736774,4.39637693 4.94672459,4.25504815 C5.36778971,3.97065067 5.38433068,3.17266108 4.91826438,2.9018666 C4.42860287,2.61731095 3.55687725,2.67528185 2.91891454,2.67528185 L2.91891454,4.49428685 L2.91891454,4.49428685 Z M2.91891454,5.75960256 L2.91891454,7.89495626 L4.03940345,7.89495626 C4.5143889,7.89495626 4.87772278,7.7652533 5.10378277,7.58912616 C5.9295342,6.94535656 5.3842496,5.75960256 3.98442903,5.75960256 L2.91891454,5.75960256 L2.91891454,5.75960256 Z" transform="translate(12.727 10.667)"/>
      <g stroke="#002EFF" stroke-linecap="square" stroke-width="2" transform="translate(1.818 1.778)">
        <path d="M26.969697 14.2222222L28.1818182 14.2222222M.303030303 14.2222222L1.51515152 14.2222222"/>
        <path d="M13.9393939,26.962963 L15.1515152,26.962963" transform="rotate(90 14.545 26.963)"/>
        <path d="M13.9393939,0.888888889 L15.1515152,0.888888889" transform="rotate(90 14.545 .889)"/>
        <path d="M23.1532096,23.2312864 L24.3653308,23.2312864" transform="rotate(45 23.76 23.231)"/>
        <path d="M4.29702874,4.79413181 L5.50914995,4.79413181" transform="rotate(45 4.903 4.794)"/>
        <path d="M4.72557831,23.2312864 L5.93769952,23.2312864" transform="rotate(135 5.332 23.231)"/>
        <path d="M23.5817591,4.79413181 L24.7938803,4.79413181" transform="rotate(135 24.188 4.794)"/>
        <path d="M25.9778242,19.0978926 L27.1899454,19.0978926" transform="rotate(22.5 26.584 19.098)"/>
        <path d="M1.34103668,9.11977646 L2.55315789,9.11977646" transform="rotate(22.5 1.947 9.12)"/>
        <path d="M8.95291285,25.9931318 L10.1650341,25.9931318" transform="rotate(112.5 9.559 25.993)"/>
        <path d="M19.1578044,1.90382846 L20.3699256,1.90382846" transform="rotate(112.5 19.764 1.904)"/>
        <path d="M18.925875,25.9931318 L20.1379962,25.9931318" transform="rotate(67.5 19.532 25.993)"/>
        <path d="M8.7209835,1.90382846 L9.93310471,1.90382846" transform="rotate(67.5 9.327 1.904)"/>
        <path d="M1.90096367,19.0978926 L3.11308488,19.0978926" transform="rotate(157.5 2.507 19.098)"/>
        <path d="M26.5377512,9.11977646 L27.7498724,9.11977646" transform="rotate(157.5 27.144 9.12)"/>
      </g>
    </g>
    <path fill="#E0E1E6" fill-rule="nonzero" d="M140.320166,21.4353617 L140.320166,21.4353617 L140.320166,21.4353617 C140.719174,21.7036519 141.253752,21.6436351 141.583335,21.2935465 L145.727273,16.8917833 L141.633763,12.3239797 L141.633763,12.3239797 C141.31259,11.9655948 140.778715,11.893462 140.373951,12.1537643 L140.373951,12.1537643 L140.373951,12.1537643 C140.047952,12.3634126 139.953632,12.7976399 140.16328,13.1236382 C140.185198,13.1577192 140.210025,13.1898379 140.237485,13.2196345 L143.60285,16.8713614 L140.208694,20.3717641 L140.208694,20.3717641 C139.940727,20.648119 139.947527,21.0893788 140.223882,21.3573456 C140.253597,21.3861582 140.285819,21.4122668 140.320166,21.4353617 Z"/>
    <rect width="1.636" height="1.6" x="176.636" y="16" fill="#E0E1E6"/>
    <rect width="1.636" height="1.6" x="179.909" y="16" fill="#E0E1E6"/>
    <rect width="1.636" height="1.6" x="183.182" y="16" fill="#E0E1E6"/>
    <path fill="#E0E1E6" fill-rule="nonzero" d="M187.592893,21.4353617 L187.592893,21.4353617 L187.592893,21.4353617 C187.991901,21.7036519 188.526479,21.6436351 188.856062,21.2935465 L193,16.8917833 L188.90649,12.3239797 L188.90649,12.3239797 C188.585317,11.9655948 188.051442,11.893462 187.646678,12.1537643 L187.646678,12.1537643 L187.646678,12.1537643 C187.32068,12.3634126 187.226359,12.7976399 187.436008,13.1236382 C187.457925,13.1577192 187.482753,13.1898379 187.510213,13.2196345 L190.875577,16.8713614 L187.481421,20.3717641 L187.481421,20.3717641 C187.213455,20.648119 187.220255,21.0893788 187.496609,21.3573456 C187.526324,21.3861582 187.558546,21.4122668 187.592893,21.4353617 Z"/>
    <rect width="1.636" height="1.6" x="176.636" y="72" fill="#E0E1E6"/>
    <rect width="1.636" height="1.6" x="179.909" y="72" fill="#E0E1E6"/>
    <rect width="1.636" height="1.6" x="183.182" y="72" fill="#E0E1E6"/>
    <path fill="#E0E1E6" fill-rule="nonzero" d="M187.592893,77.4353617 L187.592893,77.4353617 L187.592893,77.4353617 C187.991901,77.7036519 188.526479,77.6436351 188.856062,77.2935465 L193,72.8917833 L188.90649,68.3239797 L188.90649,68.3239797 C188.585317,67.9655948 188.051442,67.893462 187.646678,68.1537643 L187.646678,68.1537643 L187.646678,68.1537643 C187.32068,68.3634126 187.226359,68.7976399 187.436008,69.1236382 C187.457925,69.1577192 187.482753,69.1898379 187.510213,69.2196345 L190.875577,72.8713614 L187.481421,76.3717641 L187.481421,76.3717641 C187.213455,76.648119 187.220255,77.0893788 187.496609,77.3573456 C187.526324,77.3861582 187.558546,77.4122668 187.592893,77.4353617 Z"/>
    <g fill="#E0E1E6" transform="translate(127.818 72)">
      <rect width="1.636" height="1.6" x=".545"/>
      <rect width="1.636" height="1.6" x="3.818"/>
      <rect width="1.636" height="1.6" x="7.091"/>
    </g>
    <g fill="#E0E1E6" fill-rule="nonzero" transform="matrix(-1 0 0 1 174 58)">
      <path d="M18.7611314.334167738C18.6759692.131936777 18.4735706 0 18.250158 0 14.056194 0 10.5579061 2.98155487 9.39660277 4.09652878L8.68654875 3.40331997C8.47087813 3.19243742 8.12027513 3.19243742 7.90460452 3.40331997L3.48059192 7.72911593C3.2649213 7.93999849 3.2649213 8.28281782 3.48059192 8.49370037L4.18953993 9.18799062C3.04925069 10.3235121 0 13.7430538 0 17.8449898 0 18.0634425.134932384 18.2613477.341754974 18.3446192.410327169 18.3727369.482217374 18.3857143.553001575 18.3857143.696781985 18.3857143.838350388 18.3305604.944526691 18.2278227L7.18902048 12.1219617 7.90349852 12.8205778C8.11916913 13.0314603 8.46977213 13.0314603 8.68544274 12.8205778L13.1094553 8.49478182C13.325126 8.28389927 13.325126 7.94107994 13.1094553 7.73019738L12.3949773 7.03158134 18.6394711.925720336C18.7998416.768910232 18.8473997.536398699 18.7611314.334167738zM26.837102 22.8370683L13.6069038 9.9 10.6071429 12.8332979 23.837341 25.7703662C23.9415071 25.8722244 24.0822421 25.9285714 24.229626 25.9285714 25.7566561 25.9285714 27 24.7127752 27 23.2195782 26.9988919 23.0754597 26.9401599 22.9378428 26.837102 22.8370683zM3.65903324 6.6L6.75 3.56469239 6.48509262 3.3045552C5.83880995 2.66991017 4.70952804 2.66991017 4.06324537 3.3045552L3.39412586 3.96162586C3.07098452 4.27894837 2.89285714 4.7016713 2.89285714 5.15130498 2.89285714 5.60093865 3.07098452 6.0225403 3.39412586 6.34098409L3.65903324 6.6z"/>
    </g>
    <path fill="#E0E1E6" fill-rule="nonzero" d="M139.320166,77.4353617 L139.320166,77.4353617 L139.320166,77.4353617 C139.719174,77.7036519 140.253752,77.6436351 140.583335,77.2935465 L144.727273,72.8917833 L140.633763,68.3239797 L140.633763,68.3239797 C140.31259,67.9655948 139.778715,67.893462 139.373951,68.1537643 L139.373951,68.1537643 L139.373951,68.1537643 C139.047952,68.3634126 138.953632,68.7976399 139.16328,69.1236382 C139.185198,69.1577192 139.210025,69.1898379 139.237485,69.2196345 L142.60285,72.8713614 L139.208694,76.3717641 L139.208694,76.3717641 C138.940727,76.648119 138.947527,77.0893788 139.223882,77.3573456 C139.253597,77.3861582 139.285819,77.4122668 139.320166,77.4353617 Z"/>
  </g>
</svg>
