<svg xmlns="http://www.w3.org/2000/svg" width="100%" viewBox="0 0 440 111">
  <g fill="none" fill-rule="evenodd">
    <g fill="#E0E1E6" transform="translate(93 20)">
      <rect width="2" height="2"/>
      <rect width="2" height="2" x="4"/>
      <rect width="2" height="2" x="8"/>
      <rect width="2" height="2" x="12"/>
      <rect width="2" height="2" x="16"/>
      <rect width="2" height="2" x="20"/>
      <rect width="2" height="2" x="24"/>
      <rect width="2" height="2" x="28"/>
      <rect width="2" height="2" x="32"/>
      <rect width="2" height="2" x="36"/>
      <rect width="2" height="2" x="40"/>
      <rect width="2" height="2" x="44"/>
      <rect width="2" height="2" x="48"/>
      <rect width="2" height="2" x="52"/>
      <rect width="2" height="2" x="56"/>
      <rect width="2" height="2" x="60"/>
      <rect width="2" height="2" x="64"/>
    </g>
    <g fill="#E0E1E6" transform="translate(162 20)">
      <rect width="2" height="2"/>
      <rect width="2" height="2" x="4"/>
      <rect width="2" height="2" x="8"/>
      <rect width="2" height="2" x="12"/>
      <rect width="2" height="2" x="16"/>
      <rect width="2" height="2" x="20"/>
      <rect width="2" height="2" x="24"/>
      <rect width="2" height="2" x="28"/>
      <rect width="2" height="2" x="32"/>
      <rect width="2" height="2" x="36"/>
      <rect width="2" height="2" x="40"/>
      <rect width="2" height="2" x="44"/>
      <rect width="2" height="2" x="48"/>
      <rect width="2" height="2" x="52"/>
      <rect width="2" height="2" x="56"/>
      <rect width="2" height="2" x="60"/>
      <rect width="2" height="2" x="64"/>
    </g>
    <g transform="translate(44)">
      <path fill="#E0E1E6" fill-rule="nonzero" d="M36.3409091,0.372727273 L4.65909091,0.372727273 C2.42272727,0.372727273 0.372727273,2.23636364 0.372727273,4.65909091 L0.372727273,36.3409091 C0.372727273,38.5772727 2.23636364,40.6272727 4.65909091,40.6272727 L36.3409091,40.6272727 C38.5772727,40.6272727 40.6272727,38.7636364 40.6272727,36.3409091 L40.6272727,4.65909091 C40.6272727,2.23636364 38.5772727,0.372727273 36.3409091,0.372727273 Z"/>
      <path fill="#FFF" d="M31.6818182,32.4272727 L29.2590909,32.4272727 L29.2590909,34.6636364 L27.5818182,34.6636364 L27.5818182,32.4272727 L25.3454545,32.4272727 L25.3454545,34.6636364 L23.6681818,34.6636364 L23.6681818,32.4272727 L21.4318182,32.4272727 L21.4318182,34.6636364 L19.7545455,34.6636364 L19.7545455,32.4272727 L17.5181818,32.4272727 L17.5181818,34.6636364 L15.6545455,34.6636364 L15.6545455,32.4272727 L13.4181818,32.4272727 L13.4181818,34.6636364 L11.7409091,34.6636364 L11.7409091,32.4272727 L9.31818182,32.4272727 C8.75909091,32.4272727 8.38636364,32.0545455 8.38636364,31.6818182 L8.38636364,29.2590909 L6.33636364,29.2590909 L6.33636364,27.5818182 L8.57272727,27.5818182 L8.57272727,25.3454545 L6.33636364,25.3454545 L6.33636364,23.6681818 L8.57272727,23.6681818 L8.57272727,21.4318182 L6.33636364,21.4318182 L6.33636364,19.7545455 L8.57272727,19.7545455 L8.57272727,17.5181818 L6.33636364,17.5181818 L6.33636364,15.6545455 L8.57272727,15.6545455 L8.57272727,13.4181818 L6.33636364,13.4181818 L6.33636364,11.7409091 L8.57272727,11.7409091 L8.57272727,9.31818182 C8.57272727,8.75909091 8.94545455,8.38636364 9.50454545,8.38636364 L11.9272727,8.38636364 L11.9272727,6.33636364 L13.6045455,6.33636364 L13.6045455,8.38636364 L15.8409091,8.38636364 L15.8409091,6.33636364 L17.5181818,6.33636364 L17.5181818,8.38636364 L19.7545455,8.38636364 L19.7545455,6.33636364 L21.4318182,6.33636364 L21.4318182,8.38636364 L23.6681818,8.38636364 L23.6681818,6.33636364 L25.3454545,6.33636364 L25.3454545,8.38636364 L27.5818182,8.38636364 L27.5818182,6.33636364 L29.2590909,6.33636364 L29.2590909,8.38636364 L31.6818182,8.38636364 C32.2409091,8.38636364 32.6136364,8.75909091 32.6136364,9.31818182 L32.6136364,11.7409091 L34.6636364,11.7409091 L34.6636364,13.4181818 L32.6136364,13.4181818 L32.6136364,15.6545455 L34.6636364,15.6545455 L34.6636364,17.3318182 L32.6136364,17.3318182 L32.6136364,19.5681818 L34.6636364,19.5681818 L34.6636364,21.2454545 L32.6136364,21.2454545 L32.6136364,23.4818182 L34.6636364,23.4818182 L34.6636364,25.1590909 L32.6136364,25.1590909 L32.6136364,27.3954545 L34.6636364,27.3954545 L34.6636364,29.0727273 L32.6136364,29.0727273 L32.6136364,31.4954545 C32.4272727,32.0545455 32.0545455,32.4272727 31.6818182,32.4272727 Z M5.59090909,4.28636364 C6.15,4.28636364 6.70909091,4.84545455 6.70909091,5.40454545 C6.70909091,6.15 6.15,6.52272727 5.59090909,6.52272727 C4.84545455,6.52272727 4.47272727,5.96363636 4.47272727,5.40454545 C4.47272727,4.84545455 4.84545455,4.28636364 5.59090909,4.28636364 Z M5.59090909,36.5272727 C4.84545455,36.5272727 4.47272727,35.9681818 4.47272727,35.4090909 C4.47272727,34.6636364 5.03181818,34.2909091 5.59090909,34.2909091 C6.15,34.2909091 6.70909091,34.85 6.70909091,35.4090909 C6.70909091,35.9681818 6.15,36.5272727 5.59090909,36.5272727 Z M35.4090909,36.5272727 C34.85,36.5272727 34.2909091,35.9681818 34.2909091,35.4090909 C34.2909091,34.6636364 34.85,34.2909091 35.4090909,34.2909091 C35.9681818,34.2909091 36.5272727,34.85 36.5272727,35.4090909 C36.5272727,35.9681818 35.9681818,36.5272727 35.4090909,36.5272727 Z M35.4090909,6.52272727 C34.85,6.52272727 34.2909091,5.96363636 34.2909091,5.40454545 C34.2909091,4.84545455 34.85,4.28636364 35.4090909,4.28636364 C35.9681818,4.28636364 36.5272727,4.84545455 36.5272727,5.40454545 C36.5272727,6.15 35.9681818,6.52272727 35.4090909,6.52272727 Z"/>
      <path fill="#F6C050" fill-rule="nonzero" d="M20.3136364,21.9909091 C20.5,22.3636364 20.5,22.55 20.3136364,22.9227273 L17.5181818,27.3954545 L20.5,27.3954545 L25.7181818,19.0090909 L21.2454545,19.0090909 C20.8727273,19.0090909 20.6863636,18.8227273 20.5,18.6363636 C20.3136364,18.45 20.3136364,18.0772727 20.5,17.8909091 L23.2954545,13.4181818 L20.3136364,13.4181818 L15.0954545,21.8045455 L19.5681818,21.8045455 C19.9409091,21.6181818 20.3136364,21.8045455 20.3136364,21.9909091 Z"/>
    </g>
    <g fill="#E0E1E6" fill-rule="nonzero">
      <path d="M10.9333333,22.2083333 C10.50625,22.7208333 9.99375,23.0625 9.31041667,23.31875 C10.50625,28.7 13.06875,32.2875 17.0833333,33.9958333 C21.0125,32.2875 23.6604167,28.7 24.7708333,23.31875 C24.1729167,23.1479167 23.6604167,22.80625 23.31875,22.3791667 C20.24375,24.7708333 15.375,26.1375 10.9333333,22.2083333 Z"/>
      <path d="M26.4791667 23.575L26.39375 23.575C24.7708333 31.1770833 20.5854167 34.3375 17.3395833 35.7041667L17.0833333 35.7895833 16.7416667 35.7041667C13.4958333 34.4229167 9.31041667 31.2625 7.6875 23.575L7.6875 23.575C3.5875 23.575.341666667 26.4791667.341666667 30.1520833L.341666667 36.2166667C5.03958333 39.20625 10.8479167 41 17.0833333 41 23.31875 41 29.1270833 39.20625 33.9104167 36.13125L33.9104167 30.1520833C33.825 26.4791667 30.5791667 23.575 26.4791667 23.575zM28.1875 9.13958333L27.0770833 9.13958333C26.7354167 5.29583333 24.34375 2.13541667 20.9270833.76875L19.3895833 9.13958333 19.21875 9.90833333 14.9479167 9.90833333 14.7770833 9.13958333 13.2395833.76875C9.82291667 2.13541667 7.34583333 5.38125 7.08958333 9.13958333L5.97916667 9.13958333 5.97916667 11.3604167 8.62708333 11.3604167C8.62708333 11.4458333 8.7125 12.55625 8.7125 12.9833333 8.7125 18.5354167 12.55625 23.1479167 17.2541667 23.1479167 21.9520833 23.1479167 25.7958333 18.6208333 25.7958333 12.9833333 25.7958333 12.4708333 25.7104167 11.8729167 25.7104167 11.3604167L28.2729167 11.3604167 28.2729167 9.13958333 28.1875 9.13958333zM24.0875 12.9833333C24.0875 17.68125 21.0125 21.525 17.16875 21.525 13.325 21.525 10.25 17.68125 10.25 12.9833333 10.25 12.6416667 10.9333333 11.6166667 11.1895833 11.3604167L23.575 11.3604167C23.7458333 11.4458333 24.0875 12.6416667 24.0875 12.9833333z"/>
      <path d="M18.2791667,8.88333333 L19.8166667,0.427083333 C18.9625,0.170833333 18.0229167,0 17.0833333,0 C16.14375,0 15.2041667,0.170833333 14.35,0.427083333 L15.8875,8.88333333 L18.2791667,8.88333333 Z"/>
    </g>
    <g transform="translate(44 70)">
      <path fill="#E0E1E6" fill-rule="nonzero" d="M36.3409091,0.372727273 L4.65909091,0.372727273 C2.42272727,0.372727273 0.372727273,2.23636364 0.372727273,4.65909091 L0.372727273,36.3409091 C0.372727273,38.5772727 2.23636364,40.6272727 4.65909091,40.6272727 L36.3409091,40.6272727 C38.5772727,40.6272727 40.6272727,38.7636364 40.6272727,36.3409091 L40.6272727,4.65909091 C40.6272727,2.23636364 38.5772727,0.372727273 36.3409091,0.372727273 Z"/>
      <path fill="#FFF" d="M31.6818182,32.4272727 L29.2590909,32.4272727 L29.2590909,34.6636364 L27.5818182,34.6636364 L27.5818182,32.4272727 L25.3454545,32.4272727 L25.3454545,34.6636364 L23.6681818,34.6636364 L23.6681818,32.4272727 L21.4318182,32.4272727 L21.4318182,34.6636364 L19.7545455,34.6636364 L19.7545455,32.4272727 L17.5181818,32.4272727 L17.5181818,34.6636364 L15.6545455,34.6636364 L15.6545455,32.4272727 L13.4181818,32.4272727 L13.4181818,34.6636364 L11.7409091,34.6636364 L11.7409091,32.4272727 L9.31818182,32.4272727 C8.75909091,32.4272727 8.38636364,32.0545455 8.38636364,31.6818182 L8.38636364,29.2590909 L6.33636364,29.2590909 L6.33636364,27.5818182 L8.57272727,27.5818182 L8.57272727,25.3454545 L6.33636364,25.3454545 L6.33636364,23.6681818 L8.57272727,23.6681818 L8.57272727,21.4318182 L6.33636364,21.4318182 L6.33636364,19.7545455 L8.57272727,19.7545455 L8.57272727,17.5181818 L6.33636364,17.5181818 L6.33636364,15.6545455 L8.57272727,15.6545455 L8.57272727,13.4181818 L6.33636364,13.4181818 L6.33636364,11.7409091 L8.57272727,11.7409091 L8.57272727,9.31818182 C8.57272727,8.75909091 8.94545455,8.38636364 9.50454545,8.38636364 L11.9272727,8.38636364 L11.9272727,6.33636364 L13.6045455,6.33636364 L13.6045455,8.38636364 L15.8409091,8.38636364 L15.8409091,6.33636364 L17.5181818,6.33636364 L17.5181818,8.38636364 L19.7545455,8.38636364 L19.7545455,6.33636364 L21.4318182,6.33636364 L21.4318182,8.38636364 L23.6681818,8.38636364 L23.6681818,6.33636364 L25.3454545,6.33636364 L25.3454545,8.38636364 L27.5818182,8.38636364 L27.5818182,6.33636364 L29.2590909,6.33636364 L29.2590909,8.38636364 L31.6818182,8.38636364 C32.2409091,8.38636364 32.6136364,8.75909091 32.6136364,9.31818182 L32.6136364,11.7409091 L34.6636364,11.7409091 L34.6636364,13.4181818 L32.6136364,13.4181818 L32.6136364,15.6545455 L34.6636364,15.6545455 L34.6636364,17.3318182 L32.6136364,17.3318182 L32.6136364,19.5681818 L34.6636364,19.5681818 L34.6636364,21.2454545 L32.6136364,21.2454545 L32.6136364,23.4818182 L34.6636364,23.4818182 L34.6636364,25.1590909 L32.6136364,25.1590909 L32.6136364,27.3954545 L34.6636364,27.3954545 L34.6636364,29.0727273 L32.6136364,29.0727273 L32.6136364,31.4954545 C32.4272727,32.0545455 32.0545455,32.4272727 31.6818182,32.4272727 Z M5.59090909,4.28636364 C6.15,4.28636364 6.70909091,4.84545455 6.70909091,5.40454545 C6.70909091,6.15 6.15,6.52272727 5.59090909,6.52272727 C4.84545455,6.52272727 4.47272727,5.96363636 4.47272727,5.40454545 C4.47272727,4.84545455 4.84545455,4.28636364 5.59090909,4.28636364 Z M5.59090909,36.5272727 C4.84545455,36.5272727 4.47272727,35.9681818 4.47272727,35.4090909 C4.47272727,34.6636364 5.03181818,34.2909091 5.59090909,34.2909091 C6.15,34.2909091 6.70909091,34.85 6.70909091,35.4090909 C6.70909091,35.9681818 6.15,36.5272727 5.59090909,36.5272727 Z M35.4090909,36.5272727 C34.85,36.5272727 34.2909091,35.9681818 34.2909091,35.4090909 C34.2909091,34.6636364 34.85,34.2909091 35.4090909,34.2909091 C35.9681818,34.2909091 36.5272727,34.85 36.5272727,35.4090909 C36.5272727,35.9681818 35.9681818,36.5272727 35.4090909,36.5272727 Z M35.4090909,6.52272727 C34.85,6.52272727 34.2909091,5.96363636 34.2909091,5.40454545 C34.2909091,4.84545455 34.85,4.28636364 35.4090909,4.28636364 C35.9681818,4.28636364 36.5272727,4.84545455 36.5272727,5.40454545 C36.5272727,6.15 35.9681818,6.52272727 35.4090909,6.52272727 Z"/>
      <path fill="#F6C050" fill-rule="nonzero" d="M20.3136364,21.9909091 C20.5,22.3636364 20.5,22.55 20.3136364,22.9227273 L17.5181818,27.3954545 L20.5,27.3954545 L25.7181818,19.0090909 L21.2454545,19.0090909 C20.8727273,19.0090909 20.6863636,18.8227273 20.5,18.6363636 C20.3136364,18.45 20.3136364,18.0772727 20.5,17.8909091 L23.2954545,13.4181818 L20.3136364,13.4181818 L15.0954545,21.8045455 L19.5681818,21.8045455 C19.9409091,21.6181818 20.3136364,21.8045455 20.3136364,21.9909091 Z"/>
    </g>
    <g transform="translate(86 70)">
      <path fill="#E0E1E6" fill-rule="nonzero" d="M36.3409091,0.372727273 L4.65909091,0.372727273 C2.42272727,0.372727273 0.372727273,2.23636364 0.372727273,4.65909091 L0.372727273,36.3409091 C0.372727273,38.5772727 2.23636364,40.6272727 4.65909091,40.6272727 L36.3409091,40.6272727 C38.5772727,40.6272727 40.6272727,38.7636364 40.6272727,36.3409091 L40.6272727,4.65909091 C40.6272727,2.23636364 38.5772727,0.372727273 36.3409091,0.372727273 Z"/>
      <path fill="#FFF" d="M31.6818182,32.4272727 L29.2590909,32.4272727 L29.2590909,34.6636364 L27.5818182,34.6636364 L27.5818182,32.4272727 L25.3454545,32.4272727 L25.3454545,34.6636364 L23.6681818,34.6636364 L23.6681818,32.4272727 L21.4318182,32.4272727 L21.4318182,34.6636364 L19.7545455,34.6636364 L19.7545455,32.4272727 L17.5181818,32.4272727 L17.5181818,34.6636364 L15.6545455,34.6636364 L15.6545455,32.4272727 L13.4181818,32.4272727 L13.4181818,34.6636364 L11.7409091,34.6636364 L11.7409091,32.4272727 L9.31818182,32.4272727 C8.75909091,32.4272727 8.38636364,32.0545455 8.38636364,31.6818182 L8.38636364,29.2590909 L6.33636364,29.2590909 L6.33636364,27.5818182 L8.57272727,27.5818182 L8.57272727,25.3454545 L6.33636364,25.3454545 L6.33636364,23.6681818 L8.57272727,23.6681818 L8.57272727,21.4318182 L6.33636364,21.4318182 L6.33636364,19.7545455 L8.57272727,19.7545455 L8.57272727,17.5181818 L6.33636364,17.5181818 L6.33636364,15.6545455 L8.57272727,15.6545455 L8.57272727,13.4181818 L6.33636364,13.4181818 L6.33636364,11.7409091 L8.57272727,11.7409091 L8.57272727,9.31818182 C8.57272727,8.75909091 8.94545455,8.38636364 9.50454545,8.38636364 L11.9272727,8.38636364 L11.9272727,6.33636364 L13.6045455,6.33636364 L13.6045455,8.38636364 L15.8409091,8.38636364 L15.8409091,6.33636364 L17.5181818,6.33636364 L17.5181818,8.38636364 L19.7545455,8.38636364 L19.7545455,6.33636364 L21.4318182,6.33636364 L21.4318182,8.38636364 L23.6681818,8.38636364 L23.6681818,6.33636364 L25.3454545,6.33636364 L25.3454545,8.38636364 L27.5818182,8.38636364 L27.5818182,6.33636364 L29.2590909,6.33636364 L29.2590909,8.38636364 L31.6818182,8.38636364 C32.2409091,8.38636364 32.6136364,8.75909091 32.6136364,9.31818182 L32.6136364,11.7409091 L34.6636364,11.7409091 L34.6636364,13.4181818 L32.6136364,13.4181818 L32.6136364,15.6545455 L34.6636364,15.6545455 L34.6636364,17.3318182 L32.6136364,17.3318182 L32.6136364,19.5681818 L34.6636364,19.5681818 L34.6636364,21.2454545 L32.6136364,21.2454545 L32.6136364,23.4818182 L34.6636364,23.4818182 L34.6636364,25.1590909 L32.6136364,25.1590909 L32.6136364,27.3954545 L34.6636364,27.3954545 L34.6636364,29.0727273 L32.6136364,29.0727273 L32.6136364,31.4954545 C32.4272727,32.0545455 32.0545455,32.4272727 31.6818182,32.4272727 Z M5.59090909,4.28636364 C6.15,4.28636364 6.70909091,4.84545455 6.70909091,5.40454545 C6.70909091,6.15 6.15,6.52272727 5.59090909,6.52272727 C4.84545455,6.52272727 4.47272727,5.96363636 4.47272727,5.40454545 C4.47272727,4.84545455 4.84545455,4.28636364 5.59090909,4.28636364 Z M5.59090909,36.5272727 C4.84545455,36.5272727 4.47272727,35.9681818 4.47272727,35.4090909 C4.47272727,34.6636364 5.03181818,34.2909091 5.59090909,34.2909091 C6.15,34.2909091 6.70909091,34.85 6.70909091,35.4090909 C6.70909091,35.9681818 6.15,36.5272727 5.59090909,36.5272727 Z M35.4090909,36.5272727 C34.85,36.5272727 34.2909091,35.9681818 34.2909091,35.4090909 C34.2909091,34.6636364 34.85,34.2909091 35.4090909,34.2909091 C35.9681818,34.2909091 36.5272727,34.85 36.5272727,35.4090909 C36.5272727,35.9681818 35.9681818,36.5272727 35.4090909,36.5272727 Z M35.4090909,6.52272727 C34.85,6.52272727 34.2909091,5.96363636 34.2909091,5.40454545 C34.2909091,4.84545455 34.85,4.28636364 35.4090909,4.28636364 C35.9681818,4.28636364 36.5272727,4.84545455 36.5272727,5.40454545 C36.5272727,6.15 35.9681818,6.52272727 35.4090909,6.52272727 Z"/>
      <path fill="#F6C050" fill-rule="nonzero" d="M20.3136364,21.9909091 C20.5,22.3636364 20.5,22.55 20.3136364,22.9227273 L17.5181818,27.3954545 L20.5,27.3954545 L25.7181818,19.0090909 L21.2454545,19.0090909 C20.8727273,19.0090909 20.6863636,18.8227273 20.5,18.6363636 C20.3136364,18.45 20.3136364,18.0772727 20.5,17.8909091 L23.2954545,13.4181818 L20.3136364,13.4181818 L15.0954545,21.8045455 L19.5681818,21.8045455 C19.9409091,21.6181818 20.3136364,21.8045455 20.3136364,21.9909091 Z"/>
    </g>
    <g transform="translate(128 70)">
      <path fill="#E0E1E6" fill-rule="nonzero" d="M36.3409091,0.372727273 L4.65909091,0.372727273 C2.42272727,0.372727273 0.372727273,2.23636364 0.372727273,4.65909091 L0.372727273,36.3409091 C0.372727273,38.5772727 2.23636364,40.6272727 4.65909091,40.6272727 L36.3409091,40.6272727 C38.5772727,40.6272727 40.6272727,38.7636364 40.6272727,36.3409091 L40.6272727,4.65909091 C40.6272727,2.23636364 38.5772727,0.372727273 36.3409091,0.372727273 Z"/>
      <path fill="#FFF" d="M31.6818182,32.4272727 L29.2590909,32.4272727 L29.2590909,34.6636364 L27.5818182,34.6636364 L27.5818182,32.4272727 L25.3454545,32.4272727 L25.3454545,34.6636364 L23.6681818,34.6636364 L23.6681818,32.4272727 L21.4318182,32.4272727 L21.4318182,34.6636364 L19.7545455,34.6636364 L19.7545455,32.4272727 L17.5181818,32.4272727 L17.5181818,34.6636364 L15.6545455,34.6636364 L15.6545455,32.4272727 L13.4181818,32.4272727 L13.4181818,34.6636364 L11.7409091,34.6636364 L11.7409091,32.4272727 L9.31818182,32.4272727 C8.75909091,32.4272727 8.38636364,32.0545455 8.38636364,31.6818182 L8.38636364,29.2590909 L6.33636364,29.2590909 L6.33636364,27.5818182 L8.57272727,27.5818182 L8.57272727,25.3454545 L6.33636364,25.3454545 L6.33636364,23.6681818 L8.57272727,23.6681818 L8.57272727,21.4318182 L6.33636364,21.4318182 L6.33636364,19.7545455 L8.57272727,19.7545455 L8.57272727,17.5181818 L6.33636364,17.5181818 L6.33636364,15.6545455 L8.57272727,15.6545455 L8.57272727,13.4181818 L6.33636364,13.4181818 L6.33636364,11.7409091 L8.57272727,11.7409091 L8.57272727,9.31818182 C8.57272727,8.75909091 8.94545455,8.38636364 9.50454545,8.38636364 L11.9272727,8.38636364 L11.9272727,6.33636364 L13.6045455,6.33636364 L13.6045455,8.38636364 L15.8409091,8.38636364 L15.8409091,6.33636364 L17.5181818,6.33636364 L17.5181818,8.38636364 L19.7545455,8.38636364 L19.7545455,6.33636364 L21.4318182,6.33636364 L21.4318182,8.38636364 L23.6681818,8.38636364 L23.6681818,6.33636364 L25.3454545,6.33636364 L25.3454545,8.38636364 L27.5818182,8.38636364 L27.5818182,6.33636364 L29.2590909,6.33636364 L29.2590909,8.38636364 L31.6818182,8.38636364 C32.2409091,8.38636364 32.6136364,8.75909091 32.6136364,9.31818182 L32.6136364,11.7409091 L34.6636364,11.7409091 L34.6636364,13.4181818 L32.6136364,13.4181818 L32.6136364,15.6545455 L34.6636364,15.6545455 L34.6636364,17.3318182 L32.6136364,17.3318182 L32.6136364,19.5681818 L34.6636364,19.5681818 L34.6636364,21.2454545 L32.6136364,21.2454545 L32.6136364,23.4818182 L34.6636364,23.4818182 L34.6636364,25.1590909 L32.6136364,25.1590909 L32.6136364,27.3954545 L34.6636364,27.3954545 L34.6636364,29.0727273 L32.6136364,29.0727273 L32.6136364,31.4954545 C32.4272727,32.0545455 32.0545455,32.4272727 31.6818182,32.4272727 Z M5.59090909,4.28636364 C6.15,4.28636364 6.70909091,4.84545455 6.70909091,5.40454545 C6.70909091,6.15 6.15,6.52272727 5.59090909,6.52272727 C4.84545455,6.52272727 4.47272727,5.96363636 4.47272727,5.40454545 C4.47272727,4.84545455 4.84545455,4.28636364 5.59090909,4.28636364 Z M5.59090909,36.5272727 C4.84545455,36.5272727 4.47272727,35.9681818 4.47272727,35.4090909 C4.47272727,34.6636364 5.03181818,34.2909091 5.59090909,34.2909091 C6.15,34.2909091 6.70909091,34.85 6.70909091,35.4090909 C6.70909091,35.9681818 6.15,36.5272727 5.59090909,36.5272727 Z M35.4090909,36.5272727 C34.85,36.5272727 34.2909091,35.9681818 34.2909091,35.4090909 C34.2909091,34.6636364 34.85,34.2909091 35.4090909,34.2909091 C35.9681818,34.2909091 36.5272727,34.85 36.5272727,35.4090909 C36.5272727,35.9681818 35.9681818,36.5272727 35.4090909,36.5272727 Z M35.4090909,6.52272727 C34.85,6.52272727 34.2909091,5.96363636 34.2909091,5.40454545 C34.2909091,4.84545455 34.85,4.28636364 35.4090909,4.28636364 C35.9681818,4.28636364 36.5272727,4.84545455 36.5272727,5.40454545 C36.5272727,6.15 35.9681818,6.52272727 35.4090909,6.52272727 Z"/>
      <path fill="#F6C050" fill-rule="nonzero" d="M20.3136364,21.9909091 C20.5,22.3636364 20.5,22.55 20.3136364,22.9227273 L17.5181818,27.3954545 L20.5,27.3954545 L25.7181818,19.0090909 L21.2454545,19.0090909 C20.8727273,19.0090909 20.6863636,18.8227273 20.5,18.6363636 C20.3136364,18.45 20.3136364,18.0772727 20.5,17.8909091 L23.2954545,13.4181818 L20.3136364,13.4181818 L15.0954545,21.8045455 L19.5681818,21.8045455 C19.9409091,21.6181818 20.3136364,21.8045455 20.3136364,21.9909091 Z"/>
    </g>
    <g transform="translate(170 70)">
      <path fill="#E0E1E6" fill-rule="nonzero" d="M36.3409091,0.372727273 L4.65909091,0.372727273 C2.42272727,0.372727273 0.372727273,2.23636364 0.372727273,4.65909091 L0.372727273,36.3409091 C0.372727273,38.5772727 2.23636364,40.6272727 4.65909091,40.6272727 L36.3409091,40.6272727 C38.5772727,40.6272727 40.6272727,38.7636364 40.6272727,36.3409091 L40.6272727,4.65909091 C40.6272727,2.23636364 38.5772727,0.372727273 36.3409091,0.372727273 Z"/>
      <path fill="#FFF" d="M31.6818182,32.4272727 L29.2590909,32.4272727 L29.2590909,34.6636364 L27.5818182,34.6636364 L27.5818182,32.4272727 L25.3454545,32.4272727 L25.3454545,34.6636364 L23.6681818,34.6636364 L23.6681818,32.4272727 L21.4318182,32.4272727 L21.4318182,34.6636364 L19.7545455,34.6636364 L19.7545455,32.4272727 L17.5181818,32.4272727 L17.5181818,34.6636364 L15.6545455,34.6636364 L15.6545455,32.4272727 L13.4181818,32.4272727 L13.4181818,34.6636364 L11.7409091,34.6636364 L11.7409091,32.4272727 L9.31818182,32.4272727 C8.75909091,32.4272727 8.38636364,32.0545455 8.38636364,31.6818182 L8.38636364,29.2590909 L6.33636364,29.2590909 L6.33636364,27.5818182 L8.57272727,27.5818182 L8.57272727,25.3454545 L6.33636364,25.3454545 L6.33636364,23.6681818 L8.57272727,23.6681818 L8.57272727,21.4318182 L6.33636364,21.4318182 L6.33636364,19.7545455 L8.57272727,19.7545455 L8.57272727,17.5181818 L6.33636364,17.5181818 L6.33636364,15.6545455 L8.57272727,15.6545455 L8.57272727,13.4181818 L6.33636364,13.4181818 L6.33636364,11.7409091 L8.57272727,11.7409091 L8.57272727,9.31818182 C8.57272727,8.75909091 8.94545455,8.38636364 9.50454545,8.38636364 L11.9272727,8.38636364 L11.9272727,6.33636364 L13.6045455,6.33636364 L13.6045455,8.38636364 L15.8409091,8.38636364 L15.8409091,6.33636364 L17.5181818,6.33636364 L17.5181818,8.38636364 L19.7545455,8.38636364 L19.7545455,6.33636364 L21.4318182,6.33636364 L21.4318182,8.38636364 L23.6681818,8.38636364 L23.6681818,6.33636364 L25.3454545,6.33636364 L25.3454545,8.38636364 L27.5818182,8.38636364 L27.5818182,6.33636364 L29.2590909,6.33636364 L29.2590909,8.38636364 L31.6818182,8.38636364 C32.2409091,8.38636364 32.6136364,8.75909091 32.6136364,9.31818182 L32.6136364,11.7409091 L34.6636364,11.7409091 L34.6636364,13.4181818 L32.6136364,13.4181818 L32.6136364,15.6545455 L34.6636364,15.6545455 L34.6636364,17.3318182 L32.6136364,17.3318182 L32.6136364,19.5681818 L34.6636364,19.5681818 L34.6636364,21.2454545 L32.6136364,21.2454545 L32.6136364,23.4818182 L34.6636364,23.4818182 L34.6636364,25.1590909 L32.6136364,25.1590909 L32.6136364,27.3954545 L34.6636364,27.3954545 L34.6636364,29.0727273 L32.6136364,29.0727273 L32.6136364,31.4954545 C32.4272727,32.0545455 32.0545455,32.4272727 31.6818182,32.4272727 Z M5.59090909,4.28636364 C6.15,4.28636364 6.70909091,4.84545455 6.70909091,5.40454545 C6.70909091,6.15 6.15,6.52272727 5.59090909,6.52272727 C4.84545455,6.52272727 4.47272727,5.96363636 4.47272727,5.40454545 C4.47272727,4.84545455 4.84545455,4.28636364 5.59090909,4.28636364 Z M5.59090909,36.5272727 C4.84545455,36.5272727 4.47272727,35.9681818 4.47272727,35.4090909 C4.47272727,34.6636364 5.03181818,34.2909091 5.59090909,34.2909091 C6.15,34.2909091 6.70909091,34.85 6.70909091,35.4090909 C6.70909091,35.9681818 6.15,36.5272727 5.59090909,36.5272727 Z M35.4090909,36.5272727 C34.85,36.5272727 34.2909091,35.9681818 34.2909091,35.4090909 C34.2909091,34.6636364 34.85,34.2909091 35.4090909,34.2909091 C35.9681818,34.2909091 36.5272727,34.85 36.5272727,35.4090909 C36.5272727,35.9681818 35.9681818,36.5272727 35.4090909,36.5272727 Z M35.4090909,6.52272727 C34.85,6.52272727 34.2909091,5.96363636 34.2909091,5.40454545 C34.2909091,4.84545455 34.85,4.28636364 35.4090909,4.28636364 C35.9681818,4.28636364 36.5272727,4.84545455 36.5272727,5.40454545 C36.5272727,6.15 35.9681818,6.52272727 35.4090909,6.52272727 Z"/>
      <path fill="#F6C050" fill-rule="nonzero" d="M20.3136364,21.9909091 C20.5,22.3636364 20.5,22.55 20.3136364,22.9227273 L17.5181818,27.3954545 L20.5,27.3954545 L25.7181818,19.0090909 L21.2454545,19.0090909 C20.8727273,19.0090909 20.6863636,18.8227273 20.5,18.6363636 C20.3136364,18.45 20.3136364,18.0772727 20.5,17.8909091 L23.2954545,13.4181818 L20.3136364,13.4181818 L15.0954545,21.8045455 L19.5681818,21.8045455 C19.9409091,21.6181818 20.3136364,21.8045455 20.3136364,21.9909091 Z"/>
    </g>
    <g transform="translate(170 70)">
      <path fill="#E0E1E6" fill-rule="nonzero" d="M36.3409091,0.372727273 L4.65909091,0.372727273 C2.42272727,0.372727273 0.372727273,2.23636364 0.372727273,4.65909091 L0.372727273,36.3409091 C0.372727273,38.5772727 2.23636364,40.6272727 4.65909091,40.6272727 L36.3409091,40.6272727 C38.5772727,40.6272727 40.6272727,38.7636364 40.6272727,36.3409091 L40.6272727,4.65909091 C40.6272727,2.23636364 38.5772727,0.372727273 36.3409091,0.372727273 Z"/>
      <path fill="#FFF" d="M31.6818182,32.4272727 L29.2590909,32.4272727 L29.2590909,34.6636364 L27.5818182,34.6636364 L27.5818182,32.4272727 L25.3454545,32.4272727 L25.3454545,34.6636364 L23.6681818,34.6636364 L23.6681818,32.4272727 L21.4318182,32.4272727 L21.4318182,34.6636364 L19.7545455,34.6636364 L19.7545455,32.4272727 L17.5181818,32.4272727 L17.5181818,34.6636364 L15.6545455,34.6636364 L15.6545455,32.4272727 L13.4181818,32.4272727 L13.4181818,34.6636364 L11.7409091,34.6636364 L11.7409091,32.4272727 L9.31818182,32.4272727 C8.75909091,32.4272727 8.38636364,32.0545455 8.38636364,31.6818182 L8.38636364,29.2590909 L6.33636364,29.2590909 L6.33636364,27.5818182 L8.57272727,27.5818182 L8.57272727,25.3454545 L6.33636364,25.3454545 L6.33636364,23.6681818 L8.57272727,23.6681818 L8.57272727,21.4318182 L6.33636364,21.4318182 L6.33636364,19.7545455 L8.57272727,19.7545455 L8.57272727,17.5181818 L6.33636364,17.5181818 L6.33636364,15.6545455 L8.57272727,15.6545455 L8.57272727,13.4181818 L6.33636364,13.4181818 L6.33636364,11.7409091 L8.57272727,11.7409091 L8.57272727,9.31818182 C8.57272727,8.75909091 8.94545455,8.38636364 9.50454545,8.38636364 L11.9272727,8.38636364 L11.9272727,6.33636364 L13.6045455,6.33636364 L13.6045455,8.38636364 L15.8409091,8.38636364 L15.8409091,6.33636364 L17.5181818,6.33636364 L17.5181818,8.38636364 L19.7545455,8.38636364 L19.7545455,6.33636364 L21.4318182,6.33636364 L21.4318182,8.38636364 L23.6681818,8.38636364 L23.6681818,6.33636364 L25.3454545,6.33636364 L25.3454545,8.38636364 L27.5818182,8.38636364 L27.5818182,6.33636364 L29.2590909,6.33636364 L29.2590909,8.38636364 L31.6818182,8.38636364 C32.2409091,8.38636364 32.6136364,8.75909091 32.6136364,9.31818182 L32.6136364,11.7409091 L34.6636364,11.7409091 L34.6636364,13.4181818 L32.6136364,13.4181818 L32.6136364,15.6545455 L34.6636364,15.6545455 L34.6636364,17.3318182 L32.6136364,17.3318182 L32.6136364,19.5681818 L34.6636364,19.5681818 L34.6636364,21.2454545 L32.6136364,21.2454545 L32.6136364,23.4818182 L34.6636364,23.4818182 L34.6636364,25.1590909 L32.6136364,25.1590909 L32.6136364,27.3954545 L34.6636364,27.3954545 L34.6636364,29.0727273 L32.6136364,29.0727273 L32.6136364,31.4954545 C32.4272727,32.0545455 32.0545455,32.4272727 31.6818182,32.4272727 Z M5.59090909,4.28636364 C6.15,4.28636364 6.70909091,4.84545455 6.70909091,5.40454545 C6.70909091,6.15 6.15,6.52272727 5.59090909,6.52272727 C4.84545455,6.52272727 4.47272727,5.96363636 4.47272727,5.40454545 C4.47272727,4.84545455 4.84545455,4.28636364 5.59090909,4.28636364 Z M5.59090909,36.5272727 C4.84545455,36.5272727 4.47272727,35.9681818 4.47272727,35.4090909 C4.47272727,34.6636364 5.03181818,34.2909091 5.59090909,34.2909091 C6.15,34.2909091 6.70909091,34.85 6.70909091,35.4090909 C6.70909091,35.9681818 6.15,36.5272727 5.59090909,36.5272727 Z M35.4090909,36.5272727 C34.85,36.5272727 34.2909091,35.9681818 34.2909091,35.4090909 C34.2909091,34.6636364 34.85,34.2909091 35.4090909,34.2909091 C35.9681818,34.2909091 36.5272727,34.85 36.5272727,35.4090909 C36.5272727,35.9681818 35.9681818,36.5272727 35.4090909,36.5272727 Z M35.4090909,6.52272727 C34.85,6.52272727 34.2909091,5.96363636 34.2909091,5.40454545 C34.2909091,4.84545455 34.85,4.28636364 35.4090909,4.28636364 C35.9681818,4.28636364 36.5272727,4.84545455 36.5272727,5.40454545 C36.5272727,6.15 35.9681818,6.52272727 35.4090909,6.52272727 Z"/>
      <path fill="#F6C050" fill-rule="nonzero" d="M20.3136364,21.9909091 C20.5,22.3636364 20.5,22.55 20.3136364,22.9227273 L17.5181818,27.3954545 L20.5,27.3954545 L25.7181818,19.0090909 L21.2454545,19.0090909 C20.8727273,19.0090909 20.6863636,18.8227273 20.5,18.6363636 C20.3136364,18.45 20.3136364,18.0772727 20.5,17.8909091 L23.2954545,13.4181818 L20.3136364,13.4181818 L15.0954545,21.8045455 L19.5681818,21.8045455 C19.9409091,21.6181818 20.3136364,21.8045455 20.3136364,21.9909091 Z"/>
    </g>
    <g fill="#E0E1E6" fill-rule="nonzero" transform="translate(0 70)">
      <path d="M10.9333333,22.2083333 C10.50625,22.7208333 9.99375,23.0625 9.31041667,23.31875 C10.50625,28.7 13.06875,32.2875 17.0833333,33.9958333 C21.0125,32.2875 23.6604167,28.7 24.7708333,23.31875 C24.1729167,23.1479167 23.6604167,22.80625 23.31875,22.3791667 C20.24375,24.7708333 15.375,26.1375 10.9333333,22.2083333 Z"/>
      <path d="M26.4791667 23.575L26.39375 23.575C24.7708333 31.1770833 20.5854167 34.3375 17.3395833 35.7041667L17.0833333 35.7895833 16.7416667 35.7041667C13.4958333 34.4229167 9.31041667 31.2625 7.6875 23.575L7.6875 23.575C3.5875 23.575.341666667 26.4791667.341666667 30.1520833L.341666667 36.2166667C5.03958333 39.20625 10.8479167 41 17.0833333 41 23.31875 41 29.1270833 39.20625 33.9104167 36.13125L33.9104167 30.1520833C33.825 26.4791667 30.5791667 23.575 26.4791667 23.575zM28.1875 9.13958333L27.0770833 9.13958333C26.7354167 5.29583333 24.34375 2.13541667 20.9270833.76875L19.3895833 9.13958333 19.21875 9.90833333 14.9479167 9.90833333 14.7770833 9.13958333 13.2395833.76875C9.82291667 2.13541667 7.34583333 5.38125 7.08958333 9.13958333L5.97916667 9.13958333 5.97916667 11.3604167 8.62708333 11.3604167C8.62708333 11.4458333 8.7125 12.55625 8.7125 12.9833333 8.7125 18.5354167 12.55625 23.1479167 17.2541667 23.1479167 21.9520833 23.1479167 25.7958333 18.6208333 25.7958333 12.9833333 25.7958333 12.4708333 25.7104167 11.8729167 25.7104167 11.3604167L28.2729167 11.3604167 28.2729167 9.13958333 28.1875 9.13958333zM24.0875 12.9833333C24.0875 17.68125 21.0125 21.525 17.16875 21.525 13.325 21.525 10.25 17.68125 10.25 12.9833333 10.25 12.6416667 10.9333333 11.6166667 11.1895833 11.3604167L23.575 11.3604167C23.7458333 11.4458333 24.0875 12.6416667 24.0875 12.9833333z"/>
      <path d="M18.2791667,8.88333333 L19.8166667,0.427083333 C18.9625,0.170833333 18.0229167,0 17.0833333,0 C16.14375,0 15.2041667,0.170833333 14.35,0.427083333 L15.8875,8.88333333 L18.2791667,8.88333333 Z"/>
    </g>
    <g fill="#E0E1E6" fill-rule="nonzero" transform="matrix(-1 0 0 1 278 3)">
      <path d="M22.9302718.417709673C22.8261846.164920971 22.5788085 0 22.3057487 0 17.1797927 0 12.9041074 3.72694358 11.4847367 5.12066097L10.6168929 4.25414997C10.3532955 3.99054677 9.92478072 3.99054677 9.6611833 4.25414997L4.25405679 9.66139492C3.99045937 9.92499811 3.99045937 10.3535223 4.25405679 10.6171255L5.12054881 11.4849883C3.72686195 12.9043901 0 17.1788172 0 22.3062372 0 22.5793031.164917359 22.8266846.417700523 22.930774.501510984 22.9659211.58937679 22.9821429.675890814 22.9821429.851622426 22.9821429 1.02465047 22.9132005 1.15442151 22.7847784L8.78658059 15.1524522 9.65983152 16.0257222C9.92342894 16.2893254 10.3519437 16.2893254 10.6155411 16.0257222L16.0226676 10.6184773C16.2862651 10.3548741 16.2862651 9.92634992 16.0226676 9.66274673L15.1494167 8.78947667 22.7815758 1.15715042C22.9775841.96113779 23.0357107.670498374 22.9302718.417709673zM32.8009025 28.5463354L16.6306603 12.375 12.9642857 16.0416224 29.1345279 32.2129578C29.261842 32.3402805 29.4338514 32.4107143 29.6139873 32.4107143 31.4803575 32.4107143 33 30.8909691 33 29.0244727 32.9986456 28.8443246 32.9268621 28.6723036 32.8009025 28.5463354zM4.47215174 8.25L8.25 4.45586549 7.92622431 4.130694C7.13632327 3.33738771 5.75608982 3.33738771 4.96618878 4.130694L4.14837605 4.95203232C3.75342553 5.34868547 3.53571429 5.87708913 3.53571429 6.43913122 3.53571429 7.00117331 3.75342553 7.52817537 4.14837605 7.92623012L4.47215174 8.25z"/>
    </g>
    <path fill="#4F77FC" d="M366.232422,20.7988281 C366.232422,21.6777344 366.411133,22.3574219 366.768555,22.8378906 C367.125977,23.3183594 367.54883,23.5585938 368.037109,23.5585938 C368.525389,23.5585938 368.947264,23.3183594 369.302734,22.8378906 C369.658205,22.3574219 369.835938,21.6777344 369.835938,20.7988281 C369.835938,19.9199219 369.658205,19.2402344 369.302734,18.7597656 C368.947264,18.2792969 368.525389,18.0390625 368.037109,18.0390625 C367.54883,18.0390625 367.125977,18.2792969 366.768555,18.7597656 C366.411133,19.2402344 366.232422,19.9199219 366.232422,20.7988281 Z M371.634766,20.7988281 C371.634766,22.1113281 371.285154,23.1699238 370.585938,23.9746094 C369.886721,24.779295 369.037111,25.1816406 368.037109,25.1816406 C367.037107,25.1816406 366.18652,24.779295 365.485346,23.9746094 C364.784172,23.1699238 364.433588,22.1113281 364.433588,20.7988281 C364.433588,19.4863281 364.784172,18.4287109 365.485346,17.6259766 C366.18652,16.8232422 367.037107,16.421875 368.037109,16.421875 C369.037111,16.421875 369.886721,16.8232422 370.585938,17.6259766 C371.285154,18.4287109 371.634766,19.4863281 371.634766,20.7988281 Z M372.472656,24.2177734 C372.472656,24.4580078 372.566406,24.6679668 372.753906,24.8476562 C372.941406,25.0273457 373.167971,25.1171875 373.433594,25.1171875 C373.699217,25.1171875 373.925781,25.0273457 374.113281,24.8476562 C374.300781,24.6679668 374.394531,24.4580078 374.394531,24.2177734 C374.394531,23.9775391 374.300781,23.76758 374.113281,23.5878906 C373.925781,23.4082012 373.699217,23.3183594 373.433594,23.3183594 C373.167971,23.3183594 372.941406,23.4082012 372.753906,23.5878906 C372.566406,23.76758 372.472656,23.9775391 372.472656,24.2177734 Z M377.03125,20.7988281 C377.03125,21.6777344 377.209961,22.3574219 377.567383,22.8378906 C377.924805,23.3183594 378.347658,23.5585938 378.835938,23.5585938 C379.324217,23.5585938 379.746092,23.3183594 380.101562,22.8378906 C380.457033,22.3574219 380.634766,21.6777344 380.634766,20.7988281 C380.634766,19.9199219 380.457033,19.2402344 380.101562,18.7597656 C379.746092,18.2792969 379.324217,18.0390625 378.835938,18.0390625 C378.347658,18.0390625 377.924805,18.2792969 377.567383,18.7597656 C377.209961,19.2402344 377.03125,19.9199219 377.03125,20.7988281 Z M382.433594,20.7988281 C382.433594,22.1113281 382.083982,23.1699238 381.384766,23.9746094 C380.685549,24.779295 379.835939,25.1816406 378.835938,25.1816406 C377.835936,25.1816406 376.985348,24.779295 376.284174,23.9746094 C375.583,23.1699238 375.232416,22.1113281 375.232416,20.7988281 C375.232416,19.4863281 375.583,18.4287109 376.284174,17.6259766 C376.985348,16.8232422 377.835936,16.421875 378.835938,16.421875 C379.835939,16.421875 380.685549,16.8232422 381.384766,17.6259766 C382.083982,18.4287109 382.433594,19.4863281 382.433594,20.7988281 Z M384.830078,20.7988281 C384.830078,21.6777344 385.008789,22.3574219 385.366211,22.8378906 C385.723633,23.3183594 386.146486,23.5585938 386.634766,23.5585938 C387.123045,23.5585938 387.54492,23.3183594 387.900391,22.8378906 C388.255861,22.3574219 388.433594,21.6777344 388.433594,20.7988281 C388.433594,19.9199219 388.255861,19.2402344 387.900391,18.7597656 C387.54492,18.2792969 387.123045,18.0390625 386.634766,18.0390625 C386.146486,18.0390625 385.723633,18.2792969 385.366211,18.7597656 C385.008789,19.2402344 384.830078,19.9199219 384.830078,20.7988281 Z M390.232422,20.7988281 C390.232422,22.1113281 389.882811,23.1699238 389.183594,23.9746094 C388.484377,24.779295 387.634768,25.1816406 386.634766,25.1816406 C385.634764,25.1816406 384.784176,24.779295 384.083002,23.9746094 C383.381828,23.1699238 383.031244,22.1113281 383.031244,20.7988281 C383.031244,19.4863281 383.381828,18.4287109 384.083002,17.6259766 C384.784176,16.8232422 385.634764,16.421875 386.634766,16.421875 C387.634768,16.421875 388.484377,16.8232422 389.183594,17.6259766 C389.882811,18.4287109 390.232422,19.4863281 390.232422,20.7988281 Z M392.628906,20.7988281 C392.628906,21.6777344 392.807617,22.3574219 393.165039,22.8378906 C393.522461,23.3183594 393.945314,23.5585938 394.433594,23.5585938 C394.921873,23.5585938 395.343748,23.3183594 395.699219,22.8378906 C396.054689,22.3574219 396.232422,21.6777344 396.232422,20.7988281 C396.232422,19.9199219 396.054689,19.2402344 395.699219,18.7597656 C395.343748,18.2792969 394.921873,18.0390625 394.433594,18.0390625 C393.945314,18.0390625 393.522461,18.2792969 393.165039,18.7597656 C392.807617,19.2402344 392.628906,19.9199219 392.628906,20.7988281 Z M398.03125,20.7988281 C398.03125,22.1113281 397.681639,23.1699238 396.982422,23.9746094 C396.283205,24.779295 395.433596,25.1816406 394.433594,25.1816406 C393.433592,25.1816406 392.583004,24.779295 391.88183,23.9746094 C391.180656,23.1699238 390.830072,22.1113281 390.830072,20.7988281 C390.830072,19.4863281 391.180656,18.4287109 391.88183,17.6259766 C392.583004,16.8232422 393.433592,16.421875 394.433594,16.421875 C395.433596,16.421875 396.283205,16.8232422 396.982422,17.6259766 C397.681639,18.4287109 398.03125,19.4863281 398.03125,20.7988281 Z M400.427734,20.7988281 C400.427734,21.6777344 400.606445,22.3574219 400.963867,22.8378906 C401.321289,23.3183594 401.744143,23.5585938 402.232422,23.5585938 C402.720701,23.5585938 403.142576,23.3183594 403.498047,22.8378906 C403.853518,22.3574219 404.03125,21.6777344 404.03125,20.7988281 C404.03125,19.9199219 403.853518,19.2402344 403.498047,18.7597656 C403.142576,18.2792969 402.720701,18.0390625 402.232422,18.0390625 C401.744143,18.0390625 401.321289,18.2792969 400.963867,18.7597656 C400.606445,19.2402344 400.427734,19.9199219 400.427734,20.7988281 Z M405.830078,20.7988281 C405.830078,22.1113281 405.480467,23.1699238 404.78125,23.9746094 C404.082033,24.779295 403.232424,25.1816406 402.232422,25.1816406 C401.23242,25.1816406 400.381832,24.779295 399.680658,23.9746094 C398.979485,23.1699238 398.628901,22.1113281 398.628901,20.7988281 C398.628901,19.4863281 398.979485,18.4287109 399.680658,17.6259766 C400.381832,16.8232422 401.23242,16.421875 402.232422,16.421875 C403.232424,16.421875 404.082033,16.8232422 404.78125,17.6259766 C405.480467,18.4287109 405.830078,19.4863281 405.830078,20.7988281 Z M408.226562,20.7988281 C408.226562,21.6777344 408.405273,22.3574219 408.762695,22.8378906 C409.120117,23.3183594 409.542971,23.5585938 410.03125,23.5585938 C410.519529,23.5585938 410.941404,23.3183594 411.296875,22.8378906 C411.652346,22.3574219 411.830078,21.6777344 411.830078,20.7988281 C411.830078,19.9199219 411.652346,19.2402344 411.296875,18.7597656 C410.941404,18.2792969 410.519529,18.0390625 410.03125,18.0390625 C409.542971,18.0390625 409.120117,18.2792969 408.762695,18.7597656 C408.405273,19.2402344 408.226562,19.9199219 408.226562,20.7988281 Z M413.628906,20.7988281 C413.628906,22.1113281 413.279295,23.1699238 412.580078,23.9746094 C411.880861,24.779295 411.031252,25.1816406 410.03125,25.1816406 C409.031248,25.1816406 408.18066,24.779295 407.479486,23.9746094 C406.778313,23.1699238 406.427729,22.1113281 406.427729,20.7988281 C406.427729,19.4863281 406.778313,18.4287109 407.479486,17.6259766 C408.18066,16.8232422 409.031248,16.421875 410.03125,16.421875 C411.031252,16.421875 411.880861,16.8232422 412.580078,17.6259766 C413.279295,18.4287109 413.628906,19.4863281 413.628906,20.7988281 Z M416.025391,20.7988281 C416.025391,21.6777344 416.204102,22.3574219 416.561523,22.8378906 C416.918945,23.3183594 417.341799,23.5585938 417.830078,23.5585938 C418.318357,23.5585938 418.740232,23.3183594 419.095703,22.8378906 C419.451174,22.3574219 419.628906,21.6777344 419.628906,20.7988281 C419.628906,19.9199219 419.451174,19.2402344 419.095703,18.7597656 C418.740232,18.2792969 418.318357,18.0390625 417.830078,18.0390625 C417.341799,18.0390625 416.918945,18.2792969 416.561523,18.7597656 C416.204102,19.2402344 416.025391,19.9199219 416.025391,20.7988281 Z M421.427734,20.7988281 C421.427734,22.1113281 421.078123,23.1699238 420.378906,23.9746094 C419.679689,24.779295 418.83008,25.1816406 417.830078,25.1816406 C416.830076,25.1816406 415.979488,24.779295 415.278315,23.9746094 C414.577141,23.1699238 414.226557,22.1113281 414.226557,20.7988281 C414.226557,19.4863281 414.577141,18.4287109 415.278315,17.6259766 C415.979488,16.8232422 416.830076,16.421875 417.830078,16.421875 C418.83008,16.421875 419.679689,16.8232422 420.378906,17.6259766 C421.078123,18.4287109 421.427734,19.4863281 421.427734,20.7988281 Z M423.824219,20.7988281 C423.824219,21.6777344 424.00293,22.3574219 424.360352,22.8378906 C424.717773,23.3183594 425.140627,23.5585938 425.628906,23.5585938 C426.117186,23.5585938 426.539061,23.3183594 426.894531,22.8378906 C427.250002,22.3574219 427.427734,21.6777344 427.427734,20.7988281 C427.427734,19.9199219 427.250002,19.2402344 426.894531,18.7597656 C426.539061,18.2792969 426.117186,18.0390625 425.628906,18.0390625 C425.140627,18.0390625 424.717773,18.2792969 424.360352,18.7597656 C424.00293,19.2402344 423.824219,19.9199219 423.824219,20.7988281 Z M429.226562,20.7988281 C429.226562,22.1113281 428.876951,23.1699238 428.177734,23.9746094 C427.478518,24.779295 426.628908,25.1816406 425.628906,25.1816406 C424.628904,25.1816406 423.778316,24.779295 423.077143,23.9746094 C422.375969,23.1699238 422.025385,22.1113281 422.025385,20.7988281 C422.025385,19.4863281 422.375969,18.4287109 423.077143,17.6259766 C423.778316,16.8232422 424.628904,16.421875 425.628906,16.421875 C426.628908,16.421875 427.478518,16.8232422 428.177734,17.6259766 C428.876951,18.4287109 429.226562,19.4863281 429.226562,20.7988281 Z M430.064453,24.2177734 C430.064453,24.4580078 430.158203,24.6679668 430.345703,24.8476562 C430.533203,25.0273457 430.759768,25.1171875 431.025391,25.1171875 C431.291014,25.1171875 431.517578,25.0273457 431.705078,24.8476562 C431.892578,24.6679668 431.986328,24.4580078 431.986328,24.2177734 C431.986328,23.9775391 431.892578,23.76758 431.705078,23.5878906 C431.517578,23.4082012 431.291014,23.3183594 431.025391,23.3183594 C430.759768,23.3183594 430.533203,23.4082012 430.345703,23.5878906 C430.158203,23.76758 430.064453,23.9775391 430.064453,24.2177734 Z M433.304688,24.2177734 C433.304688,24.4580078 433.398438,24.6679668 433.585938,24.8476562 C433.773438,25.0273457 434.000002,25.1171875 434.265625,25.1171875 C434.531248,25.1171875 434.757812,25.0273457 434.945312,24.8476562 C435.132812,24.6679668 435.226562,24.4580078 435.226562,24.2177734 C435.226562,23.9775391 435.132812,23.76758 434.945312,23.5878906 C434.757812,23.4082012 434.531248,23.3183594 434.265625,23.3183594 C434.000002,23.3183594 433.773438,23.4082012 433.585938,23.5878906 C433.398438,23.76758 433.304688,23.9775391 433.304688,24.2177734 Z M436.544922,24.2177734 C436.544922,24.4580078 436.638672,24.6679668 436.826172,24.8476562 C437.013672,25.0273457 437.240236,25.1171875 437.505859,25.1171875 C437.771482,25.1171875 437.998047,25.0273457 438.185547,24.8476562 C438.373047,24.6679668 438.466797,24.4580078 438.466797,24.2177734 C438.466797,23.9775391 438.373047,23.76758 438.185547,23.5878906 C437.998047,23.4082012 437.771482,23.3183594 437.505859,23.3183594 C437.240236,23.3183594 437.013672,23.4082012 436.826172,23.5878906 C436.638672,23.76758 436.544922,23.9775391 436.544922,24.2177734 Z" opacity=".8"/>
    <g transform="translate(358 71)">
      <circle cx="20" cy="20" r="20" fill="#4F77FC"/>
      <circle cx="20" cy="20" r="12.593" fill="#002EFF"/>
      <path fill="#FFF" fill-rule="nonzero" d="M2.37834178,1.67210058 L2.37834178,0 L3.56756222,0 L3.56756222,1.67210058 L4.36037585,1.67210058 L4.36037585,0 L5.54969539,0 L5.54969539,1.70907384 C9.86577278,2.06130834 8.95681195,5.9902603 7.05921254,6.30413752 L7.05921254,6.37106504 C9.91492722,7.01236317 9.43973455,11.4422335 5.54969539,11.6394572 L5.54969539,12.8395062 L4.36037585,12.8395062 L4.36037585,11.6481568 L3.56756222,11.6481568 L3.56756222,12.8395062 L2.37834178,12.8395062 L2.37834178,11.6481568 C1.58562725,11.6481568 0.792813627,11.6481568 0,11.6481568 L0,9.86869533 L0.991017034,9.86869533 C1.26384402,9.86869533 1.48652555,9.64675695 1.48652555,9.37449935 L1.48652555,3.73943932 C1.48652555,3.46718172 1.26394312,3.24524334 0.991017034,3.24524334 L0,3.24524334 L0,1.67210058 L2.37834178,1.67210058 L2.37834178,1.67210058 Z M3.56756222,5.61785857 L4.78899071,5.61785857 C5.3580327,5.61785857 5.79011612,5.49547117 6.04599672,5.31881019 C6.56063187,4.96331334 6.58084861,3.96582636 6.01121202,3.62733325 C5.41273684,3.27163868 4.34729442,3.34410231 3.56756222,3.34410231 L3.56756222,5.61785857 L3.56756222,5.61785857 Z M3.56756222,7.1995032 L3.56756222,9.86869533 L4.93704866,9.86869533 C5.51758644,9.86869533 5.96166117,9.70656662 6.23795672,9.4864077 C7.24720847,8.6816957 6.58074951,7.1995032 4.8698577,7.1995032 L3.56756222,7.1995032 L3.56756222,7.1995032 Z" transform="translate(15.556 13.333)"/>
      <g stroke="#002EFF" stroke-linecap="square" stroke-width="2" transform="translate(2.222 2.222)">
        <path d="M32.962963 17.7777778L34.4444444 17.7777778M.37037037 17.7777778L1.85185185 17.7777778"/>
        <path d="M17.037037,33.7037037 L18.5185185,33.7037037" transform="rotate(90 17.778 33.704)"/>
        <path d="M17.037037,1.11111111 L18.5185185,1.11111111" transform="rotate(90 17.778 1.111)"/>
        <path d="M28.2983673,29.039108 L29.7798487,29.039108" transform="rotate(45 29.04 29.04)"/>
        <path d="M5.25192402,5.99266476 L6.7334055,5.99266476" transform="rotate(45 5.993 5.993)"/>
        <path d="M5.77570682,29.039108 L7.2571883,29.039108" transform="rotate(135 6.516 29.04)"/>
        <path d="M28.8221501,5.99266476 L30.3036315,5.99266476" transform="rotate(135 29.563 5.993)"/>
        <path d="M31.750674,23.8723658 L33.2321555,23.8723658" transform="rotate(22.5 32.491 23.872)"/>
        <path d="M1.63904483,11.3997206 L3.12052631,11.3997206" transform="rotate(22.5 2.38 11.4)"/>
        <path d="M10.942449,32.4914148 L12.4239305,32.4914148" transform="rotate(112.5 11.683 32.491)"/>
        <path d="M23.4150942,2.37978557 L24.8965757,2.37978557" transform="rotate(112.5 24.156 2.38)"/>
        <path d="M23.131625,32.4914148 L24.6131065,32.4914148" transform="rotate(67.5 23.872 32.491)"/>
        <path d="M10.6589798,2.37978557 L12.1404613,2.37978557" transform="rotate(67.5 11.4 2.38)"/>
        <path d="M2.32340003,23.8723658 L3.80488151,23.8723658" transform="rotate(157.5 3.064 23.872)"/>
        <path d="M32.4350292,11.3997206 L33.9165107,11.3997206" transform="rotate(157.5 33.176 11.4)"/>
      </g>
    </g>
    <g transform="translate(400 71)">
      <circle cx="20" cy="20" r="20" fill="#4F77FC"/>
      <circle cx="20" cy="20" r="12.593" fill="#002EFF"/>
      <path fill="#FFF" fill-rule="nonzero" d="M2.37834178,1.67210058 L2.37834178,0 L3.56756222,0 L3.56756222,1.67210058 L4.36037585,1.67210058 L4.36037585,0 L5.54969539,0 L5.54969539,1.70907384 C9.86577278,2.06130834 8.95681195,5.9902603 7.05921254,6.30413752 L7.05921254,6.37106504 C9.91492722,7.01236317 9.43973455,11.4422335 5.54969539,11.6394572 L5.54969539,12.8395062 L4.36037585,12.8395062 L4.36037585,11.6481568 L3.56756222,11.6481568 L3.56756222,12.8395062 L2.37834178,12.8395062 L2.37834178,11.6481568 C1.58562725,11.6481568 0.792813627,11.6481568 0,11.6481568 L0,9.86869533 L0.991017034,9.86869533 C1.26384402,9.86869533 1.48652555,9.64675695 1.48652555,9.37449935 L1.48652555,3.73943932 C1.48652555,3.46718172 1.26394312,3.24524334 0.991017034,3.24524334 L0,3.24524334 L0,1.67210058 L2.37834178,1.67210058 L2.37834178,1.67210058 Z M3.56756222,5.61785857 L4.78899071,5.61785857 C5.3580327,5.61785857 5.79011612,5.49547117 6.04599672,5.31881019 C6.56063187,4.96331334 6.58084861,3.96582636 6.01121202,3.62733325 C5.41273684,3.27163868 4.34729442,3.34410231 3.56756222,3.34410231 L3.56756222,5.61785857 L3.56756222,5.61785857 Z M3.56756222,7.1995032 L3.56756222,9.86869533 L4.93704866,9.86869533 C5.51758644,9.86869533 5.96166117,9.70656662 6.23795672,9.4864077 C7.24720847,8.6816957 6.58074951,7.1995032 4.8698577,7.1995032 L3.56756222,7.1995032 L3.56756222,7.1995032 Z" transform="translate(15.556 13.333)"/>
      <g stroke="#002EFF" stroke-linecap="square" stroke-width="2" transform="translate(2.222 2.222)">
        <path d="M32.962963 17.7777778L34.4444444 17.7777778M.37037037 17.7777778L1.85185185 17.7777778"/>
        <path d="M17.037037,33.7037037 L18.5185185,33.7037037" transform="rotate(90 17.778 33.704)"/>
        <path d="M17.037037,1.11111111 L18.5185185,1.11111111" transform="rotate(90 17.778 1.111)"/>
        <path d="M28.2983673,29.039108 L29.7798487,29.039108" transform="rotate(45 29.04 29.04)"/>
        <path d="M5.25192402,5.99266476 L6.7334055,5.99266476" transform="rotate(45 5.993 5.993)"/>
        <path d="M5.77570682,29.039108 L7.2571883,29.039108" transform="rotate(135 6.516 29.04)"/>
        <path d="M28.8221501,5.99266476 L30.3036315,5.99266476" transform="rotate(135 29.563 5.993)"/>
        <path d="M31.750674,23.8723658 L33.2321555,23.8723658" transform="rotate(22.5 32.491 23.872)"/>
        <path d="M1.63904483,11.3997206 L3.12052631,11.3997206" transform="rotate(22.5 2.38 11.4)"/>
        <path d="M10.942449,32.4914148 L12.4239305,32.4914148" transform="rotate(112.5 11.683 32.491)"/>
        <path d="M23.4150942,2.37978557 L24.8965757,2.37978557" transform="rotate(112.5 24.156 2.38)"/>
        <path d="M23.131625,32.4914148 L24.6131065,32.4914148" transform="rotate(67.5 23.872 32.491)"/>
        <path d="M10.6589798,2.37978557 L12.1404613,2.37978557" transform="rotate(67.5 11.4 2.38)"/>
        <path d="M2.32340003,23.8723658 L3.80488151,23.8723658" transform="rotate(157.5 3.064 23.872)"/>
        <path d="M32.4350292,11.3997206 L33.9165107,11.3997206" transform="rotate(157.5 33.176 11.4)"/>
      </g>
    </g>
    <path fill="#E0E1E6" fill-rule="nonzero" d="M231.391314,26.7942021 L231.391314,26.7942021 L231.391314,26.7942021 C231.876421,27.1277978 232.533021,27.0538297 232.93175,26.620667 L238,21.1147291 L232.992808,15.4003952 L232.992808,15.4003952 C232.60462,14.9573854 231.949172,14.8685317 231.457051,15.1922054 L231.457051,15.1922054 L231.457051,15.1922054 C231.049849,15.4600267 230.936859,16.0072408 231.204681,16.4144424 C231.229205,16.45173 231.256523,16.4871035 231.286399,16.5202584 L235.403483,21.0892017 L231.251813,25.4681406 L231.251813,25.4681406 C230.918557,25.8196404 230.933346,26.3747452 231.284845,26.708002 C231.318033,26.7394674 231.353631,26.7682886 231.391314,26.7942021 Z"/>
    <g fill="#E0E1E6" transform="translate(288 20)">
      <rect width="2" height="2"/>
      <rect width="2" height="2" x="4"/>
      <rect width="2" height="2" x="8"/>
      <rect width="2" height="2" x="12"/>
      <rect width="2" height="2" x="16"/>
      <rect width="2" height="2" x="20"/>
      <rect width="2" height="2" x="24"/>
      <rect width="2" height="2" x="28"/>
      <rect width="2" height="2" x="32"/>
      <rect width="2" height="2" x="36"/>
      <rect width="2" height="2" x="40"/>
      <rect width="2" height="2" x="44"/>
      <rect width="2" height="2" x="48"/>
      <rect width="2" height="2" x="52"/>
    </g>
    <path fill="#E0E1E6" fill-rule="nonzero" d="M345.391314,26.7942021 L345.391314,26.7942021 L345.391314,26.7942021 C345.876421,27.1277978 346.533021,27.0538297 346.93175,26.620667 L352,21.1147291 L346.992808,15.4003952 L346.992808,15.4003952 C346.60462,14.9573854 345.949172,14.8685317 345.457051,15.1922054 L345.457051,15.1922054 L345.457051,15.1922054 C345.049849,15.4600267 344.936859,16.0072408 345.204681,16.4144424 C345.229205,16.45173 345.256523,16.4871035 345.286399,16.5202584 L349.403483,21.0892017 L345.251813,25.4681406 L345.251813,25.4681406 C344.918557,25.8196404 344.933346,26.3747452 345.284845,26.708002 C345.318033,26.7394674 345.353631,26.7682886 345.391314,26.7942021 Z"/>
    <g fill="#E0E1E6" transform="translate(288 90)">
      <rect width="2" height="2"/>
      <rect width="2" height="2" x="4"/>
      <rect width="2" height="2" x="8"/>
      <rect width="2" height="2" x="12"/>
      <rect width="2" height="2" x="16"/>
      <rect width="2" height="2" x="20"/>
      <rect width="2" height="2" x="24"/>
      <rect width="2" height="2" x="28"/>
      <rect width="2" height="2" x="32"/>
      <rect width="2" height="2" x="36"/>
      <rect width="2" height="2" x="40"/>
      <rect width="2" height="2" x="44"/>
      <rect width="2" height="2" x="48"/>
      <rect width="2" height="2" x="52"/>
    </g>
    <path fill="#E0E1E6" fill-rule="nonzero" d="M345.391314,96.7942021 L345.391314,96.7942021 L345.391314,96.7942021 C345.876421,97.1277978 346.533021,97.0538297 346.93175,96.620667 L352,91.1147291 L346.992808,85.4003952 L346.992808,85.4003952 C346.60462,84.9573854 345.949172,84.8685317 345.457051,85.1922054 L345.457051,85.1922054 L345.457051,85.1922054 C345.049849,85.4600267 344.936859,86.0072408 345.204681,86.4144424 C345.229205,86.45173 345.256523,86.4871035 345.286399,86.5202584 L349.403483,91.0892017 L345.251813,95.4681406 L345.251813,95.4681406 C344.918557,95.8196404 344.933346,96.3747452 345.284845,96.708002 C345.318033,96.7394674 345.353631,96.7682886 345.391314,96.7942021 Z"/>
    <g fill="#E0E1E6" transform="translate(210 90)">
      <rect width="2" height="2"/>
      <rect width="2" height="2" x="4"/>
      <rect width="2" height="2" x="8"/>
      <rect width="2" height="2" x="12"/>
      <rect width="2" height="2" x="16"/>
    </g>
    <g fill="#E0E1E6" fill-rule="nonzero" transform="matrix(-1 0 0 1 278 73)">
      <path d="M22.9302718.417709673C22.8261846.164920971 22.5788085 0 22.3057487 0 17.1797927 0 12.9041074 3.72694358 11.4847367 5.12066097L10.6168929 4.25414997C10.3532955 3.99054677 9.92478072 3.99054677 9.6611833 4.25414997L4.25405679 9.66139492C3.99045937 9.92499811 3.99045937 10.3535223 4.25405679 10.6171255L5.12054881 11.4849883C3.72686195 12.9043901 0 17.1788172 0 22.3062372 0 22.5793031.164917359 22.8266846.417700523 22.930774.501510984 22.9659211.58937679 22.9821429.675890814 22.9821429.851622426 22.9821429 1.02465047 22.9132005 1.15442151 22.7847784L8.78658059 15.1524522 9.65983152 16.0257222C9.92342894 16.2893254 10.3519437 16.2893254 10.6155411 16.0257222L16.0226676 10.6184773C16.2862651 10.3548741 16.2862651 9.92634992 16.0226676 9.66274673L15.1494167 8.78947667 22.7815758 1.15715042C22.9775841.96113779 23.0357107.670498374 22.9302718.417709673zM32.8009025 28.5463354L16.6306603 12.375 12.9642857 16.0416224 29.1345279 32.2129578C29.261842 32.3402805 29.4338514 32.4107143 29.6139873 32.4107143 31.4803575 32.4107143 33 30.8909691 33 29.0244727 32.9986456 28.8443246 32.9268621 28.6723036 32.8009025 28.5463354zM4.47215174 8.25L8.25 4.45586549 7.92622431 4.130694C7.13632327 3.33738771 5.75608982 3.33738771 4.96618878 4.130694L4.14837605 4.95203232C3.75342553 5.34868547 3.53571429 5.87708913 3.53571429 6.43913122 3.53571429 7.00117331 3.75342553 7.52817537 4.14837605 7.92623012L4.47215174 8.25z"/>
    </g>
    <path fill="#E0E1E6" fill-rule="nonzero" d="M231.391314,96.7942021 L231.391314,96.7942021 L231.391314,96.7942021 C231.876421,97.1277978 232.533021,97.0538297 232.93175,96.620667 L238,91.1147291 L232.992808,85.4003952 L232.992808,85.4003952 C232.60462,84.9573854 231.949172,84.8685317 231.457051,85.1922054 L231.457051,85.1922054 L231.457051,85.1922054 C231.049849,85.4600267 230.936859,86.0072408 231.204681,86.4144424 C231.229205,86.45173 231.256523,86.4871035 231.286399,86.5202584 L235.403483,91.0892017 L231.251813,95.4681406 L231.251813,95.4681406 C230.918557,95.8196404 230.933346,96.3747452 231.284845,96.708002 C231.318033,96.7394674 231.353631,96.7682886 231.391314,96.7942021 Z"/>
  </g>
</svg>
