<?xml version="1.0" encoding="UTF-8"?>
<svg width="432px" height="162px" viewBox="0 0 432 162" version="1.1" xmlns="http://www.w3.org/2000/svg" xmlns:xlink="http://www.w3.org/1999/xlink">
    <!-- Generator: Sketch 48.1 (47250) - http://www.bohemiancoding.com/sketch -->
    <title>Proof-of-Stake</title>
    <desc>Created with Sketch.</desc>
    <defs></defs>
    <g id="Mining" stroke="none" stroke-width="1" fill="none" fill-rule="evenodd" transform="translate(-719.000000, -1254.000000)">
        <g id="Proof-of-Stake" transform="translate(719.000000, 1254.000000)">
            <path d="M136,28 L215,28" id="Stroke-1" stroke="#E0E1E6" stroke-width="2"></path>
            <polygon id="Fill-2" fill="#E0E1E6" points="210.074016 34 209 32.8356667 214.687402 27.5003974 209 22.1635385 210.074016 21 217 27.5003974"></polygon>
            <path d="M300,28 L362,28" id="Stroke-1" stroke="#E0E1E6" stroke-width="2"></path>
            <polygon id="Fill-2" fill="#E0E1E6" points="357.074016 34 356 32.8356667 361.687402 27.5003974 356 22.1635385 357.074016 21 364 27.5003974"></polygon>
            <path d="M300,137 L362,137" id="Stroke-1" stroke="#E0E1E6" stroke-width="2"></path>
            <polygon id="Fill-2" fill="#E0E1E6" points="357.074016 143 356 141.835667 361.687402 136.500397 356 131.163539 357.074016 130 364 136.500397"></polygon>
            <path d="M196,137 L216,137" id="Stroke-7" stroke="#E0E1E6" stroke-width="2"></path>
            <polygon id="Fill-8" fill="#E0E1E6" points="210.074016 143 209 141.835667 214.687402 136.500397 209 131.163539 210.074016 130 217 136.500397"></polygon>
            <g id="Group-67">
                <path d="M431.21894,136.607705 C431.21894,150.63192 419.887272,161.999335 405.90901,161.999335 C391.929919,161.999335 380.598252,150.63192 380.598252,136.607705 C380.598252,122.583489 391.929919,111.216074 405.90901,111.216074 C419.887272,111.216074 431.21894,122.583489 431.21894,136.607705" id="Fill-9" fill="#0053FD"></path>
                <path d="M113.865369,135.593585 C113.865369,149.6178 102.532874,160.986046 88.5546115,160.986046 C74.576349,160.986046 63.2446817,149.6178 63.2446817,135.593585 C63.2446817,121.5702 74.576349,110.201954 88.5546115,110.201954 C102.532874,110.201954 113.865369,121.5702 113.865369,135.593585" id="Fill-11" fill="#0053FD"></path>
                <polygon id="Fill-13" fill="#FFFFFF" points="268.096698 129.691385 260.301829 121.871354 261.656594 120.512215 269.450635 128.332246"></polygon>
                <polygon id="Fill-15" fill="#BABFC8" points="233.826106 161.438317 228.83103 156.427117 269.397803 115.728563 274.392878 120.740594"></polygon>
                <polygon id="Fill-17" fill="#FFFFFF" points="266.216092 131.219834 258.952033 123.933157 260.214051 122.666234 267.47811 129.954572"></polygon>
                <path d="M280.005465,147.905003 L273.368275,148.158388 C272.691721,130.315957 257.673369,116.352388 239.889177,117.030295 L239.636608,110.37168 C261.080985,109.554203 279.190619,126.391403 280.005465,147.905003" id="Fill-19" fill="#E0E1E6"></path>
                <polygon id="Fill-21" fill="#BABFC8" points="235.023367 52.6959415 230.028291 47.6847415 270.595064 6.98618769 275.59014 11.9982185"></polygon>
                <polygon id="Fill-23" fill="#FFFFFF" points="267.412939 22.4783723 260.14888 15.1908646 261.410898 13.9239415 268.674957 21.21228"></polygon>
                <path d="M281.202727,39.1627108 L274.565536,39.4160954 C273.888982,21.5736646 258.870631,7.61009538 241.086438,8.28800308 L240.833869,1.62938769 C262.278246,0.811910769 280.38788,17.6491108 281.202727,39.1627108" id="Fill-25" fill="#E0E1E6"></path>
                <polygon id="Stroke-27" stroke="#FFFFFF" stroke-width="2.313" points="405.937828 146.16072 395.442538 135.63072 405.937828 125.101551 416.433118 135.63072"></polygon>
                <polygon id="Stroke-29" stroke="#FFFFFF" stroke-width="2.313" points="88.5842573 146.123418 78.0889671 135.593418 88.5842573 125.064249 99.0795475 135.593418"></polygon>
                <path d="M113.865369,26.1875908 C113.865369,40.2118062 102.532874,51.5792215 88.5546115,51.5792215 C74.576349,51.5792215 63.2446817,40.2118062 63.2446817,26.1875908 C63.2446817,12.1633754 74.576349,0.79596 88.5546115,0.79596 C102.532874,0.79596 113.865369,12.1633754 113.865369,26.1875908" id="Fill-31" fill="#0053FD"></path>
                <polygon id="Stroke-33" stroke="#FFFFFF" stroke-width="2.313" points="88.5842573 36.7166769 78.0889671 26.1875077 88.5842573 15.6583385 99.0795475 26.1875077"></polygon>
                <path d="M431.21894,26.1875908 C431.21894,40.2118062 419.887272,51.5792215 405.90901,51.5792215 C391.929919,51.5792215 380.598252,40.2118062 380.598252,26.1875908 C380.598252,12.1633754 391.929919,0.79596 405.90901,0.79596 C419.887272,0.79596 431.21894,12.1633754 431.21894,26.1875908" id="Fill-35" fill="#0053FD"></path>
                <polygon id="Stroke-37" stroke="#FFFFFF" stroke-width="2.313" points="405.937828 36.7166769 395.442538 26.1875077 405.937828 15.6583385 416.433118 26.1875077"></polygon>
                <path d="M173.844951,135.593585 C173.844951,149.6178 162.512455,160.986046 148.534193,160.986046 C134.55593,160.986046 123.224263,149.6178 123.224263,135.593585 C123.224263,121.5702 134.55593,110.201954 148.534193,110.201954 C162.512455,110.201954 173.844951,121.5702 173.844951,135.593585" id="Fill-39" fill="#0053FD"></path>
                <polygon id="Stroke-41" stroke="#FFFFFF" stroke-width="2.313" points="148.563756 146.123418 138.068466 135.593418 148.563756 125.064249 159.059046 135.593418"></polygon>
                <path d="M30.1872503,9.89188615 C29.702814,4.69376308 25.3370913,0.623824615 20.0149176,0.613855385 C14.6927438,0.623824615 10.3270211,4.69376308 9.84258484,9.89188615 L8.01497671,9.89188615 L8.01497671,11.8134554 L20.0149176,11.8134554 L32.0156865,11.8134554 L32.0156865,9.89188615 L30.1872503,9.89188615 Z" id="Fill-43" fill="#BABFC8"></path>
                <polyline id="Stroke-45" stroke="#FFFFFF" stroke-width="2" points="16.9215645 0.53028 16.9215645 6.96209538 23.1082706 6.96209538"></polyline>
                <polygon id="Fill-47" fill="#E0E1E6" points="20.0147519 13.7350246 9.9550403 13.7350246 9.9550403 28.9671785 20.0147519 36.5354862 30.0744636 28.9671785 30.0744636 13.7350246"></polygon>
                <polygon id="Fill-49" fill="#BABFC8" points="30.4343542 28.6961815 20.0144207 36.5361508 9.59531534 28.6961815 0.000165619224 34.0023046 0.000165619224 51.3246738 1.12720444 52.4561815 20.0144207 52.4561815 20.0152488 52.4561815 38.9024651 52.4561815 40.0295039 51.3246738 40.0295039 34.0023046"></polygon>
                <polyline id="Stroke-51" stroke="#FFFFFF" stroke-width="2" points="23.1080222 0.53028 23.1080222 6.96209538 19.9952089 6.96209538"></polyline>
                <polyline id="Stroke-53" stroke="#FFFFFF" stroke-width="2" points="34.6997116 25.4866708 20.0150832 36.5359015 5.32962662 25.4866708"></polyline>
                <path d="M30.1872503,119.027714 C29.702814,113.829591 25.3370913,109.759652 20.0149176,109.749683 C14.6927438,109.759652 10.3270211,113.829591 9.84258484,119.027714 L8.01497671,119.027714 L8.01497671,120.949283 L20.0149176,120.949283 L32.0156865,120.949283 L32.0156865,119.027714 L30.1872503,119.027714 Z" id="Fill-55" fill="#BABFC8"></path>
                <polyline id="Stroke-57" stroke="#FFFFFF" stroke-width="2" points="16.9215645 109.666108 16.9215645 116.097923 23.1082706 116.097923"></polyline>
                <polygon id="Fill-59" fill="#E0E1E6" points="20.0147519 122.870769 9.9550403 122.870769 9.9550403 138.102923 20.0147519 145.671231 30.0744636 138.102923 30.0744636 122.870769"></polygon>
                <polygon id="Fill-61" fill="#BABFC8" points="30.4343542 137.831926 20.0144207 145.671895 9.59531534 137.831926 0.000165619224 143.138049 0.000165619224 160.460418 1.12720444 161.591926 20.0144207 161.591926 20.0152488 161.591926 38.9024651 161.591926 40.0295039 160.460418 40.0295039 143.138049"></polygon>
                <polyline id="Stroke-63" stroke="#FFFFFF" stroke-width="2" points="23.1080222 109.666108 23.1080222 116.097923 19.9952089 116.097923"></polyline>
                <polyline id="Stroke-65" stroke="#FFFFFF" stroke-width="2" points="34.6997116 134.622415 20.0150832 145.671646 5.32962662 134.622415"></polyline>
            </g>
        </g>
    </g>
</svg>