<?xml version="1.0" encoding="UTF-8"?>
<svg width="431px" height="163px" viewBox="0 0 431 163" version="1.1" xmlns="http://www.w3.org/2000/svg" xmlns:xlink="http://www.w3.org/1999/xlink">
    <!-- Generator: Sketch 48.1 (47250) - http://www.bohemiancoding.com/sketch -->
    <title>Proof-of-Work</title>
    <desc>Created with Sketch.</desc>
    <defs></defs>
    <g id="Mining" stroke="none" stroke-width="1" fill="none" fill-rule="evenodd" transform="translate(-221.000000, -1254.000000)">
        <g id="Proof-of-Work" transform="translate(221.000000, 1254.000000)">
            <path d="M143,27 L203,27" id="Stroke-1" stroke="#E0E1E6" stroke-width="2"></path>
            <polygon id="Fill-2" fill="#E0E1E6" points="197.074016 34 196 32.8356667 201.687402 27.5003974 196 22.1635385 197.074016 21 204 27.5003974"></polygon>
            <path d="M298,27 L358,27" id="Stroke-1" stroke="#E0E1E6" stroke-width="2"></path>
            <polygon id="Fill-2" fill="#E0E1E6" points="352.074016 34 351 32.8356667 356.687402 27.5003974 351 22.1635385 352.074016 21 359 27.5003974"></polygon>
            <path d="M248,135 L268,135" id="Stroke-7" stroke="#E0E1E6" stroke-width="2"></path>
            <polygon id="Fill-8" fill="#E0E1E6" points="262.074016 142 261 140.835667 266.687402 135.500397 261 130.163539 262.074016 129 269 135.500397"></polygon>
            <path d="M347,135 L367,135" id="Stroke-7" stroke="#E0E1E6" stroke-width="2"></path>
            <polygon id="Fill-8" fill="#E0E1E6" points="361.074016 142 360 140.835667 365.687402 135.500397 360 130.163539 361.074016 129 368 135.500397"></polygon>
            <g id="Group-46">
                <path d="M430.356277,134.764366 C430.356277,148.641593 419.122575,159.891886 405.265811,159.891886 C391.409048,159.891886 380.175345,148.641593 380.175345,134.764366 C380.175345,120.887139 391.409048,109.636846 405.265811,109.636846 C419.122575,109.636846 430.356277,120.887139 430.356277,134.764366 Z" id="Fill-9" fill="#0053FD"></path>
                <path d="M378.351701,33.6120818 C379.428545,33.6120818 380.299884,33.0852131 380.966541,32.0331222 C381.633198,30.9810313 381.966115,29.3246879 381.966115,27.0657384 C381.966115,24.8240768 381.633198,23.1891374 380.966541,22.1625667 C380.299884,21.135996 379.428545,20.622299 378.351701,20.622299 C377.257594,20.622299 376.378034,21.135996 375.711378,22.1625667 C375.045543,23.1891374 374.711803,24.8240768 374.711803,27.0657384 C374.711803,29.3246879 375.045543,30.9810313 375.711378,32.0331222 C376.378034,33.0852131 377.257594,33.6120818 378.351701,33.6120818 M378.351701,36.7436576 C377.035649,36.7436576 375.882357,36.5164455 374.891825,36.0636677 C373.899649,35.6100667 373.071055,34.9679455 372.40522,34.1381273 C371.738563,33.3083091 371.233844,32.2940869 370.892706,31.0954606 C370.550746,29.8984808 370.379767,28.5541424 370.379767,27.0657384 C370.379767,25.5765111 370.550746,24.2420515 370.892706,23.0615364 C371.233844,21.880198 371.738563,20.8791475 372.40522,20.0575616 C373.071055,19.2359758 373.899649,18.6037333 374.891825,18.1583646 C375.882357,17.712996 377.035649,17.4907232 378.351701,17.4907232 C379.65049,17.4907232 380.795561,17.712996 381.786915,18.1583646 C382.777447,18.6037333 383.606864,19.2359758 384.273521,20.0575616 C384.939356,20.8791475 385.443253,21.880198 385.785212,23.0615364 C386.127172,24.2420515 386.298152,25.5765111 386.298152,27.0657384 C386.298152,28.5541424 386.127172,29.8984808 385.785212,31.0954606 C385.443253,32.2940869 384.939356,33.3083091 384.273521,34.1381273 C383.606864,34.9679455 382.777447,35.6100667 381.786915,36.0636677 C380.795561,36.5164455 379.65049,36.7436576 378.351701,36.7436576" id="Fill-11" fill="#0053FD"></path>
                <polygon id="Fill-13" fill="#0053FD" points="387.220374 36.4099192 391.988903 36.4099192 391.988903 31.8401566 387.220374 31.8401566"></polygon>
                <path d="M400.857659,33.6120818 C401.934503,33.6120818 402.805842,33.0852131 403.472499,32.0331222 C404.139156,30.9810313 404.472073,29.3246879 404.472073,27.0657384 C404.472073,24.8240768 404.139156,23.1891374 403.472499,22.1625667 C402.805842,21.135996 401.934503,20.622299 400.857659,20.622299 C399.763552,20.622299 398.883993,21.135996 398.217336,22.1625667 C397.551501,23.1891374 397.217761,24.8240768 397.217761,27.0657384 C397.217761,29.3246879 397.551501,30.9810313 398.217336,32.0331222 C398.883993,33.0852131 399.763552,33.6120818 400.857659,33.6120818 M400.857659,36.7436576 C399.541607,36.7436576 398.388316,36.5164455 397.397783,36.0636677 C396.405607,35.6100667 395.577835,34.9679455 394.911178,34.1381273 C394.244521,33.3083091 393.739802,32.2940869 393.398664,31.0954606 C393.056705,29.8984808 392.885725,28.5541424 392.885725,27.0657384 C392.885725,25.5765111 393.056705,24.2420515 393.398664,23.0615364 C393.739802,21.880198 394.244521,20.8791475 394.911178,20.0575616 C395.577835,19.2359758 396.405607,18.6037333 397.397783,18.1583646 C398.388316,17.712996 399.541607,17.4907232 400.857659,17.4907232 C402.156448,17.4907232 403.301519,17.712996 404.292873,18.1583646 C405.283406,18.6037333 406.112822,19.2359758 406.779479,20.0575616 C407.445314,20.8791475 407.949211,21.880198 408.291171,23.0615364 C408.63313,24.2420515 408.80411,25.5765111 408.80411,27.0657384 C408.80411,28.5541424 408.63313,29.8984808 408.291171,31.0954606 C407.949211,32.2940869 407.445314,33.3083091 406.779479,34.1381273 C406.112822,34.9679455 405.283406,35.6100667 404.292873,36.0636677 C403.301519,36.5164455 402.156448,36.7436576 400.857659,36.7436576" id="Fill-15" fill="#0053FD"></path>
                <polygon id="Fill-16" fill="#BABFC8" points="288.152038 160.339231 283.2002 155.380079 323.414159 115.106731 328.365998 120.065882"></polygon>
                <polygon id="Fill-17" fill="#FFFFFF" points="320.260157 130.435975 313.059276 123.22446 314.310388 121.971501 321.511269 129.183839"></polygon>
                <path d="M333.929829,146.947217 L327.350394,147.197479 C326.680449,129.540792 311.792053,115.722838 294.162225,116.394595 L293.91151,109.804621 C315.169726,108.995383 333.121785,125.657606 333.929829,146.947217" id="Fill-18" fill="#E0E1E6"></path>
                <polygon id="Fill-19" fill="#BABFC8" points="227.449107 51.934599 222.497268 46.9754475 262.711228 6.70209899 267.663066 11.6604273"></polygon>
                <polygon id="Fill-20" fill="#FFFFFF" points="259.557637 22.0313434 252.355934 14.8190051 253.607868 13.5668687 260.808749 20.7783838"></polygon>
                <path d="M273.227309,38.5418439 L266.647874,38.7929298 C265.977107,21.1362429 251.089532,7.31746515 233.458883,7.98922273 L233.208989,1.40007121 C254.467206,0.590010606 272.419265,17.2530561 273.227309,38.5418439" id="Fill-21" fill="#E0E1E6"></path>
                <path d="M398.347376,133.761011 L411.698598,133.761011 C412.629945,134.693733 413.151927,135.216485 414.083273,136.148384 L414.083273,139.25197 C413.151927,140.184692 412.629945,140.707445 411.698598,141.640167 L398.347376,141.640167 L398.347376,133.761011 Z" id="Stroke-22" stroke="#FFFFFF" stroke-width="2.31"></path>
                <path d="M398.347376,125.881607 L411.698598,125.881607 C412.629945,126.814329 413.151927,127.337082 414.083273,128.268981 L414.083273,131.37339 C413.151927,132.306112 412.629945,132.828041 411.698598,133.760764 L398.347376,133.760764 L398.347376,125.881607 Z" id="Stroke-23" stroke="#FFFFFF" stroke-width="2.31"></path>
                <path d="M406.21516,125.877656 L406.21516,117.994383" id="Stroke-24" stroke="#FFFFFF" stroke-width="2.31"></path>
                <path d="M406.21516,149.527062 L406.21516,141.640496" id="Stroke-25" stroke="#FFFFFF" stroke-width="2.31"></path>
                <polygon id="Fill-26" fill="#0053FD" points="85.5963596 163.000247 58.3744 135.738909 85.5963596 108.476747 112.817497 135.738909"></polygon>
                <polygon id="Fill-27" fill="#0053FD" points="85.5963596 54.7669298 58.3744 27.5047682 85.5963596 0.243429798 112.817497 27.5047682"></polygon>
                <polygon id="Fill-28" fill="#0053FD" points="145.362108 163.000247 118.14097 135.738909 145.362108 108.476747 172.584068 135.738909"></polygon>
                <polygon id="Fill-29" fill="#0053FD" points="205.080837 163.000247 177.859699 135.738909 205.080837 108.476747 232.302796 135.738909"></polygon>
                <polyline id="Stroke-30" stroke="#FFFFFF" stroke-width="2.31" points="85.6806987 17.0461778 79.6651684 27.5901374 91.697051 27.5901374 85.6806987 38.1324505"></polyline>
                <polyline id="Stroke-31" stroke="#FFFFFF" stroke-width="2.31" points="85.6806987 125.309214 79.6651684 135.85235 91.697051 135.85235 85.6806987 146.395486"></polyline>
                <polyline id="Stroke-32" stroke="#FFFFFF" stroke-width="2.31" points="146.031971 125.309214 140.01644 135.85235 152.047501 135.85235 146.031971 146.395486"></polyline>
                <polyline id="Stroke-33" stroke="#FFFFFF" stroke-width="2.31" points="205.302782 125.309214 199.287251 135.85235 211.318312 135.85235 205.302782 146.395486"></polyline>
                <path d="M29.9656103,10.1684833 C29.4847295,5.01751869 25.1510488,0.984503535 19.8679369,0.973801515 C14.584825,0.984503535 10.2511442,5.01751869 9.77026349,10.1684833 L7.95606899,10.1684833 L7.95606899,12.0726197 L19.8679369,12.0726197 L31.7806268,12.0726197 L31.7806268,10.1684833 L29.9656103,10.1684833 Z" id="Fill-34" fill="#BABFC8"></path>
                <polyline id="Stroke-35" stroke="#FFFFFF" stroke-width="2" points="16.7976983 0.890984343 16.7976983 7.26444899 22.9381754 7.26444899"></polyline>
                <polygon id="Fill-36" fill="#E0E1E6" points="19.8678547 13.9766737 9.88197578 13.9766737 9.88197578 29.0698152 19.8678547 36.5702848 29.8537336 29.0698152 29.8537336 13.9766737"></polygon>
                <polygon id="Fill-37" fill="#BABFC8" points="30.2109006 28.8013591 19.8674437 36.5702025 9.52480881 28.8013591 8.22018349e-05 34.0593439 8.22018349e-05 51.2245611 1.11884917 52.3458035 19.8674437 52.3458035 19.8682657 52.3458035 38.6168602 52.3458035 39.7356272 51.2245611 39.7356272 34.0593439"></polygon>
                <polyline id="Stroke-38" stroke="#FFFFFF" stroke-width="2" points="22.9383398 0.890984343 22.9383398 7.26444899 19.8483728 7.26444899"></polyline>
                <polyline id="Stroke-39" stroke="#FFFFFF" stroke-width="2" points="34.4450349 25.6209657 19.8681835 36.5707788 5.29133211 25.6209657"></polyline>
                <path d="M29.9656103,118.314209 C29.4847295,113.163244 25.1510488,109.130229 19.8679369,109.119527 C14.584825,109.130229 10.2511442,113.163244 9.77026349,118.314209 L7.95606899,118.314209 L7.95606899,120.218345 L19.8679369,120.218345 L31.7806268,120.218345 L31.7806268,118.314209 L29.9656103,118.314209 Z" id="Fill-40" fill="#BABFC8"></path>
                <polyline id="Stroke-41" stroke="#FFFFFF" stroke-width="2" points="16.7976983 109.03671 16.7976983 115.410174 22.9381754 115.410174"></polyline>
                <polygon id="Fill-42" fill="#E0E1E6" points="19.8678547 122.122399 9.88197578 122.122399 9.88197578 137.21554 19.8678547 144.71601 29.8537336 137.21554 29.8537336 122.122399"></polygon>
                <polygon id="Fill-43" fill="#BABFC8" points="30.2109006 136.947002 19.8674437 144.715845 9.52480881 136.947002 8.22018349e-05 142.204987 8.22018349e-05 159.370204 1.11884917 160.491446 19.8674437 160.491446 19.8682657 160.491446 38.6168602 160.491446 39.7356272 159.370204 39.7356272 142.204987"></polygon>
                <polyline id="Stroke-44" stroke="#FFFFFF" stroke-width="2" points="22.9383398 109.03671 22.9383398 115.410174 19.8483728 115.410174"></polyline>
                <polyline id="Stroke-45" stroke="#FFFFFF" stroke-width="2" points="34.4450349 133.766691 19.8681835 144.716504 5.29133211 133.766691"></polyline>
            </g>
        </g>
    </g>
</svg>