<svg xmlns="http://www.w3.org/2000/svg" width="87" height="87" viewBox="0 0 87 87">
  <g fill="none" fill-rule="evenodd">
    <circle cx="43.5" cy="43.5" r="43.5" fill="#FFF"/>
    <g transform="translate(23 23)">
      <path fill="#4F89DC" d="M37,41 L4,41 C1.8,41 0,39.2 0,37 L0,4 C0,1.8 1.8,0 4,0 L37,0 C39.2,0 41,1.8 41,4 L41,37 C41,39.2 39.2,41 37,41"/>
      <path fill="#0044BA" d="M9.5 22.5C9.5 23.604 8.604 24.5 7.5 24.5 6.396 24.5 5.5 23.604 5.5 22.5 5.5 21.396 6.396 20.5 7.5 20.5 8.604 20.5 9.5 21.396 9.5 22.5M32 16.5L9 16.5C6.8 16.5 5 14.7 5 12.5L5 10.5C5 8.3 6.8 6.5 9 6.5L32 6.5C34.2 6.5 36 8.3 36 10.5L36 12.5C36 14.7 34.2 16.5 32 16.5"/>
      <path fill="#A2E0F5" fill-rule="nonzero" d="M14.5,24 L34.5,24 C35.3284271,24 36,23.3284271 36,22.5 C36,21.6715729 35.3284271,21 34.5,21 L14.5,21 C13.6715729,21 13,21.6715729 13,22.5 C13,23.3284271 13.6715729,24 14.5,24 Z"/>
      <path fill="#0044BA" d="M9.5,28.5 C9.5,29.604 8.604,30.5 7.5,30.5 C6.396,30.5 5.5,29.604 5.5,28.5 C5.5,27.396 6.396,26.5 7.5,26.5 C8.604,26.5 9.5,27.396 9.5,28.5"/>
      <path fill="#A2E0F5" fill-rule="nonzero" d="M14.5,30 L34.5,30 C35.3284271,30 36,29.3284271 36,28.5 C36,27.6715729 35.3284271,27 34.5,27 L14.5,27 C13.6715729,27 13,27.6715729 13,28.5 C13,29.3284271 13.6715729,30 14.5,30 Z"/>
    </g>
  </g>
</svg>
