<svg xmlns="http://www.w3.org/2000/svg" xmlns:xlink="http://www.w3.org/1999/xlink" width="107" height="107" viewBox="0 0 107 107">
  <defs>
    <circle id="plans_dex-b" cx="43.5" cy="43.5" r="43.5"/>
    <filter id="plans_dex-a" width="136.8%" height="136.8%" x="-18.4%" y="-16.1%" filterUnits="objectBoundingBox">
      <feOffset dy="2" in="SourceAlpha" result="shadowOffsetOuter1"/>
      <feGaussianBlur in="shadowOffsetOuter1" result="shadowBlurOuter1" stdDeviation="5"/>
      <feColorMatrix in="shadowBlurOuter1" values="0 0 0 0 0.403921569   0 0 0 0 0.647058824   0 0 0 0 1  0 0 0 0.2 0"/>
    </filter>
  </defs>
  <g fill="none" fill-rule="evenodd" transform="translate(10 8)">
    <use fill="#000" filter="url(#plans_dex-a)" xlink:href="#plans_dex-b"/>
    <use fill="#FFF" xlink:href="#plans_dex-b"/>
    <path fill="#4F89DC" d="M54.9238 41.8091C54.4308 41.9591 53.9448 42.0381 53.4658 42.0881 53.7368 42.2261 54.0108 42.3651 54.2758 42.5021 55.5108 43.1441 56.6768 43.7501 57.9028 44.1591 59.8338 44.8031 61.9078 44.9461 63.9998 44.9321L63.9998 35.1991 58.6168 39.5701C57.5878 40.4061 56.4218 41.3521 54.9238 41.8091M30.3447 38.2974C33.0417 39.7314 35.4527 40.8724 37.6547 40.2964 37.8927 40.2344 38.1247 40.1534 38.3577 40.0744 38.5997 39.9924 38.8427 39.9104 39.0887 39.8404 39.8537 39.6204 40.7037 39.4914 41.7627 39.4344 43.6777 39.3314 45.6047 39.4944 47.4807 39.8934 48.1127 39.6304 48.7757 39.4254 49.4777 39.3114 50.2547 39.1844 51.0037 39.1744 51.7277 39.1664 52.5727 39.1554 53.3697 39.1464 54.0487 38.9394 54.9867 38.6534 55.8707 37.9354 56.7267 37.2414L63.9997 31.3344 63.9997 27.0004C63.9997 24.7994 62.1997 23.0004 59.9997 23.0004L26.9997 23.0004C24.7997 23.0004 22.9997 24.7994 22.9997 27.0004L22.9997 36.0014C25.4897 35.9474 27.9797 37.0394 30.3447 38.2974M56.9541 47.0049C55.5041 46.5219 54.1761 45.8309 52.8921 45.1639 52.0641 44.7339 51.2831 44.3279 50.4771 43.9769 49.6191 43.6029 48.7301 43.3009 47.8251 43.0579 46.5971 43.7359 45.4371 44.7289 44.3041 45.7029L44.0001 45.9629C41.6921 47.9419 39.0971 49.7489 36.0341 49.7079 33.6271 49.6639 31.6621 48.5029 29.7631 47.3799 28.9601 46.9059 28.2031 46.4579 27.4321 46.1059 25.9961 45.4479 24.4591 45.1489 23.0001 45.2029L23.0001 59.9999C23.0001 62.1999 24.8001 63.9999 27.0001 63.9999L60.0001 63.9999C62.2001 63.9999 64.0001 62.1999 64.0001 59.9999L64.0001 47.9329C61.6801 47.9479 59.2641 47.7749 56.9541 47.0049"/>
    <path fill="#4F89DC" d="M28.6797,43.377 C29.5937,43.795 30.4557,44.305 31.2897,44.798 C32.9267,45.765 34.4727,46.679 36.0887,46.708 C38.1777,46.773 40.1907,45.278 42.0487,43.685 L42.3477,43.428 C42.7337,43.096 43.1337,42.757 43.5417,42.42 C43.0027,42.403 42.4617,42.4 41.9237,42.431 C41.0847,42.476 40.4657,42.566 39.9147,42.724 C39.7147,42.781 39.5187,42.849 39.3237,42.915 C39.0217,43.018 38.7197,43.119 38.4117,43.199 C34.8957,44.114 31.4517,42.284 28.9367,40.946 C27.0497,39.942 24.9387,38.946 22.9997,39.018 L22.9997,42.203 C24.8927,42.152 26.8587,42.544 28.6797,43.377"/>
    <path fill="#0044BA" d="M28.9365 40.9458C31.4525 42.2838 34.8955 44.1138 38.4125 43.1988 38.7195 43.1188 39.0215 43.0178 39.3235 42.9148 39.5195 42.8488 39.7145 42.7808 39.9145 42.7238 40.4655 42.5658 41.0845 42.4758 41.9235 42.4308 42.4615 42.4008 43.0025 42.4028 43.5415 42.4208 44.7265 41.4448 46.0155 40.5028 47.4805 39.8928 45.6045 39.4938 43.6775 39.3308 41.7625 39.4348 40.7035 39.4918 39.8535 39.6208 39.0885 39.8408 38.8425 39.9108 38.5995 39.9918 38.3575 40.0748 38.1245 40.1538 37.8935 40.2348 37.6545 40.2968 35.4535 40.8718 33.0415 39.7308 30.3445 38.2978 27.9795 37.0398 25.4895 35.9478 22.9995 36.0008L22.9995 39.0178C24.9385 38.9458 27.0495 39.9428 28.9365 40.9458M57.9033 44.1592C56.6763 43.7502 55.5103 43.1442 54.2753 42.5022 54.0103 42.3652 53.7373 42.2262 53.4663 42.0882 52.8883 42.1462 52.3213 42.1592 51.7643 42.1662 51.1233 42.1742 50.5163 42.1812 49.9623 42.2722 49.2213 42.3932 48.5123 42.6782 47.8253 43.0572 48.7303 43.3012 49.6193 43.6032 50.4773 43.9772 51.2833 44.3282 52.0643 44.7342 52.8923 45.1642 54.1753 45.8312 55.5043 46.5212 56.9543 47.0052 59.2633 47.7742 61.6793 47.9482 64.0003 47.9322L64.0003 44.9312C61.9083 44.9462 59.8343 44.8032 57.9033 44.1592"/>
    <path fill="#A2E0F5" d="M27.4316 46.1055C28.2026 46.4585 28.9606 46.9065 29.7636 47.3795 31.6626 48.5025 33.6266 49.6645 36.0346 49.7085 39.0976 49.7495 41.6916 47.9415 44.0006 45.9625L44.3036 45.7035C45.4376 44.7285 46.5966 43.7355 47.8256 43.0575 46.4266 42.6825 44.9876 42.4675 43.5416 42.4205 43.1336 42.7565 42.7336 43.0965 42.3476 43.4285L42.0486 43.6855C40.1906 45.2785 38.1776 46.7735 36.0886 46.7085 34.4726 46.6785 32.9266 45.7645 31.2896 44.7975 30.4556 44.3045 29.5936 43.7955 28.6796 43.3765 26.8586 42.5435 24.8926 42.1525 22.9996 42.2035L22.9996 45.2035C24.4596 45.1485 25.9956 45.4485 27.4316 46.1055M56.7266 37.2412C55.8716 37.9352 54.9866 38.6532 54.0486 38.9392 53.3706 39.1462 52.5726 39.1562 51.7276 39.1662 51.0036 39.1752 50.2546 39.1842 49.4776 39.3112 48.7756 39.4262 48.1126 39.6302 47.4806 39.8932 48.9196 40.1992 50.3306 40.6392 51.6766 41.2272 52.2906 41.4942 52.8826 41.7892 53.4656 42.0882 53.9456 42.0382 54.4306 41.9592 54.9236 41.8092 56.4216 41.3522 57.5876 40.4062 58.6176 39.5702L63.9996 35.1992 63.9996 31.3342 56.7266 37.2412z"/>
    <path fill="#A2E0F5" d="M47.8252,43.0576 C48.5122,42.6776 49.2212,42.3926 49.9622,42.2716 C50.5162,42.1816 51.1232,42.1736 51.7642,42.1656 C52.3212,42.1596 52.8882,42.1466 53.4662,42.0876 C52.8832,41.7896 52.2912,41.4946 51.6772,41.2266 C50.3302,40.6396 48.9202,40.1986 47.4802,39.8926 C46.0152,40.5026 44.7262,41.4446 43.5422,42.4206 C44.9872,42.4676 46.4272,42.6826 47.8252,43.0576"/>
  </g>
</svg>
