<svg xmlns="http://www.w3.org/2000/svg" width="87" height="87" viewBox="0 0 87 87">
  <g fill="none" fill-rule="evenodd">
    <circle cx="43.5" cy="43.5" r="43.5" fill="#FFF"/>
    <path fill="#0044BA" d="M54,38.2925 C54,39.0715 53.938,39.8375 53.815,40.5855 C52.622,47.9435 45.772,53.5845 37.5,53.5845 C28.387,53.5845 21,46.7385 21,38.2925 C21,29.8465 28.387,23.0005 37.5,23.0005 C46.612,23.0005 54,29.8465 54,38.2925"/>
    <path fill="#4F89DC" d="M44.7314,60.8291 L54.7104,44.2191 C54.7104,44.2191 37.4874,42.3171 42.3164,43.9271 C47.1464,45.5361 44.7314,60.8291 44.7314,60.8291"/>
    <path fill="#4F89DC" d="M32,45.293 C32,46.072 32.063,46.838 32.184,47.585 C33.378,54.943 40.228,60.585 48.5,60.585 C57.612,60.585 65,53.738 65,45.293 C65,36.847 57.612,30 48.5,30 C39.387,30 32,36.847 32,45.293"/>
    <path fill="#4F89DC" d="M43.2681,68.8291 L33.2891,52.2191 C33.2891,52.2191 50.5121,50.3171 45.6831,51.9271 C40.8531,53.5361 43.2681,68.8291 43.2681,68.8291"/>
    <path fill="#A2E0F5" d="M42 47C40.896 47 40 46.104 40 45 40 43.896 40.896 43 42 43 43.104 43 44 43.896 44 45 44 46.104 43.104 47 42 47zM50 45C50 46.104 49.104 47 48 47 46.896 47 46 46.104 46 45 46 43.896 46.896 43 48 43 49.104 43 50 43.896 50 45M56 45C56 46.104 55.104 47 54 47 52.896 47 52 46.104 52 45 52 43.896 52.896 43 54 43 55.104 43 56 43.896 56 45"/>
  </g>
</svg>
