<svg xmlns="http://www.w3.org/2000/svg" xmlns:xlink="http://www.w3.org/1999/xlink" width="107" height="107" viewBox="0 0 107 107">
  <defs>
    <circle id="plans_multi-b" cx="43.5" cy="43.5" r="43.5"/>
    <filter id="plans_multi-a" width="136.8%" height="136.8%" x="-18.4%" y="-16.1%" filterUnits="objectBoundingBox">
      <feOffset dy="2" in="SourceAlpha" result="shadowOffsetOuter1"/>
      <feGaussianBlur in="shadowOffsetOuter1" result="shadowBlurOuter1" stdDeviation="5"/>
      <feColorMatrix in="shadowBlurOuter1" values="0 0 0 0 0.403921569   0 0 0 0 0.647058824   0 0 0 0 1  0 0 0 0.2 0"/>
    </filter>
  </defs>
  <g fill="none" fill-rule="evenodd" transform="translate(10 8)">
    <use fill="#000" filter="url(#plans_multi-a)" xlink:href="#plans_multi-b"/>
    <use fill="#FFF" xlink:href="#plans_multi-b"/>
    <path fill="#4F89DC" d="M65,43.5 C65,55.374 55.374,65 43.5,65 C31.626,65 22,55.374 22,43.5 C22,31.626 31.626,22 43.5,22 C55.374,22 65,31.626 65,43.5"/>
    <path fill="#0044BA" fill-rule="nonzero" d="M42.001,43.0171 C42.001,47.1592204 45.3592661,50.5171 49.501,50.5171 C50.3294271,50.5171 51.001,49.8455271 51.001,49.0171 C51.001,48.1886729 50.3294271,47.5171 49.501,47.5171 C47.0160431,47.5171 45.001,45.5022889 45.001,43.0171 C45.001,42.1886729 44.3294271,41.5171 43.501,41.5171 C42.6725729,41.5171 42.001,42.1886729 42.001,43.0171 Z"/>
    <path fill="#A2E0F5" fill-rule="nonzero" d="M39.001,43.0171 C39.001,40.5325271 41.0164271,38.5171 43.501,38.5171 C45.9855729,38.5171 48.001,40.5325271 48.001,43.0171 C48.001,43.8455271 48.6725729,44.5171 49.501,44.5171 C50.3294271,44.5171 51.001,43.8455271 51.001,43.0171 C51.001,38.8756729 47.6424271,35.5171 43.501,35.5171 C39.3595729,35.5171 36.001,38.8756729 36.001,43.0171 C36.001,43.8455271 36.6725729,44.5171 37.501,44.5171 C38.3294271,44.5171 39.001,43.8455271 39.001,43.0171 Z"/>
    <path fill="#A2E0F5" fill-rule="nonzero" d="M36.001028,43.0262625 C36.0286852,47.5539748 38.7470768,51.6313997 42.9156557,53.3981764 C43.6784032,53.7214531 44.5587997,53.3651917 44.8820764,52.6024443 C45.2053531,51.8396968 44.8490917,50.9593003 44.0863443,50.6360236 C41.0205896,49.336659 39.0213126,46.337863 39.000972,43.0079375 C38.9959117,42.1795259 38.3202492,41.5120677 37.4918375,41.517128 C36.6634259,41.5221883 35.9959677,42.1978508 36.001028,43.0262625 Z"/>
    <path fill="#0044BA" fill-rule="nonzero" d="M35.5386922,51.1419639 C33.8438559,48.7846743 32.9538067,45.9441813 33.000605,43.0417829 C32.9841695,37.214044 37.6722036,32.4992196 43.4711006,32.4825938 C49.2698171,32.4659686 53.9850565,37.1544153 54.0008055,42.9526742 C54.0034304,43.8582727 53.8888713,44.7617475 53.6602357,45.6394979 C53.4514157,46.4411747 53.9320211,47.2603443 54.7336979,47.4691643 C55.5353747,47.6779843 56.3545443,47.1973789 56.5633643,46.3957021 C56.8570095,45.2683745 57.0041663,44.1078162 57.0007937,42.9442522 C56.9805445,35.4891646 50.9181629,29.4612303 43.4624994,29.4826062 C36.0067793,29.5039822 29.9794322,35.5657731 30.0008062,43.0218999 C29.9437977,46.540749 31.0315867,50.0123067 33.1029078,52.8932361 C33.5865083,53.5658594 34.5238128,53.7190927 35.1964361,53.2354922 C35.8690594,52.7518917 36.0222927,51.8145872 35.5386922,51.1419639 Z"/>
  </g>
</svg>
