<svg xmlns="http://www.w3.org/2000/svg" xmlns:xlink="http://www.w3.org/1999/xlink" width="107" height="107" viewBox="0 0 107 107">
  <defs>
    <circle id="plans_smart-b" cx="43.5" cy="43.5" r="43.5"/>
    <filter id="plans_smart-a" width="136.8%" height="136.8%" x="-18.4%" y="-16.1%" filterUnits="objectBoundingBox">
      <feOffset dy="2" in="SourceAlpha" result="shadowOffsetOuter1"/>
      <feGaussianBlur in="shadowOffsetOuter1" result="shadowBlurOuter1" stdDeviation="5"/>
      <feColorMatrix in="shadowBlurOuter1" values="0 0 0 0 0.403921569   0 0 0 0 0.647058824   0 0 0 0 1  0 0 0 0.2 0"/>
    </filter>
  </defs>
  <g fill="none" fill-rule="evenodd" transform="translate(10 8)">
    <use fill="#000" filter="url(#plans_smart-a)" xlink:href="#plans_smart-b"/>
    <use fill="#FFF" xlink:href="#plans_smart-b"/>
    <path fill="#4F89DC" d="M57,65 L31,65 C28.8,65 27,63.2 27,61 L27,26 C27,23.8 28.8,22 31,22 L57,22 C59.2,22 61,23.8 61,26 L61,61 C61,63.2 59.2,65 57,65"/>
    <path fill="#0044BA" d="M51 22L56.7894737 22C59.1052632 22 61 23.8 61 26L61 30.25 61 61M37 52C37 53.104 36.104 54 35 54 33.896 54 33 53.104 33 52 33 50.896 33.896 50 35 50 36.104 50 37 50.896 37 52M43 52C43 53.104 42.104 54 41 54 39.896 54 39 53.104 39 52 39 50.896 39.896 50 41 50 42.104 50 43 50.896 43 52"/>
    <path fill="#A2E0F5" fill-rule="nonzero" d="M34 37.5L54 37.5C54.8284271 37.5 55.5 36.8284271 55.5 36 55.5 35.1715729 54.8284271 34.5 54 34.5L34 34.5C33.1715729 34.5 32.5 35.1715729 32.5 36 32.5 36.8284271 33.1715729 37.5 34 37.5zM34 43.5L54 43.5C54.8284271 43.5 55.5 42.8284271 55.5 42 55.5 41.1715729 54.8284271 40.5 54 40.5L34 40.5C33.1715729 40.5 32.5 41.1715729 32.5 42 32.5 42.8284271 33.1715729 43.5 34 43.5z"/>
  </g>
</svg>
