<svg xmlns="http://www.w3.org/2000/svg" xmlns:xlink="http://www.w3.org/1999/xlink" width="865" height="601" viewBox="0 0 865 601">
  <defs>
    <path id="index_5st_screen_image-b" d="M28.4224329,0 L806.27244,0 C821.969716,0 834.694873,12.7266141 834.694873,28.4224318 L834.694873,542.815791 C834.694873,558.513067 821.96711,571.238223 806.27244,571.238223 L28.4224329,571.238223 C12.7251567,571.238223 0,558.511609 0,542.815791 L0,28.4224318 C0,12.7251562 12.7277631,0 28.4224329,0 Z"/>
    <filter id="index_5st_screen_image-a" width="108%" height="111.7%" x="-4%" y="-3.8%" filterUnits="objectBoundingBox">
      <feOffset dy="2" in="SourceAlpha" result="shadowOffsetOuter1"/>
      <feGaussianBlur in="shadowOffsetOuter1" result="shadowBlurOuter1" stdDeviation="3"/>
      <feColorMatrix in="shadowBlurOuter1" result="shadowMatrixOuter1" values="0 0 0 0 0.694117647   0 0 0 0 0.752941176   0 0 0 0 0.839215686  0 0 0 0.4 0"/>
      <feOffset dy="10" in="SourceAlpha" result="shadowOffsetOuter2"/>
      <feGaussianBlur in="shadowOffsetOuter2" result="shadowBlurOuter2" stdDeviation="7.5"/>
      <feColorMatrix in="shadowBlurOuter2" result="shadowMatrixOuter2" values="0 0 0 0 0.705882353   0 0 0 0 0.788235294   0 0 0 0 0.952941176  0 0 0 0.35 0"/>
      <feMerge>
        <feMergeNode in="shadowMatrixOuter1"/>
        <feMergeNode in="shadowMatrixOuter2"/>
      </feMerge>
    </filter>
    <filter id="index_5st_screen_image-c" width="111%" height="116.1%" x="-5.5%" y="-6%" filterUnits="objectBoundingBox">
      <feGaussianBlur in="SourceAlpha" result="shadowBlurInner1" stdDeviation="15"/>
      <feOffset dy="-20" in="shadowBlurInner1" result="shadowOffsetInner1"/>
      <feComposite in="shadowOffsetInner1" in2="SourceAlpha" k2="-1" k3="1" operator="arithmetic" result="shadowInnerInner1"/>
      <feColorMatrix in="shadowInnerInner1" result="shadowMatrixInner1" values="0 0 0 0 0.960784314   0 0 0 0 0.976470588   0 0 0 0 1  0 0 0 0 0"/>
      <feGaussianBlur in="SourceAlpha" result="shadowBlurInner2" stdDeviation="1.5"/>
      <feOffset dy="1" in="shadowBlurInner2" result="shadowOffsetInner2"/>
      <feComposite in="shadowOffsetInner2" in2="SourceAlpha" k2="-1" k3="1" operator="arithmetic" result="shadowInnerInner2"/>
      <feColorMatrix in="shadowInnerInner2" result="shadowMatrixInner2" values="0 0 0 0 0.450382734   0 0 0 0 0.684886101   0 0 0 0 1  0 0 0 0.2 0"/>
      <feMerge>
        <feMergeNode in="shadowMatrixInner1"/>
        <feMergeNode in="shadowMatrixInner2"/>
      </feMerge>
    </filter>
    <linearGradient id="index_5st_screen_image-d" x1="50%" x2="50%" y1="0%" y2="100%">
      <stop offset="0%" stop-color="#F3F4F6"/>
      <stop offset="100%" stop-color="#FFF"/>
    </linearGradient>
    <linearGradient id="index_5st_screen_image-e" x1="50%" x2="50%" y1="7.014%" y2="99.401%">
      <stop offset="0%" stop-color="#A9C2FF"/>
      <stop offset="100%" stop-color="#DFE4EE" stop-opacity="0"/>
    </linearGradient>
  </defs>
  <g fill="none" fill-rule="evenodd" transform="translate(15 5)">
    <use fill="#000" filter="url(#index_5st_screen_image-a)" xlink:href="#index_5st_screen_image-b"/>
    <use fill="#FFF" xlink:href="#index_5st_screen_image-b"/>
    <use fill="#000" filter="url(#index_5st_screen_image-c)" xlink:href="#index_5st_screen_image-b"/>
    <path fill="url(#index_5st_screen_image-d)" d="M636.513642,115.323593 C637.612496,115.323593 638.503294,114.432795 638.503294,113.333941 C638.503294,112.235086 637.612496,111.344288 636.513642,111.344288 C635.414787,111.344288 634.523989,112.235086 634.523989,113.333941 C634.523989,114.432795 635.414787,115.323593 636.513642,115.323593 Z" style="mix-blend-mode:multiply"/>
    <path fill="url(#index_5st_screen_image-e)" d="M71,424.654732 C74.9986979,406.601346 83.6940104,396.635852 97.0859375,394.758247 C117.173828,391.941841 140.828125,378.324654 151.783203,366.115669 C162.738281,353.906685 161.087891,318.76606 181.609375,317.045357 C202.130859,315.324654 208.044922,355.46196 215.435547,363.14106 C222.826172,370.820159 244.216797,384.195747 264.564453,359.228951 C284.912109,334.262154 264.128906,235.262154 294.564453,235.262154 C325,235.262154 328.738281,277.992622 370.912109,278.070747 C413.085937,278.148872 398.738281,318.375435 419.695312,322.523872 C440.652344,326.67231 436.478516,282.924263 454.652344,282.924263 C472.826172,282.924263 477.347656,364.002388 510.652344,354.14106 C543.957031,344.279732 514.912109,244.340279 536.042969,223.914497 C550.130208,210.29731 560.072266,202.601997 565.869141,200.82856 L565.869141,443 L71.2561014,443 L71,424.654732 Z"/>
    <path fill="#263F6F" d="M75,61 L757.10219,61 L757.10219,61 C758.759044,61 760.10219,62.3431458 760.10219,64 L760.10219,114.20438 L760.10219,114.20438 C760.10219,115.861234 758.759044,117.20438 757.10219,117.20438 L75,117.20438 L75,117.20438 C73.3431458,117.20438 72,115.861234 72,114.20438 L72,64 L72,64 C72,62.3431458 73.3431458,61 75,61 Z" opacity=".8"/>
    <path fill="#DFE4EE" d="M75 142L273.722628 142 273.722628 142C275.379482 142 276.722628 143.343146 276.722628 145L276.722628 155.861314 276.722628 155.861314C276.722628 157.518168 275.379482 158.861314 273.722628 158.861314L75 158.861314 75 158.861314C73.3431458 158.861314 72 157.518168 72 155.861314L72 145 72 145C72 143.343146 73.3431458 142 75 142zM75 472L273.722628 472 273.722628 472C275.379482 472 276.722628 473.343146 276.722628 475L276.722628 485.860001 276.722628 485.860001C276.722628 487.516855 275.379482 488.860001 273.722628 488.860001L75 488.860001 75 488.860001C73.3431458 488.860001 72 487.516855 72 485.860001L72 475 72 475C72 473.343146 73.3431458 472 75 472zM72.5 507L276.222628 507 276.222628 507C276.49877 507 276.722628 507.223858 276.722628 507.5L276.722628 507.5 276.722628 507.5C276.722628 507.776142 276.49877 508 276.222628 508L72.5 508 72.5 508C72.2238576 508 72 507.776142 72 507.5L72 507.5 72 507.5C72 507.223858 72.2238576 507 72.5 507zM453.5 507L568.220001 507 568.220001 507C568.496144 507 568.720001 507.223858 568.720001 507.5L568.720001 507.5 568.720001 507.5C568.720001 507.776142 568.496144 508 568.220001 508L453.5 508 453.5 508C453.223858 508 453 507.776142 453 507.5L453 507.5 453 507.5C453 507.223858 453.223858 507 453.5 507zM318.5 507L433.220001 507 433.220001 507C433.496144 507 433.720001 507.223858 433.720001 507.5L433.720001 507.5 433.720001 507.5C433.720001 507.776142 433.496144 508 433.220001 508L318.5 508 318.5 508C318.223858 508 318 507.776142 318 507.5L318 507.5 318 507.5C318 507.223858 318.223858 507 318.5 507zM456 472L565.720001 472 565.720001 472C567.376855 472 568.720001 473.343146 568.720001 475L568.720001 485.860001 568.720001 485.860001C568.720001 487.516855 567.376855 488.860001 565.720001 488.860001L456 488.860001 456 488.860001C454.343146 488.860001 453 487.516855 453 485.860001L453 475 453 475C453 473.343146 454.343146 472 456 472zM321 472L430.720001 472 430.720001 472C432.376855 472 433.720001 473.343146 433.720001 475L433.720001 485.860001 433.720001 485.860001C433.720001 487.516855 432.376855 488.860001 430.720001 488.860001L321 488.860001 321 488.860001C319.343146 488.860001 318 487.516855 318 485.860001L318 475 318 475C318 473.343146 319.343146 472 321 472zM365 142L563.722628 142 563.722628 142C565.379482 142 566.722628 143.343146 566.722628 145L566.722628 155.861314 566.722628 155.861314C566.722628 157.518168 565.379482 158.861314 563.722628 158.861314L365 158.861314 365 158.861314C363.343146 158.861314 362 157.518168 362 155.861314L362 145 362 145C362 143.343146 363.343146 142 365 142z"/>
    <path stroke="#263F6F" stroke-linecap="round" stroke-width="6" d="M297 150.80292L340.363359 150.80292M611 151L684.360001 151M611 315L704.360001 315" opacity=".3"/>
    <path fill="#B5BDCE" stroke="#DFE4EE" stroke-linecap="round" stroke-width="6" d="M611 335L756.360001 335M611 347L756.360001 347M611 359L736.360001 359M611 385L756.360001 385M611 397L756.360001 397M611 409L686.360001 409M611 435L756.360001 435M611 447L736.360001 447M611 475L756.360001 475M611 487L706.360001 487"/>
    <path fill="#F5A623" d="M609 178L656.722628 178 656.722628 178C658.379482 178 659.722628 179.343146 659.722628 181L659.722628 191.861314 659.722628 191.861314C659.722628 193.518168 658.379482 194.861314 656.722628 194.861314L609 194.861314 609 194.861314C607.343146 194.861314 606 193.518168 606 191.861314L606 181 606 181C606 179.343146 607.343146 178 609 178zM673 178L730.722628 178 730.722628 178C732.379482 178 733.722628 179.343146 733.722628 181L733.722628 191.861314 733.722628 191.861314C733.722628 193.518168 732.379482 194.861314 730.722628 194.861314L673 194.861314 673 194.861314C671.343146 194.861314 670 193.518168 670 191.861314L670 181 670 181C670 179.343146 671.343146 178 673 178zM609 205L646.722628 205 646.722628 205C648.379482 205 649.722628 206.343146 649.722628 208L649.722628 218.861314 649.722628 218.861314C649.722628 220.518168 648.379482 221.861314 646.722628 221.861314L609 221.861314 609 221.861314C607.343146 221.861314 606 220.518168 606 218.861314L606 208 606 208C606 206.343146 607.343146 205 609 205zM663 205L710.722628 205 710.722628 205C712.379482 205 713.722628 206.343146 713.722628 208L713.722628 218.861314 713.722628 218.861314C713.722628 220.518168 712.379482 221.861314 710.722628 221.861314L663 221.861314 663 221.861314C661.343146 221.861314 660 220.518168 660 218.861314L660 208 660 208C660 206.343146 661.343146 205 663 205zM609 232L676.722628 232 676.722628 232C678.379482 232 679.722628 233.343146 679.722628 235L679.722628 245.861314 679.722628 245.861314C679.722628 247.518168 678.379482 248.861314 676.722628 248.861314L609 248.861314 609 248.861314C607.343146 248.861314 606 247.518168 606 245.861314L606 235 606 235C606 233.343146 607.343146 232 609 232zM692 232L749.722628 232 749.722628 232C751.379482 232 752.722628 233.343146 752.722628 235L752.722628 245.861314 752.722628 245.861314C752.722628 247.518168 751.379482 248.861314 749.722628 248.861314L692 248.861314 692 248.861314C690.343146 248.861314 689 247.518168 689 245.861314L689 235 689 235C689 233.343146 690.343146 232 692 232zM609 259L646.722628 259 646.722628 259C648.379482 259 649.722628 260.343146 649.722628 262L649.722628 272.861314 649.722628 272.861314C649.722628 274.518168 648.379482 275.861314 646.722628 275.861314L609 275.861314 609 275.861314C607.343146 275.861314 606 274.518168 606 272.861314L606 262 606 262C606 260.343146 607.343146 259 609 259zM663 259L700.722628 259 700.722628 259C702.379482 259 703.722628 260.343146 703.722628 262L703.722628 272.861314 703.722628 272.861314C703.722628 274.518168 702.379482 275.861314 700.722628 275.861314L663 275.861314 663 275.861314C661.343146 275.861314 660 274.518168 660 272.861314L660 262 660 262C660 260.343146 661.343146 259 663 259z"/>
    <g fill="#FFF" transform="translate(85 74)">
      <path d="M26.4657237,9.13124374 L18.4982302,1.0440442 C17.1267764,-0.348014734 14.9063274,-0.348014734 13.5348736,1.0440442 L5.63268741,9.13124374 C5.17553614,9.59526338 5.17553614,10.3244371 5.63268741,10.7884568 L8.04905839,13.241132 L9.61643416,14.765768 C10.0735854,15.2297877 10.791966,15.2297877 11.3144246,14.765768 L14.5144834,11.7827846 C15.3634786,10.9873223 16.7349324,10.9873223 17.649235,11.7827846 L20.8492938,14.765768 C21.3064451,15.2297877 22.0248257,15.2297877 22.5472843,14.765768 L24.1799673,13.241132 L26.5963383,10.7884568 C26.9228749,10.3244371 26.9228749,9.59526338 26.4657237,9.13124374 Z" opacity=".5"/>
      <path d="M1.06492622,18.5863102 L13.5659382,31.0860506 C14.940395,32.4603676 17.1657061,32.4603676 18.5401629,31.0860506 L31.0411749,18.5863102 C33.2010356,16.4266691 31.6956781,15.7722325 30.1248703,14.2670281 L28.1613606,12.4346054 C27.7032083,11.9764998 26.9832548,11.9764998 26.4596522,12.4346054 L23.2525863,15.3795705 C22.401732,16.1648945 21.0272752,16.1648945 20.1109707,15.3795705 L16.9039048,12.4346054 C16.4457525,11.9764998 15.7257989,11.9764998 15.2021963,12.4346054 L11.9951304,15.3795705 C11.1442762,16.1648945 9.76981939,16.1648945 8.85351485,15.3795705 L5.64644894,12.4346054 C5.18829667,11.9764998 4.4683431,11.9764998 3.9447405,12.4346054 L2.17758174,14.0706971 C0.54132362,15.6413451 -1.16038482,16.3612255 1.06492622,18.5863102 Z"/>
    </g>
    <path stroke="#FFF" stroke-linecap="round" stroke-width="6" d="M319,74.8029197 L512.622833,74.8029197" opacity=".4"/>
    <g fill="#FFF" transform="translate(316 87)">
      <circle cx="10.149" cy="10.149" r="10.149" opacity=".4"/>
      <circle cx="40.221" cy="10.149" r="10.149" opacity=".4"/>
      <circle cx="70.293" cy="10.149" r="10.149"/>
      <circle cx="100.365" cy="10.149" r="10.149" opacity=".4"/>
      <circle cx="130.437" cy="10.149" r="10.149" opacity=".4"/>
      <circle cx="160.509" cy="10.149" r="10.149" opacity=".4"/>
      <circle cx="190.581" cy="10.149" r="10.149" opacity=".4"/>
    </g>
    <circle cx="743.423" cy="77.423" r="6.423" fill="#FFF" opacity=".4"/>
    <circle cx="718.423" cy="77.423" r="6.423" fill="#FFF" opacity=".4"/>
    <circle cx="693.423" cy="77.423" r="6.423" fill="#FFF" opacity=".4"/>
    <circle cx="669.022" cy="77.022" r="6.022" fill="#FFF" opacity=".4"/>
    <rect width="495" height="265" x="71.5" y="178.5" stroke="#DFE4EE"/>
    <polygon fill="#DFE4EE" fill-rule="nonzero" points="71 445 567 445 567 444 71 444" opacity=".33"/>
    <polygon fill="#DFE4EE" fill-rule="nonzero" points="71 420 567 420 567 419 71 419" opacity=".33"/>
    <polygon fill="#DFE4EE" fill-rule="nonzero" points="71 402 567 402 567 401 71 401" opacity=".33"/>
    <polygon fill="#DFE4EE" fill-rule="nonzero" points="71 385 567 385 567 384 71 384" opacity=".33"/>
    <polygon fill="#DFE4EE" fill-rule="nonzero" points="71 368 567 368 567 367 71 367" opacity=".33"/>
    <polygon fill="#DFE4EE" fill-rule="nonzero" points="71 351 567 351 567 350 71 350" opacity=".33"/>
    <polygon fill="#DFE4EE" fill-rule="nonzero" points="71 334 567 334 567 333 71 333" opacity=".33"/>
    <polygon fill="#DFE4EE" fill-rule="nonzero" points="71 317 567 317 567 316 71 316" opacity=".33"/>
    <polygon fill="#DFE4EE" fill-rule="nonzero" points="71 300 567 300 567 299 71 299" opacity=".33"/>
    <polygon fill="#DFE4EE" fill-rule="nonzero" points="71 283 567 283 567 282 71 282" opacity=".33"/>
    <polygon fill="#DFE4EE" fill-rule="nonzero" points="71 266 567 266 567 265 71 265" opacity=".33"/>
    <polygon fill="#DFE4EE" fill-rule="nonzero" points="71 248 567 248 567 247 71 247" opacity=".33"/>
    <polygon fill="#DFE4EE" fill-rule="nonzero" points="71 231 567 231 567 230 71 230" opacity=".33"/>
    <polygon fill="#DFE4EE" fill-rule="nonzero" points="71 214 567 214 567 213 71 213" opacity=".33"/>
    <polygon fill="#DFE4EE" fill-rule="nonzero" points="71 197 567 197 567 196 71 196" opacity=".33"/>
    <path fill="#DFE4EE" fill-rule="nonzero" d="M98 198.440954L98 442.729439C98 442.972972 98.2238576 443.170393 98.5 443.170393 98.7761424 443.170393 99 442.972972 99 442.729439L99 198.440954C99 198.197422 98.7761424 198 98.5 198 98.2238576 198 98 198.197422 98 198.440954zM138 198.440954L138 442.729439C138 442.972972 138.223858 443.170393 138.5 443.170393 138.776142 443.170393 139 442.972972 139 442.729439L139 198.440954C139 198.197422 138.776142 198 138.5 198 138.223858 198 138 198.197422 138 198.440954zM178 198.440954L178 442.729439C178 442.972972 178.223858 443.170393 178.5 443.170393 178.776142 443.170393 179 442.972972 179 442.729439L179 198.440954C179 198.197422 178.776142 198 178.5 198 178.223858 198 178 198.197422 178 198.440954zM217 198.440954L217 442.729439C217 442.972972 217.223858 443.170393 217.5 443.170393 217.776142 443.170393 218 442.972972 218 442.729439L218 198.440954C218 198.197422 217.776142 198 217.5 198 217.223858 198 217 198.197422 217 198.440954zM257 198.440954L257 442.729439C257 442.972972 257.223858 443.170393 257.5 443.170393 257.776142 443.170393 258 442.972972 258 442.729439L258 198.440954C258 198.197422 257.776142 198 257.5 198 257.223858 198 257 198.197422 257 198.440954zM297 198.440954L297 442.729439C297 442.972972 297.223858 443.170393 297.5 443.170393 297.776142 443.170393 298 442.972972 298 442.729439L298 198.440954C298 198.197422 297.776142 198 297.5 198 297.223858 198 297 198.197422 297 198.440954zM337 198.440954L337 442.729439C337 442.972972 337.223858 443.170393 337.5 443.170393 337.776142 443.170393 338 442.972972 338 442.729439L338 198.440954C338 198.197422 337.776142 198 337.5 198 337.223858 198 337 198.197422 337 198.440954zM377 198.440954L377 442.729439C377 442.972972 377.223858 443.170393 377.5 443.170393 377.776142 443.170393 378 442.972972 378 442.729439L378 198.440954C378 198.197422 377.776142 198 377.5 198 377.223858 198 377 198.197422 377 198.440954zM417 198.440954L417 442.729439C417 442.972972 417.223858 443.170393 417.5 443.170393 417.776142 443.170393 418 442.972972 418 442.729439L418 198.440954C418 198.197422 417.776142 198 417.5 198 417.223858 198 417 198.197422 417 198.440954zM457 198.440954L457 442.729439C457 442.972972 457.223858 443.170393 457.5 443.170393 457.776142 443.170393 458 442.972972 458 442.729439L458 198.440954C458 198.197422 457.776142 198 457.5 198 457.223858 198 457 198.197422 457 198.440954zM497 197.440954L497 443.493255C497 443.736787 497.223858 443.934209 497.5 443.934209 497.776142 443.934209 498 443.736787 498 443.493255L498 197.440954C498 197.197422 497.776142 197 497.5 197 497.223858 197 497 197.197422 497 197.440954zM536 197.440954L536 443.493255C536 443.736787 536.223858 443.934209 536.5 443.934209 536.776142 443.934209 537 443.736787 537 443.493255L537 197.440954C537 197.197422 536.776142 197 536.5 197 536.223858 197 536 197.197422 536 197.440954z" opacity=".25"/>
    <rect width="6" height="12" x="96" y="432" fill="#DFE4EE"/>
    <rect width="6" height="12" x="104" y="432" fill="#DFE4EE"/>
    <rect width="6" height="10" x="112" y="434" fill="#DFE4EE"/>
    <rect width="6" height="29" x="120" y="415" fill="#DFE4EE"/>
    <rect width="6" height="12" x="128" y="432" fill="#DFE4EE"/>
    <rect width="6" height="12" x="136" y="432" fill="#DFE4EE"/>
    <rect width="6" height="10" x="144" y="434" fill="#DFE4EE"/>
    <rect width="6" height="10" x="152" y="434" fill="#DFE4EE"/>
    <rect width="6" height="5" x="160" y="439" fill="#DFE4EE"/>
    <rect width="6" height="10" x="168" y="434" fill="#DFE4EE"/>
    <rect width="6" height="12" x="176" y="432" fill="#DFE4EE"/>
    <rect width="6" height="10" x="184" y="434" fill="#DFE4EE"/>
    <rect width="6" height="12" x="192" y="432" fill="#DFE4EE"/>
    <rect width="6" height="27" x="200" y="417" fill="#DFE4EE"/>
    <rect width="6" height="12" x="208" y="432" fill="#DFE4EE"/>
    <rect width="6" height="21" x="216" y="423" fill="#DFE4EE"/>
    <rect width="6" height="12" x="224" y="432" fill="#DFE4EE"/>
    <rect width="6" height="17" x="232" y="427" fill="#DFE4EE"/>
    <rect width="6" height="12" x="240" y="432" fill="#DFE4EE"/>
    <rect width="6" height="17" x="248" y="427" fill="#DFE4EE"/>
    <rect width="6" height="19" x="256" y="425" fill="#DFE4EE"/>
    <rect width="6" height="17" x="264" y="427" fill="#DFE4EE"/>
    <rect width="6" height="15" x="272" y="429" fill="#DFE4EE"/>
    <rect width="6" height="23" x="280" y="421" fill="#DFE4EE"/>
    <rect width="6" height="34" x="288" y="410" fill="#DFE4EE"/>
    <rect width="6" height="42" x="296" y="402" fill="#DFE4EE"/>
    <rect width="6" height="15" x="304" y="429" fill="#DFE4EE"/>
    <rect width="6" height="25" x="312" y="419" fill="#DFE4EE"/>
    <rect width="6" height="23" x="320" y="421" fill="#DFE4EE"/>
    <rect width="6" height="21" x="328" y="423" fill="#DFE4EE"/>
    <rect width="6" height="25" x="336" y="419" fill="#DFE4EE"/>
    <rect width="6" height="15" x="344" y="429" fill="#DFE4EE"/>
    <rect width="6" height="8" x="352" y="436" fill="#DFE4EE"/>
    <rect width="6" height="15" x="360" y="429" fill="#DFE4EE"/>
    <rect width="6" height="21" x="368" y="423" fill="#DFE4EE"/>
    <rect width="6" height="15" x="376" y="429" fill="#DFE4EE"/>
    <rect width="6" height="15" x="384" y="429" fill="#DFE4EE"/>
    <rect width="6" height="12" x="392" y="432" fill="#DFE4EE"/>
    <rect width="6" height="15" x="400" y="429" fill="#DFE4EE"/>
    <rect width="6" height="12" x="408" y="432" fill="#DFE4EE"/>
    <rect width="6" height="15" x="416" y="429" fill="#DFE4EE"/>
    <rect width="6" height="17" x="424" y="427" fill="#DFE4EE"/>
    <rect width="6" height="12" x="432" y="432" fill="#DFE4EE"/>
    <rect width="6" height="8" x="440" y="436" fill="#DFE4EE"/>
    <rect width="6" height="15" x="448" y="429" fill="#DFE4EE"/>
    <rect width="6" height="17" x="456" y="427" fill="#DFE4EE"/>
    <rect width="6" height="21" x="464" y="423" fill="#DFE4EE"/>
    <rect width="6" height="12" x="472" y="432" fill="#DFE4EE"/>
    <rect width="6" height="19" x="480" y="425" fill="#DFE4EE"/>
    <rect width="6" height="21" x="488" y="423" fill="#DFE4EE"/>
    <rect width="6" height="17" x="496" y="427" fill="#DFE4EE"/>
    <rect width="6" height="27" x="504" y="417" fill="#DFE4EE"/>
    <rect width="6" height="23" x="512" y="421" fill="#DFE4EE"/>
    <rect width="6" height="19" x="520" y="425" fill="#DFE4EE"/>
    <rect width="6" height="23" x="528" y="421" fill="#DFE4EE"/>
    <rect width="6" height="77" x="536" y="367" fill="#DFE4EE"/>
  </g>
</svg>
