<?xml version="1.0" encoding="UTF-8"?>
<svg width="100%" height="100%" viewBox="0 0 138 111" version="1.1" xmlns="http://www.w3.org/2000/svg" xmlns:xlink="http://www.w3.org/1999/xlink">
    <!-- Generator: Sketch 48.1 (47250) - http://www.bohemiancoding.com/sketch -->
    <title>4</title>
    <desc>Created with Sketch.</desc>
    <defs></defs>
    <g id="Mining" stroke="none" stroke-width="1" fill="none" fill-rule="evenodd" transform="translate(-1026.000000, -3677.000000)">
        <g id="4" transform="translate(1026.000000, 3677.000000)">
            <polygon id="Fill-1" fill="#E0E1E6" points="0 90 27 90 27 62 0 62"></polygon>
            <polygon id="Fill-2" fill="#E0E1E6" points="30 90 57 90 57 62 30 62"></polygon>
            <polygon id="Fill-3" fill="#E0E1E6" points="60 90 87 90 87 62 60 62"></polygon>
            <polygon id="Fill-4" fill="#E0E1E6" points="90 90 117 90 117 62 90 62"></polygon>
            <polygon id="Fill-5" fill="#E0E1E6" points="0 59 27 59 27 31 0 31"></polygon>
            <polygon id="Fill-6" fill="#E0E1E6" points="30 59 57 59 57 31 30 31"></polygon>
            <polygon id="Fill-7" fill="#E0E1E6" points="60 59 87 59 87 31 60 31"></polygon>
            <polygon id="Fill-8" fill="#E0E1E6" points="90 59 117 59 117 31 90 31"></polygon>
            <polygon id="Fill-9" fill="#BABFC8" points="0 28 27 28 27 0 0 0"></polygon>
            <polygon id="Fill-10" fill="#BABFC8" points="30 28 57 28 57 0 30 0"></polygon>
            <polygon id="Fill-11" fill="#BABFC8" points="60 28 87 28 87 0 60 0"></polygon>
            <polygon id="Fill-12" fill="#BABFC8" points="90 28 117 28 117 0 90 0"></polygon>
            <polygon id="Fill-28" fill="#0053FE" points="118 111 98 91.5 118 72 138 91.5"></polygon>
            <polyline id="Stroke-48" stroke="#FFFFFF" stroke-width="2" points="120 84 120 99 116 99 116 84"></polyline>
            <path d="M111,87 C114.866463,83 121.134204,83 125,87" id="Stroke-49" stroke="#FFFFFF" stroke-width="2"></path>
        </g>
    </g>
</svg>