<svg xmlns="http://www.w3.org/2000/svg" width="188" height="110" viewBox="0 0 188 110">
  <g fill="none" fill-rule="evenodd">
    <path fill="#E0E1E6" d="M3 99L177 99 177 99C178.656854 99 180 100.343146 180 102L180 106 180 106C180 107.656854 178.656854 109 177 109L3 109 3 109C1.34314575 109 1.38278643e-15 107.656854 4.4408921e-16 106L0 102 0 102C-2.02906125e-16 100.343146 1.34314575 99 3 99zM23 2.42558767e-13L157 2.39260299e-13 157 2.38919995e-13C158.656854 2.38615632e-13 160 1.34314575 160 3L160 94 160 94C160 95.6568542 158.656854 97 157 97L23 97 23 97C21.3431458 97 20 95.6568542 20 94L20 3 20 3C20 1.34314575 21.3431458 2.41888893e-13 23 2.4158453e-13z"/>
    <rect width="110" height="25" x="35" y="21" fill="#FFF" rx="3"/>
    <rect width="110" height="25" x="35" y="48" fill="#FFF" rx="3"/>
    <path stroke="#FFF" stroke-linecap="square" stroke-width="2" d="M70.5,103 L110.512498,103"/>
    <circle cx="90.5" cy="8.5" r="1.5" fill="#FFF"/>
    <g transform="translate(144 76)">
      <path fill="#4F77FC" d="M0,30.0106474 L0,3 L0,3 C-2.02906125e-16,1.34314575 1.34314575,8.20167773e-14 3,8.17124146e-14 L40.4581835,8.14953302e-14 L40.4581835,-2.70894418e-14 C42.1150378,-2.73938045e-14 43.4581835,1.34314575 43.4581835,3 L43.4581835,30.0106474 C43.4581835,31.7489749 42.1363311,33.1613659 40.5138916,33.1613659 L2.94429192,33.1613659 C1.32185308,33.1613659 0,31.7489749 0,30.0106474 Z"/>
      <path fill="#002EFF" d="M8 11L36 11 36 11C36.5522847 11 37 11.4477153 37 12L37 12 37 12C37 12.5522847 36.5522847 13 36 13L8 13 8 13C7.44771525 13 7 12.5522847 7 12L7 12 7 12C7 11.4477153 7.44771525 11 8 11zM8 20L36 20 36 20C36.5522847 20 37 20.4477153 37 21L37 21 37 21C37 21.5522847 36.5522847 22 36 22L8 22 8 22C7.44771525 22 7 21.5522847 7 21L7 21 7 21C7 20.4477153 7.44771525 20 8 20z"/>
    </g>
    <g fill="#D8D8D8" transform="translate(41 26)">
      <rect width="2" height="2" x="2"/>
      <rect width="2" height="2" x="4"/>
      <rect width="2" height="2" x="6" y="2"/>
      <rect width="2" height="2" y="2"/>
      <rect width="2" height="2" y="4"/>
      <rect width="2" height="2" x="2" y="6"/>
      <rect width="2" height="2" x="4" y="6"/>
      <rect width="2" height="2" x="4" y="12"/>
      <rect width="2" height="2" x="6" y="8"/>
      <rect width="2" height="2" x="6" y="10"/>
      <rect width="2" height="2" x="2" y="12"/>
      <rect width="2" height="2" y="10"/>
      <rect width="2" height="10" x="10" y="2"/>
      <rect width="2" height="2" x="12" y="12"/>
      <rect width="2" height="2" x="14" y="12"/>
      <rect width="2" height="2" x="12" y="6"/>
      <rect width="2" height="2" x="14" y="6"/>
      <rect width="2" height="2" x="16" y="12"/>
      <rect width="2" height="2" x="12"/>
      <rect width="2" height="2" x="14"/>
      <rect width="2" height="2" x="16"/>
      <rect width="2" height="10" x="20" y="2"/>
      <rect width="2" height="2" x="22" y="12"/>
      <rect width="2" height="2" x="24" y="12"/>
      <rect width="2" height="2" x="22" y="6"/>
      <rect width="2" height="2" x="24" y="6"/>
      <rect width="2" height="2" x="26" y="12"/>
      <rect width="2" height="2" x="22"/>
      <rect width="2" height="2" x="24"/>
      <rect width="2" height="2" x="26"/>
      <g transform="matrix(-1 0 0 1 38 0)">
        <rect width="2" height="10" y="2"/>
        <rect width="2" height="10" x="6" y="2"/>
        <rect width="2" height="2" x="2" y="12"/>
        <rect width="2" height="2" x="4" y="12"/>
        <rect width="2" height="2" x="6" y="12"/>
        <rect width="2" height="2" x="2"/>
        <rect width="2" height="2" x="4"/>
        <rect width="2" height="2" x="6"/>
      </g>
    </g>
    <circle cx="173" cy="88" r="3" fill="#FFF"/>
    <circle cx="158" cy="97" r="3" fill="#FFF"/>
  </g>
</svg>
