<?xml version="1.0" encoding="UTF-8"?>
<svg width="100%" height="100%" viewBox="0 0 169 111" version="1.1" xmlns="http://www.w3.org/2000/svg" xmlns:xlink="http://www.w3.org/1999/xlink">
    <!-- Generator: Sketch 48.1 (47250) - http://www.bohemiancoding.com/sketch -->
    <title>2</title>
    <desc>Created with Sketch.</desc>
    <defs></defs>
    <g id="Mining" stroke="none" stroke-width="1" fill="none" fill-rule="evenodd" transform="translate(-506.000000, -3677.000000)">
        <g id="2" transform="translate(506.000000, 3677.000000)">
            <polygon id="Fill-19" fill="#E0E1E6" points="140 78 15 78 15 4.5594215 19.6751689 0 135.324831 0 140 4.5594215"></polygon>
            <path d="M155,86 L0,86 L0,84.3341361 C0,80.2841662 3.53936088,77 7.90468078,77 L155,77 L155,86 Z" id="Fill-20" fill="#E0E1E6"></path>
            <polygon id="Fill-26" fill="#FFFFFF" points="22 77 132 77 132 8 22 8"></polygon>
            <path d="M96,41.9902733 L96,42.0097267 C96,51.3931267 88.1695397,59 78.5103355,59 L78.4896645,59 C68.8304603,59 61,51.3931267 61,42.0097267 L61,41.9902733 C61,32.6068733 68.8304603,25 78.4896645,25 L78.5103355,25" id="Stroke-35" stroke="#BABFC8" stroke-width="12.27"></path>
            <polygon id="Fill-46" fill="#0053FD" points="149 72 129 91.5 149 111 169 91.5"></polygon>
            <polygon id="Stroke-47" stroke="#FFFFFF" stroke-width="2" points="152.425749 84 150.000332 86.2884625 143 86.2884625 143 96 157 96 157 84"></polygon>
        </g>
    </g>
</svg>