<svg xmlns="http://www.w3.org/2000/svg" width="188" height="110" viewBox="0 0 188 110">
  <g fill="none" fill-rule="evenodd">
    <path fill="#E0E1E6" d="M3 99L177 99 177 99C178.656854 99 180 100.343146 180 102L180 106 180 106C180 107.656854 178.656854 109 177 109L3 109 3 109C1.34314575 109 1.38278643e-15 107.656854 4.4408921e-16 106L0 102 0 102C-2.02906125e-16 100.343146 1.34314575 99 3 99zM23 2.42558767e-13L157 2.39260299e-13 157 2.38919995e-13C158.656854 2.38615632e-13 160 1.34314575 160 3L160 94 160 94C160 95.6568542 158.656854 97 157 97L23 97 23 97C21.3431458 97 20 95.6568542 20 94L20 3 20 3C20 1.34314575 21.3431458 2.41888893e-13 23 2.4158453e-13z"/>
    <rect width="110" height="25" x="35" y="37" fill="#FFF" rx="3"/>
    <g stroke="#E0E1E6" stroke-linecap="square" stroke-width="2" transform="translate(85 30)">
      <path d="M61.5.5L20.6955885 41.3044115M56.5.5L15.6955885 41.3044115M51.5.5L10.6955885 41.3044115M46.5.5L5.69558847 41.3044115M41.5.5L.695588474 41.3044115M66.5.5L25.6955885 41.3044115M71.5.5L30.6955885 41.3044115M69.2224121 7.77758789L35.6955885 41.3044115M70.8483887 11.1516113L40.6955885 41.3044115M72.6777344 14.3222656L45.6955885 41.3044115"/>
    </g>
    <path stroke="#FFF" stroke-linecap="square" stroke-width="2" d="M70.5,103 L110.512498,103"/>
    <circle cx="90.5" cy="8.5" r="1.5" fill="#FFF"/>
    <g transform="translate(144 74)">
      <path fill="#002EFF" d="M4.92163923,3.36392613 L27.161365,3.36392613 L27.161365,3.16836584 C27.161365,1.77408221 28.3999229,0.647791493 29.9209598,0.647791493 L37.9896953,0.647791493 C39.5107321,0.647791493 40.7420464,1.77408221 40.7420464,3.16836584 L40.7420464,6.08006294 L2.7161365,6.08006294 C2.7161365,4.25482057 3.70481015,3.36392613 4.92163923,3.36392613 Z"/>
      <path stroke="#FFF" stroke-linecap="square" stroke-width="2" d="M3.5,7 L41.5249844,7"/>
      <path fill="#4F77FC" d="M0,32.0106474 L0,8 L43.4581835,8 L43.4581835,32.0106474 C43.4581835,33.7489749 42.1363311,35.1613659 40.5138916,35.1613659 L2.94429192,35.1613659 C1.32185308,35.1613659 0,33.7489749 0,32.0106474 Z"/>
    </g>
    <path fill="#FFF" d="M172.044178,91.316688 C172.28643,91.316688 172.407819,91.7188623 172.236508,91.9538244 L167.365712,98.6235757 C167.056196,99.0473724 166.554876,99.0466516 166.245886,98.622855 L161.396634,91.966077 C161.225849,91.7311149 161.346712,91.3296613 161.588965,91.3296613 L172.044178,91.316688 Z" transform="rotate(-90 166.817 95.129)"/>
  </g>
</svg>
