<svg xmlns="http://www.w3.org/2000/svg" width="139" height="121" viewBox="0 0 139 121">
  <g fill="none" fill-rule="evenodd">
    <g fill="#E0E1E6" fill-rule="nonzero" transform="matrix(-1 0 0 1 62 0)">
      <path d="M31.9634091.582261968C31.8183179.229889838 31.4734907 0 31.0928618 0 23.9475899 0 17.9875437 5.19513348 16.0090269 7.13789105L14.7993053 5.93002723C14.4318664 5.56258035 13.8345428 5.56258035 13.467104 5.93002723L5.92989734 13.467399C5.56245851 13.8348458 5.56245851 14.4321826 5.92989734 14.7996294L7.1377347 16.0093776C5.19501969 17.9879377 0 23.9462301 0 31.0935428 0 31.4741801.229884803 31.8190148.582249214 31.9641093.699075917 32.0131022.821555526 32.0357143.942150832 32.0357143 1.18711005 32.0357143 1.42830066 31.9396128 1.60919362 31.7606002L12.2479608 21.1216 13.4652197 22.3388855C13.8326585 22.7063324 14.4299821 22.7063324 14.797421 22.3388855L22.3346276 14.8015138C22.7020665 14.4340669 22.7020665 13.8367302 22.3346276 13.4692833L21.1173688 12.2519978 31.7561359 1.61299755C32.0293597 1.33976783 32.1103847.934634097 31.9634091.582261968zM45.7224701 39.7918614L23.1821325 17.25 18.0714286 22.3610494 40.6117662 44.9029108C40.7892343 45.0803909 41.029005 45.1785714 41.2801035 45.1785714 43.8817105 45.1785714 46 43.0601387 46 40.4583559 45.998112 40.2072404 45.8980502 39.9674534 45.7224701 39.7918614zM6.23390848 11.5L11.5 6.21120644 11.0486763 5.7579371C9.94760213 4.65211621 8.02364036 4.65211621 6.92256618 5.7579371L5.78258479 6.90283293C5.2320477 7.45574338 4.92857143 8.19230606 4.92857143 8.97575867 4.92857143 9.75921128 5.2320477 10.4938202 5.78258479 11.0486844L6.23390848 11.5z"/>
    </g>
    <rect width="121" height="20" y="98" fill="#E0E1E6" rx="3"/>
    <path stroke="#FFF" stroke-linecap="square" stroke-width="2" d="M111 102.5L111 114.5M107 102.5L107 114.5M103 102.5L103 114.5"/>
    <rect width="121" height="20" y="76" fill="#E0E1E6" rx="3"/>
    <path stroke="#FFF" stroke-linecap="square" stroke-width="2" d="M111 80.5L111 92.5M107 80.5L107 92.5M103 80.5L103 92.5"/>
    <rect width="121" height="20" y="54" fill="#E0E1E6" rx="3"/>
    <rect width="2" height="2" x="56" y="38" fill="#E0E1E6"/>
    <rect width="2" height="2" x="60" y="38" fill="#E0E1E6"/>
    <rect width="2" height="2" x="64" y="38" fill="#E0E1E6"/>
    <rect width="2" height="2" x="64" y="42" fill="#E0E1E6"/>
    <rect width="2" height="2" x="68" y="42" fill="#E0E1E6"/>
    <rect width="2" height="2" x="68" y="46" fill="#E0E1E6"/>
    <rect width="2" height="2" x="72" y="42" fill="#E0E1E6"/>
    <rect width="2" height="2" x="72" y="46" fill="#E0E1E6"/>
    <rect width="2" height="2" x="76" y="42" fill="#E0E1E6"/>
    <rect width="2" height="2" x="76" y="46" fill="#E0E1E6"/>
    <rect width="2" height="2" x="72" y="34" fill="#E0E1E6"/>
    <rect width="2" height="2" x="72" y="38" fill="#E0E1E6"/>
    <rect width="2" height="2" x="76" y="34" fill="#E0E1E6"/>
    <rect width="2" height="2" x="76" y="38" fill="#E0E1E6"/>
    <rect width="2" height="2" x="72" y="30" fill="#E0E1E6"/>
    <rect width="2" height="2" x="76" y="26" fill="#E0E1E6"/>
    <rect width="2" height="2" x="76" y="30" fill="#E0E1E6"/>
    <rect width="2" height="2" x="72" y="22" fill="#E0E1E6"/>
    <rect width="2" height="2" x="76" y="18" fill="#E0E1E6"/>
    <rect width="2" height="2" x="76" y="22" fill="#E0E1E6"/>
    <rect width="2" height="2" x="76" y="10" fill="#E0E1E6"/>
    <rect width="2" height="2" x="76" y="14" fill="#E0E1E6"/>
    <rect width="2" height="2" x="80" y="10" fill="#E0E1E6"/>
    <rect width="2" height="2" x="80" y="14" fill="#E0E1E6"/>
    <rect width="2" height="2" x="84" y="10" fill="#E0E1E6"/>
    <rect width="2" height="2" x="84" y="14" fill="#E0E1E6"/>
    <rect width="2" height="2" x="88" y="10" fill="#E0E1E6"/>
    <rect width="2" height="2" x="88" y="14" fill="#E0E1E6"/>
    <rect width="2" height="2" x="92" y="10" fill="#E0E1E6"/>
    <rect width="2" height="2" x="92" y="14" fill="#E0E1E6"/>
    <rect width="2" height="2" x="96" y="10" fill="#E0E1E6"/>
    <rect width="2" height="2" x="96" y="14" fill="#E0E1E6"/>
    <rect width="2" height="2" x="100" y="10" fill="#E0E1E6"/>
    <rect width="2" height="2" x="100" y="14" fill="#E0E1E6"/>
    <rect width="2" height="2" x="96" y="18" fill="#E0E1E6"/>
    <rect width="2" height="2" x="96" y="22" fill="#E0E1E6"/>
    <rect width="2" height="2" x="100" y="18" fill="#E0E1E6"/>
    <rect width="2" height="2" x="100" y="22" fill="#E0E1E6"/>
    <rect width="2" height="2" x="88" y="18" fill="#E0E1E6"/>
    <rect width="2" height="2" x="88" y="22" fill="#E0E1E6"/>
    <rect width="2" height="2" x="92" y="18" fill="#E0E1E6"/>
    <rect width="2" height="2" x="92" y="22" fill="#E0E1E6"/>
    <rect width="2" height="2" x="80" y="18" fill="#E0E1E6"/>
    <rect width="2" height="2" x="80" y="22" fill="#E0E1E6"/>
    <rect width="2" height="2" x="84" y="18" fill="#E0E1E6"/>
    <rect width="2" height="2" x="84" y="22" fill="#E0E1E6"/>
    <rect width="2" height="2" x="80" y="26" fill="#E0E1E6"/>
    <rect width="2" height="2" x="80" y="30" fill="#E0E1E6"/>
    <rect width="2" height="2" x="84" y="26" fill="#E0E1E6"/>
    <rect width="2" height="2" x="84" y="30" fill="#E0E1E6"/>
    <rect width="2" height="2" x="88" y="26" fill="#E0E1E6"/>
    <rect width="2" height="2" x="88" y="30" fill="#E0E1E6"/>
    <rect width="2" height="2" x="92" y="26" fill="#E0E1E6"/>
    <rect width="2" height="2" x="92" y="30" fill="#E0E1E6"/>
    <rect width="2" height="2" x="96" y="26" fill="#E0E1E6"/>
    <rect width="2" height="2" x="96" y="30" fill="#E0E1E6"/>
    <rect width="2" height="2" x="100" y="26" fill="#E0E1E6"/>
    <rect width="2" height="2" x="100" y="30" fill="#E0E1E6"/>
    <rect width="2" height="2" x="80" y="34" fill="#E0E1E6"/>
    <rect width="2" height="2" x="80" y="38" fill="#E0E1E6"/>
    <rect width="2" height="2" x="84" y="34" fill="#E0E1E6"/>
    <rect width="2" height="2" x="84" y="38" fill="#E0E1E6"/>
    <rect width="2" height="2" x="88" y="34" fill="#E0E1E6"/>
    <rect width="2" height="2" x="88" y="38" fill="#E0E1E6"/>
    <rect width="2" height="2" x="92" y="34" fill="#E0E1E6"/>
    <rect width="2" height="2" x="92" y="38" fill="#E0E1E6"/>
    <rect width="2" height="2" x="96" y="34" fill="#E0E1E6"/>
    <rect width="2" height="2" x="96" y="38" fill="#E0E1E6"/>
    <rect width="2" height="2" x="100" y="34" fill="#E0E1E6"/>
    <rect width="2" height="2" x="100" y="38" fill="#E0E1E6"/>
    <rect width="2" height="2" x="80" y="42" fill="#E0E1E6"/>
    <rect width="2" height="2" x="80" y="46" fill="#E0E1E6"/>
    <rect width="2" height="2" x="84" y="42" fill="#E0E1E6"/>
    <rect width="2" height="2" x="84" y="46" fill="#E0E1E6"/>
    <rect width="2" height="2" x="88" y="42" fill="#E0E1E6"/>
    <rect width="2" height="2" x="88" y="46" fill="#E0E1E6"/>
    <rect width="2" height="2" x="92" y="42" fill="#E0E1E6"/>
    <rect width="2" height="2" x="92" y="46" fill="#E0E1E6"/>
    <rect width="2" height="2" x="96" y="42" fill="#E0E1E6"/>
    <rect width="2" height="2" x="96" y="46" fill="#E0E1E6"/>
    <rect width="2" height="2" x="100" y="42" fill="#E0E1E6"/>
    <rect width="2" height="2" x="100" y="46" fill="#E0E1E6"/>
    <rect width="2" height="2" x="104" y="10" fill="#E0E1E6"/>
    <rect width="2" height="2" x="104" y="14" fill="#E0E1E6"/>
    <rect width="2" height="2" x="108" y="10" fill="#E0E1E6"/>
    <rect width="2" height="2" x="108" y="14" fill="#E0E1E6"/>
    <rect width="2" height="2" x="112" y="10" fill="#E0E1E6"/>
    <rect width="2" height="2" x="112" y="14" fill="#E0E1E6"/>
    <rect width="2" height="2" x="116" y="10" fill="#E0E1E6"/>
    <rect width="2" height="2" x="116" y="14" fill="#E0E1E6"/>
    <rect width="2" height="2" x="116" y="18" fill="#E0E1E6"/>
    <rect width="2" height="2" x="116" y="22" fill="#E0E1E6"/>
    <rect width="2" height="2" x="108" y="18" fill="#E0E1E6"/>
    <rect width="2" height="2" x="108" y="22" fill="#E0E1E6"/>
    <rect width="2" height="2" x="112" y="18" fill="#E0E1E6"/>
    <rect width="2" height="2" x="112" y="22" fill="#E0E1E6"/>
    <rect width="2" height="2" x="104" y="18" fill="#E0E1E6"/>
    <rect width="2" height="2" x="104" y="22" fill="#E0E1E6"/>
    <rect width="2" height="2" x="104" y="26" fill="#E0E1E6"/>
    <rect width="2" height="2" x="104" y="30" fill="#E0E1E6"/>
    <rect width="2" height="2" x="108" y="26" fill="#E0E1E6"/>
    <rect width="2" height="2" x="108" y="30" fill="#E0E1E6"/>
    <rect width="2" height="2" x="112" y="26" fill="#E0E1E6"/>
    <rect width="2" height="2" x="112" y="30" fill="#E0E1E6"/>
    <rect width="2" height="2" x="116" y="26" fill="#E0E1E6"/>
    <rect width="2" height="2" x="116" y="30" fill="#E0E1E6"/>
    <rect width="2" height="2" x="104" y="34" fill="#E0E1E6"/>
    <rect width="2" height="2" x="104" y="38" fill="#E0E1E6"/>
    <rect width="2" height="2" x="108" y="34" fill="#E0E1E6"/>
    <rect width="2" height="2" x="108" y="38" fill="#E0E1E6"/>
    <rect width="2" height="2" x="112" y="34" fill="#E0E1E6"/>
    <rect width="2" height="2" x="112" y="38" fill="#E0E1E6"/>
    <rect width="2" height="2" x="116" y="34" fill="#E0E1E6"/>
    <rect width="2" height="2" x="116" y="38" fill="#E0E1E6"/>
    <rect width="2" height="2" x="104" y="42" fill="#E0E1E6"/>
    <rect width="2" height="2" x="104" y="46" fill="#E0E1E6"/>
    <rect width="2" height="2" x="108" y="42" fill="#E0E1E6"/>
    <rect width="2" height="2" x="108" y="46" fill="#E0E1E6"/>
    <rect width="2" height="2" x="112" y="42" fill="#E0E1E6"/>
    <rect width="2" height="2" x="112" y="46" fill="#E0E1E6"/>
    <rect width="2" height="2" x="116" y="42" fill="#E0E1E6"/>
    <rect width="2" height="2" x="116" y="46" fill="#E0E1E6"/>
    <rect width="2" height="2" x="64" y="46" fill="#E0E1E6"/>
    <rect width="2" height="2" x="60" y="46" fill="#E0E1E6"/>
    <rect width="2" height="2" x="60" y="42" fill="#E0E1E6"/>
    <path stroke="#FFF" stroke-linecap="square" stroke-width="2" d="M111 58.5L111 70.5M107 58.5L107 70.5M103 58.5L103 70.5"/>
    <circle cx="117.5" cy="99.5" r="21.5" fill="#4F77FC"/>
    <circle cx="117.5" cy="99.5" r="10.5" fill="#002EFF"/>
    <path fill="#FFF" fill-rule="nonzero" d="M5.28127062,9.34378648 C5.05133222,9.34378648 4.83073761,9.25237988 4.66783073,9.08987924 L0.253907241,4.93595677 C0.0914066069,4.77345614 0,4.55286153 0,4.32292313 C0,4.09298473 0.0914066069,3.87239012 0.253907241,3.71029574 L0.867347137,3.09766834 C1.0363478,2.92785518 1.25816116,2.8437611 1.47997453,2.8437611 C1.70178789,2.8437611 1.92360126,2.92785518 2.09300817,3.09766834 L5.28127062,6.09377379 L10.9070426,0.253907241 C11.0695432,0.0914066069 11.2901378,0 11.51967,0 L11.5200762,0 C11.7496084,0 11.970203,0.0914066069 12.1327036,0.253907241 L12.7461435,0.866534633 C13.0845511,1.20453595 13.0845511,1.7537881 12.7465498,2.09178942 L5.89430426,9.08987924 C5.73180363,9.25237988 5.51080277,9.34378648 5.28127062,9.34378648 Z" transform="translate(111 95)"/>
  </g>
</svg>
