<svg xmlns="http://www.w3.org/2000/svg" width="100%" height="100%" viewBox="0 0 51 51">
  <g fill="#263F6F" fill-rule="evenodd">
    <path d="M42.1682203,14.2419492 L29.554661,1.62838983 C27.3834746,-0.54279661 23.8682203,-0.54279661 21.6970339,1.62838983 L9.18686441,14.2419492 C8.46313559,14.965678 8.46313559,16.1029661 9.18686441,16.8266949 L13.0122881,20.6521186 L15.4936441,23.0300847 C16.2173729,23.7538136 17.354661,23.7538136 18.1817797,23.0300847 L23.2478814,18.3775424 C24.5919492,17.1368644 26.7631356,17.1368644 28.2105932,18.3775424 L33.2766949,23.0300847 C34.0004237,23.7538136 35.1377119,23.7538136 35.9648305,23.0300847 L38.5495763,20.6521186 L42.375,16.8266949 C42.8919492,16.1029661 42.8919492,14.965678 42.1682203,14.2419492 Z" opacity=".5"/>
    <path d="M1.68223063,29.2783898 L21.4296883,49.0258475 C23.6008747,51.1970339 27.1161289,51.1970339 29.2873154,49.0258475 L49.034773,29.2783898 C52.4466374,25.8665254 50.0686713,24.8326271 47.5873154,22.454661 L44.4856205,19.5597458 C43.7618917,18.8360169 42.6246035,18.8360169 41.7974849,19.5597458 L36.7313832,24.2122881 C35.3873154,25.4529661 33.2161289,25.4529661 31.7686713,24.2122881 L26.7025696,19.5597458 C25.9788408,18.8360169 24.8415527,18.8360169 24.014434,19.5597458 L18.9483323,24.2122881 C17.6042645,25.4529661 15.4330781,25.4529661 13.9856205,24.2122881 L8.91951877,19.5597458 C8.19578996,18.8360169 7.05850182,18.8360169 6.23138318,19.5597458 L3.43985775,22.1444915 C0.85511199,24.6258475 -1.8330236,25.7631356 1.68223063,29.2783898 Z M23.0067076,29.9255164 L23.0067076,34.5446901 L19.4308999,29.9255164 L18.078576,29.9255164 L18.078576,37.1885593 L19.6385601,37.1885593 L19.6385601,32.5744505 L23.2143678,37.1885593 L24.5616268,37.1885593 L24.5616268,29.9255164 L23.0067076,29.9255164 Z M30.2999022,33.24808 L30.2999022,34.3876788 L31.5965124,34.3876788 L31.5965124,35.375331 L31.439501,35.507018 C31.3314518,35.6049374 31.1440511,35.702016 30.877299,35.7982488 C30.6105468,35.8944816 30.3150969,35.942598 29.9909443,35.942598 C29.31225,35.942598 28.744983,35.7146782 28.2891435,35.2588387 C27.833304,34.8029992 27.6053842,34.2357323 27.6053842,33.5570379 C27.6053842,32.8783435 27.833304,32.3110765 28.2891435,31.855237 C28.744983,31.3993975 29.31225,31.1714778 29.9909443,31.1714778 C30.237437,31.1714778 30.4788647,31.2094644 30.7152276,31.2854376 C30.9515905,31.3614109 31.1423694,31.4441357 31.2875644,31.5336169 C31.4327594,31.6230982 31.5669788,31.7269283 31.6902226,31.8451073 C31.8134665,31.9632862 31.892818,32.0468568 31.9282722,32.095819 C31.9637263,32.1447812 31.9915832,32.1827678 32.0118427,32.2097789 L32.999495,31.2221266 L32.8830027,31.0701801 C32.8087161,30.9722607 32.6863131,30.8523901 32.5157937,30.7105734 C32.3452743,30.5687566 32.1494305,30.4269399 31.9282623,30.2851231 C31.707094,30.1433064 31.4243064,30.022595 31.0798943,29.922984 C30.7354822,29.823373 30.3724973,29.7735699 29.9909443,29.7735699 C28.8834215,29.7735699 27.9489505,30.1433064 27.1875313,30.8827794 C26.4261122,31.6222524 26.0454001,32.5136719 26.0454001,33.5570379 C26.0454001,34.6004039 26.4261122,35.4926692 27.1875313,36.2338288 C27.9489505,36.9749884 28.8834215,37.3455707 29.9909443,37.3455707 C30.3758755,37.3455707 30.7498311,37.2949219 31.112816,37.1936242 C31.475801,37.0923265 31.7695642,36.9800533 31.9941058,36.8568095 C32.2186473,36.7335656 32.4313724,36.5917489 32.6322811,36.4313592 C32.8331898,36.2709696 32.9631901,36.1578555 33.022282,36.092012 C33.081374,36.0261686 33.1244255,35.9763655 33.1514366,35.942598 L33.1514366,33.24808 L30.2999022,33.24808 Z"/>
  </g>
</svg>
