<svg xmlns="http://www.w3.org/2000/svg" xmlns:xlink="http://www.w3.org/1999/xlink" width="100%" viewBox="0 0 1200 700">
  <defs>
    <path id="mobile-b" d="M39.3757709,0.334101348 L281.451417,0.334101348 C303.08368,0.334101348 320.620094,17.8332044 320.620094,39.4149645 L320.620094,625.264519 C320.620094,646.848284 303.080088,664.345382 281.451417,664.345382 L39.3757709,664.345382 C17.7435074,664.345382 0.207093025,646.846279 0.207093025,625.264519 L0.207093025,39.4149645 C0.207093025,17.8311998 17.7470993,0.334101348 39.3757709,0.334101348 Z"/>
    <filter id="mobile-a" width="108.4%" height="104.1%" x="-4.2%" y="-1.1%" filterUnits="objectBoundingBox">
      <feOffset dy="6" in="SourceAlpha" result="shadowOffsetOuter1"/>
      <feGaussianBlur in="shadowOffsetOuter1" result="shadowBlurOuter1" stdDeviation="3.5"/>
      <feColorMatrix in="shadowBlurOuter1" values="0 0 0 0 0   0 0 0 0 0.0904195312   0 0 0 0 0.423203656  0 0 0 0.12 0"/>
    </filter>
    <filter id="mobile-c" width="105.6%" height="102.7%" x="-2.8%" y="-.5%" filterUnits="objectBoundingBox">
      <feGaussianBlur in="SourceAlpha" result="shadowBlurInner1" stdDeviation="1.5"/>
      <feOffset dy="1" in="shadowBlurInner1" result="shadowOffsetInner1"/>
      <feComposite in="shadowOffsetInner1" in2="SourceAlpha" k2="-1" k3="1" operator="arithmetic" result="shadowInnerInner1"/>
      <feColorMatrix in="shadowInnerInner1" values="0 0 0 0 0   0 0 0 0 0   0 0 0 0 0  0 0 0 0.03 0"/>
    </filter>
    <linearGradient id="mobile-d" x1="50%" x2="50%" y1="0%" y2="100%">
      <stop offset="0%" stop-color="#EFF2F7"/>
      <stop offset="100%" stop-color="#FFF"/>
    </linearGradient>
    <linearGradient id="mobile-e" x1="50%" x2="50%" y1="0%" y2="100%">
      <stop offset="0%" stop-color="#E5EDFC"/>
      <stop offset="100%" stop-color="#FFF"/>
    </linearGradient>
    <linearGradient id="mobile-f" x1="50%" x2="50%" y1="0%" y2="100%">
      <stop offset="0%" stop-color="#F3F4F6"/>
      <stop offset="100%" stop-color="#FFF"/>
    </linearGradient>
    <path id="mobile-h" d="M39.2146198,0 L281.574203,0 C303.231839,0 320.788822,17.5090038 320.788822,39.1029744 L320.788822,625.283993 C320.788822,646.879969 303.228243,664.386967 281.574203,664.386967 L39.2146198,664.386967 C17.5569833,664.386967 0,646.877963 0,625.283993 L0,39.1029744 C0,17.506998 17.5605794,0 39.2146198,0 Z"/>
    <filter id="mobile-g" width="108.4%" height="104.1%" x="-4.2%" y="-1.1%" filterUnits="objectBoundingBox">
      <feOffset dy="6" in="SourceAlpha" result="shadowOffsetOuter1"/>
      <feGaussianBlur in="shadowOffsetOuter1" result="shadowBlurOuter1" stdDeviation="3.5"/>
      <feColorMatrix in="shadowBlurOuter1" values="0 0 0 0 0   0 0 0 0 0.0904195312   0 0 0 0 0.423203656  0 0 0 0.12 0"/>
    </filter>
    <filter id="mobile-i" width="105.6%" height="102.7%" x="-2.8%" y="-.5%" filterUnits="objectBoundingBox">
      <feGaussianBlur in="SourceAlpha" result="shadowBlurInner1" stdDeviation="1.5"/>
      <feOffset dy="1" in="shadowBlurInner1" result="shadowOffsetInner1"/>
      <feComposite in="shadowOffsetInner1" in2="SourceAlpha" k2="-1" k3="1" operator="arithmetic" result="shadowInnerInner1"/>
      <feColorMatrix in="shadowInnerInner1" values="0 0 0 0 0   0 0 0 0 0   0 0 0 0 0  0 0 0 0.03 0"/>
    </filter>
  </defs>
  <g fill="none" fill-rule="evenodd" transform="translate(15 15)">
    <g transform="translate(362 1)">
      <use fill="#000" filter="url(#mobile-a)" xlink:href="#mobile-b"/>
      <use fill="#FFF" xlink:href="#mobile-b"/>
      <use fill="#000" filter="url(#mobile-c)" xlink:href="#mobile-b"/>
      <path fill="#DFE4EE" d="M31.9337759,179.369059 L287.788539,179.369059 L287.788539,179.369059 C289.445393,179.369059 290.788539,180.712205 290.788539,182.369059 L290.788539,223.154183 L290.788539,223.154183 C290.788539,224.811038 289.445393,226.154183 287.788539,226.154183 L31.9337759,226.154183 L31.9337759,226.154183 C30.2769217,226.154183 28.9337759,224.811038 28.9337759,223.154183 L28.9337759,182.369059 L28.9337759,182.369059 C28.9337759,180.712205 30.2769217,179.369059 31.9337759,179.369059 Z" opacity=".3"/>
      <ellipse cx="160.414" cy="630.095" fill="url(#mobile-d)" rx="23.202" ry="23.202" style="mix-blend-mode:multiply"/>
      <rect width="61.873" height="5.524" x="129.477" y="32.375" fill="url(#mobile-e)" rx="2.762" style="mix-blend-mode:multiply"/>
      <path fill="url(#mobile-f)" d="M102.407792,37.8987994 C103.933302,37.8987994 105.169973,36.6621606 105.169973,35.1366893 C105.169973,33.611218 103.933302,32.3745791 102.407792,32.3745791 C100.882281,32.3745791 99.6456107,33.611218 99.6456107,35.1366893 C99.6456107,36.6621606 100.882281,37.8987994 102.407792,37.8987994 Z" style="mix-blend-mode:multiply"/>
      <path fill="#263F6F" d="M31.9337759,520.715654 L287.788539,520.715654 L287.788539,520.715654 C289.445393,520.715654 290.788539,522.0588 290.788539,523.715654 L290.788539,561.909417 L290.788539,561.909417 C290.788539,563.566271 289.445393,564.909417 287.788539,564.909417 L31.9337759,564.909417 L31.9337759,564.909417 C30.2769217,564.909417 28.9337759,563.566271 28.9337759,561.909417 L28.9337759,523.715654 L28.9337759,523.715654 C28.9337759,522.0588 30.2769217,520.715654 31.9337759,520.715654 Z" opacity=".24"/>
      <ellipse cx="63.562" cy="543.511" fill="#FFF" opacity=".4" rx="11.215" ry="11.215"/>
      <ellipse cx="127.183" cy="543.511" fill="#FFF" rx="11.215" ry="11.215"/>
      <ellipse cx="190.483" cy="543.511" fill="#FFF" opacity=".4" rx="11.215" ry="11.215"/>
      <ellipse cx="255.158" cy="543.511" fill="#FFF" opacity=".4" rx="11.215" ry="11.215"/>
      <path fill="#4F77FC" d="M206.865213,188.790366 L277.925042,188.790366 L277.925042,188.790366 C279.581896,188.790366 280.925042,190.133512 280.925042,191.790366 L280.925042,213.311027 L280.925042,213.311027 C280.925042,214.967881 279.581896,216.311027 277.925042,216.311027 L206.865213,216.311027 L206.865213,216.311027 C205.208358,216.311027 203.865213,214.967881 203.865213,213.311027 L203.865213,191.790366 L203.865213,191.790366 C203.865213,190.133512 205.208358,188.790366 206.865213,188.790366 Z"/>
      <path stroke="#263F6F" stroke-linecap="round" stroke-width="5" d="M44.9745146,196.418812 L78.4129751,196.418812" opacity=".4"/>
      <path stroke="#DFE4EE" stroke-linecap="round" stroke-width="5" d="M44.9745146,210.179143 L185.746308,210.179143"/>
      <path stroke="#DFE4EE" stroke-linecap="round" stroke-width="5" d="M33.2327341,168.898151 L63.9190578,168.898151" opacity=".6"/>
      <path fill="#DFE4EE" d="M31.9337759,255.050878 L287.788539,255.050878 L287.788539,255.050878 C289.445393,255.050878 290.788539,256.394023 290.788539,258.050878 L290.788539,298.836002 L290.788539,298.836002 C290.788539,300.492856 289.445393,301.836002 287.788539,301.836002 L31.9337759,301.836002 L31.9337759,301.836002 C30.2769217,301.836002 28.9337759,300.492856 28.9337759,298.836002 L28.9337759,258.050878 L28.9337759,258.050878 C28.9337759,256.394023 30.2769217,255.050878 31.9337759,255.050878 Z" opacity=".3"/>
      <path fill="#F5A623" d="M206.865213,264.472184 L277.925042,264.472184 L277.925042,264.472184 C279.581896,264.472184 280.925042,265.81533 280.925042,267.472184 L280.925042,288.992845 L280.925042,288.992845 C280.925042,290.6497 279.581896,291.992845 277.925042,291.992845 L206.865213,291.992845 L206.865213,291.992845 C205.208358,291.992845 203.865213,290.6497 203.865213,288.992845 L203.865213,267.472184 L203.865213,267.472184 C203.865213,265.81533 205.208358,264.472184 206.865213,264.472184 Z"/>
      <path stroke="#263F6F" stroke-linecap="round" stroke-width="5" d="M44.9745146,272.10063 L78.4129751,272.10063" opacity=".4"/>
      <path stroke="#DFE4EE" stroke-linecap="round" stroke-width="5" d="M44.9745146,285.860961 L185.746308,285.860961"/>
      <path stroke="#DFE4EE" stroke-linecap="round" stroke-width="5" d="M33.2327341,244.579969 L63.9190578,244.579969" opacity=".6"/>
      <path fill="#DFE4EE" d="M31.9337759,330.732696 L287.788539,330.732696 L287.788539,330.732696 C289.445393,330.732696 290.788539,332.075842 290.788539,333.732696 L290.788539,374.51782 L290.788539,374.51782 C290.788539,376.174674 289.445393,377.51782 287.788539,377.51782 L31.9337759,377.51782 L31.9337759,377.51782 C30.2769217,377.51782 28.9337759,376.174674 28.9337759,374.51782 L28.9337759,333.732696 L28.9337759,333.732696 C28.9337759,332.075842 30.2769217,330.732696 31.9337759,330.732696 Z" opacity=".3"/>
      <path fill="#4F77FC" d="M206.865213,340.154002 L277.925042,340.154002 L277.925042,340.154002 C279.581896,340.154002 280.925042,341.497148 280.925042,343.154002 L280.925042,364.674664 L280.925042,364.674664 C280.925042,366.331518 279.581896,367.674664 277.925042,367.674664 L206.865213,367.674664 L206.865213,367.674664 C205.208358,367.674664 203.865213,366.331518 203.865213,364.674664 L203.865213,343.154002 L203.865213,343.154002 C203.865213,341.497148 205.208358,340.154002 206.865213,340.154002 Z"/>
      <path stroke="#263F6F" stroke-linecap="round" stroke-width="5" d="M44.9745146,347.782448 L78.4129751,347.782448" opacity=".4"/>
      <path stroke="#DFE4EE" stroke-linecap="round" stroke-width="5" d="M44.9745146,361.542779 L185.746308,361.542779"/>
      <path stroke="#DFE4EE" stroke-linecap="round" stroke-width="5" d="M33.2327341,320.261787 L63.9190578,320.261787" opacity=".6"/>
      <path fill="#DFE4EE" d="M31.9337759,406.414514 L287.788539,406.414514 L287.788539,406.414514 C289.445393,406.414514 290.788539,407.75766 290.788539,409.414514 L290.788539,450.199638 L290.788539,450.199638 C290.788539,451.856492 289.445393,453.199638 287.788539,453.199638 L31.9337759,453.199638 L31.9337759,453.199638 C30.2769217,453.199638 28.9337759,451.856492 28.9337759,450.199638 L28.9337759,409.414514 L28.9337759,409.414514 C28.9337759,407.75766 30.2769217,406.414514 31.9337759,406.414514 Z" opacity=".3"/>
      <path fill="#4F77FC" d="M206.865213,415.835821 L277.925042,415.835821 L277.925042,415.835821 C279.581896,415.835821 280.925042,417.178966 280.925042,418.835821 L280.925042,440.356482 L280.925042,440.356482 C280.925042,442.013336 279.581896,443.356482 277.925042,443.356482 L206.865213,443.356482 L206.865213,443.356482 C205.208358,443.356482 203.865213,442.013336 203.865213,440.356482 L203.865213,418.835821 L203.865213,418.835821 C203.865213,417.178966 205.208358,415.835821 206.865213,415.835821 Z"/>
      <path stroke="#263F6F" stroke-linecap="round" stroke-width="5" d="M44.9745146,423.464267 L78.4129751,423.464267" opacity=".4"/>
      <path stroke="#DFE4EE" stroke-linecap="round" stroke-width="5" d="M44.9745146,437.224597 L185.746308,437.224597"/>
      <path stroke="#DFE4EE" stroke-linecap="round" stroke-width="5" d="M33.2327341,395.943605 L63.9190578,395.943605" opacity=".6"/>
      <path fill="#263F6F" d="M31.9337759,104.189443 L287.788539,104.189443 L287.788539,104.189443 C289.445393,104.189443 290.788539,105.532589 290.788539,107.189443 L290.788539,148.416505 L290.788539,148.416505 C290.788539,150.073359 289.445393,151.416505 287.788539,151.416505 L31.9337759,151.416505 L31.9337759,151.416505 C30.2769217,151.416505 28.9337759,150.073359 28.9337759,148.416505 L28.9337759,107.189443 L28.9337759,107.189443 C28.9337759,105.532589 30.2769217,104.189443 31.9337759,104.189443 Z" opacity=".8"/>
      <rect width="66.292" height="13.258" x="127.267" y="120.762" fill="#FFF" opacity=".4" rx="6.629"/>
      <path stroke="#FFF" stroke-linecap="round" stroke-width="3" d="M219.882502 203.298864L265.191831 203.299091M219.882502 277.604649L265.191831 277.604876M219.882502 354.662501L265.191831 354.662727M219.882502 430.344319L265.191831 430.344545" opacity=".3"/>
    </g>
    <use fill="#000" filter="url(#mobile-g)" xlink:href="#mobile-h"/>
    <use fill="#FFF" xlink:href="#mobile-h"/>
    <use fill="#000" filter="url(#mobile-i)" xlink:href="#mobile-h"/>
    <ellipse cx="160.394" cy="630.117" fill="url(#mobile-d)" rx="23.23" ry="23.215" style="mix-blend-mode:multiply"/>
    <rect width="61.945" height="5.527" x="129.422" y="32.059" fill="url(#mobile-e)" rx="2.764" style="mix-blend-mode:multiply"/>
    <path fill="url(#mobile-f)" d="M102.320573,37.5859515 C103.847872,37.5859515 105.085994,36.348613 105.085994,34.8222786 C105.085994,33.2959442 103.847872,32.0586057 102.320573,32.0586057 C100.793273,32.0586057 99.5551518,33.2959442 99.5551518,34.8222786 C99.5551518,36.348613 100.793273,37.5859515 102.320573,37.5859515 Z" style="mix-blend-mode:multiply"/>
    <path stroke="#DFE4EE" d="M31.9313305,103.76087 C30.5506186,103.76087 29.4313305,104.880158 29.4313305,106.26087 L29.4313305,560.55813 C29.4313305,561.938842 30.5506186,563.05813 31.9313305,563.05813 L288.09323,563.05813 C289.473942,563.05813 290.59323,561.938842 290.59323,560.55813 L290.59323,106.26087 C290.59323,104.880158 289.473942,103.76087 288.09323,103.76087 L31.9313305,103.76087 Z" opacity=".8"/>
    <g fill="#263F6F" opacity=".8" transform="translate(129.367 151.45)">
      <path d="M52.3487557,18.05003 L36.5891878,2.06379653 C33.8764752,-0.687932178 29.4844645,-0.687932178 26.771752,2.06379653 L11.1413608,18.05003 C10.2371233,18.9672729 10.2371233,20.4086546 11.1413608,21.3258975 L15.9209019,26.1741814 L19.0211448,29.1879795 C19.9253823,30.1052224 21.346327,30.1052224 22.3797412,29.1879795 L28.7094038,23.291418 C30.388702,21.7190016 33.1014145,21.7190016 34.9098895,23.291418 L41.2395521,29.1879795 C42.1437896,30.1052224 43.5647342,30.1052224 44.5981485,29.1879795 L47.8275682,26.1741814 L52.6071093,21.3258975 C53.2529932,20.4086546 53.2529932,18.9672729 52.3487557,18.05003 Z" opacity=".5"/>
      <path d="M2.10640612,36.7401709 L26.8331973,61.4488192 C29.5518497,64.1654768 33.9534775,64.1654768 36.6721299,61.4488192 L61.3989211,36.7401709 C65.6710892,32.4711375 62.6935175,31.177491 59.5864862,28.202104 L55.702697,24.5798938 C54.7964795,23.6743412 53.3724235,23.6743412 52.3367463,24.5798938 L45.993224,30.4013031 C44.3102487,31.9536789 41.5915962,31.9536789 39.7791613,30.4013031 L33.4356389,24.5798938 C32.5294215,23.6743412 31.1053654,23.6743412 30.0696883,24.5798938 L23.726166,30.4013031 C22.0431906,31.9536789 19.3245382,31.9536789 17.5121033,30.4013031 L11.1685809,24.5798938 C10.2623634,23.6743412 8.83830739,23.6743412 7.80263027,24.5798938 L4.30722,27.81401 C1.070729,30.9187617 -2.29522163,32.3417728 2.10640612,36.7401709 Z"/>
    </g>
    <path stroke="#DFE4EE" stroke-linecap="round" stroke-width="6" d="M110.214592 258.84058L211.281374 258.84058M96.4377682 337.318841L225.058198 337.318841"/>
    <path stroke="#263F6F" stroke-linecap="round" stroke-width="6" d="M61.9957082,353.84058 L259.500258,353.84058" opacity=".3"/>
    <path fill="#DFE4EE" d="M52.5965665 378.623188L267.025751 378.623188 267.025751 378.623188C268.682605 378.623188 270.025751 379.966334 270.025751 381.623188L270.025751 404.536232 270.025751 404.536232C270.025751 406.193086 268.682605 407.536232 267.025751 407.536232L52.5965665 407.536232 52.5965665 407.536232C50.9397123 407.536232 49.5965665 406.193086 49.5965665 404.536232L49.5965665 381.623188 49.5965665 381.623188C49.5965665 379.966334 50.9397123 378.623188 52.5965665 378.623188zM52.5965665 421.304348L267.025751 421.304348 267.025751 421.304348C268.682605 421.304348 270.025751 422.647494 270.025751 424.304348L270.025751 447.217391 270.025751 447.217391C270.025751 448.874246 268.682605 450.217391 267.025751 450.217391L52.5965665 450.217391 52.5965665 450.217391C50.9397123 450.217391 49.5965665 448.874246 49.5965665 447.217391L49.5965665 424.304348 49.5965665 424.304348C49.5965665 422.647494 50.9397123 421.304348 52.5965665 421.304348zM52.5965665 463.985507L267.025751 463.985507 267.025751 463.985507C268.682605 463.985507 270.025751 465.328653 270.025751 466.985507L270.025751 489.898551 270.025751 489.898551C270.025751 491.555405 268.682605 492.898551 267.025751 492.898551L52.5965665 492.898551 52.5965665 492.898551C50.9397123 492.898551 49.5965665 491.555405 49.5965665 489.898551L49.5965665 466.985507 49.5965665 466.985507C49.5965665 465.328653 50.9397123 463.985507 52.5965665 463.985507z"/>
    <path stroke="#DFE4EE" d="M52.5965665,277.23913 C51.2158546,277.23913 50.0965665,278.358419 50.0965665,279.73913 L50.0965665,302.652174 C50.0965665,304.032886 51.2158546,305.152174 52.5965665,305.152174 L267.025751,305.152174 C268.406463,305.152174 269.525751,304.032886 269.525751,302.652174 L269.525751,279.73913 C269.525751,278.358419 268.406463,277.23913 267.025751,277.23913 L52.5965665,277.23913 Z"/>
    <path fill="#4F77FC" d="M52.5965665,506.666667 L147.167382,506.666667 L147.167382,506.666667 C148.824236,506.666667 150.167382,508.009812 150.167382,509.666667 L150.167382,538.086957 L150.167382,538.086957 C150.167382,539.743811 148.824236,541.086957 147.167382,541.086957 L52.5965665,541.086957 L52.5965665,541.086957 C50.9397123,541.086957 49.5965665,539.743811 49.5965665,538.086957 L49.5965665,509.666667 L49.5965665,509.666667 C49.5965665,508.009812 50.9397123,506.666667 52.5965665,506.666667 Z"/>
    <path stroke="#FFF" stroke-linecap="round" stroke-width="3" d="M68.8841202,523.188406 L129.405709,523.18859" opacity=".3"/>
    <path fill="#263F6F" d="M172.454936,506.666667 L267.025751,506.666667 L267.025751,506.666667 C268.682605,506.666667 270.025751,508.009812 270.025751,509.666667 L270.025751,538.086957 L270.025751,538.086957 C270.025751,539.743811 268.682605,541.086957 267.025751,541.086957 L172.454936,541.086957 L172.454936,541.086957 C170.798081,541.086957 169.454936,539.743811 169.454936,538.086957 L169.454936,509.666667 L169.454936,509.666667 C169.454936,508.009812 170.798081,506.666667 172.454936,506.666667 Z" opacity=".4"/>
    <path stroke="#FFF" stroke-linecap="round" stroke-width="3" d="M188.742489,523.188406 L249.264078,523.18859" opacity=".3"/>
  </g>
</svg>
