<svg xmlns="http://www.w3.org/2000/svg" xmlns:xlink="http://www.w3.org/1999/xlink" width="100%" viewBox="0 0 620 401">
  <defs>
    <path id="dex-b" d="M6,-7.99352446e-15 L588,4.39468611e-13 L588,4.42312853e-13 C590.209139,4.41907036e-13 592,1.790861 592,4 L592,367 L592,367 C592,369.209139 590.209139,371 588,371 L6,371 L6,371 C3.790861,371 2,369.209139 2,367 L2,4 L2,4 C2,1.790861 3.790861,4.05816873e-16 6,0 Z"/>
    <filter id="dex-a" width="111.4%" height="118.1%" x="-5.7%" y="-5.8%" filterUnits="objectBoundingBox">
      <feOffset dy="2" in="SourceAlpha" result="shadowOffsetOuter1"/>
      <feGaussianBlur in="shadowOffsetOuter1" result="shadowBlurOuter1" stdDeviation="3"/>
      <feColorMatrix in="shadowBlurOuter1" result="shadowMatrixOuter1" values="0 0 0 0 0.694117647   0 0 0 0 0.752941176   0 0 0 0 0.839215686  0 0 0 0.4 0"/>
      <feOffset dy="10" in="SourceAlpha" result="shadowOffsetOuter2"/>
      <feGaussianBlur in="shadowOffsetOuter2" result="shadowBlurOuter2" stdDeviation="7.5"/>
      <feColorMatrix in="shadowBlurOuter2" result="shadowMatrixOuter2" values="0 0 0 0 0.705882353   0 0 0 0 0.788235294   0 0 0 0 0.952941176  0 0 0 0.35 0"/>
      <feMerge>
        <feMergeNode in="shadowMatrixOuter1"/>
        <feMergeNode in="shadowMatrixOuter2"/>
      </feMerge>
    </filter>
  </defs>
  <g fill="none" fill-rule="evenodd" transform="translate(13 5)">
    <use fill="#000" filter="url(#dex-a)" xlink:href="#dex-b"/>
    <use fill="#FFF" xlink:href="#dex-b"/>
    <g fill-rule="nonzero" transform="translate(33 67)">
      <path fill="#B5BDCE" d="M456,128.5 L462,128.5 C462.276142,128.5 462.5,128.276142 462.5,128 C462.5,127.723858 462.276142,127.5 462,127.5 L456,127.5 C455.723858,127.5 455.5,127.723858 455.5,128 C455.5,128.276142 455.723858,128.5 456,128.5 Z"/>
      <polygon fill="#DFE4EE" points="0 266 529 266 529 265 0 265" opacity=".33"/>
      <polygon fill="#DFE4EE" points="0 241 529 241 529 240 0 240" opacity=".33"/>
      <polygon fill="#DFE4EE" points="0 223 529 223 529 222 0 222" opacity=".33"/>
      <polygon fill="#DFE4EE" points="0 206 529 206 529 205 0 205" opacity=".33"/>
      <polygon fill="#DFE4EE" points="0 189 529 189 529 188 0 188" opacity=".33"/>
      <polygon fill="#DFE4EE" points="0 172 529 172 529 171 0 171" opacity=".33"/>
      <polygon fill="#DFE4EE" points="0 155 529 155 529 154 0 154" opacity=".33"/>
      <polygon fill="#DFE4EE" points="0 138 529 138 529 137 0 137" opacity=".33"/>
      <polygon fill="#DFE4EE" points="0 121 529 121 529 120 0 120" opacity=".33"/>
      <polygon fill="#DFE4EE" points="0 104 529 104 529 103 0 103" opacity=".33"/>
      <polygon fill="#DFE4EE" points="0 87 529 87 529 86 0 86" opacity=".33"/>
      <polygon fill="#DFE4EE" points="0 69 529 69 529 68 0 68" opacity=".33"/>
      <polygon fill="#DFE4EE" points="0 52 529 52 529 51 0 51" opacity=".33"/>
      <polygon fill="#DFE4EE" points="0 35 529 35 529 34 0 34" opacity=".33"/>
      <polygon fill="#DFE4EE" points="0 18 529 18 529 17 0 17" opacity=".33"/>
      <polygon fill="#DFE4EE" points="0 1 529 1 529 0 0 0" opacity=".33"/>
    </g>
    <path fill="#DFE4EE" fill-rule="nonzero" d="M-85.5,192 L191.5,192 C191.776142,192 192,191.776142 192,191.5 C192,191.223858 191.776142,191 191.5,191 L-85.5,191 C-85.7761424,191 -86,191.223858 -86,191.5 C-86,191.776142 -85.7761424,192 -85.5,192 Z" opacity=".25" transform="rotate(90 53 191.5)"/>
    <path fill="#DFE4EE" fill-rule="nonzero" d="M-45.5,192 L231.5,192 C231.776142,192 232,191.776142 232,191.5 C232,191.223858 231.776142,191 231.5,191 L-45.5,191 C-45.7761424,191 -46,191.223858 -46,191.5 C-46,191.776142 -45.7761424,192 -45.5,192 Z" opacity=".25" transform="rotate(90 93 191.5)"/>
    <path fill="#DFE4EE" fill-rule="nonzero" d="M-5.5,192 L271.5,192 C271.776142,192 272,191.776142 272,191.5 C272,191.223858 271.776142,191 271.5,191 L-5.5,191 C-5.77614237,191 -6,191.223858 -6,191.5 C-6,191.776142 -5.77614237,192 -5.5,192 Z" opacity=".25" transform="rotate(90 133 191.5)"/>
    <path fill="#DFE4EE" fill-rule="nonzero" d="M34.5,192 L311.5,192 C311.776142,192 312,191.776142 312,191.5 C312,191.223858 311.776142,191 311.5,191 L34.5,191 C34.2238576,191 34,191.223858 34,191.5 C34,191.776142 34.2238576,192 34.5,192 Z" opacity=".25" transform="rotate(90 173 191.5)"/>
    <path fill="#DFE4EE" fill-rule="nonzero" d="M73.5,192 L350.5,192 C350.776142,192 351,191.776142 351,191.5 C351,191.223858 350.776142,191 350.5,191 L73.5,191 C73.2238576,191 73,191.223858 73,191.5 C73,191.776142 73.2238576,192 73.5,192 Z" opacity=".25" transform="rotate(90 212 191.5)"/>
    <path fill="#DFE4EE" fill-rule="nonzero" d="M113.5,192 L390.5,192 C390.776142,192 391,191.776142 391,191.5 C391,191.223858 390.776142,191 390.5,191 L113.5,191 C113.223858,191 113,191.223858 113,191.5 C113,191.776142 113.223858,192 113.5,192 Z" opacity=".25" transform="rotate(90 252 191.5)"/>
    <path fill="#DFE4EE" fill-rule="nonzero" d="M153.5,192 L430.5,192 C430.776142,192 431,191.776142 431,191.5 C431,191.223858 430.776142,191 430.5,191 L153.5,191 C153.223858,191 153,191.223858 153,191.5 C153,191.776142 153.223858,192 153.5,192 Z" opacity=".25" transform="rotate(90 292 191.5)"/>
    <path fill="#DFE4EE" fill-rule="nonzero" d="M193.5,192 L470.5,192 C470.776142,192 471,191.776142 471,191.5 C471,191.223858 470.776142,191 470.5,191 L193.5,191 C193.223858,191 193,191.223858 193,191.5 C193,191.776142 193.223858,192 193.5,192 Z" opacity=".25" transform="rotate(90 332 191.5)"/>
    <path fill="#DFE4EE" fill-rule="nonzero" d="M233.5,192 L510.5,192 C510.776142,192 511,191.776142 511,191.5 C511,191.223858 510.776142,191 510.5,191 L233.5,191 C233.223858,191 233,191.223858 233,191.5 C233,191.776142 233.223858,192 233.5,192 Z" opacity=".25" transform="rotate(90 372 191.5)"/>
    <path fill="#DFE4EE" fill-rule="nonzero" d="M273.5,192 L550.5,192 C550.776142,192 551,191.776142 551,191.5 C551,191.223858 550.776142,191 550.5,191 L273.5,191 C273.223858,191 273,191.223858 273,191.5 C273,191.776142 273.223858,192 273.5,192 Z" opacity=".25" transform="rotate(90 412 191.5)"/>
    <path fill="#DFE4EE" fill-rule="nonzero" d="M313.5,192 L590.5,192 C590.776142,192 591,191.776142 591,191.5 C591,191.223858 590.776142,191 590.5,191 L313.5,191 C313.223858,191 313,191.223858 313,191.5 C313,191.776142 313.223858,192 313.5,192 Z" opacity=".25" transform="rotate(90 452 191.5)"/>
    <path fill="#DFE4EE" fill-rule="nonzero" d="M352.5,192 L631.5,192 C631.776142,192 632,191.776142 632,191.5 C632,191.223858 631.776142,191 631.5,191 L352.5,191 C352.223858,191 352,191.223858 352,191.5 C352,191.776142 352.223858,192 352.5,192 Z" opacity=".25" transform="rotate(90 492 191.5)"/>
    <path fill="#DFE4EE" fill-rule="nonzero" d="M391.5,192 L670.5,192 C670.776142,192 671,191.776142 671,191.5 C671,191.223858 670.776142,191 670.5,191 L391.5,191 C391.223858,191 391,191.223858 391,191.5 C391,191.776142 391.223858,192 391.5,192 Z" opacity=".25" transform="rotate(90 531 191.5)"/>
    <path fill="#4F89DC" fill-rule="nonzero" d="M33.5,252.5 L72.5,252.5 C74.1568542,252.5 75.5,251.156854 75.5,249.5 C75.5,247.843146 74.1568542,246.5 72.5,246.5 L33.5,246.5 C31.8431458,246.5 30.5,247.843146 30.5,249.5 C30.5,251.156854 31.8431458,252.5 33.5,252.5 Z" transform="rotate(90 53 249.5)"/>
    <path fill="#4F89DC" fill-rule="nonzero" d="M29.5,250 L76.5,250 C76.7761424,250 77,249.776142 77,249.5 C77,249.223858 76.7761424,249 76.5,249 L29.5,249 C29.2238576,249 29,249.223858 29,249.5 C29,249.776142 29.2238576,250 29.5,250 Z" transform="rotate(90 53 249.5)"/>
    <path fill="#4F89DC" fill-rule="nonzero" d="M93,287 L125,287 C126.656854,287 128,285.656854 128,284 C128,282.343146 126.656854,281 125,281 L93,281 C91.3431458,281 90,282.343146 90,284 C90,285.656854 91.3431458,287 93,287 Z" transform="rotate(90 109 284)"/>
    <path fill="#4F89DC" fill-rule="nonzero" d="M87,285.5 L131,285.5 C131.276142,285.5 131.5,285.276142 131.5,285 C131.5,284.723858 131.276142,284.5 131,284.5 L87,284.5 C86.7238576,284.5 86.5,284.723858 86.5,285 C86.5,285.276142 86.7238576,285.5 87,285.5 Z" transform="rotate(90 109 285)"/>
    <path fill="#4F89DC" fill-rule="nonzero" d="M91,241 L143,241 C144.656854,241 146,239.656854 146,238 C146,236.343146 144.656854,235 143,235 L91,235 C89.3431458,235 88,236.343146 88,238 C88,239.656854 89.3431458,241 91,241 Z" transform="rotate(90 117 238)"/>
    <path fill="#4F89DC" fill-rule="nonzero" d="M95,197.5 L139,197.5 C139.276142,197.5 139.5,197.276142 139.5,197 C139.5,196.723858 139.276142,196.5 139,196.5 L95,196.5 C94.7238576,196.5 94.5,196.723858 94.5,197 C94.5,197.276142 94.7238576,197.5 95,197.5 Z" transform="rotate(90 117 197)"/>
    <path fill="#4F89DC" fill-rule="nonzero" d="M67.5,251.5 L70.5,251.5 C72.1568542,251.5 73.5,250.156854 73.5,248.5 C73.5,246.843146 72.1568542,245.5 70.5,245.5 L67.5,245.5 C65.8431458,245.5 64.5,246.843146 64.5,248.5 C64.5,250.156854 65.8431458,251.5 67.5,251.5 Z" transform="rotate(90 69 248.5)"/>
    <path fill="#4F89DC" fill-rule="nonzero" d="M60,252 L78,252 C78.2761424,252 78.5,251.776142 78.5,251.5 C78.5,251.223858 78.2761424,251 78,251 L60,251 C59.7238576,251 59.5,251.223858 59.5,251.5 C59.5,251.776142 59.7238576,252 60,252 Z" transform="rotate(90 69 251.5)"/>
    <path fill="#4F89DC" fill-rule="nonzero" d="M125,215 L141,215 C142.656854,215 144,213.656854 144,212 C144,210.343146 142.656854,209 141,209 L125,209 C123.343146,209 122,210.343146 122,212 C122,213.656854 123.343146,215 125,215 Z" transform="rotate(90 133 212)"/>
    <path fill="#4F89DC" fill-rule="nonzero" d="M124,229 L142,229 C142.276142,229 142.5,228.776142 142.5,228.5 C142.5,228.223858 142.276142,228 142,228 L124,228 C123.723858,228 123.5,228.223858 123.5,228.5 C123.5,228.776142 123.723858,229 124,229 Z" transform="rotate(90 133 228.5)"/>
    <path fill="#4F89DC" fill-rule="nonzero" d="M151,235 L179,235 C180.656854,235 182,233.656854 182,232 C182,230.343146 180.656854,229 179,229 L151,229 C149.343146,229 148,230.343146 148,232 C148,233.656854 149.343146,235 151,235 Z" transform="rotate(90 165 232)"/>
    <path fill="#4F89DC" fill-rule="nonzero" d="M156,215 L174,215 C174.276142,215 174.5,214.776142 174.5,214.5 C174.5,214.223858 174.276142,214 174,214 L156,214 C155.723858,214 155.5,214.223858 155.5,214.5 C155.5,214.776142 155.723858,215 156,215 Z" transform="rotate(90 165 214.5)"/>
    <path fill="#4F89DC" fill-rule="nonzero" d="M185,227 L191,227 C192.656854,227 194,225.656854 194,224 C194,222.343146 192.656854,221 191,221 L185,221 C183.343146,221 182,222.343146 182,224 C182,225.656854 183.343146,227 185,227 Z" transform="rotate(90 188 224)"/>
    <path fill="#4F89DC" fill-rule="nonzero" d="M173.5,212.5 L202.5,212.5 C202.776142,212.5 203,212.276142 203,212 C203,211.723858 202.776142,211.5 202.5,211.5 L173.5,211.5 C173.223858,211.5 173,211.723858 173,212 C173,212.276142 173.223858,212.5 173.5,212.5 Z" transform="rotate(90 188 212)"/>
    <path fill="#4F89DC" fill-rule="nonzero" d="M227.5,236.5 L228.5,236.5 C230.156854,236.5 231.5,235.156854 231.5,233.5 C231.5,231.843146 230.156854,230.5 228.5,230.5 L227.5,230.5 C225.843146,230.5 224.5,231.843146 224.5,233.5 C224.5,235.156854 225.843146,236.5 227.5,236.5 Z" transform="rotate(90 228 233.5)"/>
    <path fill="#4F89DC" fill-rule="nonzero" d="M217,228 L239,228 C239.276142,228 239.5,227.776142 239.5,227.5 C239.5,227.223858 239.276142,227 239,227 L217,227 C216.723858,227 216.5,227.223858 216.5,227.5 C216.5,227.776142 216.723858,228 217,228 Z" transform="rotate(90 228 227.5)"/>
    <path fill="#4F89DC" fill-rule="nonzero" d="M235.5,231.5 L236.5,231.5 C238.156854,231.5 239.5,230.156854 239.5,228.5 C239.5,226.843146 238.156854,225.5 236.5,225.5 L235.5,225.5 C233.843146,225.5 232.5,226.843146 232.5,228.5 C232.5,230.156854 233.843146,231.5 235.5,231.5 Z" transform="rotate(90 236 228.5)"/>
    <path fill="#4F89DC" fill-rule="nonzero" d="M227,228 L245,228 C245.276142,228 245.5,227.776142 245.5,227.5 C245.5,227.223858 245.276142,227 245,227 L227,227 C226.723858,227 226.5,227.223858 226.5,227.5 C226.5,227.776142 226.723858,228 227,228 Z" transform="rotate(90 236 227.5)"/>
    <path fill="#4F89DC" fill-rule="nonzero" d="M241.5,230.5 L262.5,230.5 C264.156854,230.5 265.5,229.156854 265.5,227.5 C265.5,225.843146 264.156854,224.5 262.5,224.5 L241.5,224.5 C239.843146,224.5 238.5,225.843146 238.5,227.5 C238.5,229.156854 239.843146,230.5 241.5,230.5 Z" transform="rotate(90 252 227.5)"/>
    <path fill="#4F89DC" fill-rule="nonzero" d="M234,231 L270,231 C270.276142,231 270.5,230.776142 270.5,230.5 C270.5,230.223858 270.276142,230 270,230 L234,230 C233.723858,230 233.5,230.223858 233.5,230.5 C233.5,230.776142 233.723858,231 234,231 Z" transform="rotate(90 252 230.5)"/>
    <path fill="#4F89DC" fill-rule="nonzero" d="M266,222 L270,222 C271.656854,222 273,220.656854 273,219 C273,217.343146 271.656854,216 270,216 L266,216 C264.343146,216 263,217.343146 263,219 C263,220.656854 264.343146,222 266,222 Z" transform="rotate(90 268 219)"/>
    <path fill="#4F89DC" fill-rule="nonzero" d="M259.5,221.5 L276.5,221.5 C276.776142,221.5 277,221.276142 277,221 C277,220.723858 276.776142,220.5 276.5,220.5 L259.5,220.5 C259.223858,220.5 259,220.723858 259,221 C259,221.276142 259.223858,221.5 259.5,221.5 Z" transform="rotate(90 268 221)"/>
    <path fill="#4F89DC" fill-rule="nonzero" d="M264,203.5 L288,203.5 C289.656854,203.5 291,202.156854 291,200.5 C291,198.843146 289.656854,197.5 288,197.5 L264,197.5 C262.343146,197.5 261,198.843146 261,200.5 C261,202.156854 262.343146,203.5 264,203.5 Z" transform="rotate(90 276 200.5)"/>
    <path fill="#4F89DC" fill-rule="nonzero" d="M255.5,198.5 L296.5,198.5 C296.776142,198.5 297,198.276142 297,198 C297,197.723858 296.776142,197.5 296.5,197.5 L255.5,197.5 C255.223858,197.5 255,197.723858 255,198 C255,198.276142 255.223858,198.5 255.5,198.5 Z" transform="rotate(90 276 198)"/>
    <path fill="#4F89DC" fill-rule="nonzero" d="M266,169.5 L302,169.5 C303.656854,169.5 305,168.156854 305,166.5 C305,164.843146 303.656854,163.5 302,163.5 L266,163.5 C264.343146,163.5 263,164.843146 263,166.5 C263,168.156854 264.343146,169.5 266,169.5 Z" transform="rotate(90 284 166.5)"/>
    <path fill="#4F89DC" fill-rule="nonzero" d="M252.5,159.5 L315.5,159.5 C315.776142,159.5 316,159.276142 316,159 C316,158.723858 315.776142,158.5 315.5,158.5 L252.5,158.5 C252.223858,158.5 252,158.723858 252,159 C252,159.276142 252.223858,159.5 252.5,159.5 Z" transform="rotate(90 284 159)"/>
    <path fill="#4F89DC" fill-rule="nonzero" d="M288.5,145 L295.5,145 C297.156854,145 298.5,143.656854 298.5,142 C298.5,140.343146 297.156854,139 295.5,139 L288.5,139 C286.843146,139 285.5,140.343146 285.5,142 C285.5,143.656854 286.843146,145 288.5,145 Z" transform="rotate(90 292 142)"/>
    <path fill="#4F89DC" fill-rule="nonzero" d="M267,127 L317,127 C317.276142,127 317.5,126.776142 317.5,126.5 C317.5,126.223858 317.276142,126 317,126 L267,126 C266.723858,126 266.5,126.223858 266.5,126.5 C266.5,126.776142 266.723858,127 267,127 Z" transform="rotate(90 292 126.5)"/>
    <path fill="#4F89DC" fill-rule="nonzero" d="M338.5,173.5 L341.5,173.5 C343.156854,173.5 344.5,172.156854 344.5,170.5 C344.5,168.843146 343.156854,167.5 341.5,167.5 L338.5,167.5 C336.843146,167.5 335.5,168.843146 335.5,170.5 C335.5,172.156854 336.843146,173.5 338.5,173.5 Z" transform="rotate(90 340 170.5)"/>
    <path fill="#4F89DC" fill-rule="nonzero" d="M319.5,153 L360.5,153 C360.776142,153 361,152.776142 361,152.5 C361,152.223858 360.776142,152 360.5,152 L319.5,152 C319.223858,152 319,152.223858 319,152.5 C319,152.776142 319.223858,153 319.5,153 Z" transform="rotate(90 340 152.5)"/>
    <path fill="#4F89DC" fill-rule="nonzero" d="M346,166 L350,166 C351.656854,166 353,164.656854 353,163 C353,161.343146 351.656854,160 350,160 L346,160 C344.343146,160 343,161.343146 343,163 C343,164.656854 344.343146,166 346,166 Z" transform="rotate(90 348 163)"/>
    <path fill="#4F89DC" fill-rule="nonzero" d="M342,170 L354,170 C354.276142,170 354.5,169.776142 354.5,169.5 C354.5,169.223858 354.276142,169 354,169 L342,169 C341.723858,169 341.5,169.223858 341.5,169.5 C341.5,169.776142 341.723858,170 342,170 Z" transform="rotate(90 348 169.5)"/>
    <path fill="#4F89DC" fill-rule="nonzero" d="M355.5,159.5 L356.5,159.5 C358.156854,159.5 359.5,158.156854 359.5,156.5 C359.5,154.843146 358.156854,153.5 356.5,153.5 L355.5,153.5 C353.843146,153.5 352.5,154.843146 352.5,156.5 C352.5,158.156854 353.843146,159.5 355.5,159.5 Z" transform="rotate(90 356 156.5)"/>
    <path fill="#4F89DC" fill-rule="nonzero" d="M347.5,167.5 L364.5,167.5 C364.776142,167.5 365,167.276142 365,167 C365,166.723858 364.776142,166.5 364.5,166.5 L347.5,166.5 C347.223858,166.5 347,166.723858 347,167 C347,167.276142 347.223858,167.5 347.5,167.5 Z" transform="rotate(90 356 167)"/>
    <path fill="#4F89DC" fill-rule="nonzero" d="M375.5,159.5 L384.5,159.5 C386.156854,159.5 387.5,158.156854 387.5,156.5 C387.5,154.843146 386.156854,153.5 384.5,153.5 L375.5,153.5 C373.843146,153.5 372.5,154.843146 372.5,156.5 C372.5,158.156854 373.843146,159.5 375.5,159.5 Z" transform="rotate(90 380 156.5)"/>
    <path fill="#4F89DC" fill-rule="nonzero" d="M374,161 L386,161 C386.276142,161 386.5,160.776142 386.5,160.5 C386.5,160.223858 386.276142,160 386,160 L374,160 C373.723858,160 373.5,160.223858 373.5,160.5 C373.5,160.776142 373.723858,161 374,161 Z" transform="rotate(90 380 160.5)"/>
    <path fill="#4F89DC" fill-rule="nonzero" d="M418,202 L422,202 C423.656854,202 425,200.656854 425,199 C425,197.343146 423.656854,196 422,196 L418,196 C416.343146,196 415,197.343146 415,199 C415,200.656854 416.343146,202 418,202 Z" transform="rotate(90 420 199)"/>
    <path fill="#4F89DC" fill-rule="nonzero" d="M407,189 L433,189 C433.276142,189 433.5,188.776142 433.5,188.5 C433.5,188.223858 433.276142,188 433,188 L407,188 C406.723858,188 406.5,188.223858 406.5,188.5 C406.5,188.776142 406.723858,189 407,189 Z" transform="rotate(90 420 188.5)"/>
    <path fill="#4F89DC" fill-rule="nonzero" d="M422,190 L434,190 C435.656854,190 437,188.656854 437,187 C437,185.343146 435.656854,184 434,184 L422,184 C420.343146,184 419,185.343146 419,187 C419,188.656854 420.343146,190 422,190 Z" transform="rotate(90 428 187)"/>
    <path fill="#4F89DC" fill-rule="nonzero" d="M420,190 L436,190 C436.276142,190 436.5,189.776142 436.5,189.5 C436.5,189.223858 436.276142,189 436,189 L420,189 C419.723858,189 419.5,189.223858 419.5,189.5 C419.5,189.776142 419.723858,190 420,190 Z" transform="rotate(90 428 189.5)"/>
    <path fill="#4F89DC" fill-rule="nonzero" d="M426,169 L446,169 C447.656854,169 449,167.656854 449,166 C449,164.343146 447.656854,163 446,163 L426,163 C424.343146,163 423,164.343146 423,166 C423,167.656854 424.343146,169 426,169 Z" transform="rotate(90 436 166)"/>
    <path fill="#4F89DC" fill-rule="nonzero" d="M428,173 L444,173 C444.276142,173 444.5,172.776142 444.5,172.5 C444.5,172.223858 444.276142,172 444,172 L428,172 C427.723858,172 427.5,172.223858 427.5,172.5 C427.5,172.776142 427.723858,173 428,173 Z" transform="rotate(90 436 172.5)"/>
    <path fill="#4F89DC" fill-rule="nonzero" d="M464.5,181.5 L471.5,181.5 C473.156854,181.5 474.5,180.156854 474.5,178.5 C474.5,176.843146 473.156854,175.5 471.5,175.5 L464.5,175.5 C462.843146,175.5 461.5,176.843146 461.5,178.5 C461.5,180.156854 462.843146,181.5 464.5,181.5 Z" transform="rotate(90 468 178.5)"/>
    <path fill="#4F89DC" fill-rule="nonzero" d="M453.5,167.5 L482.5,167.5 C482.776142,167.5 483,167.276142 483,167 C483,166.723858 482.776142,166.5 482.5,166.5 L453.5,166.5 C453.223858,166.5 453,166.723858 453,167 C453,167.276142 453.223858,167.5 453.5,167.5 Z" transform="rotate(90 468 167)"/>
    <path fill="#4F89DC" fill-rule="nonzero" d="M481.5,201.5 L486.5,201.5 C488.156854,201.5 489.5,200.156854 489.5,198.5 C489.5,196.843146 488.156854,195.5 486.5,195.5 L481.5,195.5 C479.843146,195.5 478.5,196.843146 478.5,198.5 C478.5,200.156854 479.843146,201.5 481.5,201.5 Z" transform="rotate(90 484 198.5)"/>
    <path fill="#4F89DC" fill-rule="nonzero" d="M473,199 L495,199 C495.276142,199 495.5,198.776142 495.5,198.5 C495.5,198.223858 495.276142,198 495,198 L473,198 C472.723858,198 472.5,198.223858 472.5,198.5 C472.5,198.776142 472.723858,199 473,199 Z" transform="rotate(90 484 198.5)"/>
    <path fill="#4F89DC" fill-rule="nonzero" d="M505.5,240.5 L510.5,240.5 C512.156854,240.5 513.5,239.156854 513.5,237.5 C513.5,235.843146 512.156854,234.5 510.5,234.5 L505.5,234.5 C503.843146,234.5 502.5,235.843146 502.5,237.5 C502.5,239.156854 503.843146,240.5 505.5,240.5 Z" transform="rotate(90 508 237.5)"/>
    <path fill="#4F89DC" fill-rule="nonzero" d="M497,238 L519,238 C519.276142,238 519.5,237.776142 519.5,237.5 C519.5,237.223858 519.276142,237 519,237 L497,237 C496.723858,237 496.5,237.223858 496.5,237.5 C496.5,237.776142 496.723858,238 497,238 Z" transform="rotate(90 508 237.5)"/>
    <path fill="#4F89DC" fill-rule="nonzero" d="M523.5,201.5 L538.5,201.5 C540.156854,201.5 541.5,200.156854 541.5,198.5 C541.5,196.843146 540.156854,195.5 538.5,195.5 L523.5,195.5 C521.843146,195.5 520.5,196.843146 520.5,198.5 C520.5,200.156854 521.843146,201.5 523.5,201.5 Z" transform="rotate(90 531 198.5)"/>
    <path fill="#4F89DC" fill-rule="nonzero" d="M508.5,203 L553.5,203 C553.776142,203 554,202.776142 554,202.5 C554,202.223858 553.776142,202 553.5,202 L508.5,202 C508.223858,202 508,202.223858 508,202.5 C508,202.776142 508.223858,203 508.5,203 Z" transform="rotate(90 531 202.5)"/>
    <path fill="#4F89DC" fill-rule="nonzero" d="M491.5,144.5 L586.5,144.5 C588.156854,144.5 589.5,143.156854 589.5,141.5 C589.5,139.843146 588.156854,138.5 586.5,138.5 L491.5,138.5 C489.843146,138.5 488.5,139.843146 488.5,141.5 C488.5,143.156854 489.843146,144.5 491.5,144.5 Z" transform="rotate(90 539 141.5)"/>
    <path fill="#4F89DC" fill-rule="nonzero" d="M476.5,133 L601.5,133 C601.776142,133 602,132.776142 602,132.5 C602,132.223858 601.776142,132 601.5,132 L476.5,132 C476.223858,132 476,132.223858 476,132.5 C476,132.776142 476.223858,133 476.5,133 Z" transform="rotate(90 539 132.5)"/>
    <path fill="#4F89DC" fill-rule="nonzero" d="M499.5,218.5 L530.5,218.5 C532.156854,218.5 533.5,217.156854 533.5,215.5 C533.5,213.843146 532.156854,212.5 530.5,212.5 L499.5,212.5 C497.843146,212.5 496.5,213.843146 496.5,215.5 C496.5,217.156854 497.843146,218.5 499.5,218.5 Z" transform="rotate(90 515 215.5)"/>
    <path fill="#B5BDCE" fill-rule="nonzero" d="M478.5,221.5 L521.5,221.5 C523.156854,221.5 524.5,220.156854 524.5,218.5 C524.5,216.843146 523.156854,215.5 521.5,215.5 L478.5,215.5 C476.843146,215.5 475.5,216.843146 475.5,218.5 C475.5,220.156854 476.843146,221.5 478.5,221.5 Z" transform="rotate(90 500 218.5)"/>
    <path fill="#B5BDCE" fill-rule="nonzero" d="M489,200 L511,200 C511.276142,200 511.5,199.776142 511.5,199.5 C511.5,199.223858 511.276142,199 511,199 L489,199 C488.723858,199 488.5,199.223858 488.5,199.5 C488.5,199.776142 488.723858,200 489,200 Z" transform="rotate(90 500 199.5)"/>
    <path fill="#B5BDCE" fill-rule="nonzero" d="M520,206 L526,206 C527.656854,206 529,204.656854 529,203 C529,201.343146 527.656854,200 526,200 L520,200 C518.343146,200 517,201.343146 517,203 C517,204.656854 518.343146,206 520,206 Z" transform="rotate(90 523 203)"/>
    <path fill="#B5BDCE" fill-rule="nonzero" d="M503,197 L543,197 C543.276142,197 543.5,196.776142 543.5,196.5 C543.5,196.223858 543.276142,196 543,196 L503,196 C502.723858,196 502.5,196.223858 502.5,196.5 C502.5,196.776142 502.723858,197 503,197 Z" transform="rotate(90 523 196.5)"/>
    <path fill="#4F89DC" fill-rule="nonzero" d="M308.5,172.5 L339.5,172.5 C341.156854,172.5 342.5,171.156854 342.5,169.5 C342.5,167.843146 341.156854,166.5 339.5,166.5 L308.5,166.5 C306.843146,166.5 305.5,167.843146 305.5,169.5 C305.5,171.156854 306.843146,172.5 308.5,172.5 Z" transform="rotate(90 324 169.5)"/>
    <path fill="#4F89DC" fill-rule="nonzero" d="M308,173.5 L340,173.5 C340.276142,173.5 340.5,173.276142 340.5,173 C340.5,172.723858 340.276142,172.5 340,172.5 L308,172.5 C307.723858,172.5 307.5,172.723858 307.5,173 C307.5,173.276142 307.723858,173.5 308,173.5 Z" transform="rotate(90 324 173)"/>
    <path fill="#4F89DC" fill-rule="nonzero" d="M198,251 L226,251 C227.656854,251 229,249.656854 229,248 C229,246.343146 227.656854,245 226,245 L198,245 C196.343146,245 195,246.343146 195,248 C195,249.656854 196.343146,251 198,251 Z" transform="rotate(90 212 248)"/>
    <path fill="#4F89DC" fill-rule="nonzero" d="M197.5,227.5 L226.5,227.5 C226.776142,227.5 227,227.276142 227,227 C227,226.723858 226.776142,226.5 226.5,226.5 L197.5,226.5 C197.223858,226.5 197,226.723858 197,227 C197,227.276142 197.223858,227.5 197.5,227.5 Z" transform="rotate(90 212 227)"/>
    <path fill="#4F89DC" fill-rule="nonzero" d="M156.5,250.5 L157.5,250.5 C159.156854,250.5 160.5,249.156854 160.5,247.5 C160.5,245.843146 159.156854,244.5 157.5,244.5 L156.5,244.5 C154.843146,244.5 153.5,245.843146 153.5,247.5 C153.5,249.156854 154.843146,250.5 156.5,250.5 Z" transform="rotate(90 157 247.5)"/>
    <path fill="#4F89DC" fill-rule="nonzero" d="M149,256 L165,256 C165.276142,256 165.5,255.776142 165.5,255.5 C165.5,255.223858 165.276142,255 165,255 L149,255 C148.723858,255 148.5,255.223858 148.5,255.5 C148.5,255.776142 148.723858,256 149,256 Z" transform="rotate(90 157 255.5)"/>
    <path fill="#4F89DC" fill-rule="nonzero" d="M68.5,243 L85.5,243 C85.7761424,243 86,242.776142 86,242.5 C86,242.223858 85.7761424,242 85.5,242 L68.5,242 C68.2238576,242 68,242.223858 68,242.5 C68,242.776142 68.2238576,243 68.5,243 Z" transform="rotate(90 77 242.5)"/>
    <path fill="#B5BDCE" fill-rule="nonzero" d="M52.5,243.5 L69.5,243.5 C71.1568542,243.5 72.5,242.156854 72.5,240.5 C72.5,238.843146 71.1568542,237.5 69.5,237.5 L52.5,237.5 C50.8431458,237.5 49.5,238.843146 49.5,240.5 C49.5,242.156854 50.8431458,243.5 52.5,243.5 Z" transform="rotate(90 61 240.5)"/>
    <path fill="#B5BDCE" fill-rule="nonzero" d="M43,235.5 L79,235.5 C79.2761424,235.5 79.5,235.276142 79.5,235 C79.5,234.723858 79.2761424,234.5 79,234.5 L43,234.5 C42.7238576,234.5 42.5,234.723858 42.5,235 C42.5,235.276142 42.7238576,235.5 43,235.5 Z" transform="rotate(90 61 235)"/>
    <path fill="#B5BDCE" fill-rule="nonzero" d="M76.5,257.5 L93.5,257.5 C95.1568542,257.5 96.5,256.156854 96.5,254.5 C96.5,252.843146 95.1568542,251.5 93.5,251.5 L76.5,251.5 C74.8431458,251.5 73.5,252.843146 73.5,254.5 C73.5,256.156854 74.8431458,257.5 76.5,257.5 Z" transform="rotate(90 85 254.5)"/>
    <path fill="#B5BDCE" fill-rule="nonzero" d="M69.5,252 L100.5,252 C100.776142,252 101,251.776142 101,251.5 C101,251.223858 100.776142,251 100.5,251 L69.5,251 C69.2238576,251 69,251.223858 69,251.5 C69,251.776142 69.2238576,252 69.5,252 Z" transform="rotate(90 85 251.5)"/>
    <path fill="#B5BDCE" fill-rule="nonzero" d="M116.5,223.5 L133.5,223.5 C135.156854,223.5 136.5,222.156854 136.5,220.5 C136.5,218.843146 135.156854,217.5 133.5,217.5 L116.5,217.5 C114.843146,217.5 113.5,218.843146 113.5,220.5 C113.5,222.156854 114.843146,223.5 116.5,223.5 Z" transform="rotate(90 125 220.5)"/>
    <path fill="#B5BDCE" fill-rule="nonzero" d="M111,226.5 L139,226.5 C139.276142,226.5 139.5,226.276142 139.5,226 C139.5,225.723858 139.276142,225.5 139,225.5 L111,225.5 C110.723858,225.5 110.5,225.723858 110.5,226 C110.5,226.276142 110.723858,226.5 111,226.5 Z" transform="rotate(90 125 226)"/>
    <path fill="#B5BDCE" fill-rule="nonzero" d="M172.5,219.5 L173.5,219.5 C175.156854,219.5 176.5,218.156854 176.5,216.5 C176.5,214.843146 175.156854,213.5 173.5,213.5 L172.5,213.5 C170.843146,213.5 169.5,214.843146 169.5,216.5 C169.5,218.156854 170.843146,219.5 172.5,219.5 Z" transform="rotate(90 173 216.5)"/>
    <path fill="#B5BDCE" fill-rule="nonzero" d="M156.5,201 L189.5,201 C189.776142,201 190,200.776142 190,200.5 C190,200.223858 189.776142,200 189.5,200 L156.5,200 C156.223858,200 156,200.223858 156,200.5 C156,200.776142 156.223858,201 156.5,201 Z" transform="rotate(90 173 200.5)"/>
    <path fill="#B5BDCE" fill-rule="nonzero" d="M177.5,226.5 L184.5,226.5 C186.156854,226.5 187.5,225.156854 187.5,223.5 C187.5,221.843146 186.156854,220.5 184.5,220.5 L177.5,220.5 C175.843146,220.5 174.5,221.843146 174.5,223.5 C174.5,225.156854 175.843146,226.5 177.5,226.5 Z" transform="rotate(90 181 223.5)"/>
    <path fill="#B5BDCE" fill-rule="nonzero" d="M170,224.5 L191,224.5 C191.276142,224.5 191.5,224.276142 191.5,224 C191.5,223.723858 191.276142,223.5 191,223.5 L170,223.5 C169.723858,223.5 169.5,223.723858 169.5,224 C169.5,224.276142 169.723858,224.5 170,224.5 Z" transform="rotate(90 180.5 224)"/>
    <path fill="#B5BDCE" fill-rule="nonzero" d="M197.5,259.5 L210.5,259.5 C212.156854,259.5 213.5,258.156854 213.5,256.5 C213.5,254.843146 212.156854,253.5 210.5,253.5 L197.5,253.5 C195.843146,253.5 194.5,254.843146 194.5,256.5 C194.5,258.156854 195.843146,259.5 197.5,259.5 Z" transform="rotate(90 204 256.5)"/>
    <path fill="#B5BDCE" fill-rule="nonzero" d="M186.5,261 L220.5,261 C220.776142,261 221,260.776142 221,260.5 C221,260.223858 220.776142,260 220.5,260 L186.5,260 C186.223858,260 186,260.223858 186,260.5 C186,260.776142 186.223858,261 186.5,261 Z" transform="rotate(90 203.5 260.5)"/>
    <path fill="#B5BDCE" fill-rule="nonzero" d="M239,236 L249,236 C250.656854,236 252,234.656854 252,233 C252,231.343146 250.656854,230 249,230 L239,230 C237.343146,230 236,231.343146 236,233 C236,234.656854 237.343146,236 239,236 Z" transform="rotate(90 244 233)"/>
    <path fill="#B5BDCE" fill-rule="nonzero" d="M231.5,241 L255.5,241 C255.776142,241 256,240.776142 256,240.5 C256,240.223858 255.776142,240 255.5,240 L231.5,240 C231.223858,240 231,240.223858 231,240.5 C231,240.776142 231.223858,241 231.5,241 Z" transform="rotate(90 243.5 240.5)"/>
    <path fill="#B5BDCE" fill-rule="nonzero" d="M258,221.5 L262,221.5 C263.656854,221.5 265,220.156854 265,218.5 C265,216.843146 263.656854,215.5 262,215.5 L258,215.5 C256.343146,215.5 255,216.843146 255,218.5 C255,220.156854 256.343146,221.5 258,221.5 Z" transform="rotate(90 260 218.5)"/>
    <path fill="#B5BDCE" fill-rule="nonzero" d="M246,213.5 L273,213.5 C273.276142,213.5 273.5,213.276142 273.5,213 C273.5,212.723858 273.276142,212.5 273,212.5 L246,212.5 C245.723858,212.5 245.5,212.723858 245.5,213 C245.5,213.276142 245.723858,213.5 246,213.5 Z" transform="rotate(90 259.5 213)"/>
    <path fill="#B5BDCE" fill-rule="nonzero" d="M298,144 L302,144 C303.656854,144 305,142.656854 305,141 C305,139.343146 303.656854,138 302,138 L298,138 C296.343146,138 295,139.343146 295,141 C295,142.656854 296.343146,144 298,144 Z" transform="rotate(90 300 141)"/>
    <path fill="#B5BDCE" fill-rule="nonzero" d="M286,148.5 L313,148.5 C313.276142,148.5 313.5,148.276142 313.5,148 C313.5,147.723858 313.276142,147.5 313,147.5 L286,147.5 C285.723858,147.5 285.5,147.723858 285.5,148 C285.5,148.276142 285.723858,148.5 286,148.5 Z" transform="rotate(90 299.5 148)"/>
    <path fill="#B5BDCE" fill-rule="nonzero" d="M294.5,162.5 L321.5,162.5 C323.156854,162.5 324.5,161.156854 324.5,159.5 C324.5,157.843146 323.156854,156.5 321.5,156.5 L294.5,156.5 C292.843146,156.5 291.5,157.843146 291.5,159.5 C291.5,161.156854 292.843146,162.5 294.5,162.5 Z" transform="rotate(90 308 159.5)"/>
    <path fill="#B5BDCE" fill-rule="nonzero" d="M294,137.5 L321,137.5 C321.276142,137.5 321.5,137.276142 321.5,137 C321.5,136.723858 321.276142,136.5 321,136.5 L294,136.5 C293.723858,136.5 293.5,136.723858 293.5,137 C293.5,137.276142 293.723858,137.5 294,137.5 Z" transform="rotate(90 307.5 137)"/>
    <path fill="#B5BDCE" fill-rule="nonzero" d="M312,183 L320,183 C321.656854,183 323,181.656854 323,180 C323,178.343146 321.656854,177 320,177 L312,177 C310.343146,177 309,178.343146 309,180 C309,181.656854 310.343146,183 312,183 Z" transform="rotate(90 316 180)"/>
    <path fill="#B5BDCE" fill-rule="nonzero" d="M301,181.5 L330,181.5 C330.276142,181.5 330.5,181.276142 330.5,181 C330.5,180.723858 330.276142,180.5 330,180.5 L301,180.5 C300.723858,180.5 300.5,180.723858 300.5,181 C300.5,181.276142 300.723858,181.5 301,181.5 Z" transform="rotate(90 315.5 181)"/>
    <path fill="#B5BDCE" fill-rule="nonzero" d="M323,166.5 L341,166.5 C342.656854,166.5 344,165.156854 344,163.5 C344,161.843146 342.656854,160.5 341,160.5 L323,160.5 C321.343146,160.5 320,161.843146 320,163.5 C320,165.156854 321.343146,166.5 323,166.5 Z" transform="rotate(90 332 163.5)"/>
    <path fill="#B5BDCE" fill-rule="nonzero" d="M311,161.5 L352,161.5 C352.276142,161.5 352.5,161.276142 352.5,161 C352.5,160.723858 352.276142,160.5 352,160.5 L311,160.5 C310.723858,160.5 310.5,160.723858 310.5,161 C310.5,161.276142 310.723858,161.5 311,161.5 Z" transform="rotate(90 331.5 161)"/>
    <path fill="#B5BDCE" fill-rule="nonzero" d="M362,159.5 L366,159.5 C367.656854,159.5 369,158.156854 369,156.5 C369,154.843146 367.656854,153.5 366,153.5 L362,153.5 C360.343146,153.5 359,154.843146 359,156.5 C359,158.156854 360.343146,159.5 362,159.5 Z" transform="rotate(90 364 156.5)"/>
    <path fill="#B5BDCE" fill-rule="nonzero" d="M348.5,156 L378.5,156 C378.776142,156 379,155.776142 379,155.5 C379,155.223858 378.776142,155 378.5,155 L348.5,155 C348.223858,155 348,155.223858 348,155.5 C348,155.776142 348.223858,156 348.5,156 Z" transform="rotate(90 363.5 155.5)"/>
    <path fill="#B5BDCE" fill-rule="nonzero" d="M386,157.5 L390,157.5 C391.656854,157.5 393,156.156854 393,154.5 C393,152.843146 391.656854,151.5 390,151.5 L386,151.5 C384.343146,151.5 383,152.843146 383,154.5 C383,156.156854 384.343146,157.5 386,157.5 Z" transform="rotate(90 388 154.5)"/>
    <path fill="#B5BDCE" fill-rule="nonzero" d="M374.5,154 L400.5,154 C400.776142,154 401,153.776142 401,153.5 C401,153.223858 400.776142,153 400.5,153 L374.5,153 C374.223858,153 374,153.223858 374,153.5 C374,153.776142 374.223858,154 374.5,154 Z" transform="rotate(90 387.5 153.5)"/>
    <path fill="#B5BDCE" fill-rule="nonzero" d="M403.5,193 L404.5,193 C406.156854,193 407.5,191.656854 407.5,190 C407.5,188.343146 406.156854,187 404.5,187 L403.5,187 C401.843146,187 400.5,188.343146 400.5,190 C400.5,191.656854 401.843146,193 403.5,193 Z" transform="rotate(90 404 190)"/>
    <path fill="#B5BDCE" fill-rule="nonzero" d="M395.5,191 L412.5,191 C412.776142,191 413,190.776142 413,190.5 C413,190.223858 412.776142,190 412.5,190 L395.5,190 C395.223858,190 395,190.223858 395,190.5 C395,190.776142 395.223858,191 395.5,191 Z" transform="rotate(90 404 190.5)"/>
    <path fill="#B5BDCE" fill-rule="nonzero" d="M408,201.5 L416,201.5 C417.656854,201.5 419,200.156854 419,198.5 C419,196.843146 417.656854,195.5 416,195.5 L408,195.5 C406.343146,195.5 405,196.843146 405,198.5 C405,200.156854 406.343146,201.5 408,201.5 Z" transform="rotate(90 412 198.5)"/>
    <path fill="#B5BDCE" fill-rule="nonzero" d="M401.5,200 L422.5,200 C422.776142,200 423,199.776142 423,199.5 C423,199.223858 422.776142,199 422.5,199 L401.5,199 C401.223858,199 401,199.223858 401,199.5 C401,199.776142 401.223858,200 401.5,200 Z" transform="rotate(90 412 199.5)"/>
    <path fill="#B5BDCE" fill-rule="nonzero" d="M441.5,161 L446.5,161 C448.156854,161 449.5,159.656854 449.5,158 C449.5,156.343146 448.156854,155 446.5,155 L441.5,155 C439.843146,155 438.5,156.343146 438.5,158 C438.5,159.656854 439.843146,161 441.5,161 Z" transform="rotate(90 444 158)"/>
    <path fill="#B5BDCE" fill-rule="nonzero" d="M430,160.5 L458,160.5 C458.276142,160.5 458.5,160.276142 458.5,160 C458.5,159.723858 458.276142,159.5 458,159.5 L430,159.5 C429.723858,159.5 429.5,159.723858 429.5,160 C429.5,160.276142 429.723858,160.5 430,160.5 Z" transform="rotate(90 444 160)"/>
    <path fill="#B5BDCE" fill-rule="nonzero" d="M446,175.5 L458,175.5 C459.656854,175.5 461,174.156854 461,172.5 C461,170.843146 459.656854,169.5 458,169.5 L446,169.5 C444.343146,169.5 443,170.843146 443,172.5 C443,174.156854 444.343146,175.5 446,175.5 Z" transform="rotate(90 452 172.5)"/>
    <path fill="#B5BDCE" fill-rule="nonzero" d="M436.5,175 L467.5,175 C467.776142,175 468,174.776142 468,174.5 C468,174.223858 467.776142,174 467.5,174 L436.5,174 C436.223858,174 436,174.223858 436,174.5 C436,174.776142 436.223858,175 436.5,175 Z" transform="rotate(90 452 174.5)"/>
    <path fill="#B5BDCE" fill-rule="nonzero" d="M463,191.5 L489,191.5 C490.656854,191.5 492,190.156854 492,188.5 C492,186.843146 490.656854,185.5 489,185.5 L463,185.5 C461.343146,185.5 460,186.843146 460,188.5 C460,190.156854 461.343146,191.5 463,191.5 Z" transform="rotate(90 476 188.5)"/>
    <path fill="#B5BDCE" fill-rule="nonzero" d="M460.5,184 L491.5,184 C491.776142,184 492,183.776142 492,183.5 C492,183.223858 491.776142,183 491.5,183 L460.5,183 C460.223858,183 460,183.223858 460,183.5 C460,183.776142 460.223858,184 460.5,184 Z" transform="rotate(90 476 183.5)"/>
    <path fill="#B5BDCE" fill-rule="nonzero" d="M459,185.5 L461,185.5 C462.656854,185.5 464,184.156854 464,182.5 C464,180.843146 462.656854,179.5 461,179.5 L459,179.5 C457.343146,179.5 456,180.843146 456,182.5 C456,184.156854 457.343146,185.5 459,185.5 Z" transform="rotate(90 460 182.5)"/>
    <path fill="#B5BDCE" fill-rule="nonzero" d="M443,186.5 L477,186.5 C477.276142,186.5 477.5,186.276142 477.5,186 C477.5,185.723858 477.276142,185.5 477,185.5 L443,185.5 C442.723858,185.5 442.5,185.723858 442.5,186 C442.5,186.276142 442.723858,186.5 443,186.5 Z" transform="rotate(90 460 186)"/>
    <path fill="#B5BDCE" fill-rule="nonzero" d="M384,175.5 L408,175.5 C409.656854,175.5 411,174.156854 411,172.5 C411,170.843146 409.656854,169.5 408,169.5 L384,169.5 C382.343146,169.5 381,170.843146 381,172.5 C381,174.156854 382.343146,175.5 384,175.5 Z" transform="rotate(90 396 172.5)"/>
    <path fill="#B5BDCE" fill-rule="nonzero" d="M382.5,185 L408.5,185 C408.776142,185 409,184.776142 409,184.5 C409,184.223858 408.776142,184 408.5,184 L382.5,184 C382.223858,184 382,184.223858 382,184.5 C382,184.776142 382.223858,185 382.5,185 Z" transform="rotate(90 395.5 184.5)"/>
    <path fill="#B5BDCE" fill-rule="nonzero" d="M213,235.5 L226,235.5 C226.276142,235.5 226.5,235.276142 226.5,235 C226.5,234.723858 226.276142,234.5 226,234.5 L213,234.5 C212.723858,234.5 212.5,234.723858 212.5,235 C212.5,235.276142 212.723858,235.5 213,235.5 Z" transform="rotate(90 219.5 235)"/>
    <path fill="#B5BDCE" fill-rule="nonzero" d="M183,237 L209,237 C210.656854,237 212,235.656854 212,234 C212,232.343146 210.656854,231 209,231 L183,231 C181.343146,231 180,232.343146 180,234 C180,235.656854 181.343146,237 183,237 Z" transform="rotate(90 196 234)"/>
    <path fill="#B5BDCE" fill-rule="nonzero" d="M163,232.5 L228,232.5 C228.276142,232.5 228.5,232.276142 228.5,232 C228.5,231.723858 228.276142,231.5 228,231.5 L163,231.5 C162.723858,231.5 162.5,231.723858 162.5,232 C162.5,232.276142 162.723858,232.5 163,232.5 Z" transform="rotate(90 195.5 232)"/>
    <path fill="#B5BDCE" fill-rule="nonzero" d="M133.5,214.5 L148.5,214.5 C150.156854,214.5 151.5,213.156854 151.5,211.5 C151.5,209.843146 150.156854,208.5 148.5,208.5 L133.5,208.5 C131.843146,208.5 130.5,209.843146 130.5,211.5 C130.5,213.156854 131.843146,214.5 133.5,214.5 Z" transform="rotate(90 141 211.5)"/>
    <path fill="#B5BDCE" fill-rule="nonzero" d="M117.5,224 L164.5,224 C164.776142,224 165,223.776142 165,223.5 C165,223.223858 164.776142,223 164.5,223 L117.5,223 C117.223858,223 117,223.223858 117,223.5 C117,223.776142 117.223858,224 117.5,224 Z" transform="rotate(90 141 223.5)"/>
    <path fill="#B5BDCE" fill-rule="nonzero" d="M136.5,239.5 L161.5,239.5 C163.156854,239.5 164.5,238.156854 164.5,236.5 C164.5,234.843146 163.156854,233.5 161.5,233.5 L136.5,233.5 C134.843146,233.5 133.5,234.843146 133.5,236.5 C133.5,238.156854 134.843146,239.5 136.5,239.5 Z" transform="rotate(90 149 236.5)"/>
    <path fill="#B5BDCE" fill-rule="nonzero" d="M131.5,243 L166.5,243 C166.776142,243 167,242.776142 167,242.5 C167,242.223858 166.776142,242 166.5,242 L131.5,242 C131.223858,242 131,242.223858 131,242.5 C131,242.776142 131.223858,243 131.5,243 Z" transform="rotate(90 149 242.5)"/>
    <path fill="#B5BDCE" fill-rule="nonzero" d="M78.5,285.5 L107.5,285.5 C109.156854,285.5 110.5,284.156854 110.5,282.5 C110.5,280.843146 109.156854,279.5 107.5,279.5 L78.5,279.5 C76.8431458,279.5 75.5,280.843146 75.5,282.5 C75.5,284.156854 76.8431458,285.5 78.5,285.5 Z" transform="rotate(90 93 282.5)"/>
    <path fill="#B5BDCE" fill-rule="nonzero" d="M84,270.5 L102,270.5 C102.276142,270.5 102.5,270.276142 102.5,270 C102.5,269.723858 102.276142,269.5 102,269.5 L84,269.5 C83.7238576,269.5 83.5,269.723858 83.5,270 C83.5,270.276142 83.7238576,270.5 84,270.5 Z" transform="rotate(90 93 270)"/>
    <path fill="#B5BDCE" fill-rule="nonzero" d="M100.5,302.5 L101.5,302.5 C103.156854,302.5 104.5,301.156854 104.5,299.5 C104.5,297.843146 103.156854,296.5 101.5,296.5 L100.5,296.5 C98.8431458,296.5 97.5,297.843146 97.5,299.5 C97.5,301.156854 98.8431458,302.5 100.5,302.5 Z" transform="rotate(90 101 299.5)"/>
    <path fill="#B5BDCE" fill-rule="nonzero" d="M89,303.5 L113,303.5 C113.276142,303.5 113.5,303.276142 113.5,303 C113.5,302.723858 113.276142,302.5 113,302.5 L89,302.5 C88.7238576,302.5 88.5,302.723858 88.5,303 C88.5,303.276142 88.7238576,303.5 89,303.5 Z" transform="rotate(90 101 303)"/>
    <rect width="6" height="17" x="50" y="315" fill="#DFE4EE"/>
    <rect width="6" height="12" x="58" y="320" fill="#DFE4EE"/>
    <rect width="6" height="12" x="66" y="320" fill="#DFE4EE"/>
    <rect width="6" height="12" x="74" y="320" fill="#DFE4EE"/>
    <rect width="6" height="5" x="82" y="327" fill="#DFE4EE"/>
    <rect width="6" height="12" x="90" y="320" fill="#DFE4EE"/>
    <rect width="6" height="12" x="98" y="320" fill="#DFE4EE"/>
    <rect width="6" height="10" x="106" y="322" fill="#DFE4EE"/>
    <rect width="6" height="29" x="114" y="303" fill="#DFE4EE"/>
    <rect width="6" height="12" x="122" y="320" fill="#DFE4EE"/>
    <rect width="6" height="12" x="130" y="320" fill="#DFE4EE"/>
    <rect width="6" height="10" x="138" y="322" fill="#DFE4EE"/>
    <rect width="6" height="10" x="146" y="322" fill="#DFE4EE"/>
    <rect width="6" height="5" x="154" y="327" fill="#DFE4EE"/>
    <rect width="6" height="10" x="162" y="322" fill="#DFE4EE"/>
    <rect width="6" height="12" x="170" y="320" fill="#DFE4EE"/>
    <rect width="6" height="10" x="178" y="322" fill="#DFE4EE"/>
    <rect width="6" height="12" x="186" y="320" fill="#DFE4EE"/>
    <rect width="6" height="27" x="194" y="305" fill="#DFE4EE"/>
    <rect width="6" height="12" x="202" y="320" fill="#DFE4EE"/>
    <rect width="6" height="21" x="210" y="311" fill="#DFE4EE"/>
    <rect width="6" height="12" x="218" y="320" fill="#DFE4EE"/>
    <rect width="6" height="17" x="226" y="315" fill="#DFE4EE"/>
    <rect width="6" height="12" x="234" y="320" fill="#DFE4EE"/>
    <rect width="6" height="17" x="242" y="315" fill="#DFE4EE"/>
    <rect width="6" height="19" x="250" y="313" fill="#DFE4EE"/>
    <rect width="6" height="17" x="258" y="315" fill="#DFE4EE"/>
    <rect width="6" height="15" x="266" y="317" fill="#DFE4EE"/>
    <rect width="6" height="23" x="274" y="309" fill="#DFE4EE"/>
    <rect width="6" height="34" x="282" y="298" fill="#DFE4EE"/>
    <rect width="6" height="42" x="290" y="290" fill="#DFE4EE"/>
    <rect width="6" height="15" x="298" y="317" fill="#DFE4EE"/>
    <rect width="6" height="25" x="306" y="307" fill="#DFE4EE"/>
    <rect width="6" height="23" x="314" y="309" fill="#DFE4EE"/>
    <rect width="6" height="21" x="322" y="311" fill="#DFE4EE"/>
    <rect width="6" height="25" x="330" y="307" fill="#DFE4EE"/>
    <rect width="6" height="15" x="338" y="317" fill="#DFE4EE"/>
    <rect width="6" height="8" x="346" y="324" fill="#DFE4EE"/>
    <rect width="6" height="15" x="354" y="317" fill="#DFE4EE"/>
    <rect width="6" height="21" x="362" y="311" fill="#DFE4EE"/>
    <rect width="6" height="15" x="370" y="317" fill="#DFE4EE"/>
    <rect width="6" height="15" x="378" y="317" fill="#DFE4EE"/>
    <rect width="6" height="12" x="386" y="320" fill="#DFE4EE"/>
    <rect width="6" height="15" x="394" y="317" fill="#DFE4EE"/>
    <rect width="6" height="12" x="402" y="320" fill="#DFE4EE"/>
    <rect width="6" height="15" x="410" y="317" fill="#DFE4EE"/>
    <rect width="6" height="17" x="418" y="315" fill="#DFE4EE"/>
    <rect width="6" height="12" x="426" y="320" fill="#DFE4EE"/>
    <rect width="6" height="8" x="434" y="324" fill="#DFE4EE"/>
    <rect width="6" height="15" x="442" y="317" fill="#DFE4EE"/>
    <rect width="6" height="17" x="450" y="315" fill="#DFE4EE"/>
    <rect width="6" height="21" x="458" y="311" fill="#DFE4EE"/>
    <rect width="6" height="12" x="466" y="320" fill="#DFE4EE"/>
    <rect width="6" height="19" x="474" y="313" fill="#DFE4EE"/>
    <rect width="6" height="21" x="482" y="311" fill="#DFE4EE"/>
    <rect width="6" height="17" x="490" y="315" fill="#DFE4EE"/>
    <rect width="6" height="27" x="498" y="305" fill="#DFE4EE"/>
    <rect width="6" height="23" x="506" y="309" fill="#DFE4EE"/>
    <rect width="6" height="19" x="514" y="313" fill="#DFE4EE"/>
    <rect width="6" height="23" x="522" y="309" fill="#DFE4EE"/>
    <rect width="6" height="47" x="530" y="285" fill="#DFE4EE"/>
    <rect width="6" height="77" x="538" y="255" fill="#DFE4EE"/>
    <circle cx="36" cy="26" r="6" fill="#ED6B60"/>
    <circle cx="57" cy="26" r="6" fill="#F6C050"/>
    <circle cx="78" cy="26" r="6" fill="#64CA57"/>
    <polygon fill="#DFE4EE" fill-rule="nonzero" points="0 53 592.244 53 592.244 52 0 52" opacity=".5"/>
    <path fill="#4F89DC" fill-rule="nonzero" d="M74.5,245 L79.5,245 C79.7761424,245 80,244.776142 80,244.5 C80,244.223858 79.7761424,244 79.5,244 L74.5,244 C74.2238576,244 74,244.223858 74,244.5 C74,244.776142 74.2238576,245 74.5,245 Z"/>
    <path fill="#B5BDCE" fill-rule="nonzero" d="M217,234.5 L223,234.5 C223.276142,234.5 223.5,234.276142 223.5,234 C223.5,233.723858 223.276142,233.5 223,233.5 L217,233.5 C216.723858,233.5 216.5,233.723858 216.5,234 C216.5,234.276142 216.723858,234.5 217,234.5 Z"/>
    <path fill="#B5BDCE" fill-rule="nonzero" d="M354,152.5 L389,152.5 C389.276142,152.5 389.5,152.276142 389.5,152 C389.5,151.723858 389.276142,151.5 389,151.5 L354,151.5 C353.723858,151.5 353.5,151.723858 353.5,152 C353.5,152.276142 353.723858,152.5 354,152.5 Z" transform="rotate(90 371.5 152)"/>
    <path fill="#B5BDCE" fill-rule="nonzero" d="M369,162.5 L375,162.5 C375.276142,162.5 375.5,162.276142 375.5,162 C375.5,161.723858 375.276142,161.5 375,161.5 L369,161.5 C368.723858,161.5 368.5,161.723858 368.5,162 C368.5,162.276142 368.723858,162.5 369,162.5 Z"/>
    <path fill="#B5BDCE" fill-rule="nonzero" d="M480.5,196 L502.5,196 C502.776142,196 503,195.776142 503,195.5 C503,195.223858 502.776142,195 502.5,195 L480.5,195 C480.223858,195 480,195.223858 480,195.5 C480,195.776142 480.223858,196 480.5,196 Z" transform="rotate(90 491.5 195.5)"/>
  </g>
</svg>
