<svg xmlns="http://www.w3.org/2000/svg" xmlns:xlink="http://www.w3.org/1999/xlink" width="610" height="391" viewBox="0 0 610 391">
  <defs>
    <path id="dex-b" d="M4,-7.99357867e-15 L586,4.3946853e-13 L586,4.42312853e-13 C588.209139,3.79119533e-13 590,1.790861 590,4 L590,367 L590,367 C590,369.209139 588.209139,371 586,371 L4,371 L4,371 C1.790861,371 2.705415e-16,369.209139 0,367 L0,4 L-3.55271368e-15,4 C-3.82325518e-15,1.790861 1.790861,4.05816873e-16 4,0 Z"/>
    <filter id="dex-a" width="105.4%" height="108.6%" x="-2.7%" y="-3.8%" filterUnits="objectBoundingBox">
      <feOffset dy="2" in="SourceAlpha" result="shadowOffsetOuter1"/>
      <feGaussianBlur in="shadowOffsetOuter1" result="shadowBlurOuter1" stdDeviation="5"/>
      <feColorMatrix in="shadowBlurOuter1" values="0 0 0 0 0.59345609   0 0 0 0 0.653819356   0 0 0 0 0.741443452  0 0 0 0.2 0"/>
    </filter>
  </defs>
  <g fill="none" fill-rule="evenodd" transform="translate(10 8)">
    <use fill="#000" filter="url(#dex-a)" xlink:href="#dex-b"/>
    <use fill="#FFF" xlink:href="#dex-b"/>
    <g fill-rule="nonzero" opacity=".33" transform="translate(33 77)">
      <path fill="#A2E0F5" d="M456,128.5 L462,128.5 C462.276142,128.5 462.5,128.276142 462.5,128 C462.5,127.723858 462.276142,127.5 462,127.5 L456,127.5 C455.723858,127.5 455.5,127.723858 455.5,128 C455.5,128.276142 455.723858,128.5 456,128.5 Z"/>
      <polygon fill="#DFE4EE" points="0 266 529 266 529 265 0 265"/>
      <polygon fill="#DFE4EE" points="0 241 529 241 529 240 0 240"/>
      <polygon fill="#DFE4EE" points="0 223 529 223 529 222 0 222"/>
      <polygon fill="#DFE4EE" points="0 206 529 206 529 205 0 205"/>
      <polygon fill="#DFE4EE" points="0 189 529 189 529 188 0 188"/>
      <polygon fill="#DFE4EE" points="0 172 529 172 529 171 0 171"/>
      <polygon fill="#DFE4EE" points="0 155 529 155 529 154 0 154"/>
      <polygon fill="#DFE4EE" points="0 138 529 138 529 137 0 137"/>
      <polygon fill="#DFE4EE" points="0 121 529 121 529 120 0 120"/>
      <polygon fill="#DFE4EE" points="0 104 529 104 529 103 0 103"/>
      <polygon fill="#DFE4EE" points="0 87 529 87 529 86 0 86"/>
      <polygon fill="#DFE4EE" points="0 69 529 69 529 68 0 68"/>
      <polygon fill="#DFE4EE" points="0 52 529 52 529 51 0 51"/>
      <polygon fill="#DFE4EE" points="0 35 529 35 529 34 0 34"/>
      <polygon fill="#DFE4EE" points="0 18 529 18 529 17 0 17"/>
      <polygon fill="#DFE4EE" points="0 1 529 1 529 0 0 0"/>
    </g>
    <path fill="#DFE4EE" fill-rule="nonzero" d="M-85.5,202 L191.5,202 C191.776142,202 192,201.776142 192,201.5 C192,201.223858 191.776142,201 191.5,201 L-85.5,201 C-85.7761424,201 -86,201.223858 -86,201.5 C-86,201.776142 -85.7761424,202 -85.5,202 Z" opacity=".25" transform="rotate(90 53 201.5)"/>
    <path fill="#DFE4EE" fill-rule="nonzero" d="M-45.5,202 L231.5,202 C231.776142,202 232,201.776142 232,201.5 C232,201.223858 231.776142,201 231.5,201 L-45.5,201 C-45.7761424,201 -46,201.223858 -46,201.5 C-46,201.776142 -45.7761424,202 -45.5,202 Z" opacity=".25" transform="rotate(90 93 201.5)"/>
    <path fill="#DFE4EE" fill-rule="nonzero" d="M-5.5,202 L271.5,202 C271.776142,202 272,201.776142 272,201.5 C272,201.223858 271.776142,201 271.5,201 L-5.5,201 C-5.77614237,201 -6,201.223858 -6,201.5 C-6,201.776142 -5.77614237,202 -5.5,202 Z" opacity=".25" transform="rotate(90 133 201.5)"/>
    <path fill="#DFE4EE" fill-rule="nonzero" d="M34.5,202 L311.5,202 C311.776142,202 312,201.776142 312,201.5 C312,201.223858 311.776142,201 311.5,201 L34.5,201 C34.2238576,201 34,201.223858 34,201.5 C34,201.776142 34.2238576,202 34.5,202 Z" opacity=".25" transform="rotate(90 173 201.5)"/>
    <path fill="#DFE4EE" fill-rule="nonzero" d="M73.5,202 L350.5,202 C350.776142,202 351,201.776142 351,201.5 C351,201.223858 350.776142,201 350.5,201 L73.5,201 C73.2238576,201 73,201.223858 73,201.5 C73,201.776142 73.2238576,202 73.5,202 Z" opacity=".25" transform="rotate(90 212 201.5)"/>
    <path fill="#DFE4EE" fill-rule="nonzero" d="M113.5,202 L390.5,202 C390.776142,202 391,201.776142 391,201.5 C391,201.223858 390.776142,201 390.5,201 L113.5,201 C113.223858,201 113,201.223858 113,201.5 C113,201.776142 113.223858,202 113.5,202 Z" opacity=".25" transform="rotate(90 252 201.5)"/>
    <path fill="#DFE4EE" fill-rule="nonzero" d="M153.5,202 L430.5,202 C430.776142,202 431,201.776142 431,201.5 C431,201.223858 430.776142,201 430.5,201 L153.5,201 C153.223858,201 153,201.223858 153,201.5 C153,201.776142 153.223858,202 153.5,202 Z" opacity=".25" transform="rotate(90 292 201.5)"/>
    <path fill="#DFE4EE" fill-rule="nonzero" d="M193.5,202 L470.5,202 C470.776142,202 471,201.776142 471,201.5 C471,201.223858 470.776142,201 470.5,201 L193.5,201 C193.223858,201 193,201.223858 193,201.5 C193,201.776142 193.223858,202 193.5,202 Z" opacity=".25" transform="rotate(90 332 201.5)"/>
    <path fill="#DFE4EE" fill-rule="nonzero" d="M233.5,202 L510.5,202 C510.776142,202 511,201.776142 511,201.5 C511,201.223858 510.776142,201 510.5,201 L233.5,201 C233.223858,201 233,201.223858 233,201.5 C233,201.776142 233.223858,202 233.5,202 Z" opacity=".25" transform="rotate(90 372 201.5)"/>
    <path fill="#DFE4EE" fill-rule="nonzero" d="M273.5,202 L550.5,202 C550.776142,202 551,201.776142 551,201.5 C551,201.223858 550.776142,201 550.5,201 L273.5,201 C273.223858,201 273,201.223858 273,201.5 C273,201.776142 273.223858,202 273.5,202 Z" opacity=".25" transform="rotate(90 412 201.5)"/>
    <path fill="#DFE4EE" fill-rule="nonzero" d="M313.5,202 L590.5,202 C590.776142,202 591,201.776142 591,201.5 C591,201.223858 590.776142,201 590.5,201 L313.5,201 C313.223858,201 313,201.223858 313,201.5 C313,201.776142 313.223858,202 313.5,202 Z" opacity=".25" transform="rotate(90 452 201.5)"/>
    <path fill="#DFE4EE" fill-rule="nonzero" d="M352.5,202 L631.5,202 C631.776142,202 632,201.776142 632,201.5 C632,201.223858 631.776142,201 631.5,201 L352.5,201 C352.223858,201 352,201.223858 352,201.5 C352,201.776142 352.223858,202 352.5,202 Z" opacity=".25" transform="rotate(90 492 201.5)"/>
    <path fill="#DFE4EE" fill-rule="nonzero" d="M391.5,202 L670.5,202 C670.776142,202 671,201.776142 671,201.5 C671,201.223858 670.776142,201 670.5,201 L391.5,201 C391.223858,201 391,201.223858 391,201.5 C391,201.776142 391.223858,202 391.5,202 Z" opacity=".25" transform="rotate(90 531 201.5)"/>
    <path fill="#4F89DC" fill-rule="nonzero" d="M33.5,262.5 L72.5,262.5 C74.1568542,262.5 75.5,261.156854 75.5,259.5 C75.5,257.843146 74.1568542,256.5 72.5,256.5 L33.5,256.5 C31.8431458,256.5 30.5,257.843146 30.5,259.5 C30.5,261.156854 31.8431458,262.5 33.5,262.5 Z" transform="rotate(90 53 259.5)"/>
    <path fill="#4F89DC" fill-rule="nonzero" d="M29.5,260 L76.5,260 C76.7761424,260 77,259.776142 77,259.5 C77,259.223858 76.7761424,259 76.5,259 L29.5,259 C29.2238576,259 29,259.223858 29,259.5 C29,259.776142 29.2238576,260 29.5,260 Z" transform="rotate(90 53 259.5)"/>
    <path fill="#4F89DC" fill-rule="nonzero" d="M93,297 L125,297 C126.656854,297 128,295.656854 128,294 C128,292.343146 126.656854,291 125,291 L93,291 C91.3431458,291 90,292.343146 90,294 C90,295.656854 91.3431458,297 93,297 Z" transform="rotate(90 109 294)"/>
    <path fill="#4F89DC" fill-rule="nonzero" d="M87,295.5 L131,295.5 C131.276142,295.5 131.5,295.276142 131.5,295 C131.5,294.723858 131.276142,294.5 131,294.5 L87,294.5 C86.7238576,294.5 86.5,294.723858 86.5,295 C86.5,295.276142 86.7238576,295.5 87,295.5 Z" transform="rotate(90 109 295)"/>
    <path fill="#4F89DC" fill-rule="nonzero" d="M91,251 L143,251 C144.656854,251 146,249.656854 146,248 C146,246.343146 144.656854,245 143,245 L91,245 C89.3431458,245 88,246.343146 88,248 C88,249.656854 89.3431458,251 91,251 Z" transform="rotate(90 117 248)"/>
    <path fill="#4F89DC" fill-rule="nonzero" d="M95,207.5 L139,207.5 C139.276142,207.5 139.5,207.276142 139.5,207 C139.5,206.723858 139.276142,206.5 139,206.5 L95,206.5 C94.7238576,206.5 94.5,206.723858 94.5,207 C94.5,207.276142 94.7238576,207.5 95,207.5 Z" transform="rotate(90 117 207)"/>
    <path fill="#4F89DC" fill-rule="nonzero" d="M67.5,261.5 L70.5,261.5 C72.1568542,261.5 73.5,260.156854 73.5,258.5 C73.5,256.843146 72.1568542,255.5 70.5,255.5 L67.5,255.5 C65.8431458,255.5 64.5,256.843146 64.5,258.5 C64.5,260.156854 65.8431458,261.5 67.5,261.5 Z" transform="rotate(90 69 258.5)"/>
    <path fill="#4F89DC" fill-rule="nonzero" d="M60,262 L78,262 C78.2761424,262 78.5,261.776142 78.5,261.5 C78.5,261.223858 78.2761424,261 78,261 L60,261 C59.7238576,261 59.5,261.223858 59.5,261.5 C59.5,261.776142 59.7238576,262 60,262 Z" transform="rotate(90 69 261.5)"/>
    <path fill="#4F89DC" fill-rule="nonzero" d="M125,225 L141,225 C142.656854,225 144,223.656854 144,222 C144,220.343146 142.656854,219 141,219 L125,219 C123.343146,219 122,220.343146 122,222 C122,223.656854 123.343146,225 125,225 Z" transform="rotate(90 133 222)"/>
    <path fill="#4F89DC" fill-rule="nonzero" d="M124,239 L142,239 C142.276142,239 142.5,238.776142 142.5,238.5 C142.5,238.223858 142.276142,238 142,238 L124,238 C123.723858,238 123.5,238.223858 123.5,238.5 C123.5,238.776142 123.723858,239 124,239 Z" transform="rotate(90 133 238.5)"/>
    <path fill="#4F89DC" fill-rule="nonzero" d="M151,245 L179,245 C180.656854,245 182,243.656854 182,242 C182,240.343146 180.656854,239 179,239 L151,239 C149.343146,239 148,240.343146 148,242 C148,243.656854 149.343146,245 151,245 Z" transform="rotate(90 165 242)"/>
    <path fill="#4F89DC" fill-rule="nonzero" d="M156,225 L174,225 C174.276142,225 174.5,224.776142 174.5,224.5 C174.5,224.223858 174.276142,224 174,224 L156,224 C155.723858,224 155.5,224.223858 155.5,224.5 C155.5,224.776142 155.723858,225 156,225 Z" transform="rotate(90 165 224.5)"/>
    <path fill="#4F89DC" fill-rule="nonzero" d="M185,237 L191,237 C192.656854,237 194,235.656854 194,234 C194,232.343146 192.656854,231 191,231 L185,231 C183.343146,231 182,232.343146 182,234 C182,235.656854 183.343146,237 185,237 Z" transform="rotate(90 188 234)"/>
    <path fill="#4F89DC" fill-rule="nonzero" d="M173.5,222.5 L202.5,222.5 C202.776142,222.5 203,222.276142 203,222 C203,221.723858 202.776142,221.5 202.5,221.5 L173.5,221.5 C173.223858,221.5 173,221.723858 173,222 C173,222.276142 173.223858,222.5 173.5,222.5 Z" transform="rotate(90 188 222)"/>
    <path fill="#4F89DC" fill-rule="nonzero" d="M227.5,246.5 L228.5,246.5 C230.156854,246.5 231.5,245.156854 231.5,243.5 C231.5,241.843146 230.156854,240.5 228.5,240.5 L227.5,240.5 C225.843146,240.5 224.5,241.843146 224.5,243.5 C224.5,245.156854 225.843146,246.5 227.5,246.5 Z" transform="rotate(90 228 243.5)"/>
    <path fill="#4F89DC" fill-rule="nonzero" d="M217,238 L239,238 C239.276142,238 239.5,237.776142 239.5,237.5 C239.5,237.223858 239.276142,237 239,237 L217,237 C216.723858,237 216.5,237.223858 216.5,237.5 C216.5,237.776142 216.723858,238 217,238 Z" transform="rotate(90 228 237.5)"/>
    <path fill="#4F89DC" fill-rule="nonzero" d="M235.5,241.5 L236.5,241.5 C238.156854,241.5 239.5,240.156854 239.5,238.5 C239.5,236.843146 238.156854,235.5 236.5,235.5 L235.5,235.5 C233.843146,235.5 232.5,236.843146 232.5,238.5 C232.5,240.156854 233.843146,241.5 235.5,241.5 Z" transform="rotate(90 236 238.5)"/>
    <path fill="#4F89DC" fill-rule="nonzero" d="M227,238 L245,238 C245.276142,238 245.5,237.776142 245.5,237.5 C245.5,237.223858 245.276142,237 245,237 L227,237 C226.723858,237 226.5,237.223858 226.5,237.5 C226.5,237.776142 226.723858,238 227,238 Z" transform="rotate(90 236 237.5)"/>
    <path fill="#4F89DC" fill-rule="nonzero" d="M241.5,240.5 L262.5,240.5 C264.156854,240.5 265.5,239.156854 265.5,237.5 C265.5,235.843146 264.156854,234.5 262.5,234.5 L241.5,234.5 C239.843146,234.5 238.5,235.843146 238.5,237.5 C238.5,239.156854 239.843146,240.5 241.5,240.5 Z" transform="rotate(90 252 237.5)"/>
    <path fill="#4F89DC" fill-rule="nonzero" d="M234,241 L270,241 C270.276142,241 270.5,240.776142 270.5,240.5 C270.5,240.223858 270.276142,240 270,240 L234,240 C233.723858,240 233.5,240.223858 233.5,240.5 C233.5,240.776142 233.723858,241 234,241 Z" transform="rotate(90 252 240.5)"/>
    <path fill="#4F89DC" fill-rule="nonzero" d="M266,232 L270,232 C271.656854,232 273,230.656854 273,229 C273,227.343146 271.656854,226 270,226 L266,226 C264.343146,226 263,227.343146 263,229 C263,230.656854 264.343146,232 266,232 Z" transform="rotate(90 268 229)"/>
    <path fill="#4F89DC" fill-rule="nonzero" d="M259.5,231.5 L276.5,231.5 C276.776142,231.5 277,231.276142 277,231 C277,230.723858 276.776142,230.5 276.5,230.5 L259.5,230.5 C259.223858,230.5 259,230.723858 259,231 C259,231.276142 259.223858,231.5 259.5,231.5 Z" transform="rotate(90 268 231)"/>
    <path fill="#4F89DC" fill-rule="nonzero" d="M264,213.5 L288,213.5 C289.656854,213.5 291,212.156854 291,210.5 C291,208.843146 289.656854,207.5 288,207.5 L264,207.5 C262.343146,207.5 261,208.843146 261,210.5 C261,212.156854 262.343146,213.5 264,213.5 Z" transform="rotate(90 276 210.5)"/>
    <path fill="#4F89DC" fill-rule="nonzero" d="M255.5,208.5 L296.5,208.5 C296.776142,208.5 297,208.276142 297,208 C297,207.723858 296.776142,207.5 296.5,207.5 L255.5,207.5 C255.223858,207.5 255,207.723858 255,208 C255,208.276142 255.223858,208.5 255.5,208.5 Z" transform="rotate(90 276 208)"/>
    <path fill="#4F89DC" fill-rule="nonzero" d="M266,179.5 L302,179.5 C303.656854,179.5 305,178.156854 305,176.5 C305,174.843146 303.656854,173.5 302,173.5 L266,173.5 C264.343146,173.5 263,174.843146 263,176.5 C263,178.156854 264.343146,179.5 266,179.5 Z" transform="rotate(90 284 176.5)"/>
    <path fill="#4F89DC" fill-rule="nonzero" d="M252.5,169.5 L315.5,169.5 C315.776142,169.5 316,169.276142 316,169 C316,168.723858 315.776142,168.5 315.5,168.5 L252.5,168.5 C252.223858,168.5 252,168.723858 252,169 C252,169.276142 252.223858,169.5 252.5,169.5 Z" transform="rotate(90 284 169)"/>
    <path fill="#4F89DC" fill-rule="nonzero" d="M288.5,155 L295.5,155 C297.156854,155 298.5,153.656854 298.5,152 C298.5,150.343146 297.156854,149 295.5,149 L288.5,149 C286.843146,149 285.5,150.343146 285.5,152 C285.5,153.656854 286.843146,155 288.5,155 Z" transform="rotate(90 292 152)"/>
    <path fill="#4F89DC" fill-rule="nonzero" d="M267,137 L317,137 C317.276142,137 317.5,136.776142 317.5,136.5 C317.5,136.223858 317.276142,136 317,136 L267,136 C266.723858,136 266.5,136.223858 266.5,136.5 C266.5,136.776142 266.723858,137 267,137 Z" transform="rotate(90 292 136.5)"/>
    <path fill="#4F89DC" fill-rule="nonzero" d="M338.5,183.5 L341.5,183.5 C343.156854,183.5 344.5,182.156854 344.5,180.5 C344.5,178.843146 343.156854,177.5 341.5,177.5 L338.5,177.5 C336.843146,177.5 335.5,178.843146 335.5,180.5 C335.5,182.156854 336.843146,183.5 338.5,183.5 Z" transform="rotate(90 340 180.5)"/>
    <path fill="#4F89DC" fill-rule="nonzero" d="M319.5,163 L360.5,163 C360.776142,163 361,162.776142 361,162.5 C361,162.223858 360.776142,162 360.5,162 L319.5,162 C319.223858,162 319,162.223858 319,162.5 C319,162.776142 319.223858,163 319.5,163 Z" transform="rotate(90 340 162.5)"/>
    <path fill="#4F89DC" fill-rule="nonzero" d="M346,176 L350,176 C351.656854,176 353,174.656854 353,173 C353,171.343146 351.656854,170 350,170 L346,170 C344.343146,170 343,171.343146 343,173 C343,174.656854 344.343146,176 346,176 Z" transform="rotate(90 348 173)"/>
    <path fill="#4F89DC" fill-rule="nonzero" d="M342,180 L354,180 C354.276142,180 354.5,179.776142 354.5,179.5 C354.5,179.223858 354.276142,179 354,179 L342,179 C341.723858,179 341.5,179.223858 341.5,179.5 C341.5,179.776142 341.723858,180 342,180 Z" transform="rotate(90 348 179.5)"/>
    <path fill="#4F89DC" fill-rule="nonzero" d="M355.5,169.5 L356.5,169.5 C358.156854,169.5 359.5,168.156854 359.5,166.5 C359.5,164.843146 358.156854,163.5 356.5,163.5 L355.5,163.5 C353.843146,163.5 352.5,164.843146 352.5,166.5 C352.5,168.156854 353.843146,169.5 355.5,169.5 Z" transform="rotate(90 356 166.5)"/>
    <path fill="#4F89DC" fill-rule="nonzero" d="M347.5,177.5 L364.5,177.5 C364.776142,177.5 365,177.276142 365,177 C365,176.723858 364.776142,176.5 364.5,176.5 L347.5,176.5 C347.223858,176.5 347,176.723858 347,177 C347,177.276142 347.223858,177.5 347.5,177.5 Z" transform="rotate(90 356 177)"/>
    <path fill="#4F89DC" fill-rule="nonzero" d="M375.5,169.5 L384.5,169.5 C386.156854,169.5 387.5,168.156854 387.5,166.5 C387.5,164.843146 386.156854,163.5 384.5,163.5 L375.5,163.5 C373.843146,163.5 372.5,164.843146 372.5,166.5 C372.5,168.156854 373.843146,169.5 375.5,169.5 Z" transform="rotate(90 380 166.5)"/>
    <path fill="#4F89DC" fill-rule="nonzero" d="M374,171 L386,171 C386.276142,171 386.5,170.776142 386.5,170.5 C386.5,170.223858 386.276142,170 386,170 L374,170 C373.723858,170 373.5,170.223858 373.5,170.5 C373.5,170.776142 373.723858,171 374,171 Z" transform="rotate(90 380 170.5)"/>
    <path fill="#4F89DC" fill-rule="nonzero" d="M418,212 L422,212 C423.656854,212 425,210.656854 425,209 C425,207.343146 423.656854,206 422,206 L418,206 C416.343146,206 415,207.343146 415,209 C415,210.656854 416.343146,212 418,212 Z" transform="rotate(90 420 209)"/>
    <path fill="#4F89DC" fill-rule="nonzero" d="M407,199 L433,199 C433.276142,199 433.5,198.776142 433.5,198.5 C433.5,198.223858 433.276142,198 433,198 L407,198 C406.723858,198 406.5,198.223858 406.5,198.5 C406.5,198.776142 406.723858,199 407,199 Z" transform="rotate(90 420 198.5)"/>
    <path fill="#4F89DC" fill-rule="nonzero" d="M422,200 L434,200 C435.656854,200 437,198.656854 437,197 C437,195.343146 435.656854,194 434,194 L422,194 C420.343146,194 419,195.343146 419,197 C419,198.656854 420.343146,200 422,200 Z" transform="rotate(90 428 197)"/>
    <path fill="#4F89DC" fill-rule="nonzero" d="M420,200 L436,200 C436.276142,200 436.5,199.776142 436.5,199.5 C436.5,199.223858 436.276142,199 436,199 L420,199 C419.723858,199 419.5,199.223858 419.5,199.5 C419.5,199.776142 419.723858,200 420,200 Z" transform="rotate(90 428 199.5)"/>
    <path fill="#4F89DC" fill-rule="nonzero" d="M426,179 L446,179 C447.656854,179 449,177.656854 449,176 C449,174.343146 447.656854,173 446,173 L426,173 C424.343146,173 423,174.343146 423,176 C423,177.656854 424.343146,179 426,179 Z" transform="rotate(90 436 176)"/>
    <path fill="#4F89DC" fill-rule="nonzero" d="M428,183 L444,183 C444.276142,183 444.5,182.776142 444.5,182.5 C444.5,182.223858 444.276142,182 444,182 L428,182 C427.723858,182 427.5,182.223858 427.5,182.5 C427.5,182.776142 427.723858,183 428,183 Z" transform="rotate(90 436 182.5)"/>
    <path fill="#4F89DC" fill-rule="nonzero" d="M464.5,191.5 L471.5,191.5 C473.156854,191.5 474.5,190.156854 474.5,188.5 C474.5,186.843146 473.156854,185.5 471.5,185.5 L464.5,185.5 C462.843146,185.5 461.5,186.843146 461.5,188.5 C461.5,190.156854 462.843146,191.5 464.5,191.5 Z" transform="rotate(90 468 188.5)"/>
    <path fill="#4F89DC" fill-rule="nonzero" d="M453.5,177.5 L482.5,177.5 C482.776142,177.5 483,177.276142 483,177 C483,176.723858 482.776142,176.5 482.5,176.5 L453.5,176.5 C453.223858,176.5 453,176.723858 453,177 C453,177.276142 453.223858,177.5 453.5,177.5 Z" transform="rotate(90 468 177)"/>
    <path fill="#4F89DC" fill-rule="nonzero" d="M481.5,211.5 L486.5,211.5 C488.156854,211.5 489.5,210.156854 489.5,208.5 C489.5,206.843146 488.156854,205.5 486.5,205.5 L481.5,205.5 C479.843146,205.5 478.5,206.843146 478.5,208.5 C478.5,210.156854 479.843146,211.5 481.5,211.5 Z" transform="rotate(90 484 208.5)"/>
    <path fill="#4F89DC" fill-rule="nonzero" d="M473,209 L495,209 C495.276142,209 495.5,208.776142 495.5,208.5 C495.5,208.223858 495.276142,208 495,208 L473,208 C472.723858,208 472.5,208.223858 472.5,208.5 C472.5,208.776142 472.723858,209 473,209 Z" transform="rotate(90 484 208.5)"/>
    <path fill="#4F89DC" fill-rule="nonzero" d="M505.5,250.5 L510.5,250.5 C512.156854,250.5 513.5,249.156854 513.5,247.5 C513.5,245.843146 512.156854,244.5 510.5,244.5 L505.5,244.5 C503.843146,244.5 502.5,245.843146 502.5,247.5 C502.5,249.156854 503.843146,250.5 505.5,250.5 Z" transform="rotate(90 508 247.5)"/>
    <path fill="#4F89DC" fill-rule="nonzero" d="M497,248 L519,248 C519.276142,248 519.5,247.776142 519.5,247.5 C519.5,247.223858 519.276142,247 519,247 L497,247 C496.723858,247 496.5,247.223858 496.5,247.5 C496.5,247.776142 496.723858,248 497,248 Z" transform="rotate(90 508 247.5)"/>
    <path fill="#4F89DC" fill-rule="nonzero" d="M523.5,211.5 L538.5,211.5 C540.156854,211.5 541.5,210.156854 541.5,208.5 C541.5,206.843146 540.156854,205.5 538.5,205.5 L523.5,205.5 C521.843146,205.5 520.5,206.843146 520.5,208.5 C520.5,210.156854 521.843146,211.5 523.5,211.5 Z" transform="rotate(90 531 208.5)"/>
    <path fill="#4F89DC" fill-rule="nonzero" d="M508.5,213 L553.5,213 C553.776142,213 554,212.776142 554,212.5 C554,212.223858 553.776142,212 553.5,212 L508.5,212 C508.223858,212 508,212.223858 508,212.5 C508,212.776142 508.223858,213 508.5,213 Z" transform="rotate(90 531 212.5)"/>
    <path fill="#4F89DC" fill-rule="nonzero" d="M491.5,154.5 L586.5,154.5 C588.156854,154.5 589.5,153.156854 589.5,151.5 C589.5,149.843146 588.156854,148.5 586.5,148.5 L491.5,148.5 C489.843146,148.5 488.5,149.843146 488.5,151.5 C488.5,153.156854 489.843146,154.5 491.5,154.5 Z" transform="rotate(90 539 151.5)"/>
    <path fill="#4F89DC" fill-rule="nonzero" d="M476.5,143 L601.5,143 C601.776142,143 602,142.776142 602,142.5 C602,142.223858 601.776142,142 601.5,142 L476.5,142 C476.223858,142 476,142.223858 476,142.5 C476,142.776142 476.223858,143 476.5,143 Z" transform="rotate(90 539 142.5)"/>
    <path fill="#4F89DC" fill-rule="nonzero" d="M499.5,228.5 L530.5,228.5 C532.156854,228.5 533.5,227.156854 533.5,225.5 C533.5,223.843146 532.156854,222.5 530.5,222.5 L499.5,222.5 C497.843146,222.5 496.5,223.843146 496.5,225.5 C496.5,227.156854 497.843146,228.5 499.5,228.5 Z" transform="rotate(90 515 225.5)"/>
    <path fill="#A2E0F5" fill-rule="nonzero" d="M478.5,231.5 L521.5,231.5 C523.156854,231.5 524.5,230.156854 524.5,228.5 C524.5,226.843146 523.156854,225.5 521.5,225.5 L478.5,225.5 C476.843146,225.5 475.5,226.843146 475.5,228.5 C475.5,230.156854 476.843146,231.5 478.5,231.5 Z" transform="rotate(90 500 228.5)"/>
    <path fill="#A2E0F5" fill-rule="nonzero" d="M489,210 L511,210 C511.276142,210 511.5,209.776142 511.5,209.5 C511.5,209.223858 511.276142,209 511,209 L489,209 C488.723858,209 488.5,209.223858 488.5,209.5 C488.5,209.776142 488.723858,210 489,210 Z" transform="rotate(90 500 209.5)"/>
    <path fill="#A2E0F5" fill-rule="nonzero" d="M520,216 L526,216 C527.656854,216 529,214.656854 529,213 C529,211.343146 527.656854,210 526,210 L520,210 C518.343146,210 517,211.343146 517,213 C517,214.656854 518.343146,216 520,216 Z" transform="rotate(90 523 213)"/>
    <path fill="#A2E0F5" fill-rule="nonzero" d="M503,207 L543,207 C543.276142,207 543.5,206.776142 543.5,206.5 C543.5,206.223858 543.276142,206 543,206 L503,206 C502.723858,206 502.5,206.223858 502.5,206.5 C502.5,206.776142 502.723858,207 503,207 Z" transform="rotate(90 523 206.5)"/>
    <path fill="#4F89DC" fill-rule="nonzero" d="M308.5,182.5 L339.5,182.5 C341.156854,182.5 342.5,181.156854 342.5,179.5 C342.5,177.843146 341.156854,176.5 339.5,176.5 L308.5,176.5 C306.843146,176.5 305.5,177.843146 305.5,179.5 C305.5,181.156854 306.843146,182.5 308.5,182.5 Z" transform="rotate(90 324 179.5)"/>
    <path fill="#4F89DC" fill-rule="nonzero" d="M308,183.5 L340,183.5 C340.276142,183.5 340.5,183.276142 340.5,183 C340.5,182.723858 340.276142,182.5 340,182.5 L308,182.5 C307.723858,182.5 307.5,182.723858 307.5,183 C307.5,183.276142 307.723858,183.5 308,183.5 Z" transform="rotate(90 324 183)"/>
    <path fill="#4F89DC" fill-rule="nonzero" d="M198,261 L226,261 C227.656854,261 229,259.656854 229,258 C229,256.343146 227.656854,255 226,255 L198,255 C196.343146,255 195,256.343146 195,258 C195,259.656854 196.343146,261 198,261 Z" transform="rotate(90 212 258)"/>
    <path fill="#4F89DC" fill-rule="nonzero" d="M197.5,237.5 L226.5,237.5 C226.776142,237.5 227,237.276142 227,237 C227,236.723858 226.776142,236.5 226.5,236.5 L197.5,236.5 C197.223858,236.5 197,236.723858 197,237 C197,237.276142 197.223858,237.5 197.5,237.5 Z" transform="rotate(90 212 237)"/>
    <path fill="#4F89DC" fill-rule="nonzero" d="M156.5,260.5 L157.5,260.5 C159.156854,260.5 160.5,259.156854 160.5,257.5 C160.5,255.843146 159.156854,254.5 157.5,254.5 L156.5,254.5 C154.843146,254.5 153.5,255.843146 153.5,257.5 C153.5,259.156854 154.843146,260.5 156.5,260.5 Z" transform="rotate(90 157 257.5)"/>
    <path fill="#4F89DC" fill-rule="nonzero" d="M149,266 L165,266 C165.276142,266 165.5,265.776142 165.5,265.5 C165.5,265.223858 165.276142,265 165,265 L149,265 C148.723858,265 148.5,265.223858 148.5,265.5 C148.5,265.776142 148.723858,266 149,266 Z" transform="rotate(90 157 265.5)"/>
    <path fill="#4F89DC" fill-rule="nonzero" d="M68.5,253 L85.5,253 C85.7761424,253 86,252.776142 86,252.5 C86,252.223858 85.7761424,252 85.5,252 L68.5,252 C68.2238576,252 68,252.223858 68,252.5 C68,252.776142 68.2238576,253 68.5,253 Z" transform="rotate(90 77 252.5)"/>
    <path fill="#A2E0F5" fill-rule="nonzero" d="M52.5,253.5 L69.5,253.5 C71.1568542,253.5 72.5,252.156854 72.5,250.5 C72.5,248.843146 71.1568542,247.5 69.5,247.5 L52.5,247.5 C50.8431458,247.5 49.5,248.843146 49.5,250.5 C49.5,252.156854 50.8431458,253.5 52.5,253.5 Z" transform="rotate(90 61 250.5)"/>
    <path fill="#A2E0F5" fill-rule="nonzero" d="M43,245.5 L79,245.5 C79.2761424,245.5 79.5,245.276142 79.5,245 C79.5,244.723858 79.2761424,244.5 79,244.5 L43,244.5 C42.7238576,244.5 42.5,244.723858 42.5,245 C42.5,245.276142 42.7238576,245.5 43,245.5 Z" transform="rotate(90 61 245)"/>
    <path fill="#A2E0F5" fill-rule="nonzero" d="M76.5,267.5 L93.5,267.5 C95.1568542,267.5 96.5,266.156854 96.5,264.5 C96.5,262.843146 95.1568542,261.5 93.5,261.5 L76.5,261.5 C74.8431458,261.5 73.5,262.843146 73.5,264.5 C73.5,266.156854 74.8431458,267.5 76.5,267.5 Z" transform="rotate(90 85 264.5)"/>
    <path fill="#A2E0F5" fill-rule="nonzero" d="M69.5,262 L100.5,262 C100.776142,262 101,261.776142 101,261.5 C101,261.223858 100.776142,261 100.5,261 L69.5,261 C69.2238576,261 69,261.223858 69,261.5 C69,261.776142 69.2238576,262 69.5,262 Z" transform="rotate(90 85 261.5)"/>
    <path fill="#A2E0F5" fill-rule="nonzero" d="M116.5,233.5 L133.5,233.5 C135.156854,233.5 136.5,232.156854 136.5,230.5 C136.5,228.843146 135.156854,227.5 133.5,227.5 L116.5,227.5 C114.843146,227.5 113.5,228.843146 113.5,230.5 C113.5,232.156854 114.843146,233.5 116.5,233.5 Z" transform="rotate(90 125 230.5)"/>
    <path fill="#A2E0F5" fill-rule="nonzero" d="M111,236.5 L139,236.5 C139.276142,236.5 139.5,236.276142 139.5,236 C139.5,235.723858 139.276142,235.5 139,235.5 L111,235.5 C110.723858,235.5 110.5,235.723858 110.5,236 C110.5,236.276142 110.723858,236.5 111,236.5 Z" transform="rotate(90 125 236)"/>
    <path fill="#A2E0F5" fill-rule="nonzero" d="M172.5,229.5 L173.5,229.5 C175.156854,229.5 176.5,228.156854 176.5,226.5 C176.5,224.843146 175.156854,223.5 173.5,223.5 L172.5,223.5 C170.843146,223.5 169.5,224.843146 169.5,226.5 C169.5,228.156854 170.843146,229.5 172.5,229.5 Z" transform="rotate(90 173 226.5)"/>
    <path fill="#A2E0F5" fill-rule="nonzero" d="M156.5,211 L189.5,211 C189.776142,211 190,210.776142 190,210.5 C190,210.223858 189.776142,210 189.5,210 L156.5,210 C156.223858,210 156,210.223858 156,210.5 C156,210.776142 156.223858,211 156.5,211 Z" transform="rotate(90 173 210.5)"/>
    <path fill="#A2E0F5" fill-rule="nonzero" d="M177.5,236.5 L184.5,236.5 C186.156854,236.5 187.5,235.156854 187.5,233.5 C187.5,231.843146 186.156854,230.5 184.5,230.5 L177.5,230.5 C175.843146,230.5 174.5,231.843146 174.5,233.5 C174.5,235.156854 175.843146,236.5 177.5,236.5 Z" transform="rotate(90 181 233.5)"/>
    <path fill="#A2E0F5" fill-rule="nonzero" d="M170,234.5 L191,234.5 C191.276142,234.5 191.5,234.276142 191.5,234 C191.5,233.723858 191.276142,233.5 191,233.5 L170,233.5 C169.723858,233.5 169.5,233.723858 169.5,234 C169.5,234.276142 169.723858,234.5 170,234.5 Z" transform="rotate(90 180.5 234)"/>
    <path fill="#A2E0F5" fill-rule="nonzero" d="M197.5,269.5 L210.5,269.5 C212.156854,269.5 213.5,268.156854 213.5,266.5 C213.5,264.843146 212.156854,263.5 210.5,263.5 L197.5,263.5 C195.843146,263.5 194.5,264.843146 194.5,266.5 C194.5,268.156854 195.843146,269.5 197.5,269.5 Z" transform="rotate(90 204 266.5)"/>
    <path fill="#A2E0F5" fill-rule="nonzero" d="M186.5,271 L220.5,271 C220.776142,271 221,270.776142 221,270.5 C221,270.223858 220.776142,270 220.5,270 L186.5,270 C186.223858,270 186,270.223858 186,270.5 C186,270.776142 186.223858,271 186.5,271 Z" transform="rotate(90 203.5 270.5)"/>
    <path fill="#A2E0F5" fill-rule="nonzero" d="M239,246 L249,246 C250.656854,246 252,244.656854 252,243 C252,241.343146 250.656854,240 249,240 L239,240 C237.343146,240 236,241.343146 236,243 C236,244.656854 237.343146,246 239,246 Z" transform="rotate(90 244 243)"/>
    <path fill="#A2E0F5" fill-rule="nonzero" d="M231.5,251 L255.5,251 C255.776142,251 256,250.776142 256,250.5 C256,250.223858 255.776142,250 255.5,250 L231.5,250 C231.223858,250 231,250.223858 231,250.5 C231,250.776142 231.223858,251 231.5,251 Z" transform="rotate(90 243.5 250.5)"/>
    <path fill="#A2E0F5" fill-rule="nonzero" d="M258,231.5 L262,231.5 C263.656854,231.5 265,230.156854 265,228.5 C265,226.843146 263.656854,225.5 262,225.5 L258,225.5 C256.343146,225.5 255,226.843146 255,228.5 C255,230.156854 256.343146,231.5 258,231.5 Z" transform="rotate(90 260 228.5)"/>
    <path fill="#A2E0F5" fill-rule="nonzero" d="M246,223.5 L273,223.5 C273.276142,223.5 273.5,223.276142 273.5,223 C273.5,222.723858 273.276142,222.5 273,222.5 L246,222.5 C245.723858,222.5 245.5,222.723858 245.5,223 C245.5,223.276142 245.723858,223.5 246,223.5 Z" transform="rotate(90 259.5 223)"/>
    <path fill="#A2E0F5" fill-rule="nonzero" d="M298,154 L302,154 C303.656854,154 305,152.656854 305,151 C305,149.343146 303.656854,148 302,148 L298,148 C296.343146,148 295,149.343146 295,151 C295,152.656854 296.343146,154 298,154 Z" transform="rotate(90 300 151)"/>
    <path fill="#A2E0F5" fill-rule="nonzero" d="M286,158.5 L313,158.5 C313.276142,158.5 313.5,158.276142 313.5,158 C313.5,157.723858 313.276142,157.5 313,157.5 L286,157.5 C285.723858,157.5 285.5,157.723858 285.5,158 C285.5,158.276142 285.723858,158.5 286,158.5 Z" transform="rotate(90 299.5 158)"/>
    <path fill="#A2E0F5" fill-rule="nonzero" d="M294.5,172.5 L321.5,172.5 C323.156854,172.5 324.5,171.156854 324.5,169.5 C324.5,167.843146 323.156854,166.5 321.5,166.5 L294.5,166.5 C292.843146,166.5 291.5,167.843146 291.5,169.5 C291.5,171.156854 292.843146,172.5 294.5,172.5 Z" transform="rotate(90 308 169.5)"/>
    <path fill="#A2E0F5" fill-rule="nonzero" d="M294,147.5 L321,147.5 C321.276142,147.5 321.5,147.276142 321.5,147 C321.5,146.723858 321.276142,146.5 321,146.5 L294,146.5 C293.723858,146.5 293.5,146.723858 293.5,147 C293.5,147.276142 293.723858,147.5 294,147.5 Z" transform="rotate(90 307.5 147)"/>
    <path fill="#A2E0F5" fill-rule="nonzero" d="M312,193 L320,193 C321.656854,193 323,191.656854 323,190 C323,188.343146 321.656854,187 320,187 L312,187 C310.343146,187 309,188.343146 309,190 C309,191.656854 310.343146,193 312,193 Z" transform="rotate(90 316 190)"/>
    <path fill="#A2E0F5" fill-rule="nonzero" d="M301,191.5 L330,191.5 C330.276142,191.5 330.5,191.276142 330.5,191 C330.5,190.723858 330.276142,190.5 330,190.5 L301,190.5 C300.723858,190.5 300.5,190.723858 300.5,191 C300.5,191.276142 300.723858,191.5 301,191.5 Z" transform="rotate(90 315.5 191)"/>
    <path fill="#A2E0F5" fill-rule="nonzero" d="M323,176.5 L341,176.5 C342.656854,176.5 344,175.156854 344,173.5 C344,171.843146 342.656854,170.5 341,170.5 L323,170.5 C321.343146,170.5 320,171.843146 320,173.5 C320,175.156854 321.343146,176.5 323,176.5 Z" transform="rotate(90 332 173.5)"/>
    <path fill="#A2E0F5" fill-rule="nonzero" d="M311,171.5 L352,171.5 C352.276142,171.5 352.5,171.276142 352.5,171 C352.5,170.723858 352.276142,170.5 352,170.5 L311,170.5 C310.723858,170.5 310.5,170.723858 310.5,171 C310.5,171.276142 310.723858,171.5 311,171.5 Z" transform="rotate(90 331.5 171)"/>
    <path fill="#A2E0F5" fill-rule="nonzero" d="M362,169.5 L366,169.5 C367.656854,169.5 369,168.156854 369,166.5 C369,164.843146 367.656854,163.5 366,163.5 L362,163.5 C360.343146,163.5 359,164.843146 359,166.5 C359,168.156854 360.343146,169.5 362,169.5 Z" transform="rotate(90 364 166.5)"/>
    <path fill="#A2E0F5" fill-rule="nonzero" d="M348.5,166 L378.5,166 C378.776142,166 379,165.776142 379,165.5 C379,165.223858 378.776142,165 378.5,165 L348.5,165 C348.223858,165 348,165.223858 348,165.5 C348,165.776142 348.223858,166 348.5,166 Z" transform="rotate(90 363.5 165.5)"/>
    <path fill="#A2E0F5" fill-rule="nonzero" d="M386,167.5 L390,167.5 C391.656854,167.5 393,166.156854 393,164.5 C393,162.843146 391.656854,161.5 390,161.5 L386,161.5 C384.343146,161.5 383,162.843146 383,164.5 C383,166.156854 384.343146,167.5 386,167.5 Z" transform="rotate(90 388 164.5)"/>
    <path fill="#A2E0F5" fill-rule="nonzero" d="M374.5,164 L400.5,164 C400.776142,164 401,163.776142 401,163.5 C401,163.223858 400.776142,163 400.5,163 L374.5,163 C374.223858,163 374,163.223858 374,163.5 C374,163.776142 374.223858,164 374.5,164 Z" transform="rotate(90 387.5 163.5)"/>
    <path fill="#A2E0F5" fill-rule="nonzero" d="M403.5,203 L404.5,203 C406.156854,203 407.5,201.656854 407.5,200 C407.5,198.343146 406.156854,197 404.5,197 L403.5,197 C401.843146,197 400.5,198.343146 400.5,200 C400.5,201.656854 401.843146,203 403.5,203 Z" transform="rotate(90 404 200)"/>
    <path fill="#A2E0F5" fill-rule="nonzero" d="M395.5,201 L412.5,201 C412.776142,201 413,200.776142 413,200.5 C413,200.223858 412.776142,200 412.5,200 L395.5,200 C395.223858,200 395,200.223858 395,200.5 C395,200.776142 395.223858,201 395.5,201 Z" transform="rotate(90 404 200.5)"/>
    <path fill="#A2E0F5" fill-rule="nonzero" d="M408,211.5 L416,211.5 C417.656854,211.5 419,210.156854 419,208.5 C419,206.843146 417.656854,205.5 416,205.5 L408,205.5 C406.343146,205.5 405,206.843146 405,208.5 C405,210.156854 406.343146,211.5 408,211.5 Z" transform="rotate(90 412 208.5)"/>
    <path fill="#A2E0F5" fill-rule="nonzero" d="M401.5,210 L422.5,210 C422.776142,210 423,209.776142 423,209.5 C423,209.223858 422.776142,209 422.5,209 L401.5,209 C401.223858,209 401,209.223858 401,209.5 C401,209.776142 401.223858,210 401.5,210 Z" transform="rotate(90 412 209.5)"/>
    <path fill="#A2E0F5" fill-rule="nonzero" d="M441.5,171 L446.5,171 C448.156854,171 449.5,169.656854 449.5,168 C449.5,166.343146 448.156854,165 446.5,165 L441.5,165 C439.843146,165 438.5,166.343146 438.5,168 C438.5,169.656854 439.843146,171 441.5,171 Z" transform="rotate(90 444 168)"/>
    <path fill="#A2E0F5" fill-rule="nonzero" d="M430,170.5 L458,170.5 C458.276142,170.5 458.5,170.276142 458.5,170 C458.5,169.723858 458.276142,169.5 458,169.5 L430,169.5 C429.723858,169.5 429.5,169.723858 429.5,170 C429.5,170.276142 429.723858,170.5 430,170.5 Z" transform="rotate(90 444 170)"/>
    <path fill="#A2E0F5" fill-rule="nonzero" d="M446,185.5 L458,185.5 C459.656854,185.5 461,184.156854 461,182.5 C461,180.843146 459.656854,179.5 458,179.5 L446,179.5 C444.343146,179.5 443,180.843146 443,182.5 C443,184.156854 444.343146,185.5 446,185.5 Z" transform="rotate(90 452 182.5)"/>
    <path fill="#A2E0F5" fill-rule="nonzero" d="M436.5,185 L467.5,185 C467.776142,185 468,184.776142 468,184.5 C468,184.223858 467.776142,184 467.5,184 L436.5,184 C436.223858,184 436,184.223858 436,184.5 C436,184.776142 436.223858,185 436.5,185 Z" transform="rotate(90 452 184.5)"/>
    <path fill="#A2E0F5" fill-rule="nonzero" d="M463,201.5 L489,201.5 C490.656854,201.5 492,200.156854 492,198.5 C492,196.843146 490.656854,195.5 489,195.5 L463,195.5 C461.343146,195.5 460,196.843146 460,198.5 C460,200.156854 461.343146,201.5 463,201.5 Z" transform="rotate(90 476 198.5)"/>
    <path fill="#A2E0F5" fill-rule="nonzero" d="M460.5,194 L491.5,194 C491.776142,194 492,193.776142 492,193.5 C492,193.223858 491.776142,193 491.5,193 L460.5,193 C460.223858,193 460,193.223858 460,193.5 C460,193.776142 460.223858,194 460.5,194 Z" transform="rotate(90 476 193.5)"/>
    <path fill="#A2E0F5" fill-rule="nonzero" d="M459,195.5 L461,195.5 C462.656854,195.5 464,194.156854 464,192.5 C464,190.843146 462.656854,189.5 461,189.5 L459,189.5 C457.343146,189.5 456,190.843146 456,192.5 C456,194.156854 457.343146,195.5 459,195.5 Z" transform="rotate(90 460 192.5)"/>
    <path fill="#A2E0F5" fill-rule="nonzero" d="M443,196.5 L477,196.5 C477.276142,196.5 477.5,196.276142 477.5,196 C477.5,195.723858 477.276142,195.5 477,195.5 L443,195.5 C442.723858,195.5 442.5,195.723858 442.5,196 C442.5,196.276142 442.723858,196.5 443,196.5 Z" transform="rotate(90 460 196)"/>
    <path fill="#A2E0F5" fill-rule="nonzero" d="M384,185.5 L408,185.5 C409.656854,185.5 411,184.156854 411,182.5 C411,180.843146 409.656854,179.5 408,179.5 L384,179.5 C382.343146,179.5 381,180.843146 381,182.5 C381,184.156854 382.343146,185.5 384,185.5 Z" transform="rotate(90 396 182.5)"/>
    <path fill="#A2E0F5" fill-rule="nonzero" d="M382.5,195 L408.5,195 C408.776142,195 409,194.776142 409,194.5 C409,194.223858 408.776142,194 408.5,194 L382.5,194 C382.223858,194 382,194.223858 382,194.5 C382,194.776142 382.223858,195 382.5,195 Z" transform="rotate(90 395.5 194.5)"/>
    <path fill="#A2E0F5" fill-rule="nonzero" d="M213,245.5 L226,245.5 C226.276142,245.5 226.5,245.276142 226.5,245 C226.5,244.723858 226.276142,244.5 226,244.5 L213,244.5 C212.723858,244.5 212.5,244.723858 212.5,245 C212.5,245.276142 212.723858,245.5 213,245.5 Z" transform="rotate(90 219.5 245)"/>
    <path fill="#A2E0F5" fill-rule="nonzero" d="M183,247 L209,247 C210.656854,247 212,245.656854 212,244 C212,242.343146 210.656854,241 209,241 L183,241 C181.343146,241 180,242.343146 180,244 C180,245.656854 181.343146,247 183,247 Z" transform="rotate(90 196 244)"/>
    <path fill="#A2E0F5" fill-rule="nonzero" d="M163,242.5 L228,242.5 C228.276142,242.5 228.5,242.276142 228.5,242 C228.5,241.723858 228.276142,241.5 228,241.5 L163,241.5 C162.723858,241.5 162.5,241.723858 162.5,242 C162.5,242.276142 162.723858,242.5 163,242.5 Z" transform="rotate(90 195.5 242)"/>
    <path fill="#A2E0F5" fill-rule="nonzero" d="M133.5,224.5 L148.5,224.5 C150.156854,224.5 151.5,223.156854 151.5,221.5 C151.5,219.843146 150.156854,218.5 148.5,218.5 L133.5,218.5 C131.843146,218.5 130.5,219.843146 130.5,221.5 C130.5,223.156854 131.843146,224.5 133.5,224.5 Z" transform="rotate(90 141 221.5)"/>
    <path fill="#A2E0F5" fill-rule="nonzero" d="M117.5,234 L164.5,234 C164.776142,234 165,233.776142 165,233.5 C165,233.223858 164.776142,233 164.5,233 L117.5,233 C117.223858,233 117,233.223858 117,233.5 C117,233.776142 117.223858,234 117.5,234 Z" transform="rotate(90 141 233.5)"/>
    <path fill="#A2E0F5" fill-rule="nonzero" d="M136.5,249.5 L161.5,249.5 C163.156854,249.5 164.5,248.156854 164.5,246.5 C164.5,244.843146 163.156854,243.5 161.5,243.5 L136.5,243.5 C134.843146,243.5 133.5,244.843146 133.5,246.5 C133.5,248.156854 134.843146,249.5 136.5,249.5 Z" transform="rotate(90 149 246.5)"/>
    <path fill="#A2E0F5" fill-rule="nonzero" d="M131.5,253 L166.5,253 C166.776142,253 167,252.776142 167,252.5 C167,252.223858 166.776142,252 166.5,252 L131.5,252 C131.223858,252 131,252.223858 131,252.5 C131,252.776142 131.223858,253 131.5,253 Z" transform="rotate(90 149 252.5)"/>
    <path fill="#A2E0F5" fill-rule="nonzero" d="M78.5,295.5 L107.5,295.5 C109.156854,295.5 110.5,294.156854 110.5,292.5 C110.5,290.843146 109.156854,289.5 107.5,289.5 L78.5,289.5 C76.8431458,289.5 75.5,290.843146 75.5,292.5 C75.5,294.156854 76.8431458,295.5 78.5,295.5 Z" transform="rotate(90 93 292.5)"/>
    <path fill="#A2E0F5" fill-rule="nonzero" d="M84,280.5 L102,280.5 C102.276142,280.5 102.5,280.276142 102.5,280 C102.5,279.723858 102.276142,279.5 102,279.5 L84,279.5 C83.7238576,279.5 83.5,279.723858 83.5,280 C83.5,280.276142 83.7238576,280.5 84,280.5 Z" transform="rotate(90 93 280)"/>
    <path fill="#A2E0F5" fill-rule="nonzero" d="M100.5,312.5 L101.5,312.5 C103.156854,312.5 104.5,311.156854 104.5,309.5 C104.5,307.843146 103.156854,306.5 101.5,306.5 L100.5,306.5 C98.8431458,306.5 97.5,307.843146 97.5,309.5 C97.5,311.156854 98.8431458,312.5 100.5,312.5 Z" transform="rotate(90 101 309.5)"/>
    <path fill="#A2E0F5" fill-rule="nonzero" d="M89,313.5 L113,313.5 C113.276142,313.5 113.5,313.276142 113.5,313 C113.5,312.723858 113.276142,312.5 113,312.5 L89,312.5 C88.7238576,312.5 88.5,312.723858 88.5,313 C88.5,313.276142 88.7238576,313.5 89,313.5 Z" transform="rotate(90 101 313)"/>
    <rect width="6" height="17" x="50" y="325" fill="#DFE4EE"/>
    <rect width="6" height="12" x="58" y="330" fill="#DFE4EE"/>
    <rect width="6" height="12" x="66" y="330" fill="#DFE4EE"/>
    <rect width="6" height="12" x="74" y="330" fill="#DFE4EE"/>
    <rect width="6" height="5" x="82" y="337" fill="#DFE4EE"/>
    <rect width="6" height="12" x="90" y="330" fill="#DFE4EE"/>
    <rect width="6" height="12" x="98" y="330" fill="#DFE4EE"/>
    <rect width="6" height="10" x="106" y="332" fill="#DFE4EE"/>
    <rect width="6" height="29" x="114" y="313" fill="#DFE4EE"/>
    <rect width="6" height="12" x="122" y="330" fill="#DFE4EE"/>
    <rect width="6" height="12" x="130" y="330" fill="#DFE4EE"/>
    <rect width="6" height="10" x="138" y="332" fill="#DFE4EE"/>
    <rect width="6" height="10" x="146" y="332" fill="#DFE4EE"/>
    <rect width="6" height="5" x="154" y="337" fill="#DFE4EE"/>
    <rect width="6" height="10" x="162" y="332" fill="#DFE4EE"/>
    <rect width="6" height="12" x="170" y="330" fill="#DFE4EE"/>
    <rect width="6" height="10" x="178" y="332" fill="#DFE4EE"/>
    <rect width="6" height="12" x="186" y="330" fill="#DFE4EE"/>
    <rect width="6" height="27" x="194" y="315" fill="#DFE4EE"/>
    <rect width="6" height="12" x="202" y="330" fill="#DFE4EE"/>
    <rect width="6" height="21" x="210" y="321" fill="#DFE4EE"/>
    <rect width="6" height="12" x="218" y="330" fill="#DFE4EE"/>
    <rect width="6" height="17" x="226" y="325" fill="#DFE4EE"/>
    <rect width="6" height="12" x="234" y="330" fill="#DFE4EE"/>
    <rect width="6" height="17" x="242" y="325" fill="#DFE4EE"/>
    <rect width="6" height="19" x="250" y="323" fill="#DFE4EE"/>
    <rect width="6" height="17" x="258" y="325" fill="#DFE4EE"/>
    <rect width="6" height="15" x="266" y="327" fill="#DFE4EE"/>
    <rect width="6" height="23" x="274" y="319" fill="#DFE4EE"/>
    <rect width="6" height="34" x="282" y="308" fill="#DFE4EE"/>
    <rect width="6" height="42" x="290" y="300" fill="#DFE4EE"/>
    <rect width="6" height="15" x="298" y="327" fill="#DFE4EE"/>
    <rect width="6" height="25" x="306" y="317" fill="#DFE4EE"/>
    <rect width="6" height="23" x="314" y="319" fill="#DFE4EE"/>
    <rect width="6" height="21" x="322" y="321" fill="#DFE4EE"/>
    <rect width="6" height="25" x="330" y="317" fill="#DFE4EE"/>
    <rect width="6" height="15" x="338" y="327" fill="#DFE4EE"/>
    <rect width="6" height="8" x="346" y="334" fill="#DFE4EE"/>
    <rect width="6" height="15" x="354" y="327" fill="#DFE4EE"/>
    <rect width="6" height="21" x="362" y="321" fill="#DFE4EE"/>
    <rect width="6" height="15" x="370" y="327" fill="#DFE4EE"/>
    <rect width="6" height="15" x="378" y="327" fill="#DFE4EE"/>
    <rect width="6" height="12" x="386" y="330" fill="#DFE4EE"/>
    <rect width="6" height="15" x="394" y="327" fill="#DFE4EE"/>
    <rect width="6" height="12" x="402" y="330" fill="#DFE4EE"/>
    <rect width="6" height="15" x="410" y="327" fill="#DFE4EE"/>
    <rect width="6" height="17" x="418" y="325" fill="#DFE4EE"/>
    <rect width="6" height="12" x="426" y="330" fill="#DFE4EE"/>
    <rect width="6" height="8" x="434" y="334" fill="#DFE4EE"/>
    <rect width="6" height="15" x="442" y="327" fill="#DFE4EE"/>
    <rect width="6" height="17" x="450" y="325" fill="#DFE4EE"/>
    <rect width="6" height="21" x="458" y="321" fill="#DFE4EE"/>
    <rect width="6" height="12" x="466" y="330" fill="#DFE4EE"/>
    <rect width="6" height="19" x="474" y="323" fill="#DFE4EE"/>
    <rect width="6" height="21" x="482" y="321" fill="#DFE4EE"/>
    <rect width="6" height="17" x="490" y="325" fill="#DFE4EE"/>
    <rect width="6" height="27" x="498" y="315" fill="#DFE4EE"/>
    <rect width="6" height="23" x="506" y="319" fill="#DFE4EE"/>
    <rect width="6" height="19" x="514" y="323" fill="#DFE4EE"/>
    <rect width="6" height="23" x="522" y="319" fill="#DFE4EE"/>
    <rect width="6" height="47" x="530" y="295" fill="#DFE4EE"/>
    <rect width="6" height="77" x="538" y="265" fill="#DFE4EE"/>
    <circle cx="36" cy="36" r="6" fill="#DFE4EE"/>
    <circle cx="57" cy="36" r="6" fill="#DFE4EE"/>
    <circle cx="78" cy="36" r="6" fill="#DFE4EE"/>
    <polygon fill="#DFE4EE" fill-rule="nonzero" points="0 63 592.244 63 592.244 62 0 62" opacity=".5"/>
    <path fill="#4F89DC" fill-rule="nonzero" d="M74.5,255 L79.5,255 C79.7761424,255 80,254.776142 80,254.5 C80,254.223858 79.7761424,254 79.5,254 L74.5,254 C74.2238576,254 74,254.223858 74,254.5 C74,254.776142 74.2238576,255 74.5,255 Z" transform="rotate(90 77 254.5)"/>
    <path fill="#A2E0F5" fill-rule="nonzero" d="M217,244.5 L223,244.5 C223.276142,244.5 223.5,244.276142 223.5,244 C223.5,243.723858 223.276142,243.5 223,243.5 L217,243.5 C216.723858,243.5 216.5,243.723858 216.5,244 C216.5,244.276142 216.723858,244.5 217,244.5 Z" transform="rotate(90 220 244)"/>
    <path fill="#A2E0F5" fill-rule="nonzero" d="M354,162.5 L389,162.5 C389.276142,162.5 389.5,162.276142 389.5,162 C389.5,161.723858 389.276142,161.5 389,161.5 L354,161.5 C353.723858,161.5 353.5,161.723858 353.5,162 C353.5,162.276142 353.723858,162.5 354,162.5 Z" transform="rotate(90 371.5 162)"/>
    <path fill="#A2E0F5" fill-rule="nonzero" d="M369,172.5 L375,172.5 C375.276142,172.5 375.5,172.276142 375.5,172 C375.5,171.723858 375.276142,171.5 375,171.5 L369,171.5 C368.723858,171.5 368.5,171.723858 368.5,172 C368.5,172.276142 368.723858,172.5 369,172.5 Z" transform="rotate(90 372 172)"/>
    <path fill="#A2E0F5" fill-rule="nonzero" d="M480.5,206 L502.5,206 C502.776142,206 503,205.776142 503,205.5 C503,205.223858 502.776142,205 502.5,205 L480.5,205 C480.223858,205 480,205.223858 480,205.5 C480,205.776142 480.223858,206 480.5,206 Z" transform="rotate(90 491.5 205.5)"/>
  </g>
</svg>
