<svg xmlns="http://www.w3.org/2000/svg" width="394" height="315"><path fill="#e0e1e6" d="M78.752 157.495L236.253-.005l157.501 157.5-157.5 157.501z"/><path fill="#0053ff" fill-rule="evenodd" d="M157.53.06L0 157.5l157.55 157.48L315 157.5 157.53.06z"/><path d="M220.1 141.35l-7.1-7.07-16.15 16.15-32.3-32.3L180.72 102l-7.07-7.07-16.15 16.12-16.15-16.15-7.07 7.1 16.15 16.15-32.3 32.3L102 134.28l-7.07 7.07 16.15 16.15-16.18 16.15 7.07 7.07 16.15-16.15 32.3 32.3L134.28 213l7.07 7.07 16.15-16.15 16.15 16.15 7.07-7.07-16.15-16.15 32.3-32.3L213 180.72l7.07-7.07-16.12-16.15zm-62.6 48.45l-32.3-32.3 32.3-32.3 32.3 32.3z" fill="#fff"/></svg>
