<svg xmlns="http://www.w3.org/2000/svg" width="2560" height="841" viewBox="0 0 2560 841">
  <defs>
    <linearGradient id="1_bgr-a" x1="52.122%" x2="50%" y1="19.645%" y2="100%">
      <stop offset="0%" stop-color="#0053FF" stop-opacity=".6"/>
      <stop offset="100%" stop-color="#D8D8D8" stop-opacity="0"/>
    </linearGradient>
    <linearGradient id="1_bgr-b" x1="43.336%" x2="50.066%" y1="55.845%" y2="95.743%">
      <stop offset="0%" stop-color="#32FFFD" stop-opacity="0"/>
      <stop offset="100%" stop-color="#009FFF" stop-opacity=".86"/>
    </linearGradient>
    <linearGradient id="1_bgr-c" x1="52.318%" x2="50.029%" y1="-32.698%" y2="97.888%">
      <stop offset="0%" stop-color="#32FFFD" stop-opacity="0"/>
      <stop offset="98.358%" stop-color="#009FFF" stop-opacity=".86"/>
    </linearGradient>
  </defs>
  <g fill="none" fill-rule="evenodd" transform="translate(-585 -1549)">
    <rect width="3000" height="900" x="379.512" y="1375.021" fill="#172947" transform="rotate(-5 1879.512 1825.021)"/>
    <polygon fill="#0053FF" fill-opacity=".5" points="2061.682 136.068 5115.82 137.682 4941.252 2147.919 1905.564 2147.919" opacity=".05" transform="rotate(175 3510.692 1141.994)"/>
    <rect width="1516" height="698" x="2323" y="1474" fill="url(#1_bgr-a)" opacity=".2"/>
    <rect width="4421" height="1179" x="44.967" y="601.415" fill="url(#1_bgr-b)" opacity=".05" transform="rotate(-5 2255.467 1190.915)"/>
    <polygon fill="url(#1_bgr-b)" points="43.227 871.414 4465.97 851.491 4465.97 2030.491 44.97 2030.491" opacity=".02" transform="rotate(-5 2254.598 1440.99)"/>
    <rect width="3000" height="800" x="540" y="863" fill="url(#1_bgr-c)" opacity=".05" transform="rotate(-5 2040 1263)"/>
  </g>
</svg>
