<svg xmlns="http://www.w3.org/2000/svg" width="2560" height="841" viewBox="0 0 2560 841">
  <defs>
    <linearGradient id="index_bgr-a" x1="48.172%" x2="49.031%" y1="40.05%" y2="86.771%">
      <stop offset="0%" stop-color="#002FFF" stop-opacity=".67"/>
      <stop offset="100%" stop-color="#D8D8D8" stop-opacity="0"/>
    </linearGradient>
    <linearGradient id="index_bgr-b" x1="52.318%" x2="50.029%" y1="-32.698%" y2="97.888%">
      <stop offset="0%" stop-color="#32FFFD" stop-opacity="0"/>
      <stop offset="98.358%" stop-color="#009FFF" stop-opacity=".86"/>
    </linearGradient>
    <linearGradient id="index_bgr-c" x1="50%" x2="52.649%" y1="0%" y2="59.813%">
      <stop offset="0%" stop-color="#006CFF" stop-opacity=".66"/>
      <stop offset="100%" stop-color="#D8D8D8" stop-opacity="0"/>
    </linearGradient>
    <linearGradient id="index_bgr-d" x1="52.122%" x2="50%" y1="19.645%" y2="100%">
      <stop offset="0%" stop-color="#0053FF" stop-opacity=".6"/>
      <stop offset="100%" stop-color="#D8D8D8" stop-opacity="0"/>
    </linearGradient>
    <linearGradient id="index_bgr-e" x1="50%" x2="50%" y1="13.917%" y2="100%">
      <stop offset="0%" stop-color="#0053FF" stop-opacity=".5"/>
      <stop offset="100%" stop-color="#D8D8D8" stop-opacity="0"/>
    </linearGradient>
    <linearGradient id="index_bgr-f" x1="49.333%" x2="50%" y1="-1.985%" y2="98.89%">
      <stop offset="0%" stop-color="#0053FF" stop-opacity=".63"/>
      <stop offset="100%" stop-color="#D8D8D8" stop-opacity="0"/>
    </linearGradient>
    <linearGradient id="index_bgr-g" x1="82.081%" x2="52.649%" y1="-147.203%" y2="59.813%">
      <stop offset="0%" stop-color="#0053FF"/>
      <stop offset="43.646%" stop-color="#D8D8D8"/>
      <stop offset="98.691%" stop-color="#D5D6D9" stop-opacity=".013"/>
      <stop offset="100%" stop-color="#D8D8D8" stop-opacity="0"/>
    </linearGradient>
  </defs>
  <g fill="none" fill-rule="evenodd" transform="translate(-570 -605)">
    <polygon fill="url(#index_bgr-a)" points="467 605 3219 605 3219 1435 467 1435"/>
    <rect width="3000" height="800" x="521" y="484" opacity=".6" transform="rotate(-5 2021 884)"/>
    <rect width="3000" height="800" x="521" y="484" fill="url(#index_bgr-b)" opacity=".6" transform="rotate(-5 2021 884)"/>
    <polygon fill="url(#index_bgr-c)" points="688.365 619.126 2337.434 619.997 2264.966 1456.368 625.859 1456.368" opacity=".6" transform="rotate(-5 1481.647 1037.747)"/>
    <polygon fill="#0053FF" fill-opacity=".5" points="2638.336 73.47 4287.405 74.341 4193.148 1159.76 2554.04 1159.76" opacity=".6" transform="rotate(175 3420.723 616.615)"/>
    <rect width="1166" height="698" x="1778" y="602" fill="url(#index_bgr-d)"/>
    <rect width="766" height="698" x="338" y="590" fill="url(#index_bgr-e)"/>
    <polygon fill="url(#index_bgr-f)" points="1072.264 752.536 2250.264 752.536 2194.725 1393.142 1016.725 1393.142" transform="rotate(-5 1633.494 1072.84)"/>
    <polygon fill="url(#index_bgr-f)" points="82.7 754.555 1260.7 754.555 1204.289 1405.123 26.289 1405.123" opacity=".2" transform="rotate(175 643.494 1079.84)"/>
    <polygon fill="url(#index_bgr-g)" points="2415.336 94.47 4064.405 95.341 3970.148 1180.76 2331.04 1180.76" opacity=".6" transform="rotate(175 3197.723 637.615)"/>
    <polygon fill="#0053FF" fill-opacity=".5" points="2006.466 130.468 3655.448 132.335 3561.191 1217.755 1922.084 1217.755" opacity=".5" transform="rotate(175 2788.766 674.111)"/>
  </g>
</svg>
